<svg width="20" height="21" viewBox="0 0 20 21" fill="none" xmlns="http://www.w3.org/2000/svg">
<path fill-rule="evenodd" clip-rule="evenodd" d="M14.9654 10.6617V14.0495C14.9654 15.7571 11.3432 16.175 10 16.175C8.65691 16.175 5.03467 15.7571 5.03467 14.0495V10.6617L9.42286 12.8614C9.79121 13.0497 10.2088 13.0497 10.5771 12.8614L14.9654 10.6617ZM16.9588 9.15171L17.7845 8.74004H17.7839C17.9162 8.6752 18.002 8.52289 18 8.35415C18.002 8.18776 17.9155 8.037 17.7839 7.97607L10.4189 4.2805C10.1523 4.1399 9.84774 4.1399 9.58112 4.2805L2.21612 7.97607C2.08447 8.037 1.99804 8.18777 2.00003 8.35415C1.99804 8.52288 2.08381 8.67521 2.21612 8.74004L9.58112 12.4278C9.84774 12.5684 10.1523 12.5684 10.4189 12.4278L16.5584 9.35397V12.1754C16.4054 12.2645 16.3084 12.4473 16.3077 12.6473V14.0752C16.309 14.226 16.4128 14.3478 16.5411 14.3494H16.9786C17.1069 14.3478 17.2106 14.226 17.2119 14.0752V12.6535C17.2126 12.4496 17.1142 12.2637 16.958 12.1754L16.9588 9.15171Z" fill="#101828" fill-opacity="0.2"/>
</svg>
