<svg width="20" height="21" viewBox="0 0 20 21" fill="none" xmlns="http://www.w3.org/2000/svg">
<path d="M12.8183 10.8017C12.8183 10.2306 12.4403 9.75104 11.9229 9.58617V8.57649C11.9229 8.25757 11.7604 7.9676 11.4878 7.8008C11.2152 7.634 10.882 7.62125 10.597 7.76682C10.4098 7.86257 10.2387 7.95254 10.0781 8.03748C9.13136 8.53672 8.60856 8.81202 7.30891 8.88345H5.79652C5.15789 8.88345 4.63818 9.40316 4.63818 10.0418V11.5619C4.63818 12.2005 5.15789 12.7202 5.79652 12.7202H6.0139L6.81122 15.089C6.86682 15.2547 6.98381 15.3883 7.14096 15.4651C7.23092 15.5091 7.32745 15.5311 7.42475 15.5311C7.49734 15.5311 7.56993 15.5188 7.64058 15.4941L8.2101 15.2937C8.54177 15.1771 8.72169 14.811 8.6105 14.4774L8.05334 12.8052C8.81668 12.9345 9.29275 13.1774 10.0163 13.5515C10.197 13.645 10.3909 13.745 10.6059 13.8519C10.7349 13.916 10.8739 13.9481 11.0121 13.9481C11.1785 13.9481 11.3442 13.9017 11.492 13.8106C11.7619 13.6434 11.9229 13.3546 11.9229 13.038V12.0175C12.4403 11.8526 12.8183 11.3727 12.8183 10.8017ZM7.50313 14.7238L6.82859 12.7202H7.21084L7.83866 14.6056L7.50274 14.7238H7.50313ZM11.1507 13.0376C11.1507 13.1036 11.1098 13.1388 11.0855 13.1538C11.0608 13.1693 11.0106 13.1905 10.9499 13.1604C10.7387 13.0554 10.5484 12.9569 10.3712 12.8654C9.49585 12.4129 8.8912 12.1005 7.70931 11.9789V9.62903C8.93213 9.51552 9.5472 9.19118 10.4387 8.7209C10.5967 8.63789 10.765 8.54908 10.9488 8.45487C11.0086 8.42475 11.06 8.4456 11.0847 8.46027C11.1094 8.47533 11.1507 8.51047 11.1507 8.57727V13.038V13.0376Z" fill="#101828" fill-opacity="0.2"/>
<path d="M12.9255 12.5302C12.7479 12.4113 12.5082 12.46 12.39 12.6372C12.2719 12.8144 12.3197 13.0546 12.497 13.1727L13.351 13.7422C13.4167 13.7863 13.4912 13.8071 13.5649 13.8071C13.6897 13.8071 13.8121 13.7469 13.8866 13.6353C14.0047 13.4581 13.9569 13.2179 13.7796 13.0998L12.9255 12.5302Z" fill="#101828" fill-opacity="0.2"/>
<path d="M14.4204 10.4722H13.5663C13.3532 10.4722 13.1802 10.6451 13.1802 10.8583C13.1802 11.0714 13.3532 11.2444 13.5663 11.2444H14.4204C14.6335 11.2444 14.8065 11.0714 14.8065 10.8583C14.8065 10.6451 14.6335 10.4722 14.4204 10.4722Z" fill="#101828" fill-opacity="0.2"/>
<path d="M12.7121 9.25145C12.7855 9.25145 12.86 9.2306 12.926 9.18658L13.7801 8.61707C13.9573 8.49892 14.0052 8.25915 13.8871 8.08153C13.7685 7.90431 13.5291 7.85566 13.3515 7.97458L12.4975 8.5441C12.3202 8.66225 12.2724 8.90202 12.3905 9.07963C12.465 9.19122 12.5874 9.25145 12.7121 9.25145Z" fill="#101828" fill-opacity="0.2"/>
<path d="M15.5139 3.17505H3.93056C2.86605 3.17505 2 4.0411 2 5.1056V15.1445C2 16.209 2.86605 17.075 3.93056 17.075H15.5139C16.5784 17.075 17.4444 16.209 17.4444 15.1445V5.1056C17.4444 4.0411 16.5784 3.17505 15.5139 3.17505ZM7.2125 4.52644C7.5322 4.52644 7.79167 4.7859 7.79167 5.1056C7.79167 5.4253 7.5322 5.68477 7.2125 5.68477C6.8928 5.68477 6.63333 5.4253 6.63333 5.1056C6.63333 4.7859 6.8928 4.52644 7.2125 4.52644ZM5.66806 4.52644C5.98776 4.52644 6.24722 4.7859 6.24722 5.1056C6.24722 5.4253 5.98776 5.68477 5.66806 5.68477C5.34836 5.68477 5.08889 5.4253 5.08889 5.1056C5.08889 4.7859 5.34836 4.52644 5.66806 4.52644ZM4.12361 4.52644C4.44331 4.52644 4.70278 4.7859 4.70278 5.1056C4.70278 5.4253 4.44331 5.68477 4.12361 5.68477C3.80391 5.68477 3.54444 5.4253 3.54444 5.1056C3.54444 4.7859 3.80391 4.52644 4.12361 4.52644ZM16.6722 15.1445C16.6722 15.7831 16.1525 16.3028 15.5139 16.3028H3.93056C3.29193 16.3028 2.77222 15.7831 2.77222 15.1445V7.03616H16.6722V15.1445Z" fill="#101828" fill-opacity="0.2"/>
</svg>
