<svg width="20" height="21" viewBox="0 0 20 21" fill="none" xmlns="http://www.w3.org/2000/svg">
<path d="M17.4286 12.4608H14.5714V9.03219H15.1429C15.2944 9.03219 15.4398 8.97199 15.5469 8.86483C15.6541 8.75766 15.7143 8.61232 15.7143 8.46076C15.7143 8.30921 15.6541 8.16387 15.5469 8.0567C15.4398 7.94954 15.2944 7.88934 15.1429 7.88934H13.3771C13.258 7.18851 12.9241 6.54203 12.4214 6.03937C11.9187 5.53671 11.2723 5.20272 10.5714 5.08362V5.03219H12.8571C13.0087 5.03219 13.154 4.97199 13.2612 4.86482C13.3684 4.75766 13.4286 4.61232 13.4286 4.46076V2.74648C13.4286 2.59493 13.3684 2.44958 13.2612 2.34242C13.154 2.23525 13.0087 2.17505 12.8571 2.17505H10C9.84845 2.17505 9.7031 2.23525 9.59594 2.34242C9.48878 2.44958 9.42857 2.59493 9.42857 2.74648V5.08362C8.72775 5.20272 8.08127 5.53671 7.5786 6.03937C7.07594 6.54203 6.74195 7.18851 6.62286 7.88934H4.85714C4.70559 7.88934 4.56025 7.94954 4.45308 8.0567C4.34592 8.16387 4.28571 8.30921 4.28571 8.46076C4.28571 8.61232 4.34592 8.75766 4.45308 8.86483C4.56025 8.97199 4.70559 9.03219 4.85714 9.03219H5.42857V12.4608H2.57143C2.41988 12.4608 2.27453 12.521 2.16737 12.6281C2.0602 12.7353 2 12.8806 2 13.0322C2 13.1837 2.0602 13.3291 2.16737 13.4363C2.27453 13.5434 2.41988 13.6036 2.57143 13.6036H3.14286V17.6036C3.14286 17.7552 3.20306 17.9005 3.31022 18.0077C3.41739 18.1148 3.56273 18.1751 3.71429 18.1751H5.42857V15.3179C5.42857 15.1664 5.48878 15.021 5.59594 14.9138C5.7031 14.8067 5.84845 14.7465 6 14.7465C6.15155 14.7465 6.2969 14.8067 6.40406 14.9138C6.51122 15.021 6.57143 15.1664 6.57143 15.3179V18.1751H7.71429V15.3179C7.71429 15.1664 7.77449 15.021 7.88165 14.9138C7.98882 14.8067 8.13416 14.7465 8.28571 14.7465C8.43727 14.7465 8.58261 14.8067 8.68978 14.9138C8.79694 15.021 8.85714 15.1664 8.85714 15.3179V18.1751H11.1429V15.3179C11.1429 15.1664 11.2031 15.021 11.3102 14.9138C11.4174 14.8067 11.5627 14.7465 11.7143 14.7465C11.8658 14.7465 12.0112 14.8067 12.1183 14.9138C12.2255 15.021 12.2857 15.1664 12.2857 15.3179V18.1751H13.4286V15.3179C13.4286 15.1664 13.4888 15.021 13.5959 14.9138C13.7031 14.8067 13.8484 14.7465 14 14.7465C14.1516 14.7465 14.2969 14.8067 14.4041 14.9138C14.5112 15.021 14.5714 15.1664 14.5714 15.3179V18.1751H16.2857C16.4373 18.1751 16.5826 18.1148 16.6898 18.0077C16.7969 17.9005 16.8571 17.7552 16.8571 17.6036V13.6036H17.4286C17.5801 13.6036 17.7255 13.5434 17.8326 13.4363C17.9398 13.3291 18 13.1837 18 13.0322C18 12.8806 17.9398 12.7353 17.8326 12.6281C17.7255 12.521 17.5801 12.4608 17.4286 12.4608ZM11.1429 12.4608V10.7465C11.1429 10.5949 11.2031 10.4496 11.3102 10.3424C11.4174 10.2353 11.5627 10.175 11.7143 10.175C11.8658 10.175 12.0112 10.2353 12.1183 10.3424C12.2255 10.4496 12.2857 10.5949 12.2857 10.7465V12.4608H11.1429ZM7.71429 10.7465C7.71429 10.5949 7.77449 10.4496 7.88165 10.3424C7.98882 10.2353 8.13416 10.175 8.28571 10.175C8.43727 10.175 8.58261 10.2353 8.68978 10.3424C8.79694 10.4496 8.85714 10.5949 8.85714 10.7465V12.4608H7.71429V10.7465Z" fill="#101828" fill-opacity="0.2"/>
</svg>
