<svg width="20" height="21" viewBox="0 0 20 21" fill="none" xmlns="http://www.w3.org/2000/svg">
<path d="M14.5616 17.2915C14.6732 17.2915 14.7627 17.2012 14.7627 17.0903C14.7627 16.9795 14.6732 16.8892 14.5616 16.8892H13.4528L12.7384 15.4229H8.15007L7.43783 16.8892H6.32911C6.21751 16.8892 6.12793 16.9795 6.12793 17.0903C6.12793 17.2012 6.21751 17.2915 6.32911 17.2915H14.5616Z" fill="#101828" fill-opacity="0.2"/>
<path d="M11.6447 11.6732C11.525 11.5234 11.3444 11.4361 11.1527 11.4346C11.0991 11.4353 11.0477 11.414 11.0096 11.3766C10.9721 11.3384 10.9508 11.287 10.9516 11.2334V10.0549H9.93828V11.2261C9.93828 11.2797 9.91772 11.3311 9.87954 11.3685C9.84209 11.4067 9.7907 11.4273 9.7371 11.4273C9.54473 11.4273 9.36262 11.5161 9.24441 11.6674V11.6769C9.23046 11.6953 9.21724 11.7136 9.20476 11.7334C9.14382 11.8333 9.11077 11.9471 9.10931 12.0646C9.11077 12.1013 9.11518 12.1387 9.12252 12.1755C9.12766 12.2026 9.12766 12.2305 9.12252 12.2577V12.2672C9.11445 12.2937 9.10049 12.3172 9.08067 12.337C9.04763 12.3678 9.00577 12.3877 8.96099 12.3935C8.94116 12.3957 8.92207 12.3957 8.90224 12.3935H8.79358C8.62543 12.3928 8.46316 12.4596 8.34422 12.5778C8.22527 12.6968 8.15771 12.8583 8.15771 13.0265C8.15918 13.0903 8.16946 13.1535 8.18782 13.2144C8.2003 13.2519 8.21499 13.2886 8.23114 13.3238H12.6808C12.8254 13.0558 12.7542 12.7225 12.5133 12.536C12.5802 12.5866 12.636 12.6505 12.6771 12.7239C12.6338 12.6527 12.5787 12.5888 12.5133 12.536C12.4032 12.4501 12.2674 12.4038 12.1279 12.4045H12.017C11.995 12.4082 11.9722 12.4082 11.9494 12.4045C11.9091 12.3972 11.8709 12.3781 11.8408 12.3502C11.8085 12.3164 11.7886 12.2724 11.7842 12.2261C11.7813 12.2085 11.7813 12.1909 11.7842 12.1732V12.113C11.785 12.0962 11.785 12.0793 11.7842 12.0624C11.7835 11.9177 11.7336 11.7775 11.641 11.6659C11.6058 11.624 11.5662 11.5866 11.5228 11.5528C11.5676 11.5888 11.6087 11.6292 11.6447 11.6732Z" fill="#101828" fill-opacity="0.2"/>
<path d="M12.5697 7.78223C12.5168 8.18974 12.4353 8.59285 12.3252 8.98861L13.6689 9.55252C13.5991 8.82341 13.1924 8.16845 12.5697 7.78223Z" fill="#101828" fill-opacity="0.2"/>
<path d="M17.4674 5.47729H12.5575C12.647 6.09994 12.6661 6.73068 12.614 7.35699C13.0685 7.59708 13.4474 7.95907 13.708 8.40257C13.968 8.84607 14.0994 9.3527 14.0876 9.86668C14.0803 9.97242 13.9922 10.0539 13.8865 10.0547C13.86 10.0547 13.8329 10.0495 13.8079 10.04L12.2028 9.36739C12.1389 9.55536 12.0655 9.74333 11.9884 9.9313V9.93057C11.9554 10.0047 11.8819 10.0532 11.8004 10.0525H11.3525V11.0437C11.8107 11.134 12.1514 11.518 12.1874 11.9835C12.5031 12.0019 12.7932 12.1642 12.9738 12.4241C13.1537 12.6833 13.2051 13.0115 13.1126 13.314H17.9998V5.98322C17.9865 5.69906 17.7516 5.47656 17.4674 5.47729Z" fill="#101828" fill-opacity="0.2"/>
<path d="M2.8926 14.4911C2.8926 14.7826 3.12902 15.0191 3.42053 15.0191H17.4675C17.7597 15.0191 17.9969 14.7826 17.9976 14.4911V13.7393H2.89258L2.8926 14.4911Z" fill="#101828" fill-opacity="0.2"/>
<path d="M7.73278 13.0379C7.73352 12.4917 8.15645 12.0394 8.70052 12.0019C8.73724 11.5371 9.07793 11.1531 9.53537 11.0621V10.0547H9.08601C9.00451 10.0547 8.93108 10.0069 8.89804 9.93278C8.81874 9.74481 8.74752 9.55684 8.68364 9.36887L7.08077 10.0547C7.05581 10.0642 7.03011 10.0693 7.00367 10.0693C6.96329 10.0701 6.92437 10.0583 6.8906 10.0356C6.83406 9.99812 6.80102 9.93424 6.80249 9.86668C6.79001 9.3527 6.92144 8.84607 7.18136 8.40257C7.44128 7.95981 7.82016 7.59784 8.27393 7.35699C8.22327 6.73068 8.24236 6.09994 8.33047 5.47729H3.42052C3.28028 5.47729 3.14591 5.53383 3.04678 5.63296C2.94765 5.73208 2.89185 5.86719 2.89259 6.00743V13.3382H7.77979C7.74969 13.2413 7.73352 13.14 7.73278 13.0379Z" fill="#101828" fill-opacity="0.2"/>
<path d="M7.2217 9.54911L8.56538 8.9852C8.45524 8.58943 8.37375 8.18633 8.32087 7.77881C7.69749 8.1643 7.29072 8.81999 7.2217 9.54911Z" fill="#101828" fill-opacity="0.2"/>
<path d="M11.8175 9.25212C11.8667 9.10013 11.9137 8.9474 11.9562 8.79541H8.94141C8.97739 8.92537 9.0163 9.0546 9.05815 9.1809C9.06917 9.22202 9.08238 9.2602 9.0956 9.29764C9.13672 9.41953 9.18004 9.53996 9.22923 9.6589H11.6728C11.7213 9.52674 11.7705 9.38943 11.8175 9.25212Z" fill="#101828" fill-opacity="0.2"/>
<path d="M12.0538 8.39103C12.0875 8.24271 12.114 8.0922 12.1382 7.94021C12.1382 7.90056 12.1492 7.8609 12.1551 7.81979C12.1698 7.71112 12.1852 7.60392 12.1962 7.49451C12.1962 7.42695 12.2072 7.3594 12.2131 7.29186C12.219 7.22431 12.2263 7.13179 12.23 7.05323C12.2337 6.97393 12.23 6.89169 12.23 6.8124V6.64499V6.60534V6.44528C12.23 6.36084 12.23 6.27787 12.2204 6.19343C12.2204 6.1391 12.2204 6.08256 12.2094 6.02823C12.2094 5.93791 12.1947 5.8498 12.1852 5.76315C12.1852 5.71836 12.1852 5.67284 12.1705 5.62805C12.1558 5.50396 12.1345 5.37987 12.114 5.25211C12.114 5.20512 12.0934 5.15812 12.0839 5.11113C12.0692 5.02816 12.0501 4.94739 12.031 4.86662C12.02 4.81596 12.0068 4.76529 11.9936 4.71463C11.973 4.63386 11.9502 4.55309 11.926 4.4738C11.9128 4.43048 11.9018 4.38716 11.8864 4.34384C11.8504 4.2293 11.8093 4.11623 11.7659 4.00534C11.7527 3.96937 11.738 3.93412 11.7226 3.89814C11.6903 3.81884 11.6565 3.74028 11.6213 3.66098L11.5728 3.5435C11.5368 3.47008 11.4994 3.39885 11.4598 3.32764L11.3995 3.22044C11.3415 3.12058 11.2813 3.02145 11.2116 2.92747L11.1705 2.87093C11.1161 2.79383 11.0618 2.71894 11.003 2.64552C10.9788 2.61321 10.9539 2.58531 10.9282 2.5552C10.8753 2.49353 10.8232 2.43332 10.7666 2.36723L10.6932 2.28794C10.6124 2.20863 10.5317 2.13007 10.445 2.05884C10.0206 2.4245 9.67037 2.86652 9.41118 3.36288C9.02789 4.10227 8.78633 4.90701 8.69895 5.73524C8.67471 5.95332 8.6593 6.17285 8.65195 6.39533V6.61708C8.64902 7.2111 8.71216 7.80364 8.83992 8.38369L12.0538 8.39103ZM12.2307 7.04735V6.87847C12.2344 6.92693 12.2344 6.98347 12.2307 7.04735ZM12.2307 6.59799V6.48124C12.2381 6.51355 12.2403 6.551 12.2403 6.59065L12.2307 6.59799ZM12.2175 6.18461V6.0495C12.2212 6.08695 12.2234 6.13174 12.2271 6.17727L12.2175 6.18461ZM12.1874 5.73156C12.1874 5.70146 12.1874 5.66989 12.1779 5.63758C12.1815 5.66768 12.1837 5.69926 12.1874 5.73156ZM12.0347 4.86514C12.0237 4.82035 12.0141 4.77482 12.0009 4.7315C12.0148 4.77482 12.0237 4.81814 12.0354 4.86293L12.0347 4.86514ZM11.926 4.46497C11.9165 4.42899 11.9054 4.39374 11.8937 4.35997C11.9054 4.39154 11.9165 4.42679 11.926 4.46277V4.46497ZM11.7703 4.00826C11.7703 3.98036 11.7476 3.95392 11.7366 3.92529C11.7476 3.95172 11.7608 3.97815 11.7703 4.00606V4.00826ZM10.445 6.11696C10.017 6.11769 9.63 5.85997 9.46626 5.46493C9.30179 5.06916 9.39137 4.61393 9.69387 4.31068C9.99639 4.00816 10.4524 3.91711 10.8474 4.08085C11.2432 4.24459 11.5016 4.63008 11.5016 5.05888C11.5001 5.64188 11.028 6.11476 10.445 6.11696Z" fill="#101828" fill-opacity="0.2"/>
<path d="M10.4454 4.4026C10.1796 4.40187 9.94025 4.5612 9.83818 4.80644C9.73611 5.05167 9.79119 5.33363 9.97916 5.5216C10.1664 5.70957 10.4491 5.76611 10.6943 5.66478C10.9396 5.56346 11.0996 5.32409 11.0996 5.05901C11.0996 4.69702 10.8067 4.40334 10.4454 4.4026Z" fill="#101828" fill-opacity="0.2"/>
</svg>
