<svg width="20" height="21" viewBox="0 0 20 21" fill="none" xmlns="http://www.w3.org/2000/svg">
<path fill-rule="evenodd" clip-rule="evenodd" d="M9.33982 4.25391C8.8259 4.25391 8.38868 4.57532 8.26595 5.00854H12.3927C12.27 4.57532 11.8327 4.25391 11.3188 4.25391H9.33982ZM13.5586 5.00854H15.0774C16.6882 5.00854 17.9998 6.20337 17.9998 7.6707C17.9998 7.6707 17.9538 8.29187 17.9385 9.1569C17.9369 9.22538 17.9001 9.29245 17.8395 9.33298C17.4706 9.57823 17.1331 9.78087 17.1024 9.79484C15.8291 10.5634 14.3494 11.1043 12.7732 11.3733C12.6704 11.3914 12.5691 11.3432 12.517 11.2608C12.0751 10.5718 11.2498 10.1232 10.3293 10.1232C9.41501 10.1232 8.582 10.5669 8.12713 11.2566C8.07421 11.3376 7.97449 11.3845 7.87247 11.367C6.30923 11.0973 4.82959 10.5572 3.56395 9.80183L2.82758 9.34067C2.76622 9.30573 2.72787 9.24284 2.72787 9.17297C2.70486 8.81662 2.6665 7.6707 2.6665 7.6707C2.6665 6.20337 3.97816 5.00854 5.58897 5.00854H7.10005C7.24579 3.99538 8.18927 3.20581 9.33984 3.20581H11.3188C12.4694 3.20581 13.4129 3.99538 13.5586 5.00854ZM17.7395 10.6684L17.7088 10.6824C16.1594 11.6187 14.2954 12.2406 12.3394 12.4991C12.0633 12.534 11.7872 12.3733 11.7105 12.1218C11.5417 11.5488 10.9971 11.1715 10.3451 11.1715H10.3374H10.3221C9.67011 11.1715 9.12551 11.5488 8.95676 12.1218C8.88005 12.3733 8.60392 12.534 8.32778 12.4991C6.3718 12.2406 4.50787 11.6187 2.95843 10.6824C2.95075 10.6754 2.87405 10.6335 2.81269 10.6684C2.74365 10.7033 2.74365 10.7872 2.74365 10.7872L2.79734 14.3507C2.79734 15.8181 4.10133 17.0059 5.71214 17.0059H14.9474C16.5582 17.0059 17.8622 15.8181 17.8622 14.3507L17.9236 10.7872C17.9236 10.7872 17.9236 10.7033 17.8545 10.6684C17.8162 10.6474 17.7702 10.6544 17.7395 10.6684ZM10.905 13.596C10.905 13.8894 10.6519 14.12 10.3297 14.12C10.0152 14.12 9.75441 13.8894 9.75441 13.596V12.6946C9.75441 12.4081 10.0152 12.1705 10.3297 12.1705C10.6519 12.1705 10.905 12.4081 10.905 12.6946V13.596Z" fill="#101828" fill-opacity="0.2"/>
</svg>
