<svg width="20" height="21" viewBox="0 0 20 21" fill="none" xmlns="http://www.w3.org/2000/svg">
<path d="M2.47681 18.1227L4.71681 16.8394C5.38243 17.2875 7.82084 18.8203 10.0513 18.8203C10.3233 18.8203 10.592 18.7979 10.8545 18.7499C13.5041 18.2411 17.6801 15.4922 17.8561 15.3771C17.9841 15.2906 18.0353 15.1243 17.9745 14.9834C17.6033 14.1322 15.9201 14.161 14.9697 14.5514L13.9617 14.9451C13.7601 15.5083 13.2257 15.9147 12.5953 15.9147H8.50884C8.33284 15.9147 8.18883 15.7739 8.18883 15.5947C8.18883 15.4186 8.33284 15.2747 8.50884 15.2747H12.6049C13.1329 15.2682 13.4017 14.5867 13.0273 14.2122C13.0273 14.2122 13.0241 14.209 13.0209 14.2058C12.7905 13.9787 12.4768 13.8539 12.1633 13.8634L11.0272 13.8826C10.416 13.8955 9.77285 13.6842 9.18086 13.2747C7.28644 11.9786 4.35202 13.3355 4.23361 13.3898L2.18882 14.3147C2.0736 14.369 2 14.481 2 14.609V17.8443C2 17.9595 2.06082 18.0651 2.16002 18.1227C2.256 18.1803 2.3808 18.1803 2.47681 18.1227Z" fill="#101828" fill-opacity="0.2"/>
<path d="M11.1167 2.60571C10.7647 2.60571 10.4351 2.77852 10.2335 3.06971C10.0351 3.36092 9.9903 3.73211 10.1151 4.06171L10.6111 5.34812C10.9951 5.04412 11.4047 4.81053 11.8367 4.66012L11.7663 4.22173C11.7375 4.04892 11.8559 3.88251 12.0319 3.85691C12.2079 3.82492 12.3711 3.94652 12.3967 4.12253L12.4575 4.50013C12.6527 4.46491 12.8479 4.44893 13.0495 4.44893C13.2479 4.44893 13.4463 4.46491 13.6383 4.50013L13.6991 4.12253C13.7279 3.94652 13.8911 3.82492 14.0671 3.85691C14.2399 3.88251 14.3583 4.04892 14.3327 4.22173L14.2623 4.66012C14.6943 4.81053 15.1039 5.04412 15.4847 5.34493L15.9808 4.06171C16.1088 3.73211 16.0639 3.36092 15.8623 3.06971C15.6639 2.77852 15.3343 2.60571 14.9823 2.60571H11.1167Z" fill="#101828" fill-opacity="0.2"/>
<path d="M13.0491 5.08911C10.5467 5.08911 8.5083 8.20593 8.5083 12.0332C8.5083 12.11 8.5115 12.1899 8.51789 12.2636C8.8923 12.3756 9.23471 12.5356 9.54191 12.7468C10.0123 13.0732 10.5051 13.2428 10.9755 13.2428L12.1947 13.2236C12.6651 13.2236 13.1291 13.4156 13.4683 13.7516C13.6315 13.9148 13.7435 14.11 13.7979 14.3212L14.7355 13.9564C15.2059 13.7612 15.8107 13.6492 16.3867 13.6492C16.5884 13.6492 16.7803 13.662 16.9595 13.6908C17.3724 13.2204 17.5867 12.6604 17.5867 12.0332C17.5867 8.20593 15.5515 5.08911 13.0491 5.08911ZM12.6491 9.45396H13.4491C14.0475 9.45396 14.5339 9.94353 14.5339 10.5419C14.5339 11.1404 14.0475 11.6299 13.4491 11.6299H13.3691V12.1132C13.3691 12.2923 13.2251 12.4332 13.0491 12.4332C12.8731 12.4332 12.7291 12.2923 12.7291 12.1132V11.6299H11.8811C11.7051 11.6299 11.5611 11.4859 11.5611 11.3099C11.5611 11.1307 11.7051 10.99 11.8811 10.99H13.4491C13.6955 10.99 13.8939 10.7883 13.8939 10.5419C13.8939 10.2956 13.6955 10.094 13.4491 10.094H12.6491C12.0507 10.094 11.5611 9.60753 11.5611 9.00592C11.5611 8.40753 12.0507 7.92113 12.6491 7.92113H12.7291V7.43476C12.7291 7.25873 12.8731 7.11475 13.0491 7.11475C13.2251 7.11475 13.3691 7.25873 13.3691 7.43476V7.92113H14.2139C14.3931 7.92113 14.5339 8.06512 14.5339 8.24112C14.5339 8.41712 14.3931 8.56113 14.2139 8.56113H12.6491C12.4027 8.56113 12.2011 8.75954 12.2011 9.00592C12.2011 9.25233 12.4027 9.45396 12.6491 9.45396Z" fill="#101828" fill-opacity="0.2"/>
</svg>
