<svg width="20" height="21" viewBox="0 0 20 21" fill="none" xmlns="http://www.w3.org/2000/svg">
<path fill-rule="evenodd" clip-rule="evenodd" d="M14.1319 4.94239C14.1319 3.96705 14.9239 3.17505 15.8993 3.17505C16.8746 3.17505 17.6666 3.96705 17.6666 4.94239C17.6666 5.91772 16.8746 6.70972 15.8993 6.70972C14.9239 6.70972 14.1319 5.91772 14.1319 4.94239ZM11.3085 12.532L13.4279 9.79737L13.3985 9.81204C13.5159 9.65071 13.5379 9.44537 13.4572 9.26204C13.3773 9.07871 13.2005 8.95404 13.0106 8.93937C12.8119 8.91737 12.6146 9.00537 12.4965 9.16671L10.7226 11.462L8.69052 9.86337C8.56586 9.76804 8.41919 9.73064 8.27252 9.74604C8.12659 9.76804 7.99459 9.84797 7.90585 9.96531L5.73592 12.7894L5.69118 12.8554C5.56652 13.0893 5.62518 13.39 5.84518 13.552C5.94785 13.618 6.05785 13.662 6.18252 13.662C6.35192 13.6694 6.51252 13.5806 6.61518 13.442L8.45585 11.0726L10.5459 12.6427L10.6119 12.686C10.8465 12.8106 11.1399 12.7527 11.3085 12.532ZM12.8634 4.48071C12.834 4.66405 12.8194 4.84738 12.8194 5.03071C12.8194 6.68072 14.154 8.01465 15.7967 8.01465C15.98 8.01465 16.156 7.99339 16.3394 7.96405V13.8813C16.3394 16.3681 14.8727 17.8421 12.3794 17.8421H6.96074C4.46667 17.8421 3 16.3681 3 13.8813V8.45539C3 5.96205 4.46667 4.48071 6.96074 4.48071H12.8634Z" fill="#101828" fill-opacity="0.2"/>
</svg>
