<svg width="20" height="21" viewBox="0 0 20 21" fill="none" xmlns="http://www.w3.org/2000/svg">
<path fill-rule="evenodd" clip-rule="evenodd" d="M9.884 17.7783C9.96521 17.8207 10.056 17.8423 10.1468 17.8416C10.2376 17.8409 10.3277 17.8186 10.4096 17.7754L13.0261 16.3768C13.768 15.9813 14.3491 15.539 14.8024 15.0241C15.788 13.9023 16.3261 12.4706 16.3166 10.9943L16.2855 6.12449C16.2826 5.56358 15.9142 5.06309 15.3694 4.88115L10.5019 3.24806C10.2088 3.14883 9.88769 3.15098 9.59977 3.2531L4.75081 4.94443C4.20892 5.13356 3.84716 5.63765 3.85012 6.19927L3.88112 11.0655C3.89072 12.5439 4.44738 13.9692 5.44921 15.0795C5.90694 15.5872 6.49312 16.023 7.24321 16.412L9.884 17.7783ZM9.19137 12.0553C9.30063 12.1603 9.44238 12.2121 9.58413 12.2106C9.72588 12.2099 9.86689 12.1567 9.97468 12.0503L12.834 9.23136C13.0488 9.01922 13.0466 8.67837 12.8296 8.46911C12.6118 8.25985 12.2611 8.26128 12.0463 8.47342L9.57601 10.9083L8.56458 9.93608C8.34679 9.72682 7.99685 9.72898 7.78127 9.94112C7.56644 10.1533 7.56865 10.4941 7.78644 10.7034L9.19137 12.0553Z" fill="#101828" fill-opacity="0.2"/>
</svg>
