<svg width="20" height="21" viewBox="0 0 20 21" fill="none" xmlns="http://www.w3.org/2000/svg">
<path d="M14.9458 4.46802C15.7403 4.46665 16.3745 5.11 16.3731 5.89531H15.77C15.7709 5.43878 15.3987 5.07062 14.9458 5.07108V4.46802Z" fill="#101828" fill-opacity="0.2"/>
<path d="M14.9458 3.36255C16.3406 3.36118 17.4798 4.489 17.4789 5.89568H16.8759C16.8768 4.82647 16.0072 3.96515 14.9463 3.96607V3.36255H14.9458Z" fill="#101828" fill-opacity="0.2"/>
<path d="M14.9458 2.17505C16.999 2.17368 18.6672 3.83541 18.6658 5.89507H18.0628C18.0637 4.18113 16.6735 2.77719 14.9458 2.77811V2.17505Z" fill="#101828" fill-opacity="0.2"/>
<path fill-rule="evenodd" clip-rule="evenodd" d="M14.3721 8.4491V6.26123H4.09399V6.26215C3.48544 6.26215 2.99639 6.75897 3.00051 7.36066C3.00326 7.96235 3.49185 8.44956 4.09399 8.44956C4.36416 8.4491 14.0795 8.4491 14.3721 8.4491ZM4.33943 7.14773H13.0332C13.1477 7.14773 13.2406 7.24069 13.2406 7.35517C13.2406 7.46964 13.1477 7.5626 13.0332 7.5626H4.33943C4.22495 7.5626 4.132 7.46964 4.132 7.35517C4.13154 7.24069 4.22449 7.14773 4.33943 7.14773Z" fill="#101828" fill-opacity="0.2"/>
<path fill-rule="evenodd" clip-rule="evenodd" d="M15.0324 8.86413C14.7338 8.86413 4.16445 8.86413 4.09348 8.86413C3.66579 8.86413 3.27657 8.68555 3 8.39478V11.7343H5.98417L6.98423 10.7347C6.65408 10.1806 7.05063 9.46261 7.70818 9.46261C8.17295 9.46261 8.55027 9.83947 8.55027 10.3047C8.55027 10.9563 7.83822 11.362 7.27821 11.0286L6.21861 12.0882C6.18107 12.1262 6.12886 12.1501 6.07071 12.1501H3V12.8493H7.72649C7.75122 12.6615 7.83822 12.4935 7.96552 12.3657C8.2943 12.037 8.8273 12.0365 9.15607 12.3657C9.48485 12.6945 9.48531 13.2275 9.15607 13.5563C8.72427 13.9881 7.99345 13.8287 7.77503 13.2641H3V13.8896H6.06979C6.12291 13.8896 6.17603 13.9098 6.21678 13.9505L7.27729 15.011C7.82998 14.6818 8.54935 15.0761 8.54935 15.735C8.54935 16.1998 8.17249 16.5771 7.70726 16.5771C7.0488 16.5771 6.65408 15.8577 6.98332 15.305L5.98325 14.305H3V16.2538C3 16.7625 3.41257 17.1751 3.9213 17.1751H15.0324C15.5411 17.1751 15.9537 16.7625 15.9537 16.2538V14.4904H13.7246C12.9123 14.4904 12.2543 13.8319 12.2543 13.0201C12.2543 12.2078 12.9127 11.5497 13.7246 11.5497H15.9537V9.78635C15.9541 9.2767 15.5416 8.86413 15.0324 8.86413Z" fill="#101828" fill-opacity="0.2"/>
<path fill-rule="evenodd" clip-rule="evenodd" d="M8.00978 10.0023C7.74328 9.73577 7.28125 9.9226 7.28125 10.304C7.28125 10.6855 7.74328 10.8723 8.00978 10.6058C8.17645 10.4396 8.17645 10.1694 8.00978 10.0023Z" fill="#101828" fill-opacity="0.2"/>
<path fill-rule="evenodd" clip-rule="evenodd" d="M8.9883 12.9609C8.9883 12.5827 8.52811 12.3908 8.25977 12.6591C8.0931 12.8258 8.0931 13.096 8.25977 13.2627C8.52627 13.5287 8.9883 13.3419 8.9883 12.9609Z" fill="#101828" fill-opacity="0.2"/>
<path fill-rule="evenodd" clip-rule="evenodd" d="M7.70767 15.3079C7.33127 15.3079 7.13574 15.7662 7.40591 16.0364C7.57258 16.2031 7.84275 16.2031 8.00943 16.0364C8.27593 15.7699 8.0891 15.3079 7.70767 15.3079Z" fill="#101828" fill-opacity="0.2"/>
<path fill-rule="evenodd" clip-rule="evenodd" d="M15.954 11.9639H13.7249C13.142 11.9639 12.6694 12.4364 12.6694 13.0193C12.6694 13.6023 13.142 14.0748 13.7249 14.0748H15.954V11.9639Z" fill="#101828" fill-opacity="0.2"/>
</svg>
