<svg width="20" height="21" viewBox="0 0 20 21" fill="none" xmlns="http://www.w3.org/2000/svg">
<path d="M16.2668 11.9326C15.5295 11.9326 14.9305 12.5308 14.9272 13.2674C14.9272 13.269 14.9281 13.2698 14.9281 13.2714C14.9281 13.273 14.9272 13.2746 14.9272 13.2762C14.9289 14.0136 15.5287 14.6126 16.2668 14.6126C17.0042 14.6126 17.6064 14.0112 17.6064 13.273C17.6064 12.5341 17.005 11.9334 16.2668 11.9334V11.9326Z" fill="#101828" fill-opacity="0.2"/>
<path d="M18.869 11.1133H18.0673C17.8896 11.1133 17.7457 10.9694 17.7457 10.7917C17.7457 10.614 17.8896 10.4701 18.0673 10.4701H18.7998C18.7773 10.2932 18.647 10.15 18.4701 10.1122L15.1927 9.41109C15.1517 9.40225 15.1131 9.38536 15.0785 9.36285L12.0777 7.32049C11.5937 6.99081 11.0284 6.81714 10.4446 6.81714H7.0579C6.6253 6.81714 6.20398 6.94499 5.84052 7.18782L3.483 8.76059C3.42993 8.79597 3.36802 8.81446 3.30449 8.81446H1.45995L1.32406 9.56225H1.92228C2.09998 9.56225 2.24391 9.70618 2.24391 9.88388C2.24391 10.0616 2.09998 10.2055 1.92228 10.2055H1.20665L1 11.3441L1.3932 12.272C1.56608 12.6845 1.96732 12.9506 2.416 12.9506H2.90969C3.06408 12.0099 3.88103 11.2902 4.8644 11.2902C5.84778 11.2902 6.66393 12.0107 6.81912 12.9506H14.3122C14.4666 12.0099 15.2836 11.2902 16.2669 11.2902C17.2503 11.2902 18.0665 12.0107 18.2217 12.9506H18.4444C18.6036 12.9506 18.7491 12.8855 18.8561 12.7673C18.9638 12.6483 19.0137 12.4947 18.9968 12.3347L18.8697 11.1141L18.869 11.1133ZM7.73735 11.0361C7.55965 11.0361 7.41572 10.8922 7.41572 10.7145C7.41572 10.5368 7.55965 10.3929 7.73735 10.3929H8.01958C8.19728 10.3929 8.34121 10.5368 8.34121 10.7145C8.34121 10.8922 8.19728 11.0361 8.01958 11.0361H7.73735ZM8.72637 11.9994H8.44413C8.26643 11.9994 8.1225 11.8555 8.1225 11.6778C8.1225 11.5001 8.26643 11.3561 8.44413 11.3561H8.72637C8.90407 11.3561 9.048 11.5001 9.048 11.6778C9.048 11.8555 8.90407 11.9994 8.72637 11.9994ZM9.14851 11.0361C8.97081 11.0361 8.82688 10.8922 8.82688 10.7145C8.82688 10.5368 8.97081 10.3929 9.14851 10.3929H9.43074C9.60844 10.3929 9.75237 10.5368 9.75237 10.7145C9.75237 10.8922 9.60844 11.0361 9.43074 11.0361H9.14851ZM10.1367 11.9994H9.85449C9.67679 11.9994 9.53286 11.8555 9.53286 11.6778C9.53286 11.5001 9.67679 11.3561 9.85449 11.3561H10.1367C10.3144 11.3561 10.4584 11.5001 10.4584 11.6778C10.4584 11.8555 10.3144 11.9994 10.1367 11.9994ZM10.5597 11.0361C10.382 11.0361 10.238 10.8922 10.238 10.7145C10.238 10.5368 10.382 10.3929 10.5597 10.3929H10.8419C11.0196 10.3929 11.1635 10.5368 11.1635 10.7145C11.1635 10.8922 11.0196 11.0361 10.8419 11.0361H10.5597ZM11.5479 11.9994H11.2657C11.088 11.9994 10.944 11.8555 10.944 11.6778C10.944 11.5001 11.088 11.3561 11.2657 11.3561H11.5479C11.7256 11.3561 11.8695 11.5001 11.8695 11.6778C11.8695 11.8555 11.7256 11.9994 11.5479 11.9994ZM12.2531 11.0361H11.9708C11.7931 11.0361 11.6492 10.8922 11.6492 10.7145C11.6492 10.5368 11.7931 10.3929 11.9708 10.3929H12.2531C12.4308 10.3929 12.5747 10.5368 12.5747 10.7145C12.5747 10.8922 12.4308 11.0361 12.2531 11.0361ZM13.152 9.67482H4.64821C4.47051 9.67482 4.32658 9.53089 4.32658 9.35319C4.32658 9.17549 4.47051 9.03156 4.64821 9.03156H8.57859V7.52151C8.57859 7.34381 8.72252 7.19988 8.90022 7.19988C9.07792 7.19988 9.22185 7.34381 9.22185 7.52151V9.03156H13.1522C13.3299 9.03156 13.4739 9.17549 13.4739 9.35319C13.4739 9.53089 13.3297 9.67482 13.152 9.67482Z" fill="#101828" fill-opacity="0.2"/>
<path d="M7.31469 5.17529L7 6.17529H11L10.6815 5.17529H7.31469Z" fill="#101828" fill-opacity="0.2"/>
<path d="M4.86596 14.612C5.60489 14.612 6.20554 14.0106 6.20554 13.2725C6.20554 12.5335 5.60409 11.9329 4.86596 11.9329C4.12702 11.9329 3.52958 12.5311 3.52637 13.2676C3.52637 13.2692 3.52717 13.27 3.52717 13.2717C3.52717 13.2733 3.52637 13.2749 3.52637 13.2765C3.52798 14.0138 4.12782 14.6129 4.86596 14.6129V14.612Z" fill="#101828" fill-opacity="0.2"/>
</svg>
