<svg width="20" height="21" viewBox="0 0 20 21" fill="none" xmlns="http://www.w3.org/2000/svg">
<path d="M18.4901 11.0861L16.8846 10.8594L16.2236 9.21622C16.0536 8.76291 15.6191 8.49848 15.1092 8.49848H13.6171L13.787 7.59187C13.8626 7.23301 13.7682 6.87414 13.5226 6.59082C13.296 6.32639 12.9749 6.17529 12.6349 6.17529H6.1564C5.60866 6.17529 5.11757 6.57194 5.02314 7.13857L4.1543 11.7094C4.07875 12.0683 4.17319 12.4271 4.41873 12.7104C4.47539 12.7671 4.51317 12.8238 4.58872 12.8615L4.4565 13.6171C4.41873 13.8059 4.56983 13.9948 4.7776 13.9948H5.43867C5.36312 14.7314 5.87308 15.2981 6.62859 15.2981C7.3841 15.2981 8.08295 14.7125 8.27182 13.9948H14.6748C14.5992 14.7314 15.1092 15.2981 15.8647 15.2981C16.6013 15.2981 17.319 14.7125 17.5079 13.9948H18.3201C18.4712 13.9948 18.6034 13.8815 18.6412 13.7304L19 11.7094C18.9812 11.4072 18.8112 11.1428 18.4901 11.0861ZM7.59187 13.9004C7.51632 14.3159 7.11967 14.6559 6.70414 14.6559C6.28861 14.6559 6.0053 14.3159 6.08085 13.9004C6.1564 13.4848 6.55304 13.1449 6.96857 13.1449C7.3841 13.1449 7.66742 13.4848 7.59187 13.9004ZM13.0315 7.45966L12.1627 12.0305C12.1249 12.2194 11.9738 12.3516 11.7849 12.3516H5.30645C5.06091 12.3516 4.89092 12.106 4.9287 11.8605L5.79753 7.28967C5.83531 7.10079 5.98641 6.96858 6.17529 6.96858H12.6727C12.8993 6.94969 13.0882 7.19523 13.0315 7.45966ZM13.6359 10.7839L13.8815 9.42398C13.8815 9.40509 13.9004 9.38621 13.9193 9.38621H14.977C15.1658 9.38621 15.3358 9.49953 15.3925 9.65063L15.8269 10.765C15.8458 10.7839 15.8269 10.8217 15.7891 10.8217H13.6737C13.6359 10.8406 13.617 10.8028 13.6359 10.7839ZM16.8091 13.9004C16.7335 14.3159 16.3369 14.6559 15.9214 14.6559C15.5058 14.6559 15.2225 14.3159 15.2981 13.9004C15.3736 13.4848 15.7703 13.1449 16.1858 13.1449C16.6202 13.1449 16.8846 13.4848 16.8091 13.9004Z" fill="#101828" fill-opacity="0.2"/>
<path d="M3.79534 7.64868H1.92545C1.71769 7.64868 1.52881 7.81867 1.52881 8.04532C1.52881 8.27198 1.6988 8.44197 1.92545 8.44197H3.79534C4.0031 8.44197 4.19198 8.27198 4.19198 8.04532C4.19198 7.81867 4.0031 7.64868 3.79534 7.64868Z" fill="#101828" fill-opacity="0.2"/>
<path d="M3.53118 9.06494H1.66129C1.45353 9.06494 1.26465 9.23493 1.26465 9.46158C1.26465 9.68824 1.43464 9.85823 1.66129 9.85823H3.53118C3.73894 9.85823 3.92782 9.68824 3.92782 9.46158C3.92782 9.23493 3.73894 9.06494 3.53118 9.06494Z" fill="#101828" fill-opacity="0.2"/>
<path d="M3.26653 10.4817H1.39664C1.18888 10.4817 1 10.6517 1 10.8783C1 11.105 1.16999 11.275 1.39664 11.275H3.26653C3.47429 11.275 3.66317 11.105 3.66317 10.8783C3.66317 10.6517 3.47429 10.4817 3.26653 10.4817Z" fill="#101828" fill-opacity="0.2"/>
<path d="M6.9683 10.3306H10.5947C10.6514 10.3306 10.6892 10.2739 10.6892 10.2173C10.6136 9.40508 10.0092 8.74401 9.23483 8.55513V8.40403C9.23483 8.19627 9.06484 8.04517 8.87596 8.04517H8.70597C8.49821 8.04517 8.3471 8.21516 8.3471 8.40403V8.55513C7.57271 8.74401 6.9683 9.40508 6.89275 10.2173C6.85497 10.2739 6.89275 10.3306 6.9683 10.3306ZM8.57376 8.40403C8.57376 8.34737 8.63042 8.29071 8.68708 8.29071H8.85707C8.91373 8.29071 8.9704 8.34737 8.9704 8.40403V8.51736C8.91374 8.51736 8.83818 8.49847 8.76263 8.49847C8.68708 8.49847 8.63042 8.49847 8.55487 8.51736V8.40403H8.57376Z" fill="#101828" fill-opacity="0.2"/>
<path d="M10.9349 10.5947H6.59071C6.51516 10.5947 6.4585 10.6514 6.4585 10.7269V10.9725C6.4585 11.048 6.51516 11.1047 6.59071 11.1047H10.9349C11.0104 11.1047 11.0671 11.048 11.0671 10.9725V10.7269C11.0671 10.6514 11.0104 10.5947 10.9349 10.5947Z" fill="#101828" fill-opacity="0.2"/>
</svg>
