<svg width="20" height="21" viewBox="0 0 20 21" fill="none" xmlns="http://www.w3.org/2000/svg">
<path d="M18.938 13.2819L18.6568 12.9303C18.2968 12.4775 17.8243 12.1456 17.2955 11.9544C17.2843 11.9263 17.2702 11.8981 17.2505 11.8756L16.6796 11.1585C16.3505 10.7535 16.1565 10.2613 16.1171 9.73815L15.9596 7.83128H16.7499C16.9046 7.83128 17.0312 7.70472 17.0312 7.55003V5.86254C17.0312 5.70785 16.9046 5.58129 16.7499 5.58129H14.4999C14.2159 5.58129 13.9627 5.69098 13.7631 5.86254H13.0937C12.8659 5.86254 12.6521 5.95254 12.5003 6.10723C12.3399 6.26473 12.2499 6.47847 12.2499 6.70629C12.2499 7.17035 12.6296 7.55003 13.0937 7.55003H13.7631C13.8924 7.66253 14.0471 7.74691 14.2187 7.79191V10.5566C14.2187 11.0825 14.0134 11.5747 13.6421 11.9459L12.1346 13.4563H8.87496V12.1175C8.87496 11.4228 9.14496 10.7703 9.63714 10.281C9.65964 10.2556 9.67652 10.2275 9.69058 10.1994C9.69058 10.191 9.69621 10.1825 9.69902 10.1741C9.70746 10.1488 9.71308 10.1235 9.71589 10.0981C9.71589 10.0925 9.71871 10.0869 9.71871 10.0813V9.23752C9.71871 8.77346 9.33902 8.39378 8.87496 8.39378H7.18747V4.4563C7.18747 4.30161 7.06091 4.17505 6.90622 4.17505H5.21873V5.86254C5.21873 6.01723 5.09217 6.14379 4.93748 6.14379H3.24999C3.0953 6.14379 2.96874 6.01723 2.96874 5.86254V4.17505H1.28125C1.12656 4.17505 1 4.30161 1 4.4563V8.67503C1 8.82971 1.12656 8.95627 1.28125 8.95627H1.84375V9.80002C1.84375 9.87596 1.87468 9.94627 1.92531 9.99971L2.52437 10.596C1.8325 11.105 1.32625 11.8363 1.1125 12.6941C1.03656 12.9894 1 13.2959 1 13.5997V14.8625C1 15.0172 1.12656 15.1437 1.28125 15.1437H2.5778C2.91812 15.9903 3.7253 16.55 4.65623 16.55C5.58716 16.55 6.39435 15.9903 6.73466 15.1437H12.4524C12.7618 15.1437 13.0515 15.02 13.2653 14.7978L13.9487 14.0862C13.9431 14.1566 13.9374 14.2269 13.9374 14.3C13.9374 15.5403 14.9471 16.55 16.1874 16.55C17.4277 16.55 18.4374 15.5403 18.4374 14.3C18.4374 14.1059 18.4121 13.9203 18.3643 13.7375H18.7187C18.8255 13.7375 18.924 13.6756 18.9718 13.5772C19.0196 13.4816 19.0055 13.3663 18.938 13.2819ZM13.4143 6.98753H13.0937C12.939 6.98753 12.8124 6.86097 12.8124 6.70629C12.8124 6.63035 12.8406 6.56285 12.8996 6.5066C12.9503 6.45316 13.0178 6.42504 13.0937 6.42504H13.4143C13.3918 6.51504 13.3749 6.60785 13.3749 6.70629C13.3749 6.80472 13.3918 6.89754 13.4143 6.98753ZM2.40624 9.68471V8.95627H4.14717C4.11342 9.04346 4.09373 9.13909 4.09373 9.23752V9.87877L3.55092 10.0588C3.36249 10.1206 3.1853 10.2022 3.01374 10.2922L2.40624 9.68471ZM4.65623 15.9875C4.03748 15.9875 3.49467 15.6584 3.19936 15.1437H6.1131C5.81779 15.6584 5.27498 15.9875 4.65623 15.9875ZM6.62497 14.5812H2.68749V14.3C2.68749 13.2144 3.57061 12.3313 4.65623 12.3313C5.74185 12.3313 6.62497 13.2144 6.62497 14.3V14.5812ZM4.65623 9.80002V9.23752C4.65623 9.08284 4.78279 8.95627 4.93748 8.95627H8.87496C9.02965 8.95627 9.15621 9.08284 9.15621 9.23752V9.80002H4.65623ZM15.9062 6.14379H16.4687V7.26878H15.9062V6.14379ZM13.9374 6.70629C13.9374 6.39691 14.1906 6.14379 14.4999 6.14379H15.3437V7.26878H14.4999C14.1906 7.26878 13.9374 7.01566 13.9374 6.70629ZM16.1874 15.9875C15.2565 15.9875 14.4999 15.2309 14.4999 14.3C14.4999 14.1031 14.5337 13.9147 14.5984 13.7375H15.2199C15.1215 13.9034 15.0624 14.0947 15.0624 14.3C15.0624 14.9216 15.5659 15.425 16.1874 15.425C16.809 15.425 17.3124 14.9216 17.3124 14.3C17.3124 14.0947 17.2534 13.9034 17.1549 13.7375H17.7765C17.8412 13.9147 17.8749 14.1031 17.8749 14.3C17.8749 15.2309 17.1184 15.9875 16.1874 15.9875ZM14.8234 13.175L15.549 12.4184C15.6024 12.3622 15.6756 12.3313 15.7515 12.3313H16.2409C16.9693 12.3313 17.6471 12.6378 18.128 13.175H14.8234Z" fill="#101828" fill-opacity="0.2"/>
<path d="M4.65624 4.17505H3.53125V5.58129H4.65624V4.17505Z" fill="#101828" fill-opacity="0.2"/>
</svg>
