<svg width="20" height="20" viewBox="0 0 20 20" fill="none" xmlns="http://www.w3.org/2000/svg">
<path d="M6.14118 9.0575C6.18826 9.00917 6.36605 8.8025 6.53166 8.6325C7.5026 7.56333 10.0355 5.81333 11.3612 5.27917C11.5625 5.19333 12.0715 5.01167 12.3435 5C12.6041 5 12.8525 5.06 13.0895 5.18167C13.385 5.35167 13.6221 5.61917 13.752 5.935C13.8356 6.15417 13.9655 6.81 13.9655 6.82167C14.0954 7.53917 14.1668 8.705 14.1668 9.99333C14.1668 11.2208 14.0954 12.3392 13.989 13.0675C13.9769 13.0792 13.847 13.8942 13.7049 14.1733C13.4443 14.6833 12.9353 15 12.3906 15H12.3435C11.9887 14.9875 11.2427 14.6708 11.2427 14.6592C9.98839 14.1242 7.51396 12.46 6.51948 11.3542C6.51948 11.3542 6.23941 11.07 6.11763 10.8925C5.92767 10.6375 5.8335 10.3217 5.8335 10.0058C5.8335 9.65333 5.93984 9.325 6.14118 9.0575Z" fill="#0072FF"/>
</svg>
