<svg width="20" height="20" viewBox="0 0 10 10" fill="none" xmlns="http://www.w3.org/2000/svg">
<path d="M4.52875 6.92945C4.50458 6.90591 4.40125 6.81702 4.31625 6.73421C3.78167 6.24874 2.90667 4.9823 2.63958 4.31945C2.59667 4.21879 2.50583 3.96428 2.5 3.8283C2.5 3.698 2.53 3.57379 2.59083 3.45527C2.67583 3.30752 2.80958 3.18899 2.9675 3.12405C3.07708 3.08224 3.405 3.01729 3.41083 3.01729C3.76958 2.95235 4.3525 2.91663 4.99667 2.91663C5.61042 2.91663 6.16958 2.95235 6.53375 3.00552C6.53958 3.01161 6.94708 3.07655 7.08667 3.14759C7.34167 3.27789 7.5 3.53239 7.5 3.80476V3.8283C7.49375 4.00568 7.33542 4.37871 7.32958 4.37871C7.06208 5.00585 6.23 6.24306 5.67708 6.7403C5.67708 6.7403 5.535 6.88034 5.44625 6.94122C5.31875 7.03621 5.16083 7.08329 5.00292 7.08329C4.82667 7.08329 4.6625 7.03012 4.52875 6.92945Z" fill="#0072FF"/>
</svg>
