<svg width="32" height="32" viewBox="0 0 32 32" fill="none" xmlns="http://www.w3.org/2000/svg">
<rect x="0.5" y="0.5" width="31" height="31" rx="9.5" stroke="#CDCDD0"/>
<path d="M15.2864 20.9023H9.89258" stroke="#0072FF" stroke-width="1.5" stroke-linecap="round" stroke-linejoin="round"/>
<path fill-rule="evenodd" clip-rule="evenodd" d="M18.6704 20.9032C18.6704 22.6047 19.2378 23.1713 20.9386 23.1713C22.6393 23.1713 23.2067 22.6047 23.2067 20.9032C23.2067 19.2017 22.6393 18.635 20.9386 18.635C19.2378 18.635 18.6704 19.2017 18.6704 20.9032Z" stroke="#0072FF" stroke-width="1.5" stroke-linecap="round" stroke-linejoin="round"/>
<path d="M17.8135 12.1619H23.2065" stroke="#0072FF" stroke-width="1.5" stroke-linecap="round" stroke-linejoin="round"/>
<path fill-rule="evenodd" clip-rule="evenodd" d="M14.4292 12.1607C14.4292 10.46 13.8617 9.89258 12.161 9.89258C10.4595 9.89258 9.89209 10.46 9.89209 12.1607C9.89209 13.8622 10.4595 14.4289 12.161 14.4289C13.8617 14.4289 14.4292 13.8622 14.4292 12.1607Z" stroke="#0072FF" stroke-width="1.5" stroke-linecap="round" stroke-linejoin="round"/>
</svg>
