<svg width="20" height="20" viewBox="0 0 20 20" fill="none" xmlns="http://www.w3.org/2000/svg">
<path fill-rule="evenodd" clip-rule="evenodd" d="M11.7676 9.36101H14.0741C14.4238 9.36101 14.6986 9.07187 14.6986 8.7232C14.6986 8.36602 14.4238 8.08538 14.0741 8.08538H11.7676C11.4179 8.08538 11.1431 8.36602 11.1431 8.7232C11.1431 9.07187 11.4179 9.36101 11.7676 9.36101ZM16.8137 4.93966C17.3216 4.93966 17.6547 5.11825 17.9877 5.50944C18.3208 5.90064 18.3791 6.46192 18.3042 6.97132L17.5131 12.5501C17.3632 13.6225 16.4639 14.4125 15.4064 14.4125H6.32183C5.21436 14.4125 4.2984 13.546 4.20681 12.4234L3.44074 3.15292L2.18339 2.93181C1.85031 2.87228 1.61716 2.54061 1.67545 2.20044C1.73374 1.85262 2.05848 1.62215 2.39988 1.67403L4.38584 1.97933C4.66895 2.03121 4.87712 2.26848 4.9021 2.55762L5.06031 4.46257C5.08529 4.73556 5.30179 4.93966 5.56825 4.93966H16.8137ZM6.18843 15.7566C5.48898 15.7566 4.92275 16.3349 4.92275 17.0493C4.92275 17.7551 5.48898 18.3334 6.18843 18.3334C6.87956 18.3334 7.44578 17.7551 7.44578 17.0493C7.44578 16.3349 6.87956 15.7566 6.18843 15.7566ZM15.5561 15.7566C14.8567 15.7566 14.2905 16.3349 14.2905 17.0493C14.2905 17.7551 14.8567 18.3334 15.5561 18.3334C16.2473 18.3334 16.8135 17.7551 16.8135 17.0493C16.8135 16.3349 16.2473 15.7566 15.5561 15.7566Z" fill="#101828" fill-opacity="0.2"/>
</svg>
