<svg width="20" height="20" viewBox="0 0 20 20" fill="none" xmlns="http://www.w3.org/2000/svg">
<path fill-rule="evenodd" clip-rule="evenodd" d="M9.87029 18.0511C6.79378 18.0511 4.1665 17.5724 4.1665 15.655C4.1665 13.7377 6.77711 11.9678 9.87029 11.9678C12.9468 11.9678 15.5741 13.7206 15.5741 15.6379C15.5741 17.5544 12.9635 18.0511 9.87029 18.0511Z" stroke="#101828" stroke-width="1.5" stroke-linecap="round" stroke-linejoin="round"/>
<path fill-rule="evenodd" clip-rule="evenodd" d="M9.86433 9.31136C11.8833 9.31136 13.5196 7.675 13.5196 5.65606C13.5196 3.63712 11.8833 2 9.86433 2C7.84539 2 6.20827 3.63712 6.20827 5.65606C6.20146 7.66818 7.82646 9.30455 9.83858 9.31136C9.84767 9.31136 9.856 9.31136 9.86433 9.31136Z" stroke="#101828" stroke-width="1.5" stroke-linecap="round" stroke-linejoin="round"/>
</svg>
