<svg width="120" height="120" viewBox="0 0 120 120" fill="none" xmlns="http://www.w3.org/2000/svg">
<path d="M119.501 110.52C122.395 104.792 114.123 76.1543 56.7691 76.1543C15.371 76.1543 -3.62965 99.5952 0.571003 111.475" fill="url(#paint0_radial_2530_6613)"/>
<mask id="mask0_2530_6613" style="mask-type:luminance" maskUnits="userSpaceOnUse" x="0" y="76" width="120" height="36">
<path d="M119.501 110.52C122.395 104.792 114.123 76.1543 56.7691 76.1543C15.371 76.1543 -3.62965 99.5952 0.571003 111.475" fill="white"/>
</mask>
<g mask="url(#mask0_2530_6613)">
<ellipse opacity="0.671968" cx="47.9237" cy="92.2139" rx="3.15421" ry="1.75201" fill="url(#paint1_linear_2530_6613)"/>
<ellipse opacity="0.451707" cx="81.5919" cy="96.4255" rx="4.97664" ry="2.73313" fill="url(#paint2_linear_2530_6613)"/>
</g>
<path d="M61.8303 70.5412C61.8303 70.5412 61.3205 70.4955 61.1834 70.8099C61.0463 71.1243 61.7556 72.4049 62.1097 72.7468C62.4637 73.0888 63.2196 72.7762 62.8538 71.9763C62.488 71.1763 61.8303 70.5412 61.8303 70.5412Z" fill="#2F2F2B"/>
<path d="M66.6148 68.8054C66.6148 68.8054 66.5515 68.2974 66.8608 68.1494C67.1702 68.0015 68.4748 68.6657 68.8289 69.0076C69.183 69.3495 68.897 70.1158 68.0848 69.7781C67.2725 69.4405 66.6148 68.8054 66.6148 68.8054Z" fill="#2F2F2B"/>
<path d="M64.3897 68.9L61.7281 70.5368C61.6413 70.5901 61.5838 70.6802 61.5718 70.7813C61.5441 71.0166 61.7634 71.2041 61.9907 71.1373C62.742 70.9165 64.1662 70.4801 64.6624 70.2058C65.3489 69.8263 64.3897 68.9 64.3897 68.9Z" fill="url(#paint3_linear_2530_6613)"/>
<path d="M67.286 65.5877L66.9401 68.3076C66.9111 68.5363 67.1091 68.7293 67.337 68.6943C67.4583 68.6757 67.56 68.5962 67.6055 68.4822C67.8915 67.7661 68.9068 65.2119 68.6005 65.8147C68.2452 66.514 67.286 65.5877 67.286 65.5877Z" fill="url(#paint4_linear_2530_6613)"/>
<path d="M60.5401 65.0308C60.5401 65.0308 60.8517 65.6295 61.1754 65.9421C61.5516 66.6032 62.182 67.9565 63.2311 69.8193C63.8815 70.9741 64.972 68.744 64.492 67.5086L63.4701 64.8787L67.6007 66.2369C68.0371 66.3804 68.5101 66.162 68.684 65.7368C68.8727 65.2754 68.6423 64.7405 68.187 64.5375C67.4523 64.2099 66.2131 63.6195 64.3751 62.6287C64.0548 62.3193 63.6178 62.1571 63.6178 62.1571L60.5401 65.0308Z" fill="url(#paint5_linear_2530_6613)"/>
<path d="M54.7818 60.3633L55.1969 61.4207L53.2045 61.653L49.7326 61.9607L48.7021 62.5041L47.5335 62.2987L47.5613 62.1717L48.6209 62.118L48.8516 61.8791C48.8516 61.8791 48.5235 61.5346 48.6152 61.497C48.7069 61.4594 48.9386 61.6335 49.0822 61.6403C49.2258 61.6471 49.4948 61.4234 49.4948 61.4234L52.9376 60.8988L54.7818 60.3633Z" fill="#FFE9E9"/>
<path fill-rule="evenodd" clip-rule="evenodd" d="M64.137 55.376L64.1411 55.3878L62.0797 58.2669L60.2262 58.2843L60.2263 57.2998L61.7035 57.4858L63.8971 54.6884L63.9015 54.7009C63.9081 54.6304 63.9144 54.5784 63.9144 54.5784C63.9144 54.5784 63.954 54.55 64.0175 54.5052C64.0255 54.3802 64.0492 54.2669 64.0492 54.2669C64.0492 54.2669 64.4882 54.0046 64.6062 53.9817C64.6563 53.972 64.6131 54.0485 64.5466 54.14C64.7197 54.0245 64.8711 53.9294 64.9119 53.9215C65.0204 53.9004 65.1722 54.1024 65.1722 54.1024L65.2589 54.5485L65.0854 54.8137L64.137 55.376Z" fill="#FFE9E9"/>
<path d="M58.9114 56.9504C58.9114 56.9504 60.434 56.9722 60.588 57.3028C60.6568 57.4506 60.2784 58.1316 60.215 58.3389C60.2149 58.4559 60.2881 58.494 60.5874 58.7933C61.3323 59.5383 63.9751 62.3642 63.9751 62.3642C63.9751 62.3642 63.1557 63.572 62.5965 64.246C62.0374 64.9199 60.8838 65.5332 60.8838 65.5332C60.8838 65.5332 58.4217 62.8443 57.3898 62.1591C56.8828 61.8224 56.3046 61.6928 55.8475 61.648C55.364 61.6006 54.8948 61.3426 54.6962 60.8992C54.5616 60.5986 54.7197 60.2479 55.027 60.1296C55.2433 60.0464 55.4756 59.9474 55.6394 59.8515C56.0366 59.6189 56.2164 59.254 56.2164 59.254L57.2973 58.1347C57.2973 58.1347 57.6068 57.8816 57.9796 57.4902C58.3524 57.0988 58.9114 56.9504 58.9114 56.9504Z" fill="url(#paint6_linear_2530_6613)"/>
<path fill-rule="evenodd" clip-rule="evenodd" d="M56.3307 57.6347L55.701 58.2868L56.6604 59.2132L57.29 58.5612L56.3307 57.6347ZM57.4611 59.4831C57.3249 59.3516 56.6602 59.2137 56.6602 59.2137L57.2898 58.5617C57.2898 58.5617 57.5973 59.6147 57.4611 59.4831Z" fill="#FECECD"/>
<ellipse cx="55.6155" cy="57.634" rx="0.954024" ry="1.39031" transform="rotate(-46 55.6155 57.634)" fill="#FFE9E9"/>
<path fill-rule="evenodd" clip-rule="evenodd" d="M54.9556 58.3176C54.8193 58.0755 54.397 57.6676 54.4936 57.54C54.5902 57.4124 54.8909 57.2611 54.9565 56.8827C54.9817 56.6861 55.0262 56.6187 54.9834 56.5774C55.6372 56.1043 55.6147 56.7431 56.2284 56.7857C56.2924 56.7901 56.3387 56.6714 56.3387 56.6714C56.3387 56.6714 55.5045 55.8658 55.3749 55.8511C55.2453 55.8363 54.7248 55.7755 54.8283 56.0962C54.7214 55.993 54.3903 56.1151 54.2515 56.4227C54.1126 56.7304 53.9418 57.2281 54.1004 57.4917C54.259 57.7553 54.6315 58.2254 54.9556 58.3176Z" fill="#513450"/>
<rect x="73.5693" y="17.0059" width="0.923077" height="8.30769" transform="rotate(13 73.5693 17.0059)" fill="url(#paint7_linear_2530_6613)"/>
<ellipse cx="71.7524" cy="27.9541" rx="10.8462" ry="7.84615" transform="rotate(13 71.7524 27.9541)" fill="url(#paint8_linear_2530_6613)"/>
<ellipse cx="70.022" cy="34.423" rx="29.0769" ry="10.3846" transform="rotate(13 70.022 34.423)" fill="#E7EAEE"/>
<ellipse cx="69.814" cy="35.3234" rx="29.0769" ry="10.3846" transform="rotate(13 69.814 35.3234)" fill="url(#paint9_linear_2530_6613)"/>
<ellipse cx="68.1185" cy="40.6154" rx="11.5385" ry="3.92308" transform="rotate(13 68.1185 40.6154)" fill="white"/>
<circle cx="74.1236" cy="16.6596" r="1.38462" transform="rotate(13 74.1236 16.6596)" fill="#D8D8D8"/>
<circle cx="91.2795" cy="36.7249" r="1.84615" transform="rotate(13 91.2795 36.7249)" fill="#F9FBFF"/>
<circle cx="64.47" cy="27.6946" r="1.84615" transform="rotate(13 64.47 27.6946)" fill="#F9FBFF"/>
<circle cx="78.4119" cy="30.9124" r="1.84615" transform="rotate(13 78.4119 30.9124)" fill="#F9FBFF"/>
<circle cx="50.3557" cy="27.2776" r="1.84615" transform="rotate(13 50.3557 27.2776)" fill="#F9FBFF"/>
<path fill-rule="evenodd" clip-rule="evenodd" d="M79.2902 43.4304C79.3202 43.3588 79.344 43.2852 79.3614 43.2095C79.8488 41.0984 75.2104 38.2249 69.0012 36.7914C62.792 35.3579 57.3634 35.9072 56.876 38.0184C56.8585 38.094 56.8476 38.1706 56.8432 38.2481L56.8238 38.2436L33.713 83.1825L74.1869 92.5267L79.3093 43.4348L79.2902 43.4304Z" fill="url(#paint10_linear_2530_6613)"/>
<ellipse opacity="0.328544" cx="60.2307" cy="81.0002" rx="8.07692" ry="1.61538" fill="url(#paint11_linear_2530_6613)"/>
<path d="M26.769 68.625C26.769 68.625 29.6218 73.641 30.3349 77.1832C30.3349 80.013 28.552 80.7491 26.769 80.7491C24.9861 80.7491 23.2031 80.013 23.2031 77.1832C23.9163 73.9739 26.769 68.625 26.769 68.625Z" fill="#E5EAEF"/>
<path d="M26.7686 78.6927C26.7686 78.5652 26.8719 78.4619 26.9993 78.4619C27.1268 78.4619 27.2301 78.5652 27.2301 78.6927V85.385H26.7686V78.6927Z" fill="#CFD6DB"/>
<g opacity="0.796852">
<path d="M90.2308 67.1816C90.2308 67.1816 92.5486 71.2487 93.1281 74.1207C93.1281 76.4152 91.6795 77.012 90.2308 77.012C88.7821 77.012 87.3335 76.4152 87.3335 74.1207C87.913 71.5186 90.2308 67.1816 90.2308 67.1816Z" fill="#E5EAEF"/>
<path d="M90.2314 75.3447C90.2314 75.2412 90.3154 75.1572 90.4189 75.1572C90.5225 75.1572 90.6064 75.2412 90.6064 75.3447V80.7705H90.2314V75.3447Z" fill="#CFD6DB"/>
</g>
<defs>
<radialGradient id="paint0_radial_2530_6613" cx="0" cy="0" r="1" gradientUnits="userSpaceOnUse" gradientTransform="translate(52.0444 88.4034) rotate(-90) scale(20.5361 214.479)">
<stop stop-color="#EBEDF0" stop-opacity="0.24"/>
<stop offset="0.536775" stop-color="#EBEDF0" stop-opacity="0.845525"/>
<stop offset="1" stop-color="#E0E4E7" stop-opacity="0.01"/>
</radialGradient>
<linearGradient id="paint1_linear_2530_6613" x1="45.3849" y1="91.7495" x2="46.3458" y2="93.8046" gradientUnits="userSpaceOnUse">
<stop stop-color="#E1E7EA"/>
<stop offset="1" stop-color="#D0D6DC"/>
</linearGradient>
<linearGradient id="paint2_linear_2530_6613" x1="77.4131" y1="96.17" x2="79.1715" y2="99.8376" gradientUnits="userSpaceOnUse">
<stop stop-color="#E1E7EA"/>
<stop offset="1" stop-color="#D0D6DC"/>
</linearGradient>
<linearGradient id="paint3_linear_2530_6613" x1="65.2077" y1="69.6899" x2="63.845" y2="68.374" gradientUnits="userSpaceOnUse">
<stop stop-color="#7A87AF"/>
<stop offset="1" stop-color="#444F77"/>
</linearGradient>
<linearGradient id="paint4_linear_2530_6613" x1="67.2241" y1="68.8664" x2="65.6178" y2="67.3153" gradientUnits="userSpaceOnUse">
<stop stop-color="#7A87AF"/>
<stop offset="1" stop-color="#444F77"/>
</linearGradient>
<linearGradient id="paint5_linear_2530_6613" x1="69.2605" y1="65.4794" x2="64.5239" y2="60.9054" gradientUnits="userSpaceOnUse">
<stop stop-color="#7A87AF"/>
<stop offset="1" stop-color="#444F77"/>
</linearGradient>
<linearGradient id="paint6_linear_2530_6613" x1="64.2294" y1="56.0114" x2="64.666" y2="66.4309" gradientUnits="userSpaceOnUse">
<stop stop-color="#E5E9F0"/>
<stop offset="1" stop-color="#D2DAE8"/>
</linearGradient>
<linearGradient id="paint7_linear_2530_6613" x1="74.8118" y1="17.0302" x2="73.5993" y2="17.0056" gradientUnits="userSpaceOnUse">
<stop stop-color="#F8FBFF"/>
<stop offset="1" stop-color="#D9DDE2"/>
</linearGradient>
<linearGradient id="paint8_linear_2530_6613" x1="54.4221" y1="32.1135" x2="74.6629" y2="38.498" gradientUnits="userSpaceOnUse">
<stop stop-color="#F8FBFF"/>
<stop offset="1" stop-color="#D9DDE2"/>
</linearGradient>
<linearGradient id="paint9_linear_2530_6613" x1="29.931" y1="54.0216" x2="59.6306" y2="20.5551" gradientUnits="userSpaceOnUse">
<stop stop-color="#F8FBFF"/>
<stop offset="1" stop-color="#D9DDE2"/>
</linearGradient>
<linearGradient id="paint10_linear_2530_6613" x1="72.2311" y1="87.0699" x2="87.55" y2="38.1195" gradientUnits="userSpaceOnUse">
<stop stop-color="#F8FBFF" stop-opacity="0.2"/>
<stop offset="1" stop-color="#D9DDE2" stop-opacity="0.6"/>
</linearGradient>
<linearGradient id="paint11_linear_2530_6613" x1="54.1681" y1="81.1916" x2="56.9591" y2="87.151" gradientUnits="userSpaceOnUse">
<stop stop-color="#C4CDD1"/>
<stop offset="1" stop-color="#C6CFD3" stop-opacity="0.01"/>
</linearGradient>
</defs>
</svg>
