<svg width="210" height="145" viewBox="0 0 210 145" fill="none" xmlns="http://www.w3.org/2000/svg">
<path d="M167.685 0H42.5423C36.7828 0 32.1138 4.63705 32.1138 10.3571V134.643C32.1138 140.363 36.7828 145 42.5423 145H167.685C173.445 145 178.114 140.363 178.114 134.643V10.3571C178.114 4.63705 173.445 0 167.685 0Z" fill="#EAECF0"/>
<g filter="url(#filter0_d_2530_6507)">
<path d="M55.0561 55.9277H195.842C197.225 55.9277 198.551 56.4733 199.529 57.4445C200.507 58.4157 201.056 59.7329 201.056 61.1063V86.9992C201.056 88.3726 200.507 89.6898 199.529 90.661C198.551 91.6321 197.225 92.1777 195.842 92.1777H55.0561C53.6732 92.1777 52.3469 91.6321 51.369 90.661C50.3912 89.6898 49.8418 88.3726 49.8418 86.9992V61.1063C49.8418 59.7329 50.3912 58.4157 51.369 57.4445C52.3469 56.4733 53.6732 55.9277 55.0561 55.9277V55.9277Z" fill="white"/>
</g>
<path d="M132.227 64.2129H105.113C103.385 64.2129 101.984 65.604 101.984 67.32C101.984 69.0361 103.385 70.4272 105.113 70.4272H132.227C133.955 70.4272 135.356 69.0361 135.356 67.32C135.356 65.604 133.955 64.2129 132.227 64.2129Z" fill="#D0D5DD"/>
<path d="M150.999 77.6768H105.113C103.385 77.6768 101.984 79.0679 101.984 80.7839C101.984 82.4999 103.385 83.891 105.113 83.891H150.999C152.727 83.891 154.127 82.4999 154.127 80.7839C154.127 79.0679 152.727 77.6768 150.999 77.6768Z" fill="#EAECF0"/>
<path d="M81.6493 83.8915C87.1209 83.8915 91.5565 79.4863 91.5565 74.0522C91.5565 68.6181 87.1209 64.2129 81.6493 64.2129C76.1778 64.2129 71.7422 68.6181 71.7422 74.0522C71.7422 79.4863 76.1778 83.8915 81.6493 83.8915Z" fill="#98A2B3"/>
<path d="M77.9464 76.3906H77.131L78.9631 71.2997H79.8505L81.6825 76.3906H80.8672L79.4279 72.2244H79.3881L77.9464 76.3906ZM78.0831 74.397H80.728V75.0433H78.0831V74.397ZM82.4177 76.3906V71.2997H84.282C84.6433 71.2997 84.9424 71.3594 85.1794 71.4787C85.4164 71.5964 85.5937 71.7563 85.7114 71.9585C85.829 72.159 85.8879 72.3852 85.8879 72.6371C85.8879 72.8492 85.8489 73.0282 85.771 73.174C85.6932 73.3182 85.5887 73.4342 85.4578 73.522C85.3286 73.6082 85.186 73.6712 85.0303 73.7109V73.7607C85.1993 73.7689 85.3642 73.8236 85.5249 73.9247C85.6874 74.0241 85.8216 74.1658 85.9276 74.3498C86.0337 74.5337 86.0867 74.7575 86.0867 75.021C86.0867 75.2811 86.0254 75.5148 85.9028 75.7219C85.7818 75.9274 85.5945 76.0907 85.341 76.2116C85.0874 76.331 84.7635 76.3906 84.3691 76.3906H82.4177ZM83.1858 75.7319H84.2945C84.6624 75.7319 84.9259 75.6606 85.085 75.5181C85.2441 75.3756 85.3236 75.1974 85.3236 74.9837C85.3236 74.8229 85.283 74.6754 85.2018 74.5412C85.1206 74.407 85.0046 74.3001 84.8538 74.2205C84.7046 74.141 84.5273 74.1012 84.3218 74.1012H83.1858V75.7319ZM83.1858 73.5021H84.2149C84.3873 73.5021 84.5422 73.469 84.6798 73.4027C84.819 73.3364 84.9292 73.2436 85.0104 73.1243C85.0932 73.0033 85.1347 72.8608 85.1347 72.6967C85.1347 72.4863 85.0609 72.3098 84.9134 72.1673C84.766 72.0247 84.5397 71.9535 84.2348 71.9535H83.1858V73.5021Z" fill="white"/>
<g filter="url(#filter1_d_2530_6507)">
<path d="M10.2143 100.463H151C152.383 100.463 153.709 101.008 154.687 101.98C155.665 102.951 156.214 104.268 156.214 105.641V131.534C156.214 132.908 155.665 134.225 154.687 135.196C153.709 136.167 152.383 136.713 151 136.713H10.2143C8.83137 136.713 7.5051 136.167 6.52723 135.196C5.54936 134.225 5 132.908 5 131.534V105.641C5 104.268 5.54936 102.951 6.52723 101.98C7.5051 101.008 8.83137 100.463 10.2143 100.463V100.463Z" fill="white"/>
</g>
<path d="M87.3859 108.75H60.2716C58.5438 108.75 57.1431 110.141 57.1431 111.857C57.1431 113.573 58.5438 114.964 60.2716 114.964H87.3859C89.1138 114.964 90.5145 113.573 90.5145 111.857C90.5145 110.141 89.1138 108.75 87.3859 108.75Z" fill="#D0D5DD"/>
<path d="M106.157 122.214H60.2716C58.5438 122.214 57.1431 123.605 57.1431 125.321C57.1431 127.037 58.5438 128.428 60.2716 128.428H106.157C107.885 128.428 109.286 127.037 109.286 125.321C109.286 123.605 107.885 122.214 106.157 122.214Z" fill="#EAECF0"/>
<path d="M23.2504 128.431C28.722 128.431 33.1575 124.025 33.1575 118.591C33.1575 113.157 28.722 108.752 23.2504 108.752C17.7788 108.752 13.3433 113.157 13.3433 118.591C13.3433 124.025 17.7788 128.431 23.2504 128.431Z" fill="#98A2B3"/>
<path d="M21.8936 117.176C21.867 116.941 21.7577 116.759 21.5654 116.629C21.3732 116.498 21.1312 116.433 20.8396 116.433C20.6308 116.433 20.4501 116.466 20.2977 116.532C20.1452 116.597 20.0267 116.686 19.9422 116.801C19.8593 116.913 19.8179 117.042 19.8179 117.186C19.8179 117.307 19.8461 117.411 19.9024 117.499C19.9604 117.587 20.0358 117.661 20.1286 117.721C20.2231 117.779 20.3242 117.827 20.4319 117.867C20.5396 117.905 20.6432 117.937 20.7426 117.962L21.2398 118.091C21.4022 118.131 21.5687 118.185 21.7394 118.252C21.9101 118.32 22.0684 118.41 22.2142 118.521C22.3601 118.632 22.4777 118.77 22.5672 118.934C22.6584 119.098 22.7039 119.294 22.7039 119.523C22.7039 119.811 22.6294 120.067 22.4802 120.291C22.3327 120.515 22.1181 120.691 21.8364 120.82C21.5563 120.95 21.2174 121.014 20.8197 121.014C20.4385 121.014 20.1088 120.954 19.8303 120.833C19.5519 120.712 19.334 120.54 19.1766 120.318C19.0191 120.094 18.9321 119.829 18.9156 119.523H19.6862C19.7011 119.707 19.7607 119.86 19.8651 119.983C19.9712 120.104 20.1063 120.194 20.2703 120.254C20.436 120.312 20.6175 120.341 20.8147 120.341C21.0318 120.341 21.2249 120.307 21.3939 120.239C21.5646 120.169 21.6988 120.073 21.7966 119.95C21.8944 119.826 21.9433 119.681 21.9433 119.515C21.9433 119.364 21.9002 119.241 21.814 119.145C21.7295 119.049 21.6143 118.969 21.4685 118.906C21.3243 118.843 21.1611 118.788 20.9788 118.74L20.3772 118.576C19.9695 118.465 19.6464 118.301 19.4078 118.086C19.1708 117.871 19.0523 117.585 19.0523 117.231C19.0523 116.937 19.1318 116.681 19.2909 116.463C19.45 116.244 19.6655 116.074 19.9372 115.953C20.209 115.83 20.5156 115.769 20.857 115.769C21.2017 115.769 21.5058 115.83 21.7693 115.951C22.0344 116.072 22.2432 116.238 22.3957 116.45C22.5481 116.661 22.6277 116.903 22.6343 117.176H21.8936ZM26.3984 117.176C26.3719 116.941 26.2625 116.759 26.0703 116.629C25.8781 116.498 25.6361 116.433 25.3445 116.433C25.1357 116.433 24.955 116.466 24.8026 116.532C24.6501 116.597 24.5316 116.686 24.4471 116.801C24.3642 116.913 24.3228 117.042 24.3228 117.186C24.3228 117.307 24.351 117.411 24.4073 117.499C24.4653 117.587 24.5407 117.661 24.6335 117.721C24.728 117.779 24.8291 117.827 24.9368 117.867C25.0445 117.905 25.1481 117.937 25.2475 117.962L25.7447 118.091C25.9071 118.131 26.0736 118.185 26.2443 118.252C26.415 118.32 26.5733 118.41 26.7191 118.521C26.8649 118.632 26.9826 118.77 27.0721 118.934C27.1632 119.098 27.2088 119.294 27.2088 119.523C27.2088 119.811 27.1342 120.067 26.9851 120.291C26.8376 120.515 26.623 120.691 26.3413 120.82C26.0612 120.95 25.7223 121.014 25.3246 121.014C24.9434 121.014 24.6136 120.954 24.3352 120.833C24.0568 120.712 23.8389 120.54 23.6815 120.318C23.524 120.094 23.437 119.829 23.4205 119.523H24.1911C24.206 119.707 24.2656 119.86 24.37 119.983C24.4761 120.104 24.6112 120.194 24.7752 120.254C24.9409 120.312 25.1224 120.341 25.3196 120.341C25.5367 120.341 25.7298 120.307 25.8988 120.239C26.0695 120.169 26.2037 120.073 26.3015 119.95C26.3993 119.826 26.4482 119.681 26.4482 119.515C26.4482 119.364 26.4051 119.241 26.3189 119.145C26.2344 119.049 26.1192 118.969 25.9734 118.906C25.8292 118.843 25.666 118.788 25.4837 118.74L24.8821 118.576C24.4744 118.465 24.1513 118.301 23.9126 118.086C23.6757 117.871 23.5572 117.585 23.5572 117.231C23.5572 116.937 23.6367 116.681 23.7958 116.463C23.9549 116.244 24.1703 116.074 24.4421 115.953C24.7139 115.83 25.0205 115.769 25.3619 115.769C25.7066 115.769 26.0107 115.83 26.2741 115.951C26.5393 116.072 26.7481 116.238 26.9006 116.45C27.053 116.661 27.1326 116.903 27.1392 117.176H26.3984Z" fill="white"/>
<g filter="url(#filter2_d_2530_6507)">
<path d="M151 11.3916H10.2143C7.33451 11.3916 5 13.7101 5 16.5702V42.463C5 45.3231 7.33451 47.6416 10.2143 47.6416H151C153.88 47.6416 156.214 45.3231 156.214 42.463V16.5702C156.214 13.7101 153.88 11.3916 151 11.3916Z" fill="white"/>
</g>
<path d="M85.2995 19.6777H58.1852C56.4573 19.6777 55.0566 21.0688 55.0566 22.7849C55.0566 24.5009 56.4573 25.892 58.1852 25.892H85.2995C87.0274 25.892 88.4281 24.5009 88.4281 22.7849C88.4281 21.0688 87.0274 19.6777 85.2995 19.6777Z" fill="#D0D5DD"/>
<path d="M104.071 33.1416H58.1852C56.4573 33.1416 55.0566 34.5327 55.0566 36.2487C55.0566 37.9648 56.4573 39.3559 58.1852 39.3559H104.071C105.799 39.3559 107.2 37.9648 107.2 36.2487C107.2 34.5327 105.799 33.1416 104.071 33.1416Z" fill="#EAECF0"/>
<path d="M36.807 39.3563C42.2786 39.3563 46.7142 34.9511 46.7142 29.517C46.7142 24.0829 42.2786 19.6777 36.807 19.6777C31.3355 19.6777 26.8999 24.0829 26.8999 29.517C26.8999 34.9511 31.3355 39.3563 36.807 39.3563Z" fill="#98A2B3"/>
<path d="M32.3731 31.8555H31.5577L33.3898 26.7646H34.2772L36.1092 31.8555H35.2939L33.8546 27.6893H33.8148L32.3731 31.8555ZM32.5098 29.8619H35.1547V30.5082H32.5098V29.8619ZM37.2744 31.8555H36.4591L38.2911 26.7646H39.1786L41.0106 31.8555H40.1952L38.756 27.6893H38.7162L37.2744 31.8555ZM37.4112 29.8619H40.056V30.5082H37.4112V29.8619Z" fill="white"/>
<defs>
<filter id="filter0_d_2530_6507" x="47.8418" y="53.9277" width="161.214" height="46.25" filterUnits="userSpaceOnUse" color-interpolation-filters="sRGB">
<feFlood flood-opacity="0" result="BackgroundImageFix"/>
<feColorMatrix in="SourceAlpha" type="matrix" values="0 0 0 0 0 0 0 0 0 0 0 0 0 0 0 0 0 0 127 0" result="hardAlpha"/>
<feOffset dx="3" dy="3"/>
<feGaussianBlur stdDeviation="2.5"/>
<feColorMatrix type="matrix" values="0 0 0 0 0.230539 0 0 0 0 0.370572 0 0 0 0 0.482993 0 0 0 0.1 0"/>
<feBlend mode="normal" in2="BackgroundImageFix" result="effect1_dropShadow_2530_6507"/>
<feBlend mode="normal" in="SourceGraphic" in2="effect1_dropShadow_2530_6507" result="shape"/>
</filter>
<filter id="filter1_d_2530_6507" x="0" y="98.4629" width="161.214" height="46.25" filterUnits="userSpaceOnUse" color-interpolation-filters="sRGB">
<feFlood flood-opacity="0" result="BackgroundImageFix"/>
<feColorMatrix in="SourceAlpha" type="matrix" values="0 0 0 0 0 0 0 0 0 0 0 0 0 0 0 0 0 0 127 0" result="hardAlpha"/>
<feOffset dy="3"/>
<feGaussianBlur stdDeviation="2.5"/>
<feColorMatrix type="matrix" values="0 0 0 0 0.230539 0 0 0 0 0.370572 0 0 0 0 0.482993 0 0 0 0.1 0"/>
<feBlend mode="normal" in2="BackgroundImageFix" result="effect1_dropShadow_2530_6507"/>
<feBlend mode="normal" in="SourceGraphic" in2="effect1_dropShadow_2530_6507" result="shape"/>
</filter>
<filter id="filter2_d_2530_6507" x="0" y="9.3916" width="161.214" height="46.25" filterUnits="userSpaceOnUse" color-interpolation-filters="sRGB">
<feFlood flood-opacity="0" result="BackgroundImageFix"/>
<feColorMatrix in="SourceAlpha" type="matrix" values="0 0 0 0 0 0 0 0 0 0 0 0 0 0 0 0 0 0 127 0" result="hardAlpha"/>
<feOffset dy="3"/>
<feGaussianBlur stdDeviation="2.5"/>
<feColorMatrix type="matrix" values="0 0 0 0 0.230539 0 0 0 0 0.370572 0 0 0 0 0.482993 0 0 0 0.1 0"/>
<feBlend mode="normal" in2="BackgroundImageFix" result="effect1_dropShadow_2530_6507"/>
<feBlend mode="normal" in="SourceGraphic" in2="effect1_dropShadow_2530_6507" result="shape"/>
</filter>
</defs>
</svg>
