<svg width="149" height="103" viewBox="0 0 149 103" fill="none" xmlns="http://www.w3.org/2000/svg">
<path d="M117.197 0H30.8913C26.9192 0 23.6992 3.19797 23.6992 7.14286V92.8571C23.6992 96.802 26.9192 100 30.8913 100H117.197C121.169 100 124.389 96.802 124.389 92.8571V7.14286C124.389 3.19797 121.169 0 117.197 0Z" fill="#EAECF0"/>
<g filter="url(#filter0_d_2530_6575)">
<path d="M39.5218 38.5703H136.615C137.569 38.5703 138.484 38.9466 139.158 39.6164C139.833 40.2861 140.211 41.1945 140.211 42.1417V59.9989C140.211 60.9461 139.833 61.8545 139.158 62.5243C138.484 63.194 137.569 63.5703 136.615 63.5703H39.5218C38.5681 63.5703 37.6534 63.194 36.979 62.5243C36.3047 61.8545 35.9258 60.9461 35.9258 59.9989V42.1417C35.9258 41.1945 36.3047 40.2861 36.979 39.6164C37.6534 38.9466 38.5681 38.5703 39.5218 38.5703V38.5703Z" fill="white"/>
</g>
<path d="M92.7434 44.2842H74.0439C72.8522 44.2842 71.8862 45.2436 71.8862 46.427C71.8862 47.6105 72.8522 48.5699 74.0439 48.5699H92.7434C93.935 48.5699 94.901 47.6105 94.901 46.427C94.901 45.2436 93.935 44.2842 92.7434 44.2842Z" fill="#D0D5DD"/>
<path d="M105.689 53.5693H74.0439C72.8522 53.5693 71.8862 54.5287 71.8862 55.7122C71.8862 56.8957 72.8522 57.8551 74.0439 57.8551H105.689C106.881 57.8551 107.847 56.8957 107.847 55.7122C107.847 54.5287 106.881 53.5693 105.689 53.5693Z" fill="#EAECF0"/>
<path d="M57.8613 57.8556C61.6348 57.8556 64.6938 54.8175 64.6938 51.0699C64.6938 47.3222 61.6348 44.2842 57.8613 44.2842C54.0878 44.2842 51.0288 47.3222 51.0288 51.0699C51.0288 54.8175 54.0878 57.8556 57.8613 57.8556Z" fill="#98A2B3"/>
<path d="M53.9893 54H53.174L55.006 48.9091H55.8935L57.7255 54H56.9102L55.4709 49.8338H55.4311L53.9893 54ZM54.1261 52.0064H56.771V52.6527H54.1261V52.0064ZM58.4607 54V48.9091H60.325C60.6863 48.9091 60.9854 48.9687 61.2224 49.0881C61.4594 49.2057 61.6367 49.3656 61.7544 49.5678C61.872 49.7683 61.9308 49.9946 61.9308 50.2464C61.9308 50.4586 61.8919 50.6375 61.814 50.7834C61.7361 50.9276 61.6317 51.0436 61.5008 51.1314C61.3715 51.2176 61.229 51.2805 61.0732 51.3203V51.37C61.2423 51.3783 61.4072 51.433 61.5679 51.5341C61.7303 51.6335 61.8646 51.7752 61.9706 51.9592C62.0767 52.1431 62.1297 52.3668 62.1297 52.6303C62.1297 52.8905 62.0684 53.1242 61.9458 53.3313C61.8248 53.5368 61.6375 53.7 61.384 53.821C61.1304 53.9403 60.8064 54 60.412 54H58.4607ZM59.2288 53.3413H60.3374C60.7053 53.3413 60.9688 53.27 61.1279 53.1275C61.287 52.985 61.3666 52.8068 61.3666 52.593C61.3666 52.4323 61.326 52.2848 61.2448 52.1506C61.1636 52.0163 61.0476 51.9094 60.8968 51.8299C60.7476 51.7504 60.5703 51.7106 60.3648 51.7106H59.2288V53.3413ZM59.2288 51.1115H60.2579C60.4302 51.1115 60.5852 51.0784 60.7227 51.0121C60.8619 50.9458 60.9722 50.853 61.0534 50.7337C61.1362 50.6127 61.1776 50.4702 61.1776 50.3061C61.1776 50.0956 61.1039 49.9192 60.9564 49.7766C60.8089 49.6341 60.5827 49.5629 60.2778 49.5629H59.2288V51.1115Z" fill="white"/>
<g filter="url(#filter1_d_2530_6575)">
<path d="M8.59606 69.2842H105.69C106.643 69.2842 107.558 69.6605 108.232 70.3302C108.907 71 109.286 71.9084 109.286 72.8556V90.7128C109.286 91.66 108.907 92.5684 108.232 93.2381C107.558 93.9079 106.643 94.2842 105.69 94.2842H8.59606C7.64232 94.2842 6.72765 93.9079 6.05326 93.2381C5.37887 92.5684 5 91.66 5 90.7128V72.8556C5 71.9084 5.37887 71 6.05326 70.3302C6.72765 69.6605 7.64232 69.2842 8.59606 69.2842V69.2842Z" fill="white"/>
</g>
<path d="M61.8181 75H43.1186C41.9269 75 40.9609 75.9594 40.9609 77.1429C40.9609 78.3263 41.9269 79.2857 43.1186 79.2857H61.8181C63.0097 79.2857 63.9757 78.3263 63.9757 77.1429C63.9757 75.9594 63.0097 75 61.8181 75Z" fill="#D0D5DD"/>
<path d="M74.7639 84.2852H43.1186C41.9269 84.2852 40.9609 85.2445 40.9609 86.428C40.9609 87.6115 41.9269 88.5709 43.1186 88.5709H74.7639C75.9555 88.5709 76.9215 87.6115 76.9215 86.428C76.9215 85.2445 75.9555 84.2852 74.7639 84.2852Z" fill="#EAECF0"/>
<path d="M17.5864 88.5734C21.3599 88.5734 24.4189 85.5353 24.4189 81.7877C24.4189 78.04 21.3599 75.002 17.5864 75.002C13.8129 75.002 10.7539 78.04 10.7539 81.7877C10.7539 85.5353 13.8129 88.5734 17.5864 88.5734Z" fill="#98A2B3"/>
<path d="M16.3359 81.2464C16.3094 81.0111 16.2 80.8288 16.0078 80.6996C15.8156 80.5687 15.5736 80.5032 15.282 80.5032C15.0732 80.5032 14.8925 80.5363 14.7401 80.6026C14.5876 80.6673 14.4691 80.7567 14.3846 80.8711C14.3017 80.9838 14.2603 81.1122 14.2603 81.2564C14.2603 81.3774 14.2885 81.4818 14.3448 81.5696C14.4028 81.6574 14.4782 81.7312 14.571 81.7908C14.6655 81.8488 14.7666 81.8977 14.8743 81.9375C14.982 81.9756 15.0856 82.0071 15.185 82.032L15.6822 82.1612C15.8446 82.201 16.0111 82.2549 16.1818 82.3228C16.3525 82.3907 16.5108 82.4802 16.6566 82.5913C16.8024 82.7023 16.9201 82.8398 17.0096 83.0039C17.1007 83.168 17.1463 83.3643 17.1463 83.593C17.1463 83.8814 17.0717 84.1374 16.9226 84.3612C16.7751 84.5849 16.5605 84.7614 16.2788 84.8906C15.9987 85.0199 15.6598 85.0845 15.2621 85.0845C14.8809 85.0845 14.5511 85.024 14.2727 84.9031C13.9943 84.7821 13.7764 84.6106 13.619 84.3885C13.4615 84.1648 13.3745 83.8996 13.358 83.593H14.1286C14.1435 83.777 14.2031 83.9303 14.3075 84.0529C14.4136 84.1739 14.5487 84.2642 14.7127 84.3239C14.8784 84.3819 15.0599 84.4109 15.2571 84.4109C15.4742 84.4109 15.6673 84.3769 15.8363 84.3089C16.007 84.2393 16.1412 84.1432 16.239 84.0206C16.3368 83.8963 16.3857 83.7513 16.3857 83.5856C16.3857 83.4348 16.3426 83.3113 16.2564 83.2152C16.1719 83.1191 16.0567 83.0395 15.9109 82.9766C15.7667 82.9136 15.6035 82.8581 15.4212 82.81L14.8196 82.646C14.4119 82.5349 14.0888 82.3717 13.8501 82.1562C13.6132 81.9408 13.4947 81.6558 13.4947 81.3011C13.4947 81.0078 13.5742 80.7518 13.7333 80.533C13.8924 80.3143 14.1078 80.1444 14.3796 80.0234C14.6514 79.9008 14.958 79.8395 15.2994 79.8395C15.6441 79.8395 15.9482 79.9 16.2116 80.021C16.4768 80.1419 16.6856 80.3085 16.8381 80.5206C16.9905 80.7311 17.0701 80.973 17.0767 81.2464H16.3359ZM20.8408 81.2464C20.8143 81.0111 20.7049 80.8288 20.5127 80.6996C20.3205 80.5687 20.0785 80.5032 19.7868 80.5032C19.578 80.5032 19.3974 80.5363 19.2449 80.6026C19.0925 80.6673 18.974 80.7567 18.8895 80.8711C18.8066 80.9838 18.7652 81.1122 18.7652 81.2564C18.7652 81.3774 18.7934 81.4818 18.8497 81.5696C18.9077 81.6574 18.9831 81.7312 19.0759 81.7908C19.1704 81.8488 19.2715 81.8977 19.3792 81.9375C19.4869 81.9756 19.5905 82.0071 19.6899 82.032L20.1871 82.1612C20.3495 82.201 20.516 82.2549 20.6867 82.3228C20.8574 82.3907 21.0157 82.4802 21.1615 82.5913C21.3073 82.7023 21.425 82.8398 21.5145 83.0039C21.6056 83.168 21.6512 83.3643 21.6512 83.593C21.6512 83.8814 21.5766 84.1374 21.4275 84.3612C21.28 84.5849 21.0654 84.7614 20.7836 84.8906C20.5036 85.0199 20.1647 85.0845 19.767 85.0845C19.3858 85.0845 19.056 85.024 18.7776 84.9031C18.4992 84.7821 18.2813 84.6106 18.1238 84.3885C17.9664 84.1648 17.8794 83.8996 17.8628 83.593H18.6334C18.6483 83.777 18.708 83.9303 18.8124 84.0529C18.9185 84.1739 19.0535 84.2642 19.2176 84.3239C19.3833 84.3819 19.5648 84.4109 19.762 84.4109C19.9791 84.4109 20.1721 84.3769 20.3412 84.3089C20.5119 84.2393 20.6461 84.1432 20.7439 84.0206C20.8416 83.8963 20.8905 83.7513 20.8905 83.5856C20.8905 83.4348 20.8474 83.3113 20.7613 83.2152C20.6768 83.1191 20.5616 83.0395 20.4157 82.9766C20.2716 82.9136 20.1083 82.8581 19.926 82.81L19.3245 82.646C18.9168 82.5349 18.5937 82.3717 18.355 82.1562C18.118 81.9408 17.9996 81.6558 17.9996 81.3011C17.9996 81.0078 18.0791 80.7518 18.2382 80.533C18.3973 80.3143 18.6127 80.1444 18.8845 80.0234C19.1563 79.9008 19.4629 79.8395 19.8042 79.8395C20.1489 79.8395 20.453 79.9 20.7165 80.021C20.9817 80.1419 21.1905 80.3085 21.343 80.5206C21.4954 80.7311 21.575 80.973 21.5816 81.2464H20.8408Z" fill="white"/>
<g filter="url(#filter2_d_2530_6575)">
<path d="M105.69 7.85645H8.59606C6.61001 7.85645 5 9.45543 5 11.4279V29.285C5 31.2575 6.61001 32.8564 8.59606 32.8564H105.69C107.676 32.8564 109.286 31.2575 109.286 29.285V11.4279C109.286 9.45543 107.676 7.85645 105.69 7.85645Z" fill="white"/>
</g>
<path d="M60.3786 13.5703H41.6791C40.4875 13.5703 39.5215 14.5297 39.5215 15.7132C39.5215 16.8966 40.4875 17.856 41.6791 17.856H60.3786C61.5703 17.856 62.5363 16.8966 62.5363 15.7132C62.5363 14.5297 61.5703 13.5703 60.3786 13.5703Z" fill="#D0D5DD"/>
<path d="M73.3244 22.8555H41.6791C40.4875 22.8555 39.5215 23.8149 39.5215 24.9983C39.5215 26.1818 40.4875 27.1412 41.6791 27.1412H73.3244C74.5161 27.1412 75.4821 26.1818 75.4821 24.9983C75.4821 23.8149 74.5161 22.8555 73.3244 22.8555Z" fill="#EAECF0"/>
<path d="M26.936 27.1417C30.7095 27.1417 33.7685 24.1037 33.7685 20.356C33.7685 16.6084 30.7095 13.5703 26.936 13.5703C23.1625 13.5703 20.1035 16.6084 20.1035 20.356C20.1035 24.1037 23.1625 27.1417 26.936 27.1417Z" fill="#98A2B3"/>
<path d="M23.088 23H22.2726L24.1047 17.9091H24.9921L26.8241 23H26.0088L24.5695 18.8338H24.5297L23.088 23ZM23.2247 21.0064H25.8696V21.6527H23.2247V21.0064ZM27.9893 23H27.174L29.006 17.9091H29.8935L31.7255 23H30.9102L29.4709 18.8338H29.4311L27.9893 23ZM28.1261 21.0064H30.771V21.6527H28.1261V21.0064Z" fill="white"/>
<defs>
<filter id="filter0_d_2530_6575" x="33.9258" y="36.5703" width="114.286" height="35" filterUnits="userSpaceOnUse" color-interpolation-filters="sRGB">
<feFlood flood-opacity="0" result="BackgroundImageFix"/>
<feColorMatrix in="SourceAlpha" type="matrix" values="0 0 0 0 0 0 0 0 0 0 0 0 0 0 0 0 0 0 127 0" result="hardAlpha"/>
<feOffset dx="3" dy="3"/>
<feGaussianBlur stdDeviation="2.5"/>
<feColorMatrix type="matrix" values="0 0 0 0 0.230539 0 0 0 0 0.370572 0 0 0 0 0.482993 0 0 0 0.1 0"/>
<feBlend mode="normal" in2="BackgroundImageFix" result="effect1_dropShadow_2530_6575"/>
<feBlend mode="normal" in="SourceGraphic" in2="effect1_dropShadow_2530_6575" result="shape"/>
</filter>
<filter id="filter1_d_2530_6575" x="0" y="67.2842" width="114.286" height="35" filterUnits="userSpaceOnUse" color-interpolation-filters="sRGB">
<feFlood flood-opacity="0" result="BackgroundImageFix"/>
<feColorMatrix in="SourceAlpha" type="matrix" values="0 0 0 0 0 0 0 0 0 0 0 0 0 0 0 0 0 0 127 0" result="hardAlpha"/>
<feOffset dy="3"/>
<feGaussianBlur stdDeviation="2.5"/>
<feColorMatrix type="matrix" values="0 0 0 0 0.230539 0 0 0 0 0.370572 0 0 0 0 0.482993 0 0 0 0.1 0"/>
<feBlend mode="normal" in2="BackgroundImageFix" result="effect1_dropShadow_2530_6575"/>
<feBlend mode="normal" in="SourceGraphic" in2="effect1_dropShadow_2530_6575" result="shape"/>
</filter>
<filter id="filter2_d_2530_6575" x="0" y="5.85645" width="114.286" height="35" filterUnits="userSpaceOnUse" color-interpolation-filters="sRGB">
<feFlood flood-opacity="0" result="BackgroundImageFix"/>
<feColorMatrix in="SourceAlpha" type="matrix" values="0 0 0 0 0 0 0 0 0 0 0 0 0 0 0 0 0 0 127 0" result="hardAlpha"/>
<feOffset dy="3"/>
<feGaussianBlur stdDeviation="2.5"/>
<feColorMatrix type="matrix" values="0 0 0 0 0.230539 0 0 0 0 0.370572 0 0 0 0 0.482993 0 0 0 0.1 0"/>
<feBlend mode="normal" in2="BackgroundImageFix" result="effect1_dropShadow_2530_6575"/>
<feBlend mode="normal" in="SourceGraphic" in2="effect1_dropShadow_2530_6575" result="shape"/>
</filter>
</defs>
</svg>
