<svg width="207" height="210" viewBox="0 0 207 210" fill="none" xmlns="http://www.w3.org/2000/svg">
<rect x="35" y="159.056" width="137" height="50.7523" rx="13.5" fill="white"/>
<rect opacity="0.3" x="82.6812" y="169.562" width="76.7346" height="5.32028" rx="2.66014" fill="#1B3554"/>
<rect opacity="0.3" x="82.6812" y="179.26" width="56.5145" height="5.32028" rx="2.66014" fill="#1B3554"/>
<rect opacity="0.15" x="82.6812" y="193.806" width="21.9437" height="5.32028" rx="2.66014" fill="#1B3554"/>
<ellipse cx="59.5769" cy="177.934" rx="12.4545" ry="12.414" fill="#BAC2CB"/>
<path d="M57.5795 182.542C57.8165 182.779 58.1262 182.897 58.4366 182.897C58.7469 182.897 59.0566 182.779 59.2936 182.542L65.355 176.48C65.8284 176.007 65.8284 175.24 65.355 174.766C64.8816 174.293 64.1142 174.293 63.6408 174.766L58.4366 179.97L55.6568 177.191C55.1834 176.717 54.4161 176.717 53.9427 177.191C53.4693 177.664 53.4693 178.431 53.9427 178.905L57.5795 182.542Z" fill="white"/>
<rect x="35" y="100.06" width="137" height="50.7523" rx="13.5" fill="white"/>
<rect opacity="0.3" x="82.6812" y="110.565" width="76.7346" height="5.32028" rx="2.66014" fill="#1B3554"/>
<rect opacity="0.3" x="82.6812" y="120.264" width="56.5145" height="5.32028" rx="2.66014" fill="#1B3554"/>
<rect opacity="0.15" x="82.6812" y="134.81" width="21.9437" height="5.32028" rx="2.66014" fill="#1B3554"/>
<ellipse cx="59.5769" cy="118.938" rx="12.4545" ry="12.414" fill="#BAC2CB"/>
<path d="M57.5795 123.546C57.8165 123.783 58.1262 123.901 58.4366 123.901C58.7469 123.901 59.0566 123.783 59.2936 123.546L65.355 117.484C65.8284 117.011 65.8284 116.243 65.355 115.77C64.8816 115.297 64.1142 115.297 63.6408 115.77L58.4366 120.974L55.6568 118.195C55.1834 117.721 54.4161 117.721 53.9427 118.195C53.4693 118.668 53.4693 119.435 53.9427 119.909L57.5795 123.546Z" fill="white"/>
<g filter="url(#filter0_d_2530_6546)">
<path fill-rule="evenodd" clip-rule="evenodd" d="M46.7183 16.0784L161.09 32.312C167.115 33.2341 172 37.4449 172 41.7106V70.2049C172 74.4706 167.115 78.6752 161.09 79.5897L47.5264 91.6447C41.5009 92.4142 35 87.3568 35 79.3581V28.3526C35 20.354 40.6928 15.302 46.7183 16.0784Z" fill="white"/>
</g>
<path opacity="0.3" fill-rule="evenodd" clip-rule="evenodd" d="M85.3413 39.3412L156.756 44.3068C158.225 44.414 159.416 45.4181 159.416 46.5491C159.416 47.6801 158.225 48.5408 156.756 48.4716L85.3413 45.2669C83.8721 45.2043 82.6812 43.8132 82.6812 42.1596C82.6812 40.5061 83.8721 39.2442 85.3413 39.3412Z" fill="#1B3554"/>
<path opacity="0.3" fill-rule="evenodd" clip-rule="evenodd" d="M85.3413 50.1423L136.535 51.3835C138.005 51.4204 139.196 52.4833 139.196 53.7574C139.196 55.0315 138.005 56.0644 136.535 56.0646L85.3413 56.068C83.8721 56.0681 82.6812 54.7277 82.6812 53.0742C82.6812 51.4206 83.8721 50.1079 85.3413 50.1423Z" fill="#1B3554"/>
<path opacity="0.15" fill-rule="evenodd" clip-rule="evenodd" d="M85.3413 66.3454L101.965 65.6605C103.434 65.5992 104.625 66.7733 104.625 68.2831C104.625 69.7928 103.434 71.0952 101.965 71.1919L85.3413 72.2711C83.8721 72.3653 82.6812 71.101 82.6812 69.4474C82.6812 67.7939 83.8721 66.4051 85.3413 66.3454Z" fill="#1B3554"/>
<path fill-rule="evenodd" clip-rule="evenodd" d="M61.3206 63.1462C69.1622 62.981 75.519 56.3181 75.519 48.2659C75.519 40.2138 69.1622 33.2391 61.3206 32.6936C53.4791 32.1546 47.1223 38.8227 47.1223 47.5813C47.1223 56.3399 53.4791 63.3094 61.3206 63.1462Z" fill="#7DFBA5"/>
<path d="M59.0444 53.5523C59.3146 53.8467 59.6677 53.9947 60.0215 53.9969C60.3753 53.999 60.7284 53.856 60.9985 53.5668L67.9085 46.3292C68.4482 45.7769 68.4482 44.8557 67.9085 44.2679C67.3689 43.6783 66.4941 43.6454 65.9544 44.1977L60.0215 50.393L56.8525 46.8866C56.3129 46.283 55.4381 46.2582 54.8984 46.8346C54.3587 47.4128 54.3587 48.3733 54.8984 48.9768L59.0444 53.5523Z" fill="white"/>
<defs>
<filter id="filter0_d_2530_6546" x="0" y="0" width="207" height="145.722" filterUnits="userSpaceOnUse" color-interpolation-filters="sRGB">
<feFlood flood-opacity="0" result="BackgroundImageFix"/>
<feColorMatrix in="SourceAlpha" type="matrix" values="0 0 0 0 0 0 0 0 0 0 0 0 0 0 0 0 0 0 127 0" result="hardAlpha"/>
<feOffset dy="19"/>
<feGaussianBlur stdDeviation="17.5"/>
<feColorMatrix type="matrix" values="0 0 0 0 0.226735 0 0 0 0 0.437054 0 0 0 0 0.687819 0 0 0 0.189057 0"/>
<feBlend mode="normal" in2="BackgroundImageFix" result="effect1_dropShadow_2530_6546"/>
<feBlend mode="normal" in="SourceGraphic" in2="effect1_dropShadow_2530_6546" result="shape"/>
</filter>
</defs>
</svg>
