<svg width="20" height="20" viewBox="0 0 20 20" fill="none" xmlns="http://www.w3.org/2000/svg">
<path fill-rule="evenodd" clip-rule="evenodd" d="M8.81478 1.66675C4.58586 1.66675 1.16675 5.13038 1.16675 9.39169C1.16675 13.653 4.58586 17.1166 8.81478 17.1166C13.0437 17.1166 16.4628 13.653 16.4628 9.39169C16.4628 7.34462 15.6583 5.38034 14.2246 3.93123C12.7908 2.48194 10.8449 1.66675 8.81478 1.66675ZM2.16675 9.39169C2.16675 5.67255 5.14821 2.66675 8.81478 2.66675C10.5762 2.66675 12.2666 3.37395 13.5138 4.63454C14.7611 5.89531 15.4628 7.60641 15.4628 9.39169C15.4628 13.1108 12.4814 16.1166 8.81478 16.1166C5.14821 16.1166 2.16675 13.1108 2.16675 9.39169ZM15.8445 15.212L17.9734 16.9304H18.0104C18.4411 17.3658 18.4411 18.0716 18.0104 18.5069C17.5797 18.9422 16.8814 18.9422 16.4507 18.5069L14.684 16.4821C14.517 16.3139 14.4231 16.0854 14.4231 15.8471C14.4231 15.6087 14.517 15.3802 14.684 15.212C15.0061 14.8921 15.5224 14.8921 15.8445 15.212Z" fill="#101828"/>
</svg>
