<svg width="12" height="12" viewBox="0 0 12 12" fill="none" xmlns="http://www.w3.org/2000/svg">
<path fill-rule="evenodd" clip-rule="evenodd" d="M5.28882 0.5C2.639 0.5 0.5 2.66974 0.5 5.33496C0.5 8.00018 2.639 10.1699 5.28882 10.1699C7.93864 10.1699 10.0776 8.00018 10.0776 5.33496C10.0776 4.05437 9.57439 2.82516 8.67691 1.91802C7.77926 1.01071 6.56063 0.5 5.28882 0.5ZM1.5 5.33496C1.5 3.21191 3.20134 1.5 5.28882 1.5C6.29194 1.5 7.25507 1.90273 7.96603 2.62134C8.67718 3.34013 9.07764 4.31615 9.07764 5.33496C9.07764 7.45801 7.3763 9.16993 5.28882 9.16993C3.20134 9.16993 1.5 7.45801 1.5 5.33496ZM9.50668 8.82714L10.784 9.85821H10.8062C11.0646 10.1194 11.0646 10.5429 10.8062 10.8041C10.5478 11.0653 10.1288 11.0653 9.87036 10.8041L8.81035 9.58923C8.71014 9.4883 8.65382 9.35118 8.65382 9.20819C8.65382 9.06519 8.71014 8.92808 8.81035 8.82714C9.00362 8.63519 9.31341 8.63519 9.50668 8.82714Z" fill="#101828"/>
</svg>
