<svg width="20" height="20" viewBox="0 0 20 20" fill="none" xmlns="http://www.w3.org/2000/svg">
<path d="M9.96794 13.764V11.574" stroke="#101828" stroke-width="1.5" stroke-linecap="round" stroke-linejoin="round"/>
<path d="M17.5745 9.56494L17.5504 9.58244C15.532 10.8258 12.867 11.5766 9.96368 11.5766C7.06035 11.5766 4.40285 10.8258 2.38535 9.58244L2.36035 9.56494" stroke="#101828" stroke-width="1.5" stroke-linecap="round" stroke-linejoin="round"/>
<path fill-rule="evenodd" clip-rule="evenodd" d="M2.29199 11.1256C2.29199 5.99896 4.21116 4.28979 9.96783 4.28979C15.7253 4.28979 17.6437 5.99896 17.6437 11.1256C17.6437 16.2523 15.7253 17.9615 9.96783 17.9615C4.21116 17.9615 2.29199 16.2523 2.29199 11.1256Z" stroke="#101828" stroke-width="1.5" stroke-linecap="round" stroke-linejoin="round"/>
<path d="M12.6865 4.47449V3.94949C12.6865 2.89616 11.9174 2.04199 10.9699 2.04199H8.96569C8.01819 2.04199 7.24902 2.89616 7.24902 3.94949V4.47449" stroke="#101828" stroke-width="1.5" stroke-linecap="round" stroke-linejoin="round"/>
</svg>
