<svg width="20" height="21" viewBox="0 0 20 21" fill="none" xmlns="http://www.w3.org/2000/svg">
<path d="M3 14.5301C3.00055 14.9662 3.17324 15.3843 3.48018 15.6926C3.78713 16.001 4.20328 16.1745 4.63737 16.175H15.3547C15.789 16.1771 16.2063 16.0058 16.5148 15.6989C16.8234 15.3919 16.9979 14.9743 17 14.5381C17.0021 14.1018 16.8316 13.6826 16.526 13.3726C16.2204 13.0627 15.8048 12.8874 15.3705 12.8853V7.80676H15.472C15.8073 7.80669 16.1326 7.6923 16.3948 7.48232C16.657 7.27234 16.8404 6.9792 16.9152 6.65085C16.9899 6.3225 16.9515 5.97839 16.8063 5.67481C16.6611 5.37122 16.4176 5.12614 16.1157 4.97966L10.6397 2.32422C10.4392 2.22606 10.2191 2.17505 9.99605 2.17505C9.77301 2.17505 9.5529 2.22606 9.35241 2.32422L3.87644 4.97966C3.57452 5.12614 3.33102 5.37122 3.18578 5.67481C3.04054 5.97839 3.00216 6.3225 3.07691 6.65085C3.15167 6.9792 3.33513 7.27234 3.59729 7.48232C3.85945 7.6923 4.18479 7.80669 4.52008 7.80676H4.62159V12.8853C4.1902 12.8898 3.77799 13.0651 3.47441 13.373C3.17083 13.681 3.00037 14.0967 3 14.5301ZM11.4846 7.80676V12.8853H8.50753V7.80676H11.4846ZM14.1797 12.8853H12.6754V7.80676H14.1797V12.8853ZM7.31671 7.80676V12.8853H5.81241V7.80676H7.31671Z" fill="#101828" fill-opacity="0.2"/>
</svg>
