<svg width="20" height="21" viewBox="0 0 20 21" fill="none" xmlns="http://www.w3.org/2000/svg">
<path d="M2.84028 10.1109C2.8962 9.62086 2.98664 9.13535 3.11092 8.65801C3.03687 8.16826 2.99937 7.67369 2.99874 7.17837C2.99874 5.67915 3.50086 5.17882 4.49975 5.17882C5.41673 5.17882 5.9135 5.59903 5.99006 6.82226H6.98895C6.91061 5.45124 6.34083 4.17993 4.49618 4.17993C2.49663 4.17993 2.00342 5.67915 2.00342 7.17837C2.00342 8.55652 2.21352 10.0397 2.73522 11.2398C2.76015 10.8249 2.79754 10.451 2.84028 10.1109Z" fill="#101828" fill-opacity="0.2"/>
<path d="M10.1606 10.1181C10.2141 10.5329 10.255 10.9959 10.2871 11.514C11.797 9.6943 12.4932 7.15702 12.4932 5.67561C12.4932 3.67605 12.9953 3.18284 13.4956 3.18284C13.9639 3.18284 14.4322 3.62263 14.4892 5.3195H15.4898C15.4311 3.49978 14.904 2.17505 13.4956 2.17505C11.9946 2.17505 11.4943 3.67605 11.4943 5.67561C11.4943 7.04129 10.9761 8.61173 10.1304 9.92043C10.1393 9.98453 10.1482 10.0504 10.1553 10.1163L10.1606 10.1181Z" fill="#101828" fill-opacity="0.2"/>
<path d="M2.65168 16.0312C2.65168 15.919 2.65168 15.8015 2.65168 15.675V14.1438C2.65168 14.0334 2.65168 13.923 2.65168 13.8162C2.65168 13.6179 2.65168 13.4256 2.65168 13.2393C2.46042 13.3096 2.29537 13.437 2.17883 13.6042C2.06228 13.7713 1.99986 13.9703 2 14.174V17.1743C2 17.3057 2.02588 17.4358 2.07617 17.5572C2.12646 17.6786 2.20017 17.7889 2.29309 17.8818C2.38601 17.9748 2.49632 18.0485 2.61773 18.0988C2.73914 18.1491 2.86926 18.1749 3.00067 18.1749H3.59003C2.95615 17.8153 2.69976 17.1493 2.65168 16.0312Z" fill="#101828" fill-opacity="0.2"/>
<path d="M10.3563 13.2393C10.3563 13.4268 10.3563 13.6191 10.3563 13.8162C10.3563 13.9212 10.3563 14.028 10.3563 14.1384V15.675C10.3563 15.7979 10.3563 15.9172 10.3563 16.0312C10.349 16.3801 10.3024 16.7271 10.2175 17.0657C10.1699 17.2958 10.0746 17.5133 9.93787 17.7044C9.80109 17.8954 9.62582 18.0557 9.42334 18.1749H10.0002C10.2656 18.1749 10.5202 18.0695 10.7078 17.8818C10.8955 17.6942 11.0009 17.4397 11.0009 17.1743V14.174C11.0016 13.9711 10.9402 13.7728 10.825 13.6057C10.7098 13.4386 10.5463 13.3108 10.3563 13.2393Z" fill="#101828" fill-opacity="0.2"/>
<path d="M5.00053 7.17505C4.32748 7.17505 3.65444 7.40118 3.28764 9.53249C3.26272 9.67494 3.23957 9.82806 3.21642 9.98831L3.19506 10.1521C3.13452 10.6418 3.08644 11.2116 3.05261 11.8739C3.03243 12.2728 3.01819 12.706 3.00988 13.1737C3.00988 13.4889 3.00098 13.8218 3.00098 14.1708L3.25203 14.4201C3.85386 15.0201 5.21064 15.2391 6.04037 15.2979H6.09557H6.17213H6.28965H6.49975C7.15499 15.2979 9.01567 15.1341 9.74925 14.4076L10.0003 14.1744C10.0003 13.8183 10.0003 13.4924 10.0003 13.1773C9.99319 12.7167 9.97954 12.2894 9.95936 11.8953C9.93087 11.3166 9.88992 10.8074 9.84006 10.3622C9.84006 10.2946 9.82404 10.2269 9.81691 10.1628C9.80979 10.0987 9.79911 10.0328 9.79199 9.97051C9.43588 7.43323 8.72366 7.17683 8.01144 7.17683H5.00053V7.17505ZM8.00076 13.6758C8.0003 13.807 7.94836 13.9327 7.85611 14.026C7.76387 14.1192 7.63869 14.1725 7.50754 14.1744H5.50087C5.36848 14.1744 5.24148 14.1219 5.1477 14.0285C5.05392 13.935 5.001 13.8082 5.00053 13.6758C5.00039 13.6281 5.0076 13.5807 5.0219 13.5352C5.05238 13.4319 5.11556 13.3414 5.20194 13.2772C5.28832 13.2129 5.39323 13.1785 5.50087 13.1791H7.50754C7.57331 13.1788 7.63848 13.1916 7.69929 13.2167C7.7601 13.2417 7.81535 13.2786 7.86186 13.3251C7.90836 13.3716 7.94521 13.4268 7.97027 13.4876C7.99533 13.5485 8.00811 13.6136 8.00788 13.6794L8.00076 13.6758ZM6.49975 9.67494C6.56546 9.67494 6.63052 9.662 6.69122 9.63685C6.75193 9.61171 6.80708 9.57485 6.85354 9.52839C6.9 9.48193 6.93686 9.42678 6.962 9.36607C6.98715 9.30537 7.00009 9.24031 7.00009 9.1746V8.31104C7.19105 8.42103 7.34036 8.59097 7.42484 8.7945C7.50933 8.99803 7.52427 9.22376 7.46735 9.43665C7.41042 9.64954 7.28481 9.83768 7.11002 9.97188C6.93522 10.1061 6.72101 10.1788 6.50064 10.1788C6.28027 10.1788 6.06607 10.1061 5.89127 9.97188C5.71648 9.83768 5.59087 9.64954 5.53394 9.43665C5.47701 9.22376 5.49195 8.99803 5.57644 8.7945C5.66093 8.59097 5.81024 8.42103 6.0012 8.31104V9.1746C6.00097 9.24022 6.01369 9.30525 6.03864 9.36594C6.06359 9.42663 6.10027 9.4818 6.14659 9.52829C6.19291 9.57477 6.24795 9.61165 6.30855 9.63682C6.36916 9.66198 6.43413 9.67494 6.49975 9.67494Z" fill="#101828" fill-opacity="0.2"/>
<path d="M9.8736 16.9768C9.95009 16.6672 9.99249 16.3502 10 16.0313C10 15.9174 10 15.7999 10 15.6752V14.6746C8.99936 15.6752 6.49947 15.6752 6.49947 15.6752C6.4692 15.6752 6.34812 15.6752 6.16472 15.6628C5.4525 15.6236 3.78057 15.4473 3.00781 14.6746V15.6752C3.00781 15.7999 3.00781 15.9174 3.00781 16.0313C3.07013 17.7353 3.62744 18.168 5.50058 18.168H7.50726C8.96553 18.1751 9.62611 17.9063 9.8736 16.9768Z" fill="#101828" fill-opacity="0.2"/>
<path d="M11.9995 17.6749C11.9995 17.8064 12.0512 17.9326 12.1435 18.0262C12.2358 18.1198 12.3613 18.1734 12.4927 18.1752H17.4996C17.6323 18.1752 17.7596 18.1225 17.8534 18.0287C17.9472 17.9349 18 17.8076 18 17.6749V17.1746H11.9995V17.6749Z" fill="#101828" fill-opacity="0.2"/>
<path d="M17.4999 16.1735H15.9989V15.675C16 15.6091 15.9879 15.5437 15.9634 15.4826C15.939 15.4215 15.9026 15.3658 15.8565 15.3188V15.5254H14.1436V15.3242C14.097 15.3709 14.0603 15.4265 14.0355 15.4877C14.0107 15.5488 13.9984 15.6143 13.9994 15.6803V16.1789H12.493C12.3603 16.1789 12.2331 16.2316 12.1392 16.3254C12.0454 16.4192 11.9927 16.5465 11.9927 16.6792V17.1795H17.9931V16.6738C17.9931 16.5424 17.9414 16.4162 17.8491 16.3225C17.7568 16.2289 17.6314 16.1754 17.4999 16.1735Z" fill="#101828" fill-opacity="0.2"/>
<path d="M15.5002 5.67578H14.4995V15.175H15.5002V5.67578Z" fill="#101828" fill-opacity="0.2"/>
</svg>
