<svg width="20" height="21" viewBox="0 0 20 21" fill="none" xmlns="http://www.w3.org/2000/svg">
<path d="M12.5896 6.15801C13.4133 6.15801 14.0811 5.49025 14.0811 4.66653C14.0811 3.84281 13.4133 3.17505 12.5896 3.17505C11.7659 3.17505 11.0981 3.84281 11.0981 4.66653C11.0981 5.49025 11.7659 6.15801 12.5896 6.15801Z" fill="#101828" fill-opacity="0.2"/>
<path d="M5.28123 17.7824C7.09334 17.7824 8.56238 16.3135 8.56238 14.5013C8.56238 12.6891 7.09334 11.22 5.28123 11.22C3.46904 11.22 2 12.6891 2 14.5013C2 16.3135 3.46904 17.7824 5.28123 17.7824ZM5.28123 12.4132C6.43256 12.4132 7.36921 13.3499 7.36921 14.5013C7.36921 15.6525 6.43256 16.5894 5.28123 16.5894C4.12982 16.5894 3.19317 15.6525 3.19317 14.5013C3.19317 13.3499 4.12982 12.4132 5.28123 12.4132Z" fill="#101828" fill-opacity="0.2"/>
<path d="M14.7191 11.22C12.907 11.22 11.438 12.6891 11.438 14.5013C11.438 16.3135 12.907 17.7824 14.7191 17.7824C16.5313 17.7824 18.0004 16.3135 18.0004 14.5013C18.0004 12.6891 16.5313 11.22 14.7191 11.22ZM14.7191 16.5894C13.5678 16.5894 12.6312 15.6525 12.6312 14.5013C12.6312 13.3499 13.5678 12.4132 14.7191 12.4132C15.8706 12.4132 16.8072 13.3499 16.8072 14.5013C16.8072 15.6525 15.8706 16.5894 14.7191 16.5894Z" fill="#101828" fill-opacity="0.2"/>
<path d="M13.0935 9.89285C13.3265 10.1258 13.7042 10.1258 13.9371 9.89285C14.1701 9.65986 14.1701 9.28225 13.9371 9.04926L11.0805 6.19243C10.81 5.91742 10.4339 5.74658 10.0176 5.74658C9.60577 5.74658 9.23285 5.91343 8.96296 6.1834L6.64824 8.4982C6.37836 8.768 6.21143 9.14093 6.21143 9.55274C6.21143 9.9689 6.38226 10.3449 6.65718 10.6154L9.45681 13.4152V15.9928C9.45681 16.3223 9.72392 16.5895 10.0533 16.5895C10.3828 16.5895 10.65 16.3223 10.65 15.9928V13.1681C10.65 13.0643 10.6229 12.9622 10.5714 12.8721L9.08822 10.2765L11.2612 8.06052L13.0935 9.89285Z" fill="#101828" fill-opacity="0.2"/>
</svg>
