<svg width="20" height="21" viewBox="0 0 20 21" fill="none" xmlns="http://www.w3.org/2000/svg">
<path fill-rule="evenodd" clip-rule="evenodd" d="M13.2851 2.80872C13.7689 2.80872 14.2518 2.87695 14.7111 3.03104C17.5408 3.95102 18.5604 7.05596 17.7087 9.7699C17.2257 11.1568 16.436 12.4225 15.4018 13.4567C13.9214 14.8903 12.2969 16.163 10.5482 17.2593L10.3565 17.3751L10.1572 17.2516C8.40231 16.163 6.76858 14.8903 5.27438 13.449C4.24707 12.4148 3.45665 11.1568 2.966 9.7699C2.09968 7.05596 3.11933 3.95102 5.9797 3.01494C6.20203 2.93828 6.43126 2.88461 6.66125 2.85472H6.75325C6.96868 2.82328 7.18257 2.80872 7.39723 2.80872H7.48156C7.96455 2.82328 8.43221 2.90761 8.8853 3.06171H8.93053C8.9612 3.07628 8.9842 3.09238 8.99953 3.10694C9.16896 3.16138 9.32919 3.22271 9.48252 3.30704L9.77385 3.43737C9.84424 3.47491 9.92326 3.53228 9.99155 3.58186C10.0348 3.61327 10.0738 3.64156 10.1035 3.6597C10.116 3.66708 10.1287 3.6745 10.1416 3.68199C10.2073 3.72036 10.2758 3.76033 10.3335 3.80459C11.1852 3.15371 12.2195 2.80105 13.2851 2.80872ZM15.3246 8.32881C15.639 8.32037 15.9073 8.06815 15.9303 7.74539V7.65416C15.9533 6.58008 15.3024 5.6072 14.3127 5.23154C13.9983 5.12345 13.6533 5.29287 13.5383 5.61487C13.431 5.93686 13.5997 6.28952 13.9217 6.40375C14.4131 6.58775 14.742 7.0715 14.742 7.60739V7.63116C14.7274 7.80672 14.7803 7.97615 14.8876 8.10648C14.995 8.23681 15.156 8.31271 15.3246 8.32881Z" fill="#101828" fill-opacity="0.2"/>
</svg>
