<svg width="20" height="21" viewBox="0 0 20 21" fill="none" xmlns="http://www.w3.org/2000/svg">
<path fill-rule="evenodd" clip-rule="evenodd" d="M12.6536 5.1689C12.8847 5.17206 13.1163 5.17524 13.3487 5.17762C15.8459 5.17762 17.6667 6.95796 17.6667 9.41654V12.5745C17.6667 15.0331 15.8459 16.8135 13.3487 16.8135C12.3484 16.8346 11.3481 16.8417 10.3405 16.8417C9.33301 16.8417 8.31829 16.8346 7.31796 16.8135C4.82074 16.8135 3 15.0331 3 12.5745V9.41654C3 6.95796 4.82074 5.17762 7.32516 5.17762C8.26791 5.16349 9.23225 5.14936 10.211 5.14936V5.02926C10.211 4.54178 9.80078 4.14615 9.31142 4.14615H8.59895C7.78574 4.14615 7.12365 3.49618 7.12365 2.70491C7.12365 2.41525 7.36833 2.17505 7.6634 2.17505C7.96565 2.17505 8.20314 2.41525 8.20314 2.70491C8.20314 2.91686 8.38306 3.08642 8.59895 3.08642H9.31142C10.3981 3.09348 11.2833 3.96246 11.2905 5.02219V5.15642C11.7442 5.15642 12.1978 5.16265 12.6536 5.1689ZM9.49137 11.5221H8.73573V12.271C8.73573 12.5606 8.49105 12.8008 8.19599 12.8008C7.89373 12.8008 7.65624 12.5606 7.65624 12.271V11.5221H6.8934C6.59834 11.5221 6.35366 11.2889 6.35366 10.9922C6.35366 10.7026 6.59834 10.4623 6.8934 10.4623H7.65624V9.72054C7.65624 9.43088 7.89373 9.19067 8.19599 9.19067C8.49105 9.19067 8.73573 9.43088 8.73573 9.72054V10.4623H9.49137C9.78644 10.4623 10.0311 10.7026 10.0311 10.9922C10.0311 11.2889 9.78644 11.5221 9.49137 11.5221ZM12.5503 10.328H12.6222C12.9173 10.328 13.162 10.0949 13.162 9.79818C13.162 9.50852 12.9173 9.26831 12.6222 9.26831H12.5503C12.248 9.26831 12.0105 9.50852 12.0105 9.79818C12.0105 10.0949 12.248 10.328 12.5503 10.328ZM13.7809 12.7585H13.8528C14.1479 12.7585 14.3926 12.5253 14.3926 12.2286C14.3926 11.9389 14.1479 11.6987 13.8528 11.6987H13.7809C13.4779 11.6987 13.2411 11.9389 13.2411 12.2286C13.2411 12.5253 13.4779 12.7585 13.7809 12.7585Z" fill="#101828" fill-opacity="0.2"/>
</svg>
