<svg width="20" height="21" viewBox="0 0 20 21" fill="none" xmlns="http://www.w3.org/2000/svg">
<path d="M9.37939 11.3545C9.38033 11.4632 9.39185 11.5716 9.41377 11.6782H12.705C12.7723 11.3528 12.7403 11.0147 12.6133 10.7077C12.4862 10.4007 12.2698 10.1389 11.9922 9.95623C11.7163 9.77045 11.3909 9.67173 11.0582 9.67286C10.6127 9.67367 10.1858 9.85119 9.87102 10.1665C9.55628 10.4817 9.37947 10.909 9.37939 11.3545Z" fill="#101828" fill-opacity="0.2"/>
<path d="M5.95626 9.49078V9.89802C5.95625 9.91717 5.95185 9.93605 5.94341 9.95323C5.93497 9.97041 5.9227 9.98542 5.90755 9.99712C5.66261 10.1839 5.46421 10.4248 5.32786 10.701C5.19151 10.9772 5.12091 11.2812 5.12159 11.5892C5.12159 11.6171 5.12242 11.6466 5.12395 11.6782H9.15646C9.13814 11.5712 9.12883 11.4629 9.12862 11.3544C9.12862 11.3504 9.12862 11.3465 9.12862 11.3425C9.12862 11.3409 9.12779 11.3397 9.12779 11.3381C9.09371 11.0691 9.00547 10.8098 8.8684 10.5758C8.73133 10.3418 8.54828 10.1381 8.33028 9.9768C8.31461 9.96515 8.30188 9.94999 8.2931 9.93255C8.28433 9.9151 8.27976 9.89584 8.27976 9.87631V9.49078C8.27976 9.18255 8.15731 8.88695 7.93936 8.669C7.72142 8.45106 7.42582 8.32861 7.11759 8.32861C6.80936 8.32861 6.51376 8.45106 6.29581 8.669C6.07787 8.88695 5.95542 9.18255 5.95542 9.49078H5.95626Z" fill="#101828" fill-opacity="0.2"/>
<path d="M14.8184 11.6783C14.9035 11.3501 14.8872 11.0039 14.7717 10.6852C14.6562 10.3664 14.4469 10.0902 14.1713 9.8927C13.8957 9.69524 13.5668 9.58586 13.2279 9.57896C12.8889 9.57206 12.5558 9.66797 12.2725 9.85405C12.4965 10.0347 12.6771 10.2633 12.8011 10.5229C12.9251 10.7826 12.9893 11.0668 12.989 11.3546C12.9887 11.4631 12.9794 11.5713 12.9611 11.6783H14.8184Z" fill="#101828" fill-opacity="0.2"/>
<path d="M12.7081 16.7367C12.777 16.7436 12.8458 16.7234 12.9001 16.6804C12.9543 16.6374 12.9896 16.5749 12.9986 16.5063L13.2456 14.3699C13.2536 14.3009 13.2338 14.2315 13.1906 14.1771C13.1475 14.1226 13.0844 14.0875 13.0154 14.0796C13.0054 14.0784 12.9954 14.0779 12.9854 14.0779C12.9211 14.078 12.8591 14.1016 12.8112 14.1444C12.7632 14.1871 12.7326 14.246 12.7251 14.3098L12.4778 16.4463C12.4699 16.5154 12.4897 16.5847 12.5329 16.6391C12.5761 16.6936 12.6391 16.7286 12.7081 16.7367Z" fill="#101828" fill-opacity="0.2"/>
<path d="M3.24084 11.0501C3.2368 10.1604 3.40856 9.27855 3.74627 8.45535C4.08397 7.63215 4.58096 6.88377 5.20869 6.25318C5.83643 5.62259 6.58254 5.12221 7.4042 4.78078C8.22586 4.43934 9.10687 4.26358 9.99664 4.26358C10.8864 4.26358 11.7674 4.43934 12.5891 4.78078C13.4107 5.12221 14.1569 5.62259 14.7846 6.25318C15.4123 6.88377 15.9093 7.63215 16.247 8.45535C16.5847 9.27855 16.7565 10.1604 16.7524 11.0501V11.6782H17.504V11.1126C17.504 9.12165 16.7131 7.21225 15.3053 5.80443C13.8975 4.39662 11.9881 3.60571 9.99713 3.60571C8.00618 3.60571 6.09677 4.39662 4.68895 5.80443C3.28114 7.21225 2.49023 9.12165 2.49023 11.1126V11.6782H3.24181L3.24084 11.0501Z" fill="#101828" fill-opacity="0.2"/>
<path d="M7.73025 7.42346C7.93041 7.37704 8.10992 7.26649 8.24146 7.10863C8.05319 7.02671 7.84348 7.00782 7.64361 7.0548C7.44373 7.10178 7.26439 7.2121 7.13232 7.36932C7.32039 7.4521 7.53037 7.47111 7.73025 7.42346Z" fill="#101828" fill-opacity="0.2"/>
<path d="M9.99701 16.7379C10.0665 16.7378 10.133 16.7102 10.1821 16.6611C10.2313 16.612 10.2589 16.5454 10.259 16.4759V14.3397C10.2598 14.3047 10.2536 14.27 10.2408 14.2375C10.228 14.205 10.2088 14.1754 10.1844 14.1504C10.16 14.1255 10.1308 14.1056 10.0986 14.0921C10.0664 14.0785 10.0319 14.0715 9.99694 14.0715C9.96202 14.0715 9.92744 14.0785 9.89526 14.0921C9.86307 14.1056 9.83391 14.1255 9.8095 14.1504C9.78509 14.1754 9.76592 14.205 9.75312 14.2375C9.74031 14.27 9.73413 14.3047 9.73493 14.3397V16.4759C9.73504 16.5454 9.7627 16.612 9.81182 16.6611C9.86095 16.7102 9.92755 16.7378 9.99701 16.7379Z" fill="#101828" fill-opacity="0.2"/>
<path d="M17.8905 12.0379C17.8564 12.0031 17.8157 11.9756 17.7708 11.9568C17.7259 11.938 17.6777 11.9284 17.629 11.9285H2.36497C2.26753 11.9304 2.17472 11.9704 2.10647 12.04C2.03823 12.1095 2 12.2031 2 12.3006C2 12.398 2.03823 12.4916 2.10647 12.5612C2.17472 12.6308 2.26753 12.6708 2.36497 12.6727H17.629C17.7025 12.6726 17.7744 12.6507 17.8354 12.6097C17.8965 12.5688 17.944 12.5107 17.972 12.4427C18 12.3747 18.0072 12.3 17.9927 12.2279C17.9782 12.1559 17.9426 12.0897 17.8905 12.0379Z" fill="#101828" fill-opacity="0.2"/>
<path d="M6.99623 16.5058C7.00498 16.5746 7.04029 16.6372 7.0946 16.6802C7.14891 16.7233 7.21791 16.7434 7.28684 16.7362C7.35582 16.7281 7.41878 16.693 7.46191 16.6386C7.50504 16.5842 7.52482 16.5148 7.5169 16.4458L7.26944 14.3093C7.26195 14.2455 7.23136 14.1867 7.18345 14.144C7.13555 14.1013 7.07364 14.0776 7.00945 14.0774C6.99931 14.0773 6.98918 14.0779 6.97911 14.0791C6.91009 14.0871 6.84708 14.1222 6.8039 14.1766C6.76072 14.231 6.74089 14.3004 6.74876 14.3694L6.99623 16.5058Z" fill="#101828" fill-opacity="0.2"/>
<path d="M4.35245 17.152C4.43594 17.393 4.59243 17.6019 4.80016 17.7498C5.00789 17.8977 5.25655 17.9772 5.51155 17.9772H14.5149C14.77 17.9773 15.0187 17.8979 15.2264 17.75C15.4342 17.6021 15.5907 17.393 15.674 17.152L17.1354 12.9229H2.89062L4.35245 17.152ZM12.229 16.418L12.4766 14.2807C12.488 14.18 12.529 14.085 12.5945 14.0077C12.66 13.9304 12.747 13.8744 12.8445 13.8466C12.9419 13.8189 13.0454 13.8208 13.1418 13.852C13.2381 13.8832 13.3231 13.9424 13.3857 14.022C13.4278 14.0743 13.459 14.1345 13.4774 14.199C13.4959 14.2635 13.5012 14.3311 13.4932 14.3978L13.2468 16.5348C13.2322 16.6594 13.1723 16.7744 13.0785 16.8579C12.9847 16.9414 12.8636 16.9875 12.738 16.9875C12.7192 16.9875 12.6992 16.9863 12.6791 16.985C12.5443 16.9691 12.4212 16.9004 12.3369 16.794C12.2526 16.6876 12.2138 16.5522 12.229 16.4173V16.418ZM9.48421 14.3396C9.48643 14.2052 9.54136 14.0771 9.63716 13.9829C9.73295 13.8886 9.86195 13.8358 9.99633 13.8358C10.1307 13.8358 10.2597 13.8886 10.3555 13.9829C10.4513 14.0771 10.5062 14.2052 10.5084 14.3396V16.4766C10.5062 16.6109 10.4513 16.739 10.3555 16.8333C10.2597 16.9275 10.1307 16.9803 9.99633 16.9803C9.86195 16.9803 9.73295 16.9275 9.63716 16.8333C9.54136 16.739 9.48643 16.6109 9.48421 16.4766V14.3396ZM6.60691 14.022C6.66972 13.9424 6.75473 13.8833 6.85118 13.8521C6.94763 13.8209 7.05117 13.819 7.14868 13.8467C7.24619 13.8744 7.33327 13.9305 7.3989 14.0077C7.46452 14.085 7.50573 14.18 7.5173 14.2807L7.7649 16.4178C7.78019 16.5524 7.7415 16.6875 7.65731 16.7936C7.61581 16.8466 7.5641 16.8907 7.50524 16.9234C7.44638 16.9561 7.38158 16.9766 7.31465 16.9838C7.29517 16.9862 7.27555 16.9875 7.25591 16.9875C7.13035 16.9875 7.00916 16.9414 6.91533 16.8579C6.82151 16.7745 6.76159 16.6595 6.74693 16.5348L6.50072 14.3983C6.49235 14.3317 6.49743 14.264 6.51568 14.1994C6.53392 14.1347 6.56494 14.0744 6.60691 14.022Z" fill="#101828" fill-opacity="0.2"/>
<path d="M13.0472 9.33416C13.0947 9.33041 13.1436 9.32915 13.1923 9.32915C13.2299 9.32915 13.266 9.33041 13.3024 9.33291C13.2598 9.0803 13.1097 8.4576 12.6108 8.10255C12.5836 8.08339 12.5499 8.07578 12.5171 8.08139C12.4842 8.087 12.455 8.10536 12.4357 8.13247C12.4168 8.15955 12.4093 8.19302 12.4149 8.22558C12.4205 8.25814 12.4388 8.28716 12.4657 8.30631C12.8609 8.58759 13.0009 9.09533 13.0472 9.33416Z" fill="#101828" fill-opacity="0.2"/>
<path d="M10.9137 9.43052C10.9615 9.42591 11.0095 9.42382 11.0576 9.42426C11.095 9.42426 11.1326 9.42551 11.1689 9.42802C11.1272 9.1754 10.9764 8.55117 10.4775 8.19626C10.4641 8.18678 10.449 8.18004 10.433 8.17641C10.417 8.17279 10.4005 8.17237 10.3843 8.17516C10.3681 8.17795 10.3527 8.18391 10.3389 8.19269C10.325 8.20147 10.313 8.2129 10.3036 8.22632C10.2939 8.23956 10.287 8.25461 10.2831 8.27058C10.2793 8.28654 10.2788 8.30311 10.2814 8.31931C10.2841 8.3355 10.29 8.351 10.2988 8.36489C10.3075 8.37877 10.319 8.39076 10.3324 8.40016C10.7299 8.6827 10.87 9.19294 10.9137 9.43052Z" fill="#101828" fill-opacity="0.2"/>
<path d="M6.61755 6.80202C6.60491 6.78994 6.58988 6.78065 6.57343 6.77473C6.55698 6.76881 6.53948 6.7664 6.52204 6.76766C6.5046 6.76891 6.48762 6.7738 6.47219 6.78201C6.45676 6.79022 6.44321 6.80157 6.43243 6.81533C6.42165 6.82909 6.41386 6.84495 6.40958 6.8619C6.4053 6.87885 6.40461 6.89651 6.40756 6.91374C6.41051 6.93097 6.41703 6.94739 6.42671 6.96195C6.43639 6.9765 6.44901 6.98887 6.46375 6.99826C6.62191 7.13346 6.75039 7.2999 6.84115 7.48713C6.9319 7.67436 6.98296 7.87834 6.99111 8.08625C7.03287 8.08249 7.07615 8.07998 7.11874 8.07998C7.16133 8.07998 7.20225 8.08123 7.244 8.08499C7.23549 7.83915 7.17532 7.59785 7.06738 7.3768C6.95945 7.15575 6.80618 6.95991 6.61755 6.80202Z" fill="#101828" fill-opacity="0.2"/>
</svg>
