<svg width="20" height="21" viewBox="0 0 20 21" fill="none" xmlns="http://www.w3.org/2000/svg">
<path d="M5.16104 5.17964C6.49736 3.84356 8.24896 3.17505 10.0006 3.17505C11.7082 3.17505 13.4161 3.81049 14.7387 5.0809C14.9556 5.07806 15.1661 5.0809 15.3676 5.08988C15.5294 5.0972 15.685 5.10759 15.8339 5.12153C15.8851 5.01358 15.9543 4.91578 16.0377 4.83239C16.225 4.64389 16.4844 4.52766 16.7705 4.52766C17.0565 4.52766 17.3162 4.64389 17.5035 4.83121C17.691 5.01877 17.8073 5.27815 17.8073 5.56421C17.8073 5.58878 17.8063 5.61287 17.8047 5.63697C18.0366 5.75792 18.2393 5.89871 18.4089 6.05957C18.6289 6.26816 18.7926 6.50958 18.8922 6.78313C19.2813 7.85298 18.596 9.17371 17.1732 10.4429C17.0556 10.5478 16.9325 10.6522 16.805 10.7569C16.6434 12.2552 15.9881 13.7104 14.8398 14.8587C13.5037 16.1947 11.7522 16.8633 10.0006 16.8633C8.29289 16.8633 6.585 16.2276 5.26238 14.9574C4.87663 14.9626 4.51001 14.9489 4.16702 14.9165C4.11576 15.0247 4.04654 15.1225 3.96316 15.2059C3.77583 15.3944 3.51646 15.5106 3.23039 15.5106C2.95094 15.5106 2.67101 15.3949 2.48062 15.1889C2.30298 15.0028 2.19384 14.7507 2.19384 14.4741C2.19384 14.4495 2.19479 14.4252 2.19644 14.4011C1.96423 14.2804 1.76155 14.1394 1.59194 13.9783C1.37178 13.7697 1.20855 13.5285 1.10887 13.2552C0.891305 12.6573 1.00611 11.9843 1.39706 11.2872C1.76439 10.6319 2.38164 9.94757 3.19614 9.28166C3.35771 7.7833 4.01276 6.32816 5.16104 5.17964ZM14.7605 14.1094C14.4595 13.9927 14.2193 13.841 14.0412 13.6551C13.8106 13.4149 13.6856 13.1236 13.667 12.7834L13.6653 12.735C12.9441 13.0929 12.1674 13.4264 11.3489 13.7243C10.7794 13.9312 10.2143 14.1124 9.65921 14.2674C9.8385 14.4887 10.0263 14.6813 10.1987 14.8095C10.3058 14.8887 10.3816 14.995 10.422 15.114C10.4621 15.2317 10.4664 15.3613 10.4307 15.4887C10.3943 15.6176 10.3216 15.7268 10.2245 15.8066C10.1267 15.8872 10.006 15.9377 9.87465 15.9486C9.31244 15.9961 8.67038 15.6422 8.09541 15.1164C7.95911 14.9917 7.82588 14.8568 7.69761 14.7148C7.59509 14.733 7.49328 14.75 7.39194 14.7658C6.94004 14.8374 6.50161 14.8889 6.0809 14.9206C7.22351 15.8366 8.61227 16.2947 10.0006 16.2947C11.6064 16.2947 13.213 15.6817 14.438 14.4566C14.5505 14.3442 14.6582 14.2282 14.7605 14.1094ZM15.741 5.68327C15.6097 5.67146 15.4767 5.66225 15.3427 5.6561L15.2716 5.65327C16.3098 6.90384 16.8345 8.43811 16.8444 9.97474C18.0572 8.8789 18.6565 7.79463 18.3591 6.97636C18.2906 6.78856 18.1746 6.61895 18.0182 6.47037C17.9036 6.36218 17.7662 6.26367 17.6077 6.17556C17.5762 6.21855 17.5413 6.25942 17.5037 6.29698C17.293 6.4921 17.062 6.60052 16.7705 6.60052C16.4844 6.60052 16.225 6.4843 16.0377 6.29698C15.8768 6.13611 15.7682 5.92209 15.741 5.68327ZM4.25985 14.3546C4.41127 14.3683 4.56789 14.3779 4.72852 14.3839C3.69055 13.133 3.16637 11.599 3.15669 10.0626C2.59448 10.5707 2.16384 11.0798 1.89218 11.5648C1.58297 12.1163 1.4847 12.6294 1.64202 13.0619C1.71053 13.2497 1.82604 13.4191 1.98266 13.5675C2.09699 13.6759 2.23471 13.7746 2.39321 13.8627C2.42487 13.8195 2.45983 13.7789 2.49739 13.7413C2.68471 13.554 2.94409 13.4378 3.23039 13.4378C3.51646 13.4378 3.77583 13.554 3.96316 13.7413C4.12402 13.9022 4.23221 14.116 4.25985 14.3546ZM5.49247 14.385C6.05326 14.3668 6.65421 14.3085 7.28422 14.2095C6.99886 13.824 6.76264 13.4196 6.61264 13.0501C6.5824 12.975 6.54106 12.911 6.49075 12.8593C6.43996 12.8071 6.37736 12.7648 6.30389 12.7331C6.02917 12.6143 5.74239 12.4173 5.58483 12.1565C5.4327 11.9224 5.35876 11.6467 5.36254 11.3307C5.36396 11.2014 5.3264 11.0814 5.25837 10.9841C5.18963 10.8873 5.08994 10.811 4.96876 10.7689C4.89057 10.7422 4.82017 10.7125 4.75828 10.6813C4.50104 10.5502 4.33143 10.3685 4.24993 10.1358C4.17245 9.91403 4.18308 9.65938 4.28229 9.37355C4.3156 9.27741 4.3567 9.18103 4.40537 9.08536C4.71482 8.60961 5.3212 7.92219 5.4764 7.37581C5.48065 7.36069 5.43577 7.40534 5.36183 7.43888C4.99427 7.65644 4.61513 7.6966 4.22513 7.56006C3.89158 8.34385 3.72504 9.18174 3.72504 10.0192C3.72504 11.5938 4.31442 13.1692 5.49247 14.385ZM9.30629 13.776C9.91126 13.6133 10.5302 13.4186 11.1557 13.1912C12.6323 12.6535 13.9656 11.9989 15.0775 11.2962C15.0992 11.2385 15.1174 11.1776 15.1318 11.1148C15.1507 11.0323 15.1715 10.9241 15.1743 10.8405C15.1861 10.6692 15.215 10.5192 15.2601 10.3917C15.3312 10.1904 15.4434 10.0392 15.5955 9.93907C15.7495 9.8382 15.9324 9.79497 16.1435 9.80938C16.1854 9.81246 16.2286 9.81742 16.273 9.82521C16.2255 8.28433 15.6137 6.75738 14.438 5.58169C13.213 4.35664 11.6064 3.74364 10.0006 3.74364C9.53023 3.74364 9.06038 3.79632 8.59951 3.9012C8.77574 4.20333 9.05141 4.41806 9.36346 4.52388C9.67882 4.63066 10.032 4.62688 10.3582 4.49058C10.5389 4.35451 10.7517 4.27609 10.9672 4.25931C11.1956 4.24136 11.4311 4.29168 11.6409 4.41239C11.8509 4.5331 12.0122 4.71263 12.1112 4.92003C12.21 5.14681 12.2485 5.35775 12.209 5.60461C12.1818 5.77705 12.1157 5.93154 12.0217 6.06477C12.0744 6.08438 12.1266 6.10753 12.1783 6.13469C12.4514 6.27784 12.7027 6.5247 12.9342 6.91588C13.5321 7.03943 13.9193 7.18825 14.1612 7.38172C14.4694 7.62857 14.5698 7.95716 14.5008 8.34102C14.3683 8.98331 13.9979 9.36269 13.3913 9.47796C12.9108 9.56915 12.2806 9.47607 11.501 9.19993C11.335 9.69718 11.0846 10.0458 10.7508 10.2459C10.3688 10.4748 9.89992 10.5008 9.34456 10.3248C9.21393 10.3825 9.07101 10.4219 8.91747 10.4429C8.84353 10.4533 8.76676 10.4592 8.68715 10.4607C8.70652 10.69 8.66424 10.9029 8.56054 11.0994C8.47928 11.2537 8.36069 11.393 8.20526 11.5178C8.4214 11.6309 8.58865 11.7469 8.70747 11.8655C8.9796 12.1378 9.03464 12.4225 8.87377 12.7201L8.86219 12.7397C8.81495 12.8451 8.95952 13.1834 9.18039 13.5682C9.21984 13.6371 9.26212 13.7068 9.30629 13.776Z" fill="#101828" fill-opacity="0.2"/>
</svg>
