<svg width="20" height="21" viewBox="0 0 20 21" fill="none" xmlns="http://www.w3.org/2000/svg">
<path fill-rule="evenodd" clip-rule="evenodd" d="M9.74288 2.60571H9.7576H9.75768H9.75777H9.75823H9.75846H9.75976H9.76105H9.7743C12.6582 2.61509 14.9945 4.92781 14.9945 7.77323C14.9945 8.64046 14.7773 9.45856 14.3936 10.1768L11.8947 14.9936C11.853 15.0741 11.7703 15.1245 11.6798 15.1245H10.8003H10.8002H9.75768H9.7576H8.71506H8.71493H7.83552C7.745 15.1245 7.66223 15.0741 7.62055 14.9936L5.12155 10.1768C4.73805 9.45856 4.521 8.64046 4.521 7.77323C4.521 4.92781 6.85712 2.61509 9.7408 2.60571L9.73886 2.60581L9.73966 2.60581L9.74169 2.60571H9.74288ZM10.0001 14.6397H10.6166L11.9235 9.99642C12.1161 9.33217 12.2247 8.57549 12.2247 7.77323C12.2247 6.20264 11.8113 4.80757 11.1636 3.94454C10.8285 3.49808 10.4335 3.19649 10.0001 3.11363V14.6397ZM7.96374 3.65331C8.04878 3.53999 8.13742 3.43495 8.22925 3.33864C6.35608 3.96585 5.00573 5.71474 5.00573 7.77323C5.00573 8.55868 5.20255 9.29953 5.55002 9.94987L7.9829 14.6397H8.39485L7.1256 10.1302C6.92164 9.42591 6.8056 8.62365 6.8056 7.77323C6.8056 6.08175 7.26621 4.58325 7.96374 3.65331Z" fill="#101828" fill-opacity="0.2"/>
<path fill-rule="evenodd" clip-rule="evenodd" d="M11.6299 15.8586C11.764 15.8586 11.8724 15.9672 11.8724 16.1011V17.0613C11.8725 17.0644 11.8726 17.0675 11.8726 17.0705C11.8726 17.0736 11.8725 17.0767 11.8724 17.0798V17.5886C11.8724 17.8585 11.7652 18.1171 11.5744 18.3081C11.3837 18.4988 11.1247 18.6061 10.8547 18.6061H8.6603C8.39033 18.6061 8.13164 18.4988 7.94087 18.3081C7.74981 18.1171 7.64258 17.8585 7.64258 17.5886V16.1011C7.64258 15.9672 7.75126 15.8586 7.88509 15.8586H11.6299ZM11.3877 16.8281V16.3435H8.12759V16.8281H11.3877ZM8.12759 17.313H11.3877V17.5886C11.3877 17.7298 11.3313 17.8653 11.2316 17.9651C11.1316 18.065 10.9961 18.1213 10.8547 18.1213H8.6603C8.51896 18.1213 8.3834 18.065 8.28368 17.9651C8.18367 17.8653 8.12759 17.7298 8.12759 17.5886V17.313Z" fill="#101828" fill-opacity="0.2"/>
<path fill-rule="evenodd" clip-rule="evenodd" d="M15.1817 4.39656C15.1805 4.39656 15.1794 4.39656 15.1782 4.39656C14.9431 4.39656 14.7524 4.20578 14.7524 3.97077C14.7524 3.73578 14.9431 3.54499 15.1782 3.54499C15.182 3.54499 15.1857 3.54505 15.1895 3.54515C15.1843 3.51364 15.1817 3.48136 15.1817 3.44848C15.1817 3.11729 15.4506 2.84839 15.7817 2.84839C16.0429 2.84839 16.2654 3.01569 16.3477 3.24893C16.4258 3.16219 16.5388 3.10761 16.6646 3.10761C16.8994 3.10761 17.0903 3.2984 17.0903 3.53339C17.0903 3.53728 17.0903 3.54113 17.0901 3.54499C17.325 3.5452 17.5155 3.7359 17.5155 3.97077C17.5155 4.20578 17.3248 4.39656 17.0898 4.39656H15.1817Z" fill="#101828" fill-opacity="0.2"/>
<path fill-rule="evenodd" clip-rule="evenodd" d="M5.15307 14.882C5.15462 14.882 5.15616 14.882 5.15771 14.882C5.47529 14.882 5.73291 14.6243 5.73291 14.3068C5.73291 13.9893 5.47529 13.7316 5.15771 13.7316C5.15256 13.7316 5.14767 13.7317 5.14252 13.7318C5.14947 13.6892 5.15307 13.6456 5.15307 13.6012C5.15307 13.1538 4.78968 12.7905 4.34238 12.7905C3.98954 12.7905 3.68894 13.0165 3.57776 13.3316C3.47224 13.2145 3.31962 13.1407 3.14976 13.1407C2.83244 13.1407 2.57456 13.3985 2.57456 13.7159C2.57456 13.7212 2.57456 13.7264 2.57481 13.7316C2.25749 13.7319 2.00012 13.9895 2.00012 14.3068C2.00012 14.6243 2.25774 14.882 2.57533 14.882H5.15307Z" fill="#101828" fill-opacity="0.2"/>
</svg>
