<svg width="20" height="21" viewBox="0 0 20 21" fill="none" xmlns="http://www.w3.org/2000/svg">
<path d="M9.5 3.17505C7.5107 3.17505 5.603 3.96547 4.19675 5.3718C2.7905 6.77812 2 8.6859 2 10.675C2 12.6642 2.79043 14.5721 4.19675 15.9783C5.60308 17.3846 7.51085 18.175 9.5 18.175C11.4892 18.175 13.397 17.3846 14.8033 15.9783C16.2095 14.572 17 12.6642 17 10.675C16.9977 8.68635 16.2066 6.7803 14.801 5.37405C13.3947 3.96838 11.4887 3.1773 9.5 3.17505ZM10.6537 14.1367V14.7139V14.7133C10.6537 15.0321 10.3953 15.2905 10.0771 15.2905C9.75839 15.2905 9.49999 15.0321 9.49999 14.7133V14.1367H8.92283V14.7139V14.7133C8.92283 15.0321 8.66501 15.2905 8.34626 15.2905C8.02751 15.2905 7.76911 15.0321 7.76911 14.7133V14.1367H7.19254C6.87379 14.1367 6.61538 13.8783 6.61538 13.5596C6.61538 13.2408 6.87379 12.9824 7.19254 12.9824V8.36754C6.87379 8.36754 6.61538 8.10913 6.61538 7.79038C6.61538 7.47163 6.87379 7.21323 7.19254 7.21323H7.76969L7.7691 6.63666C7.7691 6.31791 8.02751 6.0595 8.34626 6.0595C8.66501 6.0595 8.92283 6.31791 8.92283 6.63666V7.21323H9.49998V6.63666C9.49998 6.31791 9.75839 6.0595 10.0771 6.0595C10.3953 6.0595 10.6537 6.31791 10.6537 6.63666V7.24311C11.3662 7.34213 11.9715 7.81381 12.2404 8.48061C12.5099 9.1474 12.4027 9.90736 11.9586 10.4734C12.4953 10.8495 12.8152 11.4624 12.8176 12.1175C12.807 12.6747 12.5715 13.205 12.1637 13.5853C11.7558 13.9662 11.2109 14.1649 10.6537 14.1367Z" fill="#101828" fill-opacity="0.2"/>
<path d="M10.7978 11.2524H8.34619V12.9833H10.7984L10.7978 12.9827C11.2759 12.9827 11.6632 12.5954 11.6632 12.1179C11.6632 11.6397 11.2759 11.2524 10.7978 11.2524Z" fill="#101828" fill-opacity="0.2"/>
<path d="M11.2308 9.23252C11.2308 8.75498 10.8435 8.36768 10.3653 8.36768H8.34619V10.0985H10.3653V10.0979C10.8435 10.0979 11.2308 9.71064 11.2308 9.23252Z" fill="#101828" fill-opacity="0.2"/>
</svg>
