<svg width="120" height="40" viewBox="0 0 120 40" fill="none" xmlns="http://www.w3.org/2000/svg">
<path d="M87.3299 -2.28882e-05H112.686C116.725 -2.28882e-05 120 3.27457 120 7.3143V32.67C120 36.7092 116.725 39.9838 112.686 39.9838H87.3299C83.2902 39.9838 80.0156 36.7092 80.0156 32.67V7.3143C80.0156 3.27457 83.2902 -2.28882e-05 87.3299 -2.28882e-05Z" fill="#0072FF"/>
<path d="M84.2332 18.1433C84.2332 11.1509 89.9018 5.48278 96.8937 5.48278H116.119C116.119 12.4752 110.451 18.1433 103.459 18.1433H84.2332Z" fill="white"/>
<path d="M89.0415 26.5837C89.0415 23.217 91.771 20.4881 95.1371 20.4881H104.515C104.515 23.8543 101.787 26.5837 98.4199 26.5837H89.0415Z" fill="white"/>
<path d="M88.873 34.8558C88.873 31.4891 91.6025 28.7602 94.9687 28.7602H99.1889C99.1889 32.1264 96.4599 34.8558 93.0932 34.8558H88.873Z" fill="white"/>
<path d="M7.10841 9.10243C7.39723 8.94204 7.70177 8.86184 8.02256 8.86184C8.3439 8.86184 8.64844 8.94204 8.93726 9.10243C9.2418 9.26283 9.46668 9.50343 9.62707 9.80851C9.80319 10.0968 9.89964 10.4019 9.89964 10.7389C9.89964 11.0597 9.81944 11.3643 9.65905 11.6531C9.48239 11.9582 9.2418 12.1987 8.95297 12.3591C8.64844 12.5353 8.3439 12.6155 8.02256 12.6155C7.70177 12.6155 7.38097 12.5353 7.07644 12.3591C6.78761 12.1987 6.56273 11.9582 6.40234 11.6531C6.22622 11.3643 6.14603 11.0597 6.14603 10.7389C6.14603 10.4019 6.22622 10.0968 6.40234 9.80851C6.56273 9.50343 6.80387 9.26283 7.10841 9.10243ZM17.8545 24.2226C17.8545 28.0087 15.9134 29.9015 12.0314 29.9015H5.72715C1.90905 29.9015 0 28.7944 0 25.0088V18.7685C0 17.4366 0.625874 15.9935 1.87708 15.9935C3.11203 16.0093 3.7379 16.6508 3.75362 17.9346V24.2708C3.75362 25.5063 4.42772 26.1159 5.75912 26.1159H12.1279C13.411 26.1159 14.0526 25.4743 14.0526 24.1749L14.0846 10.2344C14.0846 8.99893 14.7105 8.38932 15.9779 8.38932C17.2291 8.38932 17.8545 9.01519 17.8545 10.2827V24.2226Z" fill="#606060"/>
<path d="M27.5279 22.731C28.1538 22.731 28.4583 23.3725 28.4421 24.64C28.4421 25.8912 28.1213 26.5171 27.4797 26.5171H25.1859C21.3678 26.5171 19.4587 24.6238 19.4587 20.8382V7.2185C19.4587 5.8871 20.0846 5.213 21.3358 5.213C22.5708 5.22926 23.1966 5.8871 23.2124 7.17028V20.8864C23.2124 22.1213 23.8865 22.731 25.2179 22.731H27.5279Z" fill="#606060"/>
<path d="M48.2861 22.747C48.9119 22.747 49.2327 23.3728 49.2327 24.624C49.2485 25.891 48.9439 26.5331 48.318 26.5331H41.5965C40.2814 26.5331 39.6555 26.0839 39.7195 25.1854L39.752 15.8006C39.752 14.5494 39.1261 13.924 37.8749 13.924H35.3243C34.0568 13.924 33.4152 14.5336 33.4152 15.7529V20.774C33.4152 22.0734 34.0568 22.7307 35.3243 22.7307L36.8805 22.747C38.1475 22.747 38.789 23.3728 38.789 24.6078C38.789 25.891 38.1637 26.5331 36.9125 26.5331H25.5547C24.9293 26.5331 24.6243 25.891 24.6405 24.624C24.6405 23.3728 24.9456 22.747 25.5709 22.747H29.8382C29.6936 22.1373 29.6134 21.4638 29.6134 20.7095V15.8006C29.6134 12.015 31.5224 10.1222 35.3243 10.1222H37.8429C41.6285 10.1222 43.5218 12.015 43.5218 15.8168V22.747H48.2861Z" fill="#606060"/>
<path d="M60.2052 22.747C60.8148 22.747 61.1194 23.3728 61.1194 24.6398C61.1036 25.891 60.7829 26.5168 60.157 26.5168H55.2963C54.0451 26.4849 53.4192 25.859 53.4355 24.6398C53.3553 25.891 52.7137 26.5168 51.4945 26.5168H46.3612C45.7353 26.5168 45.4308 25.891 45.4308 24.6398C45.4145 23.3728 45.7196 22.747 46.3449 22.747H51.4945V12.015C51.4945 10.7638 52.1041 10.1379 53.339 10.1379C54.6227 10.1379 55.2806 10.7795 55.2963 12.0632L55.2643 22.747H60.2052Z" fill="#606060"/>
<path d="M64.5684 10.106C65.8039 10.106 66.4293 10.7318 66.4293 11.9987V24.6078C66.4293 25.8753 65.8039 26.5168 64.5684 26.5168H58.5525C57.9271 26.5168 57.6063 25.8753 57.5901 24.6078C57.5901 23.3566 57.8952 22.7307 58.5048 22.7307H62.6757V11.9505C62.6757 10.7156 63.301 10.106 64.5684 10.106Z" fill="#606060"/>
<path d="M57.5622 35.8328C57.5622 34.7583 58.4926 33.8598 59.5352 33.8598C60.594 33.8598 61.5087 34.7583 61.5087 35.8328C61.5564 36.8434 60.5621 37.8703 59.5352 37.8058C58.5246 37.8703 57.514 36.8434 57.5622 35.8328Z" fill="#606060"/>
<path d="M49.903 33.1406H45.8763C44.5769 33.1087 43.9353 32.4508 43.9353 31.1676C43.9673 29.8362 44.6094 29.1784 45.8763 29.1941H49.903C51.2345 29.1784 51.8923 29.8362 51.876 31.1676C51.8923 32.4828 51.2345 33.1406 49.903 33.1406Z" fill="#606060"/>
<path d="M61.5322 33.1406H57.5055C56.206 33.1087 55.5645 32.4508 55.5645 31.1676C55.597 29.8362 56.2386 29.1784 57.5055 29.1941H61.5322C62.8636 29.1784 63.5214 29.8362 63.5052 31.1676C63.5214 32.4828 62.8636 33.1406 61.5322 33.1406Z" fill="#606060"/>
</svg>
