<svg width="350" height="350" viewBox="0 0 350 350" fill="none" xmlns="http://www.w3.org/2000/svg">
<mask id="mask0_2315_2805" style="mask-type:alpha" maskUnits="userSpaceOnUse" x="0" y="0" width="350" height="350">
<rect width="350" height="350" fill="#D9D9D9"/>
</mask>
<g mask="url(#mask0_2315_2805)">
<path d="M250.602 75.1801C343.175 142.104 359.416 183.995 315.524 261.938C260.78 348.76 152.714 277.195 58.2214 231.042C-36.2709 184.889 23.3958 48.7313 93.7072 71.6898C164.019 94.6482 134.885 -8.47418 250.602 75.1801Z" fill="#EFF2FF"/>
<path d="M268.457 264.414C288.469 239.79 298.166 207.4 304.399 176.777C311.224 143.433 313.416 109.306 310.913 75.3618C310.765 73.3577 310.588 71.3388 310.411 69.3199C310.633 68.4505 309.365 68.7747 308.776 68.7747C292.171 69.1684 275.652 66.275 260.169 60.2609C244.686 54.2469 230.545 45.2309 218.56 33.7316L216.791 31.9927C216.217 31.4328 196.323 31.3738 193.818 31.4328C193.022 31.4328 191.047 31.3001 190.502 32.0075C173.393 53.6404 150.581 64.7811 126.31 68.0526C126.244 68.0526 126.18 68.079 126.133 68.126C126.086 68.1729 126.06 68.2367 126.06 68.3031C126.06 68.3695 126.086 68.4333 126.133 68.4802C126.18 68.5272 126.244 68.5536 126.31 68.5536C140.531 67.3895 155.916 61.3033 167.823 53.5815C176.799 47.8393 184.707 40.579 191.194 32.1254C193.343 34.382 195.61 36.5219 197.988 38.5357C212.459 51.5331 242.698 74.065 279.126 70.9556C279.126 79.9153 279.583 88.875 279.76 97.82C280.585 140.379 278.566 183.659 261.796 223.403C255.91 237.654 247.966 250.965 238.218 262.911C227.549 275.747 213.638 288.597 196.308 290.336C180.953 283.454 171.256 275.924 159.835 264.002C159.644 263.796 159.275 264.09 159.452 264.311C167.985 275.128 183.399 286.21 196.632 291.411H168.633C167.985 286.195 159.261 282.098 154.781 281.214C154.648 279.902 154.398 277.78 154.265 276.587C156.829 276.587 158.774 276.454 159.305 276.395C157.536 239.939 153.688 203.614 147.781 167.597C144.377 168.451 136.449 169.748 133.796 166.712C133.329 166.168 132.99 165.524 132.806 164.83C132.623 164.136 132.598 163.409 132.735 162.704C124.733 162.822 115.936 161.746 110.056 157.296C108.551 156.38 107.288 155.117 106.372 153.612C106.094 154.205 105.748 154.764 105.34 155.277C104.869 156.648 106.313 170.986 106.814 174.316C107.153 176.63 108.759 175.628 111.692 176.129C112.119 176.203 112.208 176.984 111.692 176.984C110.55 176.998 109.408 176.939 108.273 176.807C105.856 176.556 105.753 174.803 105.458 172.784C104.594 167.283 104.273 161.71 104.5 156.146C100.271 160.391 91.0167 163.117 79.9645 163.765C79.7876 165.43 79.9645 166.83 78.8445 168.186C76.2214 171.428 69.4132 171.001 65.4344 170.706C61.8387 204.261 60.8809 275.658 61.0135 276.719C62.1924 276.867 64.6976 277.014 67.6449 277.147C67.5777 278.984 67.6763 280.824 67.9396 282.643C62.7524 284.235 56.4158 286.666 53.5274 291.633C46.4344 291.633 39.3462 291.711 32.2629 291.868C31.8208 291.868 31.7766 292.561 32.2629 292.561C48.9739 292.797 288.764 292.016 288.764 292.016C289.383 292.016 289.471 291.131 288.764 291.131H235.713C247.811 285.605 260.057 274.745 268.457 264.414ZM78.4614 283.483C75.1668 283.489 71.878 283.208 68.6322 282.643C68.6322 280.86 68.5585 279.092 68.5143 277.309C71.9331 277.456 75.8825 277.574 78.8298 277.662C78.6677 279.578 78.5792 281.568 78.4614 283.483ZM143.124 283.292C142.058 285.949 141.556 288.8 141.651 291.662H80.5539C80.4346 288.948 79.8978 286.269 78.9624 283.719L79.6697 277.692C81.7623 277.78 83.3538 277.78 83.958 277.78C86.2421 269.646 104.589 195.714 107.182 185.649C102.762 184.013 104.559 182.908 105.016 183.379C106.313 184.735 109.555 184.853 111.22 184.691C123.363 232.938 136.272 275.806 136.567 276.587C137.539 276.705 139.514 276.764 142.019 276.764C142.447 278.945 142.756 281.111 143.124 283.292ZM143.714 283.115C143.552 280.978 143.08 278.9 142.844 276.764C146.219 276.764 150.213 276.764 153.44 276.646C153.617 278.119 153.779 279.593 153.956 281.067C150.728 282.476 147.235 283.174 143.714 283.115ZM278.846 70.2188C252.704 72.3556 227.858 61.2886 207.611 45.5207C202.654 41.6436 197.898 37.517 193.361 33.1569L192.329 32.199C200.346 32.199 208.539 32.6264 216.438 32.538C229.981 46.8617 248.666 57.7813 267.411 63.6906C277.509 66.8936 287.981 68.771 298.563 69.2757C292.109 69.5999 285.198 69.6883 278.846 70.2188ZM236.096 290.247L200.729 290.557C213.992 287.801 225.25 278.547 234.298 268.703C255.415 245.744 267.897 216.064 274.322 185.826C281.779 150.782 281.366 113.47 280.04 77.8081C279.966 75.5387 279.863 73.3871 279.73 71.0293C288.941 70.823 300.288 70.1009 309.704 69.5557C311.119 86.3708 311.429 103.26 310.633 120.116C309.159 151.991 303.058 187.8 292.463 217.936C282.118 247.394 264.758 275.511 236.096 290.247Z" fill="url(#paint0_linear_2315_2805)"/>
<path d="M147.251 138.242C138.615 139.259 126.752 137.888 118.913 134.292C114.127 131.925 109.526 129.201 105.149 126.143C105.9 132.185 104.825 149.265 107.654 153.258C117.97 165.755 149.078 160.037 149.771 159.447C150.463 158.858 148.783 149.412 147.251 138.242Z" fill="url(#paint1_linear_2315_2805)"/>
<path d="M147.59 166.344C147.339 164.753 147.059 163.146 146.794 161.525C142.44 162.186 138.05 162.59 133.649 162.734C133.596 163.404 133.703 164.078 133.959 164.7C134.215 165.322 134.613 165.875 135.123 166.315C137.525 168.348 144.834 167.022 147.59 166.344ZM65.5522 169.542C68.7942 169.807 75.4403 170.22 77.7834 167.552C78.5035 166.458 78.8923 165.179 78.9034 163.868C74.7105 164.043 70.5106 163.93 66.3333 163.529C66.0533 165.327 65.8175 167.361 65.5522 169.542ZM196.057 266.08C179.173 257.951 165.438 244.485 156.977 227.765C156.859 227.5 156.431 227.677 156.564 227.942C164.736 244.951 178.516 258.626 195.586 266.669C195.866 266.802 196.087 266.964 196.411 266.772C229.818 247.07 247.384 215.195 254.664 177.912C259.984 150.782 259.468 122.887 258.481 95.3886C258.304 90.5992 258.481 89.1993 257.788 89.1698C232.279 88.0351 210.145 76.8208 192.727 58.6361C192.491 58.3856 192.27 58.2972 191.916 58.6361C179.906 71.722 164.713 79.1638 147.472 82.2143C147.417 82.2277 147.369 82.259 147.335 82.303C147.3 82.3471 147.281 82.4015 147.281 82.4574C147.281 82.5134 147.3 82.5677 147.335 82.6118C147.369 82.6558 147.417 82.6871 147.472 82.7006C164.708 80.1814 180.571 71.8651 192.447 59.1224C208.112 77.4839 233.532 88.8604 257.582 89.9214C257.287 90.3487 258.024 108.725 258.068 110.832C258.82 143.797 257.434 177.632 244.805 208.549C234.976 232.776 218.648 252.714 196.057 266.08Z" fill="url(#paint2_linear_2315_2805)"/>
<path d="M61.3966 137.476C76.5603 137.697 89.3957 131.714 100.418 121.266C105.488 116.461 109.467 110.434 115.302 106.529C114.059 103.811 112.58 101.208 110.881 98.7484C112.288 98.3389 113.728 98.0529 115.184 97.8937C116.816 99.8546 118.116 102.07 119.03 104.451L119.797 104.142C119.092 102.104 118.007 100.219 116.599 98.5863C118.77 98.3343 120.97 98.5686 123.04 99.272C125.11 99.9755 126.997 101.131 128.565 102.654C130.82 102.657 133.072 102.78 135.314 103.022C134.619 99.8375 133.55 96.7461 132.131 93.8117C131.91 93.4138 132.529 93.0012 132.765 93.4138C134.467 96.479 135.816 99.7269 136.788 103.096C140.416 103.28 144.011 103.883 147.501 104.893C147.869 105.011 147.663 105.63 147.295 105.527C140.019 103.747 132.483 103.283 125.043 104.157C118.367 104.864 114.182 108.298 109.614 113.249C106.829 116.196 104.191 119.32 101.258 122.091C107.875 125.686 112.502 130.107 120.416 133.511C127.681 136.621 141.857 138.551 149.8 136.459C160.115 133.644 166.953 124.846 165.199 113.116C162.886 97.4369 144.126 77.528 125.043 72.3703C126.499 75.418 127.549 78.6432 128.167 81.9637C128.3 82.5679 127.401 82.8331 126.988 83.0247C125.947 83.4948 124.879 83.9032 123.79 84.2478C124.952 85.6632 125.941 87.2115 126.738 88.8603C127.003 89.3613 127.592 90.1571 127.003 90.5992C125.621 93.1432 123.901 95.488 121.889 97.5695C121.82 97.6296 121.731 97.6627 121.639 97.6627C121.547 97.6627 121.458 97.6296 121.388 97.5695C121.321 97.5006 121.283 97.408 121.283 97.3116C121.283 97.2152 121.321 97.1226 121.388 97.0537C123.155 94.8787 124.733 92.5566 126.104 90.1129C125.677 89.3761 122.066 84.012 122.906 83.6584C123.997 83.1573 126.251 82.1847 127.032 81.6984C126.387 78.4065 125.4 75.1912 124.085 72.1051L123.776 72.0166C124.306 71.4125 125.131 64.4716 121.344 62.7327C121.382 61.9102 121.227 61.0902 120.892 60.338C120.556 59.5859 120.05 58.9224 119.414 58.4003C121.197 55.733 123.584 50.4721 122.759 47.2891C122.618 46.81 122.311 46.3975 121.891 46.1269C121.472 45.8563 120.969 45.7458 120.475 45.8154C120.74 43.7965 124.571 44.4597 123.54 43.8997C122.602 43.3961 121.564 43.1083 120.501 43.0573C119.437 43.0063 118.376 43.1934 117.395 43.605C117.452 42.9598 117.367 42.31 117.145 41.7014C116.924 41.0928 116.571 40.5403 116.113 40.083C113.416 37.2241 108.995 38.4472 105.606 38.742C96.6017 39.5083 95.5112 35.1168 94.9513 36.1484C94.6329 37.065 94.5524 38.0474 94.7174 39.0037C94.8823 39.9599 95.2873 40.8586 95.8944 41.6156C93.5366 41.2177 92.2398 39.4051 92.0187 40.4661C91.7687 41.8006 91.987 43.1805 92.6368 44.3726C93.2865 45.5647 94.3279 46.496 95.5849 47.0091C95.246 48.5711 94.8923 50.1184 94.5534 51.6805C93.4187 51.6805 92.3724 52.0784 92.3282 53.4194C92.284 54.7604 92.4019 58.0761 94.0523 58.5329C94.0523 59.1076 94.0523 59.6676 94.1408 60.2423C93.0427 64.1901 92.4388 68.259 92.3429 72.3556C90.1325 73.004 87.5536 73.564 85.4168 74.2713C84.6611 75.5533 84.0201 76.8996 83.5011 78.2943C82.9117 79.768 82.3812 81.3448 81.8949 82.8921C83.5612 84.3449 85.3679 85.6284 87.2884 86.7235C88.5115 87.2835 87.2884 88.3593 86.7578 88.934C85.9473 89.8476 85.0632 90.7318 84.2085 91.6307C84.7537 92.3381 87.9515 96.2285 89.7051 98.1L96.1449 97.0684C94.3427 89.2015 91.9334 81.486 88.9388 73.9913L92.3429 73.0924C92.5492 76.526 94.465 77.6312 97.6627 78.2206C101.586 78.7733 105.576 78.6336 109.452 77.808C113.121 77.1596 114.904 75.2734 114.698 71.4861C116.393 71.8103 118.367 71.8251 120.195 72.1198C119.025 80.6278 117.322 89.0539 115.096 97.3484C113.579 97.4049 112.083 97.724 110.675 98.2916C110.174 97.5842 109.747 97.0979 109.526 97.0684C102.865 95.8895 72.8467 101.755 63.165 105.91C63.0729 105.945 62.9711 105.943 62.8806 105.904C62.79 105.866 62.7178 105.794 62.6787 105.704C62.6596 105.659 62.6498 105.61 62.6498 105.561C62.6499 105.511 62.6599 105.463 62.6791 105.417C62.6983 105.372 62.7265 105.331 62.7618 105.297C62.7972 105.262 62.8391 105.235 62.885 105.218C71.1342 102.036 79.7008 99.7491 88.4378 98.3947C86.8905 96.9211 82.4696 92.3086 83.5453 91.2034L86.4926 87.7845C84.4885 86.6437 82.7105 85.1453 81.2465 83.3636C80.657 82.671 83.2801 76.187 83.9137 74.846C70.4152 79.9006 45.1866 95.919 44.4351 117.744C43.9193 132.568 55.2073 137.107 61.3966 137.476ZM116.805 57.4129C118.19 57.3098 119.502 58.3708 118.721 58.5771C118.426 58.6508 118.367 58.3118 117.719 58.1497C116.805 57.8845 116.127 57.4129 116.805 57.4129ZM96.3365 47.3038C98.608 47.9754 101.005 48.1066 103.336 47.6869C114.713 46.2133 112.576 45.2407 111.942 52.491C110.469 51.4447 106.342 51.2089 95.4228 51.6068C95.6586 50.1479 95.9828 48.7627 96.3365 47.3038ZM104.294 56.6761C104.574 57.5308 103.955 57.6782 103.484 57.0445C102.795 55.9964 102.503 54.7373 102.658 53.4931C102.654 53.401 102.669 53.3091 102.703 53.2235C102.737 53.1378 102.789 53.0604 102.855 52.9963C102.921 52.9322 103 52.883 103.087 52.8519C103.174 52.8208 103.266 52.8085 103.358 52.8159C103.45 52.8233 103.539 52.8501 103.62 52.8947C103.7 52.9393 103.771 53.0005 103.826 53.0744C103.881 53.1482 103.92 53.2329 103.939 53.3229C103.959 53.4129 103.959 53.5061 103.94 53.5962C103.835 54.6363 103.956 55.687 104.294 56.6761ZM93.9787 56.6761C93.4789 55.6578 93.3138 54.5076 93.5071 53.3899C93.6987 52.6973 94.7302 52.5647 94.7302 53.3899C94.6355 54.3755 94.6952 55.3699 94.9071 56.3372C95.2902 58.0171 94.3913 57.7961 93.9345 56.6761H93.9787ZM104.751 63.7643C104.604 64.2064 103.852 64.1032 103.926 63.7643C103.999 63.4254 100.345 63.7643 99.5048 63.7643C99.269 63.7643 98.709 63.4401 99.4016 63.2338C100.989 62.6967 102.666 62.4764 104.338 62.5854C104.519 62.7158 104.652 62.9011 104.718 63.1136C104.785 63.3261 104.781 63.5543 104.707 63.7643H104.751ZM114.565 60.817C114.004 62.9348 113.84 65.138 114.079 67.3158C113.517 65.021 113.069 62.6996 112.738 60.3602C112.605 59.1813 112.561 58.0024 112.458 56.8382C112.355 55.674 111.648 57.4129 111.309 58.4739C111.024 59.5006 110.502 60.4461 109.786 61.2344C109.069 62.0227 108.177 62.6318 107.182 63.0127C105.222 60.0655 103.911 60.0655 100.551 60.0655C98.5764 60.0655 96.1302 60.2276 95.2165 62.2464L94.9513 58.695C99.2395 58.8129 98.6501 59.1666 99.8732 55.173C100.463 53.2573 100.875 52.8889 101.45 55.0993C101.863 56.7056 102.039 58.6066 104.397 58.8129C109.29 59.2697 108.582 57.6487 109.599 54.8783C109.982 53.8173 110.749 52.9183 111.883 53.4046C111.883 54.5688 112.885 55.9688 114.167 55.1435C114.359 55.0256 115.641 53.8467 116.231 55.3646C116.465 55.9232 116.526 56.539 116.407 57.1329C116.065 57.0887 115.718 57.0887 115.376 57.1329C115.081 55.8214 113.902 57.1329 114.241 58.1055C114.58 59.0781 115.243 58.3708 115.376 57.7224C115.665 57.7078 115.956 57.7078 116.245 57.7224C115.921 58.9602 114.963 59.7707 114.521 60.8612L114.565 60.817ZM115.184 70.7935C114.86 68.5938 114.727 66.3701 114.786 64.1474C116.35 62.5257 117.793 60.7921 119.104 58.9602C119.6 59.4011 119.998 59.941 120.272 60.5451C120.546 61.1492 120.69 61.8041 120.696 62.4675C118.515 62.0107 116.511 63.9411 117.616 65.4148C118.721 66.8884 120.828 66.019 121.344 63.6169C124.763 65.7242 123.142 71.6482 123.201 71.8988C120.553 71.2916 117.854 70.9363 115.14 70.8377L115.184 70.7935ZM120.578 63.3075C120.401 64.2211 119.738 65.6358 118.588 65.2232C117.439 64.8106 118.765 62.7475 120.578 63.3075Z" fill="url(#paint3_linear_2315_2805)"/>
<path d="M100.993 58.7245H100.478L100.699 55.3646C100.686 55.3174 100.658 55.2757 100.62 55.246C100.581 55.2163 100.534 55.2001 100.485 55.2001C100.436 55.2001 100.389 55.2163 100.35 55.246C100.311 55.2757 100.284 55.3174 100.271 55.3646C100.139 55.9393 99.3575 59.1518 100.139 59.4318L101.612 59.5644C101.863 59.3876 102.334 58.8866 100.993 58.7245ZM105.827 152.3C104.353 148.38 103.498 128.855 104.265 125.524C102.983 124.67 101.789 123.785 100.61 122.857C90.4273 132.362 76.8109 138.861 62.6935 138.684C62.2514 146.583 62.0598 160.184 62.1483 161.113C62.2367 162.041 96.7639 165.224 105.827 152.3Z" fill="url(#paint4_linear_2315_2805)"/>
</g>
<defs>
<linearGradient id="paint0_linear_2315_2805" x1="185.025" y1="185.915" x2="-34.8075" y2="309.676" gradientUnits="userSpaceOnUse">
<stop stop-color="#0072FF"/>
<stop offset="1" stop-color="#12B772"/>
</linearGradient>
<linearGradient id="paint1_linear_2315_2805" x1="129.637" y1="146.917" x2="97.6701" y2="168.324" gradientUnits="userSpaceOnUse">
<stop stop-color="#0072FF"/>
<stop offset="1" stop-color="#12B772"/>
</linearGradient>
<linearGradient id="paint2_linear_2315_2805" x1="171.397" y1="181.715" x2="9.71251" y2="260.562" gradientUnits="userSpaceOnUse">
<stop stop-color="#0072FF"/>
<stop offset="1" stop-color="#12B772"/>
</linearGradient>
<linearGradient id="paint3_linear_2315_2805" x1="110.614" y1="96.0248" x2="20.72" y2="152.334" gradientUnits="userSpaceOnUse">
<stop stop-color="#0072FF"/>
<stop offset="1" stop-color="#12B772"/>
</linearGradient>
<linearGradient id="paint4_linear_2315_2805" x1="86.0232" y1="118.458" x2="42.8289" y2="127.727" gradientUnits="userSpaceOnUse">
<stop stop-color="#0072FF"/>
<stop offset="1" stop-color="#12B772"/>
</linearGradient>
</defs>
</svg>
