<svg width="350" height="350" viewBox="0 0 350 350" fill="none" xmlns="http://www.w3.org/2000/svg">
<mask id="mask0_2315_2839" style="mask-type:alpha" maskUnits="userSpaceOnUse" x="0" y="0" width="350" height="350">
<rect width="350" height="350" fill="#D9D9D9"/>
</mask>
<g mask="url(#mask0_2315_2839)">
<path d="M248.602 75.1801C341.175 142.104 357.416 183.995 313.524 261.938C258.78 348.76 150.714 277.195 56.2214 231.042C-38.2709 184.889 21.3958 48.7313 91.7072 71.6898C162.019 94.6482 132.885 -8.47418 248.602 75.1801Z" fill="#EFF2FF"/>
<path d="M228.456 125.926C230.618 126.389 236.299 119.828 231.707 119.261C228.904 118.978 224.206 125.136 228.456 125.926ZM77.3602 225.355C77.3602 225.936 75.7796 227.129 75.7796 227.129C76.1498 227.818 76.6224 228.446 77.1813 228.993C78.0312 229.798 78.0909 228.725 78.0909 228.725C78.0909 228.725 77.8821 227.487 77.6883 226.488C80.4469 225.295 82.9669 223.595 85.7553 222.477C85.7751 222.477 85.794 222.469 85.808 222.455C85.822 222.441 85.8298 222.422 85.8298 222.402C85.8298 222.383 85.822 222.364 85.808 222.35C85.794 222.336 85.7751 222.328 85.7553 222.328C84.2642 222.552 79.075 225.504 77.6585 226.115C77.4944 225.534 77.3901 225.146 77.3602 225.355ZM110.896 236.404C107.913 235.107 99.4886 231.528 98.4 231.811C97.565 232.02 76.0331 242.607 68.2644 246.484C68.2644 246.484 67.9661 246.693 68.1451 246.767L81.4012 251.778C82.0722 252.031 82.1915 252.15 82.7879 251.942C83.7721 251.614 108.018 237.925 110.911 236.673C110.931 236.656 110.948 236.635 110.959 236.611C110.97 236.587 110.975 236.561 110.973 236.534C110.972 236.508 110.964 236.482 110.95 236.46C110.937 236.437 110.918 236.418 110.896 236.404ZM82.3555 251.837C82.102 251.837 70.8142 247.453 68.4731 246.559C75.9288 242.905 95.7906 233.049 98.2957 232.214C99.6377 231.767 110.389 236.359 110.433 236.419C110.478 236.479 82.8327 251.778 82.3555 251.837Z" fill="url(#paint0_linear_2315_2839)"/>
<path d="M94.9707 235.122C94.8663 235.122 94.7917 235.256 94.8961 235.301L96.0294 235.793L92.2717 237.522L91.6902 237.299C91.6007 237.299 91.5261 237.418 91.6902 237.463L92.1226 237.627L87.2317 239.938L86.2327 239.595C86.2327 239.595 86.1283 239.685 86.2327 239.714L87.0677 240.042C85.507 240.798 83.9562 241.573 82.4154 242.369L81.6996 242.13C81.5803 242.13 81.5356 242.264 81.6996 242.309L82.1917 242.503C80.7006 243.278 79.2094 244.083 77.7183 244.904L76.4359 244.471C76.4359 244.471 76.3316 244.561 76.4359 244.59L77.599 244.993L76.4807 245.604C76.3763 245.604 76.4807 245.828 76.5701 245.768L77.8823 245.082C79.1796 245.53 80.4918 245.917 81.8189 246.275L80.6111 247.021V247.095L81.9829 246.335C82.7732 246.544 83.5635 246.753 84.3687 246.917V246.842L82.132 246.246C83.6232 245.425 85.2038 244.65 86.7545 243.89C87.5464 244.073 88.3479 244.213 89.1553 244.307V244.203L87.0975 243.726L91.6454 241.504L92.8533 241.757C92.9427 241.757 92.9875 241.653 92.8533 241.623L91.884 241.355C93.3751 240.594 94.8663 239.774 96.4469 238.969L96.8197 239.043C96.8197 239.043 96.9091 238.969 96.8197 238.939H96.5662C97.6547 238.357 98.7432 237.776 99.8466 237.209C100.369 237.358 100.89 237.478 101.412 237.582V237.463L100.175 237.015C101.04 236.568 101.919 236.136 102.799 235.733C102.948 235.659 102.799 235.45 102.665 235.509C101.681 235.927 100.726 236.389 99.7721 236.866L96.7153 235.808L99.1011 234.674C99.2204 234.674 99.1011 234.451 99.0116 234.51L96.4618 235.629L94.9707 235.122ZM81.7593 246.171C80.4471 245.813 79.1349 245.41 77.8376 244.993L82.4452 242.652C83.6571 243.113 84.8973 243.497 86.1581 243.8C84.6968 244.546 83.2206 245.321 81.7891 246.171H81.7593ZM86.5309 243.606C85.2485 243.278 83.981 242.935 82.7285 242.518L87.3957 240.221C88.5943 240.686 89.8192 241.079 91.0639 241.399L86.5309 243.606ZM91.6604 241.101L91.377 241.25C90.1096 240.892 88.857 240.52 87.6194 240.102L92.4357 237.791C93.5556 238.234 94.7069 238.593 95.8802 238.864C94.5233 239.625 93.1217 240.385 91.6902 241.101H91.6604ZM99.444 237.015C98.3505 237.582 97.262 238.164 96.1785 238.76C95.0303 238.432 93.8821 238.089 92.7638 237.686L96.432 235.927C97.4144 236.347 98.42 236.71 99.444 237.015ZM103.008 243.427C101.725 244.024 94.2698 248.557 94.4488 248.631C95.4031 249.004 98.4897 250.629 98.9221 250.629C99.3546 250.629 106.661 246.156 108.48 245.038C108.51 245.028 108.536 245.009 108.554 244.984C108.573 244.958 108.583 244.927 108.583 244.896C108.583 244.865 108.573 244.834 108.554 244.809C108.536 244.783 108.51 244.764 108.48 244.754C103.53 243.308 103.917 243.025 103.008 243.427ZM98.6836 250.227C98.2362 250.227 95.7908 248.87 95.0303 248.557C97.3863 247.438 103.127 243.591 103.649 243.576C105.202 243.864 106.707 244.366 108.122 245.068C108.122 244.859 99.28 250.301 98.6836 250.227ZM46.7476 211.815C46.6432 211.815 57.1855 230.619 61.9422 240.147C61.9422 240.236 88.9465 228.635 94.6724 226.25C94.9259 226.16 82.2513 197.62 82.132 197.62C82.0128 197.62 52.4586 209.4 46.7476 211.815ZM62.1659 239.923C57.096 230.619 52.2946 221.165 47.1353 211.92C53.1744 209.862 76.3763 200.707 81.968 198.142C83.8021 202.615 92.2419 220.896 94.1356 225.892C88.7377 227.726 67.3848 237.358 62.1659 239.923Z" fill="url(#paint1_linear_2315_2839)"/>
<path d="M73.9457 227.472C80.0295 224.49 77.9121 218.078 77.9121 218.078L78.2998 217.81L78.8068 219.196C78.8068 219.196 79.0304 219.316 79.3883 219.077C79.7462 218.839 79.4927 217.586 79.105 216.93C78.7173 216.274 77.6139 216.93 77.6139 216.93C77.4878 216.482 77.3075 216.052 77.0771 215.648L79.9251 213.873C79.9251 213.873 80.3128 213.321 79.9251 213.321C78.9568 213.53 78.0049 213.809 77.0771 214.156C77.0771 214.156 75.735 215.111 76.5701 213.888C77.4051 212.665 80.0146 211.964 80.5812 211.472C81.1478 210.98 80.9391 210.384 80.3426 208.49C80.1665 207.914 79.82 207.405 79.3489 207.03C78.8778 206.654 78.3041 206.431 77.7033 206.388C75.0528 206.904 72.5234 207.916 70.2477 209.37C67.2654 211.517 69.8153 214.216 70.1284 214.634C70.3314 214.943 70.4778 215.287 70.5608 215.648C70.5608 215.648 71.2169 220.479 67.7575 222.343C64.2981 224.207 63.1947 218.824 63.1947 218.824C62.9561 217.974 62.9412 220.315 62.9412 220.315C63.1947 227.77 71.0827 227.77 71.0827 227.77L71.366 228.412C68.3838 230.007 65.4015 231.394 62.3298 232.885C62.2403 232.885 62.3298 233.079 62.3298 233.049C65.4845 231.866 68.5493 230.455 71.5002 228.829C71.8403 229.656 72.3138 230.422 72.9019 231.096C72.9724 231.171 73.0608 231.227 73.1587 231.258C73.2566 231.29 73.361 231.297 73.4622 231.277C73.5633 231.258 73.6579 231.214 73.7372 231.148C73.8165 231.082 73.878 230.998 73.9159 230.902C73.8728 230.129 73.768 229.361 73.6027 228.605C73.5133 227.785 73.9457 227.472 73.9457 227.472ZM73.0063 211.07C72.9566 211.216 72.8588 211.342 72.7289 211.426C72.599 211.509 72.4445 211.547 72.2905 211.532C72.1256 211.508 71.9707 211.438 71.844 211.33C71.7173 211.222 71.6239 211.08 71.5748 210.921C71.5364 210.795 71.5367 210.66 71.5757 210.535C71.6146 210.409 71.6905 210.298 71.7934 210.216C71.8963 210.134 72.0215 210.085 72.1527 210.075C72.2839 210.065 72.415 210.095 72.5291 210.16C72.707 210.256 72.8495 210.406 72.9354 210.588C73.0214 210.771 73.0462 210.976 73.0063 211.174V211.07ZM147.443 123.481C143.089 124.629 142.165 127.522 142.165 127.522C141.799 128.685 141.745 129.923 142.006 131.113C142.268 132.303 142.837 133.404 143.656 134.307C146.385 137.93 151.633 136.379 151.633 136.379C151.633 136.379 156.107 134.888 155.406 129.043C154.705 123.198 147.443 123.481 147.443 123.481ZM125.911 172.301C125.807 173.016 125.673 173.792 125.539 174.478C124.823 174.135 124.048 173.792 123.362 173.479V171.376C123.352 171.346 123.333 171.32 123.307 171.302C123.282 171.283 123.251 171.273 123.22 171.273C123.189 171.273 123.158 171.283 123.133 171.302C123.107 171.32 123.088 171.346 123.078 171.376C123.078 172.002 122.944 172.629 122.87 173.255C122.109 172.927 121.378 172.614 120.573 172.315C120.573 171.391 120.693 170.466 120.722 169.542C120.711 169.501 120.686 169.466 120.653 169.44C120.619 169.415 120.578 169.401 120.536 169.401C120.494 169.401 120.453 169.415 120.419 169.44C120.386 169.466 120.361 169.501 120.35 169.542C120.35 170.407 120.171 171.257 120.066 172.122C119.261 171.803 118.456 171.505 117.651 171.227C117.457 171.227 117.382 171.465 117.576 171.54C118.396 171.868 119.201 172.226 120.007 172.599C119.723 174.701 119.365 176.804 118.963 178.906C118.963 179.279 119.455 179.443 119.544 179.055C120.022 177.009 120.351 174.931 120.529 172.837C121.289 173.21 122.02 173.568 122.795 173.956C122.586 175.954 122.378 177.952 122.228 179.92C122.241 179.968 122.269 180.01 122.308 180.04C122.347 180.07 122.395 180.087 122.445 180.087C122.494 180.087 122.542 180.07 122.581 180.04C122.62 180.01 122.648 179.968 122.661 179.92C123.086 178.034 123.331 176.112 123.391 174.179C124.062 174.522 124.748 174.88 125.419 175.253C125.091 176.769 124.891 178.311 124.823 179.861C124.823 180.099 125.136 180.114 125.211 179.861C125.687 178.468 125.978 177.019 126.076 175.551C126.657 175.864 127.239 176.177 127.805 176.506C127.444 178.114 127.219 179.75 127.134 181.396C127.134 181.464 127.161 181.528 127.208 181.576C127.256 181.623 127.32 181.65 127.388 181.65C127.455 181.65 127.519 181.623 127.567 181.576C127.614 181.528 127.641 181.464 127.641 181.396C128.04 179.889 128.324 178.354 128.491 176.804C129.833 177.564 131.19 178.295 132.562 179.055C132.86 179.234 133.084 178.802 132.815 178.608C131.481 177.589 130.076 176.668 128.61 175.849C128.73 174.865 128.834 173.896 128.968 172.867C128.968 172.629 128.655 172.509 128.596 172.763C128.417 173.643 128.208 174.537 127.999 175.432C127.403 175.104 126.776 174.776 126.165 174.478C126.165 173.643 126.254 172.837 126.299 172.062C126.284 172.151 125.941 172.107 125.911 172.301ZM108.391 145.341C108.391 145.162 108.003 145.341 108.078 145.475C108.898 147.473 109.673 149.65 110.657 151.663L109.42 153.154C109.241 153.363 109.539 153.661 109.718 153.453L110.896 152.185C111.263 152.88 111.671 153.552 112.119 154.198C112.253 154.377 112.581 154.198 112.506 154.034C112.193 153.199 111.835 152.394 111.462 151.589C112.283 150.694 113.118 149.799 113.953 148.92C114.45 149.967 115.044 150.965 115.727 151.902C115.757 151.953 115.806 151.991 115.863 152.006C115.92 152.022 115.981 152.014 116.033 151.984C116.084 151.954 116.122 151.905 116.137 151.848C116.152 151.791 116.144 151.73 116.115 151.678C115.578 150.53 115.026 149.412 114.475 148.278C115.563 147.13 116.637 145.967 117.68 144.789C118.396 146.444 119.022 148.144 119.798 149.814C119.902 150.038 120.215 149.814 120.171 149.665C119.774 147.749 119.137 145.891 118.277 144.133C118.68 143.671 119.097 143.209 119.485 142.746C120.096 144.402 120.707 146.057 121.408 147.637C121.513 147.891 121.856 147.637 121.811 147.473C121.449 145.604 120.874 143.783 120.096 142.046C121.021 140.957 121.93 139.854 122.795 138.72C122.959 138.512 122.616 138.258 122.422 138.437C121.498 139.332 120.603 140.271 119.723 141.211C119.276 140.256 118.799 139.332 118.337 138.452C118.232 138.273 117.889 138.452 117.964 138.616C118.381 139.66 118.769 140.733 119.157 141.807L117.83 143.298C117.264 142.295 116.6 141.351 115.846 140.48C115.697 140.331 115.429 140.48 115.548 140.704C116.218 141.725 116.815 142.791 117.337 143.895C116.264 145.102 115.22 146.34 114.176 147.563C113.433 146.064 112.786 144.52 112.238 142.94C112.234 142.917 112.226 142.895 112.213 142.876C112.2 142.857 112.184 142.84 112.164 142.828C112.144 142.815 112.122 142.807 112.099 142.804C112.077 142.8 112.053 142.802 112.031 142.808C112.008 142.815 111.988 142.826 111.97 142.841C111.952 142.856 111.938 142.874 111.928 142.895C111.918 142.916 111.912 142.939 111.912 142.962C111.911 142.985 111.916 143.008 111.925 143.03C112.396 144.77 112.979 146.478 113.669 148.144L111.254 151.022C110.284 149.128 109.226 147.264 108.391 145.341ZM104.171 196.725C105.655 198.633 107.313 200.4 109.121 202.004L109.211 203.077C109.211 203.145 109.238 203.209 109.285 203.257C109.333 203.304 109.397 203.331 109.464 203.331C109.532 203.331 109.596 203.304 109.644 203.257C109.691 203.209 109.718 203.145 109.718 203.077V202.526L110.613 203.182C110.821 203.331 111.015 203.018 110.866 202.854C110.508 202.451 110.15 202.063 109.777 201.691C109.777 200.662 109.882 199.648 109.912 198.619C110.605 199.176 111.343 199.675 112.119 200.11C112.16 200.142 112.212 200.156 112.264 200.149C112.316 200.142 112.363 200.114 112.394 200.073C112.426 200.031 112.44 199.979 112.433 199.927C112.426 199.875 112.399 199.829 112.357 199.797C111.599 199.049 110.798 198.347 109.956 197.694V195.413C110.841 196.395 111.815 197.293 112.864 198.097C113.013 198.216 113.282 198.097 113.162 197.873C112.284 196.598 111.285 195.41 110.18 194.324V192.043C111.475 193.733 112.917 195.305 114.489 196.74C114.538 196.783 114.601 196.806 114.665 196.804C114.73 196.802 114.791 196.776 114.837 196.73C114.883 196.684 114.909 196.623 114.911 196.558C114.913 196.493 114.89 196.431 114.847 196.382C113.356 194.578 111.865 192.863 110.225 191.148C110.225 190.06 110.225 188.971 110.329 187.883C110.329 187.659 109.971 187.599 109.942 187.883C109.822 188.763 109.703 189.642 109.599 190.537L108.257 189.046C108.078 188.837 107.794 189.135 107.973 189.344C108.48 189.941 109.002 190.582 109.464 191.223L109.241 193.519C108.54 192.818 107.75 192.133 107.168 191.447C107.004 191.268 106.75 191.447 106.9 191.7C107.66 192.55 108.391 193.475 109.181 194.384C109.181 195.219 109.077 196.054 109.047 196.904C107.988 195.965 106.989 194.951 105.901 194.041C105.863 194.017 105.819 194.006 105.774 194.01C105.73 194.015 105.689 194.035 105.657 194.066C105.626 194.098 105.606 194.139 105.601 194.183C105.597 194.228 105.608 194.272 105.632 194.31C106.653 195.599 107.786 196.797 109.017 197.888V200.96C107.526 199.469 105.886 197.978 104.38 196.487C104.26 196.263 104.022 196.546 104.171 196.725ZM176.61 154.258C177.579 152.009 178.425 149.709 179.145 147.369C180.054 148.1 180.949 148.86 181.814 149.71C181.337 151.35 180.949 153.02 180.606 154.616C180.595 154.698 180.614 154.782 180.66 154.851C180.706 154.921 180.775 154.971 180.856 154.993C180.936 155.015 181.021 155.007 181.096 154.97C181.171 154.934 181.23 154.871 181.262 154.795C181.68 153.304 182.112 151.812 182.53 150.321C183.35 151.112 184.17 151.917 185.005 152.692C184.722 153.557 184.423 154.422 184.125 155.302C184.021 155.6 184.513 155.809 184.662 155.525C185.02 154.78 185.333 154.034 185.616 153.259C186.242 153.825 186.869 154.377 187.525 154.899C187.21 155.995 186.971 157.111 186.809 158.239C186.806 158.3 186.825 158.361 186.861 158.41C186.897 158.459 186.949 158.495 187.009 158.51C187.068 158.526 187.131 158.521 187.186 158.496C187.242 158.471 187.288 158.428 187.316 158.373C187.659 157.419 187.987 156.45 188.3 155.481C189.372 156.288 190.526 156.977 191.745 157.538C191.806 157.56 191.873 157.559 191.935 157.537C191.996 157.514 192.047 157.471 192.081 157.415C192.114 157.359 192.127 157.293 192.117 157.229C192.108 157.164 192.076 157.105 192.028 157.061C190.863 156.264 189.724 155.428 188.613 154.556C189.463 151.917 190.283 149.263 191.297 146.653C191.372 146.459 191.059 146.34 190.969 146.519C189.709 148.909 188.656 151.404 187.823 153.975C187.182 153.468 186.556 152.946 185.929 152.483C186.673 150.139 187.212 147.734 187.54 145.296C187.54 145.043 187.197 144.923 187.152 145.192C186.676 147.48 186.059 149.736 185.303 151.947L182.738 149.68C183.126 148.189 183.469 146.847 183.752 145.43C183.752 145.237 183.499 145.073 183.409 145.281C182.874 146.511 182.411 147.77 182.023 149.054C181.143 148.308 180.233 147.563 179.294 146.922L179.92 145.058C180.01 144.774 179.592 144.685 179.488 144.938C179.279 145.49 179.055 146.042 178.832 146.593C178.205 146.176 177.564 145.773 176.908 145.401C176.714 145.281 176.535 145.594 176.729 145.714C177.385 146.116 178.026 146.564 178.653 147.026C177.652 149.323 176.791 151.678 176.073 154.079C175.984 154.347 176.461 154.511 176.61 154.258ZM194.324 75.1834C194.22 74.6764 193.952 74.2291 193.832 73.6923C193.668 73.0128 193.758 72.2968 194.086 71.6793C194.086 71.6793 194.086 71.5003 193.952 71.5749C193.577 72.1193 193.404 72.777 193.461 73.4353C193.518 74.0937 193.802 74.7116 194.265 75.1834H194.324ZM261.723 249.556C261.962 249.347 262.558 249.556 262.797 249.705C263.133 249.892 263.424 250.152 263.647 250.465C263.835 250.798 263.954 251.164 263.998 251.543C264.041 251.922 264.008 252.306 263.9 252.672H264.035C264.243 252.197 264.307 251.671 264.22 251.16C264.132 250.648 263.897 250.173 263.543 249.794C263.17 249.437 261.947 248.736 261.574 249.407C261.554 249.426 261.543 249.453 261.543 249.481C261.543 249.509 261.554 249.536 261.574 249.556C261.594 249.576 261.621 249.587 261.649 249.587C261.677 249.587 261.704 249.576 261.723 249.556ZM183.886 177.445C189.404 173.851 195.816 178.623 200.289 181.724C202.3 183.237 204.534 184.429 206.91 185.258C209.835 186.025 212.835 186.475 215.856 186.6C222.594 187.271 229.383 187.271 236.121 186.6C236.3 186.6 236.3 186.302 236.121 186.317C229.731 186.757 223.319 186.757 216.93 186.317C213.562 186.234 210.215 185.763 206.954 184.915C204.267 183.907 201.752 182.488 199.499 180.71C195.86 178.131 191.655 175.298 186.943 175.969C185.072 176.282 183.372 177.247 182.144 178.694C180.916 180.14 180.239 181.974 180.233 183.872C180.01 187.987 183.081 193.758 187.972 191.73V191.64C183.693 193.132 180.785 188.897 180.517 185.139C180.37 183.675 180.602 182.198 181.193 180.85C181.783 179.502 182.711 178.33 183.886 177.445Z" fill="url(#paint2_linear_2315_2839)"/>
<path d="M229.336 190.06C229.426 190.06 229.336 189.866 229.336 189.881C222.313 190.597 215.469 193.355 208.311 192.147C202.227 191.104 197.262 185.214 190.805 186.436V186.556C194.816 185.944 198.261 188.047 201.631 189.821C204.157 191.279 206.952 192.212 209.847 192.565C216.363 193.281 222.969 191.178 229.336 190.06ZM269.134 185.825C269.268 185.825 269.283 185.586 269.134 185.586C266.324 185.773 263.505 185.773 260.694 185.586C260.605 185.586 260.694 185.706 260.694 185.721C263.492 186.106 266.328 186.141 269.134 185.825ZM185.736 172.256C186.322 172.361 186.927 172.299 187.48 172.077C187.508 172.077 187.534 172.066 187.554 172.046C187.574 172.027 187.584 172 187.584 171.972C187.584 171.945 187.574 171.918 187.554 171.899C187.534 171.879 187.508 171.868 187.48 171.868C187.167 171.972 184.96 172.33 185.243 171.406C185.243 171.137 185.75 170.899 185.959 170.765C186.253 170.597 186.57 170.472 186.899 170.392C187.003 170.392 186.899 170.183 186.899 170.198C186.257 170.287 184.841 170.78 184.93 171.689C184.886 172.077 185.378 172.196 185.736 172.256ZM154.795 219.748C156.351 219.123 157.635 217.966 158.418 216.483C160.849 210.712 153.781 205.568 153.781 205.568C156.256 211.771 153.781 213.605 151.753 217.318C149.725 221.031 154.616 223.103 154.616 223.103C154.616 223.103 151.991 221.031 154.795 219.748ZM148.651 199.931C148.651 199.931 153.557 197.903 151.544 194.19C149.531 190.477 147.071 188.628 149.516 182.44C149.516 182.44 142.448 187.585 144.879 193.355C145.668 194.834 146.95 195.989 148.502 196.621C151.32 197.903 148.651 199.931 148.651 199.931Z" fill="url(#paint3_linear_2315_2839)"/>
<path d="M179.294 269.865C175.491 265.392 171.689 260.829 167.603 256.609C167.863 256.403 168.112 256.184 168.349 255.953C180.696 267.27 185.094 269.701 185.094 269.612C188.405 270.074 192.177 265.66 191.954 263.036C191.947 262.658 191.834 262.291 191.629 261.974C191.423 261.658 191.133 261.406 190.79 261.246C184.666 257.375 178.29 253.918 171.704 250.898C172.156 249.847 172.535 248.766 172.837 247.662C173.23 246.199 173.475 244.701 173.568 243.189C179.98 244.874 199.439 242.697 205.016 242.965C205.389 242.965 205.374 242.413 205.016 242.384C199.752 241.891 180.442 243.875 173.583 242.741C173.971 232.303 166.843 224.281 165.307 222.999C163.533 221.508 163.413 217.497 163.413 217.497C163.413 217.497 160.222 219.525 159.984 226.011C159.942 227.79 159.265 229.496 158.075 230.819C156.886 232.143 155.262 232.997 153.497 233.228C153.497 233.228 143.224 232.974 147.876 220.628C149.296 217.293 149.67 213.606 148.949 210.054C148.227 206.502 146.444 203.252 143.835 200.736C145.326 210.101 136.558 223.014 135.514 224.788C134.679 226.279 131.309 236.896 132.83 245.366C128.598 244.894 124.333 244.779 120.081 245.023L127.075 240.997V238.238L99.8019 228.784C99.8019 228.784 65.6849 243.979 59.0195 247.14V250.674L87.6939 263.11V258.294L59.1836 247.304C66.0278 244.993 99.8317 229.068 99.8466 229.068C108.301 233.243 117.666 235.554 126.687 238.507L88.7079 258.249V263.11L119.365 245.47C123.894 245.249 128.433 245.408 132.935 245.947C133.237 247.411 133.738 248.826 134.426 250.152C114.325 262.409 114.281 263.438 114.206 263.572C112.715 265.466 113.699 268.255 115.131 269.91C116.562 271.565 119.201 272.37 120.886 270.76C120.886 270.76 125.36 267.33 127.343 265.377C126.955 265.824 121.692 271.625 121.692 271.639C120.32 273.578 122.333 277.872 126.031 278.484C126.742 278.658 127.487 278.634 128.186 278.416C128.885 278.198 129.511 277.794 129.997 277.246C130.072 277.246 138.452 264.333 142.955 258.16L143.164 258.264C142.12 261.246 139.555 274.83 138.437 278.424C137.289 282.241 141.688 285.417 144.804 284.493C146.713 283.911 148.174 282.704 148.114 281.019C149.185 274.189 149.783 267.293 149.904 260.381C151.249 260.631 152.629 260.631 153.975 260.381C153.975 263.364 155.018 279.617 155.048 279.632C154.437 286.297 167.946 284.642 167.156 279.423C167.156 279.423 163.13 265.63 162.683 264.273C163.756 266.107 169.095 274.592 170.72 276.963C170.99 277.665 171.526 278.233 172.211 278.543C176.774 280.959 184.438 272.713 179.294 269.865ZM190.477 265.958C188.136 269.731 182.306 270.894 184.364 265.407C186.421 259.919 194.026 260.158 190.477 265.958ZM171.57 251.211C174.552 252.896 186.735 259.278 189.672 261.008C186.049 260.873 182.813 265.899 183.588 268.359C180.889 266.271 178.205 264.229 175.641 261.962C173.3 259.889 171.033 257.668 168.573 255.714C169.831 254.402 170.845 252.878 171.57 251.211ZM114.907 269.105C112.059 264.84 115.086 260.545 119.38 264.631C124.54 269.447 118.292 274.115 114.907 269.03V269.105ZM121.513 269.895C123.242 266.599 118.262 261.992 115.548 262.678C118.53 260.859 131.041 252.419 134.59 250.54C135.51 251.83 136.506 253.065 137.572 254.238C134.485 256.564 124.286 267.434 121.513 269.82V269.895ZM124.033 277.276C120.633 274.994 120.051 269.671 126.433 270.998C127.292 271.29 128.068 271.786 128.694 272.443C129.319 273.1 129.777 273.899 130.027 274.771C130.668 278.275 126.165 278.633 124.033 277.201V277.276ZM130.459 276.113C130.578 275.623 130.578 275.112 130.459 274.622C130.222 273.862 129.834 273.157 129.319 272.55C128.805 271.942 128.174 271.444 127.464 271.084C126.754 270.724 125.979 270.51 125.185 270.454C124.39 270.398 123.593 270.502 122.84 270.76C124.182 269.447 135.097 256.654 137.751 254.477C139.166 255.827 140.756 256.98 142.478 257.906C138.422 263.871 134.232 269.85 130.459 276.038V276.113ZM142.687 284.105C136.126 282.331 138.705 274.92 143.417 276.978C144.874 277.456 146.169 278.328 147.16 279.498C148.83 282.241 145.296 284.732 142.687 284.031V284.105ZM147.891 280.109C147.205 278.111 145.803 277.857 144.044 276.843C143.282 276.348 142.37 276.138 141.468 276.253C140.567 276.368 139.736 276.799 139.123 277.47C140.097 274.465 140.834 271.389 141.33 268.269C141.792 264.914 142.612 261.694 143.373 258.398C145.343 259.359 147.443 260.027 149.606 260.381C149.069 266.942 148.651 273.488 147.891 280.034V280.109ZM148.651 254.924C150.59 257.906 147.16 255.655 147.16 255.655C147.16 255.655 139.436 249.69 143.954 230.678C143.954 230.678 144.387 229.306 144.625 230.097C144.625 230.097 145.55 241.414 156.867 241.474C156.867 241.474 161.997 241.548 161.341 237.001C161.341 237.001 167.827 244.769 163.726 251.062C163.726 251.062 162.056 254.268 161.743 251.971C161.43 249.675 158.373 246.812 154.288 247.2C150.202 247.588 146.668 251.942 148.651 254.924ZM166.44 280.437C166.082 281.719 165.531 282.39 163.354 283.181C155.898 285.775 152.424 278.707 158.493 276.292C162.235 274.801 167.38 276.933 166.411 280.437H166.44ZM166.44 277.738C163.592 273.816 156.867 275.233 155.391 278.543C155.405 272.448 155.096 266.355 154.467 260.292L154.705 260.202C156.435 259.341 158.351 258.921 160.282 258.98C161.087 262.32 165.531 274.741 166.396 277.738H166.44ZM170.601 276.158C169.214 273.951 161.162 260.083 160.67 259.01C163.091 259.095 165.463 258.318 167.365 256.818C170.884 261.291 174.82 265.407 178.563 269.582C175.163 268.448 170.437 272.922 170.556 276.158H170.601ZM179.07 275.934C177.728 277.35 175.193 279.244 173.106 278.424C167.663 276.292 174.433 268.463 178.757 269.865C179.24 270.2 179.639 270.642 179.924 271.157C180.208 271.672 180.369 272.245 180.395 272.833C180.421 273.42 180.311 274.006 180.073 274.544C179.836 275.082 179.477 275.557 179.025 275.934H179.07Z" fill="url(#paint4_linear_2315_2839)"/>
<path d="M162.429 281.138C160.849 281.913 157.956 282.39 157.016 280.467C155.913 278.29 160.685 277.127 162.101 277.559C162.206 277.559 162.235 277.425 162.101 277.395C158.493 276.113 153.587 280.765 158.761 281.958C159.393 282.112 160.05 282.134 160.691 282.024C161.333 281.914 161.944 281.673 162.489 281.317C162.503 281.303 162.513 281.286 162.518 281.267C162.523 281.247 162.522 281.227 162.516 281.209C162.509 281.19 162.498 281.173 162.483 281.161C162.467 281.148 162.449 281.14 162.429 281.138Z" fill="url(#paint5_linear_2315_2839)"/>
<path d="M160.192 278.797V278.916C160.789 278.678 162.295 278.126 162.757 278.767C162.981 279.065 162.757 279.05 162.533 279.185C161.901 279.484 161.242 279.724 160.565 279.9C160.537 279.9 160.511 279.911 160.491 279.931C160.472 279.95 160.461 279.977 160.461 280.005C160.461 280.032 160.472 280.059 160.491 280.078C160.511 280.098 160.537 280.109 160.565 280.109C161.259 280.023 161.931 279.811 162.548 279.483C162.832 279.334 163.413 279.125 163.249 278.692C162.996 277.813 161.042 278.364 160.192 278.797ZM177.057 275.084C171.391 279.677 171.435 273.593 176.222 271.371V271.296C173.24 272.504 171.182 276.098 173.24 276.888C174.91 277.529 179.741 274.517 178.921 271.371C178.921 271.347 178.912 271.325 178.895 271.308C178.878 271.291 178.855 271.282 178.831 271.282C178.808 271.282 178.785 271.291 178.768 271.308C178.751 271.325 178.742 271.347 178.742 271.371C178.832 272.085 178.722 272.81 178.425 273.466C178.127 274.121 177.654 274.681 177.057 275.084Z" fill="url(#paint6_linear_2315_2839)"/>
<path d="M174.686 273.981C174.686 273.981 174.761 274.13 174.806 273.981C175.432 272.967 176.834 272.489 176.789 272.937C176.789 273.145 175.73 273.981 175.566 274.115C175.55 274.127 175.54 274.144 175.537 274.164C175.534 274.183 175.539 274.203 175.551 274.219C175.563 274.235 175.581 274.245 175.6 274.248C175.62 274.251 175.64 274.246 175.656 274.234C175.924 274.1 177.669 272.743 176.804 272.519C176.35 272.544 175.912 272.693 175.539 272.951C175.165 273.209 174.87 273.565 174.686 273.981ZM187.525 266.957C187.256 267.181 186.809 267.792 186.496 267.897C184.662 268.478 184.811 265.049 187.54 263.051V262.946C185.079 264.258 184.468 267.703 185.482 268.419C186.496 269.134 187.585 267.36 188.077 266.927C190.731 264.422 190.03 263.483 189.926 263.826C189.445 265.08 188.611 266.167 187.525 266.957Z" fill="url(#paint7_linear_2315_2839)"/>
<path d="M186.749 264.929C186.749 264.929 186.749 265.093 186.839 265.034C187.123 264.717 187.449 264.441 187.808 264.214C187.927 264.214 188.241 263.915 188.136 264.214C188.036 264.387 187.921 264.551 187.793 264.706C187.793 264.795 187.793 264.9 187.927 264.84C188.062 264.78 188.867 263.811 188.285 263.781C187.942 263.736 187.003 264.646 186.749 264.929ZM143.373 279.05C143.343 279.06 143.317 279.079 143.298 279.105C143.28 279.13 143.27 279.161 143.27 279.192C143.27 279.223 143.28 279.254 143.298 279.279C143.317 279.305 143.343 279.324 143.373 279.334C144.491 279.244 146.355 280.213 145.55 281.645C145.175 282.091 144.669 282.407 144.103 282.547C143.537 282.686 142.942 282.642 142.403 282.42C139.704 281.585 139.063 278.185 143.238 278.35C143.238 278.35 143.343 278.215 143.238 278.2C142.06 278.007 140.003 278.335 139.943 279.9C139.883 281.466 141.598 282.569 142.925 282.793C144.252 283.017 146.221 282.435 146.206 280.884C146.221 279.647 144.431 278.767 143.373 279.05Z" fill="url(#paint8_linear_2315_2839)"/>
<path d="M142.448 280.884C142.422 280.894 142.399 280.911 142.383 280.933C142.367 280.956 142.358 280.983 142.358 281.011C142.358 281.039 142.367 281.066 142.383 281.089C142.399 281.112 142.422 281.129 142.448 281.138C143.596 281.794 144.401 280.049 142.821 280.169C142.805 280.162 142.788 280.16 142.771 280.162C142.754 280.164 142.738 280.17 142.723 280.179C142.709 280.189 142.698 280.202 142.69 280.217C142.682 280.232 142.678 280.249 142.678 280.266C142.678 280.283 142.682 280.299 142.69 280.315C142.698 280.33 142.709 280.342 142.723 280.352C142.738 280.362 142.754 280.368 142.771 280.369C142.788 280.371 142.805 280.369 142.821 280.363C143 280.363 143.462 280.363 143.358 280.691C143.253 281.019 142.687 280.884 142.448 280.884ZM127.895 275.531C126.284 276.62 124.375 275.531 123.153 274.413C121.438 272.773 123.406 270.402 127.224 272.922C127.313 272.922 127.402 272.832 127.313 272.773C122.661 269.403 119.619 274.04 125.136 276.202C125.603 276.44 126.133 276.523 126.65 276.44C127.167 276.357 127.645 276.112 128.014 275.74C128.088 275.621 127.984 275.472 127.895 275.531Z" fill="url(#paint9_linear_2315_2839)"/>
<path d="M127 274.816C127.104 274.672 127.159 274.5 127.159 274.323C127.158 274.147 127.102 273.975 126.997 273.832C126.893 273.69 126.746 273.584 126.578 273.53C126.409 273.476 126.228 273.477 126.061 273.533C125.971 273.533 126.061 273.727 126.061 273.712C126.177 273.695 126.297 273.711 126.405 273.758C126.513 273.806 126.606 273.883 126.672 273.981C126.72 274.089 126.744 274.205 126.744 274.323C126.744 274.442 126.72 274.558 126.672 274.666C126.732 274.801 126.911 274.935 127 274.816ZM115.444 266.346L115.518 266.242C114.176 265.272 116.264 264.258 117.367 264.646C118.471 265.034 121.006 268.776 120.141 269.731C119.962 269.94 118.963 269.85 118.65 269.85C118.337 269.85 118.486 270.059 118.65 270.074C119.351 270.178 120.722 270.223 120.737 269.269C120.225 267.676 119.393 266.204 118.292 264.944C116.473 263.155 113.908 265.302 115.444 266.346Z" fill="url(#paint10_linear_2315_2839)"/>
<path d="M116.562 268.374C116.01 268.061 115.846 267.091 116.652 266.972C116.756 266.972 116.652 266.778 116.652 266.793C115.25 266.927 115.653 269.522 118.322 268.747C118.349 268.747 118.376 268.736 118.395 268.716C118.415 268.696 118.426 268.67 118.426 268.642C118.426 268.615 118.415 268.588 118.395 268.568C118.376 268.549 118.349 268.538 118.322 268.538C117.733 268.67 117.117 268.613 116.562 268.374ZM304.906 218.332C304.616 217.686 304.548 216.962 304.713 216.274C306.204 211.636 303.087 211.144 300.701 208.431C299.506 206.986 298.899 205.144 299.002 203.271C299.568 196.755 292.381 194.056 287.073 195.368C278.931 197.202 273.19 204.688 266.927 209.191C272.34 206.209 276.486 200.93 281.839 197.769C286.879 194.787 295.005 194.131 297.868 199.871C299.151 202.854 297.868 206.283 300.478 208.818C306.696 214.097 303.743 212.337 304.25 218.108C305.1 219.972 306.666 220.374 308.217 221.791C311.557 224.49 309.156 228.561 306.323 230.559C303.102 227.875 295.542 230.261 295.497 234.674C295.504 234.923 295.55 235.17 295.632 235.405C299.121 242.861 312.452 238.134 306.517 230.723C313.63 223.968 309.693 223.252 304.906 218.332ZM307.68 234.466C306.934 240.43 297.764 240.326 295.915 235.092C295.915 230.619 303.013 228.561 306.174 230.902C306.183 230.928 306.199 230.951 306.22 230.969C306.241 230.988 306.266 231 306.293 231.006C306.801 231.416 307.195 231.95 307.437 232.555C307.68 233.161 307.764 233.819 307.68 234.466ZM273.205 240.594C273.026 241.355 274.696 240.042 275.084 241.086C275.397 242.935 271.535 242.443 273.071 240.982C273.071 240.654 272.266 241.146 272.385 241.742C274.338 245.068 277.619 238.864 273.205 240.594ZM200.99 277.172C199.081 276.277 196.516 277.35 194.593 277.753C192.669 278.156 190.492 278.26 189.255 279.736C188.017 281.212 188.494 283.27 188.912 284.91C186.541 284.463 183.901 284.91 182.649 286.536C182.328 286.985 182.115 287.502 182.026 288.047C181.937 288.591 181.975 289.149 182.136 289.677C182.298 290.205 182.579 290.688 182.957 291.09C183.336 291.492 183.802 291.801 184.319 291.993C185.601 292.474 186.97 292.675 188.336 292.583C189.702 292.49 191.032 292.106 192.237 291.457C192.644 291.863 193.148 292.159 193.701 292.315C194.254 292.472 194.839 292.484 195.398 292.351C198.649 292.038 205.478 290.562 206.432 287.445C207.029 285.477 205.836 283.225 204.852 281.585C204.003 279.781 202.665 278.252 200.99 277.172ZM182.574 287.609C184.468 282.838 195.652 285.507 192.744 290.592C191.014 293.037 180.696 292.306 182.574 287.58V287.609ZM202.063 290.413C200.155 291.084 194.25 293.32 192.58 291.263C192.752 291.115 192.902 290.945 193.027 290.756C195.741 286.64 189.255 284.91 189.24 284.791C188.807 282.883 188.39 280.586 190.283 279.319C191.687 278.638 193.203 278.218 194.757 278.081C196.457 277.723 198.738 276.799 200.438 277.291C202.138 277.783 203.42 279.781 204.27 281.257C207.67 286.804 205.985 289.026 202.063 290.383V290.413ZM222.581 287.565C222.581 287.565 218.868 286.327 217.511 287.356C217.299 287.49 217.124 287.676 217.003 287.897C216.881 288.117 216.818 288.364 216.818 288.616C216.818 288.867 216.881 289.115 217.003 289.335C217.124 289.555 217.299 289.741 217.511 289.876C218.191 290.218 218.942 290.396 219.703 290.396C220.465 290.396 221.215 290.218 221.895 289.876C222.82 289.399 224.013 288.191 222.581 287.565ZM221.418 289.757C221.046 289.889 220.661 289.984 220.27 290.04C219.773 290.181 219.248 290.191 218.746 290.068C218.244 289.945 217.783 289.694 217.407 289.339C216.05 287.714 218.645 287.058 219.763 287.132C220.679 287.269 221.582 287.484 222.462 287.773C224.087 288.579 221.716 289.637 221.418 289.757ZM87.351 272.549C84.3687 273.309 80.7005 275.964 81.0286 278.931C81.4163 282.39 87.5895 282.838 90.1394 282.883C93.0322 282.883 96.9091 281.078 95.4776 277.559C94.1952 274.458 90.8253 271.654 87.351 272.549ZM89.4982 282.376C87.5299 282.286 81.8636 281.824 81.4908 279.155C81.0733 276.172 84.9652 273.459 87.7088 272.952C90.4525 272.445 93.0471 274.443 94.5233 276.769C96.9687 280.676 92.8681 282.554 89.4982 282.376ZM98.1616 281.824C98.1379 281.824 98.1151 281.833 98.0984 281.85C98.0816 281.867 98.0722 281.89 98.0722 281.913C98.0722 281.937 98.0816 281.96 98.0984 281.977C98.1151 281.993 98.1379 282.003 98.1616 282.003C99.0857 282.003 100.008 282.077 100.92 282.226C101.366 282.274 101.797 282.411 102.188 282.629C103.202 283.539 101.889 284.344 101.218 284.597C100.509 284.838 99.7595 284.939 99.0116 284.896C98.6292 284.917 98.2458 284.917 97.8634 284.896C96.3723 284.761 95.1943 282.54 97.7888 282.271C97.8165 282.271 97.8431 282.26 97.8627 282.241C97.8822 282.221 97.8932 282.194 97.8932 282.167C97.8932 282.139 97.8822 282.113 97.8627 282.093C97.8431 282.073 97.8165 282.062 97.7888 282.062C96.6556 282.062 95.4925 283.047 96.0442 284.299C96.596 285.552 99.2502 285.373 100.398 285.194C101.293 285.045 103.53 284.21 102.859 282.868C102.188 281.526 99.28 281.541 98.1616 281.824ZM42.3935 59.5117C42.3935 59.5117 42.1549 58.9898 52.6823 60.4213C63.2096 61.8527 63.8806 54.1138 63.8806 54.1138H63.985C64.6709 50.3412 71.4406 51.7131 71.4406 51.7131C70.4798 50.0264 69.0071 48.6895 67.2357 47.8958C63.9569 46.0396 60.1212 45.4206 56.425 46.1512C53.0998 46.9415 55.7689 47.195 55.7689 47.195C57.4811 47.2208 59.178 47.5229 60.794 48.0896C59.3979 48.6865 58.2134 49.6892 57.3942 50.9675C47.0458 45.5845 45.8827 41.8418 44.9731 41.4094C44.0635 40.977 43.6013 42.4233 43.6013 42.4233C41.4093 49.0141 48.7457 56.7829 48.7457 56.7829C48.7457 56.7829 42.7812 57.4837 41.0664 58.617C39.3516 59.7502 42.3935 59.5117 42.3935 59.5117ZM63.7464 86.5607C63.2543 86.0447 62.5805 85.7405 61.868 85.7127C61.1554 85.6848 60.46 85.9355 59.9291 86.4116C58.1398 87.7238 58.11 89.6772 58.1845 91.6902C55.6049 88.8123 50.9824 91.5113 51.1315 95.1198C51.1315 95.1198 82.4452 95.3584 82.4452 95.3136C84.2047 94.6874 83.5337 91.1534 82.9074 89.9456C82.499 89.0985 81.8247 88.4083 80.9874 87.9803C80.1501 87.5522 79.1958 87.4098 78.27 87.5747C79.0752 83.5486 75.6307 80.119 71.709 80.0147C69.7999 79.896 67.9167 80.5055 66.4391 81.7202C64.9615 82.935 63.9993 84.6647 63.7464 86.5607ZM77.4648 88.0518C77.3604 88.0518 77.4648 88.2457 77.5393 88.2159C78.3695 88.0193 79.2395 88.0762 80.0369 88.3792C80.8344 88.6823 81.5226 89.2175 82.0127 89.9158C82.7434 91.0341 83.4293 93.9716 82.0127 94.8961C77.8525 94.5979 54.5611 94.4786 51.5639 94.8066C51.5639 93.3155 54.6505 89.0062 58.3187 92.0779C58.4231 92.1674 58.5722 92.0779 58.4678 91.9288C58.3634 91.7797 58.4678 88.7378 59.616 87.4554C59.8579 87.1463 60.1637 86.8931 60.5125 86.713C60.8612 86.5328 61.2447 86.4301 61.6368 86.4117C62.0288 86.3933 62.4203 86.4597 62.7844 86.6063C63.1484 86.753 63.4766 86.9765 63.7464 87.2615C63.8657 87.3808 64.5516 81.297 70.7696 81.0137C78.8366 80.5813 77.5692 87.9773 77.4648 88.022V88.0518ZM274.726 54.8146C274.74 53.8549 274.557 52.9025 274.191 52.0155C273.824 51.1285 273.281 50.3255 272.594 49.6553C271.889 49.1787 271.063 48.9129 270.213 48.8891C269.362 48.8654 268.523 49.0846 267.792 49.5211C267.941 48.8936 267.944 48.2402 267.799 47.6117C267.654 46.9832 267.366 46.3966 266.957 45.8977C266.311 45.3069 265.481 44.9563 264.607 44.9047C263.733 44.8531 262.867 45.1037 262.156 45.6144C262.562 44.9664 262.777 44.217 262.777 43.4522C262.777 42.6874 262.562 41.9381 262.156 41.2901C261.201 39.9195 259.762 38.9607 258.13 38.6061C256.273 38.3411 254.384 38.7758 252.83 39.8257C251.276 40.8756 250.167 42.4658 249.72 44.2873C248.482 42.8707 246.111 43.661 244.769 44.6451C244.118 45.1187 243.606 45.7594 243.289 46.4995C242.971 47.2396 242.859 48.0517 242.965 48.8501C241.176 47.5528 238.059 48.3879 236.494 49.7C234.928 51.0122 233.243 53.9349 234.197 55.8584C234.227 55.9031 267.718 54.6804 274.726 54.8146ZM237.373 50.1325C238.238 49.3713 239.359 48.9664 240.51 48.9996C241.661 49.0328 242.757 49.5016 243.576 50.3114C243.681 50.4009 243.845 50.3114 243.74 50.1474C243.578 49.3547 243.606 48.5348 243.821 47.7547C244.036 46.9747 244.432 46.2566 244.978 45.6591C245.554 45.1235 246.257 44.7437 247.021 44.5557C247.554 44.3432 248.138 44.2892 248.701 44.4003C249.265 44.5114 249.784 44.7828 250.197 45.1819C250.286 45.2714 250.45 45.1819 250.376 45.0477C250.741 43.5717 251.596 42.2632 252.801 41.3367C254.007 40.4102 255.491 39.9206 257.011 39.9481C258.426 39.894 259.81 40.3729 260.888 41.2901C262.573 42.6321 261.738 44.66 261.008 46.5687C261.008 46.5687 261.112 46.6582 261.142 46.6432C262.394 46.0766 264.825 45.3161 266.077 46.1064C267.33 46.8967 267.837 49.4764 266.808 50.4605C266.644 50.6096 266.898 50.8482 267.062 50.6991C267.226 50.55 270.044 47.9554 272.609 50.6991C273.393 51.6551 273.907 52.803 274.1 54.0243C261.202 54.3822 248.229 54.248 235.33 55.2172C235.2 54.2653 235.32 53.2957 235.678 52.4041C236.036 51.5125 236.621 50.7296 237.373 50.1325Z" fill="url(#paint11_linear_2315_2839)"/>
<path d="M310.96 162.399C304.713 162.623 291.576 163.443 291.173 163.458L290.905 155.838C290.905 155.838 290.636 154.705 291.546 154.78C292.455 154.854 295.468 154.78 295.363 152.797C295.259 150.813 295.169 148.577 295.169 148.577C295.169 148.577 294.99 147.279 294.006 147.503C293.022 147.727 293.35 148.994 293.35 148.994V152.439C293.35 152.439 293.022 153.229 290.815 152.826V143.552C290.815 143.552 290.815 140.376 288.743 140.316C286.67 140.256 287.251 144.416 287.251 144.416L287.55 156.032C287.55 156.032 287.386 156.524 286.953 156.524H284.791C284.791 156.524 284.374 156.405 284.344 155.57C284.314 154.735 284.344 151.842 283.389 151.276C282.435 150.709 282.405 152.603 282.405 152.603L282.599 156.614C282.599 156.614 282.733 158.209 283.583 158.239C284.433 158.269 287.028 158.239 287.028 158.239C287.028 158.239 287.788 158.239 287.818 159.73V163.577C283.136 163.577 278.439 163.577 273.757 163.667C274.821 162.009 275.686 160.233 276.336 158.373C277.227 155.312 277.385 152.084 276.799 148.949C275.129 136.513 269.835 123.779 258.413 117.248C254.116 114.935 249.218 113.978 244.367 114.504C242.735 114.489 241.107 114.639 239.506 114.952C239.506 113.983 239.013 110.478 238.969 109.628C240.788 109.628 241.131 106.915 241.131 106.915C241.131 106.915 240.818 105.871 243.517 107.004C246.216 108.137 246.603 104.708 246.603 104.708C250.54 105.93 250.242 102.382 250.242 102.382C250.781 102.124 251.263 101.762 251.659 101.315C252.056 100.868 252.359 100.347 252.551 99.7812C252.742 99.2156 252.819 98.6172 252.776 98.0215C252.733 97.4258 252.571 96.8448 252.299 96.3127C253.522 87.9326 249.153 88.8571 249.153 88.8571C249.266 88.4313 249.283 87.9858 249.203 87.5527C249.123 87.1195 248.948 86.7095 248.691 86.352C248.466 85.9211 248.29 85.4658 248.169 84.995C246.678 79.6717 242.324 81.133 242.324 81.133C242.631 80.0831 242.542 78.9571 242.075 77.9679C241.608 76.9788 240.795 76.195 239.789 75.765C238.832 75.1716 237.705 74.9127 236.585 75.0287C235.465 75.1448 234.416 75.6292 233.601 76.4061C233.409 75.7556 233.027 75.1775 232.503 74.7468C231.979 74.3161 231.338 74.0526 230.663 73.9905C230.131 73.879 229.577 73.9439 229.084 74.1752C228.592 74.4066 228.188 74.7919 227.934 75.2729C227.726 75.6158 227.517 75.3922 227.517 75.3922C227.517 75.3922 227.099 74.08 224.758 73.9011C224.08 73.8535 223.403 74.0009 222.805 74.3259C222.208 74.6509 221.717 75.1398 221.388 75.7351C220.705 75.1257 219.814 74.8003 218.898 74.8256C218.004 74.8821 217.149 75.2131 216.45 75.7735C215.75 76.3339 215.241 77.0964 214.991 77.9569L213.963 78.3744C210.622 80.2383 212.755 83.9811 212.755 83.9811C212.755 83.9811 213.739 85.3678 213.083 85.6959C212.542 86.0652 212.089 86.5488 211.756 87.1124C210.473 90.0947 213.858 91.2876 213.858 91.2876C213.55 91.5629 213.311 91.9071 213.161 92.2921C213.011 92.6772 212.954 93.0923 212.994 93.5037C213.035 93.915 213.172 94.3108 213.395 94.6591C213.618 95.0073 213.919 95.298 214.276 95.5075C214.16 95.9706 214.162 96.4551 214.281 96.9174C214.399 97.3797 214.631 97.8053 214.955 98.1558C215.279 98.5063 215.685 98.7708 216.136 98.9254C216.588 99.08 217.07 99.1199 217.541 99.0415C217.541 99.0415 214.559 106.139 215.185 110.299C210.003 107.055 204.544 104.276 198.872 101.994C198.872 101.994 197.083 94.0909 195.771 90.542C194.497 86.8465 192.832 83.2974 190.805 79.955C190.928 78.7254 190.928 77.4867 190.805 76.257C192.296 76.5105 194.667 76.3465 195.637 74.9896C195.939 74.5345 196.101 74.0002 196.101 73.4537C196.101 72.9072 195.939 72.3729 195.637 71.9179C194.577 71.2043 193.335 70.8109 192.058 70.7846C191.029 70.6206 189.955 70.4565 188.882 70.3671C187.584 53.7112 174.88 38.278 159.059 33.0889C155.335 31.8609 151.422 31.3006 147.503 31.4337H147.399C138.362 31.9556 129.654 32.7459 121.274 36.429C115.121 39.1077 109.599 43.0499 105.068 48.0001C100.537 52.9502 97.0964 58.7976 94.9706 65.163C93.8969 68.3391 93.7627 71.6644 92.8382 74.8554C92.0181 77.6885 90.5717 80.3129 89.5876 83.0864C88.4245 86.352 88.3649 89.9903 87.8579 93.3901C84.8756 113.848 79.0751 136.901 80.4022 147.443C81.0285 152.215 82.1021 156.047 83.1608 162.206C74.5123 162.966 57.2003 162.608 57.1854 162.608C57.2898 156.51 56.7828 157.881 61.4798 157.717C62.3298 157.717 62.4789 156.107 62.4789 156.107L62.6578 152.096C62.6578 152.096 62.6578 150.202 61.6737 150.754C60.6895 151.305 60.7641 154.228 60.7343 155.063C60.7044 155.898 60.272 156.003 60.272 156.003H58.2292C57.8117 156.003 57.6327 155.51 57.6327 155.51L57.9459 143.895C57.9459 143.895 58.5572 139.734 56.4547 139.794C54.3522 139.854 54.3821 143.03 54.3821 143.03V152.334C52.1752 152.722 51.8471 151.947 51.8471 151.947V148.547C51.8471 148.547 52.1901 147.265 51.191 147.056C50.192 146.847 50.028 148.129 50.028 148.129C50.028 148.129 50.028 150.426 49.849 152.364C49.6701 154.303 52.7418 154.392 53.6514 154.332C54.561 154.273 54.2926 155.391 54.2926 155.391L54.0391 162.728C45.3757 162.847 36.6376 162.966 28.0189 163.667C27.9912 163.667 27.9647 163.678 27.9451 163.697C27.9255 163.717 27.9146 163.744 27.9146 163.771C27.9146 163.799 27.9255 163.826 27.9451 163.845C27.9647 163.865 27.9912 163.876 28.0189 163.876C36.7271 164.025 74.721 163.607 83.3696 162.742C83.6827 164.606 83.9958 166.485 84.3388 168.364C85.4588 173.106 85.4996 178.038 84.4581 182.798C84.3835 183.141 84.2941 183.469 84.2046 183.797C79.5672 179.1 76.5999 179.324 71.6791 181.754C70.3669 183.737 70.188 186.422 67.5636 187.525C60.9878 190.746 57.9309 182.932 52.9655 181.56C49.4398 181.62 45.954 182.317 42.6767 183.618C37.5771 188.375 33.8194 196.129 29.7337 201.512C34.2071 196.099 37.6069 189.583 42.4381 184.364C45.8528 182.694 52.876 180.964 55.0083 182.977C62.2105 189.419 67.7426 192.073 72.1861 181.948C81.0136 177.221 82.624 184.722 84.1151 183.902C82.9339 187.377 82.1144 190.964 81.6697 194.608C74.3781 197.456 42.6171 210.026 42.6171 210.026L40.8724 212.322L57.2748 246.693L99.2203 227.86C99.2578 227.89 99.3056 227.903 99.3532 227.898C99.4007 227.892 99.4441 227.868 99.4738 227.83C99.5034 227.793 99.5169 227.745 99.5113 227.697C99.5058 227.65 99.4815 227.606 99.4439 227.577C97.3564 222.283 88.2008 200.438 86.3369 196.576C86.9632 193.892 90.3779 179.905 90.4077 179.905C91.7348 179.339 100.204 176.013 99.9509 175.79C97.6844 173.613 92.3313 169.825 92.3163 169.825C89.8885 163.068 88.7357 155.919 88.9166 148.741C89.0806 141.091 90.9445 133.636 92.376 126.18C93.8075 118.724 95.1197 111.477 96.4617 104.156C97.7291 97.5951 100.368 90.7359 99.8913 84.0556C101.46 82.5127 102.892 80.8363 104.171 79.0454C104.194 79.0232 104.212 78.9966 104.225 78.9671C104.237 78.9376 104.244 78.906 104.244 78.874C104.244 78.842 104.237 78.8103 104.225 78.7808C104.212 78.7514 104.194 78.7247 104.171 78.7025C103.798 78.2402 101.919 76.7938 101.561 76.3614C101.148 71.93 101.641 67.4609 103.01 63.226C104.379 58.9911 106.595 55.0791 109.524 51.728C119.783 40.0077 139.078 28.7795 155.645 32.6416C163.881 34.6901 171.314 39.1624 176.983 45.4802C183.417 52.2528 187.405 60.9802 188.315 70.2776C187.898 70.2554 187.48 70.2554 187.063 70.2776C186.705 69.5171 186.198 69.0996 185.571 69.6662C185.347 69.4741 185.062 69.3685 184.766 69.3685C184.471 69.3685 184.185 69.4741 183.961 69.6662C183.908 69.6886 183.862 69.7246 183.827 69.7706C183.694 69.646 183.537 69.5506 183.365 69.4908C183.193 69.4311 183.01 69.4082 182.828 69.4236C182.647 69.4391 182.471 69.4926 182.311 69.5806C182.152 69.6687 182.013 69.7893 181.903 69.9347C181.545 70.72 181.471 71.6058 181.695 72.4397C181.774 73.4034 182.058 74.339 182.53 75.1834C182.828 75.6158 183.454 75.8843 183.857 75.4667C183.948 75.6023 184.064 75.7188 184.2 75.8097C184.299 75.8818 184.41 75.9372 184.528 75.9737C183.027 75.9572 181.53 75.8125 180.054 75.5413C178.474 75.258 176.908 74.7659 175.312 74.5721C175.029 74.4975 170.496 73.3493 169.229 73.1704C169.004 73.1598 168.785 73.0987 168.588 72.9915C172.524 71.0232 177.326 72.3503 181.411 70.9039C181.531 70.9039 181.516 70.6504 181.411 70.6653C178.906 70.9784 176.431 71.1872 173.956 71.4109C172.135 71.4614 170.34 71.8508 168.662 72.559C146.519 71.2319 126.791 81.3418 126.791 81.3418L119.917 72.395C119.917 72.395 117.337 68.19 114.773 70.1136C112.208 72.0371 114.504 74.7063 114.504 74.7063L121.662 83.4294C115.75 85.7765 110.221 88.993 105.259 92.9726C101.621 96.9091 105.543 98.445 105.543 98.445C105.543 98.445 107.243 98.6687 111.776 95.8803C116.309 93.0919 127.075 89.1404 127.075 89.1404L134.292 96.9539C126.088 99.7006 118.177 103.252 110.672 107.556C109.994 107.918 109.482 108.528 109.243 109.259C109.004 109.99 109.057 110.785 109.39 111.477C110.195 113.431 113.863 111.656 113.863 111.656C119.828 106.273 137.468 101.875 137.468 101.875L145.177 109.584C142.038 109.925 138.956 110.667 136.006 111.791C129.52 113.923 132.815 117.114 132.815 117.114C132.815 117.114 136.185 119.858 139.182 117.904C141.964 116.395 144.925 115.243 147.995 114.475C150.56 116.681 157.538 123.839 157.538 123.839C161.818 125.613 160.655 121.572 160.655 121.572L153.497 112.521C156.673 110.866 161.937 111.537 161.937 111.537C161.937 111.537 165.247 112.7 166.649 110.553C168.051 108.406 164.934 107.377 164.934 107.377C160.222 106.527 149.516 108.421 149.516 108.421L142.687 100.041C150.247 96.939 167.648 95.1943 167.648 95.1943C167.648 95.1943 174.746 95.7461 174.134 92.6296C173.523 89.5132 167.529 89.3939 167.529 89.3939C154.377 89.6921 138.094 95.1943 138.094 95.1943L131.533 87.4107C147.428 79.5673 170.377 75.9439 174.269 76.0035C176.684 76.0035 176.505 75.4816 176.013 75.0492C178.16 75.7964 180.396 76.2528 182.664 76.4061C182.533 77.5288 182.703 78.666 183.156 79.7015C181.024 85.2784 181.128 91.7946 181.217 97.6696C181.307 103.545 181.575 109.196 183.618 114.698C186.176 121.284 190.456 127.062 196.009 131.429C196.009 134.918 196.427 138.422 196.71 141.867C197.59 152.946 198.619 154.243 200.378 162.012C201.216 165.708 201.567 169.498 201.422 173.285C201.422 173.568 201.884 173.643 201.929 173.285C203.003 166.47 200.11 159.417 198.678 152.856C197.187 145.848 197.187 138.646 196.308 131.563C199.098 133.778 202.093 135.72 205.254 137.363V138.735C204.225 143.03 204.852 147.682 205.075 152.006C204.986 152.215 205.284 169.9 205.075 174.746C204.449 174.492 203.808 174.269 203.167 174.075C200.289 173.18 197.202 173.329 194.593 171.794C192.76 170.514 190.751 169.51 188.628 168.811C185.422 168.051 176.983 175.611 175.581 178.355C173.961 181.364 173.434 184.842 174.09 188.196C174.52 189.871 175.366 191.409 176.55 192.669C177.748 194.198 179.177 195.532 180.785 196.621C184.11 198.619 189.329 197.694 192.833 196.621C192.641 197.663 192.289 198.669 191.789 199.603C191.491 200.157 191.308 200.766 191.253 201.392C191.148 202.138 190.895 203.435 191.939 203.674C192.982 203.912 193.862 202.6 194.399 201.989C195.637 200.498 196.636 198.902 197.993 197.515C199.021 197.635 200.035 197.724 201.064 197.799C200.975 198.604 200.184 208.654 199.722 213.515C199.722 213.536 199.726 213.556 199.734 213.575C199.743 213.593 199.756 213.61 199.771 213.623C199.787 213.635 199.806 213.645 199.826 213.649C199.846 213.654 199.866 213.654 199.886 213.65C199.886 213.65 201.81 214.067 203.376 214.544C201.884 227.964 205.672 241.206 209.236 253.97C209.236 253.97 206.924 259.442 204.404 260.918C203.256 261.574 201.288 261.351 200.662 262.678C199.171 265.913 203.331 267.285 205.717 266.048C206.81 265.292 208.067 264.806 209.385 264.631C210.524 264.646 211.659 264.781 212.77 265.034C214.476 265.548 216.28 265.651 218.033 265.332C221.851 264.139 220.792 259.293 219.912 256.534C225.146 244.397 221.15 229.783 230.007 219.062C231.745 219.354 233.497 219.553 235.256 219.659C235.599 225.996 240.087 232.139 243.621 237.105C247.737 242.652 252.132 247.987 256.788 253.09C256.788 253.09 256.788 259.502 254.178 260.888C252.956 261.544 251.822 261.291 252.12 263.095C252.657 266.271 255.953 265.72 257.727 264.079C258.488 263.261 259.322 262.512 260.217 261.843C261.372 261.177 262.625 260.699 263.93 260.426C265.677 260.063 267.331 259.348 268.791 258.324C272.609 255.222 267.479 249.869 267.479 249.869C266.868 245.917 266.391 241.966 265.72 238.029C268.548 238.585 271.472 238.395 274.204 237.478C275.248 239.923 282.897 241.951 280.884 237.03C283.374 236.807 285.745 237.672 288.221 237.418C290.696 237.165 293.007 235.614 295.542 235.166C295.751 235.166 295.661 234.809 295.438 234.838C285.954 238.581 286.163 236.33 280.795 236.837C280.288 235.554 275.993 234.466 275.233 235.345C274.881 235.471 274.582 235.711 274.385 236.028C274.187 236.345 274.103 236.719 274.144 237.09C271.639 238.253 268.18 237.582 265.705 237.836C262.633 219.808 259.859 224.669 261.351 216.632C263.691 216.097 265.895 215.081 267.822 213.65C267.941 213.65 268.09 213.649 268.031 213.426C267.233 211.447 266.56 209.42 266.018 207.357C265.591 205.137 265.49 202.866 265.72 200.617V199.871C265.75 195.995 265.279 192.131 264.318 188.375C266.51 188.166 268.687 187.898 270.849 187.555C273.011 187.212 280.079 186.571 280.303 184.259C280.303 183.663 279.885 183.454 279.334 183.32C278.782 183.186 269.641 183.126 263.08 183.186C262.794 181.498 262.293 179.855 261.589 178.295C265.288 174.66 268.68 170.725 271.729 166.53C272.385 165.62 273.026 164.666 273.637 163.697C280.169 164.04 304.951 163.354 311.005 162.593C311.184 162.832 311.273 162.399 310.96 162.399ZM98.9668 227.577C92.4058 229.783 66.0576 242.055 59.2282 245.232L42.7811 210.354C49.4613 207.596 83.2056 194.324 83.2354 194.28C85.4572 194.146 97.1327 222.82 98.9668 227.577ZM111.492 49.0887C107.818 52.5593 104.991 56.8273 103.228 61.5637C101.465 66.3 100.813 71.3781 101.323 76.4061C102.085 77.3008 102.913 78.1381 103.798 78.9112C102.328 80.5455 100.954 82.2631 99.6825 84.0556C99.5542 87.8048 98.9734 91.5248 97.9528 95.1347C97.1029 98.6388 96.3871 102.143 95.7161 105.677C94.225 113.133 92.8531 120.588 91.4515 128.044C90.1393 135.082 88.4692 142.165 88.3499 149.367C88.3455 156.355 89.4683 163.299 91.6752 169.93C94.1653 171.823 96.6853 173.553 98.9966 175.641C95.8712 176.677 92.8706 178.058 90.0498 179.756C88.1281 184.993 86.7782 190.423 86.0238 195.95C85.4273 194.891 84.637 193.728 83.2801 194.011L82.1767 194.444C82.6341 190.702 83.4992 187.022 84.7563 183.469C85.758 180.055 86.0523 176.473 85.6212 172.942C84.1301 161.013 81.0583 151.261 80.7601 144.715C80.5066 138.974 84.3537 117.77 85.3379 112.387C89.9753 87.0379 89.0806 86.0388 91.1234 81.0734C92.3373 78.6239 93.2631 76.0419 93.882 73.3792C97.8633 47.7467 117.472 33.7301 141.195 32.0749C129.952 34.3116 119.41 41.1857 111.492 49.0738V49.0887ZM275.397 235.763C277.38 235.107 282.062 236.494 280.69 239.491C279.065 241.399 271.744 237.88 275.397 235.763ZM222.79 90.2587C225.609 89.0746 228.769 88.9895 231.647 90.0201C231.647 90.0201 237.06 93.3304 233.795 100.309C230.529 107.287 228.576 104.782 228.576 104.782C228.576 104.782 225.698 101.099 222.969 100.846C221.304 100.7 219.628 100.929 218.063 101.517C218.063 101.517 218.242 92.2717 222.79 90.2587ZM224.43 107.362C223.923 107.123 221.776 106.154 221.194 105.871C221.016 105.871 221.03 105.528 221.194 105.543C222.463 105.679 223.659 106.199 224.624 107.034C224.658 107.064 224.681 107.104 224.688 107.149C224.695 107.194 224.686 107.239 224.663 107.278C224.64 107.317 224.604 107.347 224.562 107.362C224.519 107.377 224.473 107.377 224.43 107.362ZM188.36 70.6802C188.412 70.7168 188.475 70.7364 188.539 70.7364C188.603 70.7364 188.665 70.7168 188.718 70.6802C189.985 70.8144 191.253 70.9188 192.52 71.1425C193.423 71.1994 194.301 71.4648 195.085 71.9179C195.297 72.1596 195.454 72.445 195.545 72.7539C195.636 73.0628 195.657 73.3877 195.609 73.706C195.561 74.0242 195.443 74.3281 195.265 74.5962C195.087 74.8643 194.853 75.0901 194.578 75.258C193.39 75.8217 192.055 75.999 190.761 75.765C190.699 75.1013 190.479 74.462 190.119 73.9011C189.833 73.5429 189.432 73.294 188.984 73.1963C188.536 73.0985 188.068 73.1578 187.659 73.3642C187.658 72.342 187.461 71.3295 187.077 70.382C187.51 70.5758 187.927 70.6355 188.36 70.6802ZM186.6 70.2031C186.817 70.5719 186.968 70.9755 187.048 71.396C187.199 72.1002 187.314 72.812 187.391 73.5283H187.256C186.615 73.8116 185.765 74.3931 185.765 75.1685C185.494 74.365 185.344 73.5259 185.318 72.6783C185.234 71.9232 185.294 71.159 185.497 70.4267C185.646 69.9048 186.153 69.6066 186.6 70.2031ZM185.929 75.9141H184.945C185.132 75.8593 185.302 75.7565 185.437 75.6158C185.538 75.6962 185.667 75.7337 185.795 75.7202C185.829 75.792 185.874 75.8575 185.929 75.9141ZM182.037 72.1266C181.918 71.5864 181.918 71.0266 182.037 70.4864C182.047 70.3176 182.107 70.1555 182.21 70.0209C182.312 69.8864 182.452 69.7854 182.612 69.731C182.773 69.6765 182.945 69.6711 183.108 69.7153C183.272 69.7596 183.418 69.8515 183.529 69.9794C183.145 70.7866 183.005 71.6883 183.126 72.5739C183.105 73.4244 183.252 74.2707 183.558 75.0641C182.559 75.6755 182.097 72.6038 182.037 72.1266ZM183.946 74.7063C183.831 74.4862 183.751 74.2499 183.708 74.0054C183.606 73.4597 183.556 72.9055 183.558 72.3503C183.558 71.3661 183.708 69.1891 185.303 69.9048C184.717 71.6017 184.654 73.4357 185.124 75.1685C184.438 75.3773 184.065 75.2282 183.946 74.7063ZM196.188 130.728C196.172 130.713 196.151 130.705 196.129 130.705C196.107 130.705 196.085 130.713 196.069 130.728C190.604 126.352 186.412 120.59 183.931 114.042C181.963 108.674 181.769 103.053 181.709 97.3863C181.589 91.49 182.189 85.601 183.499 79.8506C183.529 79.7434 183.529 79.6298 183.499 79.5226C183.036 78.5983 182.811 77.5735 182.843 76.5403C184.026 76.6195 185.215 76.5845 186.392 76.436H186.466C187.044 76.5339 187.633 76.5339 188.211 76.436C188.33 76.436 188.211 76.2421 188.211 76.2272C187.555 76.1527 185.825 76.3763 186.183 75.0641C186.317 74.5422 187.376 74.0651 187.868 73.916C191.104 72.9915 190.522 78.1209 190.477 80.0296C190.477 80.119 194.16 87.3659 195.547 91.1534C196.173 92.9129 196.755 94.6874 197.232 96.4916C197.709 98.2959 197.993 100.354 198.619 102.203C198.619 102.292 208.937 107.63 215.424 111.254C216.527 115.205 221.239 118.486 226.965 117.308C232.691 116.13 236.374 107.213 236.329 104.275C236.285 101.338 238.805 97.0284 238.805 97.0284C238.805 97.0284 241.19 93.9418 242.115 97.1626C243.039 100.383 239.312 101.472 239.312 101.472C238.685 104.111 238.641 113.52 239.312 115.161C236.394 115.772 233.52 116.574 230.708 117.561C225.457 119.075 220.508 121.486 216.08 124.689C212.114 127.805 207.968 131.697 205.97 136.439C205.881 136.663 205.791 136.901 205.717 137.125C205.717 137.125 207.521 123.928 210.19 117.636C210.19 117.472 210.026 117.323 209.951 117.487C207.158 123.589 205.554 130.168 205.225 136.871C202.021 135.121 198.994 133.063 196.188 130.728ZM209.758 131.384C214.307 126.024 220.118 121.879 226.667 119.321C231.991 117.021 237.614 115.485 243.368 114.758C230.827 117.74 234.794 129.908 237.85 135.768C239.88 139.596 242.385 143.154 245.306 146.355C247.855 149.189 251.083 151.328 254.685 152.573C254.685 152.573 254.074 155.346 253.85 156.703H253.224C253.09 156.703 253.09 156.927 253.224 156.927H253.82C253.701 157.673 253.597 158.418 253.507 159.179H252.583C252.284 159.179 252.404 159.477 252.583 159.462H253.462C253.343 160.312 253.254 161.162 253.149 161.997L252.031 161.892C251.867 161.892 251.882 162.116 252.031 162.131C252.397 162.164 252.76 162.219 253.12 162.295C253.015 163.22 252.911 164.159 252.791 165.083L251.703 164.875C251.671 164.875 251.641 164.887 251.619 164.91C251.596 164.932 251.584 164.962 251.584 164.994C251.584 165.026 251.596 165.056 251.619 165.078C251.641 165.101 251.671 165.113 251.703 165.113L252.821 165.412C252.821 165.65 252.568 167.618 252.493 168.394C252.106 168.289 251.703 168.2 251.3 168.125C251.278 168.134 251.258 168.149 251.244 168.169C251.23 168.189 251.223 168.213 251.223 168.237C251.223 168.262 251.23 168.285 251.244 168.305C251.258 168.325 251.278 168.341 251.3 168.349C251.718 168.439 252.12 168.543 252.523 168.662C252.12 172.479 251.807 176.312 251.509 180.129C251.509 180.129 247.886 183.559 247.036 184.259C244.337 183.827 241.697 183.022 239.043 182.336C235.808 181.516 232.527 180.845 229.232 180.323L227.905 180.144H228.486C230.171 177.684 229.426 175.417 226.92 173.672C225.921 172.181 226.428 170.422 225.429 168.796C221.03 167.872 219.584 175.7 220.702 178.966C220.865 179.177 221.068 179.355 221.299 179.488C212.188 178.623 211.085 177.206 205.567 175.014C205.576 174.98 205.576 174.944 205.567 174.91C205.776 170.705 205.876 166.495 205.866 162.28C206.32 161.492 206.733 160.681 207.103 159.85C207.357 159.268 208.073 159.059 208.49 158.582C208.87 158.006 209.039 157.316 208.967 156.629C209.016 155.689 208.986 154.746 208.878 153.811C208.214 152.944 207.431 152.176 206.552 151.529C206.196 151.415 205.82 151.374 205.448 151.41C204.986 143.089 204.24 137.9 209.787 131.384H209.758ZM198.276 197.381C198.514 197.173 198.753 196.964 199.021 196.77C199.29 196.576 199.021 196.397 198.872 196.502C196.442 197.993 195.219 200.826 193.131 202.705C192.938 202.884 192.684 203.256 192.341 203.256C190.94 203.256 191.611 202.69 191.566 202.078C191.559 201.377 191.728 200.685 192.058 200.065C192.769 198.925 193.098 197.588 192.997 196.248C192.997 196.248 184.334 198.455 180.904 196.397C177.922 194.563 174.746 190.82 174.269 187.301C173.877 184.028 174.557 180.716 176.207 177.862C176.997 176.491 183.797 169.885 186.988 169.214C188.65 169.005 190.328 169.449 191.67 170.452C193.423 171.755 195.377 172.763 197.456 173.434C198.947 173.777 200.349 173.866 201.78 174.239C205.731 175.268 209.489 177.594 213.396 178.712C216.044 179.366 218.752 179.746 221.478 179.846L222.298 179.935C223.12 180.119 223.961 180.209 224.803 180.204C226.98 180.457 229.172 180.77 231.334 181.158C234.406 181.724 237.433 182.44 240.43 183.26C243.282 184.163 246.229 184.729 249.213 184.945C248.924 185.632 248.776 186.37 248.776 187.115C248.776 187.86 248.924 188.597 249.213 189.284C240.773 189.806 233.064 193.012 224.982 195.249C216.262 197.449 207.234 198.169 198.276 197.381ZM223.312 234.555C222.805 238.447 222.641 242.369 222.089 246.26C221.567 249.839 219.45 256.698 219.465 256.773C220.21 258.771 220.956 260.575 220.106 262.737C219.791 263.662 219.148 264.438 218.299 264.919C217.449 265.4 216.453 265.552 215.498 265.347C212.978 265.123 210.056 263.856 207.551 264.721C206.906 265.01 206.288 265.355 205.702 265.749C204.524 266.391 202.168 266.883 201.228 265.466C200.11 263.796 201.228 262.693 202.719 262.215C203.348 262.032 203.957 261.787 204.539 261.485C207.059 259.994 209.623 254.149 209.608 254.029C205.97 241.042 202.54 228.397 203.525 214.783C204.658 215.141 204.896 215.349 206.045 215.663C206.601 215.961 207.218 216.13 207.849 216.155C209.638 216.259 212.114 217.139 212.859 215.618C213.171 214.995 213.397 214.333 213.53 213.65C214.082 213.336 214.022 207.133 214.022 206.984C214.777 209.688 215.384 212.431 215.841 215.2C216.453 214.977 217.974 212.114 218.376 211.294C218.704 212.964 219.196 214.604 219.554 216.259C222.805 217.662 226.215 218.663 229.709 219.241C225.504 223.103 224.013 229.068 223.312 234.555ZM264.064 232.512C265.451 238.357 266.033 244.262 267.047 250.167C267.047 250.257 270.521 253.895 269.746 256.34C269.362 257.163 268.799 257.889 268.096 258.465C267.394 259.041 266.572 259.451 265.69 259.666C262.812 260.68 260.366 261.023 258.13 263.244C257.6 263.883 256.97 264.431 256.266 264.87C255.932 265.079 255.554 265.207 255.162 265.243C254.77 265.279 254.375 265.222 254.009 265.077C253.643 264.932 253.316 264.702 253.055 264.407C252.795 264.112 252.607 263.76 252.508 263.379C252.284 262.215 253.105 261.783 253.999 261.38C254.564 261.127 255.071 260.762 255.49 260.307C257.175 258.443 257.056 253 256.982 252.851C252.508 247.796 248.035 242.682 244.083 237.209C240.132 231.737 236.553 226.22 235.524 219.718C239.538 219.972 243.566 219.574 247.453 218.54C247.764 217.433 247.929 216.29 247.945 215.141C248.318 215.648 250.54 217.452 251.092 218.033H251.226C251.599 217.541 253.09 215.513 253.448 215.051C254.491 215.752 256.788 217.064 256.803 217.064C258.191 217.202 259.593 217.137 260.963 216.87C259.397 221.925 261.858 223.252 264.064 232.512ZM265.198 196.919C264.561 196.276 263.8 195.769 262.961 195.428C262.111 195.249 261.902 195.547 261.38 196.248C259.442 198.872 261.38 203.927 264.273 206.239C264.371 206.337 264.495 206.405 264.631 206.432C264.974 206.432 265.317 205.269 265.347 205.061C265.667 208.037 266.405 210.953 267.539 213.724C264.42 215.919 260.691 217.082 256.877 217.049C255.874 216.098 254.679 215.371 253.373 214.917C252.521 215.914 251.762 216.987 251.107 218.123C250.194 216.897 249.092 215.825 247.841 214.947C247.841 214.947 247.647 214.947 247.632 215.036C247.498 215.573 247.349 217.84 247.304 218.406C240.335 219.743 233.164 219.611 226.249 218.018C224.132 217.407 222 216.632 219.823 216.214C219.636 214.371 219.205 212.561 218.54 210.831C218.54 210.712 218.272 210.831 218.242 210.831C217.596 212.244 216.817 213.592 215.916 214.857C215.677 213.187 215.319 211.532 215.051 209.862C214.791 208.605 214.396 207.38 213.873 206.209C213.873 206.209 213.634 206.313 213.62 206.388C213.62 207.953 213.485 209.504 213.441 211.07C212.785 210.697 208.535 211.8 207.879 212.129C207.223 212.457 205.135 213.918 205.538 215.111C203.689 214.514 199.961 213.784 199.976 213.754C200.527 210.22 201.005 206.582 201.243 202.973C201.472 202.99 201.7 202.938 201.899 202.824C203.733 201.855 206.552 200.871 206.373 198.351C206.373 198.261 206.283 198.172 206.164 198.112C212.11 198.034 218.026 197.253 223.789 195.786C232.244 193.653 240.52 189.821 249.347 189.717C249.371 189.727 249.396 189.732 249.422 189.732C249.447 189.732 249.472 189.727 249.496 189.717C249.599 189.904 249.737 190.069 249.905 190.202C250.072 190.335 250.264 190.432 250.47 190.489C250.676 190.546 250.891 190.562 251.103 190.534C251.315 190.506 251.519 190.436 251.703 190.328C251.912 190.53 252.165 190.681 252.442 190.77C252.719 190.859 253.012 190.883 253.3 190.841C253.588 190.8 253.862 190.693 254.102 190.529C254.342 190.365 254.542 190.149 254.685 189.896C254.847 190.084 255.059 190.223 255.296 190.297C255.534 190.371 255.787 190.376 256.027 190.313C256.326 190.256 256.604 190.123 256.837 189.927C257.069 189.732 257.247 189.479 257.354 189.195C259.576 189.106 261.828 188.971 264.005 188.763C264.653 191.439 265.052 194.169 265.198 196.919ZM277.425 183.916C278.409 183.916 280.228 184.155 279.035 185.497C277.842 186.839 270.089 187.57 268.001 187.823C264.452 188.256 261.052 188.494 257.563 188.628C257.894 187.059 257.949 185.445 257.727 183.857L277.425 183.916ZM262.752 183.469H257.638C257.638 182.992 257.548 182.589 257.518 182.306C257.518 182.306 260.098 179.905 261.365 178.683C261.574 179.533 262.365 182.41 262.752 183.469ZM273.488 163.637H273.414C273.382 163.639 273.351 163.65 273.325 163.669C273.299 163.688 273.279 163.714 273.268 163.744C273.257 163.774 273.255 163.807 273.262 163.839C273.27 163.87 273.286 163.898 273.309 163.92C272.937 164.517 272.549 165.098 272.131 165.68C267.757 171.638 262.786 177.134 257.295 182.082C257.295 182.082 257.116 182.291 257.146 182.395C257.562 184.376 257.459 186.431 256.847 188.36C256.594 189.091 256.475 189.449 255.684 189.404C254.894 189.359 254.775 189.21 254.626 188.599C254.528 187.736 254.528 186.866 254.626 186.004C254.626 185.976 254.615 185.95 254.595 185.93C254.575 185.911 254.549 185.9 254.521 185.9C254.493 185.9 254.467 185.911 254.447 185.93C254.428 185.95 254.417 185.976 254.417 186.004C254.107 187.091 254.107 188.242 254.417 189.329C253.865 190.328 252.031 190.507 251.912 189.15C251.884 187.94 252.045 186.732 252.389 185.572C252.4 185.53 252.395 185.485 252.375 185.447C252.356 185.408 252.323 185.378 252.283 185.362C252.243 185.345 252.199 185.344 252.158 185.358C252.117 185.372 252.083 185.4 252.061 185.437C251.566 186.356 251.29 187.377 251.256 188.42C251.195 188.88 251.257 189.348 251.435 189.777C249.764 190.746 249.347 187.853 249.347 187.018C249.388 186.088 249.543 185.166 249.809 184.274C249.812 184.249 249.806 184.224 249.793 184.202C249.78 184.18 249.761 184.163 249.737 184.153C249.714 184.144 249.688 184.141 249.664 184.147C249.639 184.152 249.617 184.166 249.6 184.185C249.549 184.302 249.504 184.421 249.466 184.543H249.392C248.751 184.543 248.109 184.408 247.468 184.319C249.022 183.103 250.482 181.772 251.837 180.338C252.12 176.491 252.523 172.643 252.955 168.811C255.221 169.596 257.361 170.707 259.308 172.107C259.412 172.196 259.561 172.002 259.457 171.913C257.591 170.296 255.376 169.132 252.985 168.513C253.075 167.842 253.298 165.889 253.343 165.531C255.527 166.265 257.638 167.199 259.651 168.319C259.693 168.335 259.74 168.335 259.782 168.319C259.825 168.304 259.861 168.275 259.884 168.236C259.907 168.197 259.915 168.151 259.908 168.106C259.901 168.062 259.879 168.021 259.845 167.991C257.899 166.632 255.705 165.669 253.388 165.158C253.507 164.234 253.641 163.294 253.776 162.355C256.212 162.901 258.536 163.859 260.65 165.188C260.754 165.188 260.873 165.083 260.784 165.009C258.762 163.425 256.362 162.397 253.82 162.027C253.955 161.162 254.074 160.297 254.208 159.417C256.866 159.548 259.44 160.387 261.664 161.848C261.828 161.952 262.051 161.684 261.887 161.55C259.72 159.871 257.038 158.996 254.298 159.074C254.402 158.344 254.506 157.583 254.596 156.867C257 157.014 259.333 157.74 261.395 158.985C261.574 159.089 261.723 158.821 261.559 158.701C259.488 157.297 257.022 156.592 254.521 156.688C254.763 155.292 254.927 153.883 255.013 152.469C247.856 149.65 242.905 143.522 239.088 137.02C235.271 130.519 232.631 120.409 239.878 116.473C248.825 111.627 260.62 117.293 267.255 125.509C268.436 127.026 269.474 128.648 270.357 130.355C273.252 135.672 275.266 141.423 276.321 147.384C277.082 150.766 277.082 154.275 276.321 157.658C275.659 159.773 274.706 161.785 273.488 163.637Z" fill="url(#paint12_linear_2315_2839)"/>
<path d="M241.847 208.908C240.236 210.16 240.356 211.398 241.668 212.785C241.846 213.025 242.073 213.225 242.333 213.372C242.593 213.519 242.881 213.611 243.179 213.64C243.477 213.67 243.777 213.637 244.061 213.543C244.345 213.45 244.607 213.298 244.829 213.098C245.128 212.814 245.356 212.463 245.493 212.074C245.63 211.686 245.674 211.27 245.619 210.861C245.41 209.236 243.711 207.446 241.847 208.908ZM250.868 196.024C250.275 196.016 249.689 196.159 249.167 196.441C248.645 196.723 248.204 197.134 247.886 197.635C246.305 200.438 246.902 203.003 248.437 204.226C248.75 204.49 249.113 204.69 249.503 204.813C249.894 204.937 250.306 204.981 250.714 204.943C251.122 204.906 251.518 204.787 251.88 204.595C252.242 204.403 252.562 204.14 252.821 203.823C253.65 203.114 254.199 202.134 254.371 201.058C254.543 199.982 254.327 198.879 253.761 197.948C253.03 196.636 252.329 195.905 250.868 196.024ZM231.677 199.081C228.203 200.17 224.878 205.374 226.324 207.804C227.15 208.88 228.317 209.643 229.634 209.966C232.542 210.503 234.391 207.715 235.599 205.269C237.701 201.258 234.346 198.246 231.677 199.081ZM219.927 131.623C217.989 128.789 211.696 131.473 214.872 135.246C216.975 136.707 222.119 134.277 219.927 131.623ZM227.681 138.243C230.797 137.199 229.888 131.652 226.458 131.533C222.73 131.429 224.177 138.526 227.681 138.243ZM231.424 148.83C232.289 149.799 233.273 150.157 234.316 151.141C234.6 151.827 234.108 153.736 235.808 153.393C238.79 151.574 240.937 146.623 237.642 143.552C233.124 138.691 227.174 144.282 231.424 148.83ZM223.088 150.157C223.67 150.396 224.028 150.47 224.863 149.784C227.681 147.443 227.577 146.683 227.442 145.505C227.39 144.734 227.184 143.981 226.839 143.29C226.493 142.599 226.014 141.984 225.429 141.479C225.115 141.22 224.718 141.082 224.311 141.091C222.164 141.24 217.452 147.801 223.088 150.157ZM213.306 142.09C211.457 141.106 208.997 145.177 210.458 146.653C213.336 149.546 216.05 143.865 213.306 142.09ZM213.247 156.256C213.008 158.239 214.335 159.745 212.501 161.535C212.322 165.561 215.901 166.232 218.153 163.22C218.451 161.177 219.554 158.746 218.913 156.36C217.661 152.319 214.261 152.424 213.247 156.256ZM227.591 156.942C222.894 155.451 221.284 162.161 225.146 164.159C229.783 166.083 231.454 158.791 227.591 156.942ZM245.246 154.303C242.577 152.319 237.701 157.061 240.147 159.85C243.01 164.01 249.824 158.18 245.246 154.303ZM235.137 161.385C232.676 163.145 236.031 167.35 238.447 165.322C240.863 163.294 237.716 158.731 235.137 161.385ZM246.663 171.167C244.203 163.712 237.314 171.003 239.938 175.775C241.727 181.024 248.557 175.089 246.663 171.167ZM233.288 168.796C232.835 168.976 232.461 169.312 232.234 169.743C232.007 170.174 231.942 170.673 232.05 171.148C232.158 171.623 232.432 172.044 232.823 172.334C233.214 172.625 233.696 172.766 234.182 172.733C236.971 172.405 235.793 168.245 233.288 168.796ZM213.739 171.913C213.739 170.228 211.01 167.335 209.474 169.885C208.386 172.837 212.516 175.149 213.739 171.913ZM227.934 97.7591C228.248 97.595 228.486 96.2679 228.486 95.8206C228.475 95.7801 228.45 95.7445 228.417 95.7191C228.383 95.6937 228.342 95.68 228.3 95.68C228.258 95.68 228.217 95.6937 228.183 95.7191C228.149 95.7445 228.125 95.7801 228.113 95.8206C227.838 96.408 227.667 97.0386 227.606 97.6845C227.622 97.7125 227.643 97.737 227.668 97.7562C227.693 97.7755 227.722 97.7891 227.754 97.7961C227.785 97.8032 227.817 97.8035 227.848 97.7971C227.879 97.7908 227.909 97.7778 227.934 97.7591ZM220.553 95.4031C220.275 95.9312 220.103 96.5087 220.046 97.103C220.046 97.2521 220.27 97.3863 220.374 97.2372C220.647 96.6709 220.775 96.0459 220.747 95.418C220.741 95.3979 220.729 95.3801 220.713 95.367C220.696 95.3539 220.676 95.346 220.655 95.3444C220.634 95.3428 220.614 95.3475 220.595 95.358C220.577 95.3685 220.563 95.3842 220.553 95.4031ZM223.879 99.0116C224.013 99.0116 224.028 98.8625 223.879 98.8029C223.729 98.7432 223.088 98.4599 222.969 98.2064C222.85 97.9529 224.326 96.3872 224.46 95.8206C224.46 95.8206 224.46 95.7162 224.341 95.8206C224.013 96.2828 222.656 97.774 222.551 98.102C222.417 98.6537 223.476 98.9669 223.879 99.0116ZM230.276 94.0909C230.276 94.0909 230.425 94.0909 230.41 93.9865C230.246 93.0918 228.68 92.7638 227.979 93.1366V93.2559C228.399 93.225 228.821 93.2835 229.217 93.4274C229.613 93.5713 229.973 93.7975 230.276 94.0909ZM222.164 93.6137C221.91 92.9427 220.986 93.0173 220.509 93.3602V93.4646C221.045 93.226 221.478 93.4646 222 93.7181C222.089 93.7479 222.194 93.7032 222.164 93.6137Z" fill="url(#paint13_linear_2315_2839)"/>
</g>
<defs>
<linearGradient id="paint0_linear_2315_2839" x1="158.513" y1="197.804" x2="38.7503" y2="276.123" gradientUnits="userSpaceOnUse">
<stop stop-color="#0072FF"/>
<stop offset="1" stop-color="#12B772"/>
</linearGradient>
<linearGradient id="paint1_linear_2315_2839" x1="80.5603" y1="228.976" x2="34.0711" y2="257.456" gradientUnits="userSpaceOnUse">
<stop stop-color="#0072FF"/>
<stop offset="1" stop-color="#12B772"/>
</linearGradient>
<linearGradient id="paint2_linear_2315_2839" x1="172.731" y1="178.691" x2="17.2335" y2="269.754" gradientUnits="userSpaceOnUse">
<stop stop-color="#0072FF"/>
<stop offset="1" stop-color="#12B772"/>
</linearGradient>
<linearGradient id="paint3_linear_2315_2839" x1="212.652" y1="201.492" x2="161.748" y2="264.588" gradientUnits="userSpaceOnUse">
<stop stop-color="#0072FF"/>
<stop offset="1" stop-color="#12B772"/>
</linearGradient>
<linearGradient id="paint4_linear_2315_2839" x1="139.004" y1="250.376" x2="56.7149" y2="325.7" gradientUnits="userSpaceOnUse">
<stop stop-color="#0072FF"/>
<stop offset="1" stop-color="#12B772"/>
</linearGradient>
<linearGradient id="paint5_linear_2315_2839" x1="159.8" y1="280.083" x2="155.399" y2="282.904" gradientUnits="userSpaceOnUse">
<stop stop-color="#0072FF"/>
<stop offset="1" stop-color="#12B772"/>
</linearGradient>
<linearGradient id="paint6_linear_2315_2839" x1="170.484" y1="276.503" x2="161.85" y2="286.172" gradientUnits="userSpaceOnUse">
<stop stop-color="#0072FF"/>
<stop offset="1" stop-color="#12B772"/>
</linearGradient>
<linearGradient id="paint7_linear_2315_2839" x1="183.107" y1="269.632" x2="172.576" y2="277.167" gradientUnits="userSpaceOnUse">
<stop stop-color="#0072FF"/>
<stop offset="1" stop-color="#12B772"/>
</linearGradient>
<linearGradient id="paint8_linear_2315_2839" x1="166.491" y1="275.054" x2="148.496" y2="299.128" gradientUnits="userSpaceOnUse">
<stop stop-color="#0072FF"/>
<stop offset="1" stop-color="#12B772"/>
</linearGradient>
<linearGradient id="paint9_linear_2315_2839" x1="133.946" y1="277.322" x2="124.505" y2="288.324" gradientUnits="userSpaceOnUse">
<stop stop-color="#0072FF"/>
<stop offset="1" stop-color="#12B772"/>
</linearGradient>
<linearGradient id="paint10_linear_2315_2839" x1="121.637" y1="270.53" x2="112.401" y2="276.103" gradientUnits="userSpaceOnUse">
<stop stop-color="#0072FF"/>
<stop offset="1" stop-color="#12B772"/>
</linearGradient>
<linearGradient id="paint11_linear_2315_2839" x1="188.108" y1="188.821" x2="-24.7036" y2="307.525" gradientUnits="userSpaceOnUse">
<stop stop-color="#0072FF"/>
<stop offset="1" stop-color="#12B772"/>
</linearGradient>
<linearGradient id="paint12_linear_2315_2839" x1="182.804" y1="170.472" x2="-26.3308" y2="302.806" gradientUnits="userSpaceOnUse">
<stop stop-color="#0072FF"/>
<stop offset="1" stop-color="#12B772"/>
</linearGradient>
<linearGradient id="paint13_linear_2315_2839" x1="233.974" y1="164.362" x2="189.041" y2="173.188" gradientUnits="userSpaceOnUse">
<stop stop-color="#0072FF"/>
<stop offset="1" stop-color="#12B772"/>
</linearGradient>
</defs>
</svg>
