<svg width="350" height="350" viewBox="0 0 350 350" fill="none" xmlns="http://www.w3.org/2000/svg">
<mask id="mask0_2315_2806" style="mask-type:alpha" maskUnits="userSpaceOnUse" x="0" y="0" width="350" height="350">
<rect width="350" height="350" fill="#D9D9D9"/>
</mask>
<g mask="url(#mask0_2315_2806)">
<path d="M248.168 63.1801C340.741 130.104 356.983 171.995 313.091 249.938C258.346 336.76 150.28 265.195 55.7878 219.042C-38.7045 172.889 20.9622 36.7313 91.2736 59.6898C161.585 82.6482 132.452 -20.4742 248.168 63.1801Z" fill="#EFF2FF"/>
<path d="M244.489 98.2861C244.489 98.186 244.449 98.09 244.379 98.0192C244.308 97.9485 244.212 97.9087 244.112 97.9087C244.012 97.9087 243.916 97.9485 243.845 98.0192C243.774 98.09 243.734 98.186 243.734 98.2861C243.734 98.4119 243.511 99.6839 243.511 99.7538C243.498 99.8298 243.502 99.9076 243.523 99.9818C243.544 100.056 243.58 100.125 243.63 100.184C243.68 100.242 243.742 100.289 243.812 100.322C243.882 100.354 243.958 100.371 244.035 100.371C244.112 100.371 244.188 100.354 244.258 100.322C244.328 100.289 244.39 100.242 244.44 100.184C244.49 100.125 244.526 100.056 244.547 99.9818C244.567 99.9076 244.571 99.8298 244.559 99.7538C244.559 99.7538 244.489 98.356 244.489 98.2861ZM249.927 100.047C249.911 100.197 249.955 100.347 250.049 100.465C250.143 100.583 250.28 100.659 250.43 100.676C251.255 100.676 250.891 99.4044 250.905 98.6076C250.905 98.5075 250.865 98.4115 250.795 98.3407C250.724 98.27 250.628 98.2302 250.528 98.2302C250.428 98.2302 250.332 98.27 250.261 98.3407C250.19 98.4115 250.15 98.5075 250.15 98.6076C250.136 98.6775 249.927 99.9775 249.927 100.047ZM249.507 107.316C250.435 107.401 251.364 107.175 252.149 106.673C252.149 106.883 252.149 107.106 252.317 107.148C252.369 107.158 252.424 107.153 252.473 107.133C252.523 107.113 252.565 107.08 252.597 107.036C252.877 106.296 253.115 105.54 253.309 104.772C253.407 104.297 252.68 103.933 252.527 104.437C252.345 105.079 251.958 105.645 251.426 106.048C250.894 106.452 250.245 106.671 249.577 106.673C249.535 106.668 249.492 106.672 249.452 106.684C249.411 106.696 249.373 106.716 249.34 106.743C249.307 106.769 249.279 106.802 249.259 106.839C249.238 106.876 249.225 106.917 249.221 106.96C249.216 107.002 249.22 107.045 249.232 107.085C249.244 107.126 249.264 107.164 249.29 107.197C249.317 107.23 249.35 107.258 249.387 107.278C249.424 107.299 249.465 107.311 249.507 107.316Z" fill="url(#paint0_linear_2315_2806)"/>
<path d="M300.905 246.302C299.773 245.883 281.336 237.621 272.823 232.603C274.472 231.135 274.528 231.205 274.444 230.968C265.694 210.601 264.813 207.289 263.262 203.486C261.71 199.684 262.521 197.797 263.332 194.498C264.101 191.451 266.463 184.644 266.673 180.856C266.77 179.136 266.826 178.158 266.868 177.571C269.664 172.301 279.295 153.808 280.972 150.607C283.852 145.295 282.706 142.709 278.442 140.319C279.519 133.036 273.256 118.848 260.368 112.824C260.271 111.426 258.845 110.461 257.936 110.028C257.864 109.495 257.831 108.958 257.838 108.42C258.275 108.997 258.889 109.414 259.586 109.609C259.629 109.617 259.674 109.613 259.716 109.598C259.757 109.584 259.794 109.558 259.823 109.525C260.019 109.245 259.11 108.742 259.068 107.064C259.711 108.127 261.179 108.141 261.095 107.68C260.292 103.669 260.586 99.5154 261.948 95.6582C262.186 95.1034 262.273 94.4954 262.199 93.8962C262.126 93.297 261.894 92.728 261.529 92.2475C263.164 91.283 262.731 88.7669 261.724 87.2153C260.187 84.839 257.377 83.4272 253.421 82.7283C252.308 82.4792 251.154 82.4753 250.038 82.7166C248.923 82.958 247.874 83.4389 246.963 84.1261C245.705 84.881 241.721 87.6067 242.532 91.3249C241.54 92.8066 241.498 95.2948 243.245 95.9098H241.204C241.079 95.9296 240.962 95.9869 240.87 96.0742C240.777 96.1616 240.714 96.2748 240.687 96.399C240.491 98.4958 240.687 101.222 242.616 102.34C242.294 105.974 242.267 106.981 241.218 108.448C241.195 108.481 241.183 108.52 241.183 108.56C241.183 108.6 241.195 108.639 241.218 108.672C241.4 109.021 242.616 108.434 242.979 108.211C243.832 109.063 242.979 109.818 243.525 109.902C244.079 109.907 244.616 109.708 245.034 109.343L245.495 109.595C244.508 109.816 243.635 110.387 243.035 111.202C240.043 111.761 237.191 112.911 234.648 114.585C216.379 103.78 194.237 90.8217 193.175 90.2067C190.785 88.8787 187.458 88.1519 185.081 90.4723C184.69 90.8637 179.812 98.7055 177.673 102.2C177.254 81.1208 177.981 34.4614 163.443 21.9788C160.06 19.4347 125.157 19.7562 118.014 19.6724C91.0218 19.2251 59.4169 19.1412 54.9998 21.2659C42.5312 27.4583 42.2097 46.6784 42 60.7125V102.522C42.0409 102.689 42.1204 102.844 42.232 102.975C42.3437 103.106 42.4844 103.209 42.643 103.276C43.3699 103.472 43.1742 101.655 48.9752 94.6378C50.2052 95.8958 55.1116 100.928 55.7267 101.417C56.9428 102.382 57.8793 101.277 58.6761 100.019C59.9586 98.2051 61.3595 96.4773 62.8695 94.8475C63.6663 95.5883 67.7759 100.299 68.363 100.886C69.4253 101.92 70.3339 100.886 71.1586 99.7119C72.1092 98.3141 75.6736 94.3442 75.8274 94.2045C75.9812 94.0647 76.065 94.0507 76.2467 94.3023C76.9457 95.2668 79.7273 99.2646 80.7897 100.648C79.3918 121.238 80.1187 159.008 82.3133 183.623C63.0792 189.354 52.2181 209.218 48.9192 220.358C43.6494 234.504 40.8538 254.2 48.8214 267.018C53.6858 274.846 61.9889 279.416 73.5489 280.605C213.332 278.69 203.938 278.927 203.938 278.606C203.938 243.339 204.008 245.589 203.826 245.491C186.409 235.958 118.797 197.811 101.338 188.25C94.3354 185.71 86.7975 185.012 79.4478 186.223C86.7304 183.428 94.74 183.204 101.813 183.176C106.006 183.176 179.253 183.693 184.355 184.113C189.053 184.515 193.606 185.947 197.69 188.306C207.698 195.002 240.799 214.767 260.592 226.579C274.025 234.602 281.378 239.411 297.774 246.232C204.12 246.232 210.284 246.12 210.284 246.442C210.284 279.864 210.2 278.592 210.284 278.704C210.368 278.815 295.258 277.641 295.342 277.571C296.892 276.133 298.191 274.447 299.186 272.581C302.247 267.549 301.87 253.766 301.171 246.414C301.147 246.367 301.107 246.33 301.059 246.309C301.01 246.289 300.956 246.286 300.905 246.302ZM244.629 93.9389C245.259 94.905 246.201 95.6255 247.299 95.9797H244.503C244.458 95.2783 244.5 94.5739 244.629 93.883V93.9389ZM260.005 88.3476C259.488 88.5712 260.159 88.8508 260.298 90.6959C259.034 89.3914 257.523 88.3509 255.853 87.6347C255.782 87.6058 255.703 87.6046 255.631 87.6313C255.559 87.6581 255.499 87.7109 255.464 87.7793C255.429 87.8477 255.421 87.9267 255.441 88.0009C255.461 88.075 255.509 88.1389 255.574 88.1798C257.934 89.4369 259.852 91.3887 261.067 93.7711C261.319 94.3582 261.067 95.0711 260.648 96.7345C259.026 93.0023 255.057 91.3809 253.659 90.8916C253.82 90.0012 253.843 89.0914 253.729 88.1938C253.035 87.8807 252.293 87.6915 251.534 87.6347C251.407 87.6277 251.281 87.6584 251.171 87.7231C251.062 87.7878 250.974 87.8835 250.919 87.9981C250.784 88.6197 250.695 89.2505 250.653 89.8852C248.85 89.3959 245.705 89.0325 243.734 90.2905C243.832 87.3831 246.823 85.4401 249.451 84.0702C251.358 83.4922 253.398 83.5313 255.28 84.182C257.075 84.5379 258.738 85.3792 260.089 86.6143C261.081 87.6207 262.214 89.8013 261.319 90.9196C261.104 90.067 260.804 89.2382 260.424 88.4454C260.409 88.3989 260.384 88.3567 260.349 88.3221C260.315 88.2875 260.273 88.2617 260.226 88.2467C260.18 88.2316 260.13 88.2279 260.082 88.2357C260.034 88.2435 259.988 88.2627 259.949 88.2917L260.005 88.3476ZM253.016 88.711C253.016 88.8368 252.75 90.3465 252.708 90.612L251.31 90.1228C251.378 89.5419 251.49 88.9671 251.646 88.4035C252.093 88.4618 252.536 88.5458 252.974 88.6551L253.016 88.711ZM250.22 97.5173C250.253 97.5806 250.303 97.6328 250.365 97.6676C250.428 97.7024 250.499 97.7182 250.57 97.713C250.859 97.7319 251.138 97.8326 251.373 98.0033C251.608 98.174 251.79 98.4077 251.898 98.6775C251.907 98.7152 251.924 98.7504 251.948 98.7811C251.972 98.8117 252.002 98.8371 252.036 98.8555C252.07 98.8739 252.108 98.885 252.147 98.888C252.185 98.8911 252.224 98.886 252.261 98.8732C252.778 98.7334 252.261 97.6431 251.772 97.2937H254.218C254.218 97.7689 254.218 98.1743 254.078 98.6915C253.603 101.781 250.206 102.703 248.808 99.8936C248.45 99.0081 248.325 98.0456 248.445 97.098C250.751 97.1958 249.941 97.042 250.164 97.4614L250.22 97.5173ZM244.894 101.082C242.476 102.48 241.358 98.8592 241.568 96.5109C242.77 96.5808 246.236 96.8883 246.236 96.8883C246.292 98.4119 246.292 100.257 244.894 101.082ZM83.3337 183.316C78.8607 120.092 82.9283 90.5422 83.3337 71.2801C83.6971 53.5557 84.2563 26.997 65.5254 21.0283C83.166 20.6229 155.993 19.6304 163.01 22.9573C164.743 23.796 169.999 31.3442 172.795 44.9311C177.925 67.1286 176.988 162.768 178.204 182.589C150.849 181.624 96.3615 181.834 92.1121 182.072C89.1516 182.191 86.2107 182.608 83.3337 183.316ZM258.062 129.374C259.268 132.596 260.669 135.742 262.255 138.795C260.517 142.68 258.204 146.28 255.392 149.475C254.155 148.378 252.634 147.651 251.003 147.378C250.536 147.351 250.07 147.448 249.653 147.659C249.236 147.871 248.882 148.188 248.627 148.58C246.927 150.92 245.373 153.361 243.972 155.891C243.091 157.624 242.211 159.231 244.489 160.545C248.766 163.341 252.037 165.088 255.672 167.087C257.265 167.968 258.775 168.709 260.368 167.772C261.962 166.835 266.575 158.896 266.603 157.764C266.603 157.204 265.652 156.366 265.205 156.016C269.438 154.761 273.017 151.909 275.185 148.063C276.584 146.002 277.637 143.726 278.302 141.325C281.699 143.226 282.496 145.519 280.259 149.712C279.589 150.998 264.031 181.177 257.782 192.15L178.54 143.911C178.54 142.094 178.54 140.249 178.442 138.32C181.06 139.967 183.787 141.433 186.605 142.709C187.837 141.749 188.864 140.551 189.624 139.187C189.762 139.02 189.864 138.827 189.923 138.619C189.982 138.412 189.998 138.194 189.969 137.98C189.94 137.766 189.867 137.56 189.755 137.376C189.643 137.191 189.494 137.032 189.317 136.908C189.009 136.656 180.427 131.708 178.288 130.534C178.288 128.982 177.897 110.964 177.771 104.157C178.875 102.438 185.585 91.5765 185.976 91.1153C186.802 90.4465 187.813 90.0477 188.873 89.9727C189.934 89.8977 190.991 90.1501 191.903 90.6959C193.315 91.4647 258.062 129.374 258.062 129.374ZM250.653 121.448C251.983 120.408 253.244 119.282 254.428 118.079C255.056 118.052 255.678 118.208 256.219 118.528C256.76 118.848 257.196 119.319 257.475 119.883C257.838 120.833 260.131 116.64 260.466 114.291C264.642 116.397 268.297 119.407 271.164 123.101C274.032 126.795 276.04 131.082 277.044 135.65C277.446 137.233 277.529 138.879 277.289 140.494C277.049 142.109 276.491 143.66 275.647 145.057C274.439 147.655 272.729 149.988 270.614 151.921C268.182 154.031 259.04 156.925 257.559 157.204C256.979 157.402 256.35 157.404 255.769 157.209C255.189 157.015 254.688 156.635 254.344 156.128C252.317 152.214 259.012 149.363 262.87 139.788C263.101 140.141 263.368 140.469 263.667 140.766C264.059 141.116 264.799 140.654 264.45 140.207C262.884 138.278 258.677 128.339 258.062 125.837C258.028 125.752 257.965 125.681 257.884 125.638C257.804 125.594 257.71 125.58 257.62 125.599C257.53 125.617 257.45 125.666 257.393 125.738C257.335 125.81 257.305 125.899 257.307 125.991C257.375 126.717 257.521 127.434 257.74 128.13C254.651 126.229 245.887 121.029 235.781 115.046C237.818 113.808 240.041 112.907 242.364 112.376C241.696 114.431 241.846 116.664 242.784 118.611C242.802 118.642 242.829 118.669 242.861 118.687C242.892 118.706 242.929 118.716 242.965 118.716C243.002 118.716 243.038 118.706 243.07 118.687C243.102 118.669 243.129 118.642 243.147 118.611C243.501 118.209 243.956 117.91 244.465 117.745C244.975 117.58 245.519 117.556 246.041 117.674C246.628 118.471 248.627 120.791 249.13 121.266C249.318 121.477 249.577 121.612 249.857 121.645C250.138 121.679 250.421 121.608 250.653 121.448ZM265.345 158.169C263.883 161.101 262.137 163.882 260.131 166.472C259.902 166.676 259.634 166.831 259.343 166.927C259.052 167.023 258.745 167.059 258.439 167.031C257.726 166.933 245.579 160.042 244.657 159.273C243.916 158.77 244.126 158.225 244.545 157.33C246.218 154.274 248.086 151.328 250.136 148.51C250.709 148.23 253.449 149.405 254.721 150.187C253.99 151.064 253.409 152.056 253.002 153.123C251.352 152.522 250.486 152.326 250.136 152.466C249.915 152.54 249.724 152.684 249.591 152.875C249.458 153.066 249.389 153.295 249.395 153.528C249.511 153.899 249.646 154.263 249.801 154.619C249.801 154.716 249.801 154.898 248.878 155.192C247.956 155.485 246.977 155.275 246.474 156.226C246.407 156.397 246.378 156.581 246.39 156.764C246.402 156.947 246.453 157.125 246.541 157.287C246.629 157.448 246.751 157.588 246.899 157.697C247.047 157.806 247.217 157.881 247.397 157.917C247.482 158.293 247.686 158.631 247.977 158.883C248.269 159.135 248.634 159.286 249.018 159.315C249.08 159.493 249.178 159.657 249.305 159.796C249.433 159.936 249.587 160.048 249.759 160.126C250.239 160.257 250.744 160.271 251.23 160.167C251.717 160.062 252.171 159.842 252.555 159.525C253.432 159.055 254.338 158.64 255.266 158.281C256.487 158.523 257.75 158.441 258.929 158.043C260.648 157.582 262.325 157.009 263.919 156.464C264.464 156.589 265.498 157.764 265.345 158.169ZM254.064 157.638C251.758 158.616 251.408 159.259 250.64 159.357C250.515 159.368 250.39 159.353 250.271 159.312C250.153 159.271 250.045 159.205 249.955 159.119C250.548 158.889 251.123 158.613 251.674 158.295C251.708 158.272 251.738 158.243 251.761 158.209C251.784 158.175 251.8 158.136 251.807 158.096C251.815 158.055 251.815 158.014 251.806 157.974C251.798 157.933 251.781 157.895 251.758 157.861C251.408 157.442 248.85 159.022 248.487 157.861C249.134 157.718 249.756 157.478 250.332 157.149C250.395 157.124 250.446 157.076 250.473 157.015C250.501 156.953 250.503 156.883 250.479 156.82C250.455 156.757 250.407 156.706 250.345 156.679C250.283 156.651 250.213 156.649 250.15 156.673C249.348 156.956 248.485 157.024 247.648 156.869C247.201 156.575 248.207 156.52 248.78 156.338C252.582 155.178 249.997 153.542 250.612 153.305C250.835 153.221 250.919 153.305 252.82 153.962C252.683 154.63 252.725 155.322 252.944 155.968C253.163 156.614 253.549 157.19 254.064 157.638ZM178.316 132.03C180.399 133.288 188.227 137.537 188.884 138.082C188.256 139.299 187.476 140.431 186.563 141.451C186.409 141.647 186.367 141.647 186.228 141.577C186.088 141.507 180.636 138.544 178.414 137.174C178.386 135.468 178.344 133.749 178.316 132.03ZM248.906 204.004C239.792 198.622 186.116 167.66 178.945 163.467C178.945 160.419 178.805 157.135 178.735 153.682L253.701 198.748C252.573 200.877 250.924 202.686 248.906 204.004ZM240.519 200.439L248.305 204.898C247.904 208.369 248.757 211.869 250.709 214.767C252.359 217.744 252.638 218.653 254.302 221.532C248.906 218.289 242.91 214.655 236.913 211.035L240.519 200.439ZM178.889 164.641C185.641 168.625 206.496 180.744 223.829 190.794L221.774 201.851C194.056 184.993 194.349 183.162 179.322 182.631C179.294 180.031 179.197 173.405 178.959 164.641H178.889ZM253.701 93.6873C253.778 94.5722 254.152 95.4049 254.763 96.0496H249.941C251.426 95.6658 252.761 94.8424 253.771 93.6873H253.701ZM243.497 102.48C244.042 102.558 244.599 102.465 245.09 102.214C244.971 102.461 244.89 102.725 244.853 102.997C244.86 103.166 244.907 103.331 244.989 103.479C245.072 103.627 245.188 103.754 245.328 103.849C246.137 104.078 246.993 104.078 247.802 103.849C247.861 103.821 247.908 103.774 247.935 103.715C247.962 103.656 247.968 103.589 247.952 103.526C247.935 103.463 247.897 103.408 247.844 103.37C247.792 103.332 247.727 103.314 247.662 103.318C247.112 103.258 246.569 103.146 246.041 102.983C246.502 100.341 247.341 100.047 247.131 96.9861H247.383C247.313 98.8313 247.48 101.012 249.284 102.116C249.729 102.394 250.23 102.572 250.752 102.637C251.273 102.703 251.802 102.654 252.303 102.494C254.525 101.837 255.099 99.5442 255.015 97.2238C255.333 97.2036 255.651 97.1663 255.965 97.1119C256.013 97.7771 255.937 98.4454 255.742 99.0829C255.728 99.1179 255.725 99.1559 255.731 99.1928C255.738 99.2297 255.754 99.2642 255.778 99.2927C255.802 99.3212 255.834 99.3428 255.869 99.355C255.904 99.3673 255.942 99.3698 255.979 99.3624C257.279 99.1667 257.181 98.2582 257.377 98.0904C258.369 97.4754 259.11 98.9151 258.775 99.8796C258.614 100.31 258.32 100.679 257.935 100.93C257.55 101.182 257.095 101.303 256.636 101.277C256.603 101.275 256.571 101.281 256.541 101.295C256.511 101.309 256.485 101.33 256.466 101.357C256.446 101.383 256.434 101.414 256.429 101.447C256.425 101.479 256.429 101.512 256.44 101.543C256.775 103.303 256.669 105.118 256.133 106.827C256.021 107.12 256.468 107.302 257.111 106.715C257.405 106.449 256.692 107.61 256.93 109.804C256.915 111.09 256.707 112.367 256.315 113.592C255.434 116.248 250.458 120.316 250.066 120.581C249.675 120.847 249.759 120.581 249.451 120.372C247.061 118.373 243.79 113.998 247.131 109.692C247.151 109.661 247.161 109.625 247.161 109.588C247.161 109.55 247.151 109.514 247.131 109.483C247.131 109.301 246.879 109.371 246.74 109.357C243.79 107.596 243.287 106.058 243.497 102.48ZM69.7329 99.8657C69.4952 100.187 69.2716 100.467 69.02 100.257C68.7684 100.047 63.9179 94.0926 63.1771 93.7851C62.4362 93.4776 61.7792 94.1765 61.4438 94.512C60.8846 95.141 57.9772 99.0829 57.1804 100.201C56.775 100.746 56.5514 100.718 56.3836 100.607C56.2159 100.495 52.5815 96.8044 50.6945 94.8754C49.1988 93.2819 49.1988 93.2539 48.8354 93.24C48.7636 93.2439 48.6933 93.2619 48.6285 93.2931C48.5637 93.3243 48.5058 93.368 48.458 93.4217C46.364 95.9034 44.493 98.5649 42.8667 101.375C43.6075 68.0931 40.4065 35.6076 51.7149 25.0121C57.0127 20.0498 65.0082 20.9584 70.7533 25.082C82.4391 33.8184 82.2434 53.8073 82.1036 68.4146C81.9778 80.7294 81.5864 83.6509 80.7058 99.0689C79.6714 97.5592 76.6242 93.212 75.9252 93.212C75.2263 93.212 70.3339 99.027 69.7329 99.8657Z" fill="url(#paint1_linear_2315_2806)"/>
<path d="M209.194 204.074C202.331 199.628 185.137 189.704 183.194 188.879C182.719 188.656 122.794 188.963 122.249 188.977C122.081 188.977 121.718 189.341 121.774 189.578C121.83 189.816 154.595 205.388 154.735 205.443C154.874 205.499 205.783 205.234 208.956 204.982C209.062 204.979 209.164 204.942 209.247 204.876C209.33 204.81 209.389 204.719 209.416 204.617C209.442 204.515 209.435 204.406 209.395 204.308C209.355 204.21 209.285 204.128 209.194 204.074ZM155.042 204.423C150.583 202.354 126.652 190.892 124.681 189.984C130.147 189.984 180.846 189.746 182.873 189.76C183.586 190.193 205.154 202.704 207.53 204.13C204.567 204.213 157.279 204.269 155.042 204.423Z" fill="url(#paint2_linear_2315_2806)"/>
<path d="M110 71.9146C110 64.4587 116.044 58.4146 123.5 58.4146H144C144 65.8704 137.956 71.9146 130.5 71.9146H110Z" fill="#0072FF"/>
<path d="M115.127 80.9146C115.127 77.3248 118.037 74.4146 121.627 74.4146H131.627C131.627 78.0045 128.717 80.9146 125.127 80.9146H115.127Z" fill="#0072FF"/>
<path d="M115.127 89.91C115.127 86.3202 118.037 83.41 121.627 83.41H126.127C126.127 86.9999 123.217 89.91 119.627 89.91H115.127Z" fill="#0072FF"/>
<path d="M153.267 89.4239C164.673 68.0651 148.249 42.1634 125.226 43.9666C105.363 44.9171 93.7614 63.3405 99.0032 81.3864C105.531 109.553 140.742 112.865 153.267 89.4239ZM112.408 48.887C117.622 45.6859 124.08 44.9032 130.119 45.3784C148.444 46.7063 160.605 68.3167 153.798 85.3283C144.013 109.65 110.983 109.72 101.701 85.4122C95.8721 70.4973 99.7721 57.204 112.408 48.9429V48.887Z" fill="url(#paint3_linear_2315_2806)"/>
<path d="M108.187 110.769C108.073 110.788 107.97 110.847 107.895 110.936C107.821 111.024 107.78 111.136 107.78 111.251C107.78 111.366 107.821 111.478 107.895 111.566C107.97 111.655 108.073 111.714 108.187 111.733C111.737 111.887 155.853 112.376 160.326 110.978C160.577 110.978 160.48 110.531 160.326 110.573C155.07 110.755 109.082 110.755 108.187 110.769ZM95.4109 112.334C95.942 112.334 100.541 111.985 101.589 111.999C101.686 111.981 101.773 111.93 101.835 111.855C101.898 111.779 101.932 111.684 101.932 111.586C101.932 111.488 101.898 111.394 101.835 111.318C101.773 111.243 101.686 111.192 101.589 111.174C99.4826 111.09 97.3727 111.132 95.2711 111.3C95.1537 111.339 95.0536 111.418 94.9882 111.523C94.9227 111.628 94.896 111.752 94.9125 111.875C94.9291 111.998 94.9879 112.111 95.0789 112.194C95.1699 112.278 95.2873 112.328 95.4109 112.334ZM135.249 118.331C134.662 118.429 134.802 119.24 135.333 119.295C137.192 119.547 159.823 119.435 163.471 118.121C163.556 118.081 163.623 118.012 163.661 117.926C163.699 117.841 163.705 117.744 163.677 117.655C163.65 117.565 163.592 117.488 163.513 117.438C163.434 117.388 163.34 117.367 163.247 117.38C159.697 118.261 136.409 118.149 135.249 118.331ZM128.372 119.421C128.903 119.421 128.833 118.597 128.372 118.652C127.114 118.652 122.165 118.652 120.935 118.722C120.783 118.722 120.637 118.783 120.53 118.89C120.422 118.998 120.362 119.143 120.362 119.295C120.362 119.447 120.422 119.593 120.53 119.701C120.637 119.808 120.783 119.869 120.935 119.869C122.039 119.911 125.324 119.589 128.372 119.421ZM114.156 120.232C114.267 120.232 114.374 120.188 114.452 120.109C114.531 120.031 114.575 119.924 114.575 119.813C114.575 119.701 114.531 119.595 114.452 119.516C114.374 119.437 114.267 119.393 114.156 119.393C111.57 119.393 95.6625 119.17 93.9711 119.295C93.8339 119.295 93.7024 119.35 93.6054 119.447C93.5084 119.544 93.4539 119.675 93.4539 119.813C93.4539 119.95 93.5084 120.081 93.6054 120.178C93.7024 120.275 93.8339 120.33 93.9711 120.33C95.7184 120.456 112.408 120.246 114.156 120.232ZM151.38 128.94C151.217 128.94 151.06 129.005 150.945 129.121C150.83 129.236 150.765 129.392 150.765 129.556C150.765 129.719 150.83 129.875 150.945 129.99C151.06 130.106 151.217 130.171 151.38 130.171C153.225 130.171 161.081 129.528 162.926 129.416C163.015 129.399 163.096 129.351 163.154 129.281C163.212 129.211 163.244 129.122 163.244 129.031C163.244 128.94 163.212 128.852 163.154 128.782C163.096 128.712 163.015 128.664 162.926 128.647C161.025 128.703 153.295 128.731 151.38 128.94ZM97.0463 131.303C102.414 131.988 141.26 130.814 146.683 130.855C146.804 130.835 146.914 130.773 146.993 130.68C147.072 130.586 147.116 130.468 147.116 130.345C147.116 130.223 147.072 130.104 146.993 130.011C146.914 129.917 146.804 129.855 146.683 129.835C146.683 129.835 100.765 130.674 97.0603 130.883C97.0047 130.882 96.9506 130.902 96.91 130.94C96.8694 130.978 96.8455 131.031 96.8436 131.086C96.8418 131.142 96.8621 131.196 96.9001 131.236C96.9381 131.277 96.9907 131.301 97.0463 131.303ZM162.129 142.388C162.185 142.388 162.238 142.365 162.277 142.326C162.317 142.287 162.339 142.233 162.339 142.178C162.339 142.122 162.317 142.069 162.277 142.03C162.238 141.99 162.185 141.968 162.129 141.968C158.509 141.479 98.9753 143.59 95.1872 143.813C95.1329 143.82 95.0829 143.847 95.0468 143.888C95.0108 143.929 94.9911 143.982 94.9915 144.037C95.0195 144.414 133.795 144.079 162.129 142.388ZM164.799 156.534C164.844 156.522 164.883 156.495 164.911 156.459C164.94 156.422 164.955 156.377 164.955 156.331C164.955 156.285 164.94 156.24 164.911 156.203C164.883 156.166 164.844 156.14 164.799 156.128C158.355 155.555 97.1162 157.652 97.256 157.652C97.2004 157.652 97.147 157.674 97.1077 157.713C97.0684 157.753 97.0463 157.806 97.0463 157.861C97.0463 157.917 97.0684 157.97 97.1077 158.01C97.147 158.049 97.2004 158.071 97.256 158.071C109.543 158.91 150.541 157.246 164.799 156.534ZM165.624 169.184C165.624 169.184 99.9258 171.546 97.4517 171.854C97.3961 171.854 97.3427 171.876 97.3034 171.915C97.2641 171.954 97.242 172.008 97.242 172.063C97.242 172.119 97.2641 172.172 97.3034 172.212C97.3427 172.251 97.3961 172.273 97.4517 172.273C104.832 172.413 139.82 171.658 165.596 169.967C165.699 169.97 165.801 169.933 165.877 169.862C165.953 169.791 165.997 169.693 166.001 169.589C166.005 169.485 165.967 169.384 165.896 169.308C165.826 169.232 165.727 169.188 165.624 169.184ZM71.1586 118.121C68.8148 118.602 66.4172 118.766 64.0297 118.611C63.9318 115.605 63.8899 113.481 63.8899 112.306C63.8686 112.171 63.7999 112.049 63.6961 111.96C63.5923 111.871 63.4603 111.822 63.3238 111.822C63.1872 111.822 63.0552 111.871 62.9514 111.96C62.8476 112.049 62.7789 112.171 62.7576 112.306C62.7576 113.956 62.6179 117.073 62.5759 118.331C61.5695 118.009 59.4168 117.255 58.5642 117.017C58.4227 116.982 58.2737 116.994 58.1397 117.051C58.0057 117.108 57.8939 117.208 57.8213 117.334C57.7487 117.46 57.7191 117.607 57.7372 117.751C57.7552 117.896 57.8198 118.031 57.9212 118.135C59.3485 119.041 60.91 119.716 62.548 120.134C62.548 121.169 62.548 124.23 62.6458 124.747C62.6855 124.912 62.7794 125.058 62.9125 125.163C63.0457 125.268 63.2102 125.325 63.3797 125.325C63.5491 125.325 63.7137 125.268 63.8468 125.163C63.9799 125.058 64.0739 124.912 64.1135 124.747C64.2183 123.29 64.2183 121.828 64.1135 120.372C65.5114 120.372 69.4672 120.372 71.6059 119.24C71.7542 119.18 71.8728 119.064 71.9357 118.918C71.9986 118.771 72.0007 118.605 71.9414 118.457C71.882 118.308 71.7662 118.19 71.6194 118.127C71.4726 118.064 71.3069 118.062 71.1586 118.121ZM50.5966 149.628C39.6795 153.402 44.0407 167.912 53.7836 167.912C57.8373 167.912 62.2824 165.438 63.2888 161.118C65.2737 152.801 58.1867 147.014 50.5966 149.628ZM48.0805 152.326C49.3297 151.327 50.8027 150.646 52.3732 150.342C53.9436 150.037 55.5644 150.119 57.0964 150.579C61.4157 151.977 62.8974 156.771 62.1146 160.825C61.3319 164.879 57.2642 166.891 53.7277 166.808C46.4031 166.598 42.3494 156.799 48.1364 152.326H48.0805Z" fill="url(#paint4_linear_2315_2806)"/>
<path d="M54.3428 163.565C54.4273 163.642 54.5322 163.694 54.6451 163.713C54.7579 163.733 54.8741 163.72 54.9799 163.676C55.0856 163.632 55.1766 163.559 55.242 163.465C55.3075 163.371 55.3447 163.26 55.3493 163.145C55.3493 160.182 55.6708 156.883 57.9492 154.563C57.9948 154.507 58.0194 154.437 58.0187 154.365C58.0181 154.293 57.9922 154.224 57.9457 154.169C57.8992 154.114 57.8349 154.077 57.764 154.065C57.6931 154.053 57.6202 154.065 57.5578 154.101C55.4191 155.499 54.245 158.127 54.1611 161.678C52.945 160.601 49.8698 158.155 48.8773 157.484C48.5279 157.246 48.1225 157.764 48.458 158.029C49.5203 158.826 53.3923 162.586 54.3428 163.565ZM232.789 54.9535C235.378 55.3721 238.03 54.8549 240.272 53.4946C242.513 52.1344 244.197 50.0202 245.02 47.5311C247.061 38.1796 239.303 31.8754 230.916 34.7689C219.328 38.7667 223.228 53.5557 232.789 54.9535ZM227.995 37.6485C229.4 36.5228 231.057 35.7532 232.824 35.4052C234.591 35.0572 236.415 35.141 238.143 35.6496C242.434 37.0474 245.048 42.2892 243.874 47.2236C243.285 49.206 242.062 50.9407 240.394 52.1625C238.725 53.3843 236.702 54.0259 234.634 53.989C226.192 54.031 221.411 42.8763 227.995 37.6904V37.6485ZM216.644 87.2154C221.103 87.8863 225.563 85.2025 226.527 81.1488C228.19 74.1597 222.334 68.177 214.981 70.749C205.588 74.0618 208.831 86.0971 216.644 87.2154ZM212.814 73.2371C213.929 72.3631 215.236 71.7697 216.628 71.5069C218.02 71.2442 219.454 71.3198 220.81 71.7275C224.542 72.8597 226.178 77.3188 225.381 80.9112C224.918 82.5143 223.928 83.9145 222.571 84.8859C221.214 85.8572 219.569 86.343 217.902 86.2648C211.347 86.0552 207.67 77.5145 212.814 73.279V73.2371Z" fill="url(#paint5_linear_2315_2806)"/>
<path d="M235.11 50.2708C235.192 50.3546 235.297 50.4119 235.412 50.4353C235.527 50.4587 235.647 50.447 235.755 50.4019C235.863 50.3568 235.956 50.2802 236.02 50.1821C236.084 50.0839 236.118 49.9688 236.116 49.8514C236.116 46.5246 236.41 42.7784 239.066 40.2204C239.115 40.1664 239.143 40.0968 239.145 40.0239C239.148 39.951 239.124 39.8797 239.079 39.8226C239.033 39.7655 238.969 39.7264 238.898 39.7122C238.826 39.698 238.752 39.7097 238.688 39.7452C236.256 41.3806 234.984 44.2881 234.914 48.3837C233.516 47.1676 230.05 44.316 228.917 43.5053C228.568 43.2677 228.163 43.7988 228.498 44.0644C229.658 45.001 234.075 49.2504 235.11 50.2708ZM217.455 82.4487C217.455 83.8466 217.749 83.8466 217.875 83.8466C218.308 83.8466 218.406 82.952 218.462 82.4487C221.355 82.281 222.096 79.2337 218.797 78.0176V75.5015C219.149 75.5708 219.475 75.7391 219.735 75.9867C219.995 76.2343 220.179 76.5509 220.265 76.8994C220.363 77.3327 221.006 77.151 220.908 76.7316C220.793 76.1992 220.532 75.7093 220.154 75.3168C219.776 74.9243 219.297 74.6446 218.769 74.5091C218.769 73.7123 218.769 73.6285 218.671 73.4747C218.621 73.4212 218.556 73.384 218.485 73.368C218.413 73.3521 218.339 73.3581 218.271 73.3853C218.203 73.4125 218.145 73.4596 218.104 73.5205C218.063 73.5813 218.042 73.6531 218.042 73.7263C218.042 73.9779 218.042 74.2295 217.958 74.4672C215.163 74.8725 214.338 78.4649 217.511 78.9402C217.511 79.6531 217.441 80.9111 217.427 81.4703C215.484 80.9531 214.939 79.4574 214.492 79.8907C214.467 79.9154 214.447 79.9448 214.434 79.9772C214.42 80.0096 214.413 80.0443 214.413 80.0794C214.413 80.1145 214.42 80.1493 214.434 80.1817C214.447 80.214 214.467 80.2434 214.492 80.2681C215.235 81.2797 216.268 82.0405 217.455 82.4487ZM217.847 75.6273C217.777 76.1865 217.665 77.2768 217.609 77.8918C217.259 77.8707 216.927 77.7272 216.672 77.4865C216.197 76.8015 217.078 75.9209 217.847 75.6273ZM218.546 81.652C218.546 81.652 218.699 79.9746 218.741 79.3456C219.524 79.6391 220.055 80.1283 220.055 80.5617C220.055 80.995 219.133 81.5961 218.546 81.652ZM203.393 74.2016C203.921 72.2967 203.794 70.2699 203.034 68.4453C202.274 66.6207 200.924 65.1038 199.2 64.1372C192.21 60.5588 182.579 67.4501 187.192 75.7112C188.019 77.2343 189.274 78.4814 190.802 79.2975C192.331 80.1136 194.065 80.463 195.791 80.3022C197.516 80.1415 199.156 79.4776 200.508 78.3931C201.859 77.3086 202.862 75.8511 203.393 74.2016ZM189.68 66.3038C190.791 65.4224 192.096 64.8202 193.488 64.5478C194.879 64.2754 196.315 64.3407 197.676 64.7383C201.352 65.8565 203.002 70.3296 202.233 73.922C201.777 75.494 200.815 76.8713 199.495 77.8395C198.175 78.8078 196.573 79.3127 194.936 79.2757C188.325 79.2337 184.467 70.5952 189.68 66.3038Z" fill="url(#paint6_linear_2315_2806)"/>
<path d="M194.307 75.4876C194.307 76.8854 194.601 76.8854 194.726 76.8854C195.132 76.8854 195.244 76.0886 195.313 75.4876C198.221 75.3198 198.948 72.2726 195.649 71.0704V68.5544C195.99 68.6323 196.302 68.8048 196.549 69.0521C196.796 69.2993 196.969 69.6113 197.047 69.9522C197.078 70.0269 197.135 70.0879 197.207 70.1239C197.28 70.1599 197.363 70.1685 197.441 70.1481C197.52 70.1276 197.588 70.0796 197.634 70.0127C197.679 69.9459 197.699 69.8648 197.69 69.7844C197.577 69.2495 197.317 68.7566 196.939 68.3615C196.561 67.9663 196.08 67.6846 195.551 67.5479V66.7931C195.534 66.7072 195.488 66.6297 195.421 66.5741C195.353 66.5184 195.268 66.488 195.181 66.488C195.093 66.488 195.008 66.5184 194.941 66.5741C194.873 66.6297 194.827 66.7072 194.81 66.7931C194.795 67.0413 194.767 67.2886 194.726 67.5339C191.931 67.9393 191.106 71.5177 194.279 72.007C194.279 72.7199 194.209 73.9779 194.195 74.5231C192.308 74.0338 191.707 72.5102 191.26 72.9435C191.209 72.9958 191.18 73.066 191.18 73.1392C191.18 73.2124 191.209 73.2827 191.26 73.3349C192.031 74.348 193.095 75.0995 194.307 75.4876ZM194.698 68.6662C194.698 69.2113 194.517 70.3156 194.461 70.9167C194.109 70.9044 193.774 70.7596 193.524 70.5113C193.049 69.8404 193.93 68.9318 194.698 68.6662ZM195.397 74.6908L195.593 72.3704C196.376 72.6779 196.907 73.1532 196.907 73.6005C196.907 74.0478 195.97 74.6209 195.397 74.6908ZM307.433 91.1712C306.014 91.5163 304.57 91.75 303.114 91.8701C302.93 90.6631 302.888 89.4386 302.988 88.2218C302.982 88.0828 302.925 87.9509 302.829 87.8505C302.733 87.7501 302.603 87.6882 302.465 87.6762C302.326 87.6642 302.188 87.7031 302.076 87.7854C301.964 87.8678 301.886 87.9881 301.856 88.1239C301.687 89.4074 301.612 90.7015 301.632 91.9959C300.318 92.0937 298.99 92.1357 297.69 92.3454C297.53 92.3862 297.388 92.4818 297.29 92.6157C297.193 92.7496 297.144 92.9134 297.154 93.0789C297.164 93.2444 297.232 93.4013 297.345 93.5226C297.458 93.6438 297.61 93.7218 297.774 93.7432C299.101 93.8939 300.443 93.8515 301.758 93.6174C301.832 94.1936 301.949 94.7636 302.107 95.3227C302.161 95.5285 302.294 95.7044 302.478 95.8119C302.661 95.9194 302.88 95.9496 303.086 95.8958C303.292 95.8421 303.468 95.7088 303.575 95.5253C303.683 95.3418 303.713 95.1231 303.659 94.9174C303.547 94.3862 303.435 93.855 303.351 93.3238C304.749 93.0303 306.147 92.583 307.713 92.1497C307.842 92.1126 307.952 92.0255 308.018 91.9075C308.083 91.7896 308.099 91.6504 308.062 91.5206C308.025 91.3909 307.938 91.2812 307.82 91.2156C307.702 91.1501 307.563 91.1341 307.433 91.1712ZM292.994 198.496C293.608 198.777 294.304 198.825 294.951 198.632C295.599 198.44 296.155 198.019 296.516 197.448C297.648 195.225 296.013 192.402 293.72 192.765C291.162 193.157 290.338 197.336 292.994 198.496ZM295.146 194.848C296.041 196.022 295.244 197.644 293.902 197.224C293.625 197.144 293.38 196.98 293.199 196.755C293.019 196.53 292.913 196.254 292.896 195.966C292.895 195.634 292.981 195.307 293.145 195.017C293.31 194.728 293.546 194.487 293.832 194.317C294.089 194.24 294.364 194.251 294.614 194.347C294.865 194.443 295.076 194.619 295.216 194.848H295.146ZM301.73 180.157C301.649 180.021 301.527 179.914 301.381 179.852C301.236 179.789 301.075 179.774 300.92 179.808C300.766 179.842 300.626 179.923 300.52 180.041C300.415 180.159 300.349 180.307 300.332 180.464C298.179 187.09 297.732 186.908 298.138 187.453C298.206 187.543 298.295 187.615 298.397 187.664C298.499 187.713 298.612 187.736 298.725 187.733C303.743 187.412 304.036 187.971 304.386 187.146C304.414 186.936 304.693 187.412 301.73 180.157ZM302.569 186.181L299.689 186.321C300.15 185.189 300.598 183.987 301.087 182.673C301.436 183.693 302.051 185.049 302.569 186.181ZM195.048 141.395C194.107 142.804 193.27 144.28 192.546 145.812C192.51 145.89 192.493 145.975 192.494 146.061C192.495 146.147 192.515 146.232 192.552 146.309C192.589 146.386 192.643 146.454 192.71 146.509C192.776 146.563 192.854 146.602 192.937 146.623C195.411 148.524 206.524 155.513 207.908 156.254C209.292 156.995 209.459 156.45 212.031 152.787C213.024 151.613 212.66 150.984 211.361 150.313C196.11 140.962 196.11 140.109 195.048 141.395ZM195.873 142.15C197.173 142.639 209.851 150.537 211.333 151.543C211.053 152.06 209.571 154.059 209.222 154.549C208.872 155.038 208.844 155.234 208.523 155.108C208.201 154.982 196.641 147.965 193.748 145.882C194.083 145.295 195.523 142.625 195.873 142.15ZM230.329 168.904C230.437 168.967 230.562 168.992 230.686 168.977C230.809 168.962 230.924 168.907 231.014 168.82C232.436 167.574 233.449 165.927 233.921 164.096C234.145 163.047 233.376 162.614 232.677 162.237L218.965 154.73C218.252 154.297 217.371 153.752 216.588 154.73C215.49 156.013 214.49 157.378 213.597 158.812C213.709 159.301 222.767 164.571 230.329 168.904ZM214.953 158.588C215.722 157.432 216.587 156.343 217.539 155.331C218.154 155.541 232.831 163.187 232.845 163.593C232.845 164.459 231.098 166.961 230.441 167.702C225.814 165.186 220.335 162.153 215.009 158.588H214.953ZM235.822 172.049C237.682 173.224 250.08 180.842 250.304 180.982C250.989 181.415 251.562 181.68 252.219 181.135C253.238 179.907 254.119 178.571 254.847 177.151C255.017 176.855 255.073 176.506 255.003 176.171C254.934 175.836 254.744 175.539 254.469 175.334C254.008 175.013 239.89 166.947 239.89 166.947C239.614 166.737 239.273 166.628 238.926 166.64C238.408 166.64 235.962 169.939 235.445 171.267C235.4 171.34 235.374 171.424 235.37 171.511C235.366 171.597 235.383 171.683 235.421 171.761C235.458 171.839 235.515 171.906 235.585 171.956C235.655 172.007 235.737 172.039 235.822 172.049ZM236.759 171.295C237.379 170.072 238.114 168.911 238.954 167.828C239.121 167.702 239.401 167.828 239.722 168.052C240.044 168.275 253.449 175.879 253.812 176.117C254.176 176.355 254.022 176.299 253.91 176.592C253.142 177.895 252.258 179.125 251.268 180.269C250.164 179.654 239.862 173.238 236.759 171.295ZM184.788 116.15C184.3 117.294 184.132 118.549 184.302 119.781C184.473 121.013 184.974 122.175 185.754 123.144C186.533 124.113 187.561 124.852 188.728 125.282C189.895 125.712 191.156 125.817 192.378 125.586C193.552 128.619 196.571 130.995 199.996 129.961C201.014 129.632 201.94 129.066 202.697 128.31C203.454 127.554 204.021 126.629 204.351 125.611C204.681 124.593 204.765 123.512 204.596 122.455C204.427 121.399 204.01 120.397 203.379 119.533C202.676 118.655 201.749 117.983 200.696 117.587C199.644 117.191 198.504 117.086 197.396 117.283C195.97 111.202 187.583 110.559 184.788 116.15ZM197.592 118.261C198.459 118.129 199.345 118.216 200.171 118.512C200.996 118.809 201.735 119.306 202.32 119.959C202.906 120.612 203.319 121.401 203.523 122.254C203.728 123.107 203.716 123.997 203.491 124.845C202.722 128.2 198.57 130.436 195.705 128.074C194.772 127.322 194.026 126.366 193.524 125.278C194.919 124.768 196.092 123.789 196.845 122.509C197.597 121.229 197.881 119.727 197.648 118.261H197.592ZM69.2156 130.436C69.2156 131.026 69.3906 131.602 69.7183 132.092C70.0461 132.582 70.512 132.963 71.0568 133.188C71.6017 133.413 72.201 133.471 72.779 133.355C73.3569 133.239 73.8874 132.954 74.3032 132.536C74.719 132.119 75.0015 131.587 75.1148 131.008C75.2281 130.43 75.1671 129.831 74.9396 129.287C74.7121 128.743 74.3284 128.279 73.8369 127.954C73.3454 127.628 72.7684 127.456 72.179 127.459C71.3917 127.462 70.638 127.778 70.0827 128.336C69.5273 128.894 69.2156 129.649 69.2156 130.436ZM72.179 128.954C72.5682 128.954 72.9416 129.109 73.2168 129.384C73.4921 129.66 73.6467 130.033 73.6467 130.422C73.6467 130.811 73.4921 131.185 73.2168 131.46C72.9416 131.735 72.5682 131.89 72.179 131.89C71.7841 131.89 71.4055 131.733 71.1263 131.454C70.8471 131.175 70.6903 130.796 70.6903 130.401C70.6903 130.006 70.8471 129.628 71.1263 129.349C71.4055 129.069 71.7841 128.912 72.179 128.912V128.954ZM172.291 215.214L183.013 214.529L174.737 210.028C174.5 209.903 175.059 209.917 164.645 210.21L172.291 215.214Z" fill="url(#paint7_linear_2315_2806)"/>
<path d="M171.718 216.5C162.814 210.685 163.136 210.909 163.01 210.783C162.955 211.714 162.955 212.648 163.01 213.579C163.01 214.11 162.786 213.774 171.131 219.17C171.411 219.352 170.684 219.324 182.733 218.597C182.911 218.586 183.078 218.508 183.201 218.378C183.323 218.248 183.391 218.076 183.39 217.898V215.899C171.103 216.682 171.998 216.682 171.718 216.5ZM197.438 215.214L208.16 214.529L199.885 210.028C199.633 209.903 200.206 209.916 189.792 210.21L197.438 215.214Z" fill="url(#paint8_linear_2315_2806)"/>
<path d="M196.865 216.5C187.961 210.685 188.283 210.909 188.157 210.783C188.088 211.714 188.088 212.648 188.157 213.579C188.157 214.11 187.919 213.774 196.264 219.17C196.544 219.352 195.831 219.324 207.88 218.597C208.057 218.583 208.222 218.504 208.344 218.375C208.465 218.245 208.534 218.075 208.537 217.898V215.899C196.236 216.682 197.145 216.682 196.865 216.5ZM220.251 215.214L230.972 214.529L222.683 210.028C222.445 209.903 223.005 209.916 212.605 210.21L220.251 215.214Z" fill="url(#paint9_linear_2315_2806)"/>
<path d="M219.734 216.5C210.829 210.685 211.151 210.909 211.025 210.783C210.957 211.714 210.957 212.648 211.025 213.579C211.025 214.11 210.788 213.774 219.133 219.17C219.412 219.352 218.699 219.324 230.748 218.597C230.925 218.583 231.091 218.504 231.212 218.375C231.334 218.245 231.403 218.075 231.405 217.898V215.899C219.049 216.682 219.957 216.682 219.734 216.5ZM191.847 226.257L202.582 225.572L194.293 221.071C194.056 220.945 194.643 220.973 184.215 221.253L191.847 226.257Z" fill="url(#paint10_linear_2315_2806)"/>
<path d="M191.288 227.557C182.37 221.742 182.691 221.966 182.565 221.826V224.622C182.565 225.153 182.328 224.831 190.673 230.213C190.952 230.395 190.225 230.381 202.275 229.64C202.454 229.633 202.623 229.555 202.746 229.425C202.869 229.294 202.936 229.12 202.932 228.941V226.956C190.659 227.739 191.567 227.739 191.288 227.557ZM216.938 226.257L227.659 225.572L219.384 221.071C219.133 220.945 219.72 220.973 209.292 221.253L216.938 226.257Z" fill="url(#paint11_linear_2315_2806)"/>
<path d="M216.421 227.557C207.517 221.742 207.838 221.966 207.712 221.826C207.658 222.757 207.658 223.691 207.712 224.622C207.712 225.153 207.489 224.831 215.834 230.213C216.113 230.395 215.386 230.381 227.436 229.64C227.615 229.633 227.784 229.555 227.907 229.425C228.03 229.294 228.096 229.12 228.093 228.941V226.956C215.806 227.739 216.7 227.739 216.421 227.557ZM239.303 227.557C230.399 221.742 230.721 221.966 230.595 221.826C230.524 222.757 230.524 223.691 230.595 224.622C230.595 225.153 230.357 224.831 238.702 230.213C238.982 230.395 238.269 230.381 250.318 229.64C250.496 229.629 250.663 229.551 250.785 229.421C250.908 229.291 250.975 229.119 250.975 228.941V226.956C238.604 227.739 239.513 227.739 239.303 227.557Z" fill="url(#paint12_linear_2315_2806)"/>
<path d="M239.806 226.257L250.528 225.572L242.253 221.071C242.001 220.945 242.588 220.973 232.16 221.253L239.806 226.257ZM211.417 237.314L222.138 236.629L213.849 232.128C213.611 232.002 214.282 232.016 203.771 232.31L211.417 237.314Z" fill="url(#paint13_linear_2315_2806)"/>
<path d="M210.843 238.6C201.939 232.785 202.261 233.009 202.121 232.883V235.678C202.121 236.21 201.883 235.874 210.228 241.27C210.508 241.451 209.795 241.423 221.844 240.697C222.021 240.683 222.187 240.603 222.308 240.474C222.429 240.345 222.498 240.175 222.501 239.998V238.069C210.214 238.782 211.123 238.782 210.843 238.6ZM236.508 237.314L247.243 236.629L238.954 232.128C238.716 232.002 239.387 232.016 228.861 232.31L236.508 237.314Z" fill="url(#paint14_linear_2315_2806)"/>
<path d="M235.99 238.6C227.072 232.785 227.394 233.009 227.268 232.883V235.678C227.268 236.21 227.044 235.874 235.389 241.27C235.669 241.451 234.942 241.424 246.991 240.697C247.169 240.686 247.336 240.608 247.459 240.478C247.581 240.348 247.649 240.176 247.648 239.998V238.069C235.361 238.782 236.256 238.782 235.99 238.6ZM259.362 237.314L270.055 236.671L261.78 232.17C261.543 232.044 262.214 232.058 251.688 232.352L259.362 237.314Z" fill="url(#paint15_linear_2315_2806)"/>
<path d="M258.789 238.6C249.885 232.785 250.206 233.009 250.08 232.883V235.678C250.08 236.21 249.857 235.874 258.202 241.27C258.481 241.451 257.754 241.424 269.804 240.697C269.982 240.686 270.149 240.608 270.271 240.478C270.393 240.348 270.461 240.176 270.461 239.998V238.069C258.16 238.782 259.068 238.782 258.789 238.6Z" fill="url(#paint16_linear_2315_2806)"/>
</g>
<defs>
<linearGradient id="paint0_linear_2315_2806" x1="248.871" y1="103.484" x2="241.059" y2="107.756" gradientUnits="userSpaceOnUse">
<stop stop-color="#0072FF"/>
<stop offset="1" stop-color="#12B772"/>
</linearGradient>
<linearGradient id="paint1_linear_2315_2806" x1="183.987" y1="173.915" x2="-26.9839" y2="284.058" gradientUnits="userSpaceOnUse">
<stop stop-color="#0072FF"/>
<stop offset="1" stop-color="#12B772"/>
</linearGradient>
<linearGradient id="paint2_linear_2315_2806" x1="169.705" y1="198.649" x2="159.217" y2="227.642" gradientUnits="userSpaceOnUse">
<stop stop-color="#0072FF"/>
<stop offset="1" stop-color="#12B772"/>
</linearGradient>
<linearGradient id="paint3_linear_2315_2806" x1="130.137" y1="80.028" x2="81.4932" y2="104.789" gradientUnits="userSpaceOnUse">
<stop stop-color="#0072FF"/>
<stop offset="1" stop-color="#12B772"/>
</linearGradient>
<linearGradient id="paint4_linear_2315_2806" x1="110.8" y1="147.079" x2="50.0813" y2="210.011" gradientUnits="userSpaceOnUse">
<stop stop-color="#0072FF"/>
<stop offset="1" stop-color="#12B772"/>
</linearGradient>
<linearGradient id="paint5_linear_2315_2806" x1="156.067" y1="110.758" x2="31.6078" y2="210.072" gradientUnits="userSpaceOnUse">
<stop stop-color="#0072FF"/>
<stop offset="1" stop-color="#12B772"/>
</linearGradient>
<linearGradient id="paint6_linear_2315_2806" x1="215.055" y1="65.8163" x2="175.796" y2="90.646" gradientUnits="userSpaceOnUse">
<stop stop-color="#0072FF"/>
<stop offset="1" stop-color="#12B772"/>
</linearGradient>
<linearGradient id="paint7_linear_2315_2806" x1="199.833" y1="154.463" x2="55.5209" y2="276.183" gradientUnits="userSpaceOnUse">
<stop stop-color="#0072FF"/>
<stop offset="1" stop-color="#12B772"/>
</linearGradient>
<linearGradient id="paint8_linear_2315_2806" x1="187.68" y1="215.461" x2="181.447" y2="231.347" gradientUnits="userSpaceOnUse">
<stop stop-color="#0072FF"/>
<stop offset="1" stop-color="#12B772"/>
</linearGradient>
<linearGradient id="paint9_linear_2315_2806" x1="211.546" y1="215.461" x2="205.071" y2="231.115" gradientUnits="userSpaceOnUse">
<stop stop-color="#0072FF"/>
<stop offset="1" stop-color="#12B772"/>
</linearGradient>
<linearGradient id="paint10_linear_2315_2806" x1="210.02" y1="219.936" x2="196.333" y2="241.856" gradientUnits="userSpaceOnUse">
<stop stop-color="#0072FF"/>
<stop offset="1" stop-color="#12B772"/>
</linearGradient>
<linearGradient id="paint11_linear_2315_2806" x1="207.223" y1="226.507" x2="200.982" y2="242.383" gradientUnits="userSpaceOnUse">
<stop stop-color="#0072FF"/>
<stop offset="1" stop-color="#12B772"/>
</linearGradient>
<linearGradient id="paint12_linear_2315_2806" x1="231.351" y1="226.844" x2="225.881" y2="241.507" gradientUnits="userSpaceOnUse">
<stop stop-color="#0072FF"/>
<stop offset="1" stop-color="#12B772"/>
</linearGradient>
<linearGradient id="paint13_linear_2315_2806" x1="229.339" y1="230.65" x2="214.533" y2="252.934" gradientUnits="userSpaceOnUse">
<stop stop-color="#0072FF"/>
<stop offset="1" stop-color="#12B772"/>
</linearGradient>
<linearGradient id="paint14_linear_2315_2806" x1="226.794" y1="237.56" x2="220.555" y2="253.441" gradientUnits="userSpaceOnUse">
<stop stop-color="#0072FF"/>
<stop offset="1" stop-color="#12B772"/>
</linearGradient>
<linearGradient id="paint15_linear_2315_2806" x1="250.665" y1="237.578" x2="244.232" y2="253.173" gradientUnits="userSpaceOnUse">
<stop stop-color="#0072FF"/>
<stop offset="1" stop-color="#12B772"/>
</linearGradient>
<linearGradient id="paint16_linear_2315_2806" x1="261.225" y1="237.9" x2="253.097" y2="248.157" gradientUnits="userSpaceOnUse">
<stop stop-color="#0072FF"/>
<stop offset="1" stop-color="#12B772"/>
</linearGradient>
</defs>
</svg>
