<svg width="30" height="30" viewBox="0 0 30 30" fill="none" xmlns="http://www.w3.org/2000/svg">
<path d="M22.2279 22.5429C22.1084 22.6925 21.9371 22.7918 21.748 22.821L19.644 23.4169C19.4601 23.4877 19.2567 23.4877 19.0728 23.4169C18.9236 23.2931 18.8242 23.1194 18.7931 22.9281C15.7362 11.5225 15.3151 9.06284 14.0844 9.06284C12.8537 9.06284 12.4326 11.5225 9.37577 22.9332C9.34457 23.1246 9.24525 23.2983 9.09614 23.4221C8.91227 23.4929 8.70869 23.4929 8.52482 23.4221L6.42077 22.821C6.23196 22.7922 6.0611 22.6928 5.94265 22.5429C5.87524 22.3606 5.87524 22.1603 5.94265 21.978C9.05989 10.3583 10.8187 7.07642 14.0844 7.07642C17.3501 7.07642 19.1021 10.3583 22.2261 21.978C22.2923 22.1604 22.293 22.3601 22.2279 22.5429Z" fill="#FDB913"/>
<path d="M24.0975 15.2033C24.096 15.315 24.0707 15.4251 24.0234 15.5263L23.9354 15.7647C23.8962 15.9043 23.8103 16.0262 23.692 16.1101C23.5536 16.1684 23.3996 16.1775 23.2553 16.136C20.5122 15.531 17.6449 15.8819 15.1283 17.1306C12.6117 18.3793 10.5969 20.4509 9.41756 23.0021C9.33126 23.1921 9.1949 23.4737 8.88767 23.4737C8.76462 23.4735 8.64236 23.4543 8.52519 23.4167L6.42113 22.8225C6.17776 22.7534 5.90332 22.6498 5.90332 22.3302C5.91241 22.1878 5.95123 22.049 6.01724 21.9226C7.51237 18.7171 10.1653 16.1974 13.4421 14.8706C16.7189 13.5437 20.3763 13.5083 23.6782 14.7714C23.8405 14.8336 24.0975 14.9338 24.0975 15.2033Z" fill="url(#paint0_linear_6917_5509)"/>
<defs>
<linearGradient id="paint0_linear_6917_5509" x1="5.89124" y1="18.6579" x2="24.0975" y2="18.6579" gradientUnits="userSpaceOnUse">
<stop offset="0.3" stop-color="#FDB913"/>
<stop offset="0.75" stop-color="#F7941F"/>
</linearGradient>
</defs>
</svg>
