<svg width="37" height="37" viewBox="0 0 37 37" fill="none" xmlns="http://www.w3.org/2000/svg">
<path d="M31.6096 32.1808C31.393 32.4522 31.0823 32.6323 30.7393 32.6852L26.9232 33.7661C26.5896 33.8944 26.2206 33.8944 25.8871 33.7661C25.6165 33.5415 25.4363 33.2266 25.3798 32.8795C19.8356 12.193 19.0717 7.73174 16.8396 7.73174C14.6075 7.73174 13.8436 12.193 8.29939 32.8888C8.24281 33.236 8.06267 33.5509 7.79222 33.7755C7.45873 33.9038 7.0895 33.9038 6.756 33.7755L2.93984 32.6852C2.59738 32.633 2.28749 32.4527 2.07265 32.1808C1.95039 31.8503 1.95039 31.4869 2.07265 31.1563C7.72648 10.0814 10.9165 4.12891 16.8396 4.12891C22.7627 4.12891 25.9404 10.0814 31.6064 31.1563C31.7265 31.4871 31.7278 31.8494 31.6096 32.1808Z" fill="#FDB913"/>
<path d="M34.9998 18.8691C34.997 19.0717 34.9512 19.2715 34.8653 19.455L34.7057 19.8873C34.6346 20.1406 34.4788 20.3617 34.2643 20.5139C34.0132 20.6196 33.7339 20.6361 33.4721 20.5609C28.497 19.4636 23.2964 20.1 18.732 22.3648C14.1676 24.6296 10.5133 28.3868 8.37435 33.0141C8.21782 33.3588 7.97051 33.8694 7.41327 33.8694C7.1901 33.869 6.96836 33.8342 6.75585 33.766L2.93965 32.6883C2.49825 32.563 2.00049 32.375 2.00049 31.7954C2.01698 31.5372 2.08739 31.2854 2.20711 31.0561C4.91887 25.2422 9.73062 20.6722 15.6738 18.2657C21.6171 15.8592 28.2506 15.795 34.2393 18.0859C34.5336 18.1987 34.9998 18.3804 34.9998 18.8691Z" fill="url(#paint0_linear_4616_11068)"/>
<defs>
<linearGradient id="paint0_linear_4616_11068" x1="1.97858" y1="25.1349" x2="34.9998" y2="25.1349" gradientUnits="userSpaceOnUse">
<stop offset="0.3" stop-color="#FDB913"/>
<stop offset="0.75" stop-color="#F7941F"/>
</linearGradient>
</defs>
</svg>
