<svg width="37" height="39" viewBox="0 0 37 39" fill="none" xmlns="http://www.w3.org/2000/svg">
<path d="M19.0005 2.87366C20.305 2.87366 21.5416 3.51649 22.486 4.68214C23.3354 5.733 23.827 6.91743 24.2934 8.06952L24.3393 8.18222C24.4667 8.49633 24.5856 8.7927 24.7119 9.08594C24.9488 9.63381 25.1721 10.1556 25.3881 10.6659L25.5363 10.6784C26.6018 10.7723 27.5222 10.8882 28.3174 11.0165C28.9487 11.1177 29.5008 11.2273 29.9839 11.3421C31.5962 11.722 32.4363 12.1456 32.8694 12.4556C32.8694 12.4556 32.8715 12.4566 32.8725 12.4577C33.027 12.5683 33.1063 12.7582 33.0812 12.9471L32.8777 14.4895C32.5135 17.1964 32.07 20.6026 30.9231 23.6915C30.7614 24.1257 30.5871 24.5525 30.3961 24.9699C28.7651 28.3834 25.6469 30.9495 21.8797 31.8271C20.9551 32.0442 19.9898 32.1589 18.9984 32.1589C18.0029 32.1589 17.0344 32.0441 16.1046 31.826C12.4084 30.9578 9.33717 28.4668 7.68627 25.1442C7.43999 24.6203 7.2198 24.0818 7.02152 23.534C6.5154 22.1398 6.15015 20.6851 5.86839 19.2606C5.4948 17.377 5.26939 15.5487 5.0565 13.9917L4.91667 12.9513C4.89162 12.7613 4.97093 12.5725 5.12642 12.4598C5.12851 12.4587 5.1306 12.4577 5.13373 12.4556C5.56576 12.1456 6.40582 11.722 8.01812 11.3421C8.50024 11.2273 9.0502 11.1177 9.67946 11.0176C10.4757 10.8882 11.3982 10.7734 12.4658 10.6784C12.5138 10.6742 12.5638 10.6701 12.6139 10.6659C12.83 10.1556 13.0522 9.63381 13.2891 9.08594C13.4154 8.7927 13.5354 8.49633 13.6627 8.18222C13.6773 8.14465 13.693 8.10604 13.7086 8.06743C14.1751 6.91535 14.6677 5.73195 15.5161 4.68214C16.4594 3.51649 17.6971 2.87366 19.0005 2.87366ZM19.0005 5.38549C18.2846 5.38549 17.7336 5.9344 17.4686 6.26208C17.2651 6.51462 17.0845 6.78803 16.9197 7.07918C16.5659 7.70114 16.2841 8.39928 15.9909 9.12455C15.8636 9.43657 15.7331 9.76112 15.5954 10.0804C15.5349 10.2203 15.4754 10.358 15.4169 10.4947C16.5001 10.452 17.6908 10.428 19.0005 10.428C20.3112 10.428 21.5019 10.452 22.5841 10.4947C22.5256 10.358 22.4672 10.2203 22.4067 10.0804C22.2689 9.76112 22.1374 9.43657 22.0112 9.12455C21.7179 8.39928 21.4351 7.70219 21.0824 7.08023C20.9175 6.78908 20.737 6.51462 20.5324 6.26208C20.2674 5.9344 19.7164 5.38549 19.0005 5.38549Z" fill="#D8D8D8"/>
<mask id="mask0_2090_3268" style="mask-type:luminance" maskUnits="userSpaceOnUse" x="4" y="2" width="30" height="31">
<path d="M19.0005 2.87366C20.305 2.87366 21.5416 3.51649 22.486 4.68214C23.3354 5.733 23.827 6.91743 24.2934 8.06952L24.3393 8.18222C24.4667 8.49633 24.5856 8.7927 24.7119 9.08594C24.9488 9.63381 25.1721 10.1556 25.3881 10.6659L25.5363 10.6784C26.6018 10.7723 27.5222 10.8882 28.3174 11.0165C28.9487 11.1177 29.5008 11.2273 29.9839 11.3421C31.5962 11.722 32.4363 12.1456 32.8694 12.4556C32.8694 12.4556 32.8715 12.4566 32.8725 12.4577C33.027 12.5683 33.1063 12.7582 33.0812 12.9471L32.8777 14.4895C32.5135 17.1964 32.07 20.6026 30.9231 23.6915C30.7614 24.1257 30.5871 24.5525 30.3961 24.9699C28.7651 28.3834 25.6469 30.9495 21.8797 31.8271C20.9551 32.0442 19.9898 32.1589 18.9984 32.1589C18.0029 32.1589 17.0344 32.0441 16.1046 31.826C12.4084 30.9578 9.33717 28.4668 7.68627 25.1442C7.43999 24.6203 7.2198 24.0818 7.02152 23.534C6.5154 22.1398 6.15015 20.6851 5.86839 19.2606C5.4948 17.377 5.26939 15.5487 5.0565 13.9917L4.91667 12.9513C4.89162 12.7613 4.97093 12.5725 5.12642 12.4598C5.12851 12.4587 5.1306 12.4577 5.13373 12.4556C5.56576 12.1456 6.40582 11.722 8.01812 11.3421C8.50024 11.2273 9.0502 11.1177 9.67946 11.0176C10.4757 10.8882 11.3982 10.7734 12.4658 10.6784C12.5138 10.6742 12.5638 10.6701 12.6139 10.6659C12.83 10.1556 13.0522 9.63381 13.2891 9.08594C13.4154 8.7927 13.5354 8.49633 13.6627 8.18222C13.6773 8.14465 13.693 8.10604 13.7086 8.06743C14.1751 6.91535 14.6677 5.73195 15.5161 4.68214C16.4594 3.51649 17.6971 2.87366 19.0005 2.87366ZM19.0005 5.38549C18.2846 5.38549 17.7336 5.9344 17.4686 6.26208C17.2651 6.51462 17.0845 6.78803 16.9197 7.07918C16.5659 7.70114 16.2841 8.39928 15.9909 9.12455C15.8636 9.43657 15.7331 9.76112 15.5954 10.0804C15.5349 10.2203 15.4754 10.358 15.4169 10.4947C16.5001 10.452 17.6908 10.428 19.0005 10.428C20.3112 10.428 21.5019 10.452 22.5841 10.4947C22.5256 10.358 22.4672 10.2203 22.4067 10.0804C22.2689 9.76112 22.1374 9.43657 22.0112 9.12455C21.7179 8.39928 21.4351 7.70219 21.0824 7.08023C20.9175 6.78908 20.737 6.51462 20.5324 6.26208C20.2674 5.9344 19.7164 5.38549 19.0005 5.38549Z" fill="white"/>
</mask>
<g mask="url(#mask0_2090_3268)">
<path fill-rule="evenodd" clip-rule="evenodd" d="M19.0005 10.428C17.6908 10.428 16.5001 10.452 15.418 10.4947C15.4764 10.358 15.5349 10.2203 15.5954 10.0804C15.7331 9.76112 15.8636 9.43657 15.9909 9.12455C16.2841 8.39928 16.5659 7.70114 16.9197 7.07918C17.0845 6.78803 17.2651 6.51462 17.4686 6.26208C17.7336 5.9344 18.2846 5.38549 19.0005 5.38549C19.7164 5.38549 20.2674 5.9344 20.5324 6.26208C20.737 6.51462 20.9175 6.78908 21.0824 7.08023C21.4351 7.70219 21.7179 8.39928 22.0112 9.12455C22.1374 9.43657 22.2689 9.76112 22.4067 10.0804C22.4672 10.2203 22.5256 10.358 22.5841 10.4947C21.5019 10.452 20.3112 10.428 19.0005 10.428ZM32.8725 12.4577C32.8715 12.4566 32.8694 12.4556 32.8694 12.4556C32.4363 12.1456 31.5962 11.722 29.9839 11.3421C29.5008 11.2273 28.9487 11.1177 28.3174 11.0165C27.5222 10.8882 26.6018 10.7723 25.5363 10.6784C25.4873 10.6742 25.4382 10.6701 25.3881 10.6659C25.1721 10.1556 24.9488 9.63381 24.7119 9.08594C24.5856 8.7927 24.4667 8.49633 24.3393 8.18222C24.3237 8.14465 24.3091 8.10709 24.2934 8.06952C23.827 6.91743 23.3354 5.733 22.486 4.68214C21.5416 3.51649 20.305 2.87366 19.0005 2.87366C17.6971 2.87366 16.4594 3.51649 15.5161 4.68214C14.6677 5.73195 14.1751 6.91535 13.7086 8.06743C13.693 8.10604 13.6773 8.14465 13.6627 8.18222C13.5354 8.49633 13.4154 8.7927 13.2891 9.08594C13.0522 9.63381 12.83 10.1556 12.6139 10.6659C12.5638 10.6701 12.5138 10.6742 12.4658 10.6784C11.3982 10.7734 10.4757 10.8882 9.67946 11.0176C9.0502 11.1177 8.50024 11.2273 8.01812 11.3421C6.40582 11.722 5.56576 12.1456 5.13373 12.4556C5.1306 12.4577 5.12851 12.4587 5.12642 12.4598C4.97093 12.5725 4.89162 12.7613 4.91667 12.9513L5.0565 13.9917C5.26939 15.5487 5.4948 17.377 5.86839 19.2606C6.15015 20.6851 6.5154 22.1398 7.02152 23.534C7.2198 24.0818 7.43999 24.6203 7.68627 25.1442C9.33717 28.4668 12.4084 30.9578 16.1046 31.826C17.0344 32.0441 18.0029 32.1589 18.9984 32.1589C19.9898 32.1589 20.9551 32.0442 21.8797 31.8271C25.6469 30.9495 28.7651 28.3834 30.3961 24.9699C30.5871 24.5525 30.7614 24.1257 30.9231 23.6915C32.07 20.6026 32.5135 17.1964 32.8777 14.4895L33.0812 12.9471C33.1063 12.7582 33.027 12.5683 32.8725 12.4577Z" fill="url(#paint0_linear_2090_3268)"/>
</g>
<defs>
<linearGradient id="paint0_linear_2090_3268" x1="18.9989" y1="2.87366" x2="18.9989" y2="32.1589" gradientUnits="userSpaceOnUse">
<stop stop-color="#96D603"/>
<stop offset="1" stop-color="#009B50"/>
</linearGradient>
</defs>
</svg>
