<svg width="30" height="30" viewBox="0 0 30 30" fill="none" xmlns="http://www.w3.org/2000/svg">
<path d="M15.0782 5.42554C15.8996 5.42554 16.6784 5.83392 17.2731 6.57445C17.8081 7.24206 18.1176 7.99452 18.4113 8.72644L18.4403 8.79804C18.5204 8.99759 18.5953 9.18587 18.6749 9.37216C18.824 9.72022 18.9647 10.0517 19.1007 10.3759L19.194 10.3838C19.865 10.4435 20.4446 10.5171 20.9454 10.5986C21.343 10.663 21.6906 10.7326 21.9949 10.8055C23.0102 11.0468 23.5393 11.316 23.812 11.5129C23.812 11.5129 23.8133 11.5135 23.814 11.5142C23.9112 11.5845 23.9612 11.7051 23.9454 11.8251L23.8173 12.805C23.5879 14.5247 23.3086 16.6886 22.5864 18.651C22.4845 18.9268 22.3748 19.198 22.2545 19.4631C21.2273 21.6317 19.2637 23.2619 16.8913 23.8195C16.309 23.9574 15.7012 24.0303 15.0768 24.0303C14.4499 24.0303 13.84 23.9574 13.2545 23.8188C10.9268 23.2672 8.99272 21.6847 7.95307 19.5739C7.79797 19.2411 7.65931 18.899 7.53445 18.5509C7.21572 17.6652 6.98571 16.741 6.80827 15.8361C6.573 14.6394 6.43105 13.4779 6.29699 12.4888L6.20893 11.8278C6.19315 11.7071 6.2431 11.5871 6.34102 11.5155C6.34233 11.5149 6.34365 11.5142 6.34562 11.5129C6.61769 11.316 7.14671 11.0468 8.16205 10.8055C8.46566 10.7326 8.81199 10.663 9.20827 10.5993C9.70969 10.5171 10.2906 10.4442 10.9629 10.3838C10.9932 10.3812 11.0247 10.3785 11.0562 10.3759C11.1923 10.0517 11.3323 9.72022 11.4814 9.37216C11.561 9.18587 11.6365 8.99759 11.7167 8.79804C11.7259 8.77417 11.7358 8.74964 11.7456 8.72511C12.0394 7.9932 12.3496 7.2414 12.8838 6.57445C13.4779 5.83392 14.2573 5.42554 15.0782 5.42554ZM15.0782 7.02129C14.6273 7.02129 14.2803 7.37001 14.1134 7.57818C13.9853 7.73862 13.8716 7.91232 13.7677 8.09728C13.545 8.49241 13.3675 8.93593 13.1829 9.39669C13.1027 9.59492 13.0205 9.8011 12.9338 10.004C12.8957 10.0928 12.8582 10.1803 12.8214 10.2672C13.5036 10.24 14.2534 10.2247 15.0782 10.2247C15.9036 10.2247 16.6534 10.24 17.3349 10.2672C17.2981 10.1803 17.2613 10.0928 17.2232 10.004C17.1364 9.8011 17.0536 9.59492 16.9741 9.39669C16.7894 8.93593 16.6113 8.49307 16.3892 8.09795C16.2854 7.91298 16.1717 7.73862 16.0429 7.57818C15.876 7.37001 15.529 7.02129 15.0782 7.02129Z" fill="#D8D8D8"/>
<mask id="mask0_6917_5515" style="mask-type:luminance" maskUnits="userSpaceOnUse" x="6" y="5" width="18" height="20">
<path d="M15.0782 5.42554C15.8996 5.42554 16.6784 5.83392 17.2731 6.57445C17.8081 7.24206 18.1176 7.99452 18.4113 8.72644L18.4403 8.79804C18.5204 8.99759 18.5953 9.18587 18.6749 9.37216C18.824 9.72022 18.9647 10.0517 19.1007 10.3759L19.194 10.3838C19.865 10.4435 20.4446 10.5171 20.9454 10.5986C21.343 10.663 21.6906 10.7326 21.9949 10.8055C23.0102 11.0468 23.5393 11.316 23.812 11.5129C23.812 11.5129 23.8133 11.5135 23.814 11.5142C23.9112 11.5845 23.9612 11.7051 23.9454 11.8251L23.8173 12.805C23.5879 14.5247 23.3086 16.6886 22.5864 18.651C22.4845 18.9268 22.3748 19.198 22.2545 19.4631C21.2273 21.6317 19.2637 23.2619 16.8913 23.8195C16.309 23.9574 15.7012 24.0303 15.0768 24.0303C14.4499 24.0303 13.84 23.9574 13.2545 23.8188C10.9268 23.2672 8.99272 21.6847 7.95307 19.5739C7.79797 19.2411 7.65931 18.899 7.53445 18.5509C7.21572 17.6652 6.98571 16.741 6.80827 15.8361C6.573 14.6394 6.43105 13.4779 6.29699 12.4888L6.20893 11.8278C6.19315 11.7071 6.2431 11.5871 6.34102 11.5155C6.34233 11.5149 6.34365 11.5142 6.34562 11.5129C6.61769 11.316 7.14671 11.0468 8.16205 10.8055C8.46566 10.7326 8.81199 10.663 9.20827 10.5993C9.70969 10.5171 10.2906 10.4442 10.9629 10.3838C10.9932 10.3812 11.0247 10.3785 11.0562 10.3759C11.1923 10.0517 11.3323 9.72022 11.4814 9.37216C11.561 9.18587 11.6365 8.99759 11.7167 8.79804C11.7259 8.77417 11.7358 8.74964 11.7456 8.72511C12.0394 7.9932 12.3496 7.2414 12.8838 6.57445C13.4779 5.83392 14.2573 5.42554 15.0782 5.42554ZM15.0782 7.02129C14.6273 7.02129 14.2803 7.37001 14.1134 7.57818C13.9853 7.73862 13.8716 7.91232 13.7677 8.09728C13.545 8.49241 13.3675 8.93593 13.1829 9.39669C13.1027 9.59492 13.0205 9.8011 12.9338 10.004C12.8957 10.0928 12.8582 10.1803 12.8214 10.2672C13.5036 10.24 14.2534 10.2247 15.0782 10.2247C15.9036 10.2247 16.6534 10.24 17.3349 10.2672C17.2981 10.1803 17.2613 10.0928 17.2232 10.004C17.1364 9.8011 17.0536 9.59492 16.9741 9.39669C16.7894 8.93593 16.6113 8.49307 16.3892 8.09795C16.2854 7.91298 16.1717 7.73862 16.0429 7.57818C15.876 7.37001 15.529 7.02129 15.0782 7.02129Z" fill="white"/>
</mask>
<g mask="url(#mask0_6917_5515)">
<path fill-rule="evenodd" clip-rule="evenodd" d="M15.0782 10.2247C14.2534 10.2247 13.5036 10.24 12.8221 10.2672C12.8589 10.1803 12.8957 10.0928 12.9338 10.004C13.0205 9.8011 13.1027 9.59492 13.1829 9.39669C13.3675 8.93593 13.545 8.49241 13.7677 8.09728C13.8716 7.91232 13.9853 7.73862 14.1134 7.57818C14.2803 7.37001 14.6273 7.02129 15.0782 7.02129C15.529 7.02129 15.876 7.37001 16.0429 7.57818C16.1717 7.73862 16.2854 7.91298 16.3892 8.09795C16.6113 8.49307 16.7894 8.93593 16.9741 9.39669C17.0536 9.59492 17.1364 9.8011 17.2232 10.004C17.2613 10.0928 17.2981 10.1803 17.3349 10.2672C16.6534 10.24 15.9036 10.2247 15.0782 10.2247ZM23.814 11.5142C23.8133 11.5135 23.812 11.5129 23.812 11.5129C23.5393 11.316 23.0102 11.0468 21.9949 10.8055C21.6906 10.7326 21.343 10.663 20.9454 10.5986C20.4446 10.5171 19.865 10.4435 19.194 10.3838C19.1631 10.3812 19.1323 10.3785 19.1007 10.3759C18.9647 10.0517 18.824 9.72022 18.6749 9.37216C18.5953 9.18587 18.5204 8.99759 18.4403 8.79804C18.4304 8.77417 18.4212 8.7503 18.4113 8.72644C18.1176 7.99452 17.8081 7.24206 17.2731 6.57445C16.6784 5.83392 15.8996 5.42554 15.0782 5.42554C14.2573 5.42554 13.4779 5.83392 12.8838 6.57445C12.3496 7.2414 12.0394 7.9932 11.7456 8.72511C11.7358 8.74964 11.7259 8.77417 11.7167 8.79804C11.6365 8.99759 11.561 9.18587 11.4814 9.37216C11.3323 9.72022 11.1923 10.0517 11.0562 10.3759C11.0247 10.3785 10.9932 10.3812 10.9629 10.3838C10.2906 10.4442 9.70969 10.5171 9.20827 10.5993C8.81199 10.663 8.46566 10.7326 8.16205 10.8055C7.14671 11.0468 6.61769 11.316 6.34562 11.5129C6.34365 11.5142 6.34233 11.5149 6.34102 11.5155C6.2431 11.5871 6.19315 11.7071 6.20893 11.8278L6.29699 12.4888C6.43105 13.4779 6.573 14.6394 6.80827 15.8361C6.98571 16.741 7.21572 17.6652 7.53445 18.5509C7.65931 18.899 7.79797 19.2411 7.95307 19.5739C8.99272 21.6847 10.9268 23.2672 13.2545 23.8188C13.84 23.9574 14.4499 24.0303 15.0768 24.0303C15.7012 24.0303 16.309 23.9574 16.8913 23.8195C19.2637 23.2619 21.2273 21.6317 22.2545 19.4631C22.3748 19.198 22.4845 18.9268 22.5864 18.651C23.3086 16.6886 23.5879 14.5247 23.8173 12.805L23.9454 11.8251C23.9612 11.7051 23.9112 11.5845 23.814 11.5142Z" fill="url(#paint0_linear_6917_5515)"/>
</g>
<defs>
<linearGradient id="paint0_linear_6917_5515" x1="15.0772" y1="5.42554" x2="15.0772" y2="24.0303" gradientUnits="userSpaceOnUse">
<stop stop-color="#96D603"/>
<stop offset="1" stop-color="#009B50"/>
</linearGradient>
</defs>
</svg>
