<svg width="38" height="38" viewBox="0 0 38 38" fill="none" xmlns="http://www.w3.org/2000/svg">
<path d="M31.4776 18.8278L31.5839 18.9287C32.5964 20.1618 33.3421 21.5916 33.7737 23.1276C34.1755 24.5702 34.2102 26.0903 33.8747 27.5497C33.8315 27.7647 33.7326 27.9645 33.5877 28.1291C33.4311 28.3153 33.2643 28.4928 33.0881 28.6606C32.6547 29.0422 32.1985 29.3972 31.7221 29.7236C30.388 30.659 29.0061 31.5201 27.603 32.3492C25.8012 33.4122 23.9728 34.438 22.0966 35.3575C21.4216 35.687 20.7413 36.0059 20.0397 36.277C19.7501 36.3882 19.4536 36.4805 19.1521 36.5534C18.925 36.608 18.6882 36.608 18.4611 36.5534C17.9649 36.4294 17.481 36.2604 17.0154 36.0485C15.9896 35.6073 14.9904 35.1077 14.0071 34.5815C11.6047 33.3112 9.26079 31.924 6.99128 30.457L6.27906 29.9787L6.07178 29.8139C6.11764 29.8079 6.1641 29.8079 6.20997 29.8139C6.3641 29.883 6.51824 29.9628 6.67238 30.0318C7.50853 30.3869 8.3849 30.6386 9.28205 30.7813C9.94772 30.8903 10.6221 30.9365 11.2965 30.9195C12.5088 30.8984 13.7035 30.625 14.8044 30.1169C15.8355 29.6385 16.8666 29.1442 17.8765 28.618C19.9174 27.555 21.9283 26.4336 23.909 25.2536C25.6364 24.2278 27.3478 23.1808 29.0061 22.0646C29.4473 21.7617 29.8778 21.4428 30.303 21.1185C30.5502 20.9306 30.7846 20.7264 31.0046 20.5073C31.2997 20.2254 31.4876 19.8496 31.5361 19.4443C31.5471 19.3365 31.5471 19.2279 31.5361 19.1201C31.5255 19.0297 31.5042 18.9553 31.4776 18.8278Z" fill="#F5853F"/>
<path d="M31.5844 18.9287L31.4781 18.8278C31.4781 18.9553 31.5259 19.0297 31.5312 19.1041C31.5423 19.2119 31.5423 19.3206 31.5312 19.4284C31.4827 19.8336 31.2948 20.2094 30.9997 20.4914C30.7797 20.7105 30.5453 20.9147 30.2982 21.1026C29.873 21.4268 29.4424 21.7457 29.0013 22.0487C27.7841 22.8831 26.5404 23.6698 25.2808 24.4351C31.4303 23.3243 33.2799 25.9286 33.838 27.5869V27.5391C34.1734 26.0797 34.1387 24.5596 33.737 23.117C33.3151 21.5877 32.5823 20.1619 31.5844 18.9287Z" fill="#F47633"/>
<path d="M34.3375 25.1208C34.2578 25.073 34.2684 25.0039 34.2684 24.9455C34.2508 24.5505 34.201 24.1577 34.1196 23.7708C33.8036 22.0502 33.074 20.4323 31.9936 19.0564C31.5022 18.4459 30.9259 17.9089 30.2821 17.4619C29.4796 16.9304 28.6876 16.351 27.8585 15.8195C25.8654 14.5227 23.8138 13.3055 21.7462 12.1362C20.0667 11.1848 18.3712 10.2653 16.6385 9.41493C15.9688 9.0854 15.2991 8.76649 14.6028 8.50074C14.3504 8.40108 14.0932 8.31416 13.8321 8.24031C13.5023 8.14434 13.152 8.14434 12.8223 8.24031C12.6355 8.29648 12.4632 8.3926 12.3173 8.522L12.1738 8.63893C12.1706 8.60002 12.1706 8.56091 12.1738 8.522C12.8755 6.61025 14.0934 4.93049 15.6924 3.66938C16.5249 3.03481 17.4621 2.55092 18.4615 2.23963C18.7541 2.1524 19.0652 2.14872 19.3598 2.229C19.7439 2.32175 20.1192 2.44802 20.4812 2.60637C21.4007 2.98374 22.2883 3.41957 23.1706 3.87666C25.8794 5.28082 28.5106 6.82974 31.0528 8.51669C31.6694 8.92595 32.27 9.34583 32.8493 9.80293C33.11 10.0097 33.3568 10.2334 33.5881 10.4726C33.7609 10.6519 33.8869 10.8709 33.9548 11.1104C34.0986 11.6321 34.1947 12.1658 34.2418 12.7049C34.4381 14.6973 34.5339 16.6983 34.5289 18.7003C34.5289 20.1194 34.5289 21.5385 34.4651 22.9523C34.4332 23.6486 34.38 24.3449 34.3375 25.0411C34.3535 25.0305 34.3428 25.0783 34.3375 25.1208Z" fill="#F99F3F"/>
<path d="M12.7956 8.24557C13.1254 8.14961 13.4757 8.14961 13.8055 8.24557C14.0666 8.31943 14.3238 8.40635 14.5762 8.50601C15.2725 8.77176 15.9421 9.09598 16.6118 9.4202C17.8556 10.0314 19.078 10.6799 20.2898 11.3442C15.4372 6.02921 18.0203 2.84019 18.6422 2.21301L18.4615 2.25553C17.4602 2.56625 16.5211 3.05016 15.687 3.68528C14.0881 4.94639 12.8701 6.62615 12.1685 8.5379C12.1652 8.57681 12.1652 8.61592 12.1685 8.65483L12.312 8.5379C12.4507 8.4073 12.6155 8.30765 12.7956 8.24557Z" fill="#F78E34"/>
<path d="M16.1707 3.06885C16.1441 3.16452 16.0697 3.19109 16.0166 3.2283C14.5736 4.22338 13.3906 5.55035 12.5671 7.09764C12.0996 7.95725 11.7815 8.89002 11.6263 9.85614C11.5838 10.1166 11.5572 10.3876 11.536 10.6428C11.4137 12.0725 11.3234 13.5023 11.2755 14.9373C11.2011 17.2653 11.1746 19.588 11.233 21.916C11.233 22.6973 11.2649 23.4839 11.2968 24.2652C11.334 25.2804 11.3925 26.2955 11.4828 27.3054C11.5241 27.8551 11.5987 28.4018 11.7061 28.9424C11.7472 29.1955 11.8261 29.4409 11.9399 29.6706C12.0271 29.8351 12.1362 29.9871 12.2641 30.1224C12.4119 30.2775 12.5939 30.3958 12.7956 30.4678L13.0136 30.5476C12.7531 30.5848 12.5512 30.6273 12.3439 30.6432C11.9293 30.6751 11.5094 30.7123 11.0895 30.723C9.98012 30.7472 8.87372 30.5984 7.81015 30.2818C6.57894 29.9154 5.44192 29.2862 4.47763 28.4375L4.42447 28.3897C4.10778 28.1468 3.88593 27.8008 3.7973 27.4117C3.71176 27.0975 3.64783 26.7779 3.60596 26.455C3.4784 25.5089 3.4093 24.5575 3.36147 23.6061C3.23922 21.3526 3.23922 19.0937 3.28706 16.8401C3.30832 15.848 3.35615 14.8558 3.43056 13.8637C3.47091 13.1906 3.54541 12.5201 3.6538 11.8546C3.70695 11.557 3.77604 11.2646 3.85577 10.9723C3.92275 10.7487 4.04526 10.5458 4.21188 10.3823C4.4941 10.0938 4.79795 9.82731 5.12075 9.58508C5.92863 8.96853 6.7684 8.39982 7.62412 7.85238C10.1435 6.23231 12.7461 4.7456 15.4213 3.39838L16.091 3.07416L16.1707 3.06885Z" fill="#FEC23B"/>
<path d="M12.2375 30.117C12.1095 29.9817 12.0005 29.8297 11.9133 29.6652C11.7994 29.4355 11.7206 29.1901 11.6794 28.937C11.572 28.3964 11.4975 27.8497 11.4562 27.3C11.3605 26.2901 11.3074 25.275 11.2702 24.2598C11.2436 23.5476 11.2277 22.8354 11.2117 22.1338C10.6005 24.0153 8.5542 29.1231 4.24902 28.2673C4.299 28.3153 4.35228 28.3597 4.40847 28.4002L4.46162 28.448C5.42641 29.2948 6.5634 29.9222 7.79415 30.287C8.85771 30.6036 9.96412 30.7524 11.0735 30.7282C11.4934 30.7282 11.908 30.6857 12.3279 30.6485C12.5352 30.6485 12.7424 30.59 12.9976 30.5528L12.7796 30.4731C12.5731 30.3994 12.3871 30.2773 12.2375 30.117Z" fill="#FBAD30"/>
</svg>
