<svg width="30" height="30" viewBox="0 0 30 30" fill="none" xmlns="http://www.w3.org/2000/svg">
<path d="M21.6985 14.9077L21.7556 14.9619C22.2991 15.6239 22.6994 16.3915 22.9311 17.2161C23.1468 17.9905 23.1654 18.8066 22.9854 19.59C22.9622 19.7054 22.909 19.8127 22.8313 19.901C22.7472 20.001 22.6577 20.0963 22.5631 20.1864C22.3304 20.3913 22.0855 20.5818 21.8298 20.757C21.1136 21.2592 20.3717 21.7215 19.6184 22.1666C18.6511 22.7373 17.6696 23.288 16.6624 23.7816C16.3 23.9585 15.9348 24.1297 15.5581 24.2752C15.4027 24.3349 15.2435 24.3845 15.0816 24.4236C14.9597 24.4529 14.8326 24.4529 14.7107 24.4236C14.4443 24.357 14.1845 24.2663 13.9346 24.1525C13.3839 23.9157 12.8475 23.6475 12.3196 23.365C11.0299 22.683 9.77157 21.9383 8.5532 21.1508L8.17085 20.894L8.05957 20.8056C8.08419 20.8023 8.10913 20.8023 8.13376 20.8056C8.2165 20.8426 8.29925 20.8854 8.382 20.9225C8.83088 21.1132 9.30135 21.2483 9.78298 21.3249C10.1403 21.3834 10.5024 21.4082 10.8644 21.399C11.5152 21.3877 12.1566 21.241 12.7476 20.9682C13.3011 20.7114 13.8547 20.446 14.3968 20.1636C15.4925 19.5929 16.572 18.9908 17.6354 18.3574C18.5627 17.8067 19.4815 17.2446 20.3717 16.6454C20.6085 16.4828 20.8396 16.3116 21.0679 16.1375C21.2006 16.0366 21.3264 15.927 21.4446 15.8094C21.603 15.658 21.7039 15.4563 21.7299 15.2387C21.7358 15.1808 21.7358 15.1225 21.7299 15.0646C21.7242 15.0161 21.7128 14.9762 21.6985 14.9077Z" fill="#F5853F"/>
<path d="M21.7556 14.9619L21.6986 14.9077C21.6986 14.9762 21.7242 15.0161 21.7271 15.0561C21.733 15.114 21.733 15.1723 21.7271 15.2301C21.7011 15.4477 21.6002 15.6494 21.4418 15.8008C21.3237 15.9184 21.1978 16.0281 21.0651 16.1289C20.8369 16.303 20.6057 16.4742 20.3689 16.6368C19.7155 17.0848 19.0478 17.5071 18.3716 17.918C21.6729 17.3216 22.6658 18.7198 22.9654 19.61V19.5843C23.1455 18.8009 23.1269 17.9848 22.9112 17.2104C22.6848 16.3894 22.2914 15.624 21.7556 14.9619Z" fill="#F47633"/>
<path d="M23.2342 18.2861C23.1914 18.2604 23.1971 18.2233 23.1971 18.1919C23.1876 17.9799 23.1609 17.769 23.1172 17.5613C22.9476 16.6376 22.5559 15.769 21.9759 15.0304C21.7121 14.7026 21.4027 14.4144 21.0571 14.1744C20.6262 13.8891 20.2011 13.5781 19.756 13.2927C18.686 12.5965 17.5846 11.9431 16.4746 11.3154C15.573 10.8046 14.6628 10.311 13.7326 9.85446C13.3731 9.67755 13.0135 9.50635 12.6398 9.36368C12.5043 9.31018 12.3662 9.26352 12.226 9.22387C12.049 9.17235 11.8609 9.17235 11.6839 9.22387C11.5836 9.25403 11.4911 9.30563 11.4128 9.3751L11.3358 9.43787C11.334 9.41698 11.334 9.39599 11.3358 9.3751C11.7124 8.34879 12.3663 7.44702 13.2247 6.77001C13.6716 6.42934 14.1747 6.16957 14.7113 6.00246C14.8683 5.95563 15.0354 5.95365 15.1935 5.99675C15.3997 6.04654 15.6012 6.11433 15.7955 6.19934C16.2892 6.40193 16.7657 6.6359 17.2393 6.88129C18.6935 7.6351 20.106 8.46662 21.4708 9.37224C21.8018 9.59195 22.1242 9.81736 22.4353 10.0628C22.5752 10.1738 22.7077 10.2939 22.8319 10.4223C22.9246 10.5185 22.9923 10.6361 23.0287 10.7647C23.1059 11.0447 23.1575 11.3313 23.1828 11.6207C23.2882 12.6903 23.3396 13.7645 23.3369 14.8392C23.3369 15.6011 23.3369 16.3629 23.3027 17.1219C23.2855 17.4957 23.257 17.8695 23.2342 18.2433C23.2427 18.2376 23.237 18.2632 23.2342 18.2861Z" fill="#F99F3F"/>
<path d="M11.6696 9.22657C11.8466 9.17505 12.0347 9.17505 12.2117 9.22657C12.3519 9.26622 12.4899 9.31288 12.6254 9.36638C12.9992 9.50905 13.3587 9.6831 13.7182 9.85716C14.3859 10.1853 15.0422 10.5334 15.6928 10.8901C13.0877 8.03673 14.4744 6.32473 14.8082 5.98804L14.7112 6.01086C14.1737 6.17767 13.6696 6.43745 13.2218 6.77841C12.3634 7.45543 11.7095 8.3572 11.3329 9.3835C11.3311 9.40439 11.3311 9.42539 11.3329 9.44628L11.4099 9.3835C11.4844 9.31339 11.5729 9.2599 11.6696 9.22657Z" fill="#F78E34"/>
<path d="M13.4808 6.44727C13.4665 6.49863 13.4266 6.51289 13.398 6.53287C12.6234 7.06707 11.9883 7.77944 11.5462 8.61009C11.2953 9.07157 11.1245 9.57231 11.0412 10.091C11.0184 10.2308 11.0041 10.3763 10.9927 10.5133C10.927 11.2808 10.8785 12.0484 10.8529 12.8188C10.8129 14.0685 10.7987 15.3154 10.83 16.5652C10.83 16.9846 10.8472 17.4069 10.8643 17.8264C10.8842 18.3713 10.9156 18.9163 10.9641 19.4585C10.9863 19.7536 11.0263 20.047 11.084 20.3373C11.1061 20.4731 11.1484 20.6049 11.2095 20.7282C11.2563 20.8165 11.3149 20.8981 11.3836 20.9707C11.4629 21.054 11.5606 21.1175 11.6689 21.1562L11.7859 21.199C11.6461 21.219 11.5377 21.2418 11.4264 21.2504C11.2038 21.2675 10.9784 21.2875 10.753 21.2932C10.1574 21.3062 9.56345 21.2263 8.99249 21.0563C8.33152 20.8596 7.72113 20.5218 7.20345 20.0662L7.17491 20.0405C7.0049 19.9102 6.8858 19.7244 6.83822 19.5155C6.7923 19.3469 6.75798 19.1753 6.7355 19.0019C6.66702 18.494 6.62993 17.9833 6.60425 17.4725C6.53862 16.2627 6.53862 15.0501 6.5643 13.8403C6.57571 13.3076 6.6014 12.775 6.64134 12.2424C6.663 11.8811 6.703 11.5211 6.76118 11.1638C6.78972 11.004 6.82681 10.8471 6.86961 10.6902C6.90557 10.5701 6.97134 10.4612 7.06078 10.3735C7.21229 10.2186 7.37541 10.0755 7.5487 9.94545C7.98241 9.61447 8.43324 9.30916 8.89262 9.01527C10.2451 8.14555 11.6423 7.34742 13.0785 6.62417L13.438 6.45012L13.4808 6.44727Z" fill="#FEC23B"/>
<path d="M11.3696 20.9678C11.3009 20.8952 11.2424 20.8136 11.1956 20.7253C11.1344 20.602 11.0921 20.4702 11.07 20.3344C11.0124 20.0441 10.9723 19.7507 10.9502 19.4556C10.8988 18.9134 10.8703 18.3684 10.8503 17.8235C10.836 17.4411 10.8275 17.0588 10.8189 16.6821C10.4908 17.6922 9.39225 20.4343 7.08105 19.9749C7.10789 20.0006 7.13649 20.0245 7.16665 20.0462L7.19519 20.0719C7.71313 20.5265 8.32351 20.8633 8.98423 21.0591C9.55519 21.2291 10.1492 21.309 10.7447 21.296C10.9701 21.296 11.1927 21.2731 11.4181 21.2532C11.5294 21.2532 11.6407 21.2218 11.7776 21.2018L11.6607 21.159C11.5497 21.1195 11.4499 21.0539 11.3696 20.9678Z" fill="#FBAD30"/>
</svg>
