<svg width="30" height="30" viewBox="0 0 30 30" fill="none" xmlns="http://www.w3.org/2000/svg">
<path fill-rule="evenodd" clip-rule="evenodd" d="M14.3927 7.55688L14.4015 7.55817C16.7528 11.3651 19.11 15.1696 21.459 18.9776C20.39 18.9772 19.3209 18.9782 18.2518 18.9771C16.964 16.8849 15.6819 14.7894 14.3986 12.6947C14.3748 12.7195 14.3613 12.7503 14.3429 12.7782C13.0751 14.844 11.8108 16.9116 10.5409 18.9765C9.47226 18.9795 8.40348 18.9759 7.33485 18.9783C7.34621 18.9497 7.36317 18.9235 7.37949 18.8974C9.71802 15.1176 12.0529 11.3359 14.3927 7.55688ZM7.0707 20.2592C7.19853 19.9719 7.52957 19.7681 7.87756 19.7669C8.3254 19.7668 8.77323 19.7658 9.22107 19.7674C9.22267 19.9423 9.22298 20.1173 9.2209 20.2922C8.77291 20.2941 8.32476 20.2914 7.87676 20.2935C7.72221 20.2968 7.58861 20.4244 7.59677 20.5621C7.59677 20.6953 7.72717 20.8133 7.87628 20.8183C8.09004 20.8209 8.3038 20.8178 8.51771 20.8197C8.80699 20.8271 9.08491 20.9728 9.23594 21.192C9.38538 21.4011 9.41194 21.675 9.30458 21.9037C9.20203 22.1306 8.97467 22.3088 8.70843 22.3705C8.56331 22.4079 8.41068 22.3945 8.26172 22.3969C7.89244 22.3955 7.52285 22.3999 7.15357 22.3948C7.15341 22.2204 7.15117 22.0459 7.15469 21.8715C7.59853 21.8691 8.04236 21.8715 8.4862 21.8704C8.64443 21.873 8.78539 21.7437 8.77851 21.6031C8.77947 21.4706 8.65083 21.3504 8.50172 21.3456C8.28828 21.3424 8.07468 21.3459 7.86124 21.3439C7.56461 21.3373 7.28045 21.1849 7.13021 20.9581C6.98846 20.7504 6.96574 20.4834 7.0707 20.2592ZM9.66714 19.7674C9.86378 19.7669 10.0607 19.7645 10.2574 19.7687C10.2579 20.1185 10.255 20.4687 10.2587 20.8187C10.6524 20.8186 11.0463 20.8219 11.4399 20.817C11.4399 20.4672 11.4377 20.117 11.441 19.7671C11.637 19.7662 11.833 19.7667 12.029 19.7668C12.0329 20.6429 12.0308 21.5192 12.03 22.3954C11.8335 22.3979 11.6366 22.3987 11.4401 22.3951C11.4388 22.0465 11.4393 21.6979 11.4399 21.3493C11.0465 21.3437 10.6481 21.3382 10.2561 21.3521C10.2582 21.6999 10.2579 22.0478 10.2563 22.3957C10.0598 22.3974 9.86282 22.3992 9.66634 22.3948C9.66586 21.519 9.66442 20.6431 9.66714 19.7674ZM13.9498 19.7692C14.4973 20.6432 15.0389 21.5211 15.5768 22.4001H14.8431C14.5444 21.9211 14.2544 21.4377 13.9562 20.9585C13.9429 20.9668 13.9332 20.9776 13.9266 20.9914C13.6384 21.461 13.3522 21.9316 13.0618 22.4001H12.3265C12.8641 21.5214 13.4106 20.6471 13.9498 19.7692ZM14.9866 19.7689C15.7744 19.7644 16.5629 19.7671 17.3509 19.7675C17.3528 19.9423 17.3528 20.1174 17.3509 20.2922C17.0555 20.2975 16.7582 20.2857 16.464 20.2982C16.4664 20.9973 16.4659 21.6966 16.4643 22.3958C16.2677 22.3972 16.0707 22.3995 15.8744 22.3947C15.8733 21.6947 15.8743 20.9948 15.8739 20.2949C15.5783 20.2891 15.2823 20.297 14.9866 20.2909C14.9871 20.1168 14.9874 19.9429 14.9866 19.7689ZM17.6494 19.7675C18.2891 19.7668 18.9292 19.7648 19.5689 19.7687C19.5694 19.9427 19.5696 20.117 19.5688 20.2912C19.1262 20.2962 18.6833 20.2904 18.2408 20.2941C18.2377 20.4687 18.2369 20.6438 18.2411 20.8186C18.6337 20.8209 19.0267 20.8175 19.4193 20.8202C19.4225 20.9948 19.4238 21.1699 19.4187 21.3446C19.026 21.3461 18.6334 21.3427 18.2408 21.3461C18.2384 21.5208 18.2355 21.696 18.2424 21.8705C18.6843 21.8735 19.1268 21.8661 19.5684 21.8741C19.57 22.0493 19.5692 22.2247 19.5686 22.4001H17.6485C17.6477 21.5227 17.6456 20.6449 17.6494 19.7675ZM19.8672 19.7667C20.063 19.7672 20.259 19.7655 20.4548 19.7675C20.4582 20.4683 20.454 21.1693 20.4569 21.8703C20.9009 21.8723 21.3451 21.8691 21.789 21.8718C21.7937 22.0462 21.791 22.221 21.7903 22.3955C21.1491 22.3985 20.5073 22.3974 19.8659 22.3961C19.8643 21.5197 19.8617 20.6428 19.8672 19.7667Z" fill="#002A63"/>
<path fill-rule="evenodd" clip-rule="evenodd" d="M14.217 15.5566C14.9842 15.4866 15.7631 15.8675 16.1354 16.4635C16.4407 16.9381 16.4743 17.5401 16.2269 18.0404C16.032 18.441 15.6653 18.7726 15.2175 18.9514C14.7015 19.1624 14.0823 19.1617 13.5674 18.9484C13.1015 18.7605 12.7245 18.4068 12.5385 17.9831C12.3319 17.52 12.3586 16.9791 12.6138 16.5352C12.9159 15.9962 13.5418 15.6111 14.217 15.5566ZM13.8857 21.6125C14.1045 21.5783 14.3338 21.714 14.3826 21.9067C14.4436 22.1034 14.301 22.3252 14.0805 22.3796C13.8452 22.4497 13.57 22.3063 13.5207 22.0907C13.4573 21.8762 13.6385 21.6392 13.8857 21.6125Z" fill="#F26322"/>
</svg>
