<svg width="36" height="35" viewBox="0 0 36 35" fill="none" xmlns="http://www.w3.org/2000/svg">
<path d="M18.159 7.87877C18.5781 3.67196 21.7305 0.675233 25.1986 1.18366L25.8063 1.27236C25.911 1.2882 25.987 1.40382 25.9739 1.53053L25.9006 2.26704C25.4815 6.47384 22.3291 9.47056 18.861 8.96213L18.2533 8.87343C18.1486 8.85761 18.0739 8.74197 18.0857 8.61526L18.159 7.87877Z" fill="#0047FF"/>
<path fill-rule="evenodd" clip-rule="evenodd" d="M13.3954 10.1455C9.13629 10.1455 5.68457 13.2846 5.68457 17.1556V25.6809C5.68457 29.5519 9.13629 32.691 13.3954 32.691H22.7737C27.0328 32.691 30.4846 29.5532 30.4846 25.6809V17.1556C30.4846 13.2846 27.0328 10.1455 22.7737 10.1455H13.3954ZM13.8126 15.071C12.316 15.071 11.1028 16.1733 11.1028 17.5337V25.3014C11.1028 26.6619 12.316 27.7642 13.8126 27.7642H22.3579C23.8545 27.7642 25.0678 26.6619 25.0678 25.3014V17.5337C25.0678 16.1733 23.8545 15.071 22.3579 15.071H13.8126Z" fill="#0047FF"/>
</svg>
