<svg width="30" height="30" viewBox="0 0 30 30" fill="none" xmlns="http://www.w3.org/2000/svg">
<path d="M15.5562 9.59204C15.8004 7.14007 17.6378 5.39341 19.6592 5.68975L20.0134 5.74145C20.0745 5.75068 20.1187 5.81807 20.1111 5.89193L20.0684 6.32121C19.8241 8.77317 17.9867 10.5198 15.9653 10.2235L15.6111 10.1718C15.5501 10.1626 15.5065 10.0952 15.5134 10.0213L15.5562 9.59204Z" fill="#0047FF"/>
<path fill-rule="evenodd" clip-rule="evenodd" d="M12.78 10.9133C10.2975 10.9133 8.28564 12.743 8.28564 14.9992V19.9683C8.28564 22.2245 10.2975 24.0541 12.78 24.0541H18.2462C20.7286 24.0541 22.7405 22.2252 22.7405 19.9683V14.9992C22.7405 12.743 20.7286 10.9133 18.2462 10.9133H12.78ZM13.0231 13.7842C12.1508 13.7842 11.4437 14.4267 11.4437 15.2196V19.7471C11.4437 20.54 12.1508 21.1825 13.0231 21.1825H18.0038C18.8761 21.1825 19.5833 20.54 19.5833 19.7471V15.2196C19.5833 14.4267 18.8761 13.7842 18.0038 13.7842H13.0231Z" fill="#0047FF"/>
</svg>
