<svg width="60" height="60" viewBox="0 0 60 60" fill="none" xmlns="http://www.w3.org/2000/svg">
<path d="M44.4557 45.0857C44.2169 45.385 43.8743 45.5836 43.4961 45.642L39.288 46.8338C38.9202 46.9754 38.5133 46.9754 38.1455 46.8338C37.8472 46.5861 37.6484 46.2389 37.5862 45.8561C31.4725 23.0451 30.6302 18.1257 28.1688 18.1257C25.7075 18.1257 24.8652 23.0451 18.7515 45.8665C18.6891 46.2493 18.4905 46.5965 18.1923 46.8442C17.8245 46.9857 17.4174 46.9857 17.0496 46.8442L12.8415 45.642C12.4639 45.5844 12.1222 45.3856 11.8853 45.0857C11.7505 44.7213 11.7505 44.3206 11.8853 43.9561C18.1198 20.7167 21.6375 14.1528 28.1688 14.1528C34.7002 14.1528 38.2043 20.7167 44.4523 43.9561C44.5847 44.3208 44.5861 44.7202 44.4557 45.0857Z" fill="#FDB913"/>
<path d="M48.1951 30.4065C48.192 30.63 48.1415 30.8502 48.0468 31.0526L47.8708 31.5293C47.7923 31.8086 47.6205 32.0524 47.3841 32.2202C47.1072 32.3367 46.7992 32.355 46.5105 32.2721C41.0244 31.062 35.2897 31.7638 30.2566 34.2612C25.2234 36.7586 21.1937 40.9017 18.8351 46.0043C18.6625 46.3843 18.3898 46.9474 17.7753 46.9474C17.5292 46.947 17.2847 46.9085 17.0504 46.8334L12.8423 45.645C12.3555 45.5068 11.8066 45.2995 11.8066 44.6604C11.8248 44.3757 11.9025 44.098 12.0345 43.8451C15.0247 37.4342 20.3307 32.3947 26.8843 29.7411C33.4379 27.0875 40.7527 27.0167 47.3564 29.5429C47.681 29.6672 48.1951 29.8676 48.1951 30.4065Z" fill="url(#paint0_linear_6917_5559)"/>
<defs>
<linearGradient id="paint0_linear_6917_5559" x1="11.7825" y1="37.3158" x2="48.1951" y2="37.3158" gradientUnits="userSpaceOnUse">
<stop offset="0.3" stop-color="#FDB913"/>
<stop offset="0.75" stop-color="#F7941F"/>
</linearGradient>
</defs>
</svg>
