<svg width="60" height="60" viewBox="0 0 60 60" fill="none" xmlns="http://www.w3.org/2000/svg">
<path d="M30.1563 10.8511C31.7992 10.8511 33.3567 11.6678 34.5462 13.1489C35.6161 14.4841 36.2352 15.989 36.8227 17.4529L36.8805 17.5961C37.0409 17.9952 37.1907 18.3717 37.3497 18.7443C37.6481 19.4404 37.9294 20.1034 38.2014 20.7518L38.3881 20.7677C39.73 20.887 40.8893 21.0342 41.8908 21.1973C42.686 21.3259 43.3813 21.4651 43.9898 21.611C46.0205 22.0936 47.0785 22.632 47.624 23.0258C47.624 23.0258 47.6266 23.0271 47.6279 23.0284C47.8225 23.169 47.9224 23.4103 47.8908 23.6503L47.6345 25.61C47.1758 29.0494 46.6172 33.3773 45.1727 37.302C44.969 37.8536 44.7495 38.3959 44.509 38.9263C42.4547 43.2634 38.5274 46.5239 33.7826 47.639C32.6181 47.9148 31.4023 48.0606 30.1537 48.0606C28.8998 48.0606 27.6801 47.9148 26.509 47.6376C21.8536 46.5345 17.9854 43.3695 15.9061 39.1477C15.5959 38.4821 15.3186 37.7979 15.0689 37.1018C14.4314 35.3304 13.9714 33.482 13.6165 31.6721C13.146 29.2788 12.8621 26.9558 12.594 24.9775L12.4179 23.6556C12.3863 23.4142 12.4862 23.1743 12.682 23.0311C12.6847 23.0297 12.6873 23.0284 12.6912 23.0258C13.2354 22.632 14.2934 22.0936 16.3241 21.611C16.9313 21.4651 17.624 21.3259 18.4165 21.1986C19.4194 21.0342 20.5813 20.8884 21.9259 20.7677C21.9863 20.7624 22.0494 20.7571 22.1125 20.7518C22.3846 20.1034 22.6645 19.4404 22.9629 18.7443C23.1219 18.3717 23.2731 17.9952 23.4334 17.5961C23.4518 17.5483 23.4715 17.4993 23.4912 17.4502C24.0788 15.9864 24.6991 14.4828 25.7677 13.1489C26.9559 11.6678 28.5147 10.8511 30.1563 10.8511ZM30.1563 14.0426C29.2547 14.0426 28.5607 14.74 28.2268 15.1564C27.9705 15.4772 27.7432 15.8246 27.5355 16.1946C27.0899 16.9848 26.7351 17.8719 26.3657 18.7934C26.2054 19.1898 26.0411 19.6022 25.8676 20.0079C25.7914 20.1856 25.7164 20.3606 25.6428 20.5343C27.0071 20.48 28.5068 20.4495 30.1563 20.4495C31.8071 20.4495 33.3068 20.48 34.6698 20.5343C34.5962 20.3606 34.5226 20.1856 34.4463 20.0079C34.2728 19.6022 34.1072 19.1898 33.9482 18.7934C33.5789 17.8719 33.2227 16.9861 32.7784 16.1959C32.5708 15.826 32.3434 15.4772 32.0858 15.1564C31.7519 14.74 31.0579 14.0426 30.1563 14.0426Z" fill="#D8D8D8"/>
<mask id="mask0_6917_5594" style="mask-type:luminance" maskUnits="userSpaceOnUse" x="12" y="10" width="36" height="39">
<path d="M30.1563 10.8511C31.7992 10.8511 33.3567 11.6678 34.5462 13.1489C35.6161 14.4841 36.2352 15.989 36.8227 17.4529L36.8805 17.5961C37.0409 17.9952 37.1907 18.3717 37.3497 18.7443C37.6481 19.4404 37.9294 20.1034 38.2014 20.7518L38.3881 20.7677C39.73 20.887 40.8893 21.0342 41.8908 21.1973C42.686 21.3259 43.3813 21.4651 43.9898 21.611C46.0205 22.0936 47.0785 22.632 47.624 23.0258C47.624 23.0258 47.6266 23.0271 47.6279 23.0284C47.8225 23.169 47.9224 23.4103 47.8908 23.6503L47.6345 25.61C47.1758 29.0494 46.6172 33.3773 45.1727 37.302C44.969 37.8536 44.7495 38.3959 44.509 38.9263C42.4547 43.2634 38.5274 46.5239 33.7826 47.639C32.6181 47.9148 31.4023 48.0606 30.1537 48.0606C28.8998 48.0606 27.6801 47.9148 26.509 47.6376C21.8536 46.5345 17.9854 43.3695 15.9061 39.1477C15.5959 38.4821 15.3186 37.7979 15.0689 37.1018C14.4314 35.3304 13.9714 33.482 13.6165 31.6721C13.146 29.2788 12.8621 26.9558 12.594 24.9775L12.4179 23.6556C12.3863 23.4142 12.4862 23.1743 12.682 23.0311C12.6847 23.0297 12.6873 23.0284 12.6912 23.0258C13.2354 22.632 14.2934 22.0936 16.3241 21.611C16.9313 21.4651 17.624 21.3259 18.4165 21.1986C19.4194 21.0342 20.5813 20.8884 21.9259 20.7677C21.9863 20.7624 22.0494 20.7571 22.1125 20.7518C22.3846 20.1034 22.6645 19.4404 22.9629 18.7443C23.1219 18.3717 23.2731 17.9952 23.4334 17.5961C23.4518 17.5483 23.4715 17.4993 23.4912 17.4502C24.0788 15.9864 24.6991 14.4828 25.7677 13.1489C26.9559 11.6678 28.5147 10.8511 30.1563 10.8511ZM30.1563 14.0426C29.2547 14.0426 28.5607 14.74 28.2268 15.1564C27.9705 15.4772 27.7432 15.8246 27.5355 16.1946C27.0899 16.9848 26.7351 17.8719 26.3657 18.7934C26.2054 19.1898 26.0411 19.6022 25.8676 20.0079C25.7914 20.1856 25.7164 20.3606 25.6428 20.5343C27.0071 20.48 28.5068 20.4495 30.1563 20.4495C31.8071 20.4495 33.3068 20.48 34.6698 20.5343C34.5962 20.3606 34.5226 20.1856 34.4463 20.0079C34.2728 19.6022 34.1072 19.1898 33.9482 18.7934C33.5789 17.8719 33.2227 16.9861 32.7784 16.1959C32.5708 15.826 32.3434 15.4772 32.0858 15.1564C31.7519 14.74 31.0579 14.0426 30.1563 14.0426Z" fill="white"/>
</mask>
<g mask="url(#mask0_6917_5594)">
<path fill-rule="evenodd" clip-rule="evenodd" d="M30.1563 20.4495C28.5068 20.4495 27.0071 20.48 25.6441 20.5343C25.7177 20.3606 25.7914 20.1856 25.8676 20.0079C26.0411 19.6022 26.2054 19.1898 26.3657 18.7934C26.7351 17.8719 27.0899 16.9848 27.5355 16.1946C27.7432 15.8246 27.9705 15.4772 28.2268 15.1564C28.5607 14.74 29.2547 14.0426 30.1563 14.0426C31.0579 14.0426 31.7519 14.74 32.0858 15.1564C32.3434 15.4772 32.5708 15.826 32.7784 16.1959C33.2227 16.9861 33.5789 17.8719 33.9482 18.7934C34.1072 19.1898 34.2728 19.6022 34.4463 20.0079C34.5226 20.1856 34.5962 20.3606 34.6698 20.5343C33.3068 20.48 31.8071 20.4495 30.1563 20.4495ZM47.6279 23.0284C47.6266 23.0271 47.624 23.0258 47.624 23.0258C47.0785 22.632 46.0205 22.0936 43.9898 21.611C43.3813 21.4651 42.686 21.3259 41.8908 21.1973C40.8893 21.0342 39.73 20.887 38.3881 20.7677C38.3263 20.7624 38.2645 20.7571 38.2014 20.7518C37.9294 20.1034 37.6481 19.4404 37.3497 18.7443C37.1907 18.3717 37.0409 17.9952 36.8805 17.5961C36.8608 17.5483 36.8424 17.5006 36.8227 17.4529C36.2352 15.989 35.6161 14.4841 34.5462 13.1489C33.3567 11.6678 31.7992 10.8511 30.1563 10.8511C28.5147 10.8511 26.9559 11.6678 25.7677 13.1489C24.6991 14.4828 24.0788 15.9864 23.4912 17.4502C23.4715 17.4993 23.4518 17.5483 23.4334 17.5961C23.2731 17.9952 23.1219 18.3717 22.9629 18.7443C22.6645 19.4404 22.3846 20.1034 22.1125 20.7518C22.0494 20.7571 21.9863 20.7624 21.9259 20.7677C20.5813 20.8884 19.4194 21.0342 18.4165 21.1986C17.624 21.3259 16.9313 21.4651 16.3241 21.611C14.2934 22.0936 13.2354 22.632 12.6912 23.0258C12.6873 23.0284 12.6847 23.0297 12.682 23.0311C12.4862 23.1743 12.3863 23.4142 12.4179 23.6556L12.594 24.9775C12.8621 26.9558 13.146 29.2788 13.6165 31.6721C13.9714 33.482 14.4314 35.3304 15.0689 37.1018C15.3186 37.7979 15.5959 38.4821 15.9061 39.1477C17.9854 43.3695 21.8536 46.5345 26.509 47.6376C27.6801 47.9148 28.8998 48.0606 30.1537 48.0606C31.4023 48.0606 32.6181 47.9148 33.7826 47.639C38.5274 46.5239 42.4547 43.2634 44.509 38.9263C44.7495 38.3959 44.969 37.8536 45.1727 37.302C46.6172 33.3773 47.1758 29.0494 47.6345 25.61L47.8908 23.6503C47.9224 23.4103 47.8225 23.169 47.6279 23.0284Z" fill="url(#paint0_linear_6917_5594)"/>
</g>
<defs>
<linearGradient id="paint0_linear_6917_5594" x1="30.1543" y1="10.8511" x2="30.1543" y2="48.0606" gradientUnits="userSpaceOnUse">
<stop stop-color="#96D603"/>
<stop offset="1" stop-color="#009B50"/>
</linearGradient>
</defs>
</svg>
