<svg width="60" height="60" viewBox="0 0 60 60" fill="none" xmlns="http://www.w3.org/2000/svg">
<path d="M43.397 29.8154L43.5111 29.9239C44.5982 31.2478 45.3988 32.7829 45.8623 34.4321C46.2936 35.981 46.3309 37.6131 45.9707 39.1801C45.9244 39.4109 45.8181 39.6254 45.6626 39.8021C45.4944 40.0021 45.3153 40.1926 45.1261 40.3728C44.6608 40.7825 44.171 41.1637 43.6595 41.5141C42.2271 42.5185 40.7434 43.4429 39.2368 44.3332C37.3023 45.4745 35.3392 46.5759 33.3247 47.5632C32.6 47.917 31.8695 48.2594 31.1163 48.5504C30.8053 48.6698 30.487 48.7689 30.1632 48.8472C29.9194 48.9058 29.6652 48.9058 29.4214 48.8472C28.8886 48.714 28.369 48.5325 27.8692 48.305C26.7678 47.8314 25.6949 47.2949 24.6392 46.73C22.0598 45.3661 19.5431 43.8767 17.1064 42.3016L16.3417 41.788L16.1191 41.6111C16.1684 41.6047 16.2183 41.6047 16.2675 41.6111C16.433 41.6853 16.5985 41.7709 16.764 41.8451C17.6618 42.2263 18.6027 42.4965 19.566 42.6497C20.2807 42.7667 21.0048 42.8164 21.7288 42.7981C23.0305 42.7755 24.3132 42.482 25.4952 41.9364C26.6023 41.4228 27.7094 40.8921 28.7936 40.3271C30.985 39.1858 33.144 37.9817 35.2707 36.7148C37.1254 35.6134 38.9629 34.4892 40.7434 33.2908C41.2171 32.9655 41.6793 32.6231 42.1358 32.275C42.4012 32.0732 42.6529 31.854 42.8891 31.6187C43.206 31.316 43.4077 30.9125 43.4598 30.4774C43.4716 30.3617 43.4716 30.245 43.4598 30.1293C43.4484 30.0323 43.4255 29.9524 43.397 29.8154Z" fill="#F5853F"/>
<path d="M43.5113 29.9239L43.3971 29.8154C43.3971 29.9524 43.4485 30.0323 43.4542 30.1122C43.466 30.2279 43.466 30.3445 43.4542 30.4603C43.4021 30.8954 43.2004 31.2989 42.8835 31.6016C42.6473 31.8369 42.3957 32.0561 42.1303 32.2579C41.6737 32.606 41.2115 32.9484 40.7378 33.2737C39.431 34.1696 38.0956 35.0142 36.7432 35.836C43.3458 34.6433 45.3317 37.4395 45.9309 39.22V39.1687C46.2911 37.6017 46.2538 35.9696 45.8225 34.4207C45.3695 32.7788 44.5827 31.2479 43.5113 29.9239Z" fill="#F47633"/>
<path d="M46.4684 36.5721C46.3828 36.5208 46.3942 36.4466 46.3942 36.3838C46.3752 35.9598 46.3218 35.538 46.2344 35.1226C45.8951 33.2753 45.1117 31.5381 43.9517 30.0608C43.4242 29.4053 42.8054 28.8287 42.1142 28.3488C41.2525 27.7781 40.4022 27.1561 39.5119 26.5855C37.3719 25.193 35.1692 23.8862 32.9493 22.6307C31.146 21.6092 29.3255 20.622 27.4652 19.7089C26.7461 19.3551 26.0271 19.0127 25.2795 18.7274C25.0086 18.6204 24.7324 18.527 24.4521 18.4477C24.098 18.3447 23.7219 18.3447 23.3678 18.4477C23.1673 18.5081 22.9823 18.6113 22.8256 18.7502L22.6716 18.8757C22.6681 18.834 22.6681 18.792 22.6716 18.7502C23.4249 16.6976 24.7326 14.894 26.4494 13.54C27.3432 12.8587 28.3495 12.3391 29.4226 12.0049C29.7367 11.9113 30.0707 11.9073 30.387 11.9935C30.7994 12.0931 31.2023 12.2287 31.5911 12.3987C32.5783 12.8039 33.5314 13.2718 34.4787 13.7626C37.387 15.2702 40.2121 16.9332 42.9416 18.7445C43.6036 19.1839 44.2485 19.6347 44.8705 20.1255C45.1504 20.3475 45.4154 20.5877 45.6637 20.8445C45.8493 21.037 45.9845 21.2722 46.0575 21.5293C46.2119 22.0895 46.315 22.6625 46.3656 23.2413C46.5764 25.3805 46.6792 27.5289 46.6738 29.6785C46.6738 31.2021 46.6738 32.7258 46.6053 34.2438C46.5711 34.9914 46.514 35.7389 46.4684 36.4865C46.4855 36.4751 46.4741 36.5265 46.4684 36.5721Z" fill="#F99F3F"/>
<path d="M23.3391 18.4531C23.6932 18.3501 24.0693 18.3501 24.4234 18.4531C24.7037 18.5324 24.9799 18.6258 25.2508 18.7328C25.9984 19.0181 26.7175 19.3662 27.4365 19.7143C28.7719 20.3706 30.0844 21.0668 31.3855 21.7801C26.1753 16.0735 28.9488 12.6495 29.6164 11.9761L29.4224 12.0217C28.3473 12.3553 27.3391 12.8749 26.4435 13.5568C24.7268 14.9109 23.4191 16.7144 22.6657 18.767C22.6622 18.8088 22.6622 18.8508 22.6657 18.8926L22.8198 18.767C22.9687 18.6268 23.1457 18.5198 23.3391 18.4531Z" fill="#F78E34"/>
<path d="M26.9616 12.8945C26.933 12.9973 26.8531 13.0258 26.7961 13.0657C25.2468 14.1341 23.9767 15.5589 23.0924 17.2202C22.5905 18.1431 22.249 19.1446 22.0824 20.1819C22.0367 20.4616 22.0082 20.7526 21.9854 21.0265C21.8541 22.5616 21.7571 24.0967 21.7057 25.6375C21.6258 28.137 21.5973 30.6308 21.6601 33.1304C21.6601 33.9692 21.6943 34.8138 21.7286 35.6527C21.7685 36.7427 21.8313 37.8327 21.9283 38.9169C21.9726 39.5071 22.0526 40.0941 22.168 40.6746C22.2122 40.9463 22.2968 41.2098 22.4191 41.4564C22.5127 41.6331 22.6298 41.7962 22.7672 41.9415C22.9258 42.108 23.1212 42.235 23.3378 42.3124L23.5718 42.398C23.2922 42.4379 23.0753 42.4836 22.8528 42.5007C22.4076 42.535 21.9568 42.5749 21.506 42.5863C20.3148 42.6123 19.1269 42.4525 17.985 42.1127C16.663 41.7193 15.4423 41.0437 14.4069 40.1324L14.3498 40.0811C14.0098 39.8203 13.7716 39.4489 13.6764 39.0311C13.5846 38.6937 13.516 38.3505 13.471 38.0039C13.334 36.9881 13.2599 35.9666 13.2085 34.9451C13.0772 32.5255 13.0772 30.1001 13.1286 27.6805C13.1514 26.6153 13.2028 25.55 13.2827 24.4848C13.326 23.7621 13.406 23.0422 13.5224 22.3276C13.5794 22.0081 13.6536 21.6942 13.7392 21.3803C13.8111 21.1403 13.9427 20.9224 14.1216 20.7469C14.4246 20.4372 14.7508 20.151 15.0974 19.8909C15.9648 19.2289 16.8665 18.6183 17.7852 18.0305C20.4902 16.2911 23.2846 14.6948 26.1569 13.2483L26.876 12.9002L26.9616 12.8945Z" fill="#FEC23B"/>
<path d="M22.7392 41.9357C22.6018 41.7904 22.4847 41.6273 22.3911 41.4506C22.2689 41.204 22.1842 40.9405 22.14 40.6688C22.0247 40.0883 21.9447 39.5013 21.9003 38.9111C21.7976 37.8269 21.7406 36.7369 21.7006 35.6469C21.6721 34.8822 21.655 34.1175 21.6378 33.3643C20.9816 35.3844 18.7845 40.8685 14.1621 39.9498C14.2158 40.0012 14.273 40.0489 14.3333 40.0924L14.3904 40.1438C15.4263 41.0529 16.647 41.7266 17.9685 42.1183C19.1104 42.4582 20.2983 42.618 21.4895 42.5919C21.9403 42.5919 22.3854 42.5463 22.8362 42.5063C23.0588 42.5063 23.2814 42.4436 23.5553 42.4036L23.3213 42.318C23.0995 42.239 22.8999 42.1078 22.7392 41.9357Z" fill="#FBAD30"/>
</svg>
