<svg width="60" height="60" viewBox="0 0 60 60" fill="none" xmlns="http://www.w3.org/2000/svg">
<path fill-rule="evenodd" clip-rule="evenodd" d="M28.7853 15.1138L28.8029 15.1163C33.5056 22.7302 38.2201 30.3392 42.9179 37.9553C40.7801 37.9544 38.6418 37.9564 36.5036 37.9541C33.928 33.7697 31.3639 29.5787 28.7972 25.3895C28.7495 25.439 28.7226 25.5005 28.6858 25.5563C26.1502 29.6881 23.6216 33.8232 21.0818 37.953C18.9445 37.959 16.807 37.9519 14.6697 37.9567C14.6924 37.8995 14.7263 37.8471 14.759 37.7947C19.436 30.2352 24.1057 22.6718 28.7853 15.1138ZM14.1414 40.5184C14.3971 39.9439 15.0591 39.5362 15.7551 39.5339C16.6508 39.5336 17.5465 39.5316 18.4421 39.5348C18.4453 39.8846 18.446 40.2345 18.4418 40.5844C17.5458 40.5881 16.6495 40.5827 15.7535 40.587C15.4444 40.5935 15.1772 40.8489 15.1935 41.1242C15.1935 41.3907 15.4543 41.6267 15.7526 41.6366C16.1801 41.6418 16.6076 41.6355 17.0354 41.6395C17.614 41.6543 18.1698 41.9455 18.4719 42.384C18.7708 42.8022 18.8239 43.3499 18.6092 43.8074C18.4041 44.2612 17.9493 44.6177 17.4169 44.7409C17.1266 44.8158 16.8214 44.789 16.5234 44.7939C15.7849 44.791 15.0457 44.7999 14.3071 44.7896C14.3068 44.4409 14.3023 44.0918 14.3094 43.7431C15.1971 43.7382 16.0847 43.7431 16.9724 43.7408C17.2889 43.7459 17.5708 43.4874 17.557 43.2062C17.5589 42.9411 17.3017 42.7008 17.0034 42.6911C16.5766 42.6849 16.1494 42.6917 15.7225 42.6877C15.1292 42.6746 14.5609 42.3697 14.2604 41.9162C13.9769 41.5008 13.9315 40.9668 14.1414 40.5184ZM19.3343 39.5348C19.7276 39.5339 20.1215 39.5291 20.5147 39.5373C20.5157 40.2371 20.5099 40.9374 20.5173 41.6375C21.3048 41.6372 22.0926 41.6438 22.8798 41.6341C22.8798 40.9343 22.8753 40.234 22.8821 39.5342C23.2741 39.5325 23.6661 39.5333 24.0581 39.5336C24.0657 41.2859 24.0616 43.0385 24.06 44.7908C23.667 44.7959 23.2731 44.7973 22.8801 44.7902C22.8776 44.093 22.8785 43.3958 22.8798 42.6985C22.093 42.6874 21.2962 42.6763 20.5122 42.7042C20.5163 43.3997 20.5157 44.0955 20.5125 44.7913C20.1195 44.7947 19.7256 44.7984 19.3327 44.7896C19.3317 43.0379 19.3288 41.2862 19.3343 39.5348ZM27.8996 39.5385C28.9946 41.2865 30.0778 43.0422 31.1536 44.8002H29.6861C29.0887 43.8422 28.5089 42.8753 27.9124 41.9171C27.8858 41.9336 27.8663 41.9552 27.8532 41.9828C27.2769 42.922 26.7044 43.8632 26.1236 44.8002H24.6529C25.7281 43.0427 26.8212 41.2942 27.8996 39.5385ZM29.9732 39.5379C31.5488 39.5288 33.1258 39.5342 34.7017 39.535C34.7056 39.8846 34.7056 40.2348 34.7017 40.5844C34.111 40.5949 33.5165 40.5713 32.928 40.5964C32.9328 41.9945 32.9318 43.3932 32.9286 44.7916C32.5354 44.7945 32.1415 44.799 31.7488 44.7893C31.7466 43.3895 31.7485 41.9897 31.7479 40.5898C31.1565 40.5782 30.5645 40.5941 29.9732 40.5819C29.9741 40.2337 29.9748 39.8858 29.9732 39.5379ZM35.2989 39.535C36.5782 39.5336 37.8585 39.5296 39.1378 39.5373C39.1388 39.8855 39.1391 40.234 39.1375 40.5824C38.2524 40.5924 37.3667 40.5807 36.4816 40.5881C36.4755 40.9374 36.4739 41.2876 36.4822 41.6372C37.2675 41.6418 38.0534 41.6349 38.8386 41.6403C38.845 41.9897 38.8476 42.3398 38.8374 42.6892C38.0521 42.6923 37.2668 42.6855 36.4816 42.6923C36.4768 43.0416 36.471 43.3921 36.4848 43.7411C37.3686 43.7471 38.2537 43.7323 39.1369 43.7482C39.1401 44.0987 39.1385 44.4494 39.1372 44.8002H35.2969C35.2953 43.0453 35.2912 41.2899 35.2989 39.535ZM39.7343 39.5333C40.126 39.5345 40.518 39.531 40.9097 39.535C40.9164 40.9366 40.9081 42.3387 40.9138 43.7405C41.8018 43.7445 42.6901 43.7382 43.5781 43.7437C43.5874 44.0924 43.5819 44.442 43.5807 44.791C42.2981 44.797 41.0146 44.7947 39.7318 44.7922C39.7286 43.0393 39.7234 41.2856 39.7343 39.5333Z" fill="#002A63"/>
<path fill-rule="evenodd" clip-rule="evenodd" d="M28.434 31.1132C29.9684 30.9732 31.5261 31.735 32.2708 32.927C32.8813 33.8762 32.9485 35.0801 32.4538 36.0808C32.064 36.882 31.3306 37.5453 30.4349 37.9029C29.403 38.3248 28.1646 38.3234 27.1348 37.8969C26.203 37.5211 25.4491 36.8136 25.0769 35.9661C24.6638 35.04 24.7173 33.9582 25.2277 33.0705C25.8318 31.9924 27.0836 31.2223 28.434 31.1132ZM27.7713 43.2249C28.2091 43.1566 28.6676 43.4279 28.7652 43.8134C28.8871 44.2068 28.602 44.6504 28.1611 44.7591C27.6903 44.8995 27.14 44.6125 27.0414 44.1815C26.9147 43.7525 27.2769 43.2784 27.7713 43.2249Z" fill="#F26322"/>
</svg>
