<svg width="60" height="60" viewBox="0 0 60 60" fill="none" xmlns="http://www.w3.org/2000/svg">
<path d="M30.7119 18.7842C31.2005 13.8802 34.8753 10.3869 38.918 10.9796L39.6264 11.083C39.7486 11.1015 39.8371 11.2362 39.8218 11.384L39.7363 12.2425C39.2478 17.1464 35.573 20.6398 31.5302 20.0471L30.8218 19.9437C30.6997 19.9252 30.6127 19.7904 30.6264 19.6427L30.7119 18.7842Z" fill="#0047FF"/>
<path fill-rule="evenodd" clip-rule="evenodd" d="M25.1595 21.4268C20.1946 21.4268 16.1709 25.086 16.1709 29.5985V39.5366C16.1709 44.049 20.1946 47.7083 25.1595 47.7083H36.092C41.0569 47.7083 45.0806 44.0505 45.0806 39.5366V29.5985C45.0806 25.086 41.0569 21.4268 36.092 21.4268H25.1595ZM25.6459 27.1685C23.9013 27.1685 22.487 28.4534 22.487 30.0393V39.0943C22.487 40.6801 23.9013 41.9651 25.6459 41.9651H35.6073C37.3519 41.9651 38.7662 40.6801 38.7662 39.0943V30.0393C38.7662 28.4534 37.3519 27.1685 35.6073 27.1685H25.6459Z" fill="#0047FF"/>
</svg>
