<svg width="114" height="114" viewBox="0 0 114 114" fill="none" xmlns="http://www.w3.org/2000/svg">
<path d="M0 15C0 6.71573 6.71573 0 15 0H99C107.284 0 114 6.71573 114 15V99C114 107.284 107.284 114 99 114H15C6.71573 114 0 107.284 0 99V15Z" fill="#0072FF"/>
<path d="M11.5439 51.2491C11.5439 31.3132 27.7052 15.152 47.6411 15.152H102.455V15.152C102.455 35.0879 86.2941 51.2491 66.3582 51.2491H11.5439V51.2491Z" fill="white"/>
<path d="M25.2529 75.3141C25.2529 65.7153 33.0343 57.934 42.633 57.934H69.3717V57.934C69.3717 67.5327 61.5904 75.3141 51.9916 75.3141H25.2529V75.3141Z" fill="white"/>
<path d="M25.2529 99.3789C25.2529 89.7801 33.0343 81.9988 42.6331 81.9988H54.6654V81.9988C54.6654 91.5976 46.8841 99.3789 37.2853 99.3789H25.2529V99.3789Z" fill="white"/>
</svg>
