<svg width="128" height="128" viewBox="0 0 128 128" fill="none" xmlns="http://www.w3.org/2000/svg">
<path d="M0 15C0 6.71573 6.71573 0 15 0H113C121.284 0 128 6.71573 128 15V113C128 121.284 121.284 128 113 128H15C6.71573 128 0 121.284 0 113V15Z" fill="#0072FF"/>
<path d="M12.9614 57.5427C12.9614 35.1585 31.1074 17.0126 53.4916 17.0126H115.037V17.0126C115.037 39.3968 96.8914 57.5427 74.5072 57.5427H12.9614V57.5427Z" fill="white"/>
<path d="M28.354 84.5629C28.354 73.7853 37.091 65.0483 47.8685 65.0483H77.8909V65.0483C77.8909 75.8259 69.1539 84.5629 58.3763 84.5629H28.354V84.5629Z" fill="white"/>
<path d="M28.354 111.583C28.354 100.805 37.091 92.0685 47.8685 92.0685H61.3786V92.0685C61.3786 102.846 52.6416 111.583 41.8641 111.583H28.354V111.583Z" fill="white"/>
</svg>
