<svg width="96" height="96" viewBox="0 0 96 96" fill="none" xmlns="http://www.w3.org/2000/svg">
<path d="M0 15C0 6.71573 6.71573 0 15 0H81C89.2843 0 96 6.71573 96 15V81C96 89.2843 89.2843 96 81 96H15C6.71573 96 0 89.2843 0 81V15Z" fill="#0072FF"/>
<path d="M9.72119 43.157C9.72119 26.3689 23.3307 12.7594 40.1188 12.7594H86.2781V12.7594C86.2781 29.5475 72.6687 43.157 55.8805 43.157H9.72119V43.157Z" fill="white"/>
<path d="M21.2656 63.4221C21.2656 55.339 27.8183 48.7863 35.9015 48.7863H58.4183V48.7863C58.4183 56.8694 51.8656 63.4221 43.7824 63.4221H21.2656V63.4221Z" fill="white"/>
<path d="M21.2656 83.6873C21.2656 75.6041 27.8183 69.0514 35.9015 69.0514H46.0341V69.0514C46.0341 77.1346 39.4813 83.6873 31.3982 83.6873H21.2656V83.6873Z" fill="white"/>
</svg>
