<svg width="350" height="110" viewBox="0 0 350 110" fill="none" xmlns="http://www.w3.org/2000/svg">
<path d="M0 10C0 4.47715 4.47715 0 10 0H340C345.523 0 350 4.47715 350 10V99C350 104.523 345.523 109 340 109H10C4.47715 109 0 104.523 0 99V10Z" fill="#0072FF"/>
<g opacity="0.6">
<mask id="mask0_3305_3557" style="mask-type:alpha" maskUnits="userSpaceOnUse" x="0" y="0" width="350" height="110">
<rect y="0.901733" width="350" height="108.208" rx="10" fill="#0072FF"/>
</mask>
<g mask="url(#mask0_3305_3557)">
<g style="mix-blend-mode:soft-light" opacity="0.3">
<ellipse cx="300.781" cy="21.2416" rx="49.2188" ry="43.9341" fill="url(#paint0_linear_3305_3557)"/>
</g>
<g style="mix-blend-mode:soft-light" opacity="0.3">
<ellipse cx="48.2863" cy="44.9569" rx="48.2863" ry="44.9569" transform="matrix(-0.920382 0.39102 -0.470495 -0.882403 282.521 109.559)" fill="url(#paint1_linear_3305_3557)"/>
</g>
<g style="mix-blend-mode:soft-light" opacity="0.3">
<ellipse cx="48.9304" cy="44.2551" rx="48.9304" ry="44.2551" transform="matrix(0.976547 0.215303 -0.266683 0.963784 134.802 -11.3022)" fill="url(#paint2_linear_3305_3557)"/>
</g>
<g style="mix-blend-mode:soft-light" opacity="0.3">
<ellipse cx="88.8672" cy="43.6155" rx="28.7109" ry="25.6282" fill="url(#paint3_linear_3305_3557)"/>
</g>
<g style="mix-blend-mode:soft-light" opacity="0.3">
<circle cx="33.2607" cy="33.2607" r="33.2607" transform="matrix(-0.746022 0.665921 -0.746022 -0.665921 99.2529 97.2698)" fill="url(#paint4_linear_3305_3557)"/>
</g>
<g style="mix-blend-mode:soft-light" opacity="0.3">
<circle cx="14.4922" cy="14.4922" r="14.4922" transform="matrix(-0.746022 0.665921 -0.746022 -0.665921 68.7666 11.2535)" fill="url(#paint5_linear_3305_3557)"/>
</g>
<g style="mix-blend-mode:soft-light" opacity="0.3">
<ellipse cx="320.378" cy="103.821" rx="21.4193" ry="19.1195" fill="url(#paint6_linear_3305_3557)"/>
</g>
</g>
</g>
<path d="M142.681 40.746H144.221L144.235 50H142.695L142.681 40.746ZM148.564 45.436V49.384C148.564 50.7 148.228 51.7173 147.556 52.436C146.884 53.164 145.913 53.528 144.644 53.528H143.762V51.764H144.644C145.241 51.764 145.708 51.6893 146.044 51.54C146.389 51.3907 146.636 51.1433 146.786 50.798C146.944 50.462 147.024 49.9907 147.024 49.384V45.436H148.564ZM158.29 46.038C158.626 46.5607 158.794 47.116 158.794 47.704C158.794 48.1893 158.678 48.5953 158.444 48.922C158.164 49.314 157.824 49.594 157.422 49.762C157.03 49.9207 156.573 50 156.05 50H155.294C154.744 50 154.254 49.916 153.824 49.748C153.395 49.5707 153.045 49.3747 152.774 49.16L153.516 47.732C153.544 47.7413 153.638 47.7927 153.796 47.886C153.955 47.9793 154.17 48.0633 154.44 48.138C154.72 48.2033 155.01 48.236 155.308 48.236H156.008C156.335 48.236 156.587 48.2127 156.764 48.166C156.951 48.11 157.086 48.012 157.17 47.872C157.236 47.7693 157.268 47.676 157.268 47.592C157.268 47.424 157.175 47.2047 156.988 46.934C156.382 45.9913 155.672 44.918 154.86 43.714L156.162 42.734L158.29 46.038ZM162.06 51.834C162.667 51.834 163.129 51.7733 163.446 51.652C163.763 51.5307 163.983 51.3393 164.104 51.078C164.225 50.826 164.291 50.4667 164.3 50H162.998C162.139 50 161.458 49.748 160.954 49.244C160.45 48.74 160.198 48.04 160.198 47.144C160.198 46.5093 160.315 45.9447 160.548 45.45C160.791 44.946 161.122 44.554 161.542 44.274C161.962 43.994 162.443 43.854 162.984 43.854C163.553 43.854 164.053 43.994 164.482 44.274C164.921 44.5447 165.257 44.932 165.49 45.436C165.733 45.9307 165.854 46.5 165.854 47.144V48.236H166.638L166.736 49.132L166.638 50H165.854C165.835 51.092 165.518 51.9647 164.902 52.618C164.295 53.2713 163.348 53.598 162.06 53.598H160.436V51.834H162.06ZM161.696 47.088C161.696 47.508 161.799 47.816 162.004 48.012C162.219 48.1987 162.55 48.292 162.998 48.292H164.3V47.116C164.3 46.6213 164.193 46.234 163.978 45.954C163.773 45.674 163.441 45.534 162.984 45.534C162.564 45.534 162.242 45.6787 162.018 45.968C161.803 46.248 161.696 46.6213 161.696 47.088ZM166.44 48.236H168.148C169.035 48.236 169.861 48.11 170.626 47.858C171.392 47.5967 172.218 47.214 173.104 46.71C171.098 45.9633 169.922 45.59 169.576 45.59C169.352 45.59 169.166 45.6507 169.016 45.772C168.876 45.8933 168.75 46.108 168.638 46.416L167.238 45.982C167.462 45.2727 167.775 44.7407 168.176 44.386C168.587 44.0313 169.054 43.854 169.576 43.854C169.95 43.854 170.538 44.0033 171.34 44.302C172.143 44.5913 173.226 45.0207 174.588 45.59L174.868 47.494C173.879 48.1007 173.09 48.5627 172.502 48.88C171.914 49.1973 171.252 49.4633 170.514 49.678C169.786 49.8927 168.998 50 168.148 50H166.44V48.236ZM168.876 40.928H170.584V42.608H168.876V40.928ZM181.484 46.5C180.98 47.5547 180.728 48.5113 180.728 49.37C180.728 50.1353 180.91 50.7233 181.274 51.134C181.647 51.554 182.245 51.764 183.066 51.764H184.354C184.961 51.764 185.423 51.7033 185.74 51.582C186.057 51.47 186.277 51.274 186.398 50.994C186.529 50.7233 186.594 50.336 186.594 49.832V45.436H188.148V49.832C188.148 50.98 187.84 51.8807 187.224 52.534C186.617 53.1967 185.661 53.528 184.354 53.528H183.066C182.245 53.528 181.545 53.3367 180.966 52.954C180.387 52.5807 179.949 52.0767 179.65 51.442C179.351 50.8167 179.202 50.126 179.202 49.37C179.202 48.782 179.295 48.1753 179.482 47.55C179.669 46.9153 179.902 46.332 180.182 45.8L181.484 46.5ZM183.178 44.568H184.886V46.248H183.178V44.568ZM192.495 50C190.684 50 189.779 48.9733 189.779 46.92L189.765 40.746H191.305L191.319 46.92C191.319 47.3213 191.342 47.6107 191.389 47.788C191.445 47.956 191.552 48.0727 191.711 48.138C191.869 48.2033 192.131 48.236 192.495 48.236H192.901L192.971 49.146L192.901 50H192.495ZM192.76 48.236H193.138C193.325 48.236 193.474 48.1893 193.586 48.096C193.698 48.0027 193.782 47.8533 193.838 47.648L194.216 46.22C194.431 45.4453 194.771 44.8433 195.238 44.414C195.705 43.9847 196.265 43.77 196.918 43.77C197.441 43.77 197.903 43.9147 198.304 44.204C198.715 44.4933 199.032 44.89 199.256 45.394C199.489 45.898 199.606 46.4627 199.606 47.088C199.606 47.424 199.634 47.6713 199.69 47.83C199.746 47.9887 199.835 48.096 199.956 48.152C200.087 48.208 200.273 48.236 200.516 48.236H200.684L200.782 49.09L200.684 50H200.516C199.853 50 199.331 49.8087 198.948 49.426C198.724 49.7153 198.463 49.9253 198.164 50.056C197.875 50.196 197.576 50.266 197.268 50.266C196.932 50.266 196.577 50.2007 196.204 50.07C195.84 49.9393 195.317 49.706 194.636 49.37C194.431 49.566 194.197 49.72 193.936 49.832C193.675 49.944 193.413 50 193.152 50H192.76V48.236ZM195.392 47.858C195.933 48.1287 196.33 48.3107 196.582 48.404C196.843 48.4973 197.086 48.544 197.31 48.544C197.571 48.544 197.772 48.4367 197.912 48.222C198.061 47.998 198.136 47.62 198.136 47.088C198.136 46.5747 198.029 46.1827 197.814 45.912C197.599 45.632 197.301 45.492 196.918 45.492C196.638 45.492 196.386 45.5993 196.162 45.814C195.947 46.0193 195.789 46.318 195.686 46.71L195.392 47.858ZM204.823 45.436V47.452C204.823 47.7413 204.898 47.9467 205.047 48.068C205.197 48.18 205.43 48.236 205.747 48.236H206.489L206.573 49.16L206.489 50H205.747C205.458 50 205.155 49.9393 204.837 49.818C204.52 49.6967 204.24 49.5147 203.997 49.272C203.755 49.5053 203.465 49.6873 203.129 49.818C202.793 49.9393 202.453 50 202.107 50H200.539V48.236H202.107C202.518 48.236 202.812 48.1707 202.989 48.04C203.176 47.9 203.269 47.6713 203.269 47.354V45.436H204.823ZM199.755 51.862H201.323V53.43H199.755V51.862ZM202.331 51.862H203.913V53.43H202.331V51.862ZM206.35 48.236H208.002C208.833 48.236 209.248 47.9607 209.248 47.41C209.248 46.9993 209.117 46.1733 208.856 44.932L210.326 44.554C210.643 45.926 210.802 46.892 210.802 47.452C210.802 47.9 210.699 48.32 210.494 48.712C210.298 49.0947 209.995 49.4073 209.584 49.65C209.183 49.8833 208.688 50 208.1 50H206.35V48.236ZM205.79 51.204H207.372V52.786H205.79V51.204ZM207.148 53.22H208.646V54.732H207.148V53.22ZM208.408 51.204H210.004V52.786H208.408V51.204ZM217.931 50C217.371 50 216.881 49.8787 216.461 49.636C216.051 49.3933 215.733 49.0713 215.509 48.67C215.285 48.2593 215.173 47.8113 215.173 47.326C215.173 47.1487 215.187 46.976 215.215 46.808C215.243 46.6307 215.299 46.3273 215.383 45.898C215.477 45.4593 215.561 45.0907 215.635 44.792L217.063 45.156C217.045 45.2587 217.021 45.3567 216.993 45.45C216.975 45.534 216.956 45.618 216.937 45.702C216.919 45.8047 216.867 46.052 216.783 46.444C216.699 46.8267 216.657 47.0833 216.657 47.214C216.657 47.522 216.765 47.7693 216.979 47.956C217.203 48.1427 217.521 48.236 217.931 48.236H222.369C222.659 48.236 222.883 48.18 223.041 48.068C223.2 47.956 223.279 47.8113 223.279 47.634C223.279 47.41 223.167 47.1673 222.943 46.906L220.549 44.05L220.941 42.062L225.687 39.99L226.317 41.586L222.229 43.392L224.091 45.716L224.119 45.758C224.735 46.542 225.174 47.0833 225.435 47.382C225.706 47.6713 225.963 47.886 226.205 48.026C226.457 48.166 226.756 48.236 227.101 48.236H227.339L227.437 49.09L227.339 50H227.101C226.588 50 226.145 49.902 225.771 49.706C225.407 49.51 225.006 49.174 224.567 48.698C224.381 49.0993 224.096 49.4167 223.713 49.65C223.34 49.8833 222.883 50 222.341 50H217.931ZM231.484 45.436V47.452C231.484 47.7413 231.558 47.9467 231.708 48.068C231.857 48.18 232.09 48.236 232.408 48.236H233.15L233.234 49.16L233.15 50H232.408C232.118 50 231.815 49.9393 231.498 49.818C231.18 49.6967 230.9 49.5147 230.658 49.272C230.415 49.5053 230.126 49.6873 229.79 49.818C229.454 49.9393 229.113 50 228.768 50H227.2V48.236H228.768C229.178 48.236 229.472 48.1707 229.65 48.04C229.836 47.9 229.93 47.6713 229.93 47.354V45.436H231.484ZM226.416 51.862H227.984V53.43H226.416V51.862ZM228.992 51.862H230.574V53.43H228.992V51.862ZM233.01 48.236H233.682C234.009 48.236 234.251 48.1753 234.41 48.054C234.578 47.9233 234.662 47.69 234.662 47.354V40.746H236.202V47.354V47.452C236.202 47.7413 236.277 47.9467 236.426 48.068C236.575 48.18 236.809 48.236 237.126 48.236H237.588L237.658 49.16L237.588 50H237.126C236.837 50 236.543 49.9393 236.244 49.818C235.955 49.6967 235.698 49.5147 235.474 49.272C235.231 49.5147 234.951 49.6967 234.634 49.818C234.326 49.9393 234.027 50 233.738 50H233.01V48.236ZM244.103 41.586L240.029 43.392L242.325 45.716C242.587 45.9867 242.783 46.2853 242.913 46.612C243.044 46.9293 243.109 47.256 243.109 47.592C243.109 48.012 243.007 48.4087 242.801 48.782C242.605 49.146 242.316 49.44 241.933 49.664C241.551 49.888 241.098 50 240.575 50H237.453V48.236H240.603C240.893 48.236 241.121 48.18 241.289 48.068C241.457 47.9467 241.541 47.7927 241.541 47.606C241.541 47.382 241.42 47.1487 241.177 46.906L238.349 44.05L238.741 42.062L243.487 39.99L244.103 41.586ZM251.774 42.734C252.539 44.386 253.034 45.464 253.258 45.968H253.272C253.533 46.556 253.757 47.0087 253.944 47.326C254.13 47.6433 254.322 47.8767 254.518 48.026C254.723 48.166 254.956 48.236 255.218 48.236H255.456L255.54 49.16L255.456 50H255.218C254.452 50 253.776 49.6687 253.188 49.006C252.665 49.6687 251.881 50 250.836 50H250.122C249.58 50 249.1 49.9113 248.68 49.734C248.269 49.5567 247.919 49.356 247.63 49.132L248.372 47.704C248.4 47.7133 248.563 47.8067 248.862 47.984C249.16 48.152 249.58 48.236 250.122 48.236H250.836C251.153 48.236 251.405 48.208 251.592 48.152C251.788 48.096 251.937 47.998 252.04 47.858C252.105 47.7647 252.138 47.6667 252.138 47.564C252.138 47.4707 252.11 47.3493 252.054 47.2C252.007 47.0507 251.942 46.8827 251.858 46.696L250.374 43.49L251.774 42.734ZM259.257 45.436V47.452C259.257 47.7413 259.332 47.9467 259.481 48.068C259.63 48.18 259.864 48.236 260.181 48.236H260.629L260.713 49.16L260.629 50H260.181C259.882 50 259.574 49.9393 259.257 49.818C258.949 49.6873 258.674 49.5007 258.431 49.258C258.179 49.5007 257.885 49.6873 257.549 49.818C257.213 49.9393 256.872 50 256.527 50H255.309V48.236H256.527C256.938 48.236 257.236 48.1707 257.423 48.04C257.61 47.9 257.703 47.6713 257.703 47.354V45.436H259.257ZM256.807 42.118H258.515V43.798H256.807V42.118ZM260.435 48.236H262.143C263.029 48.236 263.855 48.11 264.621 47.858C265.386 47.5967 266.212 47.214 267.099 46.71C265.092 45.9633 263.916 45.59 263.571 45.59C263.347 45.59 263.16 45.6507 263.011 45.772C262.871 45.8933 262.745 46.108 262.633 46.416L261.233 45.982C261.457 45.2727 261.769 44.7407 262.171 44.386C262.581 44.0313 263.048 43.854 263.571 43.854C263.944 43.854 264.532 44.0033 265.335 44.302C266.137 44.5913 267.22 45.0207 268.583 45.59L268.863 47.494C267.873 48.1007 267.085 48.5627 266.497 48.88C265.909 49.1973 265.246 49.4633 264.509 49.678C263.781 49.8927 262.992 50 262.143 50H260.435V48.236ZM263.319 51.204H264.901V52.786H263.319V51.204ZM264.677 53.22H266.189V54.732H264.677V53.22ZM265.951 51.204H267.533V52.786H265.951V51.204ZM276.262 50C274.451 50 273.546 48.9733 273.546 46.92L273.532 40.746H275.072L275.086 46.92C275.086 47.3213 275.109 47.6107 275.156 47.788C275.212 47.956 275.319 48.0727 275.478 48.138C275.637 48.2033 275.898 48.236 276.262 48.236H276.668L276.738 49.146L276.668 50H276.262ZM276.528 48.236H277.928C278.656 48.236 279.02 47.9653 279.02 47.424C279.02 47.1813 278.978 46.8173 278.894 46.332C278.819 45.8467 278.73 45.38 278.628 44.932L280.112 44.554C280.224 45.0487 280.326 45.576 280.42 46.136C280.522 46.6867 280.574 47.1253 280.574 47.452C280.574 47.8907 280.476 48.306 280.28 48.698C280.093 49.09 279.804 49.4073 279.412 49.65C279.029 49.8833 278.567 50 278.026 50H276.528V48.236ZM276.458 51.848H278.166V53.528H276.458V51.848ZM284.957 48.236H286.413L286.805 47.648L286.791 40.746H288.331L288.345 45.394C288.746 44.862 289.157 44.4747 289.577 44.232C289.997 43.98 290.477 43.854 291.019 43.854C291.607 43.854 292.106 44.0033 292.517 44.302C292.937 44.5913 293.249 44.9787 293.455 45.464C293.669 45.94 293.777 46.458 293.777 47.018C293.777 47.354 293.725 47.69 293.623 48.026C293.847 48.166 294.169 48.236 294.589 48.236H294.939L295.079 49.132L294.939 50H294.547C294.211 50 293.884 49.9347 293.567 49.804C293.259 49.664 292.997 49.4913 292.783 49.286C292.213 49.762 291.523 50 290.711 50H284.957V48.236ZM290.711 48.236C291.205 48.236 291.583 48.1333 291.845 47.928C292.115 47.7227 292.251 47.4147 292.251 47.004C292.251 46.584 292.148 46.248 291.943 45.996C291.737 45.744 291.42 45.618 290.991 45.618C290.636 45.618 290.337 45.7067 290.095 45.884C289.852 46.052 289.567 46.3647 289.241 46.822L288.191 48.236H290.711ZM294.793 48.236H295.409C295.903 48.236 296.323 48.2173 296.669 48.18C296.417 47.956 296.216 47.6993 296.067 47.41C295.927 47.1113 295.857 46.7987 295.857 46.472C295.857 45.9773 295.978 45.5107 296.221 45.072C296.473 44.624 296.813 44.2647 297.243 43.994C297.681 43.7233 298.162 43.588 298.685 43.588C299.198 43.588 299.665 43.7233 300.085 43.994C300.514 44.2647 300.855 44.624 301.107 45.072C301.359 45.5107 301.485 45.9773 301.485 46.472C301.485 46.7987 301.41 47.1113 301.261 47.41C301.121 47.6993 300.92 47.9607 300.659 48.194C301.041 48.222 301.457 48.236 301.905 48.236H302.507L302.619 49.118L302.507 50H301.653C301.251 50 300.78 49.9533 300.239 49.86C299.707 49.7573 299.184 49.6127 298.671 49.426C298.148 49.6127 297.616 49.7573 297.075 49.86C296.543 49.9533 296.076 50 295.675 50H294.793V48.236ZM296.613 41.054H298.195V42.636H296.613V41.054ZM297.383 46.556C297.383 46.8827 297.495 47.1673 297.719 47.41C297.952 47.6527 298.265 47.8347 298.657 47.956C299.049 47.8347 299.366 47.6527 299.609 47.41C299.851 47.158 299.973 46.8733 299.973 46.556C299.973 46.192 299.847 45.8887 299.595 45.646C299.352 45.4033 299.049 45.282 298.685 45.282C298.321 45.282 298.013 45.4033 297.761 45.646C297.509 45.8887 297.383 46.192 297.383 46.556ZM299.203 41.054H300.785V42.636H299.203V41.054ZM302.367 48.236H304.65C305.256 48.236 305.704 48.2033 305.994 48.138C306.292 48.0633 306.502 47.9327 306.624 47.746L305.56 47.634C304.813 47.5407 304.225 47.2793 303.796 46.85C303.376 46.4113 303.166 45.7953 303.166 45.002C303.166 44.4513 303.278 43.9613 303.502 43.532C303.735 43.0933 304.048 42.7573 304.44 42.524C304.841 42.2813 305.275 42.16 305.742 42.16C306.236 42.16 306.68 42.2813 307.072 42.524C307.464 42.7573 307.767 43.0933 307.982 43.532C308.196 43.9613 308.304 44.4513 308.304 45.002V46.206C308.304 47.3913 308.028 48.32 307.478 48.992C306.927 49.664 305.984 50 304.65 50H302.367V48.236ZM304.664 44.988C304.664 45.268 304.743 45.492 304.902 45.66C305.07 45.8187 305.331 45.9167 305.686 45.954L306.82 46.164V44.988C306.82 44.6333 306.731 44.3487 306.553 44.134C306.376 43.9193 306.106 43.812 305.742 43.812C305.396 43.812 305.13 43.924 304.944 44.148C304.757 44.3627 304.664 44.6427 304.664 44.988ZM304.888 39.528H306.596V41.208H304.888V39.528ZM258.793 64.878H257.449L257.267 57.878H258.975L258.793 64.878ZM257.071 67.188C257.071 66.8893 257.169 66.6373 257.365 66.432C257.57 66.2267 257.827 66.124 258.135 66.124C258.433 66.124 258.685 66.2267 258.891 66.432C259.096 66.6373 259.199 66.8893 259.199 67.188C259.199 67.4867 259.096 67.7433 258.891 67.958C258.685 68.1633 258.433 68.266 258.135 68.266C257.827 68.266 257.57 68.1633 257.365 67.958C257.169 67.7527 257.071 67.496 257.071 67.188ZM270.721 68C270.348 68 270.026 67.9067 269.755 67.72V67.832C269.755 68.98 269.447 69.8807 268.831 70.534C268.225 71.1967 267.268 71.528 265.961 71.528H264.673C263.852 71.528 263.152 71.3367 262.573 70.954C261.995 70.5807 261.556 70.0767 261.257 69.442C260.959 68.8167 260.809 68.126 260.809 67.37C260.809 66.782 260.903 66.1753 261.089 65.55C261.276 64.9153 261.509 64.332 261.789 63.8L263.091 64.5C262.587 65.5547 262.335 66.5113 262.335 67.37C262.335 68.1353 262.517 68.7233 262.881 69.134C263.255 69.554 263.852 69.764 264.673 69.764H265.961C266.568 69.764 267.03 69.7033 267.347 69.582C267.665 69.47 267.884 69.274 268.005 68.994C268.136 68.7233 268.201 68.336 268.201 67.832V63.436H269.755V65.382C269.755 65.7087 269.839 65.9327 270.007 66.054C270.175 66.1753 270.413 66.236 270.721 66.236H270.987L271.085 67.146L270.987 68H270.721ZM264.743 62.568H266.451V64.248H264.743V62.568ZM277.504 59.586L273.43 61.392L275.726 63.716C275.987 63.9867 276.183 64.2853 276.314 64.612C276.444 64.9293 276.51 65.256 276.51 65.592C276.51 66.012 276.407 66.4087 276.202 66.782C276.006 67.146 275.716 67.44 275.334 67.664C274.951 67.888 274.498 68 273.976 68H270.854V66.236H274.004C274.293 66.236 274.522 66.18 274.69 66.068C274.858 65.9467 274.942 65.7927 274.942 65.606C274.942 65.382 274.82 65.1487 274.578 64.906L271.75 62.05L272.142 60.062L276.888 57.99L277.504 59.586ZM284.894 71.528C284.073 71.528 283.373 71.3367 282.794 70.954C282.215 70.5807 281.777 70.0767 281.478 69.442C281.179 68.8167 281.03 68.126 281.03 67.37C281.03 66.922 281.1 66.432 281.24 65.9C281.38 65.368 281.553 64.8733 281.758 64.416L283.116 65.004C282.948 65.3773 282.808 65.774 282.696 66.194C282.593 66.614 282.542 67.0013 282.542 67.356C282.542 68.1307 282.724 68.7233 283.088 69.134C283.461 69.554 284.063 69.764 284.894 69.764H285.58C286.187 69.764 286.649 69.7033 286.966 69.582C287.283 69.47 287.503 69.274 287.624 68.994C287.755 68.7233 287.82 68.336 287.82 67.832L287.806 58.578H289.36V67.832C289.36 68.98 289.057 69.8807 288.45 70.534C287.843 71.1967 286.887 71.528 285.58 71.528H284.894ZM293.83 68C292.02 68 291.114 66.9733 291.114 64.92L291.1 58.746H292.64L292.654 64.92C292.654 65.3213 292.678 65.6107 292.724 65.788C292.78 65.956 292.888 66.0727 293.046 66.138C293.205 66.2033 293.466 66.236 293.83 66.236H294.236L294.306 67.146L294.236 68H293.83ZM294.096 66.236H294.74C295.683 66.236 296.411 66.166 296.924 66.026C296.7 65.7367 296.327 65.228 295.804 64.5L295.202 63.66L296.168 61.91H299.906C300.447 61.91 300.881 62.0873 301.208 62.442C301.535 62.7967 301.698 63.2213 301.698 63.716C301.698 64.276 301.497 64.7567 301.096 65.158L300.06 66.138C300.349 66.2033 300.704 66.236 301.124 66.236H302.51L302.622 67.132L302.51 68H300.676C300.209 68 299.799 67.9393 299.444 67.818C299.099 67.6967 298.763 67.5193 298.436 67.286C297.605 67.762 296.532 68 295.216 68H294.096V66.236ZM297.806 64.71C298.021 65.0087 298.263 65.3353 298.534 65.69C298.721 65.5033 298.991 65.228 299.346 64.864L300.004 64.192C300.107 64.0893 300.158 63.9773 300.158 63.856C300.158 63.7627 300.116 63.6833 300.032 63.618C299.948 63.5433 299.831 63.506 299.682 63.506H296.896L297.806 64.71ZM302.367 66.236H304.65C305.256 66.236 305.704 66.2033 305.994 66.138C306.292 66.0633 306.502 65.9327 306.624 65.746L305.56 65.634C304.813 65.5407 304.225 65.2793 303.796 64.85C303.376 64.4113 303.166 63.7953 303.166 63.002C303.166 62.4513 303.278 61.9613 303.502 61.532C303.735 61.0933 304.048 60.7573 304.44 60.524C304.841 60.2813 305.275 60.16 305.742 60.16C306.236 60.16 306.68 60.2813 307.072 60.524C307.464 60.7573 307.767 61.0933 307.982 61.532C308.196 61.9613 308.304 62.4513 308.304 63.002V64.206C308.304 65.3913 308.028 66.32 307.478 66.992C306.927 67.664 305.984 68 304.65 68H302.367V66.236ZM304.664 62.988C304.664 63.268 304.743 63.492 304.902 63.66C305.07 63.8187 305.331 63.9167 305.686 63.954L306.82 64.164V62.988C306.82 62.6333 306.731 62.3487 306.553 62.134C306.376 61.9193 306.106 61.812 305.742 61.812C305.396 61.812 305.13 61.924 304.944 62.148C304.757 62.3627 304.664 62.6427 304.664 62.988ZM304.888 57.528H306.596V59.208H304.888V57.528Z" fill="white"/>
<path d="M52.4026 38H74.5979C78.134 38 81.0005 40.8664 81.0005 44.4026V66.5979C81.0005 70.1336 78.134 73 74.5979 73H52.4026C48.8664 73 46 70.1336 46 66.5979V44.4026C46 40.8664 48.8664 38 52.4026 38Z" fill="white"/>
<path d="M49.6919 53.8818C49.6919 47.761 54.6539 42.7994 60.7743 42.7994H77.6034C77.6034 48.9203 72.6418 53.8818 66.5209 53.8818H49.6919Z" fill="#0072FF"/>
<path d="M53.9009 61.2703C53.9009 58.3232 56.2901 55.9344 59.2367 55.9344H67.4461C67.4461 58.881 65.0573 61.2703 62.1103 61.2703H53.9009Z" fill="#0072FF"/>
<path d="M53.7534 68.5112C53.7534 65.5642 56.1427 63.1754 59.0892 63.1754H62.7834C62.7834 66.122 60.3946 68.5112 57.4476 68.5112H53.7534Z" fill="#0072FF"/>
<defs>
<linearGradient id="paint0_linear_3305_3557" x1="269.928" y1="-10.2336" x2="340.944" y2="69.325" gradientUnits="userSpaceOnUse">
<stop stop-color="white"/>
<stop offset="1" stop-color="white" stop-opacity="0"/>
</linearGradient>
<linearGradient id="paint1_linear_3305_3557" x1="18.0173" y1="12.749" x2="90.9699" y2="91.1043" gradientUnits="userSpaceOnUse">
<stop stop-color="white"/>
<stop offset="1" stop-color="white" stop-opacity="0"/>
</linearGradient>
<linearGradient id="paint2_linear_3305_3557" x1="18.2576" y1="12.5499" x2="89.8931" y2="91.7533" gradientUnits="userSpaceOnUse">
<stop stop-color="white"/>
<stop offset="1" stop-color="white" stop-opacity="0"/>
</linearGradient>
<linearGradient id="paint3_linear_3305_3557" x1="70.8693" y1="25.255" x2="112.295" y2="71.6641" gradientUnits="userSpaceOnUse">
<stop stop-color="white"/>
<stop offset="1" stop-color="white" stop-opacity="0"/>
</linearGradient>
<linearGradient id="paint4_linear_3305_3557" x1="12.4107" y1="9.43213" x2="66.5213" y2="63.5428" gradientUnits="userSpaceOnUse">
<stop stop-color="white"/>
<stop offset="1" stop-color="white" stop-opacity="0"/>
</linearGradient>
<linearGradient id="paint5_linear_3305_3557" x1="5.40755" y1="4.10974" x2="28.9845" y2="27.6866" gradientUnits="userSpaceOnUse">
<stop stop-color="white"/>
<stop offset="1" stop-color="white" stop-opacity="0"/>
</linearGradient>
<linearGradient id="paint6_linear_3305_3557" x1="306.951" y1="90.1239" x2="337.856" y2="124.747" gradientUnits="userSpaceOnUse">
<stop stop-color="white"/>
<stop offset="1" stop-color="white" stop-opacity="0"/>
</linearGradient>
</defs>
</svg>
