<svg width="350" height="188" viewBox="0 0 350 188" fill="none" xmlns="http://www.w3.org/2000/svg">
<path d="M350 110.762C350 95.23 337.407 58.3735 321.872 58.3735C306.337 58.3735 293.744 95.23 293.744 110.762C293.75 118.222 296.715 125.375 301.99 130.648C307.264 135.921 314.416 138.884 321.872 138.884C329.329 138.884 336.48 135.921 341.754 130.648C347.029 125.375 349.995 118.222 350 110.762Z" fill="#F2F2F2"/>
<path d="M321.872 173.08C321.787 173.08 321.705 173.046 321.644 172.985C321.584 172.925 321.55 172.843 321.55 172.758V107.063C321.55 106.977 321.584 106.895 321.644 106.835C321.705 106.775 321.787 106.741 321.872 106.741C321.957 106.741 322.039 106.775 322.099 106.835C322.16 106.895 322.194 106.977 322.194 107.063V172.758C322.194 172.843 322.16 172.925 322.099 172.985C322.039 173.046 321.957 173.08 321.872 173.08Z" fill="#CCCCCC"/>
<path d="M321.872 119.337C321.826 119.337 321.78 119.327 321.738 119.308C321.696 119.289 321.659 119.261 321.629 119.226L305.452 100.561C305.396 100.496 305.368 100.412 305.374 100.327C305.38 100.242 305.42 100.163 305.484 100.107C305.549 100.051 305.633 100.023 305.718 100.029C305.803 100.035 305.882 100.075 305.938 100.139L322.115 118.804C322.155 118.851 322.181 118.908 322.19 118.969C322.199 119.03 322.19 119.092 322.165 119.148C322.139 119.205 322.098 119.252 322.046 119.286C321.994 119.319 321.934 119.337 321.872 119.337Z" fill="#CCCCCC"/>
<path d="M321.872 130.109C321.808 130.109 321.746 130.09 321.693 130.055C321.64 130.019 321.599 129.969 321.575 129.91C321.55 129.851 321.544 129.787 321.556 129.724C321.569 129.662 321.599 129.604 321.644 129.559L330.837 120.363C330.897 120.303 330.979 120.269 331.064 120.269C331.149 120.269 331.231 120.303 331.291 120.363C331.351 120.424 331.385 120.505 331.385 120.59C331.385 120.676 331.351 120.757 331.291 120.818L322.099 130.015C322.069 130.044 322.034 130.068 321.995 130.084C321.956 130.101 321.914 130.109 321.872 130.109Z" fill="#CCCCCC"/>
<path d="M39.8376 137.987C39.8376 129.241 32.746 108.486 23.9981 108.486C15.2502 108.486 8.15869 129.241 8.15869 137.987C8.16103 142.189 9.83085 146.217 12.8011 149.187C15.7713 152.157 19.7988 153.826 23.9982 153.826C28.1975 153.826 32.225 152.157 35.1952 149.187C38.1655 146.217 39.8353 142.189 39.8376 137.987Z" fill="#F2F2F2"/>
<path d="M23.998 173.08C23.95 173.079 23.9039 173.06 23.87 173.026C23.836 172.992 23.8169 172.946 23.8169 172.898V135.904C23.8169 135.856 23.836 135.81 23.87 135.776C23.9039 135.742 23.95 135.723 23.998 135.723C24.0461 135.723 24.0921 135.742 24.1261 135.776C24.1601 135.81 24.1792 135.856 24.1792 135.904V172.898C24.1792 172.946 24.1601 172.992 24.1261 173.026C24.0921 173.06 24.0461 173.08 23.998 173.08Z" fill="#CCCCCC"/>
<path d="M23.9979 142.816C23.9719 142.816 23.9463 142.811 23.9226 142.8C23.899 142.789 23.878 142.773 23.861 142.754L14.7513 132.243C14.7201 132.206 14.7045 132.159 14.708 132.111C14.7115 132.064 14.7338 132.019 14.77 131.988C14.8062 131.956 14.8533 131.94 14.9012 131.944C14.949 131.947 14.9935 131.969 15.0251 132.005L24.1347 142.516C24.1574 142.542 24.1722 142.575 24.1771 142.609C24.1821 142.643 24.177 142.678 24.1626 142.71C24.1482 142.742 24.125 142.768 24.0958 142.787C24.0666 142.806 24.0326 142.816 23.9979 142.816Z" fill="#CCCCCC"/>
<path d="M23.9985 148.882C23.9627 148.882 23.9276 148.872 23.8979 148.852C23.8681 148.832 23.8449 148.803 23.8312 148.77C23.8175 148.737 23.8139 148.701 23.8209 148.666C23.8278 148.63 23.8451 148.598 23.8704 148.573L29.0467 143.394C29.0806 143.36 29.1267 143.341 29.1747 143.341C29.2228 143.341 29.2688 143.36 29.3028 143.394C29.3368 143.428 29.3558 143.474 29.3558 143.522C29.3558 143.57 29.3368 143.616 29.3028 143.65L24.1265 148.829C24.1097 148.846 24.0898 148.859 24.0678 148.868C24.0458 148.878 24.0223 148.882 23.9985 148.882Z" fill="#CCCCCC"/>
<path d="M6.84229 172.84C6.84229 171.085 7.53896 169.402 8.77906 168.161C10.0192 166.921 11.7011 166.224 13.4549 166.224C15.2086 166.224 16.8906 166.921 18.1307 168.161C19.3708 169.402 20.0674 171.085 20.0674 172.84" fill="#F2F2F2"/>
<path d="M13.4551 172.84C13.4077 172.84 13.3622 172.821 13.3287 172.787C13.2952 172.754 13.2764 172.708 13.2764 172.661V169.174C13.2764 169.127 13.2952 169.081 13.3287 169.047C13.3622 169.014 13.4077 168.995 13.4551 168.995C13.5025 168.995 13.5479 169.014 13.5815 169.047C13.615 169.081 13.6338 169.127 13.6338 169.174V172.661C13.6338 172.708 13.615 172.754 13.5815 172.787C13.5479 172.821 13.5025 172.84 13.4551 172.84Z" fill="#CCCCCC"/>
<path d="M13.455 171.641C13.4123 171.641 13.371 171.626 13.3387 171.598L11.1941 169.757C11.1762 169.741 11.1615 169.723 11.1508 169.702C11.1401 169.681 11.1337 169.658 11.1319 169.635C11.1301 169.611 11.1329 169.588 11.1402 169.565C11.1475 169.543 11.1591 169.522 11.1745 169.504C11.1898 169.486 11.2085 169.472 11.2294 169.461C11.2504 169.451 11.2733 169.444 11.2968 169.442C11.3202 169.441 11.3438 169.444 11.3661 169.451C11.3884 169.458 11.4091 169.47 11.4269 169.485L13.5715 171.327C13.5992 171.351 13.619 171.382 13.6281 171.418C13.6373 171.453 13.6354 171.491 13.6227 171.525C13.61 171.559 13.5871 171.589 13.5571 171.609C13.5272 171.63 13.4915 171.641 13.455 171.641Z" fill="#CCCCCC"/>
<path d="M27.2163 172.84C27.2163 171.085 27.913 169.402 29.1531 168.161C30.3932 166.921 32.0751 166.224 33.8289 166.224C35.5827 166.224 37.2646 166.921 38.5047 168.161C39.7448 169.402 40.4415 171.085 40.4415 172.84" fill="#F2F2F2"/>
<path d="M33.8291 172.84C33.7817 172.84 33.7362 172.821 33.7027 172.787C33.6692 172.754 33.6504 172.708 33.6504 172.661V169.174C33.6504 169.127 33.6692 169.081 33.7027 169.047C33.7362 169.014 33.7817 168.995 33.8291 168.995C33.8765 168.995 33.922 169.014 33.9555 169.047C33.989 169.081 34.0078 169.127 34.0078 169.174V172.661C34.0078 172.708 33.989 172.754 33.9555 172.787C33.922 172.821 33.8765 172.84 33.8291 172.84Z" fill="#CCCCCC"/>
<path d="M33.8286 171.642C33.7859 171.642 33.7446 171.626 33.7123 171.598L31.5677 169.757C31.5317 169.726 31.5095 169.682 31.5059 169.635C31.5023 169.588 31.5176 169.541 31.5485 169.505C31.5794 169.469 31.6233 169.447 31.6705 169.443C31.7178 169.439 31.7645 169.455 31.8005 169.486L33.9451 171.327C33.9728 171.351 33.9926 171.383 34.0017 171.418C34.0109 171.453 34.009 171.491 33.9963 171.525C33.9836 171.559 33.9607 171.589 33.9308 171.61C33.9008 171.63 33.8651 171.642 33.8286 171.642Z" fill="#CCCCCC"/>
<path d="M149.84 146.552C109.456 146.552 76.6006 113.681 76.6006 73.2762C76.6006 32.8716 109.456 0 149.84 0C190.225 0 223.08 32.8716 223.08 73.2762C223.08 113.681 190.225 146.552 149.84 146.552ZM149.84 0.983573C109.998 0.983573 77.5837 33.4139 77.5837 73.2762C77.5837 113.138 109.998 145.569 149.84 145.569C189.683 145.569 222.097 113.138 222.097 73.2762C222.097 33.4138 189.683 0.983573 149.84 0.983573Z" fill="#CCCCCC"/>
<path d="M149.84 67.8665C149.71 67.8665 149.585 67.8147 149.493 67.7225C149.4 67.6302 149.349 67.5051 149.349 67.3747V0.491786C149.349 0.361356 149.4 0.236276 149.493 0.144048C149.585 0.0518202 149.71 0 149.84 0C149.971 0 150.096 0.0518202 150.188 0.144048C150.28 0.236276 150.332 0.361356 150.332 0.491786V67.3747C150.332 67.5051 150.28 67.6302 150.188 67.7225C150.096 67.8147 149.971 67.8665 149.84 67.8665Z" fill="#CCCCCC"/>
<path d="M222.588 73.7678H155.739C155.608 73.7678 155.483 73.7159 155.391 73.6237C155.299 73.5315 155.247 73.4064 155.247 73.276C155.247 73.1455 155.299 73.0205 155.391 72.9282C155.483 72.836 155.608 72.7842 155.739 72.7842H222.588C222.719 72.7842 222.844 72.836 222.936 72.9282C223.028 73.0205 223.08 73.1455 223.08 73.276C223.08 73.4064 223.028 73.5315 222.936 73.6237C222.844 73.7159 222.719 73.7678 222.588 73.7678Z" fill="#CCCCCC"/>
<path d="M143.941 73.7678H77.1234C76.993 73.7678 76.868 73.7159 76.7758 73.6237C76.6836 73.5315 76.6318 73.4064 76.6318 73.276C76.6318 73.1455 76.6836 73.0205 76.7758 72.9282C76.868 72.836 76.993 72.7842 77.1234 72.7842H143.941C144.072 72.7842 144.197 72.836 144.289 72.9282C144.381 73.0205 144.433 73.1455 144.433 73.276C144.433 73.4064 144.381 73.5315 144.289 73.6237C144.197 73.7159 144.072 73.7678 143.941 73.7678Z" fill="#CCCCCC"/>
<path d="M149.84 146.552C149.71 146.552 149.585 146.5 149.493 146.408C149.4 146.316 149.349 146.191 149.349 146.06V79.1773C149.349 79.0469 149.4 78.9218 149.493 78.8296C149.585 78.7374 149.71 78.6855 149.84 78.6855C149.971 78.6855 150.096 78.7374 150.188 78.8296C150.28 78.9218 150.332 79.0469 150.332 79.1773V146.06C150.332 146.191 150.28 146.316 150.188 146.408C150.096 146.5 149.971 146.552 149.84 146.552Z" fill="#CCCCCC"/>
<path d="M154.174 69.7715C154.077 69.7715 153.982 69.7427 153.901 69.6886C153.82 69.6346 153.757 69.5578 153.72 69.4679C153.683 69.3781 153.673 69.2792 153.692 69.1839C153.711 69.0885 153.758 69.0009 153.827 68.9321L200.888 21.8467C200.934 21.801 200.988 21.7648 201.048 21.7401C201.107 21.7154 201.171 21.7026 201.236 21.7026C201.3 21.7026 201.364 21.7154 201.424 21.7401C201.484 21.7648 201.538 21.801 201.583 21.8467C201.629 21.8923 201.665 21.9465 201.69 22.0062C201.715 22.0659 201.727 22.1298 201.727 22.1944C201.727 22.2589 201.715 22.3229 201.69 22.3825C201.665 22.4422 201.629 22.4964 201.583 22.5421L154.522 69.6275C154.476 69.6732 154.422 69.7095 154.362 69.7342C154.303 69.759 154.239 69.7716 154.174 69.7715Z" fill="#CCCCCC"/>
<path d="M145.507 69.7716C145.442 69.7717 145.378 69.759 145.318 69.7342C145.259 69.7095 145.205 69.6732 145.159 69.6275L98.0971 22.5421C98.0049 22.4499 97.9531 22.3248 97.9531 22.1944C97.9531 22.064 98.0049 21.9389 98.0971 21.8467C98.1892 21.7544 98.3143 21.7026 98.4446 21.7026C98.575 21.7026 98.7 21.7544 98.7922 21.8467L145.854 68.9321C145.923 69.0009 145.97 69.0885 145.989 69.1839C146.008 69.2792 145.998 69.3781 145.961 69.4679C145.923 69.5578 145.86 69.6346 145.78 69.6886C145.699 69.7427 145.604 69.7716 145.507 69.7716Z" fill="#CCCCCC"/>
<path d="M201.236 124.85C201.171 124.85 201.107 124.837 201.048 124.812C200.988 124.788 200.934 124.751 200.888 124.706L153.827 77.6202C153.734 77.528 153.683 77.4029 153.683 77.2725C153.683 77.1421 153.734 77.017 153.827 76.9248C153.919 76.8326 154.044 76.7808 154.174 76.7808C154.304 76.7808 154.429 76.8326 154.522 76.9248L201.583 124.01C201.652 124.079 201.699 124.167 201.718 124.262C201.737 124.357 201.727 124.456 201.69 124.546C201.653 124.636 201.59 124.713 201.509 124.767C201.428 124.821 201.333 124.85 201.236 124.85Z" fill="#CCCCCC"/>
<path d="M98.4446 124.85C98.3474 124.85 98.2523 124.821 98.1715 124.767C98.0907 124.713 98.0277 124.636 97.9905 124.546C97.9533 124.456 97.9436 124.357 97.9626 124.262C97.9815 124.167 98.0283 124.079 98.097 124.01L145.159 76.9248C145.205 76.8791 145.259 76.8429 145.318 76.8182C145.378 76.7935 145.442 76.7808 145.506 76.7808C145.571 76.7808 145.635 76.7935 145.695 76.8182C145.754 76.8429 145.808 76.8791 145.854 76.9248C145.9 76.9704 145.936 77.0247 145.961 77.0843C145.985 77.144 145.998 77.2079 145.998 77.2725C145.998 77.3371 145.985 77.401 145.961 77.4607C145.936 77.5203 145.9 77.5745 145.854 77.6202L98.7921 124.706C98.7465 124.751 98.6924 124.788 98.6327 124.812C98.5731 124.837 98.5091 124.85 98.4446 124.85Z" fill="#CCCCCC"/>
<path d="M149.84 123.684C139.876 123.684 130.135 120.728 121.849 115.189C113.564 109.65 107.106 101.777 103.293 92.5666C99.4794 83.3557 98.4816 73.2204 100.426 63.4422C102.37 53.6639 107.168 44.6821 114.214 37.6324C121.261 30.5827 130.238 25.7818 140.011 23.8368C149.785 21.8918 159.915 22.89 169.121 26.7053C178.327 30.5205 186.196 36.9815 191.732 45.271C197.269 53.5606 200.223 63.3065 200.223 73.2763C200.208 86.6407 194.895 99.4534 185.45 108.903C176.005 118.354 163.198 123.669 149.84 123.684ZM149.84 23.8518C140.07 23.8518 130.519 26.7505 122.395 32.1813C114.272 37.6121 107.94 45.3312 104.201 54.3623C100.462 63.3935 99.4837 73.3311 101.39 82.9185C103.296 92.506 108.001 101.313 114.91 108.225C121.818 115.137 130.62 119.844 140.203 121.751C149.786 123.658 159.718 122.679 168.745 118.939C177.772 115.198 185.487 108.863 190.915 100.735C196.343 92.6072 199.24 83.0515 199.24 73.2763C199.226 60.1726 194.016 47.6099 184.755 38.3442C175.494 29.0785 162.938 23.8666 149.84 23.8518Z" fill="#CCCCCC"/>
<path d="M149.84 79.1779C153.098 79.1779 155.738 76.5357 155.738 73.2764C155.738 70.0172 153.098 67.375 149.84 67.375C146.582 67.375 143.941 70.0172 143.941 73.2764C143.941 76.5357 146.582 79.1779 149.84 79.1779Z" fill="#3F3D56"/>
<path d="M127.005 172.959L121.822 173.109L147.115 70.9673L151.817 72.4023L127.005 172.959Z" fill="#3F3D56"/>
<path d="M172.676 172.959L177.858 173.109L152.565 70.9673L147.863 72.4023L172.676 172.959Z" fill="#3F3D56"/>
<path d="M157.705 15.2451H141.484V24.0973H157.705V15.2451Z" fill="#CCCCCC"/>
<path d="M148.857 17.2124H142.467V24.0974H148.857V17.2124Z" fill="white"/>
<path d="M156.722 17.2124H150.332V24.0974H156.722V17.2124Z" fill="white"/>
<path d="M149.594 33.6876C147.118 33.6848 144.744 32.6995 142.993 30.9478C141.243 29.196 140.258 26.821 140.255 24.3437V24.0978C140.256 23.5111 140.489 22.9486 140.903 22.5337C141.318 22.1188 141.88 21.8854 142.467 21.8848H156.722C157.308 21.8854 157.87 22.1188 158.285 22.5337C158.7 22.9486 158.933 23.5111 158.933 24.0978V24.3437C158.931 26.821 157.946 29.196 156.195 30.9478C154.444 32.6995 152.07 33.6848 149.594 33.6876Z" fill="#CCCCCC"/>
<path d="M157.097 17.4585H142.092C141.882 17.4585 141.676 17.405 141.493 17.3029C141.31 17.2009 141.156 17.0537 141.046 16.8754C140.936 16.6972 140.873 16.4937 140.864 16.2843C140.855 16.0749 140.899 15.8666 140.993 15.6792L143.942 9.77772C144.043 9.573 144.2 9.40083 144.394 9.28071C144.589 9.1606 144.813 9.09735 145.041 9.09815H154.148C154.377 9.09735 154.601 9.1606 154.795 9.28071C154.989 9.40083 155.146 9.573 155.247 9.77772L158.197 15.6792C158.29 15.8666 158.334 16.0749 158.325 16.2843C158.316 16.4937 158.253 16.6971 158.143 16.8754C158.033 17.0537 157.879 17.2009 157.696 17.3029C157.513 17.405 157.307 17.4585 157.097 17.4585Z" fill="#0072FF"/>
<path d="M201.452 34.917H185.231V43.7691H201.452V34.917Z" fill="#CCCCCC"/>
<path d="M192.604 36.8838H186.214V43.7688H192.604V36.8838Z" fill="white"/>
<path d="M200.469 36.8838H194.079V43.7688H200.469V36.8838Z" fill="white"/>
<path d="M193.342 53.3585C190.866 53.3557 188.492 52.3704 186.741 50.6187C184.99 48.8669 184.005 46.4919 184.002 44.0146V43.7687C184.003 43.182 184.236 42.6195 184.651 42.2046C185.066 41.7897 185.628 41.5563 186.214 41.5557H200.469C201.055 41.5563 201.618 41.7897 202.032 42.2046C202.447 42.6195 202.68 43.182 202.681 43.7687V44.0146C202.678 46.4919 201.693 48.8669 199.942 50.6187C198.192 52.3704 195.818 53.3557 193.342 53.3585Z" fill="#CCCCCC"/>
<path d="M188.788 29.2612C188.651 29.2608 188.517 29.2987 188.4 29.3708C188.284 29.4429 188.19 29.5462 188.129 29.669L185.179 35.5704C185.123 35.6829 185.097 35.8079 185.102 35.9335C185.108 36.0591 185.146 36.1812 185.212 36.2882C185.278 36.3952 185.37 36.4835 185.48 36.5447C185.59 36.6059 185.713 36.638 185.839 36.638H200.845C200.97 36.638 201.094 36.6059 201.204 36.5447C201.313 36.4835 201.406 36.3952 201.472 36.2882C201.538 36.1812 201.576 36.0591 201.581 35.9335C201.587 35.8079 201.56 35.6829 201.504 35.5704L198.555 29.669C198.494 29.5462 198.4 29.4429 198.283 29.3708C198.167 29.2987 198.032 29.2608 197.895 29.2612H188.788Z" fill="#0072FF"/>
<path d="M218.656 79.1777H202.435V88.0299H218.656V79.1777Z" fill="#CCCCCC"/>
<path d="M209.808 81.1445H203.418V88.0295H209.808V81.1445Z" fill="white"/>
<path d="M217.673 81.1445H211.283V88.0295H217.673V81.1445Z" fill="white"/>
<path d="M210.545 97.6193C208.069 97.6165 205.695 96.6311 203.945 94.8794C202.194 93.1277 201.209 90.7526 201.206 88.2753V88.0294C201.207 87.4427 201.44 86.8802 201.855 86.4653C202.269 86.0504 202.832 85.8171 203.418 85.8164H217.673C218.259 85.8171 218.821 86.0504 219.236 86.4653C219.651 86.8802 219.884 87.4427 219.885 88.0294V88.2753C219.882 90.7526 218.897 93.1277 217.146 94.8794C215.395 96.6311 213.021 97.6165 210.545 97.6193Z" fill="#CCCCCC"/>
<path d="M218.049 81.3906H203.043C202.833 81.3907 202.627 81.3371 202.444 81.2351C202.261 81.133 202.108 80.9859 201.997 80.8076C201.887 80.6293 201.825 80.4258 201.815 80.2164C201.806 80.007 201.85 79.7987 201.944 79.6113L204.893 73.7098C204.994 73.5051 205.151 73.333 205.345 73.2128C205.54 73.0927 205.764 73.0295 205.992 73.0303H215.099C215.328 73.0295 215.552 73.0927 215.746 73.2128C215.94 73.333 216.097 73.5051 216.198 73.7098L219.148 79.6113C219.241 79.7987 219.286 80.007 219.276 80.2164C219.267 80.4258 219.204 80.6293 219.094 80.8076C218.984 80.9858 218.83 81.133 218.647 81.2351C218.464 81.3371 218.258 81.3907 218.049 81.3906Z" fill="#0072FF"/>
<path d="M200.469 120.488H184.248V129.34H200.469V120.488Z" fill="#CCCCCC"/>
<path d="M191.621 122.455H185.231V129.34H191.621V122.455Z" fill="white"/>
<path d="M199.486 122.455H193.096V129.34H199.486V122.455Z" fill="white"/>
<path d="M192.358 138.93C189.882 138.927 187.508 137.942 185.758 136.19C184.007 134.438 183.022 132.063 183.019 129.586V129.34C183.02 128.753 183.253 128.191 183.668 127.776C184.082 127.361 184.645 127.128 185.231 127.127H199.486C200.072 127.128 200.634 127.361 201.049 127.776C201.464 128.191 201.697 128.753 201.698 129.34V129.586C201.695 132.063 200.71 134.438 198.959 136.19C197.208 137.942 194.834 138.927 192.358 138.93Z" fill="#CCCCCC"/>
<path d="M199.862 122.701H184.856C184.646 122.701 184.44 122.647 184.257 122.545C184.074 122.443 183.921 122.296 183.81 122.118C183.7 121.939 183.638 121.736 183.628 121.526C183.619 121.317 183.663 121.109 183.757 120.921L186.706 115.02C186.807 114.815 186.964 114.643 187.158 114.523C187.353 114.403 187.577 114.34 187.805 114.34H196.912C197.141 114.34 197.365 114.403 197.559 114.523C197.753 114.643 197.91 114.815 198.011 115.02L200.961 120.921C201.054 121.109 201.099 121.317 201.089 121.526C201.08 121.736 201.017 121.939 200.907 122.118C200.797 122.296 200.643 122.443 200.46 122.545C200.277 122.647 200.071 122.701 199.862 122.701Z" fill="#0072FF"/>
<path d="M98.2284 43.769H114.449V34.9169H98.2284V43.769Z" fill="#CCCCCC"/>
<path d="M107.076 43.769H113.466V36.884H107.076V43.769Z" fill="white"/>
<path d="M99.2115 43.769H105.602V36.884H99.2115V43.769Z" fill="white"/>
<path d="M106.339 53.3585C103.863 53.3557 101.489 52.3704 99.7385 50.6187C97.9877 48.8669 97.0028 46.4919 97 44.0146V43.7687C97.0007 43.182 97.2339 42.6195 97.6486 42.2046C98.0633 41.7897 98.6255 41.5563 99.2119 41.5557H113.467C114.053 41.5563 114.615 41.7897 115.03 42.2046C115.445 42.6195 115.678 43.182 115.679 43.7687V44.0146C115.676 46.4919 114.691 48.8669 112.94 50.6187C111.189 52.3704 108.815 53.3557 106.339 53.3585Z" fill="#CCCCCC"/>
<path d="M113.842 37.1299H98.8359C98.6264 37.1299 98.4204 37.0764 98.2374 36.9743C98.0544 36.8723 97.9006 36.7251 97.7904 36.5468C97.6803 36.3685 97.6176 36.165 97.6082 35.9557C97.5988 35.7463 97.643 35.538 97.7367 35.3505L100.686 29.4491C100.787 29.2444 100.944 29.0722 101.138 28.9521C101.333 28.832 101.557 28.7687 101.785 28.7695H110.892C111.121 28.7687 111.345 28.832 111.539 28.9521C111.733 29.0722 111.89 29.2444 111.991 29.4491L114.941 35.3505C115.034 35.538 115.079 35.7463 115.069 35.9557C115.06 36.165 114.997 36.3685 114.887 36.5468C114.777 36.7251 114.623 36.8723 114.44 36.9743C114.257 37.0764 114.051 37.1299 113.842 37.1299Z" fill="#0072FF"/>
<path d="M81.0243 88.0298H97.2451V79.1776H81.0243V88.0298Z" fill="#CCCCCC"/>
<path d="M89.8722 88.0298H96.2622V81.1448H89.8722V88.0298Z" fill="white"/>
<path d="M82.0074 88.0298H88.3975V81.1448H82.0074V88.0298Z" fill="white"/>
<path d="M89.1347 97.6193C86.6586 97.6165 84.2848 96.6311 82.5339 94.8794C80.7831 93.1277 79.7982 90.7526 79.7954 88.2753V88.0294C79.7961 87.4427 80.0293 86.8802 80.444 86.4653C80.8587 86.0504 81.4209 85.8171 82.0073 85.8164H96.262C96.8485 85.8171 97.4107 86.0504 97.8254 86.4653C98.24 86.8802 98.4733 87.4427 98.474 88.0294V88.2753C98.4712 90.7526 97.4863 93.1277 95.7354 94.8794C93.9846 96.6311 91.6108 97.6165 89.1347 97.6193Z" fill="#CCCCCC"/>
<path d="M96.6379 81.3906H81.6322C81.4228 81.3907 81.2168 81.3371 81.0338 81.2351C80.8508 81.133 80.697 80.9859 80.5868 80.8076C80.4767 80.6293 80.414 80.4258 80.4046 80.2164C80.3952 80.007 80.4394 79.7987 80.5331 79.6113L83.4824 73.7098C83.5838 73.5051 83.7405 73.333 83.9348 73.2128C84.1291 73.0927 84.3531 73.0295 84.5815 73.0303H93.6887C93.917 73.0295 94.1411 73.0927 94.3353 73.2128C94.5296 73.333 94.6864 73.5051 94.7878 73.7098L97.737 79.6113C97.8307 79.7987 97.875 80.007 97.8656 80.2164C97.8562 80.4258 97.7934 80.6293 97.6833 80.8076C97.5732 80.9858 97.4193 81.133 97.2364 81.2351C97.0534 81.3371 96.8474 81.3907 96.6379 81.3906Z" fill="#0072FF"/>
<path d="M99.2118 129.34H115.433V120.488H99.2118V129.34Z" fill="#CCCCCC"/>
<path d="M108.059 129.34H114.449V122.455H108.059V129.34Z" fill="white"/>
<path d="M100.194 129.34H106.584V122.455H100.194V129.34Z" fill="white"/>
<path d="M107.322 138.93C104.846 138.927 102.472 137.942 100.721 136.19C98.9701 134.438 97.9852 132.063 97.9824 129.586V129.34C97.9831 128.753 98.2163 128.191 98.631 127.776C99.0457 127.361 99.6079 127.128 100.194 127.127H114.449C115.035 127.128 115.598 127.361 116.012 127.776C116.427 128.191 116.66 128.753 116.661 129.34V129.586C116.658 132.063 115.673 134.438 113.922 136.19C112.172 137.942 109.798 138.927 107.322 138.93Z" fill="#CCCCCC"/>
<path d="M114.825 122.701H99.8193C99.6098 122.701 99.4038 122.647 99.2208 122.545C99.0378 122.443 98.884 122.296 98.7738 122.118C98.6637 121.939 98.601 121.736 98.5916 121.526C98.5822 121.317 98.6264 121.109 98.7201 120.921L101.669 115.02C101.771 114.815 101.928 114.643 102.122 114.523C102.316 114.403 102.54 114.34 102.768 114.34H111.876C112.104 114.34 112.328 114.403 112.522 114.523C112.717 114.643 112.873 114.815 112.975 115.02L115.924 120.921C116.018 121.109 116.062 121.317 116.053 121.526C116.043 121.736 115.98 121.939 115.87 122.118C115.76 122.296 115.606 122.443 115.423 122.545C115.24 122.647 115.034 122.701 114.825 122.701Z" fill="#0072FF"/>
<path d="M157.705 139.175H141.484V148.027H157.705V139.175Z" fill="#CCCCCC"/>
<path d="M148.857 141.143H142.467V148.028H148.857V141.143Z" fill="white"/>
<path d="M156.722 141.143H150.332V148.028H156.722V141.143Z" fill="white"/>
<path d="M142.467 146.307C142.011 146.307 141.574 146.489 141.251 146.811C140.929 147.134 140.747 147.572 140.747 148.028V148.274C140.747 150.622 141.679 152.873 143.338 154.533C144.997 156.193 147.248 157.126 149.594 157.126C151.941 157.126 154.191 156.193 155.851 154.533C157.51 152.873 158.442 150.622 158.442 148.274V148.028C158.442 147.572 158.26 147.134 157.938 146.811C157.615 146.489 157.178 146.307 156.722 146.307H142.467Z" fill="#CCCCCC"/>
<path d="M145.041 133.52C144.904 133.52 144.77 133.558 144.653 133.63C144.537 133.702 144.443 133.805 144.382 133.928L141.432 139.829C141.376 139.942 141.35 140.067 141.355 140.192C141.361 140.318 141.398 140.44 141.465 140.547C141.531 140.654 141.623 140.742 141.733 140.803C141.843 140.865 141.966 140.897 142.092 140.897H157.097C157.223 140.897 157.347 140.865 157.457 140.803C157.566 140.742 157.659 140.654 157.725 140.547C157.791 140.44 157.828 140.318 157.834 140.192C157.84 140.067 157.813 139.942 157.757 139.829L154.808 133.928C154.747 133.805 154.653 133.702 154.536 133.63C154.42 133.558 154.285 133.52 154.148 133.52H145.041Z" fill="#0072FF"/>
<path d="M260.048 158.355C260.178 158.355 260.303 158.303 260.395 158.211C260.487 158.119 260.539 157.994 260.539 157.863C260.539 157.733 260.487 157.608 260.395 157.516C260.303 157.423 260.178 157.372 260.048 157.372H255.378V155.404H260.048C260.178 155.404 260.303 155.353 260.395 155.26C260.487 155.168 260.539 155.043 260.539 154.913C260.539 154.782 260.487 154.657 260.395 154.565C260.303 154.473 260.178 154.421 260.048 154.421H220.233C220.102 154.421 219.977 154.473 219.885 154.565C219.793 154.657 219.741 154.782 219.741 154.913C219.741 155.043 219.793 155.168 219.885 155.26C219.977 155.353 220.102 155.404 220.233 155.404H224.902V157.372H220.233C220.102 157.372 219.977 157.423 219.885 157.516C219.793 157.608 219.741 157.733 219.741 157.863C219.741 157.994 219.793 158.119 219.885 158.211C219.977 158.303 220.102 158.355 220.233 158.355H224.902V160.322H220.233C220.102 160.322 219.977 160.374 219.885 160.466C219.793 160.559 219.741 160.684 219.741 160.814C219.741 160.945 219.793 161.07 219.885 161.162C219.977 161.254 220.102 161.306 220.233 161.306H224.902V163.273H220.724C220.464 163.273 220.214 163.377 220.029 163.561C219.845 163.746 219.741 163.996 219.741 164.257C219.741 164.517 219.845 164.768 220.029 164.952C220.214 165.137 220.464 165.24 220.724 165.24H224.702C224.673 165.319 224.657 165.402 224.657 165.486V172.371C224.657 172.567 224.734 172.754 224.873 172.893C225.011 173.031 225.198 173.109 225.394 173.109C225.589 173.109 225.777 173.031 225.915 172.893C226.054 172.754 226.131 172.567 226.131 172.371V165.486C226.13 165.402 226.115 165.319 226.086 165.24H254.194C254.165 165.319 254.15 165.402 254.149 165.486V172.371C254.149 172.567 254.227 172.754 254.365 172.893C254.503 173.031 254.691 173.109 254.886 173.109C255.082 173.109 255.269 173.031 255.408 172.893C255.546 172.754 255.624 172.567 255.624 172.371V165.486C255.623 165.402 255.608 165.319 255.579 165.24H259.556C259.817 165.24 260.067 165.137 260.251 164.952C260.436 164.768 260.539 164.517 260.539 164.257C260.539 163.996 260.436 163.746 260.251 163.561C260.067 163.377 259.817 163.273 259.556 163.273H255.378V161.306H260.048C260.178 161.306 260.303 161.254 260.395 161.162C260.487 161.07 260.539 160.945 260.539 160.814C260.539 160.684 260.487 160.559 260.395 160.466C260.303 160.374 260.178 160.322 260.048 160.322H255.378V158.355H260.048ZM225.885 155.404H254.395V157.372H225.885V155.404ZM254.395 163.273H225.885V161.306H254.395V163.273ZM254.395 160.322H225.885V158.355H254.395V160.322Z" fill="#3F3D56"/>
<path d="M92.924 158.355C93.0544 158.355 93.1794 158.303 93.2716 158.211C93.3638 158.119 93.4156 157.994 93.4156 157.863C93.4156 157.733 93.3638 157.608 93.2716 157.516C93.1794 157.423 93.0544 157.372 92.924 157.372H88.2544V155.404H92.924C93.0544 155.404 93.1794 155.353 93.2716 155.26C93.3638 155.168 93.4156 155.043 93.4156 154.913C93.4156 154.782 93.3638 154.657 93.2716 154.565C93.1794 154.473 93.0544 154.421 92.924 154.421H53.1092C52.9789 154.421 52.8538 154.473 52.7617 154.565C52.6695 154.657 52.6177 154.782 52.6177 154.913C52.6177 155.043 52.6695 155.168 52.7617 155.26C52.8538 155.353 52.9789 155.404 53.1092 155.404H57.7789V157.372H53.1092C52.9789 157.372 52.8538 157.423 52.7617 157.516C52.6695 157.608 52.6177 157.733 52.6177 157.863C52.6177 157.994 52.6695 158.119 52.7617 158.211C52.8538 158.303 52.9789 158.355 53.1092 158.355H57.7789V160.322H53.1092C52.9789 160.322 52.8538 160.374 52.7617 160.466C52.6695 160.559 52.6177 160.684 52.6177 160.814C52.6177 160.945 52.6695 161.07 52.7617 161.162C52.8538 161.254 52.9789 161.306 53.1092 161.306H57.7789V163.273H53.6008C53.34 163.273 53.09 163.377 52.9056 163.561C52.7212 163.746 52.6177 163.996 52.6177 164.257C52.6177 164.517 52.7212 164.768 52.9056 164.952C53.09 165.137 53.34 165.24 53.6008 165.24H57.5782C57.5492 165.319 57.534 165.402 57.5331 165.486V172.371C57.5331 172.567 57.6108 172.754 57.749 172.893C57.8873 173.031 58.0749 173.109 58.2704 173.109C58.466 173.109 58.6535 173.031 58.7918 172.893C58.93 172.754 59.0077 172.567 59.0077 172.371V165.486C59.0069 165.402 58.9916 165.319 58.9626 165.24H87.0707C87.0417 165.319 87.0264 165.402 87.0256 165.486V172.371C87.0256 172.567 87.1032 172.754 87.2415 172.893C87.3798 173.031 87.5673 173.109 87.7629 173.109C87.9584 173.109 88.1459 173.031 88.2842 172.893C88.4225 172.754 88.5002 172.567 88.5002 172.371V165.486C88.4993 165.402 88.484 165.319 88.455 165.24H92.4325C92.6932 165.24 92.9433 165.137 93.1276 164.952C93.312 164.768 93.4156 164.517 93.4156 164.257C93.4156 163.996 93.312 163.746 93.1276 163.561C92.9433 163.377 92.6932 163.273 92.4325 163.273H88.2544V161.306H92.924C93.0544 161.306 93.1794 161.254 93.2716 161.162C93.3638 161.07 93.4156 160.945 93.4156 160.814C93.4156 160.684 93.3638 160.559 93.2716 160.466C93.1794 160.374 93.0544 160.322 92.924 160.322H88.2544V158.355H92.924ZM58.7619 155.404H87.2713V157.372H58.7619V155.404ZM87.2713 163.273H58.7619V161.306H87.2713V163.273ZM87.2713 160.322H58.7619V158.355H87.2713V160.322Z" fill="#3F3D56"/>
<path d="M247.759 155.65H246.285C246.089 155.65 245.902 155.572 245.764 155.434C245.625 155.296 245.548 155.108 245.547 154.913V153.437C245.548 153.242 245.625 153.054 245.764 152.916C245.902 152.778 246.089 152.7 246.285 152.7H247.759C247.955 152.7 248.142 152.778 248.28 152.916C248.419 153.054 248.496 153.242 248.497 153.437V154.913C248.496 155.108 248.419 155.296 248.28 155.434C248.142 155.572 247.955 155.65 247.759 155.65Z" fill="#CCCCCC"/>
<path d="M247.05 154.025C247.022 154.025 246.994 154.022 246.966 154.018C246.902 154.007 246.841 153.983 246.787 153.949C246.732 153.914 246.685 153.87 246.648 153.817C246.61 153.764 246.584 153.704 246.57 153.642C246.555 153.579 246.554 153.513 246.565 153.45L251.426 125.149C251.448 125.021 251.521 124.907 251.627 124.832C251.733 124.756 251.865 124.727 251.993 124.749C252.122 124.771 252.236 124.843 252.311 124.949C252.387 125.056 252.417 125.187 252.395 125.316L247.534 153.616C247.514 153.731 247.455 153.834 247.366 153.909C247.278 153.984 247.166 154.025 247.05 154.025Z" fill="#CCCCCC"/>
<path d="M247.048 154.025C246.932 154.025 246.82 153.984 246.732 153.909C246.643 153.834 246.584 153.731 246.564 153.616L241.703 125.316C241.681 125.187 241.711 125.055 241.786 124.949C241.862 124.842 241.976 124.77 242.105 124.748C242.233 124.726 242.365 124.756 242.472 124.831C242.578 124.906 242.65 125.021 242.672 125.149L247.533 153.45C247.544 153.513 247.543 153.579 247.528 153.642C247.514 153.705 247.488 153.764 247.45 153.817C247.413 153.87 247.366 153.914 247.311 153.949C247.257 153.983 247.196 154.007 247.132 154.018C247.104 154.023 247.076 154.025 247.048 154.025Z" fill="#CCCCCC"/>
<path d="M257.515 120.305C257.988 116.946 256.196 113.916 253.51 113.537C250.825 113.157 248.264 115.573 247.79 118.931C247.39 121.764 248.606 124.356 250.607 125.328L250.493 126.135L252.924 126.479L253.038 125.671C255.229 125.291 257.115 123.137 257.515 120.305Z" fill="#FF6584"/>
<path d="M246.225 118.776C245.643 115.435 243.006 113.103 240.334 113.569C237.662 114.035 235.968 117.121 236.549 120.462C237.04 123.281 238.994 125.373 241.197 125.682L241.336 126.485L243.755 126.064L243.616 125.26C245.584 124.224 246.716 121.594 246.225 118.776Z" fill="#CCCCCC"/>
<path d="M247.022 153.437C246.891 153.437 246.766 153.386 246.674 153.293C246.582 153.201 246.53 153.076 246.53 152.946V123.853C246.53 123.722 246.582 123.597 246.674 123.505C246.766 123.413 246.891 123.361 247.022 123.361C247.152 123.361 247.277 123.413 247.369 123.505C247.462 123.597 247.513 123.722 247.513 123.853V152.946C247.513 153.076 247.462 153.201 247.369 153.293C247.277 153.386 247.152 153.437 247.022 153.437Z" fill="#CCCCCC"/>
<path d="M251.628 118.264C251.628 114.873 249.43 112.123 246.717 112.123C244.005 112.123 241.807 114.873 241.807 118.264C241.807 121.125 243.373 123.522 245.49 124.205V125.02H247.945V124.205C250.062 123.522 251.628 121.125 251.628 118.264Z" fill="#0072FF"/>
<path d="M349.232 173.864H0.585265C0.430042 173.864 0.281179 173.803 0.17142 173.693C0.0616608 173.583 0 173.434 0 173.279C0 173.124 0.0616608 172.975 0.17142 172.865C0.281179 172.755 0.430042 172.693 0.585265 172.693H349.232C349.387 172.693 349.536 172.755 349.646 172.865C349.756 172.975 349.818 173.124 349.818 173.279C349.818 173.434 349.756 173.583 349.646 173.693C349.536 173.803 349.387 173.864 349.232 173.864Z" fill="#CCCCCC"/>
<path d="M272.055 172.817L270.937 172.816L270.405 168.502H272.055V172.817Z" fill="#A0616A"/>
<path d="M269.98 172.497H272.295V173.855H268.781V173.696C268.781 173.539 268.812 173.383 268.872 173.237C268.933 173.092 269.021 172.96 269.132 172.848C269.244 172.737 269.376 172.649 269.521 172.588C269.666 172.528 269.822 172.497 269.98 172.497Z" fill="#2F2E41"/>
<path d="M280.167 171.55L279.15 172.015L276.875 168.312L278.376 167.625L280.167 171.55Z" fill="#A0616A"/>
<path d="M278.147 172.122L280.253 171.16L280.817 172.395L277.621 173.856L277.555 173.711C277.489 173.567 277.453 173.413 277.447 173.255C277.441 173.098 277.467 172.941 277.522 172.794C277.577 172.646 277.66 172.511 277.767 172.396C277.875 172.28 278.003 172.187 278.147 172.122Z" fill="#2F2E41"/>
<path d="M271.984 171.679H270.916C270.813 171.679 270.713 171.639 270.637 171.569C270.561 171.498 270.515 171.402 270.507 171.298L269.924 155.737C269.92 155.677 269.929 155.617 269.95 155.561C269.971 155.505 270.004 155.455 270.047 155.413C270.09 155.371 270.141 155.339 270.198 155.32C270.254 155.3 270.314 155.293 270.374 155.298L276.551 155.955C276.651 155.964 276.744 156.011 276.812 156.085C276.88 156.158 276.919 156.255 276.921 156.356L277.05 163.22C277.051 163.257 277.058 163.294 277.072 163.329L279.606 169.903C279.625 169.954 279.634 170.008 279.633 170.062C279.631 170.117 279.619 170.17 279.597 170.22C279.574 170.269 279.542 170.314 279.502 170.351C279.462 170.388 279.416 170.417 279.365 170.436L278.282 170.835C278.188 170.869 278.085 170.868 277.991 170.832C277.898 170.796 277.821 170.726 277.775 170.637L274.663 164.582C274.646 164.549 274.633 164.514 274.626 164.478L274.094 161.914C274.079 161.84 274.037 161.774 273.978 161.727C273.918 161.68 273.843 161.657 273.767 161.66C273.691 161.664 273.619 161.694 273.564 161.746C273.508 161.798 273.473 161.867 273.465 161.943L272.392 171.315C272.381 171.415 272.333 171.508 272.257 171.575C272.182 171.642 272.085 171.679 271.984 171.679Z" fill="#2F2E41"/>
<path d="M272.516 143.569C273.753 143.569 274.756 142.566 274.756 141.328C274.756 140.091 273.753 139.087 272.516 139.087C271.279 139.087 270.276 140.091 270.276 141.328C270.276 142.566 271.279 143.569 272.516 143.569Z" fill="#A0616A"/>
<path d="M274.06 157.157C272.615 157.139 271.202 156.735 269.966 155.986C269.902 155.947 269.85 155.891 269.816 155.824C269.782 155.758 269.767 155.683 269.773 155.609L270.317 147.819C270.352 147.294 270.51 146.783 270.777 146.329C271.044 145.875 271.414 145.49 271.857 145.205C272.279 144.925 272.762 144.748 273.265 144.688C273.769 144.628 274.279 144.687 274.756 144.859C274.967 144.932 275.165 145.035 275.346 145.165C275.926 145.579 276.382 146.144 276.663 146.799C276.944 147.454 277.041 148.174 276.941 148.88C276.542 151.91 276.994 155.999 277.047 156.455L277.051 156.488L277.021 156.502C276.094 156.933 275.083 157.157 274.06 157.157Z" fill="#0072FF"/>
<path d="M276.911 158.269C277.018 158.189 277.107 158.086 277.17 157.967C277.233 157.849 277.269 157.718 277.276 157.584C277.283 157.45 277.26 157.316 277.21 157.192C277.16 157.067 277.083 156.956 276.984 156.864L278.299 153.881L276.629 154.164L275.637 156.954C275.495 157.129 275.421 157.35 275.431 157.576C275.441 157.802 275.533 158.016 275.69 158.178C275.847 158.34 276.058 158.439 276.283 158.456C276.508 158.473 276.732 158.406 276.911 158.269Z" fill="#A0616A"/>
<path d="M277.038 156.426C276.981 156.426 276.925 156.415 276.873 156.392C276.821 156.369 276.774 156.335 276.736 156.293L276.246 155.758C276.198 155.706 276.165 155.642 276.149 155.573C276.133 155.505 276.135 155.433 276.155 155.365L277.277 151.565L275.57 147.978C275.495 147.82 275.476 147.641 275.518 147.472C275.554 147.323 275.635 147.188 275.749 147.086C275.863 146.984 276.006 146.919 276.158 146.9C276.31 146.88 276.464 146.907 276.6 146.977C276.736 147.048 276.848 147.157 276.921 147.292L279.229 151.039C279.319 151.185 279.371 151.35 279.382 151.521C279.393 151.692 279.362 151.862 279.292 152.018L277.412 156.185C277.385 156.247 277.342 156.301 277.288 156.342C277.234 156.383 277.17 156.411 277.103 156.421C277.082 156.425 277.06 156.426 277.038 156.426Z" fill="#0072FF"/>
<path d="M274.362 143.304C274.129 143.344 273.938 143.02 273.909 142.793C273.911 142.568 273.932 142.343 273.972 142.121C273.985 142.004 273.96 141.885 273.9 141.782C273.84 141.68 273.749 141.6 273.64 141.554C273.394 141.483 273.166 141.681 272.914 141.657C272.563 141.624 272.387 141.213 272.345 140.881C272.302 140.548 272.269 140.155 271.965 139.965C271.662 139.776 271.287 139.914 270.939 139.92C270.641 139.916 270.353 139.818 270.114 139.64C269.876 139.461 269.701 139.212 269.614 138.927C269.686 138.947 269.762 138.943 269.831 138.916C269.9 138.888 269.958 138.838 269.995 138.774C270.024 138.706 270.03 138.629 270.012 138.557C269.994 138.485 269.952 138.421 269.893 138.375L270.56 138.701C270.543 138.655 270.536 138.606 270.539 138.557C270.542 138.508 270.555 138.46 270.577 138.417C270.599 138.373 270.63 138.334 270.668 138.303C270.705 138.271 270.749 138.248 270.796 138.234C270.999 138.181 271.212 138.178 271.415 138.228C272.459 138.39 273.669 138.31 274.362 139.107C274.884 139.753 275.173 140.557 275.182 141.388C275.016 142.067 274.739 142.715 274.362 143.304Z" fill="#2F2E41"/>
<path d="M262.485 147.124C262.601 147.058 262.731 147.018 262.864 147.007C262.998 146.996 263.132 147.015 263.258 147.061C263.384 147.108 263.498 147.182 263.592 147.277C263.686 147.373 263.758 147.488 263.803 147.614L267.061 147.591L266.139 149.012L263.186 148.816C262.969 148.878 262.737 148.857 262.534 148.759C262.33 148.66 262.17 148.491 262.084 148.282C261.998 148.073 261.991 147.84 262.064 147.627C262.138 147.414 262.288 147.235 262.485 147.124Z" fill="#A0616A"/>
<path d="M264.18 148.673C264.169 148.617 264.169 148.56 264.181 148.504C264.193 148.448 264.216 148.396 264.249 148.35L264.673 147.761C264.714 147.704 264.77 147.658 264.834 147.628C264.898 147.598 264.969 147.586 265.039 147.591L268.851 147.432L272.148 145.512C272.287 145.406 272.458 145.352 272.633 145.358C272.786 145.363 272.934 145.415 273.057 145.506C273.18 145.597 273.273 145.723 273.323 145.868C273.373 146.013 273.378 146.17 273.337 146.317C273.296 146.465 273.212 146.597 273.094 146.696L269.899 149.72C269.775 149.838 269.623 149.923 269.459 149.969C269.294 150.015 269.12 150.019 268.953 149.982L264.493 148.99C264.427 148.976 264.365 148.945 264.314 148.9C264.263 148.856 264.223 148.799 264.199 148.736C264.191 148.715 264.185 148.694 264.18 148.673Z" fill="#0072FF"/>
<path d="M208.144 170.98C208.191 170.849 208.208 170.711 208.194 170.573C208.181 170.436 208.138 170.303 208.068 170.184C207.998 170.065 207.903 169.963 207.789 169.885C207.675 169.807 207.545 169.754 207.409 169.732L206.843 166.423L205.57 167.615L206.303 170.575C206.28 170.806 206.343 171.038 206.48 171.226C206.616 171.414 206.817 171.545 207.044 171.595C207.271 171.645 207.508 171.61 207.711 171.497C207.914 171.383 208.068 171.199 208.144 170.98Z" fill="#FFB8B8"/>
<path d="M207.299 169.396L206.049 169.724C205.99 169.74 205.927 169.731 205.873 169.701C205.82 169.67 205.781 169.62 205.764 169.561L203.518 161.601L202.84 159.571C202.775 159.375 202.76 159.166 202.797 158.963C202.834 158.76 202.922 158.57 203.052 158.41C203.182 158.25 203.351 158.126 203.542 158.049C203.733 157.972 203.941 157.944 204.146 157.969C204.383 157.997 204.606 158.095 204.788 158.249C204.971 158.403 205.104 158.607 205.171 158.836L206.966 164.904L207.472 169.141C207.478 169.188 207.469 169.236 207.447 169.278C207.425 169.32 207.391 169.354 207.349 169.377C207.333 169.385 207.316 169.392 207.299 169.396Z" fill="#0072FF"/>
<path d="M202.732 156.626C204.006 156.626 205.038 155.593 205.038 154.319C205.038 153.045 204.006 152.012 202.732 152.012C201.458 152.012 200.426 153.045 200.426 154.319C200.426 155.593 201.458 156.626 202.732 156.626Z" fill="#FFB8B8"/>
<path d="M195.942 185.883L194.839 185.555L195.58 181.141L197.209 181.626L195.942 185.883Z" fill="#FFB8B8"/>
<path d="M195.905 187.037L192.348 185.978L192.361 185.933C192.415 185.751 192.505 185.581 192.624 185.434C192.744 185.287 192.891 185.164 193.058 185.074C193.225 184.983 193.408 184.927 193.596 184.907C193.785 184.888 193.976 184.905 194.158 184.959L196.331 185.606L195.905 187.037Z" fill="#2F2E41"/>
<path d="M208.03 185.827L206.879 185.826L206.331 181.384L207.467 181.384L208.03 185.827Z" fill="#FFB8B8"/>
<path d="M208.323 186.943L204.611 186.943V186.896C204.611 186.706 204.649 186.518 204.721 186.343C204.794 186.168 204.9 186.008 205.034 185.874C205.169 185.74 205.328 185.633 205.503 185.561C205.678 185.488 205.866 185.451 206.056 185.451L208.323 185.451L208.323 186.943Z" fill="#2F2E41"/>
<path d="M196.366 184.577H195.21C195.148 184.577 195.087 184.563 195.031 184.537C194.975 184.511 194.925 184.473 194.886 184.425C194.846 184.377 194.817 184.322 194.802 184.262C194.786 184.202 194.784 184.139 194.795 184.078C194.058 183.75 198.026 164.709 198.964 165.078L198.995 165.033L203.717 165.419C205.831 169.654 207.17 176.661 208.423 183.976C208.438 184.037 208.44 184.1 208.428 184.162C208.416 184.223 208.39 184.281 208.353 184.332C208.316 184.382 208.268 184.424 208.213 184.453C208.157 184.483 208.096 184.5 208.034 184.503L206.735 184.566C206.647 184.57 206.56 184.547 206.486 184.499C206.412 184.452 206.355 184.382 206.322 184.3L201.347 171.856C201.337 171.829 201.319 171.806 201.295 171.79C201.27 171.774 201.242 171.766 201.213 171.768C201.184 171.768 201.156 171.777 201.133 171.794C201.11 171.811 201.092 171.835 201.083 171.862L196.765 184.293C196.736 184.376 196.683 184.448 196.611 184.499C196.539 184.55 196.454 184.577 196.366 184.577Z" fill="#2F2E41"/>
<path d="M203.815 165.792L203.779 165.789L198.752 165.409L199.634 159.798C199.731 159.172 200.027 158.594 200.479 158.15C200.932 157.706 201.515 157.42 202.143 157.336C202.181 157.33 202.22 157.325 202.259 157.32C202.753 157.255 203.254 157.318 203.716 157.503C204.178 157.688 204.584 157.988 204.897 158.376C205.216 158.765 205.43 159.231 205.518 159.727C205.606 160.223 205.565 160.734 205.399 161.21L203.815 165.792Z" fill="#0072FF"/>
<path d="M207.21 156.958C205.624 157.684 203.473 157.554 201.013 156.958C201.354 156.025 201.619 155.124 201.318 154.463C201.196 154.213 201.128 153.941 201.116 153.664C201.105 153.386 201.151 153.109 201.252 152.851C201.488 152.286 201.885 151.804 202.394 151.465C202.903 151.127 203.5 150.946 204.112 150.946C204.933 150.946 205.722 151.272 206.303 151.854C206.884 152.435 207.21 153.224 207.21 154.046L207.21 156.958Z" fill="#2F2E41"/>
<path d="M202.124 151.157H203.83V153.583H199.699C199.699 153.264 199.761 152.949 199.883 152.654C200.005 152.36 200.184 152.093 200.409 151.867C200.634 151.642 200.901 151.463 201.196 151.341C201.49 151.219 201.805 151.157 202.124 151.157Z" fill="#2F2E41"/>
<path d="M198.643 171.501C198.745 171.408 198.825 171.293 198.878 171.166C198.93 171.038 198.955 170.901 198.948 170.763C198.942 170.625 198.906 170.49 198.842 170.367C198.778 170.245 198.688 170.138 198.578 170.054L199.628 166.866L197.945 167.322L197.206 170.28C197.078 170.474 197.025 170.708 197.057 170.938C197.09 171.168 197.205 171.379 197.383 171.529C197.56 171.68 197.786 171.76 198.018 171.755C198.251 171.75 198.473 171.66 198.643 171.501Z" fill="#FFB8B8"/>
<path d="M198.638 169.706L197.381 169.41C197.321 169.396 197.27 169.359 197.237 169.307C197.204 169.255 197.193 169.192 197.205 169.132L198.95 161.048L199.302 158.936C199.336 158.733 199.42 158.541 199.548 158.379C199.676 158.217 199.843 158.09 200.033 158.01C200.223 157.93 200.43 157.899 200.635 157.921C200.84 157.942 201.036 158.015 201.206 158.133C201.402 158.269 201.553 158.46 201.642 158.682C201.731 158.903 201.753 159.146 201.706 159.38L200.449 165.582L198.911 169.562C198.894 169.607 198.864 169.645 198.825 169.671C198.786 169.698 198.739 169.713 198.692 169.713C198.674 169.713 198.656 169.711 198.638 169.706Z" fill="#0072FF"/>
<path d="M237.502 152.136C237.453 152.148 237.406 152.165 237.36 152.184L233.582 149.746L233.634 148.654L231.998 148.36L231.718 150.284C231.695 150.439 231.723 150.598 231.798 150.736C231.873 150.873 231.991 150.983 232.134 151.048L236.787 153.174C236.81 153.366 236.891 153.546 237.02 153.691C237.148 153.836 237.317 153.938 237.504 153.984C237.692 154.03 237.889 154.018 238.07 153.95C238.251 153.881 238.406 153.759 238.516 153.6C238.625 153.441 238.684 153.252 238.684 153.058C238.683 152.865 238.624 152.676 238.514 152.517C238.404 152.358 238.249 152.237 238.068 152.169C237.887 152.1 237.69 152.089 237.502 152.136Z" fill="#FFB8B8"/>
<path d="M233.428 149.679L231.402 149.304C231.344 149.294 231.289 149.271 231.241 149.237C231.193 149.203 231.153 149.16 231.124 149.109C231.094 149.059 231.076 149.002 231.07 148.944C231.064 148.885 231.071 148.826 231.09 148.771L231.755 146.826C231.81 146.531 231.981 146.27 232.229 146.1C232.477 145.93 232.782 145.866 233.077 145.921C233.373 145.977 233.634 146.147 233.804 146.395C233.973 146.644 234.037 146.949 233.982 147.244L233.91 149.292C233.908 149.35 233.893 149.408 233.867 149.46C233.84 149.513 233.803 149.559 233.757 149.596C233.712 149.632 233.659 149.659 233.602 149.673C233.545 149.687 233.486 149.689 233.428 149.679Z" fill="#3F3D56"/>
<path d="M240.473 144.405C240.462 144.454 240.455 144.503 240.452 144.553L236.557 146.801L235.611 146.256L234.602 147.578L236.184 148.706C236.311 148.797 236.465 148.844 236.622 148.84C236.779 148.837 236.931 148.782 237.054 148.685L241.07 145.515C241.251 145.582 241.448 145.592 241.636 145.545C241.823 145.497 241.991 145.393 242.118 145.247C242.245 145.101 242.324 144.92 242.346 144.728C242.367 144.536 242.33 144.342 242.238 144.171C242.147 144.001 242.006 143.863 241.834 143.775C241.662 143.686 241.467 143.653 241.275 143.678C241.084 143.703 240.904 143.787 240.761 143.916C240.618 144.046 240.518 144.216 240.473 144.405Z" fill="#FFB8B8"/>
<path d="M236.427 146.907L235.168 148.54C235.133 148.586 235.087 148.624 235.035 148.651C234.983 148.679 234.926 148.695 234.868 148.698C234.809 148.701 234.751 148.692 234.696 148.67C234.642 148.649 234.592 148.616 234.552 148.573L233.127 147.093C232.889 146.909 232.735 146.637 232.697 146.339C232.66 146.041 232.742 145.74 232.926 145.502C233.111 145.265 233.382 145.11 233.68 145.073C233.978 145.035 234.279 145.118 234.516 145.302L236.303 146.302C236.355 146.331 236.399 146.37 236.434 146.417C236.468 146.465 236.492 146.519 236.504 146.576C236.516 146.634 236.515 146.693 236.502 146.75C236.488 146.807 236.463 146.861 236.427 146.907Z" fill="#CCCCCC"/>
<path d="M231.273 143.01C232.502 143.01 233.499 142.013 233.499 140.782C233.499 139.552 232.502 138.555 231.273 138.555C230.043 138.555 229.046 139.552 229.046 140.782C229.046 142.013 230.043 143.01 231.273 143.01Z" fill="#FFB8B8"/>
<path d="M233.375 172.681H234.486L235.015 168.392H233.375L233.375 172.681Z" fill="#FFB8B8"/>
<path d="M233.091 172.318L235.28 172.318C235.463 172.318 235.644 172.354 235.814 172.424C235.983 172.494 236.137 172.597 236.266 172.727C236.396 172.856 236.498 173.01 236.569 173.179C236.639 173.349 236.675 173.53 236.675 173.713V173.759L233.091 173.759L233.091 172.318Z" fill="#2F2E41"/>
<path d="M229.567 172.681H230.678L231.207 168.392H229.567V172.681Z" fill="#FFB8B8"/>
<path d="M229.283 172.318L231.472 172.318C231.655 172.318 231.837 172.354 232.006 172.424C232.175 172.494 232.329 172.597 232.459 172.727C232.588 172.856 232.691 173.01 232.761 173.179C232.831 173.349 232.867 173.53 232.867 173.713V173.759L229.283 173.759L229.283 172.318Z" fill="#2F2E41"/>
<path d="M233.041 171.053L231.908 162.277C231.907 162.265 231.902 162.254 231.893 162.247C231.885 162.239 231.873 162.234 231.862 162.235C231.856 162.235 231.85 162.235 231.845 162.238C231.839 162.24 231.834 162.243 231.83 162.247C231.826 162.251 231.823 162.256 231.82 162.261C231.818 162.267 231.817 162.273 231.817 162.278L231.491 170.927C231.488 171.033 231.443 171.133 231.367 171.206C231.291 171.279 231.189 171.32 231.084 171.32H229.737C229.631 171.32 229.528 171.279 229.452 171.204C229.375 171.13 229.331 171.028 229.329 170.922L228.98 156.512L235.005 156.572L235.155 171.028C235.154 171.086 235.14 171.142 235.116 171.194C235.091 171.246 235.056 171.292 235.012 171.329C234.969 171.366 234.919 171.394 234.865 171.41C234.811 171.426 234.755 171.431 234.699 171.424L233.393 171.427C233.3 171.415 233.215 171.37 233.151 171.302C233.087 171.234 233.048 171.146 233.041 171.053Z" fill="#2F2E41"/>
<path d="M228.891 156.906C228.823 156.88 228.764 156.836 228.719 156.78C228.673 156.724 228.644 156.657 228.633 156.585L228.573 148.666C228.307 146.903 227.992 145.175 229.533 144.281L229.669 143.874C229.683 143.83 229.711 143.791 229.748 143.764C229.786 143.736 229.831 143.72 229.877 143.719L232.8 143.635C232.846 143.634 232.891 143.646 232.929 143.671C232.967 143.695 232.997 143.731 233.015 143.773L233.232 144.28L233.31 144.324C234.044 144.743 234.639 145.369 235.019 146.125C235.4 146.88 235.549 147.73 235.449 148.57L235.282 149.982L235.163 156.58C235.162 156.652 235.141 156.723 235.103 156.785C235.066 156.847 235.013 156.897 234.949 156.932C234.122 157.362 233.2 157.577 232.269 157.557C231.114 157.536 229.971 157.315 228.891 156.906Z" fill="#CCCCCC"/>
<path d="M231.201 143.093C230.865 143.1 230.533 143.036 230.224 142.906C229.915 142.775 229.637 142.581 229.409 142.335C229.181 142.089 229.007 141.798 228.9 141.481C228.792 141.163 228.752 140.826 228.784 140.492C228.816 140.159 228.918 139.835 229.083 139.543C229.248 139.252 229.474 138.998 229.744 138.8C230.014 138.602 230.323 138.463 230.651 138.392C230.979 138.322 231.318 138.322 231.646 138.392C232.128 138.075 232.698 137.918 233.275 137.945C233.562 137.963 233.839 138.059 234.076 138.221C234.313 138.383 234.502 138.606 234.624 138.867C234.731 139.133 234.735 139.43 234.634 139.699C234.532 139.967 234.334 140.188 234.077 140.316C233.723 140.419 233.347 140.424 232.99 140.332C232.631 140.24 232.252 140.273 231.915 140.427C231.599 140.614 231.457 141.117 231.74 141.351C231.89 141.48 231.997 141.652 232.047 141.843C232.097 142.035 232.087 142.237 232.02 142.423C231.953 142.597 231.843 142.75 231.699 142.867C231.555 142.985 231.384 143.062 231.201 143.093Z" fill="#2F2E41"/>
<path d="M102.076 185.785H103.159L103.674 181.604H102.075L102.076 185.785Z" fill="#FFB8B8"/>
<path d="M101.598 187.037L101.598 185.229L103.932 185.229C104.346 185.229 104.743 185.394 105.036 185.687C105.328 185.98 105.493 186.377 105.494 186.791V187.037L101.598 187.037Z" fill="#2F2E41"/>
<path d="M96.2368 185.785H97.3197L97.8348 181.604H96.2363L96.2368 185.785Z" fill="#FFB8B8"/>
<path d="M95.7594 187.037L95.7593 185.229L98.0941 185.229C98.508 185.229 98.9048 185.394 99.1974 185.687C99.4901 185.98 99.6547 186.377 99.6552 186.791V187.037L95.7594 187.037Z" fill="#2F2E41"/>
<path d="M99.4097 156.068C100.695 156.068 101.737 155.025 101.737 153.739C101.737 152.454 100.695 151.411 99.4097 151.411C98.1244 151.411 97.0825 152.454 97.0825 153.739C97.0825 155.025 98.1244 156.068 99.4097 156.068Z" fill="#FFB8B8"/>
<path d="M107.367 168.924C107.351 168.795 107.306 168.672 107.237 168.562C107.168 168.452 107.075 168.358 106.966 168.288C106.857 168.218 106.733 168.172 106.605 168.155C106.476 168.137 106.345 168.148 106.221 168.187L104.92 166.627L103.78 167.187L105.648 169.364C105.727 169.568 105.877 169.736 106.072 169.836C106.266 169.936 106.49 169.962 106.702 169.908C106.914 169.854 107.099 169.724 107.221 169.542C107.344 169.361 107.396 169.141 107.367 168.924Z" fill="#FFB8B8"/>
<path d="M96.1735 170.502C96.2289 170.384 96.2579 170.256 96.2584 170.126C96.2589 169.996 96.2309 169.868 96.1765 169.75C96.122 169.632 96.0423 169.527 95.943 169.443C95.8438 169.36 95.7274 169.299 95.602 169.265L95.3409 167.25L94.0786 167.11L94.4873 169.95C94.4443 170.164 94.4814 170.387 94.5916 170.576C94.7018 170.765 94.8775 170.907 95.0853 170.975C95.2931 171.043 95.5187 171.033 95.7193 170.945C95.9198 170.858 96.0814 170.7 96.1735 170.502Z" fill="#FFB8B8"/>
<path d="M97.4646 158.137C97.3409 157.978 97.1774 157.855 96.9907 157.779C96.804 157.704 96.6007 157.679 96.4012 157.707C96.2018 157.735 96.0133 157.816 95.8548 157.94C95.6964 158.064 95.5734 158.228 95.4985 158.415L93.5911 163.178C93.3962 163.665 93.334 164.194 93.411 164.713L94.0323 168.899C94.0403 168.953 94.0599 169.005 94.0897 169.051C94.1195 169.096 94.1588 169.135 94.205 169.164C94.2511 169.193 94.303 169.212 94.3571 169.219C94.4112 169.227 94.4663 169.222 94.5184 169.206L95.337 168.954C95.4218 168.928 95.4947 168.873 95.5432 168.799C95.5916 168.725 95.6125 168.636 95.6022 168.548C95.3132 166.083 95.6951 163.587 96.7073 161.321L97.6065 159.309C97.6913 159.119 97.7229 158.91 97.6979 158.703C97.6729 158.497 97.5923 158.301 97.4646 158.137Z" fill="#CCCCCC"/>
<path d="M98.8427 156.068C98.4925 156.076 98.1446 156.009 97.8219 155.872C97.4993 155.736 97.2091 155.533 96.9706 155.276C96.7321 155.019 96.5505 154.715 96.4379 154.383C96.3253 154.051 96.2842 153.699 96.3172 153.35C96.3503 153.001 96.4567 152.663 96.6296 152.358C96.8025 152.053 97.038 151.789 97.3205 151.581C97.6029 151.374 97.9261 151.229 98.2686 151.155C98.6111 151.082 98.9654 151.082 99.3079 151.155C99.812 150.823 100.408 150.66 101.011 150.688C101.311 150.707 101.6 150.807 101.848 150.976C102.096 151.146 102.294 151.379 102.42 151.652C102.533 151.93 102.537 152.24 102.431 152.521C102.325 152.801 102.117 153.032 101.849 153.166C101.479 153.273 101.086 153.279 100.713 153.182C100.338 153.086 99.9416 153.121 99.5894 153.282C99.2592 153.478 99.1108 154.003 99.4065 154.248C99.5633 154.382 99.6752 154.562 99.7274 154.762C99.7796 154.962 99.7696 155.174 99.6988 155.368C99.6294 155.549 99.5139 155.709 99.3637 155.832C99.2136 155.955 99.034 156.036 98.8427 156.068Z" fill="#2F2E41"/>
<path d="M95.9554 168.832L95.5426 184.506C95.5412 184.558 95.5507 184.61 95.5703 184.658C95.59 184.707 95.6194 184.751 95.6568 184.787C95.6942 184.824 95.7387 184.852 95.7876 184.87C95.8365 184.889 95.8886 184.897 95.9408 184.894L97.3007 184.825C97.3874 184.821 97.4701 184.786 97.5347 184.728C97.5993 184.67 97.642 184.592 97.6556 184.506L99.2732 174.326C99.2801 174.282 99.3019 174.242 99.335 174.213C99.3681 174.184 99.4103 174.167 99.4544 174.166C99.4985 174.164 99.5416 174.179 99.5765 174.206C99.6113 174.233 99.6356 174.271 99.6452 174.314L101.835 184.116C101.846 184.168 101.869 184.217 101.901 184.26C101.933 184.303 101.974 184.339 102.021 184.365C102.068 184.391 102.12 184.407 102.174 184.411C102.227 184.415 102.281 184.408 102.332 184.39L103.681 184.308C103.759 184.28 103.826 184.228 103.871 184.158C103.917 184.089 103.938 184.006 103.932 183.924L102.754 168.684L95.9554 168.832Z" fill="#2F2E41"/>
<path d="M95.2931 161.388C95.2354 160.822 95.2909 160.251 95.4563 159.708C95.6218 159.165 95.8939 158.66 96.2567 158.223C96.6196 157.786 97.0659 157.426 97.5695 157.163C98.0731 156.901 98.624 156.742 99.1899 156.695C100.215 156.622 101.806 156.596 102.331 157.94C103.911 161.989 101.145 161.891 102.098 165.399C103.051 168.907 103.893 169.108 102.585 169.362C101.277 169.615 95.3964 171.111 95.6379 168.641C95.7863 167.124 95.5202 163.757 95.2931 161.388Z" fill="#CCCCCC"/>
<path d="M102.051 157.528C101.863 157.456 101.659 157.434 101.46 157.465C101.261 157.496 101.074 157.579 100.918 157.706C100.761 157.833 100.641 157.999 100.569 158.187C100.496 158.375 100.475 158.579 100.507 158.778L101.25 163.422C101.377 164.216 101.712 164.962 102.222 165.584L104.635 168.525C104.669 168.567 104.713 168.601 104.762 168.625C104.811 168.649 104.864 168.662 104.919 168.663C104.974 168.665 105.028 168.654 105.078 168.633C105.128 168.611 105.173 168.579 105.209 168.538L105.782 167.901C105.842 167.836 105.876 167.751 105.879 167.662C105.883 167.574 105.855 167.487 105.801 167.416L105.632 167.197C104.229 165.375 103.343 163.208 103.07 160.924L102.774 158.46C102.75 158.254 102.669 158.058 102.542 157.894C102.414 157.73 102.245 157.603 102.051 157.528Z" fill="#CCCCCC"/>
<path d="M107.478 170.003C107.597 169.944 107.702 169.859 107.785 169.754C107.868 169.65 107.927 169.529 107.959 169.399C107.99 169.269 107.992 169.134 107.965 169.003C107.939 168.872 107.883 168.749 107.804 168.642L108.486 161.966H107.012L106.469 168.485C106.298 168.63 106.186 168.833 106.155 169.056C106.124 169.279 106.175 169.505 106.299 169.692C106.424 169.879 106.612 170.014 106.829 170.072C107.047 170.129 107.277 170.105 107.478 170.003Z" fill="#A0616A"/>
<path d="M108.832 158.283C109.984 158.283 110.919 157.348 110.919 156.195C110.919 155.042 109.984 154.107 108.832 154.107C107.68 154.107 106.746 155.042 106.746 156.195C106.746 157.348 107.68 158.283 108.832 158.283Z" fill="#A0616A"/>
<path d="M109.224 165.854C109.141 165.854 109.06 165.826 108.993 165.776C108.927 165.725 108.879 165.654 108.857 165.573C108.506 164.523 108.074 163.502 107.564 162.52C107.408 162.199 107.322 161.849 107.311 161.492C107.3 161.136 107.364 160.781 107.5 160.451C107.635 160.122 107.839 159.824 108.097 159.579C108.356 159.333 108.664 159.145 109 159.027C109.318 158.914 109.656 158.867 109.994 158.887C110.331 158.908 110.661 158.996 110.964 159.146C111.266 159.296 111.536 159.505 111.757 159.762C111.977 160.018 112.144 160.316 112.247 160.638C112.639 161.992 112.799 163.403 112.721 164.811C112.716 164.894 112.684 164.974 112.63 165.038C112.576 165.102 112.502 165.146 112.42 165.165L109.306 165.845C109.279 165.851 109.252 165.854 109.224 165.854Z" fill="#0072FF"/>
<path d="M112.241 185.678H113.282L113.778 181.658H112.24L112.241 185.678Z" fill="#A0616A"/>
<path d="M115.536 186.891H111.771L111.771 185.134H114.026C114.224 185.134 114.421 185.173 114.604 185.249C114.787 185.325 114.954 185.436 115.094 185.576C115.234 185.717 115.345 185.883 115.421 186.067C115.497 186.25 115.536 186.446 115.536 186.645L115.536 186.891Z" fill="#2F2E41"/>
<path d="M101.826 184.327L102.738 184.829L105.108 181.546L103.761 180.805L101.826 184.327Z" fill="#A0616A"/>
<path d="M104.13 186.979L100.831 185.164L101.677 183.624L103.652 184.711C104.003 184.904 104.263 185.229 104.375 185.613C104.487 185.998 104.441 186.412 104.248 186.763L104.13 186.979Z" fill="#2F2E41"/>
<path d="M112.192 183.446C112.099 183.446 112.009 183.412 111.94 183.351C111.87 183.29 111.825 183.205 111.813 183.113L110.51 173.071C110.505 173.026 110.485 172.985 110.454 172.952C110.424 172.92 110.383 172.898 110.339 172.889C110.295 172.881 110.25 172.887 110.209 172.906C110.169 172.925 110.135 172.956 110.114 172.996L104.685 182.849C104.641 182.93 104.568 182.991 104.482 183.023C104.396 183.055 104.301 183.054 104.215 183.022L103.031 182.571C102.984 182.553 102.94 182.525 102.903 182.49C102.867 182.455 102.837 182.413 102.817 182.366C102.797 182.319 102.786 182.269 102.785 182.218C102.785 182.167 102.794 182.117 102.813 182.069L106.574 172.827C106.583 172.804 106.59 172.779 106.593 172.754C107.102 168.81 108.398 166.804 108.783 166.284C108.811 166.245 108.83 166.201 108.837 166.154C108.844 166.107 108.84 166.059 108.825 166.014L108.772 165.855C108.751 165.792 108.747 165.725 108.76 165.659C108.773 165.594 108.802 165.533 108.846 165.483C110.233 163.902 112.651 164.765 112.676 164.774L112.688 164.778L112.695 164.788C115.407 168.509 114.404 180.593 114.176 182.977C114.167 183.067 114.127 183.151 114.063 183.214C113.999 183.277 113.914 183.315 113.825 183.322L112.221 183.445C112.211 183.446 112.201 183.446 112.192 183.446Z" fill="#2F2E41"/>
<path d="M116.943 158.62C116.933 158.665 116.926 158.712 116.923 158.759L113.274 160.865L112.387 160.354L111.441 161.593L112.923 162.65C113.043 162.736 113.187 162.78 113.334 162.776C113.481 162.773 113.623 162.721 113.739 162.63L117.502 159.66C117.672 159.723 117.857 159.733 118.032 159.688C118.208 159.643 118.365 159.546 118.484 159.409C118.603 159.272 118.677 159.103 118.698 158.923C118.718 158.743 118.683 158.561 118.597 158.401C118.511 158.242 118.379 158.112 118.218 158.029C118.057 157.947 117.874 157.915 117.695 157.939C117.515 157.963 117.347 158.04 117.213 158.162C117.079 158.284 116.985 158.443 116.943 158.62Z" fill="#A0616A"/>
<path d="M113.152 160.965L111.973 162.494C111.939 162.538 111.896 162.574 111.848 162.599C111.799 162.625 111.746 162.64 111.691 162.643C111.636 162.646 111.581 162.637 111.53 162.617C111.479 162.597 111.433 162.566 111.395 162.526L110.059 161.139C109.838 160.966 109.694 160.712 109.659 160.433C109.625 160.154 109.702 159.873 109.874 159.651C110.047 159.429 110.3 159.284 110.579 159.248C110.857 159.213 111.139 159.289 111.361 159.461L113.036 160.398C113.084 160.424 113.126 160.461 113.158 160.506C113.19 160.55 113.213 160.601 113.224 160.655C113.235 160.709 113.234 160.764 113.222 160.818C113.209 160.871 113.186 160.922 113.152 160.965Z" fill="#0072FF"/>
<path d="M108.581 163.622L106.681 163.279C106.627 163.269 106.575 163.248 106.53 163.216C106.485 163.185 106.447 163.144 106.419 163.097C106.391 163.05 106.374 162.997 106.368 162.942C106.363 162.887 106.369 162.832 106.386 162.78L107.002 160.955C107.054 160.679 107.213 160.434 107.444 160.275C107.676 160.116 107.961 160.055 108.238 160.105C108.514 160.156 108.759 160.315 108.919 160.546C109.079 160.777 109.141 161.062 109.091 161.339L109.031 163.258C109.029 163.313 109.015 163.367 108.991 163.416C108.966 163.465 108.932 163.508 108.889 163.543C108.846 163.578 108.797 163.603 108.743 163.616C108.69 163.63 108.635 163.632 108.581 163.622Z" fill="#0072FF"/>
<path d="M109.162 155.714C109.699 156.082 110.403 156.459 110.951 156.068C111.122 155.937 111.246 155.755 111.305 155.548C111.364 155.34 111.355 155.12 111.278 154.918C111.015 154.168 110.295 153.838 109.606 153.585C108.73 153.189 107.756 153.065 106.81 153.229C105.885 153.465 105.068 154.361 105.235 155.301C105.369 156.057 106.082 156.686 105.981 157.447C105.879 158.213 105.018 158.616 104.258 158.753C103.497 158.89 102.647 158.934 102.101 159.48C101.404 160.177 101.578 161.423 102.233 162.158C102.95 162.845 103.858 163.297 104.838 163.454C106.108 163.755 107.482 163.912 108.689 163.414C109.895 162.915 110.834 161.573 110.485 160.315C110.301 159.794 110.018 159.312 109.653 158.897C109.288 158.482 109.014 157.994 108.848 157.466C108.789 157.243 108.783 157.009 108.829 156.783C108.876 156.557 108.974 156.345 109.117 156.164C109.171 156.105 109.205 156.031 109.214 155.952C109.223 155.873 109.207 155.793 109.168 155.723L109.162 155.714Z" fill="#2F2E41"/>
</svg>
