<svg width="16" height="16" viewBox="0 0 16 16" fill="none" xmlns="http://www.w3.org/2000/svg">
<path d="M14.6665 8.8335V5.91683V5.0835L14.2498 3.00016L12.9998 1.75016L11.3332 1.3335H7.58317L5.9165 2.5835L5.08317 4.25016L3.4165 5.0835L1.74984 5.91683L1.33317 8.00016L0.916504 10.9168L1.74984 13.4168L3.83317 14.6668L7.58317 15.0835L10.0832 13.8335L10.9165 11.7502L12.9998 10.9168L14.6665 8.8335Z" fill="#0072FF"/>
<path fill-rule="evenodd" clip-rule="evenodd" d="M4.87154 5.31533C5.28297 5.26735 5.5776 4.89493 5.52961 4.48351C5.48163 4.07208 5.10921 3.77745 4.69779 3.82543C3.22392 3.99732 2.06809 4.49295 1.32348 5.55347C0.610838 6.56844 0.37553 7.96726 0.375022 9.69759C0.375007 9.69954 0.375 9.70149 0.375 9.70344C0.375 11.6913 0.68424 13.2534 1.68215 14.2888C2.6879 15.3323 4.21283 15.6566 6.14007 15.6566C6.14638 15.6566 6.15269 15.6565 6.15897 15.6564C7.72891 15.6546 9.02247 15.4366 9.99084 14.7936C11.0038 14.1211 11.5317 13.0747 11.7591 11.7282C11.8281 11.3197 11.5529 10.9327 11.1445 10.8637C10.7361 10.7948 10.3491 11.0699 10.2801 11.4784C10.0959 12.5691 9.71803 13.1743 9.16118 13.544C8.56361 13.9407 7.62972 14.1564 6.14009 14.1564C4.30629 14.1564 3.32369 13.8302 2.76217 13.2476C2.1928 12.6569 1.87502 11.6174 1.87502 9.70322C1.87502 8.04672 2.11306 7.03929 2.5511 6.41541C2.95794 5.83597 3.63193 5.4599 4.87154 5.31533Z" fill="white"/>
<path fill-rule="evenodd" clip-rule="evenodd" d="M9.94151 0.375026C11.8546 0.378384 13.3689 0.70475 14.3695 1.74282C15.3352 2.74472 15.6559 4.23992 15.6756 6.13692C15.6917 6.19797 15.7002 6.26207 15.7002 6.32816C15.7002 8.31606 15.391 9.87816 14.3931 10.9135C13.3873 11.957 11.8624 12.2813 9.93517 12.2813C9.93123 12.2813 9.92729 12.2813 9.92336 12.2813C9.91943 12.2813 9.91549 12.2813 9.91155 12.2813C7.98431 12.2813 6.45939 11.957 5.45363 10.9135C4.45572 9.87816 4.14648 8.31606 4.14648 6.32816C4.14648 6.26207 4.15503 6.19797 4.17108 6.13692C4.19079 4.23992 4.51157 2.74472 5.47725 1.74282C6.47779 0.70475 7.99213 0.378384 9.90521 0.375026C9.90732 0.375009 9.90943 0.375 9.91155 0.375C9.91549 0.375 9.91943 0.375001 9.92336 0.375004C9.92729 0.375001 9.93123 0.375 9.93517 0.375C9.93728 0.375 9.9394 0.375009 9.94151 0.375026ZM9.92336 1.875C8.09716 1.8764 7.11756 2.20245 6.55725 2.78378C5.98788 3.3745 5.6701 4.41397 5.6701 6.32816C5.6701 8.24234 5.98788 9.28181 6.55725 9.87254C7.11756 10.4539 8.09716 10.7799 9.92336 10.7813C11.7496 10.7799 12.7292 10.4539 13.2895 9.87254C13.8588 9.28181 14.1766 8.24234 14.1766 6.32816C14.1766 4.41397 13.8588 3.3745 13.2895 2.78378C12.7292 2.20245 11.7496 1.8764 9.92336 1.875Z" fill="white"/>
</svg>
