<svg width="32" height="32" viewBox="0 0 32 32" fill="none" xmlns="http://www.w3.org/2000/svg">
<rect width="32" height="32" rx="10" fill="#0072FF" fill-opacity="0.2"/>
<path d="M19.0438 8.547V13.1168V16.5442L20.6759 15.4017H22.852L25.5721 16.5442L26.6602 17.6866V26.2551L26.1161 27.3975L25.0281 27.9687H19.0438H9.79533L7.61922 27.3975L7.0752 25.6838V6.83331L7.61922 5.69086L9.2513 5.11963L12.5155 6.26208L17.4117 7.40454L19.0438 8.547Z" fill="#0072FF"/>
<path fill-rule="evenodd" clip-rule="evenodd" d="M6 7.84172C6 6.0853 7.63983 4.78933 9.34871 5.19522L17.0702 7.02918C18.2962 7.32037 19.1618 8.41554 19.1618 9.67568V13.375C19.1618 13.6754 18.9182 13.919 18.6178 13.919C18.3172 13.919 18.0737 13.6754 18.0737 13.375V9.67568C18.0737 8.91959 17.5544 8.2625 16.8188 8.08778L9.09729 6.25382C8.07195 6.01029 7.08805 6.78787 7.08805 7.84172V25.2799C7.08805 26.1812 7.81877 26.912 8.72013 26.912H18.0737V17.7059C18.0737 17.4055 18.3172 17.1619 18.6178 17.1619C18.9182 17.1619 19.1618 17.4055 19.1618 17.7059V27.456C19.1618 27.7565 18.9182 28 18.6178 28H8.72013C7.21785 28 6 26.7822 6 25.2799V7.84172Z" fill="#0072FF"/>
<path fill-rule="evenodd" clip-rule="evenodd" d="M8.86768 10.5367C8.86768 10.2362 9.11125 9.99268 9.4117 9.99268H11.1323C11.4328 9.99268 11.6763 10.2362 11.6763 10.5367C11.6763 10.8372 11.4328 11.0807 11.1323 11.0807H9.4117C9.11125 11.0807 8.86768 10.8372 8.86768 10.5367ZM13.4854 10.5367C13.4854 10.2362 13.7291 9.99268 14.0295 9.99268H15.75C16.0505 9.99268 16.294 10.2362 16.294 10.5367C16.294 10.8372 16.0505 11.0807 15.75 11.0807H14.0295C13.7291 11.0807 13.4854 10.8372 13.4854 10.5367ZM8.86768 14.5514C8.86768 14.2509 9.11125 14.0074 9.4117 14.0074H11.1323C11.4328 14.0074 11.6763 14.2509 11.6763 14.5514C11.6763 14.8519 11.4328 15.0955 11.1323 15.0955H9.4117C9.11125 15.0955 8.86768 14.8519 8.86768 14.5514ZM13.4854 14.5514C13.4854 14.2509 13.7291 14.0074 14.0295 14.0074H15.75C16.0505 14.0074 16.294 14.2509 16.294 14.5514C16.294 14.8519 16.0505 15.0955 15.75 15.0955H14.0295C13.7291 15.0955 13.4854 14.8519 13.4854 14.5514ZM8.86768 19.1397C8.86768 18.8392 9.11125 18.5956 9.4117 18.5956H11.1323C11.4328 18.5956 11.6763 18.8392 11.6763 19.1397C11.6763 19.4402 11.4328 19.6837 11.1323 19.6837H9.4117C9.11125 19.6837 8.86768 19.4402 8.86768 19.1397ZM13.4854 19.1397C13.4854 18.8392 13.7291 18.5956 14.0295 18.5956H15.75C16.0505 18.5956 16.294 18.8392 16.294 19.1397C16.294 19.4402 16.0505 19.6837 15.75 19.6837H14.0295C13.7291 19.6837 13.4854 19.4402 13.4854 19.1397Z" fill="white"/>
<path fill-rule="evenodd" clip-rule="evenodd" d="M18.0737 17.4582C18.0737 15.5509 19.9858 14.2357 21.7669 14.9182L24.9002 16.1185C25.9524 16.5216 26.6472 17.5318 26.6472 18.6586V25.2799C26.6472 26.7822 25.4293 28.0001 23.927 28.0001H21.2724C20.9719 28.0001 20.7284 27.7564 20.7284 27.456C20.7284 27.1555 20.9719 26.912 21.2724 26.912H23.927C24.8284 26.912 25.5591 26.1813 25.5591 25.2799V18.6586C25.5591 17.9825 25.1423 17.3764 24.5109 17.1345L21.3777 15.9342C20.309 15.5248 19.1618 16.3138 19.1618 17.4582V27.456C19.1618 27.7564 18.9182 28.0001 18.6178 28.0001C18.3172 28.0001 18.0737 27.7564 18.0737 27.456V17.4582Z" fill="#0072FF"/>
<path fill-rule="evenodd" clip-rule="evenodd" d="M22.2292 7.27913C22.2292 6.97868 21.9856 6.73511 21.6852 6.73511H20.6505C20.3501 6.73511 20.1064 6.97868 20.1064 7.27913C20.1064 7.5796 20.3501 7.82316 20.6505 7.82316H21.6852C21.9856 7.82316 22.2292 7.5796 22.2292 7.27913Z" fill="white"/>
<path fill-rule="evenodd" clip-rule="evenodd" d="M19.4898 4.01867C19.1997 3.94091 18.9013 4.11314 18.8236 4.40336L18.5557 5.40284C18.4781 5.69306 18.6503 5.99137 18.9405 6.06914C19.2307 6.1469 19.529 5.97467 19.6068 5.68444L19.8746 4.68497C19.9524 4.39474 19.7801 4.09644 19.4898 4.01867Z" fill="white"/>
<path fill-rule="evenodd" clip-rule="evenodd" d="M20.5972 19.1397C20.5972 18.8392 20.8408 18.5957 21.1412 18.5957H23.5795C23.88 18.5957 24.1236 18.8392 24.1236 19.1397C24.1236 19.4401 23.88 19.6838 23.5795 19.6838H21.1412C20.8408 19.6838 20.5972 19.4401 20.5972 19.1397ZM20.5972 22.0074C20.5972 21.7069 20.8408 21.4634 21.1412 21.4634H23.5795C23.88 21.4634 24.1236 21.7069 24.1236 22.0074C24.1236 22.3078 23.88 22.5514 23.5795 22.5514H21.1412C20.8408 22.5514 20.5972 22.3078 20.5972 22.0074Z" fill="white"/>
<path fill-rule="evenodd" clip-rule="evenodd" d="M11.4319 23.4638C11.1314 23.4638 10.8879 23.7074 10.8879 24.0078V26.8823C10.8879 27.1829 10.6443 27.4264 10.3438 27.4264C10.0434 27.4264 9.7998 27.1829 9.7998 26.8823V24.0078C9.7998 23.1065 10.5305 22.3757 11.4319 22.3757H13.7293C14.6307 22.3757 15.3614 23.1065 15.3614 24.0078V26.8823C15.3614 27.1829 15.1179 27.4264 14.8174 27.4264C14.517 27.4264 14.2733 27.1829 14.2733 26.8823V24.0078C14.2733 23.7074 14.0298 23.4638 13.7293 23.4638H11.4319Z" fill="white"/>
</svg>
