<svg width="128" height="105" viewBox="0 0 128 105" fill="none" xmlns="http://www.w3.org/2000/svg">
<rect x="128" y="49.3496" width="55.5181" height="104.867" rx="10" transform="rotate(90 128 49.3496)" fill="#101828"/>
<rect x="124.916" y="52.4336" width="49.3494" height="98.6988" rx="10" transform="rotate(90 124.916 52.4336)" fill="white"/>
<rect x="121.831" y="66.3135" width="23.1325" height="3.08434" rx="1.54217" transform="rotate(90 121.831 66.3135)" fill="#101828"/>
<rect width="55.5181" height="104.867" rx="10" fill="#101828"/>
<rect x="3.08434" y="3.08398" width="49.3494" height="98.6988" rx="10" fill="white"/>
<rect x="16.9639" y="6.16895" width="23.1325" height="3.08434" rx="1.54217" fill="#101828"/>
<path d="M96 40.8061C96 42.5695 94.5445 44 92.7476 44C90.9507 44 89.4951 42.5696 89.4951 40.8062C89.4951 31.6392 83.0118 23.9818 74.3329 21.8917L75.2813 23.6402C76.136 25.2059 75.5274 27.1358 73.9422 27.9629C72.3596 28.7951 70.3881 28.2074 69.5438 26.6468L65.3837 18.9845C65.1244 18.5059 65 17.991 65 17.4812C65 16.4148 65.5478 15.3745 66.5296 14.771L75.1463 9.48599C76.6706 8.54967 78.6766 9.00741 79.6267 10.5055C80.5794 11.9933 80.1136 13.9752 78.5919 14.9063L76.8192 15.9935C87.8524 19.0927 96 28.9824 96 40.8061Z" fill="#0072FF"/>
</svg>
