<?xml version="1.0" encoding="UTF-8"?>
<svg width="88px" height="87px" viewBox="0 0 88 87" version="1.1" xmlns="http://www.w3.org/2000/svg" xmlns:xlink="http://www.w3.org/1999/xlink">
    <title>Ansar-logo</title>
    <g id="Page-1" stroke="none" stroke-width="1" fill="none" fill-rule="evenodd">
        <g id="Artboard" transform="translate(-383.000000, -395.000000)">
            <g id="Ansar-logo" transform="translate(383.000000, 395.000000)">
                <path d="M43.240475,0.0690771007 C43.5860532,-0.0892644538 44.0002389,0.0386755222 44.2517995,0.309756264 C48.7811608,4.87379323 53.2990875,9.44923079 57.8309899,14.0107343 C58.171486,14.2982826 58.3391931,14.8303102 58.0571403,15.2153968 C57.7090211,15.6650869 57.2605317,16.0235721 56.8666742,16.43146 C43.2747787,29.8182884 29.6790718,43.2013165 16.0909878,56.5919451 C15.7670082,56.9010278 15.4697094,57.2417789 15.1152376,57.5179265 C14.7633069,57.7928075 14.233505,57.700336 13.9450997,57.3773192 C9.39668072,52.7917478 4.85588483,48.1998427 0.308736405,43.6130046 C-0.100367198,43.2671866 -0.10544923,42.5983519 0.308736405,42.2550674 C14.2843253,28.489486 28.2637257,14.7264381 42.2380442,0.959590003 C42.5658352,0.658107683 42.8415355,0.283154882 43.240475,0.0690771007 M72.9665526,29.4370019 C73.3172129,29.2229241 73.7873009,29.3343966 74.0553781,29.630812 C78.603797,34.2163834 83.1458634,38.8082885 87.6917413,43.3951266 C88.1008449,43.7409446 88.1046564,44.4097793 87.6917413,44.7530638 C73.5027071,58.7301895 59.3085908,72.703515 45.120827,86.6819074 C44.7752488,87.0935955 44.100609,87.1125964 43.7486783,86.6983749 C39.2193169,82.134338 34.7026607,77.5589004 30.1707584,72.9986636 C29.8302622,72.7073152 29.6587436,72.1765543 29.9446079,71.7914676 C30.2711285,71.3645788 30.6954782,71.0250945 31.0690076,70.6400078 C44.9391443,56.980832 58.8092811,43.3216561 72.6781473,29.6624803 C72.7658124,29.5776092 72.862371,29.502872 72.9665526,29.4370019" id="Fill-1" fill="#C6393B"></path>
                <path d="M14.0032149,14.0025277 C18.4553176,14.0063192 22.9086905,13.9962085 27.3607932,14.0088469 C22.9150416,18.3830307 18.4718304,22.7622699 14.0095659,27.1225513 C13.9943234,22.7496314 14.0070255,18.3754476 14.0032149,14.0025277 M57.501719,14 C63.0004787,14.0063192 68.4992383,14.0012638 73.9992682,14.0025277 C73.9967277,19.2892109 74.004349,24.5746303 73.9941873,29.8613136 C73.6486889,29.5402957 73.3019203,29.1712516 72.8192387,29.0726714 C72.2044547,28.9121624 71.5299707,29.1219615 71.0968275,29.5769474 C69.8393149,30.8117285 68.580532,32.043982 67.3281003,33.2838185 C67.195998,33.473396 66.9546572,33.4455913 66.7539632,33.4482642 C57.9844006,33.4405359 49.2161082,33.4482642 40.4478158,33.4455913 C45.9186307,28.066647 51.3907158,22.6902304 56.862801,17.31255 C57.3404017,16.8183848 57.986941,16.3697182 58.0758561,15.6341576 C58.193986,15.0262459 57.9043771,14.4398197 57.501719,14 M15.6456025,57.8201963 C16.7684724,56.7433964 17.8443443,55.6097232 18.9964291,54.5670472 C27.8879323,54.5405064 36.781976,54.5582003 45.6734792,54.5582003 C39.9257575,60.2227746 34.1564421,65.869655 28.4099906,71.536757 C27.7393172,72.2015419 27.8244216,73.3112019 28.4138012,74 C23.609849,73.9898892 18.8071671,73.9962085 14.0032149,73.9962085 C14.0044851,69.0798332 13.9994042,64.1634579 14.0057553,59.2470826 C13.9600276,59.033492 14.1975577,58.9943127 14.3372813,58.9235371 C14.8758524,58.6960442 15.2238912,58.2018789 15.6456025,57.8201963 M58.7566912,73.9962085 C63.8375502,69.0128491 68.9031666,64.0117959 73.9916469,59.0360197 C74.0081597,64.0231706 73.9941873,69.0103214 73.9992682,73.9962085 C68.9184092,73.9949446 63.8375502,73.9949446 58.7566912,73.9962085" id="Fill-2" fill="#FFCC29"></path>
            </g>
        </g>
    </g>
</svg>