<?xml version="1.0" encoding="UTF-8"?>
<svg width="86px" height="87px" viewBox="0 0 86 87" version="1.1" xmlns="http://www.w3.org/2000/svg" xmlns:xlink="http://www.w3.org/1999/xlink">
    <title>Bank-Ayandeh-logo</title>
    <g id="Page-1" stroke="none" stroke-width="1" fill="none" fill-rule="evenodd">
        <g id="Artboard" transform="translate(-534.000000, -395.000000)">
            <g id="Bank-Ayandeh-logo" transform="translate(534.000000, 395.000000)">
                <path d="M7.96443035,0 L77.8332727,0 C79.037598,0.565903414 80.2509108,1.11822515 81.4102986,1.77467311 C83.3066615,2.86573489 84.6008618,4.78980649 85.355812,6.81800433 C86.2141185,9.12236303 85.9534809,11.6259197 85.9894309,14.0344047 C85.9939247,34.8596503 85.9804434,55.6894231 85.9894309,76.5146688 C85.9984184,80.2269952 84.2099055,84.2335913 80.7047796,85.8135937 C78.2556853,87.1083807 75.4246221,86.836747 72.7598277,86.8548559 C54.6320357,86.836747 36.5087374,86.8548559 18.3854392,86.8458015 C14.7320195,86.8910738 11.0381561,87.2804153 7.41619271,86.6149129 C3.23251042,85.4966877 -0.119827907,81.4221832 0.0239721284,76.9809732 C-0.0164716316,54.7839777 0.0374533818,32.5824549 0.000725862771,10.3854594 C-0.0209653827,8.4206428 0.441890982,6.4150811 1.60577252,4.8079154 C3.13814165,2.54430175 5.56476725,1.15444296 7.96443035,0 M7.40720521,3.85267044 C4.21664192,5.49605395 2.28432894,9.08614521 2.36971021,12.6581276 C2.40566022,24.139176 2.37869771,35.6247517 2.38319146,47.1058002 C3.59650426,45.4397805 4.46379823,43.5655084 5.53331099,41.8089442 C7.95544284,37.8974198 10.786506,34.1715117 14.4084694,31.3057768 C19.1493769,27.4078341 25.5305035,25.4656536 31.606055,26.5702971 C36.4862687,27.8017029 40.8991323,30.3188413 45.3479459,32.6005639 C51.4549536,35.8873309 57.4630989,39.4457316 63.9745442,41.8768526 C67.6549264,43.0675134 71.7756962,44.1812113 75.5324721,42.6645902 C78.9252542,41.3924393 81.0193422,38.0332366 82.0034737,34.674034 C82.7719051,31.7856629 83.4819178,28.8339107 83.4459678,25.8187773 C83.4594491,21.1285699 83.4639428,16.4383624 83.4504616,11.7436276 C83.4864116,7.04436569 79.2667793,2.76160866 74.5887844,2.80688093 C54.6589982,2.83857152 34.7247182,2.81593539 14.7904383,2.82046261 C12.3143814,2.85215321 9.63610576,2.5035567 7.40720521,3.85267044 M79.6712169,46.784367 C76.9839537,51.0444879 73.5327528,54.8971584 69.2591955,57.5818042 C64.8643069,60.2528683 59.5077556,61.5521825 54.4208294,60.5788286 C48.938453,59.2930961 44.044758,56.3956706 39.0746693,53.8513689 C32.1318238,50.1797875 25.2518909,45.987575 17.4821952,44.3713549 C13.7928255,43.5157089 9.45635572,44.3034465 6.89941133,47.2959437 C3.92005434,50.6189286 3.22801667,55.2593365 2.48654774,59.510403 C2.23489768,64.4224446 2.47306649,69.3480679 2.36521646,74.269164 C2.17198516,78.0765622 4.39189821,81.9337599 7.85658032,83.5273439 C10.0045934,84.6093512 12.4716627,84.2879181 14.7904383,84.3150814 C33.664193,84.3105542 52.5379476,84.3105542 71.4117023,84.3196086 C73.4069278,84.2833908 75.4695596,84.4961705 77.3973788,83.8397226 C81.041811,82.4996633 83.6886304,78.6605745 83.4639428,74.7218867 C83.4100178,63.3721279 83.5403366,52.022369 83.4010303,40.6726102 C81.9810049,42.5966818 81.0373172,44.8240776 79.6712169,46.784367" id="Fill-2" fill="#CF9D2A"></path>
                <path d="M8.04596306,3.04359641 C10.2714647,1.7033747 12.9456562,2.0496736 15.4179373,2.01819188 C35.321819,2.01369449 55.2257007,2.03618143 75.1250955,2.00469971 C79.7959568,1.95972583 84.0091545,6.21425514 83.9732593,10.8825442 C83.98672,15.5463358 83.9822331,20.2056301 83.9687724,24.8649243 C84.0046676,27.8601849 83.2957376,30.7924821 82.528478,33.6618158 C81.5458472,36.9988779 79.4549525,40.33594 76.0673441,41.5997061 C72.316297,43.1063312 68.2018111,41.9999737 64.5270412,40.8171606 C58.0255253,38.4020631 52.026542,34.8671159 45.928847,31.602012 C41.4868175,29.3353283 37.0806832,26.8347804 32.2079114,25.6114908 C26.1416247,24.5141281 19.7702288,26.4435076 15.0365509,30.3157589 C11.4201107,33.1626057 8.59336468,36.8639563 6.17492639,40.7496997 C5.10704455,42.4946864 4.24107314,44.3566051 3.02961055,46.011644 C3.02512365,34.6062674 3.05204504,23.1963933 3.01614986,11.7910166 C2.93089878,8.24257726 4.86026513,4.67614835 8.04596306,3.04359641 M80.1997776,45.6923295 C81.5637948,43.7449603 82.5060435,41.5322453 83.9239034,39.6208553 C84.0629972,50.8958077 83.9328772,62.1707601 83.98672,73.4457125 C84.2110649,77.3584403 81.5682817,81.1722256 77.929407,82.5034525 C76.0045276,83.1555738 73.9450412,82.9441966 71.9528582,82.9801757 C53.1078846,82.9711809 34.2629109,82.9711809 15.4179373,82.9756783 C13.1026977,82.948694 10.6393904,83.2680085 8.49465291,82.1931327 C5.03525418,80.6100521 2.81872632,76.7782773 3.01166296,72.9959737 C3.11934852,68.1073127 2.8815429,63.2141542 3.13280922,58.3344879 C3.87314747,54.1114403 4.56412983,49.5016173 7.53894353,46.2005343 C10.0919888,43.2277607 14.4218458,42.4452151 18.1055895,43.2952215 C25.863437,44.9007891 32.7328785,49.0653707 39.6651367,52.7127526 C44.6276464,55.2402848 49.5138789,58.1186133 54.987895,59.3958716 C60.0670641,60.36281 65.4154471,59.0720596 69.8036338,56.4186005 C74.0706743,53.7516493 77.5166123,49.9243718 80.1997776,45.6923295" id="Fill-3" fill="#522D1D"></path>
            </g>
        </g>
    </g>
</svg>