<svg width="88" height="87" viewBox="0 0 88 87" fill="none" xmlns="http://www.w3.org/2000/svg">
<path d="M29.3223 30.5747C30.5198 30.5747 31.4907 29.6038 31.4907 28.4062C31.4907 27.2086 30.5198 26.2378 29.3223 26.2378C28.1247 26.2378 27.1538 27.2086 27.1538 28.4062C27.1538 29.6038 28.1247 30.5747 29.3223 30.5747Z" fill="black"/>
<path d="M21.8746 38.9182C22.2958 38.9547 22.6623 38.857 22.9742 38.6253C23.4973 38.2377 24.0307 37.9499 24.5743 37.7619C24.6151 37.7473 24.6486 37.7233 24.6748 37.6897C24.6879 37.6723 24.7025 37.6577 24.7185 37.646C24.7302 37.6358 24.7433 37.6293 24.7579 37.6264C25.1907 37.501 25.6352 37.3939 26.0913 37.305C26.1263 37.2977 26.1576 37.2824 26.1853 37.2591C26.1999 37.246 26.2137 37.2322 26.2268 37.2176C26.2452 37.1977 26.2706 37.1846 26.299 37.1804C28.2794 36.8802 30.1921 37.1404 32.037 37.9608C32.2717 38.0657 32.4881 38.1896 32.6863 38.3324C32.9617 38.5291 33.2874 38.6756 33.5431 38.8723C35.0704 40.0484 36.2056 41.4503 36.9488 43.0781C38.0024 45.3835 38.3267 47.7982 37.9216 50.3222C37.6694 51.8917 37.1302 53.325 36.304 54.622C33.7377 58.6528 28.7406 60.5983 24.1524 59.1709C23.3283 58.9129 22.5064 58.6244 21.7697 58.1653C19.1772 56.5587 17.3585 54.1126 16.6219 51.1594C16.3974 50.2647 16.2911 49.0187 16.3027 47.4215C16.3362 42.7188 16.3355 37.8522 16.3005 32.8217C16.2976 32.3845 16.3224 31.9466 16.3748 31.5079C16.455 30.8638 16.8069 30.294 17.4306 29.7985C17.6143 29.6528 17.8139 29.553 18.0296 29.4991C18.375 29.4116 18.6504 29.2215 19.0176 29.2324C19.9124 29.2586 20.7569 29.2593 21.5511 29.2346C21.6983 29.2302 21.7712 29.3016 21.7697 29.4488L21.7588 38.7915C21.7588 38.8687 21.7974 38.911 21.8746 38.9182ZM27.1462 54.4664C27.8836 54.4587 28.6122 54.2913 29.2902 53.9737C29.9682 53.6562 30.5825 53.1947 31.0979 52.6156C31.6133 52.0366 32.0198 51.3513 32.2942 50.5989C32.5685 49.8465 32.7054 49.0417 32.6969 48.2305C32.6884 47.4193 32.5347 46.6176 32.2447 45.8711C31.9546 45.1246 31.5339 44.448 31.0064 43.8799C30.479 43.3117 29.8552 42.8632 29.1707 42.5599C28.4861 42.2566 27.7543 42.1045 27.0168 42.1122C26.2794 42.1199 25.5509 42.2874 24.8729 42.6049C24.1948 42.9225 23.5806 43.384 23.0651 43.963C22.5497 44.5421 22.1432 45.2274 21.8689 45.9798C21.5945 46.7322 21.4577 47.5369 21.4662 48.3481C21.4747 49.1593 21.6283 49.961 21.9184 50.7075C22.2084 51.454 22.6292 52.1306 23.1566 52.6988C23.6841 53.2669 24.3078 53.7154 24.9924 54.0187C25.6769 54.322 26.4088 54.4742 27.1462 54.4664Z" fill="#307EE1"/>
<path d="M46.4424 59.2846C46.2252 59.4639 45.9469 59.5652 45.6073 59.5885C44.5727 59.6599 43.53 59.6599 42.4793 59.5885C42.4526 59.5868 42.4275 59.5748 42.4092 59.5549C42.391 59.535 42.3808 59.5087 42.3809 59.4814C42.3649 50.6896 42.362 41.5983 42.3722 32.2075C42.3743 30.9615 42.888 30.0741 44.0051 29.5145C44.0526 29.4914 44.0951 29.4579 44.1297 29.4161C44.2215 29.3068 44.3388 29.2522 44.4816 29.2522C45.5352 29.2522 46.5961 29.2492 47.6643 29.2434C47.7194 29.2434 47.7722 29.2653 47.8111 29.3042C47.8501 29.3432 47.872 29.396 47.872 29.4511C47.8705 38.6932 47.872 47.7429 47.8763 56.6003C47.8763 57.5388 47.5885 58.3061 47.0129 58.9021C46.8293 59.0901 46.6347 59.1251 46.4424 59.2846Z" fill="#307EE1"/>
<path d="M60.5785 54.3882C61.3785 54.4975 61.9352 54.5128 62.2485 54.4341C63.649 54.0829 64.5911 53.3346 65.0749 52.1891C65.3343 51.5771 65.4575 50.6808 65.4444 49.5004C65.405 46.1953 65.4057 43.0811 65.4465 40.1578C65.4662 38.656 66.6488 37.5128 68.1505 37.5041C69.0715 37.4982 69.9481 37.507 70.7802 37.5303C70.8077 37.5309 70.8338 37.5422 70.853 37.5618C70.8722 37.5814 70.8829 37.6078 70.8829 37.6352C70.8771 41.6938 70.8757 45.9046 70.8786 50.2677C70.88 51.9902 70.4552 53.5677 69.6042 55.0002C68.45 56.9443 66.8229 58.2966 64.723 59.0573C62.5968 59.8282 60.4896 59.8392 58.4013 59.0901C56.1556 58.2842 54.4418 56.8116 53.26 54.6723C52.5401 53.371 52.1794 51.9093 52.1779 50.2874C52.175 46.0321 52.1728 41.8184 52.1714 37.6461C52.1714 37.6162 52.183 37.5873 52.2038 37.5657C52.2246 37.5441 52.2529 37.5314 52.2829 37.5303C53.1456 37.5011 54.0076 37.4866 54.8688 37.4866C56.4624 37.4866 57.6231 38.7369 57.6253 40.3152C57.6282 43.7558 57.6318 47.1637 57.6362 50.5388C57.6377 51.9538 58.2614 53.0912 59.5074 53.951C59.7238 54.0996 60.0713 54.1281 60.2768 54.2701C60.3701 54.3357 60.4706 54.3751 60.5785 54.3882Z" fill="#307EE1"/>
</svg>
