<?xml version="1.0" encoding="UTF-8"?>
<svg width="92px" height="87px" viewBox="0 0 92 87" version="1.1" xmlns="http://www.w3.org/2000/svg" xmlns:xlink="http://www.w3.org/1999/xlink">
    <title>Eghtesad-logo</title>
    <g id="Page-1" stroke="none" stroke-width="1" fill="none" fill-rule="evenodd">
        <g id="Artboard" transform="translate(-950.000000, -263.000000)" fill="#701E72">
            <path d="M965.634136,263.028164 C970.832437,262.711938 976.091797,265.078084 979.332062,269.14741 C982.584816,273.076654 983.762968,278.568996 982.508493,283.499622 C981.344218,288.288778 977.874983,292.439935 973.392732,294.480146 C970.496615,295.821332 967.199454,296.302605 964.043838,295.81301 C958.946839,295.076537 954.307778,291.782518 951.925108,287.220823 C950.294567,284.219452 949.695084,280.691038 950.144696,277.312415 C950.54574,274.147383 951.933434,271.132143 954.01775,268.720228 C956.908316,265.354088 961.197678,263.237594 965.634136,263.028164 M997.514249,263.832254 C997.663383,263.547831 997.818198,263.264808 998,263 C992.729171,287.05271 987.441298,311.102619 982.169049,335.155329 C981.072557,340.102619 980.011574,345.056914 978.898039,350 C969.599166,349.992994 960.300293,349.994396 951,349.998599 C966.52274,321.285825 982.008552,292.553435 997.514249,263.832254 M1001.15944,263 C1004.43915,263.00701 1007.72029,263.001402 1011,263.002804 C1005.61648,287.402114 1000.2572,311.807032 994.880812,336.207744 C993.881647,340.804696 992.839723,345.394637 991.860513,349.995794 C988.573675,349.994392 985.286838,349.985981 982,350 C988.389806,321.000935 994.753957,291.99486 1001.15944,263 M1013.07549,263 C1022.38366,263.002802 1031.69183,262.997198 1041,263.002802 C1025.33191,292.000467 1009.66098,320.998132 994,350 C994.396606,347.834385 994.932523,345.695385 995.38599,343.540977 C1001.27823,316.693518 1007.1861,289.84886 1013.07549,263 M1013.76642,321.935694 C1016.96683,318.601168 1021.65919,316.795197 1026.2669,317.018516 C1029.86007,317.183578 1033.38108,318.565104 1036.12349,320.892614 C1038.39959,322.791519 1040.12886,325.329865 1041.10592,328.124819 C1042.18428,331.262381 1042.29254,334.724519 1041.40153,337.921725 C1040.06086,342.837516 1036.29281,347.009835 1031.53938,348.849096 C1027.95592,350.280556 1023.8659,350.380426 1020.21582,349.127898 C1016.48941,347.883692 1013.27096,345.238541 1011.27521,341.862403 C1009.7791,339.347637 1008.98246,336.423685 1009.00051,333.499732 C1008.96581,329.216447 1010.71729,324.94842 1013.76642,321.935694" id="Eghtesad-logo"></path>
        </g>
    </g>
</svg>