<?xml version="1.0" encoding="UTF-8"?>
<svg width="100px" height="87px" viewBox="0 0 100 87" version="1.1" xmlns="http://www.w3.org/2000/svg" xmlns:xlink="http://www.w3.org/1999/xlink">
    <title>Gardeshgari-logo</title>
    <g id="Page-1" stroke="none" stroke-width="1" fill="none" fill-rule="evenodd">
        <g id="Artboard" transform="translate(-385.000000, -263.000000)" fill-rule="nonzero">
            <g id="Gardeshgari-logo" transform="translate(385.000000, 263.000000)">
                <path d="M79.7284498,76.4689922 L49.3963807,76.4689922 C48.0659058,76.4689922 29.5736842,45.3766345 29.5736842,43.6907196 C29.5736842,42.0048047 37.6702785,31.1604552 36.8602744,31.0650903 C35.6021829,30.9186371 24.2517848,31.0650903 24.2517848,31.0650903 C24.2517848,31.0650903 8,57.5050041 8,58.4756824 C8,59.4463606 23.7588886,86.9931882 24.2517848,86.9931882 L36.5776347,86.9931882 C37.2669999,86.9931882 20.6774262,59.9776793 20.8876825,59.0308422 C21.0496834,58.2985761 22.8489266,55.1787821 23.6210156,54.2625981 C24.3931046,53.346414 42.8336239,87 43.9986511,87 L74.7546798,87 C74.7546798,87 81.4070541,76.4689922 79.7284498,76.4689922 Z" id="Path" fill="#B01117"></path>
                <path d="M62.8359503,2.13451028 C63.6843502,3.57679082 77.4820113,26.9821606 78.1518007,28.1229668 C78.82159,29.263773 61.1322809,60.9562607 59.6621791,61.8195735 C58.1920773,62.6828863 44.679506,61.2680125 45.0058136,62.0114208 C45.5141666,63.1625045 51.3739649,72.8131085 51.3739649,72.8131085 C51.3739649,72.8131085 82.5689757,73.2618942 83.410506,72.7685726 C84.2520362,72.2752509 100.241111,44.7280352 99.9972387,44.3066563 L93.769915,33.7447777 C93.4264332,33.141829 78.3132371,61.1515338 77.3824016,61.4427306 C76.6645248,61.6722622 73.0442273,61.7270757 71.8523457,61.5352284 C70.6604641,61.3433811 90.609883,28.383331 90.0225293,27.3864102 L74.4902854,1.03481419 C74.4902854,1.03481419 61.9875504,0.695655581 62.8359503,2.13451028 Z" id="Path" fill="#B01117"></path>
                <path d="M6.62471619,52.8708082 L21.9177981,26.9698242 C22.5864418,25.8328578 58.8955099,25.8362721 60.3596682,26.6932648 C61.8238265,27.5502576 67.1524026,39.9749452 67.6427413,39.3262256 C68.4073954,38.3258317 74,28.5574801 74,28.5574801 C74,28.5574801 59.2555489,1.24297029 58.4051712,0.758137742 C57.5547936,0.273305193 25.7102081,-0.266156376 25.4598953,0.146975585 L19.2466521,10.6767191 C18.9037579,11.274224 50.7106251,10.8201203 51.427274,11.4824972 C51.9793337,11.9946442 53.7829572,15.115327 54.1944303,16.2420505 C54.6059033,17.368774 16.0920254,16.0167058 15.5056763,17.0136854 L0,43.2765866 C0,43.2765866 5.77776748,54.3082343 6.62471619,52.8708082 Z" id="Path" fill="#B01117"></path>
                <path d="M62,44 C62,37.372583 56.627417,32 50,32 C43.372583,32 38,37.372583 38,44 C38,50.627417 43.372583,56 50,56 C53.1825979,56 56.2348448,54.7357179 58.4852814,52.4852814 C60.7357179,50.2348448 62,47.1825979 62,44 Z" id="Path" fill="#00AEC5"></path>
            </g>
        </g>
    </g>
</svg>