<?xml version="1.0" encoding="UTF-8"?>
<svg width="67px" height="71px" viewBox="0 0 67 71" version="1.1" xmlns="http://www.w3.org/2000/svg" xmlns:xlink="http://www.w3.org/1999/xlink">
    <title>ghavamin</title>
    <g id="Page-1" stroke="none" stroke-width="1" fill="none" fill-rule="evenodd">
        <g id="Artboard" transform="translate(-265.000000, -820.000000)">
            <g id="ghavamin" transform="translate(265.000000, 820.000000)">
                <path d="M0.567873085,0.553571032 C1.0674192,0.086211882 1.79016676,0.00453746747 2.44610572,0 C14.5414988,0.00302497831 26.6368918,0 38.7322849,0.00151248916 C39.6478663,0 40.5892602,0.086211882 41.4304412,0.476434085 C42.3262838,0.887831135 43.0490313,1.57752619 43.7323011,2.27024623 C45.9627972,4.53746747 48.2084772,6.78956383 50.4526387,9.04166018 C50.7912368,9.38953269 51.1951252,9.69808048 51.419845,10.1397273 C51.4927271,10.6312863 50.8170493,10.6176739 50.4845246,10.6751485 C48.3891641,10.7235481 46.2907667,10.6796859 44.1954061,10.6932983 C34.2272596,10.6872484 24.2591131,10.7084232 14.2924849,10.6842234 C13.8096409,10.6857359 13.2903559,10.8853845 13.0625993,11.3345937 C12.6966704,12.0303388 12.7209645,12.8410329 12.7072991,13.60484 C12.7103358,20.8647879 12.7072991,28.1262484 12.7088174,35.3877088 C12.7194461,40.5377344 15.4221576,45.5516359 19.6083236,48.541827 C21.9542164,50.2312774 24.7738429,51.256745 27.6633148,51.4533686 C30.8488703,51.6394048 34.1285651,51.1342334 36.9785592,49.658044 C40.0988244,48.0608555 42.5540404,45.2869503 43.9145064,42.0834983 C44.4261995,41.1593674 44.915117,40.2170867 45.2142373,39.200694 C44.4793427,43.8773105 42.1881114,48.402678 38.5090834,51.4594186 C36.5382298,53.1125692 34.2075207,54.3134856 31.7523047,55.0727552 C28.8567593,55.9757112 25.8063395,56.290309 22.781732,56.2630842 C19.8558191,56.2267844 16.9162408,55.8441247 14.1391288,54.9048689 C11.4576746,54.0094753 8.9569073,52.5574857 6.91013479,50.6093997 C3.5484476,47.422585 1.53507938,43.0484664 0.622534666,38.5624236 C0.23079334,36.6718121 0.0303675447,34.7433884 0,32.8134523 C0.00151837723,22.6782624 0,12.5415601 0.00151837723,2.40637025 C0.0182205268,1.76204987 0.0789556162,1.03151761 0.567873085,0.553571032 M36.1616722,15.6512378 C39.5157675,14.7603817 43.0262557,14.5743455 46.4790455,14.8193688 C50.9643319,15.1490914 55.489096,16.5345315 59.0056577,19.4082609 C62.5586604,22.2653529 64.863557,26.4231856 66.0084135,30.7806668 C66.6734627,33.3186236 67.0378732,35.9443048 66.9968771,38.5684735 C66.9983954,48.5977891 66.9938403,58.6255922 66.9983954,68.6549078 C67.0014322,69.2720034 66.9179214,69.957161 66.4608899,70.4184702 C65.9598254,70.9024667 65.2158206,70.9811161 64.5507713,70.996241 C53.1614237,70.9947286 41.7720761,70.996241 30.3812101,70.996241 C29.0921078,70.9659913 27.784785,71.0930403 26.5139033,70.8177673 C25.4495208,70.5893815 24.5293842,69.9420361 23.7701956,69.1888165 C21.1479581,66.5601103 18.5424228,63.9147668 15.9171485,61.2905981 C15.7531638,61.0969995 15.4069738,60.7672769 15.6833184,60.5328411 C16.1251662,60.2651305 16.6748188,60.3105051 17.1728465,60.2878178 C28.662407,60.3044552 40.1504492,60.2742054 51.6400097,60.2984052 C52.3005038,60.2863053 53.0414719,60.4239418 53.6245288,60.0337196 C54.233398,59.5240108 54.2683207,58.6513045 54.2941331,57.9192598 C54.2956515,50.3553015 54.2971699,42.7913432 54.2926147,35.227385 C54.1696262,29.7128495 50.9385194,24.4282124 46.1799252,21.6452323 C43.8036648,20.2431549 41.0478101,19.4959852 38.2874003,19.4914478 C35.2369805,19.4672479 32.1334174,20.1009809 29.4762572,21.6316199 C26.5989324,23.2696457 24.359326,25.9255766 23.0747788,28.9535799 C22.5554938,29.9019106 22.0453191,30.8653662 21.7568274,31.9120087 C22.5236079,27.2111924 24.7647327,22.6449877 28.4680548,19.5564848 C30.6864039,17.6840232 33.3602662,16.39387 36.1616722,15.6512378" id="Fill-2" fill="#095F3C"></path>
                <path d="M27.1016148,25.6887477 C29.7116461,24.1790005 32.9104412,23.6584491 35.8975286,24.220526 C38.7069051,24.7366282 41.3030287,26.2241296 43.1218605,28.3404453 C45.8215199,31.4088805 46.7085288,35.819478 45.4135576,39.6353716 C45.1091312,40.6319828 44.6115409,41.5559244 44.0907709,42.4620693 C43.1388589,43.6974519 42.0895923,44.8898259 40.7606243,45.7677929 C38.215496,47.528176 34.9641604,48.2993632 31.858084,47.8944899 C28.887995,47.5326252 26.0863451,46.0866492 24.1160727,43.9258419 C21.2696087,40.8796525 20.2759733,36.3934193 21.5400383,32.4885426 C21.8336475,31.4622704 22.3528722,30.5175661 22.8813687,29.5876923 C24.0109915,28.0453179 25.3878642,26.6408673 27.1016148,25.6887477" id="Fill-3" fill="#E4E418"></path>
            </g>
        </g>
    </g>
</svg>