<?xml version="1.0" encoding="UTF-8"?>
<svg width="67px" height="87px" viewBox="0 0 67 87" version="1.1" xmlns="http://www.w3.org/2000/svg" xmlns:xlink="http://www.w3.org/1999/xlink">
    <title>Bank-Hekmat-logo</title>
    <g id="Page-1" stroke="none" stroke-width="1" fill="none" fill-rule="evenodd">
        <g id="Artboard" transform="translate(-267.000000, -525.000000)" fill="#015BAA">
            <path d="M299.705056,525.139388 C302.510635,524.699601 305.432989,525.327868 307.930165,526.638253 C312.122066,528.903006 314.98753,533.48038 314.990524,538.267175 C315.21509,543.876702 311.424414,549.279798 306.169566,551.164598 C302.771132,552.430108 298.845716,552.259578 295.593998,550.641043 C292.551876,549.163119 290.102608,546.500464 288.886956,543.347163 C287.563513,539.888702 287.716218,535.876769 289.378008,532.558921 C291.303288,528.570922 295.309548,525.692861 299.705056,525.139388 M275.600958,546.124593 C277.53783,545.888525 279.580067,545.944732 281.392979,546.672607 C284.609736,547.822033 287.098229,550.500278 287.761413,553.586021 C288.793379,557.630087 286.38546,562.073221 282.319579,563.928039 C278.693755,565.712599 273.896511,565.226412 270.772724,562.787045 C267.357632,560.291471 266.071549,555.769648 267.701621,552.082494 C268.959813,549.030475 272.0805,546.717573 275.600958,546.124593 M321.944214,546.095666 C325.071816,545.691279 328.3823,546.578683 330.666782,548.572534 C333.661097,551.063443 334.820386,555.211214 333.391422,558.676582 C332.433614,561.111326 330.332014,563.147301 327.725163,564.194774 C324.458074,565.537113 320.434658,565.17485 317.505437,563.304562 C314.284844,561.288246 312.462218,557.561711 313.141053,554.048602 C313.751695,550.038435 317.527135,546.654506 321.944214,546.095666 M299.541805,560.105164 C302.652938,559.644157 305.935599,560.723589 308.129954,562.857156 C310.889163,565.465786 311.767496,569.65421 310.28882,573.075225 C309.031946,576.035233 306.127827,578.314973 302.81855,578.88561 C300.780935,579.118925 298.619111,579.051461 296.755979,578.149122 C293.911007,576.870107 291.743268,574.283965 291.169542,571.332391 C290.791001,569.300021 291.030547,567.1271 292.047875,565.28588 C293.458532,562.528266 296.356737,560.557739 299.541805,560.105164 M279.930636,572.079721 C282.690137,571.642159 285.64209,573.038633 287.035809,575.462291 C288.885824,578.425919 287.976337,582.649477 285.139234,584.654193 C283.140225,586.159282 280.321746,586.401337 278.052685,585.383463 C275.619108,584.269387 273.939816,581.675049 274.001897,578.984509 C273.918088,575.632972 276.621717,572.539006 279.930636,572.079721 M319.204648,572.248206 C322.594256,571.259305 326.511067,573.323907 327.587182,576.690511 C328.781143,579.802914 327.289467,583.615918 324.346432,585.153519 C321.704212,586.660121 318.128532,586.09592 316.013516,583.935218 C314.310959,582.202316 313.575976,579.545614 314.245834,577.198911 C314.838163,574.805709 316.829131,572.865107 319.204648,572.248206 M298.854509,585.36015 C302.901101,583.901935 307.729702,587.066046 307.953134,591.354005 C308.387584,594.830812 305.746748,598.282851 302.305284,598.874187 C299.673758,599.400506 296.772252,598.242603 295.270297,596.016579 C293.762134,593.923684 293.569735,590.963909 294.83895,588.710021 C295.710953,587.165118 297.129122,585.87099 298.854509,585.36015 M283.073669,599.270073 C284.964279,598.481434 287.40209,599.50296 287.872437,601.25755 C288.511862,603.080948 286.64892,605.031375 284.481636,604.999617 C282.855404,604.96786 281.327545,603.91193 281.057019,602.51461 C280.758825,601.194036 281.659555,599.807301 283.073669,599.270073 M315.398249,598.191288 C317.341834,597.469545 319.665485,598.879104 319.928131,600.927128 C320.453425,603.265083 318.003086,605.544436 315.710335,604.88438 C314.152995,604.566689 312.9819,603.095443 313.00044,601.516243 C312.97572,600.038828 313.995407,598.638523 315.398249,598.191288 M300.605,606.0984 C302.157544,605.74278 303.973494,606.37175 304.642854,607.65092 C305.563225,609.171594 304.630459,611.278775 302.696751,611.806897 C300.685571,612.510175 298.197162,611.201812 298.036019,609.349404 C297.775713,607.916308 298.95639,606.419519 300.605,606.0984" id="Bank-Hekmat-logo"></path>
        </g>
    </g>
</svg>