<?xml version="1.0" encoding="UTF-8"?>
<svg width="86px" height="86px" viewBox="0 0 86 86" version="1.1" xmlns="http://www.w3.org/2000/svg" xmlns:xlink="http://www.w3.org/1999/xlink">
    <title>Iranzamin-logo</title>
    <g id="Page-1" stroke="none" stroke-width="1" fill="none" fill-rule="evenodd">
        <g id="Artboard" transform="translate(-666.000000, -395.000000)">
            <g id="Iranzamin-logo" transform="translate(666.000000, 395.000000)">
                <path d="M25.2372342,5.79556934 C29.9517445,2.53982424 35.518977,0.442696418 41.2641155,0.0789089384 C45.7577769,-0.135083697 50.3465261,0.0208252231 54.6745509,1.37203586 C63.5974595,3.76875338 71.7167235,9.15831075 77.2348784,16.5563419 C75.3576629,15.4710935 73.6307473,14.129054 71.6707134,13.1783153 C66.8917888,10.7968829 61.6773011,9.19193817 56.3278502,8.84649291 C53.3371881,8.35430985 50.328122,8.89846255 47.355864,9.23167965 C43.2946983,10.0142813 39.3010142,11.3593779 35.7704993,13.5390457 C31.6909296,16.2047825 28.0438555,19.6286647 25.5255647,23.8290344 C20.9490849,31.3218337 19.7712242,40.6366274 21.801807,49.126021 C22.3447272,51.4891111 23.194382,53.76049 24.0317674,56.028812 C21.0042971,52.4673631 18.473737,48.477929 16.7192152,44.1399926 C14.259204,38.0992862 13.3267309,31.4380011 14.1334428,24.9662524 C14.8143935,20.0383077 16.654801,15.2295875 19.6853385,11.2584956 C21.3631766,9.27753522 23.1176983,7.31797409 25.2372342,5.79556934 M12.0629844,12.5363374 C13.2960574,11.4174616 14.3941672,10.1243346 15.8419543,9.27142114 C15.1518016,10.4942362 14.2653387,11.5978268 13.6150614,12.8420411 C12.0967252,15.9388203 10.5845238,19.087569 9.82995678,22.4717097 C9.17047745,25.0426784 8.67356745,27.6747878 8.58154708,30.3313535 C8.60608585,32.9848622 8.45885325,35.6750553 9.05698566,38.2796514 C10.2900586,45.6776825 14.0567591,52.6935839 19.7988303,57.57873 C24.9857119,61.8463546 31.4455419,64.6588292 38.1906351,65.0868145 C39.7764528,65.2243812 41.3776073,65.3833472 42.963425,65.1143279 C46.3467073,64.8636508 49.7238549,64.2430721 52.9108271,63.0599986 C54.0610817,62.6717548 55.1469221,62.1123169 56.3217155,61.794385 C53.3525249,64.7107989 49.6870468,66.8048697 45.9908952,68.6604915 C39.8930119,71.5983047 32.9761474,72.8486331 26.2371889,72.1546856 C22.369266,71.8428677 18.5320165,70.7729045 15.1241955,68.9111686 C12.2592946,67.2022846 9.47414468,65.2488375 7.30246393,62.693154 C5.23200558,60.0396454 3.27503903,57.2271707 2.17692927,54.0203382 C-0.933359267,45.6715684 -0.571412475,36.2834058 2.37630674,27.9438071 C4.44369774,22.1965763 7.73495967,16.8651027 12.0629844,12.5363374 M40.7518687,16.972099 C48.1196331,13.728582 56.5701705,12.4843677 64.4256428,14.6059518 C69.3579347,16.0121892 74.1276573,18.4425341 77.621364,22.25466 C81.1334748,25.7274548 83.4523882,30.2549276 84.8112223,34.9597085 C88.2711883,48.1294267 83.9554329,62.6839829 74.7625978,72.5796138 C73.228925,74.1173037 71.7289929,75.7405907 69.8824508,76.9083791 C75.9220545,68.2202781 78.7777533,57.1232314 76.6735542,46.6742768 C75.2871139,39.6002916 71.578693,32.9634629 66.042134,28.2892523 C60.2264466,23.1136876 52.3403008,20.7322553 44.6412631,20.631373 C40.4144607,20.9462479 36.1723216,21.5973969 32.1970416,23.1228587 C31.4332725,23.4132773 30.6817728,23.7403803 29.893465,23.9635441 C33.0466964,21.0012746 36.7397806,18.6167852 40.7518687,16.972099 M61.7938602,29.6802045 C63.6281329,31.3952026 65.0421793,33.5015015 66.3427339,35.6353138 C69.1800286,40.3859503 71.250487,45.640998 72.0142561,51.1375517 C72.8148333,57.6459849 72.2565764,64.5182055 69.2567123,70.4458015 C67.284409,74.1967867 64.5636734,77.6206689 61.0362258,80.0296145 C57.6682803,82.6739521 53.6009799,84.2636117 49.4631305,85.2510348 C45.5461301,85.8227009 41.5432439,86.3485113 37.5986374,85.7034764 C30.5989545,85.1654378 23.9458817,82.3193357 18.145531,78.4674683 C15.6916544,76.9114361 13.5905226,74.8815631 11.5630071,72.8150057 C10.7532278,71.94375 9.85756289,71.1214068 9.26556517,70.0759 C12.191813,71.7572707 15.0996567,73.5303525 18.3050329,74.6522853 C23.7035614,76.822782 29.6266059,77.7490644 35.430024,77.2721666 C41.5156378,76.816668 47.3988069,74.5575171 52.3709742,71.0633231 C56.3830624,68.0062855 59.8000855,64.0779921 61.9594969,59.5016067 C64.2201307,54.8182251 65.2354221,49.5815196 65.1986139,44.3998408 C65.0084385,40.3217525 64.2661408,36.2558925 62.8183537,32.4284813 C62.5024171,31.5021989 62.0821907,30.615658 61.7938602,29.6802045" id="Fill-2" fill="#5613A2"></path>
                <path d="M40.4425903,27.1963943 C47.8425025,26.0375979 55.9792968,30.0949142 58.7962381,37.0385203 C60.5000835,40.9857663 60.3912612,45.6484697 58.4946451,49.5070478 C57.6147395,51.7206854 55.8580377,53.4084311 54.16352,55.0319691 C47.985526,60.2694845 37.9365696,60.3642673 31.7616849,55.0656017 C30.1573342,53.5551916 28.5592019,51.9408261 27.6388767,49.9228692 C25.5743633,45.8502654 25.418903,40.8451208 27.4087954,36.7174818 C29.6785163,31.5992093 34.9144206,28.0738998 40.4425903,27.1963943" id="Fill-3" fill="#FF0087"></path>
            </g>
        </g>
    </g>
</svg>