<?xml version="1.0" encoding="UTF-8"?>
<svg width="105px" height="105px" viewBox="0 0 105 105" version="1.1" xmlns="http://www.w3.org/2000/svg" xmlns:xlink="http://www.w3.org/1999/xlink">
    <title>Bank-Karafarin-Logo</title>
    <g id="Page-1" stroke="none" stroke-width="1" fill="none" fill-rule="evenodd">
        <g id="Artboard" transform="translate(-1074.000000, -503.000000)">
            <g id="Bank-Karafarin-Logo" transform="translate(1074.000000, 503.000000)">
                <path d="M53.0119427,1 C60.74022,8.73665662 68.4684972,16.4706573 76.1994284,24.2046581 C77.1256539,25.1554727 78.1102662,26.0531692 78.9834129,27.057102 C72.4414474,27.1792737 65.8915201,27.0756933 59.3469008,27.1102201 C48.6249777,27.1022524 37.9057085,27.1261556 27.1837854,27.0969406 C27.5712609,26.3878135 28.2135147,25.8831912 28.7708424,25.3148271 C36.1992242,17.8809439 43.6249522,10.4444047 51.053334,3.01317738 C51.7168194,2.35185658 52.3962283,1.70647122 53.0119427,1 M26.8546967,27.2058328 C26.9051216,27.8459063 26.9236992,28.4886358 26.9183913,29.1313652 C26.8838901,45.7414066 26.9582004,62.3541039 26.8785822,78.9641453 C18.2267334,70.3590071 9.60407788,61.7219981 1,53.0690536 C9.65184883,44.4825068 18.2559267,35.8428418 26.8546967,27.2058328 M79.0046444,38.4164155 C79.0285299,34.610501 78.9489116,30.8019306 79.0471075,26.9960161 C86.9664685,35.0593493 95.0185266,42.9951989 102.985659,51.0133817 C103.65976,51.7411002 104.490443,52.343991 105,53.2151285 C104.044581,53.9640942 103.253707,54.8883498 102.383214,55.7249604 C97.3460331,60.7711834 92.3035445,65.8147505 87.2637099,70.8583176 C84.5673055,73.6178048 81.7461658,76.2604321 79.1320336,79.0942847 C79.0603772,78.7198018 79.0179141,78.345319 78.9993365,77.9655243 C79.0072983,64.7842586 79.0019905,51.6003371 79.0046444,38.4164155 M27.1784776,79.2456714 C44.3654018,79.1792737 61.55498,79.2217682 78.7445581,79.2244241 C78.2907342,79.7981 77.8050629,80.3425609 77.2822365,80.8498391 C71.0083191,87.125747 64.7370557,93.4016548 58.4657922,99.6775627 C56.7327685,101.449053 54.9174726,103.140865 53.2561053,104.976097 C53.1499477,104.981409 52.9349784,104.994688 52.8288208,105 C44.3229387,96.3709587 35.6737438,87.8826804 27.1784776,79.2456714" id="Fill-1" fill="#157215"></path>
                <circle id="Oval" fill="#AA7346" cx="53.5" cy="53.5" r="20.5"></circle>
            </g>
        </g>
    </g>
</svg>