<?xml version="1.0" encoding="UTF-8"?>
<svg width="72px" height="88px" viewBox="0 0 72 88" version="1.1" xmlns="http://www.w3.org/2000/svg" xmlns:xlink="http://www.w3.org/1999/xlink">
    <title>Agri-logo</title>
    <defs>
        <polygon id="path-1" points="0.0129341317 0.211408379 71.8536287 0.211408379 71.8536287 87.2786885 0.0129341317 87.2786885"></polygon>
    </defs>
    <g id="Page-1" stroke="none" stroke-width="1" fill="none" fill-rule="evenodd">
        <g id="Artboard" transform="translate(-1099.000000, -263.000000)">
            <g id="Agri-logo" transform="translate(1099.000000, 263.000000)">
                <g id="Group-3">
                    <mask id="mask-2" fill="white">
                        <use xlink:href="#path-1"></use>
                    </mask>
                    <g id="Clip-2"></g>
                    <path d="M32.3051497,4.87704691 L32.2245269,0.211408379 L39.4003832,0.211408379 L39.3816287,4.85829816 L44.2183473,4.85765165 L44.2289102,14.2072465 L53.6600479,14.2102635 L58.6933653,20.122802 L56.0806707,20.1984436 L53.6052934,23.8757856 L55.4175808,23.8990599 L55.427497,27.2283648 L58.7767904,27.2585352 L58.7933892,31.7028522 L62.1202635,31.6879825 L62.1202635,37.7261592 C63.8368383,37.675516 65.061485,38.2685801 65.679521,40.1867717 C68.941509,39.9809664 70.8613653,43.9526855 71.8536287,48.0584474 L69.5601916,47.0386876 L61.7389222,47.0022676 L61.0034012,48.5148827 L64.3544192,48.4961339 L64.388479,51.4539117 L66.9822036,51.4539117 L67.0065629,54.8426953 L64.3643353,54.8381698 L64.3727425,57.0528934 L60.2836168,57.0996576 L60.2823234,58.5366311 L56.9388503,58.5734821 L56.9328144,75.3542646 L42.7602395,75.3646088 L42.7449341,82.0451998 L39.7601677,82.0464928 L39.7597365,87.2694219 L31.9218683,87.2786885 L31.9218683,82.0548974 L28.9375329,82.0572679 L28.9396886,75.3557732 L14.7524551,75.34155 L14.7934132,58.5571039 L11.4262275,58.5521473 L11.4736527,57.0699182 L7.31813174,57.0597895 L7.29916168,54.818128 L4.72354491,54.7896816 L4.71211976,51.4573597 L7.29916168,51.4584372 L7.32718563,48.504754 L10.9465868,48.4972114 L10.2595689,46.9669251 L2.91578443,46.924902 C1.86833533,47.0552813 0.924790419,47.4306874 0,48.1360285 C0.544095808,44.9564982 1.57990419,40.5294214 6.09650299,40.1865562 C6.48301796,38.7788911 7.38043114,37.560222 9.5828982,37.6653874 L9.54301796,31.6866895 L12.9410299,31.6976801 L12.9268024,27.2395709 L16.2517365,27.2190982 L16.2644551,24.2423561 L18.0974371,24.232874 L15.5241916,20.1508174 L12.9500838,20.1415508 L18.1478802,14.5401985 L27.4434251,14.5401985 L27.4341557,4.90484679 L32.3051497,4.87704691" id="Fill-1" fill="#FFA400" mask="url(#mask-2)"></path>
                </g>
                <polyline id="Fill-4" fill="#1F271A" points="35.4145923 36.2147486 35.4241999 40 31.6560609 37.7165059 31.6560609 19.0013826 29.038212 15.0643313 29 5.87838356 33.923888 5.87730082 33.9184291 1 38.0800424 1.01883964 38.0518747 5.93511902 43 5.93511902 43 15.0643313 40.363591 18.9727983 40.3727619 37.6976663 36.9478757 39.9627538 36.9884896 36.1974247 38.0708715 34.9966685 38.1093019 8.14130562 33.9431031 8.13177752 33.9382993 35.0865357 35.4145923 36.2147486"></polyline>
                <polygon id="Stroke-5" stroke="#302F2E" stroke-width="0.216" points="35.4145923 36.2147486 35.4241999 40 31.6560609 37.7165059 31.6560609 19.0013826 29.038212 15.0643313 29 5.87838356 33.923888 5.87730082 33.9184291 1 38.0800424 1.01883964 38.0518747 5.93511902 43 5.93511902 43 15.0643313 40.363591 18.9727983 40.3727619 37.6976663 36.9478757 39.9627538 36.9884896 36.1974247 38.0708715 34.9966685 38.1093019 8.14130562 33.9431031 8.13177752 33.9382993 35.0865357"></polygon>
                <polyline id="Fill-6" fill="#1F271A" points="17 17.5082153 18.1480976 16.0045823 27.7064251 16 30.0112559 20.1624299 30.03052 39.7482817 34.9809573 42.8116258 35 56 29.2515408 56 29.2610621 43.5528595 23.1158062 37.8126077 23.0965421 23.1904253 19.6557922 17.5280717 17 17.5082153"></polyline>
                <polygon id="Stroke-7" stroke="#302F2E" stroke-width="0.216" points="17 17.5082153 18.1480976 16.0045823 27.7064251 16 30.0112559 20.1624299 30.03052 39.7482817 34.9809573 42.8116258 35 56 29.2515408 56 29.2610621 43.5528595 23.1158062 37.8126077 23.0965421 23.1904253 19.6557922 17.5280717"></polygon>
                <polyline id="Fill-8" fill="#1F271A" points="17 20.0004189 18.4739349 20 21 24.3348324 20.9720453 36.9905742 19.5550551 37 19.5368328 24.3243593 17 20.0004189"></polyline>
                <polygon id="Stroke-9" stroke="#302F2E" stroke-width="0.216" points="17 20.0004189 18.4739349 20 21 24.3348324 20.9720453 36.9905742 19.5550551 37 19.5368328 24.3243593"></polygon>
                <polyline id="Fill-10" fill="#1F271A" points="18.0126455 34 18.9873545 34.0053216 19 37.9847293 18 38 18.0126455 34"></polyline>
                <polygon id="Stroke-11" stroke="#302F2E" stroke-width="0.216" points="18.0126455 34 18.9873545 34.0053216 19 37.9847293 18 38"></polygon>
                <path d="M4,45.4333132 C4.28424085,44.2241158 5.09279084,42.941087 6.20115944,42.5784327 L8.72262332,42.5624918 C8.5482804,41.4818699 8.90336807,40.6764374 9.92232457,40.0358669 L23.1736672,40 L28,44.7424032 L27.9910375,56 L23.5669524,55.9712645 L16.5430878,45.4746336 L4,45.4333132" id="Fill-12" fill="#1F271A"></path>
                <path d="M4,45.4333132 C4.28424085,44.2241158 5.09279084,42.941087 6.20115944,42.5784327 L8.72262332,42.5624918 C8.5482804,41.4818699 8.90336807,40.6764374 9.92232457,40.0358669 L23.1736672,40 L28,44.7424032 L27.9910375,56 L23.5669524,55.9712645 L16.5430878,45.4746336 L4,45.4333132 Z" id="Stroke-13" stroke="#302F2E" stroke-width="0.216"></path>
                <polyline id="Fill-14" fill="#1F271A" points="12 47.0101933 14.1855573 47 20 55.9713721 17.4887601 56 12 47.0101933"></polyline>
                <polygon id="Stroke-15" stroke="#302F2E" stroke-width="0.216" points="12 47.0101933 14.1855573 47 20 55.9713721 17.4887601 56"></polygon>
                <polyline id="Fill-16" fill="#1F271A" points="11 53.0132905 11.0456469 53.9872937 15 54 13.6272599 53 11 53.0132905"></polyline>
                <polygon id="Stroke-17" stroke="#302F2E" stroke-width="0.216" points="11 53.0132905 11.0456469 53.9872937 15 54 13.6272599 53"></polygon>
                <polyline id="Fill-18" fill="#1F271A" points="55 17.5082153 53.851681 16.0045823 44.2935749 16 41.9887441 20.1624299 41.96948 39.7482817 37.0190427 42.8116258 37 56 42.7484592 56 42.7389379 43.5528595 48.8841938 37.8126077 48.9034579 23.1904253 52.3439864 17.5280717 55 17.5082153"></polyline>
                <polygon id="Stroke-19" stroke="#302F2E" stroke-width="0.216" points="55 17.5082153 53.851681 16.0045823 44.2935749 16 41.9887441 20.1624299 41.96948 39.7482817 37.0190427 42.8116258 37 56 42.7484592 56 42.7389379 43.5528595 48.8841938 37.8126077 48.9034579 23.1904253 52.3439864 17.5280717"></polygon>
                <path d="M68,45.433523 C67.7158678,44.2241158 66.9076268,42.9412968 65.7996818,42.5784327 L63.2791816,42.5624918 C63.4536712,41.4818699 63.0987192,40.6764374 62.0801522,40.0358669 L48.8336607,40 L44,44.7749141 L44.0181316,56 L48.4405258,55.9712645 L55.461706,45.4748433 L68,45.433523" id="Fill-20" fill="#1F271A"></path>
                <path d="M68,45.433523 C67.7158678,44.2241158 66.9076268,42.9412968 65.7996818,42.5784327 L63.2791816,42.5624918 C63.4536712,41.4818699 63.0987192,40.6764374 62.0801522,40.0358669 L48.8336607,40 L44,44.7749141 L44.0181316,56 L48.4405258,55.9712645 L55.461706,45.4748433 L68,45.433523 Z" id="Stroke-21" stroke="#302F2E" stroke-width="0.216"></path>
                <polyline id="Fill-22" fill="#1F271A" points="59 47.0101933 56.8144427 47 51 55.9711552 53.5112399 56 59 47.0101933"></polyline>
                <polygon id="Stroke-23" stroke="#302F2E" stroke-width="0.216" points="59 47.0101933 56.8144427 47 51 55.9711552 53.5112399 56"></polygon>
                <polyline id="Fill-24" fill="#1F271A" points="60.9716754 53.0071025 61 53.9905783 57 54 58.3125447 53 60.9716754 53.0071025"></polyline>
                <polygon id="Stroke-25" stroke="#302F2E" stroke-width="0.216" points="60.9716754 53.0071025 61 53.9905783 57 54 58.3125447 53"></polygon>
                <polyline id="Fill-26" fill="#1F271A" points="31 75 31.0375499 79.8297877 33.9882017 79.8349294 33.9694267 85 38.0647095 85 38.0576689 79.8413566 41 79.8257172 40.9782381 75.0222808 38.03164 75.0222808 38.0175588 77.9252094 34.0007894 77.950918 33.961106 75.008998 31 75"></polyline>
                <polygon id="Stroke-27" stroke="#302F2E" stroke-width="0.216" points="31 75 31.0375499 79.8297877 33.9882017 79.8349294 33.9694267 85 38.0647095 85 38.0576689 79.8413566 41 79.8257172 40.9782381 75.0222808 38.03164 75.0222808 38.0175588 77.9252094 34.0007894 77.950918 33.961106 75.008998"></polygon>
                <polyline id="Fill-28" fill="#1F271A" points="16 58 16.0387605 73.9927231 56 74 55.991411 58.0048513 16 58"></polyline>
                <polygon id="Stroke-29" stroke="#302F2E" stroke-width="0.216" points="17 58 17.0377915 73.9927231 56 74 55.9916257 58.0048513"></polygon>
                <polyline id="Fill-30" fill="#1F271A" points="54.0126473 34 54.9873527 34.0053216 55 37.9847293 54 38 54.0126473 34"></polyline>
                <polygon id="Stroke-31" stroke="#302F2E" stroke-width="0.216" points="54.0126473 34 54.9873527 34.0053216 55 37.9847293 54 38"></polygon>
                <polyline id="Fill-32" fill="#1F271A" points="54 20.0004189 52.5260651 20 50 24.3348324 50.0279547 36.9905742 51.4447378 37 51.4631672 24.3243593 54 20.0004189"></polyline>
                <polygon id="Stroke-33" stroke="#302F2E" stroke-width="0.216" points="54 20.0004189 52.5260651 20 50 24.3348324 50.0279547 36.9905742 51.4447378 37 51.4631672 24.3243593"></polygon>
                <path d="M48.6178305,68 L48.6178305,68.1632231 C48.6178305,68.4601803 48.7254494,68.6666041 48.9411765,68.7826822 C49.0686071,68.8478588 49.2204965,68.8803531 49.397334,68.8803531 C49.5343035,68.8803531 49.657087,68.7680316 49.7651951,68.5433884 C49.7845175,68.4928625 49.8067751,68.4350113 49.8312339,68.3696469 C49.8556928,68.3044703 49.8874893,68.2717881 49.9266235,68.2717881 C49.9757857,68.2717881 50,68.3080391 50,68.3803531 C50,68.4094666 49.9926623,68.4530428 49.9782316,68.5108941 C49.9635563,68.569121 49.9513269,68.6160781 49.9415434,68.6521412 C49.8141128,69.0796394 49.6519506,69.4113449 49.4560352,69.646882 C49.2598753,69.8822314 49.0590681,70 48.8531246,70 C48.5292895,70 48.3062248,69.8912472 48.1836859,69.6741172 C48.0611471,69.4566116 48,69.1810669 48,68.8478588 L48.6178305,68" id="Fill-34" fill="#EEF0BB"></path>
                <path d="M48.9928055,71.8199901 C49.0059784,71.9157136 49.0011428,72.0188961 48.9776316,72.1292889 C48.9542872,72.2394331 48.9176031,72.3642466 48.8672458,72.5032322 C48.817222,72.6422178 48.7486894,72.7697663 48.6618147,72.8846345 C48.6081225,72.961462 48.5647686,73 48.5314194,73 C48.5114099,73 48.4663885,72.9564893 48.3958549,72.8702138 C48.3258216,72.7836897 48.2622914,72.7095972 48.205431,72.6471905 C48.1487374,72.5850323 48.1002143,72.5248633 48.0600285,72.4674291 C48.0198428,72.409995 48,72.362009 48,72.3234709 C48.0398523,72.198906 48.0700333,72.1029339 48.0900428,72.0360517 C48.156908,71.8247141 48.2072652,71.6710592 48.2406144,71.5753357 C48.3008097,71.4313774 48.3608383,71.2826952 48.4210336,71.1292889 C48.4347067,71.1004475 48.4545495,71.0574341 48.4813956,71 C48.5014051,71.0283441 48.5214146,71.0524615 48.5412574,71.0716062 C48.5614337,71.0909995 48.588113,71.1151169 48.6217957,71.143461 C48.7620291,71.3068125 48.8555736,71.4313774 48.9024292,71.5176529 C48.949118,71.6039284 48.9792991,71.7046246 48.9928055,71.8199901" id="Fill-35" fill="#EEF0BB"></path>
                <path d="M47.5727891,67.0956173 C47.5,67.2967693 47.4272109,67.493714 47.3546485,67.686852 C47.254195,67.8958177 47.1362812,68 47,68 C47,67.9072377 47.0498866,67.5033308 47.1498866,66.7884798 C47.2496599,66.0732281 47.331746,65.5266717 47.3954649,65.1478087 C47.4043084,65.1169547 47.4768707,64.9584773 47.6136054,64.6723767 C47.7501134,64.3864763 47.8589569,64.1700977 47.9408163,64.0232407 C47.9589569,64.015427 47.9770975,64.0076133 47.9954649,64 C48.0045351,64.0232407 48,64.085149 47.9818594,64.185725 L47.9269841,64.4870523 L47.6950113,65.9015277 C47.6498866,66.187428 47.6179138,66.434861 47.6,66.643426 C47.5816327,66.8523917 47.5727891,67.002855 47.5727891,67.0956173" id="Fill-36" fill="#EEF0BB"></path>
                <path d="M45.6175104,68 L45.6175104,68.1632231 C45.6175104,68.4601803 45.7253607,68.6666041 45.9413059,68.7826822 C46.068721,68.8478588 46.2205918,68.8803531 46.3971631,68.8803531 C46.5343605,68.8803531 46.6571289,68.7680316 46.7647347,68.5433884 C46.7847885,68.4928625 46.8067987,68.4350113 46.83101,68.3696469 C46.8554659,68.3044703 46.8875031,68.2717881 46.9266324,68.2717881 C46.9757887,68.2717881 47,68.3080391 47,68.3803531 C47,68.4094666 46.9926632,68.4530428 46.9779897,68.5108941 C46.9630717,68.569121 46.9510883,68.6160781 46.9417951,68.6521412 C46.8141355,69.0796394 46.6522377,69.4113449 46.4561017,69.646882 C46.2599658,69.8822314 46.0589386,70 45.8527757,70 C45.5294693,70 45.3061873,69.8912472 45.183908,69.6741172 C45.0613842,69.4566116 45,69.1810669 45,68.8478588 L45.6175104,68" id="Fill-37" fill="#EEF0BB"></path>
                <path d="M46.9929539,61.8201367 C47.0059621,61.9158484 47.0009589,62.019018 46.9779445,62.1291485 C46.9542631,62.2397763 46.9175735,62.3645743 46.8672087,62.5037912 C46.8171774,62.6425109 46.7486346,62.7697949 46.6617469,62.8846489 C46.6083802,62.9612181 46.564853,63 46.5313321,63 C46.5113196,63 46.4662914,62.9567433 46.3960809,62.87023 C46.3258703,62.7837166 46.2621639,62.7096333 46.2054617,62.6474829 C46.1484261,62.5850839 46.1000625,62.5254195 46.0600375,62.4674953 C46.019679,62.4100684 46,62.3620883 46,62.323555 C46.040025,62.1992542 46.069877,62.103294 46.0900563,62.0359229 C46.1569314,61.8248602 46.2069627,61.6717216 46.2404836,61.5757613 C46.3008547,61.4315724 46.3607255,61.2831572 46.4209297,61.1295214 C46.434605,61.1009323 46.4544507,61.0579242 46.4813008,61 C46.5013133,61.0285892 46.5213258,61.0527035 46.5415051,61.0723431 C46.5613508,61.0909882 46.5880342,61.1153511 46.6217219,61.1439403 C46.762143,61.3067744 46.8555347,61.4315724 46.9023973,61.5183344 C46.9494267,61.6043505 46.9792787,61.7050342 46.9929539,61.8201367" id="Fill-38" fill="#EEF0BB"></path>
                <path d="M45.4848946,67.5379627 C45.4592036,67.6369402 45.4337266,67.7401931 45.4078215,67.847294 C45.3821305,67.9546086 45.3412389,68.0679089 45.2853609,68.1874087 C45.2296969,68.3069085 45.1673962,68.3958385 45.0986726,68.4535576 C45.0301632,68.5110628 44.9787811,68.5275234 44.9443123,68.5029394 C44.9443123,68.3133217 44.9595128,68.0967684 44.9894857,67.8537072 C45.0194586,67.6102184 45.0387269,67.4513842 45.0472905,67.3772045 L45.0601361,67.2412442 C45.0601361,67.2164464 45.0558542,67.1999857 45.0472905,67.1918623 C45.0387269,67.1833114 45.0213854,67.1918623 44.9956944,67.2164464 C44.9614396,67.257491 44.9055616,67.3318844 44.8284885,67.4389853 C44.6653504,67.6534008 44.5450307,67.8100973 44.4677435,67.9092885 C44.2104049,68.2226814 43.8881964,68.5151245 43.5019744,68.7874728 C43.1157524,69.0596074 42.7038394,69.2738091 42.2660212,69.4307194 C41.8282031,69.5876296 41.33258,69.7212385 40.7789381,69.8328286 C40.2252962,69.9439912 39.6481041,70 39.0471478,70 L38.8540368,70 C38.4851563,70 38.1845711,69.9794777 37.9527095,69.9377917 C37.5838289,69.872163 37.332699,69.7627107 37.1995338,69.6100759 C37.0665826,69.4574411 37,69.224641 37,68.9110343 C37,68.647237 37.0194824,68.3751024 37.0580189,68.0948445 C37.0965555,67.8145865 37.1502926,67.6743507 37.2190161,67.6743507 C37.2449213,67.6743507 37.2641895,67.754516 37.276821,67.9154879 C37.2896665,68.0760324 37.3519673,68.2186197 37.4635092,68.3421812 C37.6953709,68.5895179 38.2573624,68.7130794 39.1501261,68.7130794 C39.6393263,68.7130794 40.0302583,68.7008943 40.3218517,68.6760965 C41.7295066,68.5606584 42.879823,68.2348666 43.7725867,67.6987209 C44.1928493,67.4595076 44.5236215,67.1749742 44.7638327,66.8453344 C44.9443123,66.5896605 45.0858271,66.2843909 45.1890195,65.9297396 L45.3688567,65.2247123 C45.3864123,65.1505327 45.4806128,64.9401789 45.6523146,64.5936509 C45.7640706,64.371112 45.8368619,64.2289522 45.8713307,64.1669576 C45.9055854,64.1049631 45.9484038,64.0495956 46,64 C46,64.0658424 46,64.1280507 46,64.185556 C45.9569675,64.3670503 45.9269946,64.5072861 45.9100814,64.6062636 L45.6394691,65.9051555 C45.588087,66.2598069 45.5491222,66.5836748 45.5238594,66.8761179 C45.4981683,67.1689885 45.4848946,67.3896034 45.4848946,67.5379627" id="Fill-39" fill="#EEF0BB"></path>
                <path d="M46.4873728,63.1109072 C46.661618,62.9121901 47.0338152,62.573278 47.6041619,62.0937419 C48.1108953,61.6718702 48.6178262,61.2459255 49.1247572,60.8159079 C49.4890521,60.5016478 49.8375424,60.1833147 50.1706233,59.86048 C50.4078891,59.6291794 50.7206216,59.3149192 51.1090185,58.917914 C51.7032696,58.3226204 52,58.0165062 52,58 C52,58.0413726 51.9922953,58.0786722 51.9762932,58.1114702 C51.9525863,58.227442 51.8771196,58.4010782 51.7502881,58.6328076 C51.6238517,58.8643225 51.5167759,59.0379587 51.4298508,59.1537162 C51.3030193,59.3273524 51.16631,59.498845 51.0199203,59.6684083 C50.8731356,59.8381859 50.7563794,59.9683059 50.6692569,60.059197 C50.5507227,60.1833147 50.348622,60.37753 50.0633499,60.6422717 C49.8493958,60.8407743 49.528761,61.130168 49.1008528,61.5106672 C48.7999737,61.7754088 48.5309012,62.0026365 48.2930427,62.1929932 C47.976359,62.4491602 47.6594778,62.7012543 47.3427941,62.9494898 L46.5229331,63.619597 C46.4040038,63.7186339 46.2913964,63.811883 46.184123,63.8984868 C46.0774423,63.9853049 46.0160021,64.0166023 46,63.9917358 C46.0632182,63.809525 46.1347338,63.644249 46.2137565,63.4952649 C46.2931744,63.3462807 46.3842481,63.21809 46.4873728,63.1109072" id="Fill-40" fill="#EEF0BB"></path>
                <path d="M35,68 C35.1750156,67.8374342 35.2789441,67.7376735 35.3122012,67.7009095 C35.437539,67.568023 35.5418832,67.4112015 35.6248181,67.2300622 C35.7083766,67.0491144 35.7813344,66.8015318 35.8438994,66.4876975 C35.9062565,66.1734801 35.937435,65.93528 35.937435,65.7727142 C35.937435,65.5733844 35.9395136,65.3648636 35.9436708,65.1467688 C35.9478279,64.9288655 35.9625857,64.7054093 35.9873207,64.4764002 C35.9958429,64.2697942 36,64.1403542 36,64.0888463 C36,64.0446146 35.9958429,64.0147439 35.9873207,64 C35.9625857,64.0072762 35.9418,64.0147439 35.9249636,64.0222116 L35.4751611,65.0083293 C35.441904,65.0749641 35.4207026,65.1726185 35.4125961,65.3020584 C35.4042819,65.4313068 35.3999169,65.5808521 35.3999169,65.7506941 L35.4125961,66.4932504 C35.4125961,66.7959789 35.3708169,67.0322642 35.2876741,67.2022978 C35.245687,67.2836764 35.1978799,67.3554811 35.143837,67.4182863 C35.0897942,67.4812829 35.0417793,67.5235998 35,67.5460029 L35,68" id="Fill-41" fill="#EEF0BB"></path>
                <path d="M36.4867962,63.1110985 C36.6612446,62.9125968 37.0334541,62.5734717 37.603622,62.0937235 C38.1105696,61.672068 38.6177149,61.2463396 39.1244649,60.8161096 C39.4889694,60.5018509 39.8374712,60.1835193 40.1701679,59.8609003 C40.4076391,59.629172 40.7205795,59.3151277 41.1087916,58.9181242 C41.7028647,58.3228333 42,58.0167204 42,58 C42,58.0415868 41.9920975,58.0786719 41.9760948,58.1118984 C41.9521897,58.2276554 41.8771156,58.4010764 41.7502799,58.6328047 C41.6236418,58.8643186 41.51676,59.0381684 41.4296345,59.1541398 C41.3027988,59.3275608 41.1662825,59.499267 41.0196905,59.6686151 C40.8729009,59.8381777 40.7561409,59.9682971 40.6690155,60.0594021 C40.5504774,60.1835193 40.3483701,60.3777337 40.0632861,60.6422598 C39.849325,60.8407615 39.5286796,61.1305827 39.1009549,61.5106514 C38.7998683,61.7756062 38.5305894,62.0030472 38.2929206,62.1931887 C37.9762265,62.4493546 37.6593349,62.7016619 37.3424432,62.9496819 L36.5225552,63.6195717 C36.4038196,63.7188226 36.2910109,63.8118569 36.1839315,63.8986746 C36.0772473,63.9854923 36.0156075,64.0165752 36,63.9917089 C36.0632203,63.8099276 36.1343431,63.6446524 36.2137636,63.4956689 C36.2927889,63.3466854 36.3840632,63.2184953 36.4867962,63.1110985" id="Fill-42" fill="#EEF0BB"></path>
                <path d="M34.9270154,68.410057 L34.854233,68.4601693 C34.7165529,68.5201313 34.6253728,68.5581476 34.5806924,68.5750821 C34.5360121,68.591671 34.491534,68.6149991 34.4466515,68.6450665 C34.4023755,68.6749611 34.3475866,68.716779 34.2828911,68.7700017 C34.2503412,68.7900467 34.2018196,68.8033523 34.1369219,68.8100916 C34.0720243,68.8168308 34.0174375,68.8316917 33.9727571,68.8551927 C33.9280768,68.878348 33.8552944,68.9267323 33.7540056,69.0001728 C33.6525145,69.0732677 33.5736669,69.1169863 33.5168562,69.1299464 C33.4762194,69.1368585 33.4297195,69.1384137 33.3769522,69.1347849 C33.3243872,69.1316744 33.2657569,69.126836 33.2006571,69.119924 C33.062977,69.119924 32.8804145,69.2668049 32.6533738,69.5600484 C32.4265353,69.8534647 32.1588577,70 31.8511499,70 C31.4864291,70 31.230882,69.8233973 31.0849128,69.4701918 C31.060652,69.4167963 31.0404347,69.3317781 31.024463,69.2149646 C31.0080869,69.0983238 31,69.0065664 31,68.940038 L31.5108921,68.1600138 C31.5108921,68.373596 31.5551681,68.5434595 31.6443265,68.6699499 C31.7904979,68.8767928 32.0335102,68.9799551 32.3739702,68.9799551 C32.560374,68.9799551 32.7225171,68.940038 32.8601971,68.8600311 C33.0304271,68.7534128 33.2044984,68.6467945 33.3832196,68.5398307 C33.480465,68.5533091 33.590043,68.5602212 33.711347,68.5602212 C33.8087945,68.5602212 33.9058378,68.5201313 34.0032853,68.4401244 C34.0516048,68.3934681 34.104372,68.346639 34.1611827,68.2999827 C34.1935305,68.3335061 34.2422542,68.3400726 34.3071519,68.3200276 C34.4041951,68.2935891 34.4895123,68.2400207 34.5622947,68.1600138 C34.6027293,68.1133575 34.6435684,68.063418 34.684003,68.0101953 C34.7489007,68.0300674 34.8055092,68.0368066 34.854233,68.0300674 C34.8865807,68.0165889 34.9110437,68.0067392 34.9270154,68 C34.9433915,68.0333506 34.9595653,68.0684292 34.9759414,68.1052359 C34.9921152,68.1416969 35,68.1800588 35,68.2199758 C35,68.2465872 34.9921152,68.2768274 34.9759414,68.310178 C34.9595653,68.3433558 34.9433915,68.3767064 34.9270154,68.410057" id="Fill-43" fill="#EEF0BB"></path>
                <path d="M34.2196543,60.8476906 L34.2196543,60.8476906 C34.1997217,60.728978 34.155181,60.6249117 34.0862782,60.5357487 C34.0176214,60.4460718 33.8790776,60.317338 33.6718771,60.1487763 C33.6229069,60.1192266 33.5832878,60.094302 33.553758,60.0745166 C33.5239821,60.0547312 33.4946985,60.0300636 33.4649226,60 C33.4253035,60.0596133 33.3960198,60.1043232 33.3760872,60.1341299 C33.2874979,60.2926704 33.1984164,60.4460718 33.1098271,60.595362 C33.0606109,60.6940322 32.9860482,60.8525728 32.8878617,61.0709835 C32.8578398,61.1401041 32.8137912,61.2398021 32.7544856,61.3682791 C32.7544856,61.4078499 32.7840154,61.457442 32.8430749,61.5167984 C32.9026266,61.5761547 32.9739902,61.6406501 33.05815,61.7100276 C33.1418177,61.7796621 33.2353287,61.8562343 33.339175,61.9407721 C33.4425292,62.025053 33.5094633,62.0669365 33.5389931,62.0669365 C33.5882094,62.0669365 33.6521906,62.0273656 33.7314288,61.9479669 C33.8598833,61.8292542 33.9607766,61.6976938 34.0346011,61.5543136 C34.1084255,61.4104195 34.1628095,61.2814287 34.197507,61.1673412 C34.2319584,61.0535106 34.2393408,60.9468748 34.2196543,60.8476906 Z M34.9893969,62.6915912 L34.9893969,62.6915912 C35.0090834,62.7907754 35.0012088,62.8971542 34.9670035,63.0114987 C34.932306,63.1253292 34.877922,63.2538061 34.8038515,63.3979572 C34.7302732,63.5415944 34.6291337,63.6731548 34.5009253,63.7916105 C34.4216871,63.8712661 34.357706,63.910837 34.3082436,63.910837 C34.2789599,63.910837 34.2120258,63.8661271 34.1084255,63.7769641 C34.0053174,63.6878011 33.9113143,63.6109719 33.8274005,63.5464765 C33.7434868,63.4822381 33.6718771,63.4197983 33.6128175,63.3609559 C33.553758,63.3013426 33.5239821,63.2517505 33.5239821,63.2121796 C33.5832878,63.0831888 33.6275824,62.9837477 33.6573583,62.9146271 C33.7560369,62.6964733 33.8301074,62.5379328 33.8790776,62.4387486 C33.9681591,62.2902293 34.0567484,62.1368279 34.1458299,61.9780304 C34.1652703,61.9479669 34.1948001,61.9035138 34.2344192,61.8439006 C34.2637029,61.8737072 34.2934787,61.8983748 34.3230085,61.9181602 C34.3525382,61.9382026 34.3921574,61.9631271 34.4416197,61.9929338 C34.6488203,62.1612385 34.7868719,62.2902293 34.8560208,62.3793923 C34.9249236,62.4685553 34.9694643,62.5726216 34.9893969,62.6915912 Z M33.4649226,62.7807542 C33.484363,62.8799383 33.4774728,62.9863172 33.4425292,63.1006617 C33.4080778,63.2144922 33.3539399,63.343483 33.2801155,63.4871202 C33.2057989,63.6307574 33.1049055,63.7623177 32.976451,63.8810304 C32.897705,63.9604291 32.8332316,64 32.7840154,64 C32.7544856,64 32.6880436,63.955547 32.5846894,63.8661271 C32.4808431,63.7769641 32.3873321,63.7001349 32.3031723,63.6358964 C32.2195046,63.5711441 32.1476488,63.5094752 32.0885893,63.4498619 C32.0295298,63.3902486 32,63.3409135 32,63.3013426 C32.0588135,63.1723518 32.1033542,63.0731676 32.132884,63.004047 C32.2315626,62.7856363 32.3056331,62.6270958 32.3548494,62.5281686 C32.4436848,62.3793923 32.5325202,62.2257339 32.6213556,62.0669365 C32.6410421,62.0376437 32.6708179,61.9929338 32.7101909,61.9330635 C32.7397207,61.9631271 32.7694966,61.9877947 32.7992724,62.0075801 C32.8288022,62.0273656 32.8681752,62.0522901 32.9173915,62.0818398 C33.124592,62.2504015 33.2626437,62.3793923 33.3315465,62.4685553 C33.4006954,62.5574613 33.44499,62.6620415 33.4649226,62.7807542 L33.4649226,62.7807542 Z" id="Fill-44" fill="#EEF0BB"></path>
                <path d="M31.5730739,67.0956173 C31.5003062,67.2967693 31.4273118,67.493714 31.3545441,67.686852 C31.2545736,67.8958177 31.1366944,68 31,68 C31,67.9072377 31.0500986,67.5033308 31.1502959,66.7884798 C31.2502664,66.0732281 31.3321017,65.5266717 31.3955751,65.1478087 C31.4046427,65.1169547 31.4774104,64.9584773 31.6138782,64.6723767 C31.7498925,64.3864763 31.8591574,64.1700977 31.940766,64.0232407 C31.959128,64.015427 31.9770365,64.0076133 31.9956251,64 C32.0044661,64.0232407 31.9999323,64.085149 31.981797,64.185725 L31.9269379,64.4870523 L31.6952601,65.9015277 C31.649922,66.187428 31.6181853,66.434861 31.60005,66.643426 C31.5821415,66.8523917 31.5730739,67.002855 31.5730739,67.0956173" id="Fill-45" fill="#EEF0BB"></path>
                <path d="M29.8228265,68.0636258 L29.6770003,68.5867986 C29.6144787,68.7751114 29.5400069,68.9514563 29.4528923,69.1165659 C29.3664704,69.2816755 29.295116,69.3896318 29.2396952,69.441656 C29.183928,69.4934359 29.0796675,69.5569396 28.9270869,69.6326556 C28.8507101,69.6702693 28.7779702,69.707883 28.7083478,69.7454967 C28.5417388,69.8207242 28.4305507,69.8727484 28.3751299,69.9010808 C28.2154486,69.9667827 28.1042605,70 28.0417388,70 L28,69.9714233 C28,69.9057214 28.1252165,69.7645478 28.3751299,69.5476583 L28.7812608,69.1519814 C28.8507101,69.0860353 28.9270869,69.0059229 29.0103914,68.9116444 C29.0936959,68.8176101 29.1820229,68.6996397 29.2760651,68.5582219 C29.3694146,68.4170483 29.4340145,68.2709898 29.4686526,68.1200464 C29.4686526,68.1014838 29.4719432,68.0729071 29.479044,68.0355376 L29.2081746,68.0636258 C29.0833045,68.0636258 28.9792172,68.0094034 28.8959127,67.9009587 C28.8124351,67.7927581 28.7779702,67.6725896 28.7916522,67.5406973 C28.798753,67.4654699 28.8158989,67.375832 28.8437825,67.2720278 C28.8716661,67.168468 28.9341877,66.9801551 29.0311742,66.7066007 C29.0936959,66.5278134 29.1562175,66.37687 29.218566,66.2545033 C29.3087981,66.084753 29.3959127,66 29.479044,66 C29.6182889,66 29.739522,66.0801124 29.8436093,66.2400928 C29.9478698,66.4005618 30,66.5937595 30,66.8196861 C30,66.9327716 29.992726,67.045857 29.979044,67.1589424 C29.9650156,67.2720278 29.9532387,67.3709471 29.9426741,67.4557001 C29.9321095,67.5406973 29.9166955,67.6418147 29.8957395,67.7600293 C29.8749567,67.8777554 29.8507101,67.9788728 29.8228265,68.0636258" id="Fill-46" fill="#EEF0BB"></path>
                <path d="M28,66.1426896 C28,66.2569894 27.9826117,66.4475714 27.9478351,66.7144356 C27.9128846,66.980806 27.8779341,67.214343 27.8431575,67.414306 L27.7177878,68.1141764 C27.6480607,68.3807937 27.5922443,68.576313 27.5503385,68.7002407 C27.4875667,68.880948 27.4301853,69.028575 27.3778465,69.1428748 C27.3255077,69.2571746 27.2714301,69.3450596 27.2157875,69.4072703 C27.1601449,69.4689872 27.0659003,69.5477381 26.9334014,69.6430291 L26.5567708,69.8570635 C26.5221681,69.8763192 26.4400953,69.904709 26.3112479,69.9427267 C26.1824006,69.9809912 26.1003278,70 26.0653773,70 C26.0304268,70 26.0095609,69.9834599 26.0026055,69.949639 C25.9956502,69.9165587 26.0026055,69.8763192 26.0236454,69.8289206 C26.058422,69.7430106 26.1472762,69.6237734 26.2900342,69.4714559 C26.4331399,69.3193853 26.574333,69.1715114 26.7137872,69.028575 C26.8741073,68.828612 26.9928694,68.6713572 27.069378,68.5568105 C27.1810109,68.3953589 27.2853407,68.2000864 27.383063,67.9714868 C27.4039289,67.9238413 27.4336629,67.8263285 27.4720911,67.6787015 C27.5103454,67.5310745 27.5712044,67.2903783 27.6548422,66.9571067 L27.7803857,66.4428809 C27.7944702,66.3665988 27.8155101,66.2737765 27.8431575,66.1641671 C27.8711527,66.0550515 27.9059293,66 27.9478351,66 C27.9826117,66.0666543 28,66.1145467 28,66.1426896" id="Fill-47" fill="#EEF0BB"></path>
                <path d="M26,66.1426896 C26,66.2567426 25.9827841,66.4475714 25.9480045,66.7141887 C25.9130509,66.980806 25.8784452,67.2140962 25.8433178,67.414306 L25.7177633,68.1139295 C25.648204,68.3805468 25.5923827,68.576313 25.5506472,68.7002407 C25.4878699,68.880948 25.4304835,69.028575 25.3779663,69.1428748 C25.3256229,69.2571746 25.2718884,69.3450596 25.2157193,69.4070234 C25.1600719,69.4689872 25.065993,69.5477381 24.9336565,69.6427822 L24.5569931,69.8570635 C24.5222135,69.8760723 24.4403074,69.904709 24.3111011,69.9427267 C24.1822426,69.9809912 24.1005104,70 24.065383,70 C24.0306034,70 24.0097356,69.9834599 24.0026058,69.949639 C23.9956498,69.9165587 24.0026058,69.8760723 24.0236474,69.8286737 C24.0584271,69.7430106 24.147289,69.6237734 24.2902333,69.4714559 C24.4331776,69.3191384 24.5745568,69.1715114 24.7140231,69.028575 C24.8743572,68.8283651 24.9929558,68.6713572 25.0696449,68.5568105 C25.1811136,68.3953589 25.2856264,68.1998395 25.3831832,67.9714868 C25.4042249,67.9235944 25.4337876,67.8260816 25.4720452,67.6784546 C25.5104767,67.5310745 25.571341,67.2903783 25.65516,66.9571067 L25.7805405,66.4428809 C25.7946263,66.3665988 25.8154941,66.2735296 25.8433178,66.1641671 C25.8713154,66.0550515 25.906095,66 25.9480045,66 C25.9827841,66.0664075 26,66.1145467 26,66.1426896" id="Fill-48" fill="#EEF0BB"></path>
                <path d="M25.9927558,64.8201367 C26.0060993,64.9158484 26.0009287,65.0192666 25.9779111,65.1293971 C25.9542264,65.2397763 25.9175318,65.3643257 25.8671602,65.5037912 C25.8172889,65.6425109 25.7487367,65.7697949 25.6616704,65.8846489 C25.6082964,65.9612181 25.5649301,66 25.5314046,66 C25.5112225,66 25.466355,65.9567433 25.3959681,65.87023 C25.325748,65.7839652 25.2621996,65.7096333 25.205323,65.6472343 C25.1484463,65.5850839 25.1000762,65.5251709 25.0598789,65.4674953 C25.0196817,65.4100684 25,65.3620883 25,65.323555 C25.0398637,65.1990056 25.0700533,65.1030454 25.0899018,65.0359229 C25.1571196,64.8248602 25.2068241,64.6717216 25.2405164,64.5757613 C25.3007289,64.4315724 25.3607747,64.2829086 25.4209872,64.12977 C25.4344974,64.1009323 25.4543459,64.0576756 25.4811997,64 C25.5013817,64.0290864 25.5213969,64.0527035 25.5412454,64.0723431 C25.5614274,64.0912368 25.5879476,64.1151025 25.6216399,64.1439403 C25.762247,64.307023 25.8554846,64.4315724 25.9025204,64.5180858 C25.9493894,64.6043505 25.9794123,64.7052828 25.9927558,64.8201367" id="Fill-49" fill="#EEF0BB"></path>
                <path d="M24.9957554,63.1750838 C24.9789647,63.2832581 24.9537786,63.3888678 24.9199873,63.4921463 C24.8866157,63.595891 24.8297372,63.7395017 24.7497714,63.924144 C24.6698056,64.10832 24.6217422,64.2139298 24.6045317,64.2409733 C24.5373688,64.3491476 24.4786013,64.4030016 24.4280192,64.4030016 C24.3942279,64.375958 24.3625354,64.3510127 24.3331517,64.3286318 C24.3037679,64.3062509 24.276483,64.2948273 24.2512969,64.2948273 C24.1501329,64.2948273 24.0155972,64.3402885 23.8474802,64.4300452 C23.6791532,64.5195687 23.5062088,64.6547865 23.3296964,64.834533 C23.1023921,65.0504153 22.9321762,65.2439167 22.8188388,65.4145709 C22.7050817,65.5856914 22.6479933,65.7022585 22.6479933,65.765671 C22.6479933,65.8372432 22.6775869,65.9139443 22.7363544,65.9948419 L22.9634489,66.1163048 C23.0226362,66.1433484 23.0753171,66.1657293 23.1214915,66.1836806 C23.167666,66.2018651 23.2119515,66.2286755 23.2541382,66.264345 C23.3886738,66.3636602 23.4558367,66.561358 23.4558367,66.8581378 C23.4558367,67.2630919 23.3842663,67.7284278 23.2413353,68.2548448 C23.0984043,68.7810287 22.909089,69.2370392 22.6731794,69.624042 C22.5556443,69.8037884 22.4167012,69.983768 22.2569795,70.1637476 C22.0970479,70.3434941 21.9243134,70.496197 21.7394056,70.6223226 C21.385961,70.8741075 20.9775268,71 20.5149425,71 C19.9765901,71 19.5851565,70.8113944 19.3410615,70.4334839 C19.2149212,70.2444121 19.12656,70.0443829 19.075978,69.8331633 C19.025396,69.6217106 19,69.4216815 19,69.2328428 C19,68.9899169 19.0172105,68.753752 19.0507919,68.5245811 C19.0845832,68.2954102 19.1349554,68.0636748 19.2023281,67.829608 C19.3116777,67.4519306 19.4420156,67.0875419 19.5937618,66.7369081 C19.7448782,66.3860411 19.8670307,66.1030162 19.9593796,65.8871339 L20.249859,65.2257322 C20.2834405,65.1539269 20.3195405,65.0818884 20.3573196,65.0100831 C20.3950988,64.9378115 20.4265813,64.9021419 20.4517674,64.9021419 C20.5109547,64.9021419 20.5403385,64.9424741 20.5403385,65.0236048 C20.5403385,65.0863179 20.5319431,65.1359755 20.5149425,65.1718782 C20.4645703,65.3066298 20.4244825,65.4169022 20.3950988,65.5024625 C20.365715,65.5877896 20.304219,65.7341979 20.2120799,65.9409879 C20.1614979,66.0486959 20.0859397,66.2286755 19.9847756,66.4802273 C19.9344034,66.6063529 19.8838214,66.7324785 19.8332394,66.8581378 C19.5891443,67.5416873 19.4672017,68.0543494 19.4672017,68.3961241 C19.4672017,68.7560833 19.5874652,69.0416727 19.8269428,69.2531255 C20.0668402,69.464345 20.4053831,69.5699548 20.843201,69.5699548 C21.205041,69.5699548 21.5542879,69.4801982 21.8907319,69.3002186 C22.1432223,69.1652339 22.353736,69.0011074 22.521853,68.8078391 C22.6903899,68.6145709 22.8188388,68.4322599 22.9069901,68.2613726 C22.9955611,68.0904852 23.039217,67.9375492 23.039217,67.8025645 C23.039217,67.7219 22.9804495,67.661052 22.8627046,67.6204867 C22.7449597,67.5801545 22.6607962,67.5531109 22.6104241,67.5395891 C22.559842,67.5260673 22.5008646,67.5013551 22.4337018,67.4656856 C22.3075615,67.4022731 22.2105951,67.3213755 22.1432223,67.2225266 C22.0758496,67.1234446 22.0422682,66.988693 22.0422682,66.8178056 C22.0422682,66.5569285 22.1222339,66.2263442 22.2819556,65.8262859 C22.4420971,65.4259945 22.6652038,65.0324639 22.9510657,64.6459274 C23.1865556,64.33073 23.4012669,64.0745155 23.5949898,63.8768177 C23.6957341,63.7777357 23.8262819,63.6632668 23.9862135,63.5327116 C24.1457253,63.4023896 24.3016691,63.2921171 24.4534152,63.2023605 C24.6381131,63.0853271 24.7856615,63.0177182 24.8950111,63 C24.9369879,63.0270436 24.9667914,63.0536209 24.9831623,63.0808976 C25.000163,63.107708 25.0041507,63.1391811 24.9957554,63.1750838" id="Fill-50" fill="#EEF0BB"></path>
            </g>
        </g>
    </g>
</svg>