<?xml version="1.0" encoding="UTF-8"?>
<svg width="86px" height="86px" viewBox="0 0 86 86" version="1.1" xmlns="http://www.w3.org/2000/svg" xmlns:xlink="http://www.w3.org/1999/xlink">
    <title>Khavarmiane-logo</title>
    <g id="Page-1" stroke="none" stroke-width="1" fill="none" fill-rule="evenodd">
        <g id="Artboard" transform="translate(-793.000000, -395.000000)" fill="#F29200">
            <g id="Khavarmiane-logo" transform="translate(793.000000, 395.000000)">
                <path d="M19.9598958,0.00249956403 C24.7657831,-0.00249956403 29.5716704,0.00249956403 34.3800659,0 C37.1241373,2.03964425 39.8932915,4.04929373 42.7577609,5.92146719 C41.0496141,4.00430158 39.201003,2.20711504 37.6358288,0.16747079 C39.9810818,0.172469918 42.3438927,-0.0549904086 44.6816208,0.217462071 C45.9834243,1.04731733 46.668188,2.50706272 47.716654,3.5993722 C47.3479351,2.44207406 46.8889176,1.31727024 46.4524749,0.182468174 C48.120489,0.149973842 49.7985363,-0.0174969482 51.4640421,0.174969482 C52.1387726,0.202464686 52.2942867,0.972330407 52.5225413,1.46974365 C53.5459244,4.27425449 54.7223133,7.01877579 55.7331549,9.82828576 C52.5777237,11.0680695 50.0468572,13.4901471 48.1706548,16.2546649 C38.7645602,10.8431088 29.2355592,5.63901645 19.9598958,0.00249956403 M0.0816824698,0.497413242 C3.50550092,0.497413242 6.92681107,0.50241237 10.3481212,0.492414114 C11.1206751,0.457420217 11.8631295,0.709876184 12.5529098,1.03481951 C24.2716496,6.39388479 36.0681464,11.5854793 47.7618032,16.9970354 C46.1690379,20.18148 45.8279102,23.833343 46.1539881,27.3352322 C30.7530758,31.2895425 15.4424621,35.5837935 0.0540912588,39.5930942 C0.0365332155,35.9087368 0.049074675,32.2218799 0.049074675,28.5375225 C9.75867263,27.3627274 19.4181047,25.8004999 29.1427524,24.7556821 C26.1679182,24.2057781 23.1303768,24.2657676 20.1279513,24.0008138 C13.4659281,23.6083823 6.81393793,23.0584782 0.144389767,22.8035226 C-0.0537652929,19.7215602 0.0390415074,16.6320991 0.0992405131,13.547637 C8.19349848,14.6724409 16.3103311,15.6397721 24.4096056,16.729582 C26.4739299,17.0245306 28.5432707,17.3194792 30.6301695,17.3919665 C20.4966703,14.5299657 10.3907622,11.5704819 0.257262903,8.70348195 C-0.236870602,5.99145498 0.144389767,3.23193629 0.0816824698,0.497413242 M54.2357046,0.509911062 C55.8334866,0.48991455 57.4337768,0.479916294 59.0315587,0.579898855 C59.2221889,1.55472883 59.5106425,2.50956229 59.9295272,3.4119049 C59.9094609,2.44207406 59.8743448,1.46974365 59.9847097,0.504911934 C61.4094195,0.492414114 62.8341293,0.484915422 64.2588391,0.469918038 C64.2312479,1.66470964 64.1284079,2.85450212 64.1008167,4.04929373 C64.7228731,2.95698425 64.9762106,1.71720049 65.3073051,0.519909318 C66.990369,0.492414114 68.6759411,0.499912806 70.359005,0.50241237 C69.4259204,3.53188397 68.0965257,6.42137999 67.0631094,9.41835726 C63.5841085,8.37103993 59.8016044,8.36354124 56.3326367,9.46084985 C55.7181051,6.45887345 54.8903688,3.50438877 54.2357046,0.509911062 M72.5637936,0.572400163 C74.5478525,0.454920653 76.5344196,0.507411498 78.5234951,0.507411498 C77.0109951,3.44939836 75.0018533,6.09643667 73.4567455,9.01592745 C76.1882754,6.25640877 78.7241585,3.30942278 81.4080308,0.504911934 C82.8904313,0.494913678 84.3703235,0.507411498 85.8527241,0.484915422 C85.9229562,1.82218218 86.1512108,3.18694414 85.8426909,4.51171307 C85.8150997,4.83165727 85.5191212,5.00662675 85.310933,5.20659187 C82.5041544,7.48619427 79.6622596,9.72330407 76.8253815,11.965413 C80.0033873,10.8656048 82.8051494,8.95343835 85.9329894,7.73615067 C85.9706138,9.83328489 85.9731221,11.9329187 85.9279728,14.0300529 C82.5743865,15.0948672 79.4114304,16.7245829 75.9725623,17.5244434 C74.2142496,14.1225368 71.3573052,11.2305412 67.7453648,9.82078707 C68.9869693,6.55635645 71.0663433,3.71185258 72.5637936,0.572400163 M76.391447,18.2818113 C79.6120938,17.7069116 82.7299006,16.6670929 85.9605806,16.1346858 C85.9731221,17.5469395 85.955564,18.9591932 85.9079065,20.3714468 C84.1947431,20.8263675 82.4790714,21.2712899 80.7709247,21.7412079 C82.484088,22.1886299 84.2373841,22.4610824 85.9630889,22.8560135 C85.9580723,24.2657676 85.9530557,25.6755217 85.938006,27.0877754 C84.7089429,27.1452654 83.4798799,27.1852584 82.2533252,27.2727431 C83.4522887,27.9051328 84.7340259,28.362553 85.9906801,28.8699645 C85.9329894,30.7496367 85.9781386,32.6293088 85.9053982,34.508981 C82.6822431,33.1917107 79.4741377,31.8444457 76.2685407,30.4871825 C77.8211734,26.6103587 77.7760241,22.2011277 76.391447,18.2818113 M0.0942239293,46.0744638 C15.6055011,40.1854909 31.0114299,34.0190664 46.4900992,28.0451084 C47.4156589,31.7144684 49.7383373,34.9489043 52.7909285,37.1660176 C45.1105387,50.1412544 37.4627567,63.1339883 29.7648088,76.0967273 C27.8961314,79.3011684 26.0700949,82.5306051 24.0358701,85.6325641 C19.9975202,85.8575249 15.9541536,85.7325466 11.9132954,85.6725571 C20.0175865,73.5371737 28.6260443,61.7417311 36.6801696,49.5738534 C30.2965667,55.8502587 24.0032623,62.2166483 17.6397258,68.5155496 C11.7602896,74.3145382 5.77550509,80.0110446 0.0917156374,86 C0.0616161345,79.6786026 -0.0637984605,73.3547056 0.136864892,67.0358077 C1.00975047,66.1484625 2.03564186,65.4385863 3.02140058,64.6862175 C10.9927522,58.4673022 18.9615956,52.2508865 26.9329473,46.0344707 C28.322541,44.9496599 29.7773503,43.9323374 31.003905,42.6575597 C25.3702814,45.6695344 19.566094,48.3540662 13.8898294,51.2835552 C9.29714692,53.6106493 4.70446444,55.940243 0.0666327183,58.1748532 C0.0465663831,54.1405569 -0.0061077468,50.1062605 0.0942239293,46.0744638 M75.8596891,31.3870255 C79.1881925,33.4416672 82.6270607,35.3188397 85.8928567,37.4734639 C86.0433542,39.3831308 85.9505474,41.3002965 85.9129231,43.2124629 C83.8310408,42.3151195 81.8244073,41.2528047 79.820282,40.1954892 C81.6989927,43.0674882 84.0266875,45.6295414 85.8502158,48.5365343 C86.1085698,50.9711097 85.9028899,53.4306807 85.9304811,55.8752543 C82.5116792,53.3182003 79.742525,50.0187758 76.373889,47.4042318 C79.3236402,53.0482474 82.8628401,58.3723188 85.8150997,64.0113352 C86.1135864,70.4877056 85.9179396,76.9840725 85.9254645,83.4704412 C85.955564,84.0428414 85.877807,84.6202407 85.6044032,85.1326513 C79.2208003,69.8678138 72.9174627,54.5704819 66.4360364,39.3456374 C68.2344817,38.4657909 70.1332587,37.7034238 71.6758582,36.3961518 C73.4191211,35.0463873 74.6607256,33.201709 75.8596891,31.3870255 M53.5935819,37.6809277 C57.1403067,39.8105563 61.4721268,40.345463 65.5079684,39.6080916 C69.3255887,54.9704121 73.7050664,70.1877579 77.4900789,85.5575772 C74.3195979,85.4201011 71.1340672,85.8175318 67.9736194,85.4076033 C66.1225,76.8141022 64.344121,68.2056037 62.5532006,59.5996047 C62.2597304,58.2348428 62.0490339,56.8475847 61.5549004,55.5378132 C61.5849999,56.7650991 61.6677735,57.9948846 61.6075745,59.2271697 C61.4495521,62.2316456 61.5248009,65.2411207 61.4620936,68.2480963 C61.3868448,73.9920944 61.2539054,79.733593 61.2363473,85.4775911 C57.9881093,85.5625763 54.7348547,85.6575597 51.4866167,85.4875894 C52.0459658,75.9192583 52.9063099,66.3734232 53.5233497,56.8100913 L53.8318696,56.6926118 C53.7591292,56.6651165 53.6161565,56.6101261 53.5459244,56.5826309 C50.5159077,66.1409638 48.0025993,75.85177 45.1782626,85.4675929 C41.2603106,85.6850549 37.3373421,85.5475789 33.4168818,85.5500785 C34.9168404,81.5757717 36.5948877,77.6714527 38.2704267,73.7696332 C43.4199499,61.7567285 48.3512518,49.6538394 53.5935819,37.6809277" id="Fill-1"></path>
            </g>
        </g>
    </g>
</svg>