<?xml version="1.0" encoding="UTF-8"?>
<svg width="88px" height="83px" viewBox="0 0 88 83" version="1.1" xmlns="http://www.w3.org/2000/svg" xmlns:xlink="http://www.w3.org/1999/xlink">
    <title>Kosar-logo</title>
    <g id="Page-1" stroke="none" stroke-width="1" fill="none" fill-rule="evenodd">
        <g id="Artboard" transform="translate(-1091.000000, -385.000000)">
            <g id="Kosar-logo" transform="translate(1091.000000, 385.000000)">
                <path d="M51.5129832,2.34515225 C54.395835,1.40838683 57.2457869,0.0317489509 60.3342629,0.0113844852 C61.0457227,-0.110802308 61.0374978,0.781161286 61.2225596,1.22103374 C62.1108563,4.5037856 63.3692766,7.68471513 64.1054113,11.0122688 C63.8709997,11.6802233 62.9991529,11.4969431 62.456305,11.6394944 C55.7323925,12.4051983 49.1277421,14.396843 43.1728643,17.598137 C36.527089,21.3044697 30.8806475,27.1001967 28.1746326,34.2399783 C26.0772654,38.9604614 25.4110429,44.1859833 25.5303049,49.30561 C25.3658056,54.335633 26.7722753,59.2556879 28.5735436,63.9110047 C25.5015176,58.3963074 23.6097746,52.2828948 22.7379278,46.0554413 C22.5734285,41.7544661 22.3431293,37.3679602 23.494625,33.1728803 C24.452834,28.155076 26.7722753,23.4875405 29.7250393,19.3372624 C35.2481063,11.8553577 42.9096652,5.96188134 51.5129832,2.34515225 M50.2751253,23.1046885 C51.8666569,22.9051167 53.4047262,23.4753218 54.9551329,23.731914 C65.3761691,25.7317046 75.1679951,31.7310761 80.9049113,40.6751494 C86.6706148,49.8635963 88.8214443,61.0314693 87.7234109,71.7309595 C87.3944121,75.4169278 86.3087162,78.9847822 85.1860078,82.495616 C85.0338459,83.2572471 84.1003119,82.9436343 83.5739138,82.8947596 C79.9796022,82.0801809 76.4510904,80.9886456 72.8814537,80.0559531 C76.0933042,73.5108138 78.4209705,66.3913966 78.6307073,59.0642619 C78.7458568,54.7714325 78.3880707,50.3889995 76.821214,46.3486896 C73.995937,38.0196231 67.4077365,31.4256092 59.9106769,26.9902285 C58.1052962,26.1430668 56.2875779,25.3040508 54.4328473,24.5668571 C53.0716149,24.000725 51.5335456,23.9111213 50.2751253,23.1046885 M45.6814799,33.4824202 C49.958464,32.6067482 54.7371712,33.1932448 58.282133,35.8691356 C62.5961294,38.8342017 64.9320208,44.1859833 64.6112469,49.3178287 C64.2082234,51.973355 63.5666758,54.7184849 61.8928946,56.8974828 C58.9401306,60.9418656 53.9475741,63.7236516 48.8234182,63.328581 C41.3674835,63.4344762 34.5530964,57.0929816 34.0595982,49.7495553 C33.5126377,45.0657282 35.3468059,40.2067667 38.8465304,37.0217643 C40.820523,35.3681697 43.1276269,34.0159692 45.6814799,33.4824202 M46.5204268,34.4354772 C42.4943043,35.3111492 38.7396058,37.8444887 36.8684252,41.5386028 C35.6511298,43.929391 34.8615327,46.6256463 35.1165068,49.3219015 C35.5688801,52.6372365 36.8972126,55.9240613 39.4140533,58.2293188 C43.2715639,62.0741299 49.5842279,63.4018931 54.6137967,61.1699476 C58.1176336,59.9154966 60.8647734,57.0278153 62.312368,53.6676785 C65.400844,47.171414 62.1478686,38.6427758 55.5761181,35.6777096 C52.8166409,34.2440512 49.567778,33.7390124 46.5204268,34.4354772 M2.3646787,59.8829134 C4.40858359,57.9686536 6.10292728,55.7285624 8.1386072,53.8061569 C9.89875065,55.7285624 11.3998076,57.8709042 13.2627631,59.6996332 C19.2053035,66.1551688 26.9367747,71.3806907 35.712817,73.0220666 C45.4306184,74.8548685 55.5185433,71.7961258 63.4844261,66.2529183 C66.6510394,64.0413373 69.1349801,61.0721982 71.7464079,58.2781935 C69.287142,62.4366174 65.9478045,65.9922531 62.4439675,69.3035152 C56.4890897,74.8304312 48.7164936,78.3697753 40.6148988,79.2658118 C36.7368257,79.3024678 32.7929529,79.6201535 28.9806796,78.7567002 C25.7235917,78.1416933 22.4911788,77.3556249 19.4273777,76.0726636 C13.2380882,73.9710507 7.62043413,70.3624674 2.92397661,65.8700663 C1.87529302,64.9047906 0.814271968,63.9272963 0,62.7502302 C0.493498163,61.5976014 1.55451921,60.8074602 2.3646787,59.8829134" id="Fill-1" fill="#940509"></path>
                <path d="M46.6855687,34.3083662 C49.7951303,33.6150805 53.1103174,34.117814 55.9261283,35.5449283 C62.6320384,38.4964603 65.951422,46.9861691 62.799896,53.4527811 C61.3227493,56.7975804 58.5195278,59.6720807 54.9441614,60.9208058 C49.8119161,63.1425634 43.3703816,61.8208609 39.4341215,57.9935996 C36.8659006,55.6988645 35.5104506,52.4270427 35.0488423,49.1268407 C34.7886631,46.4428926 35.5943794,43.7589446 36.8365255,41.3790692 C38.7459054,37.7018171 42.5772546,35.1800412 46.6855687,34.3083662" id="Fill-2" fill="#FECB05"></path>
            </g>
        </g>
    </g>
</svg>