<?xml version="1.0" encoding="UTF-8"?>
<svg width="86px" height="86px" viewBox="0 0 86 86" version="1.1" xmlns="http://www.w3.org/2000/svg" xmlns:xlink="http://www.w3.org/1999/xlink">
    <title>Maskan-logo</title>
    <g id="Page-1" stroke="none" stroke-width="1" fill="none" fill-rule="evenodd">
        <g id="Artboard" transform="translate(-523.000000, -664.000000)" fill="#F25920">
            <path d="M523,664 L609,664 L609,749.988892 C580.333333,750.00661 551.666667,750 523,749.993322 L523,664 M535.004635,676 C535.007619,696.666029 534.986733,717.332057 535.015078,737.996597 C555.676014,737.998086 576.335458,738.005531 596.994902,737.992129 C596.99341,717.330568 597.012805,696.667518 596.984459,676.005956 C576.325015,675.995533 555.665571,676.005956 535.004635,676 M564.721726,695.656142 C565.315476,695.435493 565.885417,695.149519 566.502976,695 C567.150298,695.161132 567.752976,695.451461 568.373512,695.686627 C574.159226,697.938124 579.934524,700.217202 585.727679,702.452731 C588.688988,703.643077 591.662202,704.807295 594.642857,705.948285 C594.778274,706.017964 595.025298,706.0499 594.995536,706.256033 C595.005952,710.500635 594.994048,714.74814 595,718.994193 C593.232143,718.430956 591.544643,717.655779 589.803571,717.01996 C582.160714,714.020867 574.505952,711.050807 566.864583,708.04736 C566.282738,707.849936 565.733631,708.227363 565.208333,708.420432 C560.897321,710.117402 556.572917,711.782435 552.260417,713.477953 C547.501488,715.298312 542.787202,717.24061 538.005952,719 C538.001488,714.703139 538.011905,710.40773 538,706.110869 C538.791667,705.731991 539.622024,705.446017 540.449405,705.160044 C543.543155,703.908728 546.654762,702.698058 549.772321,701.504809 C554.754464,699.55235 559.733631,697.592633 564.721726,695.656142" id="Maskan-logo"></path>
        </g>
    </g>
</svg>