<?xml version="1.0" encoding="UTF-8"?>
<svg width="92px" height="77px" viewBox="0 0 92 77" version="1.1" xmlns="http://www.w3.org/2000/svg" xmlns:xlink="http://www.w3.org/1999/xlink">
    <title>Mehr-logo</title>
    <g id="Page-1" stroke="none" stroke-width="1" fill="none" fill-rule="evenodd">
        <g id="Artboard" transform="translate(-672.000000, -669.000000)" fill="#289925">
            <g id="Mehr-logo" transform="translate(672.000000, 669.000000)">
                <path d="M32.462272,0.56809004 C44.3112267,-1.56192544 57.0425915,2.40417866 65.6855852,10.6799377 C59.6628482,17.6005794 54.6766538,25.4030018 50.9119615,33.7398366 C50.1605644,35.3888808 49.6133932,37.1257214 48.6963033,38.6946038 C46.0336602,33.6749436 42.5348468,28.9492103 37.7451718,25.7351009 C34.0190127,23.1661038 29.5761363,21.6201248 25.036927,21.4292632 C24.3818628,21.4063598 23.7537718,21.5895869 23.1218276,21.7231901 C24.0157975,23.5554614 25.1872064,25.2464952 25.907777,27.1627457 C28.000129,32.4877844 28.9210721,38.1601913 30.5510259,43.6264676 C32.0538202,48.8522582 34.203972,53.9749836 37.5139727,58.3457143 C40.2960687,62.0598811 43.8334152,65.1861942 47.7560936,67.6788467 C48.3225314,68.0414838 49.3552208,68.621703 49.6981662,67.6788467 C50.1528578,65.5297451 50.2183642,63.308116 50.6961757,61.1551971 C53.1237664,48.7835481 58.4567594,37.0264733 65.805038,26.7657536 C71.850895,18.4632739 79.457346,10.9700474 88.8825633,6.54587543 C89.8805728,6.1259799 90.8708757,5.49231938 92,5.5533951 C92.011458,6.80544721 91.0365684,7.77502415 90.5972901,8.89347314 C87.7265677,15.0659374 86.2623067,21.7422762 84.5706998,28.2964636 C82.3974281,36.8012567 80.4091157,45.4549217 76.5519437,53.4062161 C72.5175191,61.777406 65.6393453,68.8087474 57.181311,72.8359272 C48.8273162,76.8478381 39.0861267,78.0922557 30.0269746,75.9927781 C21.264528,74.0116347 13.318985,68.8469197 7.89736569,61.762137 C2.98053112,55.3835423 0.175315158,47.4436996 0.0134757754,39.4198778 C-0.221576661,30.77003 2.62602581,22.0705582 7.95131215,15.207175 C13.850743,7.48109728 22.8020021,2.11025179 32.462272,0.56809004" id="Fill-1"></path>
            </g>
        </g>
    </g>
</svg>