<?xml version="1.0" encoding="UTF-8"?>
<svg width="87px" height="86px" viewBox="0 0 87 86" version="1.1" xmlns="http://www.w3.org/2000/svg" xmlns:xlink="http://www.w3.org/1999/xlink">
    <title>Mehr-Eghtesad-logo</title>
    <g id="Page-1" stroke="none" stroke-width="1" fill="none" fill-rule="evenodd">
        <g id="Artboard" transform="translate(-371.000000, -671.000000)">
            <g id="Mehr-Eghtesad-logo" transform="translate(371.000000, 671.000000)">
                <path d="M18.1841751,24.9785897 C26.6886883,16.6983333 35.0595352,8.28025641 43.5696178,0 C46.8110236,3.06512821 49.9243326,6.2625641 53.1156136,9.37730769 C55.0760515,7.83923077 56.9473785,6.11923077 59.3422316,5.25923077 C59.3310928,8.52282051 58.6460534,11.9517949 59.9827156,15.0610256 C60.8793931,17.2937179 62.7729979,18.8814103 64.4382562,20.5407692 C71.9347033,28.0271795 79.5202612,35.4308974 87,42.9338462 C83.9201075,46.3132051 80.394661,49.2680769 77.3816017,52.7080769 C79.1415402,54.4170513 80.7455349,56.3630769 81.5531016,58.7060256 C77.1922412,58.3421795 72.1129249,57.8680769 68.6988669,61.1923077 C60.2444786,69.4008974 51.9348953,77.7528205 43.519493,86 C40.2558095,82.9183333 36.9587094,79.8476923 33.9734972,76.5014103 C41.8430958,68.4637179 49.9020549,60.6024359 57.8607644,52.6529487 C60.9852122,49.4224359 65.8306126,48.005641 70.2248896,49.0475641 C72.5027847,49.4444872 74.4520837,50.7124359 76.4626464,51.7598718 C68.7434223,43.7497436 60.6009218,36.1420513 52.7814481,28.225641 C49.8407912,25.155 48.6934895,20.6344872 49.6180142,16.5219231 C50.007874,14.5042308 51.0883426,12.7346154 51.9293259,10.8823077 C44.2490878,18.3742308 36.7025158,25.9984615 29.0556943,33.5289744 C26.7276743,35.8553846 23.4751296,37.2997436 20.1501824,37.2832051 C13.7564817,37.5037179 7.79162666,33.0989744 5.44132898,27.3380769 C9.75206453,27.7074359 14.7868254,28.2311538 18.1841751,24.9785897 M0,42.9283333 C3.2191281,39.8411538 6.31572883,36.6271795 9.55713463,33.5620513 C17.7219128,41.4564103 25.7418859,49.4885897 33.8509698,57.4380769 C37.253889,60.6741026 38.4791627,65.8010256 37.1926253,70.2608974 C35.9172268,75.035 32.1968504,78.8829487 27.6633378,80.8124359 C27.8192817,76.5510256 28.5655848,71.5564103 25.2350682,68.1991026 C18.6074515,61.5120513 11.8405992,54.9628205 5.21298252,48.2757692 C3.48646053,46.4785897 1.54273094,44.8853846 0,42.9283333" id="Fill-1" fill="#00A652"></path>
                <path d="M41.1193445,29.2588292 C44.92147,28.5513561 49.0464699,29.2811118 52.1805792,31.6096453 C56.8678262,34.8740486 59.061146,41.2301649 57.5024415,46.7116886 C55.7711662,53.0845169 49.1967736,57.769437 42.5778465,56.8948443 C35.8141826,56.3600615 30.080377,50.2434833 30.0191422,43.4472852 C29.6517333,36.8293482 34.6173203,30.5010851 41.1193445,29.2588292" id="Fill-2" fill="#F7941F"></path>
            </g>
        </g>
    </g>
</svg>