<?xml version="1.0" encoding="UTF-8"?>
<svg width="63px" height="85px" viewBox="0 0 63 85" version="1.1" xmlns="http://www.w3.org/2000/svg" xmlns:xlink="http://www.w3.org/1999/xlink">
    <title>Melli-logo</title>
    <g id="Page-1" stroke="none" stroke-width="1" fill="none" fill-rule="evenodd">
        <g id="Artboard" transform="translate(-267.000000, -668.000000)">
            <g id="Melli-logo" transform="translate(267.000000, 668.000000)">
                <path d="M30.1265092,2.51486721 C30.9718238,1.90263362 31.3049217,0.8979426 31.7354351,0 C32.0119692,0.794333838 32.2476517,1.67029882 32.945272,2.2134599 C36.3045333,4.97949987 40.7793585,5.7047612 44.4025842,8.01555055 C46.0586466,9.03907953 47.642433,10.2290105 48.8616972,11.7580246 C50.5397567,13.8113619 51.419638,16.3984413 53.1731159,18.3952647 C54.0404275,19.4187936 55.2094127,20.0938204 56.2904098,20.863037 C55.2094127,21.6385329 53.9367272,22.0529679 52.6923235,22.4768219 C53.3899438,23.1047538 54.4332317,23.9618808 55.385389,23.3841835 C55.5865047,22.9163742 55.668208,22.4077494 55.8441843,21.9305212 C56.3752555,21.7233037 56.8246235,22.1063421 57.2582793,22.3512355 C57.3619796,22.863 57.4719648,23.3747645 57.5945197,23.886529 C58.9300539,24.1094448 59.184591,25.4877553 59.3291429,26.6117534 C59.1688788,26.8346692 59.0086147,27.057585 58.851493,27.2805009 C59.2505821,27.9398294 59.6088195,28.6211354 59.9010658,29.3369778 C59.5459708,30.1752669 59.2348699,31.0512319 58.6598046,31.7702139 C58.6220954,32.1030178 58.5875286,32.4358217 58.5529619,32.7717652 C59.7690836,33.5817974 59.6025346,35.0794149 59.5553981,36.3478373 C60.2467335,35.7638607 60.4698463,34.5362538 61.3842944,34.3290363 C62.2390363,34.8721974 62.3804458,36.0087541 62.5878464,36.9192553 C62.817244,37.6193994 62.323882,38.222214 62.0567751,38.8281683 C62.4024428,39.4152846 62.983793,39.945887 62.9712233,40.6774277 C63.1629117,41.4780409 62.3521639,41.8799173 61.8650867,42.3383075 C61.6891104,42.9630998 61.7142499,43.8170871 60.9600659,44.040003 C60.0613299,44.3916448 59.3448551,45.016437 58.8263536,45.8233295 C59.8256474,45.9803125 59.7659412,46.9598862 60.0047661,47.7134045 C60.29387,48.0619067 60.6521074,48.3413364 60.9789205,48.6521627 C61.5791253,48.4732021 62.2138968,47.9614376 62.8486684,48.3193588 C62.9869354,49.3397481 62.8266713,50.400953 62.4212974,51.3491301 C62.4338671,51.7478669 62.8298138,52.3161452 62.3490214,52.576737 C61.9279354,52.8216304 61.4628552,52.9754737 61.0197721,53.1701326 C61.7708137,53.9990027 61.8430897,55.1449784 61.3748671,56.1402504 C60.9192142,56.2846748 60.4384219,56.3160714 59.9701993,56.3851439 C59.3699946,57.785432 57.3054158,56.9659809 56.7931992,58.4887157 C56.9314662,59.223396 56.9220389,59.9706349 56.9031843,60.7147342 C57.5913772,60.5483323 58.2827126,60.3819303 58.9897601,60.2877406 C59.7313744,61.2359177 58.9646207,62.2814243 58.6818016,63.2452997 C58.336134,63.8072988 57.886766,64.2970857 57.5222437,64.8496657 C57.2331398,64.7648949 56.6580745,64.5953533 56.3689706,64.5137222 C56.3909677,65.1950283 56.5826561,65.8512171 56.7272081,66.5136852 C56.5292348,66.8998633 56.1804246,67.1761534 55.8850359,67.4869796 C55.7279142,68.0301407 55.5770774,68.8276142 54.8166085,68.6674916 C52.9877123,68.4320171 51.2939407,69.373915 49.9238397,70.4884941 C50.2946469,70.8432756 50.7691543,71.1980571 50.7534421,71.7726148 C50.9514154,72.5104348 50.1595222,72.8934732 49.7730029,73.3832601 C49.8955578,74.6893584 48.2772046,75.1603073 48.5348841,76.5229195 C49.389626,76.6736232 50.2506528,76.8023492 51.0991098,76.9813098 C50.9985519,77.3455103 50.9137062,77.7159901 50.7660119,78.067632 C50.4140593,78.1649614 50.0558219,78.2434529 49.6944421,78.3062461 C49.3079228,78.6327707 48.9591126,79.0189488 48.5034598,79.2481439 C48.14208,79.19163 47.7901274,79.0880213 47.4381749,78.9969712 C47.221347,79.9231707 46.4105991,80.4788904 45.6721273,80.9812359 C43.7112488,80.7708787 41.602676,80.1963211 39.7297857,81.1225206 L40.3142783,81.3831123 C40.1822961,81.6374247 39.9246166,82.1429099 39.7926344,82.3940827 C41.979768,82.0518598 44.4182964,81.6688213 46.4734478,82.7049089 C45.3327445,82.9027075 44.1731866,82.8399143 43.0293408,82.97178 C43.4975634,83.6844827 44.0537741,84.3343922 44.5879878,85 C43.1896049,84.695453 41.7566553,84.5070735 40.3237056,84.6671961 C39.0573049,84.695453 37.5709339,84.9591844 36.5150763,84.0832194 C36.1599813,83.6373878 36.9173078,83.3548185 37.0932841,83.0157352 C35.7231831,82.9058472 34.1362542,82.9246851 33.2563729,81.662542 C32.4487675,81.5966092 31.6348772,81.505559 30.8366991,81.6970783 C30.6135864,81.5463746 30.3904736,81.3925313 30.1673608,81.2418277 C29.3283311,82.5950209 27.6502716,82.5761829 26.2550312,82.7300262 C26.5567048,83.0439922 26.855236,83.3642374 27.1474823,83.690762 C24.8377937,85.3610608 21.8430547,84.7770842 19.2254076,84.4066044 C19.6684908,84.0267056 20.1147163,83.6530861 20.5577994,83.2731873 C19.4893721,82.676652 18.2481109,82.4443172 17.2519595,81.7221955 C19.4045264,81.671961 21.5539508,82.262217 23.7065177,81.8509216 C23.5368263,81.4521848 23.3702773,81.0503084 23.2068708,80.648432 C23.7410845,80.4506335 24.2972952,80.2622539 24.8755029,80.3470247 C26.5284229,80.500868 28.2284794,80.3564437 29.7808415,79.7442101 C27.1317701,79.496177 24.4858412,80.2873712 21.8210577,80.0424777 C18.6157756,79.9702656 15.8410069,78.1837994 13.3239177,76.3784952 C12.6828613,75.8007978 11.8186921,75.9452222 11.0330837,75.9640601 C11.9695289,74.6611015 13.4936091,74.001773 15.0616834,73.8793263 C14.8448555,73.2388357 14.653167,72.5920659 14.4709059,71.9421564 C11.846974,70.8495549 9.35502428,69.3330994 7.30301526,67.3582536 C6.05861163,66.2279762 5.80407452,64.5043032 5.06560267,63.0757581 C4.7859261,62.4101503 4.01917234,62.2814243 3.44410703,61.9831567 C4.71993499,61.2108004 6.2722971,61.3363868 7.61411617,61.8638496 C7.77123784,60.9093931 7.96292628,59.961216 8.12319038,59.0098992 C5.88892022,57.6661249 4.00346017,55.766631 2.62707434,53.5563107 C1.85403572,52.3349832 1.76919001,50.8593433 1.45808911,49.4873121 C1.31353717,48.6333247 0.562495582,48.1498172 0,47.5815388 C1.41723747,47.3868799 2.85961441,47.6129354 4.07573614,48.3884313 C4.33655812,47.6192147 4.63194686,46.8594171 4.908481,46.0996195 C3.23356399,44.583164 1.89488735,42.6051786 1.51151047,40.3509031 C0.986724093,38.0809293 1.89802978,35.7983969 1.47694371,33.5190042 C2.3693948,34.589628 3.20213965,35.7104865 3.95318124,36.8847191 C4.44025842,35.9334023 5.08445727,35.0762753 5.81664426,34.3007794 C5.07502997,33.3306246 4.45282815,32.2191852 4.35227028,30.9790197 C3.99089044,27.7640084 5.49611605,24.781332 6.69966805,21.9054039 C7.83094408,22.4831012 8.7642468,23.5537251 8.5662735,24.9163373 C9.49957622,23.8205962 10.6497069,22.9446312 11.8501164,22.1597163 C10.5774309,21.4941085 9.16962071,20.9101319 8.32744856,19.6793854 C9.8358166,19.1079673 10.9073864,17.8364053 11.8155497,16.5585639 C13.1856506,14.4895283 14.4049148,12.2917667 16.1363956,10.4896022 C17.981004,8.46138219 20.3409715,6.93864736 22.8957699,5.95593396 C25.3814347,4.99519817 27.9927969,4.16946774 30.1265092,2.51486721 M31.6882986,1.77390758 C29.4477436,4.53052857 25.8150905,5.39393492 22.6757995,6.70945222 C20.1492831,7.7329812 17.8773037,9.36560411 16.1018288,11.4346397 C13.6633005,14.1630037 12.4000423,17.8709415 9.31417265,20.0247479 C10.310324,20.6840764 11.3850363,21.2083995 12.4251817,21.7923762 C13.9178376,22.58671 14.8260009,24.1000259 16.2715202,24.9571529 C18.408375,21.6730691 21.1642891,18.687253 24.6712448,16.8536919 C28.3510343,14.8317512 32.9012779,14.4204558 36.8481743,15.8992354 C41.2758629,17.506741 44.7136851,21.0325786 47.1930651,24.9383149 C48.1043708,24.5427178 48.9685399,24.034093 49.7164391,23.3779042 C51.2562315,22.0090127 53.3616619,21.6856277 55.2031278,20.8944336 C54.3358162,20.263362 53.427653,19.6699664 52.7300327,18.8473756 C50.9199911,16.787759 50.0338249,14.1159088 48.280347,12.0186163 C46.5991452,9.9778377 44.3020263,8.56185129 41.9671983,7.384479 C38.4539577,5.72359916 34.3719367,4.76600303 31.6882986,1.77390758 M27.9330907,16.1818048 C23.3828471,17.5130204 19.6999151,20.8850146 17.1419743,24.7844716 C12.4188969,31.9931297 10.9168137,41.0353489 12.2712025,49.4747534 C13.2704963,55.7823293 15.8535766,62.0082739 20.4006777,66.5858974 C28.0053666,66.5827577 35.6069131,66.4728696 43.2053171,66.2687918 C46.7405547,62.6330662 49.0251038,57.9392753 50.310359,53.0759428 C52.4189318,44.9850404 51.8407241,36.1563181 48.3840473,28.5175267 C46.3697475,24.1471207 43.3215871,20.0844014 39.1044415,17.6323274 C35.7766045,15.6731799 31.6537318,15.0672256 27.9330907,16.1818048 M11.2059176,27.2961992 C12.2554903,26.5269826 13.521891,26.2035977 14.8071463,26.1470838 C14.0749593,27.9649466 13.1982204,29.7325749 12.1329354,31.3808961 C11.1524962,32.9130499 9.48386405,33.7764562 7.87493814,34.5079969 C7.93150195,35.1955823 7.97863845,35.8831677 8.01949008,36.5707531 C8.84280764,35.9585196 9.68183736,35.3714032 10.5208671,34.7780076 C10.1594872,36.4263288 10.8885318,38.1123259 10.404597,39.7449488 C9.58442192,42.4701732 7.93778681,44.9442249 7.62982834,47.8170133 C8.45943076,46.7620877 9.29846048,45.7040225 9.9206623,44.5078122 C10.2914694,45.744838 9.69440709,47.0509364 10.1751994,48.2597052 C10.6717039,49.6380157 11.1336416,51.0885384 10.8853894,52.5735973 C10.7691193,54.5453034 9.8640985,56.3506076 9.61270382,58.2909171 C9.91751987,59.1731615 10.7251253,59.804233 11.2059176,60.5985668 C11.6050066,59.3835186 12.3309087,58.3066154 12.6765764,57.06645 C13.3176328,58.1056772 13.6538732,59.2830495 14.0058257,60.4415839 C14.4017724,61.7759391 15.2753688,62.9093562 15.6210365,64.2625494 C16.1552502,66.0804122 16.1552502,68.0270011 15.7561612,69.8762605 C16.494633,70.1965057 17.2205351,70.5418683 17.9401524,70.9092084 C17.6290515,69.5403169 17.9118705,68.1243305 17.5881998,66.7522993 C18.4240871,67.345695 18.8420308,68.2938721 19.4328083,69.0944853 C20.3346866,70.1085953 21.7519241,70.5293096 22.5595295,71.6470284 C23.6059598,73.2074391 23.926488,75.0943745 24.5926839,76.8211872 C24.7655178,77.4805156 25.5668383,77.5778451 26.028776,77.9608835 C24.847221,77.0598013 25.4254288,75.5370664 25.3594377,74.296901 C25.4097166,73.0598752 26.9337968,73.5025671 27.7382598,73.4900085 C29.0800788,73.687807 30.2427792,72.8714956 31.524892,72.692535 C32.7127319,72.7678868 33.7560198,73.6312932 34.9878537,73.4177963 C36.0028597,73.4491929 37.2189814,73.0190596 38.0925779,73.706645 C38.4602426,74.554353 38.4382456,75.6155579 38.1334295,76.4789643 C37.3572485,77.0880582 36.5465006,77.6626159 35.9148715,78.4381118 C37.332109,78.2999668 38.2465571,77.2952757 38.9190379,76.158719 C39.0133109,75.5464854 39.0227382,74.8745983 39.4469667,74.3785321 C39.9874652,73.8071141 39.9340439,72.9939423 40.1728688,72.2969379 C40.6788006,71.9264581 41.2318689,71.6219111 41.7252309,71.2294537 C42.2531597,70.7428065 43.1110441,70.8715325 43.5635545,70.2749972 C43.9500738,69.9704503 44.2894566,69.3487977 44.8676643,69.5089203 C45.3610264,69.5528756 45.4238751,70.1148746 45.640703,70.4602371 C46.8191155,69.4461271 47.5293054,67.9893252 47.6015814,66.4351937 C47.504166,65.6879548 47.0799375,65.0349056 46.8285428,64.3316219 C47.3753262,63.584383 47.953534,62.837144 48.8271304,62.4572452 C48.6417269,61.7759391 48.6197298,61.0443985 49.1633708,60.513796 C49.9898308,59.7257415 49.7478634,58.2595206 50.9199911,57.8042699 C51.441635,58.4604588 51.9444244,59.1354855 52.550914,59.7257415 C53.2485343,58.8591955 53.6067717,57.7791527 53.7733206,56.6928305 C53.943012,55.166956 52.6200476,54.0523769 52.3749378,52.6269715 C52.5634838,51.7164703 52.8274482,50.7494552 53.7953177,50.400953 C53.4465076,49.9237247 53.0851277,49.4496362 52.7363176,48.9724079 C53.094555,48.6553023 53.4873592,48.382152 53.8864482,48.1152809 C53.9995759,47.4936283 53.6727628,46.5109149 54.5180774,46.3319543 C55.0648608,46.0807816 55.4985166,46.8091826 55.9761665,47.0164001 C55.3068282,45.4748273 53.7921752,44.2346618 54.1032762,42.3979611 C53.754466,42.13109 53.4056559,41.8610793 53.0757004,41.5722306 C53.4905016,40.9034832 53.4653622,40.1656632 53.3396648,39.4247036 C54.1629824,38.2473313 53.7041871,36.8093673 53.1731159,35.6162967 C53.543923,35.4718723 53.8895907,35.1013925 54.3138192,35.179884 C54.7411901,35.5378052 55.0805729,35.9867765 55.457665,36.3949322 C55.7970478,35.9239833 56.1332881,35.4498947 56.4695285,34.9758062 C56.0515849,34.4483434 55.6556383,33.8863443 55.1277094,33.4624903 C54.4615136,32.9161896 53.5344957,33.0009604 52.789739,32.6336202 C52.4189318,32.2443024 52.1612523,31.7670742 51.869006,31.3212426 C50.8288605,30.6681934 49.4996112,29.5693126 50.1563798,28.2035607 C49.6441631,27.2710819 49.0313886,26.3291841 48.8868367,25.2616998 C48.7737091,25.1361135 48.6605815,25.0136668 48.5474539,24.89122 C48.2834895,25.038784 47.7524182,25.333912 47.4884538,25.481476 C51.8878606,33.013519 53.0631307,42.1844642 51.4793442,50.6992206 C50.288362,56.9126067 47.5764419,63.0286632 42.9067859,67.4116278 C39.8680528,70.3063938 35.7828893,72.2529827 31.5311769,72.1870498 C26.8458087,72.1964688 22.4558292,69.7506741 19.3416777,66.3629816 C15.0962501,61.7790788 12.6702915,55.7634913 11.6647128,49.6568537 C10.3543181,41.4340856 11.658428,32.6775754 15.9729891,25.490895 C14.536897,24.6714439 13.616164,23.2428988 12.2523479,22.3292579 C11.3630392,23.8362945 11.32533,25.6039227 11.2059176,27.2961992 M54.8794572,24.2946847 C55.3099706,25.1643704 56.3783979,25.2836775 57.0131695,25.933587 C57.3399826,26.4736084 56.9188965,27.095261 56.8434781,27.6541203 C58.1193061,29.2113914 57.3085582,31.3243822 57.3085582,33.1359657 C57.5630953,33.0009604 57.8176325,32.865955 58.075312,32.72781 C58.1193061,32.3479112 58.1664426,31.9711521 58.2167215,31.5912533 C58.6723743,30.8816902 59.0494664,30.1313116 59.4077038,29.3683744 C59.1028877,28.7592805 58.7477927,28.1721641 58.5309648,27.5253943 C58.5749589,26.7247811 58.9206266,25.8582351 58.4775435,25.1078565 C58.0564574,24.6086507 57.3399826,24.3700366 57.1011576,23.7232667 C56.8529054,23.1832453 56.6297926,22.6338049 56.3752555,22.0969231 C56.1301457,22.9885864 55.7499113,23.8488531 54.8794572,24.2946847 M4.77021393,30.0088649 C4.73878959,31.4845049 5.21329704,33.0260776 6.36971254,34.0056514 C6.66195885,32.146973 6.44827337,30.2286411 6.92278082,28.3919403 C7.19617253,27.0136298 8.07291145,25.795442 8.07291145,24.3574779 C8.06976902,23.60082 7.42557017,23.0859159 7.02019626,22.5176375 C5.88892022,24.8692424 4.80792313,27.3558527 4.77021393,30.0088649 M48.8177031,24.7844716 C49.8012848,25.2271636 50.8979941,25.2114653 51.9318547,25.4532191 C51.9381395,24.5458575 51.8941455,23.6353563 51.7873027,22.734274 C50.7251602,23.3119713 49.816997,24.1157242 48.8177031,24.7844716 M52.2523829,22.8284638 C52.412647,23.8048979 52.4189318,24.8001699 52.3309437,25.786023 C52.7080357,26.1408045 53.0788429,26.505005 53.4465076,26.8723451 C53.1825432,27.1863111 52.9154363,27.4971374 52.6483295,27.8111033 C52.9500031,28.5771802 53.7167568,28.8440513 54.370383,29.2270897 C54.4803682,29.6509437 54.5275047,30.0873564 54.5903533,30.5206294 C55.3916739,31.3526392 56.2966947,32.0998781 56.9063268,33.0951501 C56.9000419,31.6383482 57.1231547,30.1846858 56.9974573,28.7247442 C55.9855938,28.1125106 56.400395,27.0732833 56.7177808,26.191039 C56.0987214,25.8582351 55.4388104,25.5913641 54.8511753,25.2083256 C54.6092079,24.8535441 54.4740833,24.4391091 54.2384008,24.0780482 C53.5722049,23.6698925 52.8651574,23.3213903 52.2523829,22.8284638 M8.24888772,26.2130167 C7.18046036,28.081114 7.08618736,30.2882946 6.99505679,32.3824475 C7.26216363,32.7717652 7.51984317,33.170502 7.77438028,33.5692387 C8.58827053,32.4829166 9.47129432,31.427991 10.0463596,30.1878255 C11.136784,27.9555276 10.5805733,25.3778672 11.2970481,23.0451003 C10.1751994,23.9838585 8.95593524,24.8974994 8.24888772,26.2130167 M49.3393471,25.5411295 C49.7824302,26.4641894 50.2255133,27.3872493 50.7785816,28.2506556 C50.6246024,28.5489233 50.4737656,28.8471909 50.3229288,29.1454586 C50.8414303,29.8550216 51.4604896,30.4892328 52.2083888,30.9633214 C52.6263324,31.6006723 53.0034245,32.432682 53.8833058,32.4640786 C54.9831575,32.6210616 55.7939053,33.4059764 56.6046532,34.0872825 C56.3186917,32.1846489 54.0121456,31.5096221 53.8864482,29.547335 C52.9437182,29.2679053 52.3749378,28.5175267 52.151825,27.5881875 C52.3246588,27.3935286 52.6766114,27.0073505 52.8494452,26.8158313 C51.869006,25.9430059 50.6308872,25.5788055 49.3393471,25.5411295 M11.4447425,27.8613379 C11.0959324,28.4233369 10.9828048,29.0889447 10.7502647,29.7011783 C10.2443329,31.2427511 9.16962071,32.4860562 8.27402719,33.8047132 C9.15705098,33.3526022 10.0589294,32.9004913 10.7911164,32.2191852 C12.3529058,30.6776124 13.1730809,28.5740406 14.087529,26.6211724 C13.1573687,26.8817641 12.0826565,27.0607247 11.4447425,27.8613379 M57.7233595,33.5252835 C57.2205701,34.5676504 56.7020686,35.6068777 55.9573119,36.5048203 C56.3375463,36.8658811 56.7303505,37.2206627 57.0634484,37.6288184 C56.7240656,38.0275551 56.255843,38.2755882 55.8316145,38.5644369 C56.0578697,39.4090053 56.4349617,40.2001995 56.7083535,41.0259299 C56.6203653,41.4811805 56.3249766,41.8548 56.1238608,42.2629557 C56.4820983,42.7182063 56.9251814,43.1263621 57.1577214,43.6663835 C57.3619796,44.740147 57.1985731,45.8421675 57.2739915,46.92535 C57.7170746,46.1561334 58.0690271,45.3366823 58.2984248,44.4795553 C58.6000984,43.2519484 59.2820064,42.1719056 59.8036504,41.0353489 C59.3102883,40.131127 59.0368966,39.1232963 59.728232,38.2379123 C58.6880865,37.1610091 59.1343121,35.6885088 59.0934604,34.3667122 C59.0054723,33.7701769 58.2921399,32.8063015 57.7233595,33.5252835 M4.19829105,37.8894101 C3.85262337,39.9427474 4.58795279,41.9584087 5.24786381,43.8704613 C5.62809825,44.2064049 5.99576296,44.5549071 6.3571428,44.9128283 C6.2628698,41.0510472 8.33687586,37.2928748 7.16474819,33.4342334 C6.0837511,34.8408008 4.52824655,36.0495697 4.19829105,37.8894101 M59.539686,36.9694899 C59.7690836,37.355668 60.0173358,37.7324271 60.199597,38.1468622 C60.0990391,38.5989731 59.9324901,39.0353858 59.7816533,39.4717985 C59.9419174,40.1688029 60.4258522,40.9003435 60.0456177,41.6067669 C59.5365435,42.7496029 58.9269114,43.8516234 58.5592467,45.054113 C59.300861,44.4104828 60.1681726,43.9520925 60.9726356,43.4026521 C61.2963062,42.8814686 61.3685822,42.2127212 61.8305199,41.7763085 C62.06306,41.4246666 62.5721342,41.1954715 62.5438523,40.7213829 C62.3270244,40.0369372 61.8713716,39.4655192 61.6168345,38.7999114 C61.7676713,38.3321021 61.9970689,37.8925498 62.2138968,37.4498578 C62.0316357,36.5173789 61.7645288,35.6005984 61.4188611,34.7152144 C60.8406534,35.5064086 60.221594,36.2662062 59.539686,36.9694899 M2.14628202,35.1296495 C1.95459359,36.6492446 1.69691405,38.1876778 1.89488735,39.7198316 C2.19027609,41.9992243 3.34354916,44.2032652 5.20701217,45.5815757 C4.8896264,43.7668526 3.94689637,42.121671 3.73006847,40.2849703 C3.57608923,39.3022569 3.72692603,38.3007055 3.58865896,37.3211318 C3.26813075,36.498541 2.6616411,35.8360728 2.14628202,35.1296495 M53.7670358,35.475012 C54.087564,36.5801721 54.3295314,37.7135892 54.2886797,38.8721235 C54.1441278,39.0918997 54.0027183,39.3148155 53.8613088,39.5377313 C54.0278578,40.2033391 53.9241574,40.8689469 53.6696203,41.4937391 C53.9712939,41.7040963 54.2792524,41.9144535 54.5840685,42.1279504 C54.6406323,42.8532117 54.4835106,43.6663835 54.9391634,44.297455 C55.6430685,45.3649392 56.2464157,46.4952166 56.6329351,47.7196838 C56.7460627,46.6333617 56.8246235,45.5376205 56.7586324,44.445019 C56.7523475,43.5721937 55.9793089,43.0039153 55.646211,42.2566764 C55.7939053,41.8234034 56.0075908,41.4183873 56.2024217,41.0070919 C55.8473267,40.1405459 55.2974009,39.2520223 55.4639498,38.2787279 C55.7593386,37.9992982 56.1018638,37.7763824 56.4318193,37.5346286 C55.4859469,36.922395 54.6217777,36.203413 53.7670358,35.475012 M7.83722894,38.1594208 C7.45385207,40.988254 6.2440152,43.9175562 7.19303009,46.7495291 C7.90636248,44.6145606 8.8302379,42.5580837 9.67241006,40.4733498 C10.3166089,38.9882909 10.0683567,37.3525283 9.8829531,35.8015366 C9.06592041,36.4451668 7.84037138,36.9475123 7.83722894,38.1594208 M4.50310709,50.4229306 C5.06246024,53.0885015 6.67138615,55.3961511 8.36201532,57.4777454 C8.22374825,55.5342962 8.38086993,53.5939866 8.39972453,51.6568168 C8.34630316,49.1419495 6.93220812,46.9975621 5.72865612,44.8908507 C5.37670358,46.7495291 4.06630884,48.4637831 4.50310709,50.4229306 M8.34316072,48.5077383 C8.52227943,49.7730211 8.98735957,51.0069073 8.89622901,52.3035866 C8.79881357,54.2281978 8.70139813,56.1622281 8.95907767,58.08056 C9.8358166,55.6661619 10.7188404,53.1010601 10.3574605,50.5014221 C9.99922314,49.0854357 9.39587592,47.7196838 9.40530322,46.2283456 C8.92451091,46.9096517 8.21746339,47.5972371 8.34316072,48.5077383 M56.5198075,48.1969121 C56.5920834,48.5987885 56.6423624,49.0038045 56.6769291,49.4150999 C56.0547273,49.9048868 55.4199558,50.3852547 54.863745,50.953533 C55.1371367,51.3145939 55.4136709,51.6787944 55.690205,52.0429949 C55.313113,52.2345141 54.936021,52.4260333 54.5557866,52.6175525 C54.8008964,54.171684 55.2879736,55.6944188 55.3382525,57.2705278 C55.1277094,58.1778894 54.4143771,58.8780335 54.0812791,59.7445795 C55.7153445,58.9973405 56.4161071,57.1637794 57.248852,55.6881395 C57.720217,55.0978835 58.5089678,54.8404314 58.9426236,54.2219185 C58.9111993,53.6975954 58.7980717,53.1826912 58.7886444,52.6583681 C59.1500242,52.3412625 59.5648254,52.0869501 59.9324901,51.7761238 C60.29387,50.8593433 60.3724308,49.8577919 60.4855584,48.8844975 C59.6496711,48.2848225 59.2851489,47.3460643 59.1877334,46.3476526 C58.2701429,46.9222103 57.4342556,47.6192147 56.5198075,48.1969121 M53.427653,49.0352011 C53.6664779,49.5124294 54.4049498,50.0084955 54.0372851,50.5987515 C53.5784898,51.248661 53.1039823,51.8891516 52.7583147,52.6144129 C53.2642464,53.7415506 53.993291,54.7964762 54.2132613,56.033502 C54.370383,57.6410076 53.5564927,59.1040889 52.717463,60.4101873 C53.7230417,59.6221328 54.2855373,58.4259225 54.8040388,57.2925054 C54.8951694,55.6127876 54.1315581,54.0209803 54.0907064,52.3506815 C54.3546708,52.1685812 54.6280625,51.9990396 54.9077391,51.8357773 C54.7191931,51.4998338 54.5337895,51.1638902 54.3515284,50.824807 C54.936021,50.1968751 55.5487955,49.5940605 56.2432733,49.082296 C56.0295878,48.1246999 55.5707926,47.2330366 54.7631872,46.6427806 C54.254113,47.4465334 54.558929,48.6866989 53.427653,49.0352011 M1.40466774,47.8578288 C2.25626719,49.8515126 2.09286066,52.2125365 3.46610406,53.9833044 C4.77021393,55.757212 6.31314874,57.471466 8.31802126,58.4667381 C6.57082828,55.747793 4.22971538,53.1512946 3.93746907,49.7824401 C4.09144831,48.3507554 2.38196453,48.2220293 1.40466774,47.8578288 M60.9946326,49.1356702 C60.8312261,50.1089647 60.6426801,51.0759798 60.4698463,52.0461345 C60.0644723,52.3318435 59.655956,52.6081336 59.2474397,52.8875633 C59.3448551,53.56259 59.7627987,54.4730913 58.9897601,54.9063643 C58.1193061,55.4966202 57.3148431,56.190485 56.9691754,57.2234329 C57.7390716,57.0224947 58.618953,56.9879585 59.2191578,56.4008422 C59.728232,55.8671001 60.460419,55.7697706 61.1517543,55.6441842 C61.3245881,54.7054261 60.9474961,53.8514387 60.5106979,53.0539652 C61.0574813,52.705463 61.6262618,52.3883574 62.1918998,52.0681121 C62.0976268,51.9048499 61.9059383,51.5751856 61.8116653,51.4119233 C62.273603,50.548517 62.4024428,49.5720829 62.4967158,48.6113471 C61.9939265,48.7840284 61.4942796,48.9567096 60.9946326,49.1356702 M8.6511192,58.190448 C8.64797677,60.0365678 7.57326454,61.9548997 8.47200049,63.731947 C9.61898869,66.0678536 11.5892944,67.8449008 13.4747545,69.5842722 C12.9845349,67.8888561 12.7928464,66.1369261 12.4974577,64.4069737 C11.9883835,61.9423411 10.2726148,60.0114505 8.6511192,58.190448 M11.8029799,61.0538175 C12.107796,62.2154914 12.811701,63.2452997 13.000247,64.4477893 C13.2642115,66.0082001 13.4684696,67.5811694 13.8235646,69.1258819 C14.3420661,69.2891442 14.8668525,69.4367082 15.3916389,69.5842722 C15.7090247,67.2954604 15.6493184,64.8528054 14.5149,62.7806301 C13.7261492,61.3646437 13.2893509,59.7979537 12.8274132,58.2563809 C12.390615,59.1386252 11.6458582,60.0083109 11.8029799,61.0538175 M49.1947952,62.6676024 C48.5568812,63.2233221 47.8938277,63.7539246 47.3627565,64.4195324 C47.6172936,65.0725815 48.0320948,65.6973738 48.069804,66.4163558 C48.0195251,67.3927899 47.6518603,68.3158497 47.4413173,69.2608872 C48.8082758,68.064677 48.4563233,66.0741329 49.5687447,64.7429173 C49.3739139,64.3975548 49.179083,64.0521922 48.9873945,63.7099693 C49.4367625,63.0129649 49.744721,62.2343294 50.194089,61.5404647 C50.6937359,61.408599 51.2153798,61.389761 51.7275965,61.3301075 C51.8784333,60.9533484 52.246098,60.6048462 52.173822,60.1747128 C51.7495935,59.5028257 51.1870979,58.9251284 50.7094481,58.2877775 C50.4360564,59.8638865 48.9622551,60.9847449 49.1947952,62.6676024 M53.9021604,60.228087 C53.0159942,60.4918184 52.456641,61.2673143 51.7464511,61.8010564 C51.3159377,61.9109445 50.8665697,61.9203635 50.4297715,61.9768773 C50.1689495,62.5985299 49.8892729,63.2139032 49.5404628,63.7947401 C49.766718,64.1306837 49.9866884,64.4697669 50.2129436,64.8088501 C48.9591126,65.8449378 49.3770563,67.6376833 48.3777625,68.8213349 C47.5293054,70.1085953 46.2377653,71.0253758 45.4175902,72.3346138 C46.8034033,71.4743471 47.7241363,70.06464 49.1005222,69.1918147 C50.1343827,68.5293466 51.0551157,67.7067558 51.9224274,66.8370701 C51.9192849,66.3096074 51.8438665,65.7664463 52.0135579,65.2578214 C52.8243058,64.8810623 53.7450387,65.151073 54.6092079,65.0820005 C54.7914691,64.0459129 54.7569023,62.9815684 55.0020121,61.9580394 C55.124567,61.3112695 55.9164602,61.3081299 56.3878252,61.0349795 C56.422392,60.3097182 56.4506739,59.5813172 56.4601012,58.8560558 C55.6524958,59.3960773 54.8543177,59.9737746 53.9021604,60.228087 M55.457665,61.9548997 C55.3005433,63.0663392 55.3539647,64.2280131 54.9485907,65.2923577 C54.2321159,65.8480774 53.2296797,65.4775976 52.3875075,65.5529494 C52.3435134,66.1118088 52.7394601,66.8402098 52.2083888,67.2577845 C50.6026053,68.9877369 48.37462,69.9892882 46.8756793,71.8322683 C47.7838426,71.5183024 48.751712,71.2200347 49.3990533,70.4602371 C50.8288605,68.9375023 52.9342909,67.8731578 55.0648608,68.202822 C55.3728193,67.5654711 55.7530537,66.9689358 56.0924365,66.3504229 C56.0515849,65.6063236 55.690205,64.7617553 56.2307036,64.1055664 C56.6203653,64.0835888 57.0131695,64.1212647 57.4028312,64.1432423 C58.1852972,63.279836 58.6346651,62.1840949 58.8954871,61.0600968 C58.8043565,60.9941639 58.618953,60.8654379 58.5278224,60.799505 C57.4311131,60.9533484 56.4601012,61.5247664 55.457665,61.9548997 M4.8330626,61.8261737 C6.16231193,63.5247294 6.2440152,65.9548258 7.97549601,67.3676726 C9.8923804,69.0034352 12.0260927,70.4665165 14.4111997,71.3299228 C13.5910245,70.1556902 12.4094696,69.3236804 11.419603,68.3127101 C9.88609553,66.7774166 8.36201532,65.1071178 7.68324971,63.0004063 C7.41614287,61.7445425 5.79150479,62.0302515 4.8330626,61.8261737 M20.7306333,66.9312599 C21.2397075,67.3613933 21.7550666,67.7852473 22.2672832,68.212241 C28.3981708,68.2907325 34.5227735,68.055258 40.6505187,68.0426994 C41.6278155,68.0615373 42.1965959,67.1353378 42.8973586,66.607875 C35.5094976,66.7303217 28.1216367,66.9563772 20.7306333,66.9312599 M22.7135087,68.5733018 C23.5211141,69.0002955 24.2501587,69.8260259 25.2431676,69.7381155 C29.8625448,69.7161378 34.4882068,69.7035792 39.101299,69.4461271 C39.7454979,69.1918147 40.2797115,68.7302848 40.8453496,68.340967 C34.8024501,68.4288775 28.7564082,68.5984191 22.7135087,68.5733018 M18.2135441,68.3660843 C18.2481109,69.2137923 18.0941316,70.1525505 18.5749239,70.9123481 C18.9457311,71.4712075 19.5082267,71.8636649 19.989019,72.3189155 C21.47539,73.6281535 22.4244049,75.4365973 23.9924791,76.6642042 C23.5808204,75.2011229 23.1691616,73.7192036 22.4589716,72.3691501 C21.9341853,71.3079452 20.8029092,70.8150187 19.9041733,70.1368522 C19.2254076,69.6659033 18.7383305,68.9908765 18.2135441,68.3660843 M14.2006566,69.8103276 C14.6783065,70.9751413 15.0176893,72.1870498 15.3916389,73.3895394 C15.7655885,74.7050567 17.016277,75.4805526 18.1664076,76.0613896 C20.5138054,77.1853877 23.0906008,77.7034315 25.6171172,78.2654305 C24.6461053,77.6971521 23.6562388,77.1320134 22.8769153,76.3094227 C21.3402653,74.7238947 20.1932771,72.7050936 18.2355411,71.5748162 C16.9471434,70.8683929 15.5864698,70.2938352 14.2006566,69.8103276 M25.3500104,70.1054556 C29.4006071,72.130536 34.4410703,72.0677428 38.4005364,69.8448639 C34.0514085,69.9390537 29.6991382,70.0960366 25.3500104,70.1054556 M42.3285781,71.4146936 C41.7535128,71.8385476 41.1690202,72.2435637 40.5719579,72.6297418 C40.4714,73.4868688 40.232575,74.3188786 39.6606522,74.987626 C39.4658213,75.9671998 39.0541625,76.8808407 38.5230913,77.7254091 C39.1452931,77.3423706 39.8366284,77.0284047 40.3425602,76.4852436 C40.7070825,75.9483618 40.8987709,75.3141506 41.1501656,74.720755 C41.5335425,74.6611015 41.9137769,74.6077273 42.2971538,74.5512134 C42.4951271,74.001773 42.5045544,73.2765117 43.0701924,72.9499871 C43.516418,72.6328815 44.0663438,72.8840542 44.5565634,72.8903335 C44.7231124,72.5418313 44.8959462,72.1964688 45.0687801,71.8542459 C45.002789,71.1792191 44.9713646,70.5041924 44.8833765,69.8323052 C44.0663438,70.4288405 43.4064328,71.2922469 42.3285781,71.4146936 M45.4081629,71.2922469 C45.8355338,71.3958556 45.9863706,71.2294537 45.8638157,70.7899014 C45.4364448,70.683153 45.285608,70.8526946 45.4081629,71.2922469 M45.1504833,72.7490489 C45.0122163,73.0944114 44.8739492,73.4397739 44.7356821,73.7851365 C44.3585901,73.559081 43.9846405,73.3298859 43.610691,73.1038304 C43.0104862,73.5904776 42.8345099,74.3282976 42.6742458,75.0472796 C42.2940114,75.0692572 41.9169194,75.0880952 41.5429698,75.1132124 C41.2192991,75.8227755 41.0181834,76.6485059 40.3582724,77.1382928 C39.0887293,78.2308942 37.3698182,78.4192738 35.8331683,78.9184797 C37.1812722,78.8745244 38.557658,78.8933624 39.8711952,78.5511395 C41.2350113,78.048794 42.4982695,77.2701585 43.9406465,76.9813098 C44.1511895,77.3423706 44.3617326,77.7034315 44.5722756,78.0644923 C45.6218484,77.920068 45.5307178,76.8243268 45.9800858,76.1179034 C46.6368544,76.1304621 47.3313321,76.6516456 47.9566764,76.3094227 C48.1892165,75.5213682 48.4374687,74.730174 49.0816676,74.1713146 C49.1256616,73.2859306 49.7258664,72.6611384 50.3449258,72.0959997 C50.2757923,71.835408 50.1406676,71.3173642 50.0746765,71.0567724 C48.4657506,71.7004026 46.9071036,72.5920659 45.1504833,72.7490489 M28.6904171,73.9295608 C27.7445446,73.982935 26.7955298,73.9075832 25.8496573,73.9013039 C25.818233,74.9468105 25.7962359,75.9891774 25.7899511,77.034684 C26.9086574,77.5464485 27.986512,78.1555424 28.9732361,78.8933624 C29.2466278,78.5919551 29.5200195,78.2874081 29.7934112,77.9860008 C28.8098296,76.9153769 27.8168206,75.8541721 26.7578206,74.8620397 C26.8426663,74.7772689 27.0123577,74.6108669 27.1003458,74.5292358 C27.6691262,75.0975141 28.2441916,75.6657925 28.8098296,76.2372105 C29.5702985,75.863591 30.3464795,75.4146197 31.220076,75.4177594 C32.3450672,75.4114801 33.4197794,75.8039375 34.4662097,76.168138 C35.2769575,75.7631219 36.0437113,75.2733351 36.8670289,74.8934363 C36.4899368,75.7034684 35.679189,76.0927862 34.9312899,76.4883833 C34.3279427,76.7772319 34.0796904,77.4428397 33.7183106,77.9608835 C34.0702631,78.2246149 34.4190732,78.4883463 34.7741682,78.7520777 C35.7923166,77.8729731 36.7539013,76.9342149 37.7909043,76.0802275 C37.9291714,75.3612455 37.8317559,74.6234256 37.8097589,73.9013039 C36.7601861,73.7725778 35.7074709,73.854209 34.6578982,73.9013039 C33.5517616,73.982935 32.5996043,73.2890703 31.5343193,73.144646 C30.5633074,73.3298859 29.6865685,73.8730469 28.6904171,73.9295608 M12.224066,75.2293798 C14.3829178,76.3408193 16.2023867,78.0550733 18.5183601,78.8682451 C21.7016452,80.1335279 25.1646068,79.3957079 28.4735892,79.2764008 C26.0476306,78.7332398 23.5651082,78.4381118 21.1862861,77.6971521 C18.9771554,77.034684 16.6706093,76.1932553 15.1685261,74.3471355 C14.1503777,74.4978392 13.1636536,74.8055258 12.224066,75.2293798 M29.1397851,76.5762937 C29.4257465,76.9090976 29.7179928,77.2387619 30.0133816,77.5684261 C31.1446576,77.4962139 32.3105004,77.310974 33.4260643,77.6029624 C33.6303224,77.2293429 33.8314382,76.8588631 34.0356963,76.4915229 C32.4613372,75.8792893 30.6355834,75.5810217 29.1397851,76.5762937 M46.1654893,76.6704835 C46.0460769,77.2670188 46.0743588,78.1210062 45.3233172,78.2968271 C44.5628483,78.7049828 43.9500738,78.0550733 43.4849936,77.5433088 C42.1620292,78.0205371 40.9459074,78.767776 39.5852338,79.1351162 C38.1522841,79.3768699 36.6847677,79.3077974 35.2549605,79.5621099 C36.9581594,79.7285118 38.6550735,79.9011931 40.3299905,80.2685332 C42.0551864,80.0989916 43.8180916,80.0016622 45.4992935,80.5448233 C46.2660472,80.0110812 46.7782639,79.2418646 47.2621986,78.4600894 C47.6612876,78.5197429 48.0509494,78.6327707 48.4437536,78.7301001 C49.08481,78.0958889 49.8861305,77.6940125 50.7345875,77.4114431 C49.9018427,77.2387619 49.0659554,77.0786392 48.2332105,76.905958 C47.5355903,76.9404942 46.844255,76.8274665 46.1654893,76.6704835 M30.7424261,77.9043697 C30.3684765,78.1806597 30.0008118,78.472648 29.6362896,78.7646364 C29.8751145,79.6217634 30.1453638,80.4977284 30.7518534,81.1790345 C31.5217496,81.072286 32.2979307,81.1256603 33.0709693,81.1256603 C33.6806014,80.5385439 33.8942868,79.6845566 34.2179575,78.934178 C33.6774589,78.5354412 33.1306755,78.1524028 32.5650375,77.7913419 C31.97426,78.0079784 31.3552006,78.0550733 30.7424261,77.9043697 M33.8345806,80.224578 C35.5974858,80.9875152 37.5457945,80.9058841 39.4218272,80.924722 C39.4312545,80.8273926 39.4532516,80.6295941 39.4626789,80.5322646 C38.1114325,80.2182987 36.7224769,80.2214383 35.3523759,80.0613157 C34.8401593,79.9796846 34.3185154,80.0267794 33.8345806,80.224578 M23.5588233,80.7708787 C23.9861943,81.524397 24.5298353,82.2119824 25.2431676,82.7174676 C26.311595,82.0801167 27.5968503,82.2151221 28.7469809,81.8572009 C29.3220462,81.5840505 30.0070967,81.0000739 29.6959958,80.2905108 C27.6942657,80.8901858 25.6139748,80.7677391 23.5588233,80.7708787 M33.5863284,80.8179736 C33.8188684,81.3422968 34.026269,81.9859269 34.6264738,82.1994238 C35.8080288,82.5667639 37.1687025,82.2998929 38.2119904,83.0816681 C38.8844711,82.6044398 39.5003881,82.0518598 40.0063198,81.3988106 C37.8568954,81.2889225 35.7074709,81.2543863 33.5863284,80.8179736 M19.1876984,82.1648875 C19.728197,82.4725742 20.2969774,82.7425849 20.7746273,83.1444613 C20.6363603,83.4866842 20.482381,83.8194881 20.315832,84.152292 C22.3584138,84.2590404 24.542405,84.6640564 26.4310075,83.6311085 C25.5699807,83.2135338 24.7246661,82.7582832 23.9736245,82.1617479 C22.396123,82.5165294 20.7746273,82.3940827 19.1876984,82.1648875 M39.384118,82.7143279 C38.5859399,83.2166734 37.7217707,83.6028515 36.8356045,83.9262365 C38.9975987,84.6075426 41.2601508,83.8540243 43.4567117,84.2841576 C43.0073438,83.6530861 42.5768304,82.9498024 43.3310144,82.3626861 C42.0143348,82.4757138 40.7070825,82.686071 39.384118,82.7143279" id="Fill-1" fill="#2C241A"></path>
                <path d="M32.4282682,1 C35.1184003,4.09750813 39.2102993,5.08884074 42.7320414,6.80823402 C45.0725193,8.02708559 47.3751969,9.49295775 49.060467,11.6056338 C50.818188,13.7768147 51.7064987,16.5427952 53.5209204,18.6749729 C54.2202287,19.5265439 55.1305896,20.1408451 56,20.7941495 C54.1540779,21.6132178 52.0435527,21.9479957 50.5000342,23.3651138 C49.7503253,24.0444204 48.8840649,24.5709642 47.970554,24.9804984 C45.4851743,20.9371614 42.0390331,17.2871073 37.60063,15.6229686 C33.6441827,14.092091 29.0829282,14.5178765 25.3942341,16.6110509 C21.878792,18.5092091 19.116209,21.6002167 16.9741834,25 C15.5251661,24.1126761 14.6148052,22.5460455 13.1185373,21.723727 C12.0758748,21.1191766 10.9985619,20.5763814 10,19.8938245 C13.093337,17.6641387 14.3596521,13.8255688 16.8040814,11.0010834 C18.5838526,8.85915493 20.8613299,7.16901408 23.3939601,6.10942579 C26.5408478,4.7475623 30.1822913,3.85373781 32.4282682,1 M32.0061631,3.14192849 C32.0376635,3.30769231 32.1038143,3.64572048 32.1353147,3.81473456 C32.5353694,3.62946912 32.9354242,3.44095341 33.332329,3.24918743 C32.8881737,3.21343445 32.4471684,3.17768147 32.0061631,3.14192849 M31.9431624,9.26868906 C32.2928165,9.57746479 32.6802712,9.84073673 33.0299254,10.1495125 C32.6141204,11.3846154 31.2344039,12.2719393 29.986989,11.823402 C28.8876258,10.7735645 29.8042868,9.14192849 29.9586386,7.88732394 C29.2876806,9.20368364 29.0010272,10.8223185 29.2939807,12.291441 C29.5396836,13.3185265 30.8437992,13.5005417 31.6092584,12.9967497 C32.7999726,12.1874323 33.3291789,10.5980498 33.1212765,9.17768147 C32.8094227,8.63488624 32.3841676,8.15709642 32.2518661,7.52329361 C33.4331302,7.624052 33.6378826,6.51245937 33.6441827,5.56988082 C33.42053,5.72589382 32.9795248,6.03141928 32.7590221,6.18743229 C32.6582209,5.50162514 32.58262,4.81581798 32.494419,4.12676056 C32.3432171,5.84615385 32.1762652,7.56229686 31.9431624,9.26868906 M26.811751,6.08017335 C26.6605492,7.68255688 27.1897555,9.21343445 27.6654112,10.708559 C27.7221119,9.11592633 27.2401561,7.58829902 26.811751,6.08017335 M22.294597,8.67713976 C22.379648,10.2242687 22.9907553,11.6576381 23.6585633,13.0195016 C23.5168116,11.4853738 22.9120044,10.0617551 22.294597,8.67713976 M43.0155448,9.67497291 C43.1446963,9.83748646 43.3966993,10.1592633 43.5258509,10.3217768 C44.1401082,10.0520043 44.4960625,9.55796316 44.4047114,8.8396533 C43.9353557,9.10617551 43.4723002,9.38569881 43.0155448,9.67497291 M25.3123331,11.31961 C25.2745326,12.2816901 24.7768267,13.1072589 24.4303225,13.971831 C24.8177772,13.5817985 25.4981853,13.3185265 25.5044854,12.6749729 C25.5737862,11.5081257 25.9864411,10.3997833 26.0242416,9.22968581 C25.6493871,9.86998917 25.3406834,10.5590466 25.3123331,11.31961 M33.8520852,11.6511376 C34.3749914,12.4702059 35.2822023,12.8699892 36.1106622,13.2730228 C37.937684,14.0985915 40.0986099,14.6186349 41.9665822,13.5980498 C41.5633774,14.4171181 40.7632678,15.1776815 40.8798192,16.1787649 C41.4972266,16.7053088 42.0610833,15.9089924 42.61549,15.6554713 C42.448538,15.5482124 42.114634,15.340195 41.947682,15.2361863 C41.8531809,13.7183099 43.2738478,12.6457205 44.0802575,11.5113759 C45.8222283,11.6381365 47.5232486,12.0541712 49.2431692,12.3271939 C48.1028556,11.3911159 46.5593371,11.4366197 45.1827707,11.2806067 C43.6487023,11.0010834 42.8863932,12.7074756 41.8059303,13.4940412 C39.1378484,13.4940412 36.0697117,12.7139762 34.3812915,10.4290358 C34.1922893,10.8320693 33.9812367,11.2221018 33.8520852,11.6511376 M20.4360748,10.7345612 C20.6502773,11.9729144 21.6173389,12.8634886 21.9228926,14.0595883 C21.9449428,15.4572048 20.7132781,16.9978332 19.2737109,16.7280607 C18.4610012,16.1137595 18.3507498,14.9956663 17.9695953,14.1115926 C18.1900979,15.1939328 18.3854003,16.3412784 19.0532082,17.2448537 C19.3902623,17.7258938 19.9824694,18.1191766 20.5778265,17.9371614 C21.6740396,17.6283857 22.3481476,16.4225352 22.3197973,15.291441 C22.291447,13.588299 21.5259878,11.979415 20.4360748,10.7345612 M27.2685065,13.191766 C26.890502,13.1495125 26.5156475,13.1072589 26.140793,13.0682557 C26.0998425,13.5135428 26.062042,13.9588299 26.0273916,14.404117 C26.3423954,14.4301192 26.6573992,14.4528711 26.975553,14.4788732 C27.0196535,14.2416035 27.1078546,13.7670639 27.1551051,13.5297941 C27.4071081,13.588299 27.9111142,13.708559 28.1631172,13.7670639 C28.2229679,13.4875406 28.3458194,12.928494 28.4088201,12.6489707 C28.1883175,12.531961 27.7473122,12.2979415 27.5268096,12.184182 C27.4606588,12.4344529 27.3315072,12.9414951 27.2685065,13.191766 M44.1432582,17.0498375 C44.7008149,17.0303359 45.211121,16.780065 45.7245771,16.5850488 C45.4820242,16.2665222 45.2363213,15.9447454 44.9969184,15.6262189 C45.5513251,14.5406284 46.2789838,13.5687974 46.8995412,12.5254605 C45.6584264,13.7410618 44.2661097,15.1971831 44.1432582,17.0498375 M19.3902623,13.4387866 C19.3776621,13.864572 19.3965624,14.2936078 19.4123125,14.7193933 C19.7588167,14.7291441 20.1084709,14.7421452 20.458125,14.751896 C20.451825,14.3163597 20.4423749,13.8808234 20.4297747,13.4485374 C20.0832706,13.432286 19.7367664,13.4290358 19.3902623,13.4387866 M43.4281997,18.8634886 C43.7747038,18.6944745 44.127508,18.531961 44.455112,18.3239437 C44.4677121,17.9631636 44.4110114,17.6056338 44.3826611,17.248104 C43.7999041,17.6348862 42.9178936,17.9729144 43.4281997,18.8634886" id="Fill-2" fill="#FFF6B1"></path>
                <path d="M30.9137792,4 C31.3509267,4.0347433 31.7880741,4.06948659 32.2283441,4.10422989 C31.8349114,4.29058029 31.4383562,4.47377222 31.041801,4.65380566 C31.0105761,4.48956463 30.945004,4.16108255 30.9137792,4 M30.8513296,9.95373754 C31.0823932,8.29553477 31.2478848,6.62785657 31.3977639,4.95701988 C31.4851934,5.62661795 31.560133,6.29305753 31.6600524,6.95949712 C31.8786261,6.80789001 32.3157736,6.51099275 32.5374698,6.35938564 C32.5312248,7.27534527 32.3282635,8.35554592 31.1573328,8.257633 C31.288477,8.87353688 31.7100121,9.33783365 32.0191378,9.86530006 C32.2252216,11.2455565 31.7006446,12.7900539 30.5203465,13.5765158 C29.7615834,14.0660804 28.4688759,13.8892054 28.2253223,12.8911253 C27.9349315,11.4634917 28.2190774,9.89056791 28.884166,8.61138292 C28.7311644,9.83055676 27.8225222,11.4161144 28.9122683,12.436304 C30.1487712,12.8721744 31.5164182,12.009909 31.9285858,10.809686 C31.5819903,10.5096303 31.1979251,10.2537933 30.8513296,9.95373754 M25.7648066,6.85526723 C26.1894641,8.32080263 26.6672039,9.80528891 26.6109992,11.3529448 C26.1395044,9.90004335 25.6149275,8.41239859 25.7648066,6.85526723 M21.2871676,9.37889391 C21.8991741,10.724407 22.4986906,12.1078219 22.6392023,13.5986251 C21.9772361,12.2752214 21.3714746,10.8823311 21.2871676,9.37889391 M41.8268533,10.3485477 C42.2796132,10.0674429 42.738618,9.79581346 43.2038678,9.53681798 C43.2944198,10.2348424 42.9415794,10.7149316 42.3326954,10.9770855 C42.2046737,10.8191615 41.9548751,10.5064718 41.8268533,10.3485477 M24.2785052,11.9467393 C24.3066076,11.2076547 24.6126108,10.5380566 24.9841861,9.91583576 C24.9467164,11.0528891 24.5376712,12.1299313 24.4689766,13.2638261 C24.4627317,13.8892054 23.7882756,14.1450424 23.4042103,14.5240602 C23.7476833,13.6839041 24.2410355,12.8816498 24.2785052,11.9467393 M32.7435536,12.2689044 C32.8715753,11.8519849 33.0807816,11.4729671 33.2681305,11.0813154 C34.9417808,13.3017279 37.9830782,14.0597634 40.6278203,14.0597634 C41.6988316,13.2954109 42.4544722,11.6372082 43.9751209,11.9088376 C45.3396454,12.0604447 46.8696616,12.0162259 48,12.9258686 C46.2951249,12.6605561 44.6089847,12.2562705 42.8822522,12.1330897 C42.0828969,13.2353998 40.6746575,14.2776986 40.768332,15.7527095 C40.9338235,15.8537809 41.2648066,16.0559237 41.4302981,16.1601536 C40.8807413,16.4065151 40.3218171,17.1803431 39.7098106,16.6686691 C39.5942788,15.6958568 40.3873892,14.9567722 40.7870669,14.1608348 C38.9354351,15.152598 36.7934126,14.647241 34.9823731,13.8449867 C34.1611604,13.453335 33.2618856,13.0648418 32.7435536,12.2689044 M19.4449033,11.3782127 C20.525282,12.5879111 21.2840451,14.1513594 21.3121475,15.8064037 C21.3402498,16.9055552 20.6720387,18.0773518 19.585415,18.3774076 C18.9952659,18.5542825 18.4082393,18.1721063 18.0741338,17.704651 C17.4121676,16.8265932 17.2185737,15.7116492 17,14.6598749 C17.3778203,15.5189819 17.4871072,16.6054995 18.2927075,17.2024525 C19.7196817,17.4646064 20.9405721,15.9674862 20.9187147,14.6093392 C20.615834,13.447018 19.6572321,12.5815941 19.4449033,11.3782127 M26.2175665,13.7660246 C26.2800161,13.5228216 26.4080379,13.0300985 26.47361,12.7868954 C26.6921837,12.8974422 27.1293312,13.1248529 27.3479049,13.2385582 C27.2854553,13.5101877 27.1636785,14.0534465 27.1043513,14.3250759 C26.8545528,14.2682232 26.3549557,14.1513594 26.1051571,14.0945067 C26.0583199,14.3250759 25.9708904,14.7862142 25.9271757,15.0167833 C25.611805,14.9915155 25.2995568,14.9694061 24.9873086,14.9441382 C25.0216559,14.5114263 25.0591257,14.0787143 25.099718,13.6460024 C25.4712933,13.6839041 25.8428687,13.7249644 26.2175665,13.7660246 M42.9447019,17.5151421 C43.0664786,15.7148077 44.4466156,14.299808 45.6768735,13.118536 C45.0617446,14.1324085 44.3404512,15.0767945 43.7908944,16.1317273 C44.0282031,16.4412584 44.2717566,16.7539481 44.5121878,17.0634793 C44.0032232,17.2529882 43.4973811,17.4961912 42.9447019,17.5151421 M18.4082393,14.0060692 C18.7517123,13.9965938 19.0951853,13.9997523 19.4386583,14.0155447 C19.4511483,14.4356227 19.4605157,14.8588592 19.4667607,15.2820957 C19.1201652,15.2726203 18.7735697,15.2599864 18.4300967,15.2505109 C18.4144843,14.8367499 18.3957494,14.4198303 18.4082393,14.0060692 M42.2358985,19.2775748 C41.7300564,18.4121509 42.6043513,18.0836688 43.1820105,17.7078095 C43.2101128,18.0552425 43.2663175,18.4026754 43.2538276,18.7532669 C42.9290894,18.9554097 42.5793715,19.1133337 42.2358985,19.2775748 M27.7257252,29.6847712 C28.1285254,30.5122933 28.4969782,31.7251502 29.6117043,31.750418 C30.4173046,31.9115006 30.9262691,31.159782 31.4414786,30.6765343 C31.8848711,31.1787329 32.2970387,31.9115006 33.0745367,31.7946368 C34.0706084,31.7377841 34.385979,30.6607419 34.8512288,29.9564006 C35.169722,30.9292129 35.0073529,32.3063108 33.9488316,32.7358642 C33.096394,33.1717347 32.162772,32.7674491 31.3353143,32.4768688 C30.0925665,33.0390785 28.5531829,33.0611878 27.6320508,31.9083421 C27.6258058,31.166099 27.6570306,30.4238558 27.7257252,29.6847712 M29.7022562,34.1098037 C30.2080983,33.5602279 30.8232272,33.1306744 31.3883965,32.6474268 C31.8848711,33.1685762 32.5874295,33.541277 32.9402699,34.1792903 C32.9964746,39.2865548 32.7373086,44.4001362 32.7903908,49.5105592 C37.4241539,45.7140645 38.2359992,38.2537313 34.8574738,33.370719 C36.6060637,34.6720134 37.8831587,36.5639438 38.6075745,38.6232737 C39.6629734,41.6490989 39.2320709,45.1171115 37.5709106,47.8365641 C36.6778807,49.4031709 35.3539484,50.650771 33.9894239,51.7909828 C35.5569098,52.4384715 37.24305,52.5900787 38.9198227,52.612188 C36.8964545,53.8029355 34.4858985,53.3575896 32.2626914,53.4397102 C31.975423,53.9608596 31.6881547,54.4788506 31.4040089,55 C31.0136986,54.4851675 30.6952055,53.9071654 30.2205882,53.4681365 C28.0879331,53.2280919 25.5150081,53.9798105 23.7913981,52.3089738 C25.4244561,52.4226791 27.1386986,52.5490184 28.6655923,51.8194092 C26.7733683,49.9874899 24.8592869,48.013439 24.0661765,45.4108503 C22.4737107,41.1626928 24.0786664,35.9733077 27.8037873,33.4370471 C24.1973207,38.1810863 25.009166,45.8593547 29.8833602,49.4221218 C29.9052176,44.3180157 29.6304392,39.2107512 29.7022562,34.1098037 M19.9320105,38.7969902 C21.3371273,36.0775376 23.9350322,34.059268 26.7858582,33.0990896 C24.5720185,35.3163436 22.248892,37.7325819 21.6087832,40.9447575 C20.7563457,44.4980492 22.1396052,48.0039636 23.3511281,51.2824673 C19.5635576,48.5882827 17.8056003,43.0767325 19.9320105,38.7969902 M36.1564263,33.1906856 C38.9760274,34.2456184 41.5021152,36.3523255 42.7885778,39.1349477 C44.7838437,43.4304824 42.8572724,48.9483495 38.9479251,51.4056481 C39.7753828,49.3115749 40.7901894,47.2554035 41.0743352,44.9907723 C41.5708098,42.2807952 40.8932313,39.4318449 39.4069299,37.1419459 C38.5295125,35.6606181 37.236805,34.5109308 36.1564263,33.1906856" id="Fill-3" fill="#E30612"></path>
                <path d="M55.2266895,24.2185217 C56.1093829,23.7684787 56.4949637,22.9000859 56.74352,22 C57.0016361,22.5419532 57.227886,23.0965836 57.4796289,23.6417061 C57.7218119,24.2945853 58.448361,24.5354534 58.8753679,25.0393747 C59.3246811,25.7968414 58.9741531,26.6715728 58.9295404,27.4797486 C59.1494171,28.1326278 59.509505,28.7252901 59.818607,29.3401375 C59.4553325,30.1102815 59.0729382,30.8677482 58.6108785,31.5840138 C58.5598926,31.9675011 58.5120933,32.3478191 58.4674807,32.7313064 C58.206178,32.8707563 57.9480618,33.007037 57.6899457,33.1433176 C57.6899457,31.3146218 58.5120933,29.1816717 57.2183262,27.6096906 C57.294805,27.0455522 57.7218119,26.4180275 57.3904036,25.872905 C56.7467066,25.2168565 55.6632563,25.0964224 55.2266895,24.2185217 M4.41286857,29.9866781 C4.451108,27.3086055 5.54730481,24.7985067 6.69448752,22.4246884 C7.10556133,22.9983348 7.75881815,23.5181027 7.76200477,24.281908 C7.76200477,25.7334551 6.87293817,26.96315 6.59570234,28.35448 C6.11452293,30.2085303 6.331213,32.1449828 6.03485746,34.0212183 C4.8621818,33.0323915 4.38100238,31.476257 4.41286857,29.9866781 M49.6086808,25.4767404 C50.9183811,25.5147722 52.1739089,25.882413 53.1681339,26.763483 C52.9928698,26.9568113 52.6359686,27.3466373 52.4607045,27.5431349 C52.6869545,28.4812527 53.2637324,29.2387194 54.219718,29.5207886 C54.3471828,31.5016115 56.6861609,32.1830146 56.9761432,34.1036205 C56.1539955,33.4158788 55.3318479,32.6235496 54.2165314,32.4650838 C53.3242782,32.4333906 52.941884,31.5935217 52.5180637,30.9501504 C51.7596484,30.4715836 51.1318846,29.8313816 50.6060925,29.115116 C50.7590502,28.8140309 50.9120079,28.5129459 51.0681522,28.2118608 C50.5073073,27.3402987 50.0579941,26.4085196 49.6086808,25.4767404 M11.1812466,27.8188655 C11.8281302,27.0106897 12.9179537,26.8300387 13.8611929,26.5669854 C12.9338868,28.5383004 12.1021794,30.6617426 10.5184299,32.2178771 C9.77594775,32.9056188 8.8613882,33.3620004 7.96594836,33.818382 C8.87413468,32.487269 9.96395825,31.2322196 10.4770039,29.6760851 C10.7128136,29.0580683 10.8275319,28.3861732 11.1812466,27.8188655 M59.952445,37.0130533 C60.6439412,36.3031263 61.2717051,35.5361517 61.8580429,34.7374839 C62.208571,35.6312312 62.4794336,36.5566717 62.6642574,37.4979587 C62.4443808,37.9448324 62.2117576,38.3885367 62.0587999,38.8607649 C62.316916,39.5326601 62.7789757,40.1094757 62.9988524,40.8003868 C63.027532,41.2789536 62.5112997,41.5103137 62.27549,41.8652772 C61.807057,42.3058122 61.7337648,42.9808767 61.4055431,43.5069832 C60.5897687,44.0616137 59.710262,44.5243339 58.95822,45.1740438 C59.3310543,43.9601955 59.9492584,42.8477654 60.4654906,41.6941341 C60.8510714,40.9810378 60.3603322,40.242587 60.1978146,39.5389987 C60.3507723,39.0984637 60.5196631,38.6579287 60.6216349,38.2015471 C60.436811,37.7831972 60.1850681,37.4028792 59.952445,37.0130533 M1.752042,35.1558337 C2.27464746,35.86893 2.88966486,36.5376558 3.21469996,37.3680168 C3.35491118,38.3568436 3.20195349,39.3678556 3.3580978,40.3598517 C3.57797449,42.213902 4.53396008,43.874624 4.85580856,45.706489 C2.96614371,44.315159 1.79665466,42.0902987 1.49711251,39.7893747 C1.29635553,38.2427482 1.55765826,36.689783 1.752042,35.1558337 M54.0986265,35.5044585 C54.9653868,36.23974 55.8417069,36.9655135 56.8008791,37.5835303 C56.4662842,37.8275677 56.1189427,38.0525892 55.8194006,38.3346584 C55.6505098,39.3171465 56.2081681,40.2140632 56.568256,41.0887946 C56.3706856,41.5039751 56.1539955,41.9128169 56.0042245,42.3501826 C56.342006,43.10448 57.1259142,43.6781263 57.1322875,44.5591964 C57.1992065,45.6621186 57.119541,46.7682101 57.0048227,47.8647937 C56.6128686,46.6287602 56.0010379,45.4878062 55.2872353,44.4102385 C54.8251756,43.7732058 54.9845065,42.9523528 54.9271474,42.2202407 C54.6180454,42.0047271 54.3057567,41.7923829 53.9998413,41.5800387 C54.2579575,40.9493446 54.3631159,40.2774495 54.1942251,39.6055544 C54.3376229,39.3805329 54.4810208,39.1555114 54.6276052,38.9336592 C54.6690313,37.7641813 54.4236616,36.620058 54.0986265,35.5044585 M7.52300837,38.2142243 C7.52619499,36.9908681 8.76897626,36.4837774 9.59749711,35.8340675 C9.78550761,37.3997099 10.0372505,39.0509239 9.38399366,40.5500107 C8.52997986,42.654437 7.59311398,44.7303395 6.86975155,46.8854749 C5.90739272,44.0267512 7.1342409,41.0697787 7.52300837,38.2142243 M8.03605397,48.6602922 C7.90858923,47.7411904 8.62557842,47.04711 9.11313108,46.3593683 C9.10357122,47.8647937 9.715402,49.2434465 10.0786765,50.6728083 C10.4451377,53.2970026 9.54969783,55.8863343 8.66063123,58.3235389 C8.3993285,56.3870864 8.49811368,54.4347873 8.59689886,52.4919961 C8.6893108,51.1830683 8.21769124,49.9375269 8.03605397,48.6602922 M53.7544717,49.1927374 C54.9016544,48.8409433 54.5925524,47.5890632 55.1087846,46.7777181 C55.9277456,47.3735496 56.3929919,48.2736356 56.609682,49.2402772 C55.9054393,49.7568758 55.2840487,50.3653846 54.6913376,50.999248 C54.8761615,51.3415342 55.064172,51.6806511 55.2553691,52.0197679 C54.97176,52.1845724 54.6945242,52.3557155 54.4268482,52.5395359 C54.4682743,54.2256124 55.2426226,55.832456 55.1502107,57.5280404 C54.6244186,58.6721637 54.0540139,59.8796734 53.0342959,60.6751719 C53.8851231,59.3567361 54.7104573,57.8798346 54.5511264,56.2571444 C54.3280631,55.0084336 53.5887675,53.9435432 53.0757219,52.8057585 C53.42625,52.0736463 53.9074294,51.4271057 54.3726757,50.7710572 C54.7455101,50.1752256 53.9966547,49.6744736 53.7544717,49.1927374 M1,48.0042437 C1.9910384,48.3718844 3.72455894,48.5018264 3.56841463,49.9470348 C3.86477016,53.3477116 6.23880106,55.9687366 8.01056102,58.7133648 C5.97749833,57.7086914 4.41286857,55.9782445 3.09042183,54.1875806 C1.69786948,52.4000859 1.86357365,50.0167598 1,48.0042437 M61.4278494,49.2941556 C61.9345218,49.1135045 62.4411941,48.9391921 62.9510531,48.7648797 C62.8554546,49.7346906 62.7248032,50.7203481 62.2563703,51.5919102 C62.3519688,51.7567147 62.5463526,52.0894929 62.6419511,52.2542974 C62.0683598,52.5775677 61.4915818,52.8976687 60.9371101,53.2494628 C61.3800501,54.0544693 61.7624444,54.9165234 61.5871803,55.8641491 C60.8861242,55.9909218 60.1436421,56.0891706 59.6274099,56.6279544 C59.0187657,57.2206167 58.1265125,57.2554792 57.3457909,57.4583154 C57.696319,56.4156102 58.5120933,55.7151912 59.3947867,55.1193597 C60.1786949,54.681994 59.7548746,53.7628921 59.6560894,53.081489 C60.0703499,52.7994199 60.4846103,52.52052 60.8956841,52.2321122 C61.0709481,51.2527933 61.2621452,50.2766437 61.4278494,49.2941556 M11.5445211,61.3248818 C11.3851902,60.2694994 12.1404188,59.3915986 12.5833588,58.5010206 C13.0517917,60.0571551 13.4947317,61.6386442 14.294573,63.068006 C15.4449423,65.159755 15.5054881,67.6254835 15.1836396,69.9359153 C14.6514743,69.7869575 14.119309,69.6379996 13.5935169,69.4731951 C13.233429,67.9138913 13.0262988,66.3260636 12.7586228,64.7509132 C12.5674257,63.5370649 11.8536231,62.497529 11.5445211,61.3248818 M49.4620964,62.9539106 C49.2262866,61.2551569 50.7208108,60.1237108 50.9980466,58.5327138 C51.4824126,59.1760851 52.0528173,59.7592394 52.4830109,60.4374731 C52.5563031,60.8716695 52.1834687,61.2234637 52.030511,61.6037817 C51.5110922,61.6639987 50.9821135,61.6830146 50.4754411,61.8161259 C50.0197547,62.5165449 49.707466,63.3025355 49.2517796,64.0061238 C49.4461633,64.3515793 49.6437337,64.7002041 49.841304,65.048829 C48.713241,66.3926193 49.0701423,68.4019661 47.6839632,69.6094757 C47.8974666,68.6555114 48.270301,67.7237323 48.3212869,66.7380748 C48.2830475,66.0123012 47.8624138,65.3816072 47.6042977,64.7223893 C48.1428363,64.0504942 48.8152128,63.5148797 49.4620964,62.9539106 M55.8130274,62.2344757 C56.8295587,61.8002793 57.8142239,61.2234637 58.9263538,61.0681672 C59.0187657,61.1347228 59.2067762,61.2646648 59.2991882,61.3312205 C59.0346988,62.4658358 58.5790123,63.5719274 57.7855443,64.4434895 C57.3904036,64.4213043 56.9920763,64.3832725 56.5969355,64.4054577 C56.0488371,65.0678449 56.4152983,65.9203911 56.4567243,66.6715191 C56.1125695,67.2958745 55.7269886,67.8980447 55.4147,68.541416 C53.2541726,68.2086377 51.1191381,69.2830361 49.6692266,70.8201547 C49.0127832,71.5871294 48.0313046,71.8882144 47.1103718,72.2051461 C48.6303889,70.3447572 50.8897015,69.3337452 52.5180637,67.5874517 C53.0566022,67.1659325 52.6550883,66.4306511 52.6997009,65.8665127 C53.5537147,65.7904491 54.5702461,66.1644284 55.2967951,65.6034594 C55.7078689,64.529061 55.6536964,63.3564138 55.8130274,62.2344757 M4.47660094,62.1045337 C5.44851963,62.3105393 7.09600147,62.0221315 7.36686406,63.2898582 C8.05517369,65.4164697 9.60068373,67.1025462 11.1557536,68.6523421 C12.1595385,69.6728621 13.3577071,70.512731 14.1894146,71.6980554 C11.770771,70.8264933 9.60705697,69.3495917 7.66321959,67.6983777 C5.90739272,66.2721852 5.82454063,63.8191341 4.47660094,62.1045337 M18.0452231,68.7062205 C18.5773885,69.3369145 19.0713143,70.0183176 19.759624,70.4937151 C20.6709969,71.1782875 21.8181796,71.6758702 22.3503449,72.7470993 C23.0705208,74.1099055 23.4879678,75.6058229 23.9054148,77.0827245 C22.3152921,75.8435217 21.3529333,74.0179953 19.8456627,72.6963902 C19.35811,72.2368393 18.7877053,71.8406747 18.4116843,71.2765363 C17.9241316,70.5095617 18.0802759,69.561936 18.0452231,68.7062205 M42.4993346,71.783627 C43.5923448,71.6600236 44.2615348,70.7884615 45.0900556,70.1862914 C45.1792809,70.8645251 45.2111471,71.5459282 45.2780661,72.2273313 C45.1028021,72.5727869 44.9275381,72.9214117 44.7586473,73.2732058 C44.2615348,73.2668672 43.7038765,73.0133219 43.2513766,73.3334229 C42.6777853,73.6630318 42.6682254,74.395144 42.4674685,74.9497744 C42.078701,75.0068221 41.6931201,75.0607005 41.3043527,75.1209175 C41.0494232,75.7199183 40.8550394,76.3601203 40.4853917,76.9020735 C39.9723461,77.4503653 39.27129,77.7672969 38.6403395,78.1539536 C39.178878,77.3014074 39.5963251,76.3791362 39.7938954,75.3903094 C40.37386,74.715245 40.616043,73.875376 40.7180148,73.0101526 C41.3234724,72.6203266 41.9161834,72.2114847 42.4993346,71.783627 M11.971528,75.6343468 C12.924327,75.206489 13.9249252,74.895896 14.9573897,74.7437688 C16.4805934,76.607327 18.8195715,77.4567039 21.0597644,78.1254297 C23.4720347,78.8733885 25.9894634,79.1713043 28.449533,79.719596 C25.0940236,79.8400301 21.5823698,80.5848195 18.3543252,79.3075849 C16.0057872,78.4867318 14.160735,76.7562849 11.971528,75.6343468 M46.390196,77.0890632 C47.0785056,77.247529 47.7795617,77.3616244 48.4869911,77.3267619 C49.331445,77.5010743 50.1790856,77.6627095 51.0235395,77.8370219 C50.1631525,78.1222604 49.3505647,78.527933 48.7004945,79.1681349 C48.3021672,79.0698861 47.9070265,78.9557907 47.5023259,78.8955737 C47.0115866,79.6847336 46.4921678,80.4612162 45.7146329,81 C44.0097919,80.4517082 42.2220988,80.549957 40.4726452,80.7211001 C38.7741774,80.3502901 37.0534034,80.1759777 35.3262561,80.0080039 C36.7761676,79.7512892 38.2643185,79.8210142 39.7174166,79.5769768 C41.0972224,79.2061667 42.3304439,78.4518694 43.6720103,77.9701332 C44.1436299,78.4867318 44.7650205,79.1427804 45.5361822,78.7307692 C46.2977841,78.5532875 46.2691045,77.6912333 46.390196,77.0890632" id="Fill-4" fill="#F7A70B"></path>
                <path d="M52.6756406,23 C53.2952017,23.4889845 54.0100799,23.8346996 54.683654,24.2395913 C54.9219468,24.5977646 55.0585679,25.0088853 55.3032151,25.3608296 C55.8973583,25.7408048 56.564578,26.0055416 57.1904936,26.335684 C56.8695927,27.2108728 56.4501975,28.2417891 57.4732676,28.8491266 C57.6003571,30.2973927 57.3747733,31.7394298 57.3811277,33.1845814 C56.7647439,32.1972688 55.8496998,31.4560057 55.0395045,30.6306497 C54.9759598,30.2008417 54.9283012,29.7679191 54.817098,29.3474547 C54.1562328,28.9674795 53.3809871,28.7027427 53.0759724,27.9427923 C53.3460375,27.6313372 53.6161026,27.3229966 53.8829905,27.0115415 C53.5112538,26.6471391 53.1363399,26.2858512 52.7550715,25.9339069 C52.8440342,24.955938 52.8376797,23.9686253 52.6756406,23 M8.18479932,26.3574859 C8.89967751,25.052489 10.1324452,24.1461547 11.2667186,23.214904 C10.5423087,25.5290153 11.1046796,28.0860616 10.0021785,30.3005073 C9.42074428,31.5307549 8.52794086,32.577244 7.70503663,33.6548786 C7.44768048,33.2593306 7.1871471,32.8637827 6.917082,32.4775784 C7.00922186,30.4001729 7.10453895,28.2106436 8.18479932,26.3574859 M58.2072092,33.6112749 C58.782289,32.8980427 59.5035217,33.8542099 59.5924843,34.4459745 C59.6337883,35.7572004 59.1826208,37.2179248 60.234286,38.2862158 C59.535294,39.1645191 59.8117136,40.16429 60.3105397,41.0612806 C59.7831185,42.188748 59.0936582,43.2601535 58.7886435,44.4779429 C58.5567052,45.3282153 58.2008547,46.1411131 57.7528644,46.9041781 C57.6766107,45.829658 57.841827,44.7364507 57.6353067,43.6712743 C57.4001912,43.1355715 56.9522008,42.7306799 56.5899959,42.27907 C56.793339,41.8741784 57.0919992,41.5035468 57.1809618,41.051937 C56.9045423,40.2328101 56.5232739,39.4479433 56.2945129,38.6101291 C56.7234398,38.3235904 57.196848,38.0775409 57.5399896,37.6819929 C57.2032025,37.2771013 56.806048,36.925157 56.4216023,36.5669837 C57.1746074,35.6762221 57.6988514,34.6453058 58.2072092,33.6112749 M4.08934161,37.9405006 C4.42295143,36.1153738 5.99568345,34.9162717 7.08865277,33.5209529 C8.27376194,37.348736 6.17678592,41.0768534 6.27210301,44.907751 C5.90672083,44.5526922 5.53498417,44.206977 5.15053856,43.8737201 C4.48331892,41.9769586 3.7398456,39.9774169 4.08934161,37.9405006 M4.39753354,50.3737878 C3.95589768,48.430308 5.28080526,46.7297632 5.63665573,44.8859491 C6.85353727,46.9758128 8.28329365,49.103051 8.33730667,51.5978063 C8.31824325,53.5194842 8.15938143,55.4442766 8.29917984,57.3721836 C6.58982665,55.3072364 4.96308162,53.0180415 4.39753354,50.3737878 M56.9903277,48.1655712 C57.9149035,47.5924938 58.7600483,46.9010635 59.6878014,46.3311007 C59.7862957,47.3215279 60.1548551,48.2527786 61,48.8476578 C60.8856195,49.8131686 60.8061886,50.8067103 60.4408064,51.7161592 C60.0690697,52.0244997 59.6496745,52.2767784 59.2842923,52.591348 C59.2938241,53.111478 59.4082046,53.6222644 59.4399769,54.1423944 C59.0015183,54.7559609 58.204032,55.0113541 57.7274465,55.5968896 C56.8854789,57.0607285 56.1769551,58.8796263 54.5247922,59.6208894 C54.8615793,58.7612733 55.5828119,58.0667285 55.7956868,57.1666233 C55.744851,55.6031187 55.2523794,54.0925615 55.0045549,52.5508588 C55.3890005,52.3608712 55.7702689,52.1708836 56.1515373,51.980896 C55.8719405,51.6196081 55.5923436,51.2583202 55.3159241,50.9001469 C55.8782949,50.3364132 56.5200967,49.8598869 57.1491895,49.3740169 C57.1142399,48.9660108 57.0634041,48.5642337 56.9903277,48.1655712 M8.59148558,58.0791867 C10.2309396,59.8856262 11.9657106,61.801075 12.4804229,64.2459974 C12.7790832,65.962115 12.9728946,67.7000344 13.4685435,69.3818919 C11.5622016,67.6564307 9.5700744,65.8935949 8.41038311,63.576369 C7.5016935,61.8135332 8.58830835,59.9105426 8.59148558,58.0791867 M54.3436897,60.1005302 C55.3063924,59.8482516 56.1134104,59.2751742 56.9299602,58.7394715 C56.9204285,59.4589327 56.8918333,60.1815085 56.8568837,60.9009698 C56.3802983,61.1719357 55.5796347,61.1750503 55.4557225,61.8166477 C55.207898,62.8319913 55.2428476,63.8878241 55.0585679,64.9156259 C54.1848279,64.984146 53.2538977,64.7162946 52.4341707,65.0900407 C52.2625999,65.594598 52.3388536,66.1334153 52.3420308,66.6566598 C51.4651136,67.5193904 50.5341833,68.3354028 49.4888725,68.992573 C48.097243,69.8584181 47.1663127,71.2568515 45.7651515,72.1102384 C46.5944102,70.8114707 47.9002543,69.9020219 48.7581082,68.625056 C49.7684693,67.4508703 49.3458969,65.6724617 50.6136142,64.64466 C50.3848532,64.3082885 50.1624466,63.971917 49.9336856,63.63866 C50.2863589,63.0624681 50.5691329,62.4520161 50.8328435,61.8353351 C51.2744794,61.7792731 51.7288242,61.7699295 52.1641056,61.6609202 C52.882161,61.1314466 53.4477091,60.3621525 54.3436897,60.1005302 M14.2024851,69.6061395 C15.6036463,70.0857804 16.9793897,70.6557432 18.2820566,71.3565171 C20.2614749,72.4777554 21.4211662,74.4804117 22.9748348,76.0532599 C23.7627894,76.8692722 24.7636189,77.4298914 25.7453849,77.9936251 C23.1908868,77.4361205 20.585553,76.9222196 18.2121574,75.8072103 C17.0492889,75.2310184 15.7847488,74.4617244 15.4066577,73.1567275 C15.0285665,71.9638545 14.685425,70.7616379 14.2024851,69.6061395 M45.7556198,71.0762075 C45.6317075,70.6401704 45.7842149,70.4719847 46.216319,70.5778794 C46.3402313,71.0139165 46.1877239,71.1789877 45.7556198,71.0762075 M45.4950864,72.5213592 C47.2711615,72.3656316 48.8470708,71.4810992 50.4738158,70.8426162 C50.5405378,71.101124 50.6771589,71.6150248 50.7470581,71.8735326 C50.1211426,72.4341517 49.5142904,73.0539474 49.4698091,73.9322507 C48.8184756,74.4866408 48.567474,75.2715076 48.3323585,76.0532599 C47.7000884,76.3927459 46.9979192,75.8757305 46.3338768,75.8632723 C45.879532,76.5640462 45.9716718,77.6510245 44.9104749,77.7942938 C44.6976,77.4361205 44.4847252,77.0779471 44.2718504,76.7197738 C42.8134988,77.0063124 41.5362498,77.7787211 40.1573292,78.2770492 C38.8292444,78.6165352 37.4376149,78.5978479 36.0745804,78.6414517 C37.628249,78.1462381 39.3661974,77.959365 40.6498009,76.8755013 C41.3170205,76.3896314 41.5203636,75.5705045 41.847619,74.866616 C42.2257101,74.8416996 42.6069785,74.8230123 42.9914241,74.8012104 C43.1534631,74.0879783 43.3313884,73.3560588 43.9382405,72.8733034 C44.3163317,73.0975511 44.6944228,73.3249133 45.0756912,73.549161 C45.2154896,73.2065604 45.355288,72.8639598 45.4950864,72.5213592 M28.8527221,73.6924303 C29.859906,73.6363684 30.746355,73.0975511 31.728121,72.9137926 C32.8052042,73.0570619 33.7679068,73.7453777 34.886294,73.6643993 C35.947491,73.6176811 37.0118652,73.5367027 38.0730621,73.6643993 C38.0953028,74.380746 38.1937971,75.1126655 38.0539987,75.8258977 C37.0055107,76.6730555 36.0332764,77.6043062 35.0038518,78.4763805 C34.6448241,78.2147582 34.2921508,77.9531359 33.9363003,77.6915136 C34.3016825,77.1776127 34.5526842,76.5173279 35.1627136,76.2307893 C35.9188959,75.8383559 36.7386229,75.4521515 37.1198912,74.6485974 C36.2874553,75.0254581 35.5122096,75.511328 34.6924826,75.9131051 C33.6344629,75.5518172 32.547848,75.1624983 31.4103974,75.1687274 C30.5271257,75.1656129 29.7423483,75.6109936 28.9734571,75.9816252 C28.4015545,75.4147769 27.8201203,74.8510432 27.2450405,74.2873095 C27.1560779,74.3682878 26.9845071,74.533359 26.8987217,74.6174519 C27.9694504,75.60165 28.9734571,76.6543682 29.9679321,77.71643 C29.6915125,78.0154269 29.4150929,78.3175384 29.1386734,78.6165352 C28.1410212,77.8846158 27.0512291,77.2803929 25.9201329,76.7727211 C25.9264874,75.7355757 25.948728,74.7015448 25.9805004,73.6643993 C26.9368486,73.6706284 27.8963739,73.7453777 28.8527221,73.6924303 M30.9274575,77.6354517 C31.5470186,77.7849502 32.1729341,77.7382319 32.7702546,77.5233279 C33.3421571,77.8815012 33.8949963,78.2614764 34.4414809,78.6570244 C34.1142256,79.4014021 33.8981735,80.2485599 33.2817896,80.8309809 C32.5001895,80.8309809 31.7154121,80.7780336 30.9369892,80.8839283 C30.3237826,80.2080708 30.0505402,79.3391111 29.8090703,78.4888387 C30.1776297,78.1991854 30.5493663,77.9095322 30.9274575,77.6354517 M23.6642951,80.4790367 C25.7422077,80.4759221 27.8455382,80.5973896 29.8694378,80.0025104 C30.1839842,80.7063989 29.4913466,81.2857054 28.9099124,81.5566713 C27.7470438,81.9117301 26.4475542,81.7778044 25.3672938,82.4100582 C24.6460611,81.9086155 24.0963992,81.2265289 23.6642951,80.4790367 M33.8028564,80.5257549 C35.947491,80.9586775 38.1207207,80.9929376 40.2939504,81.1019469 C39.7824153,81.7497734 39.159677,82.2979344 38.4797484,82.7713461 C37.4249059,81.995823 36.0491626,82.2605598 34.8545217,81.8961573 C34.2476695,81.6843679 34.0379719,81.0458849 33.8028564,80.5257549 M19.2447592,81.8618973 C20.8492636,82.0892595 22.4887176,82.210727 24.0836903,81.8587827 C24.8430498,82.4505474 25.6977264,82.9021573 26.5682891,83.3163925 C24.6587701,84.3410798 22.4505908,83.9393027 20.3853871,83.833408 C20.5537806,83.5032656 20.7094652,83.1731232 20.8492636,82.8336372 C20.3663237,82.4349746 19.7912439,82.1671233 19.2447592,81.8618973 M39.6648576,82.4069437 C41.0024741,82.3789127 42.3242044,82.1702378 43.6554665,82.058114 C42.8929298,82.640535 43.3282111,83.3381944 43.7825559,83.9642191 C41.5616677,83.5375257 39.2740575,84.2850179 37.0881189,83.6091603 C37.9840995,83.2883616 38.8578395,82.9052718 39.6648576,82.4069437" id="Fill-5" fill="#FEF481"></path>
            </g>
        </g>
    </g>
</svg>