<?xml version="1.0" encoding="UTF-8"?>
<svg width="84px" height="93px" viewBox="0 0 84 93" version="1.1" xmlns="http://www.w3.org/2000/svg" xmlns:xlink="http://www.w3.org/1999/xlink">
    <title>Bank-Parsian-Logo</title>
    <g id="Page-1" stroke="none" stroke-width="1" fill="none" fill-rule="evenodd">
        <g id="Artboard" transform="translate(-802.000000, -660.000000)">
            <g id="Bank-Parsian-Logo" transform="translate(802.000000, 660.000000)">
                <path d="M38.6627526,39 C37.9124666,33.9788644 37.0340831,32.3578995 34,28.1191325 C38.0751303,22.1826899 40.3727538,13.9236407 42.0002033,7 C43.6508324,14.0248506 45.8752573,22.1107987 50,28.1191325 C46.9659169,32.3578995 46.0875334,33.9788644 45.3368408,39 C43.2901258,37.1011095 40.7098742,37.1011095 38.6627526,39" id="Fill-1" fill="#02000C"></path>
                <path d="M37.065642,88.6683777 L37.065642,64.45444 C25.0799076,59.6076275 23.4516969,52.1007433 23.4516969,41.2024589 C28.2833327,43.1416668 30.0468879,45.2555565 32.263358,48.7838041 C32.85814,45.5731229 33.6636845,43.1770862 35.4537378,40.5552512 C41.2262625,46.4018546 40.9987859,63.4486117 40.9987859,66.0640067 C40.9987859,75.0424028 40.9987859,84.0212014 40.9987859,93 L0,93 C0,72.8419773 0,52.6839547 0,32.525932 C0,26.6777187 1.26742792,17.3153449 8.58499983,16 L10.519774,18.5848057 C3.48512102,21.052486 3.81655199,30.2156261 3.81655199,36.3343143 L3.81655199,88.6683777 L37.065642,88.6683777" id="Fill-2" fill="#811A21"></path>
                <path d="M26.6999265,41.0278587 C22.9677424,36.120442 20.3016606,39.4744665 20.417272,46 C17.9877808,26.9239102 13.409156,17.2136012 3,9 C16.5826893,11.4474771 27.3560212,20.6504411 35,38.6402821 C31.8656921,37.2127211 27.4493361,37.0133209 26.6999265,41.0278587" id="Fill-3" fill="#02000C"></path>
                <path d="M23.0501583,15 C23.2055185,11.5718743 24.8767024,6.73270253 23.3850742,4.32439079 C21.9859831,2.06640075 19.0663991,3.15148601 17.7988972,4.23419778 C14.2379216,3.36826571 11.7156523,6.52581241 13.6954342,8.8589633 C15.9625901,11.5295468 19.389005,11.5987739 23.0501583,15" id="Fill-4" fill="#02000C"></path>
                <g id="Group-8" transform="translate(24.000000, 0.000000)">
                    <path d="M11.7802703,16.9032 L7.46716216,25.8592 C5.04,21.9948 3.18162162,19.6008 0.045,16.5568 C1.29527027,13.0308 2.31486486,8.8196 2.40202703,5.226 C4.9872973,9.382 8.10932432,13.4208 11.7802703,16.9032" id="Fill-5" fill="#811A21"></path>
                    <path d="M12.1281081,14.0908 C10.6637838,11.2052 6.74067568,8.1268 5.15432432,5.0968 C4.26324324,3.394 4.91189189,0.5764 9.345,1.3 C10.3317568,-0.3416 13.7201351,0.0316 14.4595946,2.0208 C15.8862162,5.8572 13.4716216,10.95 12.1281081,14.0908" id="Fill-7" fill="#02000C"></path>
                </g>
                <path d="M46.9339112,88.6683777 L46.9339112,64.45444 C58.9199341,59.6076275 60.5481286,52.1007433 60.5481286,41.2024589 C55.7169485,43.1416668 53.9534108,45.2555565 51.7365551,48.7838041 C51.141779,45.5731229 50.3362426,43.1770862 48.546207,40.5552512 C42.7737397,46.4018546 43.0012141,63.4486117 43.0012141,66.0640067 C43.0012141,75.0424028 43.0012141,84.0212014 43.0012141,93 L84,93 C84,72.8419773 84,52.6839547 84,32.525932 C84,26.6777187 82.7313617,17.3153449 75.4150855,16 L73.4795153,18.5848057 C80.5149136,21.052486 80.1826706,30.2156261 80.1826706,36.3343143 L80.1826706,88.6683777 L46.9339112,88.6683777" id="Fill-9" fill="#811A21"></path>
                <path d="M57.3001806,41.0278587 C61.0324129,36.120442 63.698529,39.4744665 63.5825032,46 C66.0124387,26.9239102 70.5911226,17.2136012 81,9 C67.4171355,11.4474771 56.6436645,20.6504411 49,38.6402821 C52.1347613,37.2127211 56.5511742,37.0133209 57.3001806,41.0278587" id="Fill-10" fill="#02000C"></path>
                <path d="M60.9495642,15 C60.7946297,11.5718743 59.1234599,6.73270253 60.614651,4.32439079 C62.014155,2.06640075 64.934139,3.15148601 66.2007813,4.23419778 C69.7617271,3.36826571 72.2843997,6.52581241 70.3046344,8.8589633 C68.0374975,11.5295468 64.6106868,11.5987739 60.9495642,15" id="Fill-11" fill="#02000C"></path>
                <g id="Group-16" transform="translate(45.000000, 0.000000)">
                    <path d="M3.32763158,16.9032 L7.52684211,25.8592 C9.89013158,21.9948 11.6996053,19.6008 14.7532895,16.5568 C13.5359211,13.0308 12.5435526,8.8196 12.4590789,5.226 C9.94184211,9.382 6.90078947,13.4208 3.32763158,16.9032" id="Fill-12" fill="#811A21"></path>
                    <path d="M2.98815789,14.0908 C4.41473684,11.2052 8.23381579,8.1268 9.77802632,5.0968 C10.6464474,3.394 10.0148684,0.5764 5.69842105,1.3 C4.73763158,-0.3416 1.43881579,0.0316 0.718421053,2.0208 C-0.670657895,5.8572 1.68078947,10.95 2.98815789,14.0908" id="Fill-14" fill="#02000C"></path>
                </g>
            </g>
        </g>
    </g>
</svg>