<?xml version="1.0" encoding="UTF-8"?>
<svg width="67px" height="88px" viewBox="0 0 67 88" version="1.1" xmlns="http://www.w3.org/2000/svg" xmlns:xlink="http://www.w3.org/1999/xlink">
    <title>Pasargad-logo</title>
    <g id="Page-1" stroke="none" stroke-width="1" fill="none" fill-rule="evenodd">
        <g id="Artboard" transform="translate(-685.000000, -512.000000)">
            <g id="Pasargad-logo" transform="translate(685.000000, 512.000000)">
                <path d="M51.2585578,42.8650579 C50.4803086,41.718202 51.5746074,39.7564257 53.0013976,40.0249578 C52.7547693,40.5209963 52.0569027,40.3550285 51.7317187,40.7671507 C51.4741292,41.0878974 51.536243,41.5895303 51.7481606,41.9177363 C52.007577,42.1694851 52.3802597,42.2328885 52.7036168,42.3708842 C52.3236266,42.7438455 51.8102744,43.2436136 51.2585578,42.8650579 M52.184784,41.0319532 C52.2633396,40.8249597 52.5117948,40.7820692 52.670733,40.658992 C52.6762136,40.9890627 52.6780405,41.3209982 52.6908286,41.651069 C53.1694702,41.6454745 53.3320621,41.188597 53.5001347,40.8137709 C54.0006988,40.7596915 54.5067435,40.7857988 55,40.899552 C54.322229,41.2520004 53.6700342,41.6678522 52.9593794,41.949438 C52.5446786,41.9177363 51.9655588,41.5149381 52.184784,41.0319532" id="Fill-1" fill="#FFFFFF"></path>
                <path d="M2.26821127,0.0327322897 C11.0561947,-0.0329082472 19.8477388,0.0238619469 28.6375026,0.00434719268 C33.3893518,0.0256360155 38.1429814,-0.0346823158 42.8948306,0.0345063583 C42.8164936,0.508182665 42.7221332,0.976536766 42.6259924,1.44666494 C29.2570768,1.4715019 15.8863808,1.47327596 2.51924564,1.44489087 C2.42132443,0.976536766 2.33586593,0.506408597 2.26821127,0.0327322897 M2.65633534,2.20596628 C3.59993971,2.14919609 4.54710486,2.16871084 5.49248962,2.17048491 C16.9457103,2.17048491 28.3989309,2.17225898 39.853932,2.17048491 C40.7352228,2.16693677 41.6182941,2.15806643 42.499585,2.19887001 C41.8248188,6.35019045 41.1856604,10.5068331 40.5322589,14.6617017 C39.0527584,14.6067056 37.9791859,13.196321 37.8367551,11.8178698 C38.2213184,11.2395234 38.7857006,10.7587508 38.9726411,10.06509 C39.15246,9.36965515 39.1951893,8.64760924 39.3589848,7.94862623 C39.5441449,7.13787689 39.9981432,6.42115319 40.2171306,5.6192742 C39.9393905,5.72571831 39.6616503,5.84635498 39.4391021,6.05037286 C38.6788775,6.71387451 37.947139,7.42350193 37.3400275,8.23425127 C36.42847,7.24964321 35.5080107,6.25261668 34.4130735,5.4667043 C34.3543208,6.16213918 34.8706326,6.71210044 35.0540124,7.35076512 C35.4528187,8.31408435 35.3210702,9.40513652 35.7501431,10.3578113 C35.9869344,10.8971282 36.4266897,11.305164 36.7151121,11.8125476 C36.6456771,13.013592 35.8106762,14.1844772 34.6480844,14.5818686 C33.5228807,14.8550752 32.1929327,14.7433088 31.3525907,13.868693 C30.7294557,13.324054 30.7294557,12.3500903 30.0173015,11.8888325 C29.7698279,13.1200361 30.6083895,14.2465696 31.5982839,14.878138 C33.3092345,15.9496755 35.8712093,15.3731032 36.8165941,13.5493607 C37.3062002,12.9195663 37.1281616,12.1194614 37.1708908,11.384997 C37.3115413,11.5216003 37.4913603,11.6315926 37.5928422,11.8072254 C37.5394307,12.3394459 37.370294,12.9195663 37.6961046,13.4056611 C38.2070753,14.4771985 39.277087,15.1194114 40.389828,15.421003 C40.3399772,15.7687205 40.2919068,16.1164379 40.242056,16.4623813 C31.0926544,16.5138293 21.9414723,16.4694775 12.7920706,16.4854442 C10.171343,16.4606072 7.55061539,16.5368921 4.93166815,16.4464147 C4.8764762,16.0880528 4.82306463,15.731465 4.77143345,15.3731032 C5.67764972,14.9668415 6.58564639,14.4328468 7.05744857,13.5227497 C7.4384511,12.9816587 7.34231027,12.3039646 7.19097749,11.7025553 C7.34587104,11.6103037 7.50076459,11.5180522 7.65743853,11.4275747 C7.6360739,12.0609172 7.51678806,12.7474817 7.87286518,13.3187318 C8.44792974,14.5729982 9.79746203,15.4511622 11.1879432,15.3979401 C13.043105,15.523899 14.9801646,13.8651449 14.8163691,11.952699 C14.7024244,11.9935026 14.4727547,12.0768838 14.35881,12.1176874 C14.0508033,13.1998692 13.361794,14.2714066 12.2223472,14.5996093 C11.307229,14.7681458 10.2514604,14.8089494 9.46631031,14.2270549 C8.59748213,13.6469345 8.12567994,12.625071 8.03309989,11.6067556 C8.46929437,11.2838751 8.87166151,10.8882578 9.06750393,10.3720039 C9.47699262,9.45835858 9.37194987,8.4187544 9.7155643,7.48559433 C9.93099095,6.81322235 10.3119935,6.2064909 10.4935928,5.52170043 C10.2354369,5.63169268 9.97015944,5.74168493 9.76363471,5.93683247 C8.95355925,6.66065245 8.18977382,7.43414634 7.46515688,8.24312161 C6.66042258,7.24964321 5.78981402,6.24197227 4.65570838,5.61572606 C4.80348039,6.4264754 5.24323563,7.14142503 5.44797998,7.93443368 C5.64916355,8.67599434 5.66696741,9.45481044 5.88417445,10.1910489 C6.08713841,10.8297136 6.62659526,11.2661344 6.97911161,11.8160957 C6.85092384,13.1058435 5.92156255,14.3015658 4.65214761,14.6634757 C3.98094223,10.5121553 3.27590953,6.364383 2.65633534,2.20596628 M7.26041253,3.61102859 C7.09839744,4.34017077 7.23726752,5.08527956 7.21234212,5.82151802 C6.96486852,5.33187509 6.91323734,4.72159551 6.53757597,4.31178567 C6.3862432,4.30114126 6.08357764,4.2816265 5.93224487,4.27275616 C5.90553908,5.12076093 6.54825829,5.75232934 7.0538878,6.35728672 C7.24260868,6.26326109 7.43310994,6.17100952 7.6236112,6.07875796 C7.75001858,5.3992897 7.98680986,4.72514364 7.94764138,4.02616063 C7.94051984,3.65715437 7.51144691,3.70860236 7.26041253,3.61102859 M14.5279466,4.00664588 C14.5457505,4.73046585 14.7344713,5.44364141 14.7148871,6.17278359 C14.825271,6.17633173 15.0442584,6.183428 15.1546423,6.18697614 C15.1332777,5.45605989 15.2846105,4.73756212 15.3077555,4.01196808 C15.3166574,3.54716212 14.5546524,3.55425839 14.5279466,4.00664588 M22.0429543,3.66070251 C21.8115042,4.46612963 22.055417,5.28752338 22.2227732,6.07875796 C22.420396,6.16036511 22.6180188,6.24374634 22.8156416,6.32890163 C23.3497573,5.76652189 23.96221,5.13140535 23.9408454,4.30114126 C23.7752695,4.29404498 23.4441178,4.2816265 23.2767615,4.27453023 C23.0488722,4.8404581 22.8476886,5.41703038 22.62336,5.98473233 C22.6376031,5.22897912 22.7141597,4.47499998 22.6981362,3.7174727 C22.4791488,3.70328015 22.2601613,3.6837654 22.0429543,3.66070251 M29.5526208,3.63054334 C29.276661,4.46435556 29.6843693,5.3088122 29.6701263,6.15326884 C29.9638899,6.14262443 30.3484532,6.37502741 30.569221,6.08940237 C31.0036351,5.59621131 31.3703945,5.02318716 31.5252881,4.37742621 C31.3650534,4.3383967 31.044584,4.25678954 30.8861296,4.21598597 C30.5264917,4.76594722 30.3733786,5.40993411 30.1134423,6.00602115 C30.0689326,5.33897137 30.2131439,4.68434007 30.2487516,4.02261249 C30.2113635,3.66070251 29.8143375,3.71215049 29.5526208,3.63054334 M36.8967115,3.72811711 C36.8468607,4.52822203 37.0480442,5.30703813 37.1940359,6.0876283 C37.3845371,6.19052428 37.5750384,6.29342026 37.7655396,6.3980903 C38.2782907,5.80909954 38.7821398,5.17753113 38.9726411,4.40403723 C38.7785791,4.32775229 38.584517,4.25146734 38.3922354,4.17518239 C37.993429,4.66482531 37.8705824,5.29639372 37.5999638,5.85167718 C37.5376503,5.11366466 37.7281515,4.37032993 37.5679168,3.63941368 C37.3435883,3.66957285 37.1192597,3.69795794 36.8967115,3.72811711 M7.88710827,6.27745364 C8.59392136,5.89070669 9.03011583,5.11011652 9.13871936,4.32775229 C8.97492388,4.30823753 8.64555254,4.26565989 8.47997668,4.24437106 C8.1684092,4.88303575 7.89244943,5.55363366 7.88710827,6.27745364 M13.2745551,4.36500773 C13.5113464,5.12608314 13.8745451,5.95989537 14.6258678,6.33954604 C14.5226055,5.59621131 14.3481277,4.84932844 13.915494,4.2195341 C13.7552593,4.25501547 13.4347898,4.32775229 13.2745551,4.36500773 M15.7831185,4.48209625 C15.4733314,5.05689447 15.3398024,5.70442949 15.2240774,6.34132011 C15.9629374,5.92618806 16.4187161,5.11898687 16.5807312,4.30823753 C16.3243557,4.33662263 15.9077455,4.14857136 15.7831185,4.48209625 M20.7343709,4.33484856 C20.8714606,5.09947211 21.2791689,5.87651414 21.9717389,6.27213143 C22.0073466,5.54476332 21.7029006,4.87771354 21.3824312,4.24437106 C21.2204161,4.26743395 20.896386,4.31178567 20.7343709,4.33484856 M28.219112,4.30114126 C28.3882486,5.04802412 28.7283023,6.03795438 29.557962,6.23842413 C29.4386761,5.64233709 29.3069276,5.03560564 29.0202855,4.49451473 C28.8974389,4.17163425 28.4737071,4.34549297 28.219112,4.30114126 M35.666465,4.32597822 C35.8071155,5.09947211 36.2272865,5.88183635 36.9305388,6.27745364 C36.9340996,5.55363366 36.6741633,4.87239133 36.3394508,4.24259699 C36.1703141,4.26388582 35.8338213,4.30646346 35.666465,4.32597822 M5.18270252,4.63644022 C5.0616363,4.83868403 4.94057008,5.04092785 4.81772347,5.24317167 C5.3838861,5.87296601 6.02304453,6.44953829 6.78682996,6.83451117 C6.43787438,5.99360267 5.95895065,5.15446824 5.18270252,4.63644022 M9.49301609,4.76417315 C9.03545699,5.41525632 8.49956092,6.04327659 8.29659696,6.83096303 C8.93931617,6.40163844 9.59627846,5.95457316 10.0858845,5.34961578 C10.0983472,5.14914603 10.101908,4.94867628 10.0983472,4.74643247 C9.89538324,4.75175467 9.69419967,4.75707688 9.49301609,4.76417315 M12.3024646,4.74111026 C12.3060254,5.06931295 12.3718996,5.39219342 12.5285736,5.6813666 C12.3469742,5.67959253 12.1653749,5.67781846 11.9837756,5.67604439 C12.2846607,6.43889388 12.6799063,7.16803606 12.8810899,7.96636691 C13.0324227,8.67067213 13.0555677,9.39804024 13.2745551,10.0881529 C13.4508133,10.7445583 13.9404194,11.2395234 14.3712727,11.7415848 C14.7202283,11.6652999 15.0798662,11.6528814 15.4306021,11.7309404 C15.7955812,11.384997 16.1748033,11.0319574 16.3955711,10.5706996 C16.7961579,9.76527244 16.7747933,8.84453085 16.9795376,7.98588167 C17.1700389,7.16271385 17.6115745,6.43002353 17.8483658,5.62282234 C16.6252409,6.14794663 15.8472123,7.31528375 14.9285334,8.23070313 C14.2092576,7.33834664 13.2620924,6.65710431 12.5837655,5.73281459 C13.0858343,6.02376183 13.5166876,6.41228285 13.9724663,6.76709656 C13.9760271,6.66242652 13.9813682,6.45308643 13.9831486,6.35019045 C13.6822634,5.79135885 13.3226255,5.25204201 12.8828703,4.79433232 C12.6888083,4.76772129 12.4965266,4.7499806 12.3024646,4.74111026 M16.9421495,4.75885095 C16.4667865,5.35671205 15.9985451,5.97231385 15.7190246,6.69081161 C16.4026927,6.44776422 16.9670749,5.96699164 17.4370967,5.4276748 C17.641841,5.23430132 17.447779,4.95932069 17.4192928,4.73578806 C17.300007,4.74111026 17.0614353,4.75175467 16.9421495,4.75885095 M19.7872057,4.73578806 C19.7658411,4.85642472 19.7213314,5.09947211 19.6999668,5.22010877 C19.8263742,5.40106377 19.9563423,5.58201876 20.0845301,5.76297375 C19.8388369,5.71152577 19.5949241,5.65830371 19.3510112,5.60862979 C19.7142099,6.49921221 20.1788905,7.35786139 20.374733,8.30698808 C20.5082619,8.95097497 20.4601915,9.63576543 20.7432728,10.2424969 C20.9925268,10.8740653 21.5159601,11.3512897 21.7580926,11.9828581 C21.5960775,13.1360027 20.8038059,14.1915735 19.6928453,14.5871908 C18.6958293,14.8107234 17.526116,14.7947568 16.708919,14.0993219 C15.938012,13.5404903 15.7243657,12.573623 15.2650263,11.7930328 C15.1172542,12.1212355 14.9587999,12.4795973 15.0941092,12.8415073 C15.4448452,14.0159407 16.4543238,14.9615193 17.6293783,15.2985923 C18.6904882,15.5185768 19.8691035,15.4245512 20.762857,14.7628236 C21.5533482,14.2962436 21.8969627,13.4145315 22.3705452,12.678293 C22.7871555,13.4730757 23.2002049,14.3405953 24.0102804,14.8124975 C24.880889,15.4245512 25.9989711,15.4919658 27.0209125,15.3269774 C28.2084297,15.0431264 29.2285906,14.1383514 29.6309578,12.988755 C29.7609259,12.497338 29.6630047,11.9864063 29.6523224,11.487893 C29.9318429,11.5872409 30.2861397,11.9118954 30.522931,11.5606298 C31.4469511,10.8332617 31.6641581,9.62689509 31.7941263,8.53052072 C31.8956083,7.50333502 32.4261632,6.59678598 32.7893619,5.64943337 C32.5970802,5.67072219 32.4065789,5.69201101 32.2160777,5.7150739 C32.3104381,5.50395974 32.4083593,5.29284558 32.5045002,5.08173143 C32.4564297,5.00189834 32.3602889,4.8404581 32.3104381,4.76062502 C32.2071758,4.75352874 31.9988706,4.74111026 31.8956083,4.73401399 C31.3988807,5.31768254 30.9235177,5.94038061 30.6849461,6.67839313 C31.215501,6.43002353 31.6677189,6.05569507 32.157325,5.73991086 C32.0273568,6.10536899 31.7157893,6.34841638 31.4398296,6.60033412 C30.8754473,7.10239552 30.3609159,7.65767898 29.8695294,8.22892906 C29.230371,7.48914247 28.468366,6.86467033 27.8790583,6.0823061 C28.2867666,6.32357942 28.6766711,6.59146377 29.0843794,6.83451117 C28.8582704,6.04327659 28.3027901,5.42412666 27.8416702,4.76239908 C27.6333651,4.75707688 27.42506,4.7499806 27.2185353,4.7446584 C27.2434607,5.11366466 27.3413819,5.46847837 27.5087381,5.79845513 C27.2790684,5.68491474 27.0476182,5.57314842 26.8161681,5.46493024 C27.0672025,6.24374634 27.4998362,6.95159969 27.720604,7.74283427 C28.0072461,8.6387389 27.9253484,9.62689509 28.3490801,10.4855443 C28.5823106,10.994702 29.0505521,11.3566119 29.2820022,11.8639955 C29.1395713,13.2034173 28.094485,14.5428391 26.6862,14.6776683 C25.9046107,14.7504051 25.0482452,14.7326644 24.3788202,14.2714066 C23.5455997,13.7870859 23.098723,12.8627962 22.8815159,11.9615693 C22.817422,11.6014334 23.2073265,11.4116081 23.3889258,11.1596903 C24.0494489,10.4908665 24.1544916,9.5080325 24.2898009,8.62454635 C24.3895025,7.56365335 24.9129359,6.61630073 25.3081815,5.64588523 C25.1158999,5.66717405 24.9236182,5.68846287 24.7313366,5.7097517 C24.8399401,5.48621906 24.9485436,5.26446049 25.0553667,5.04270192 C24.8630851,4.94158001 24.6832662,4.67724379 24.4393533,4.77659163 C23.7984145,5.3088122 23.3800239,6.05569507 23.0862603,6.82209269 C23.6096936,6.49034187 24.1028604,6.1160134 24.599588,5.743459 C24.6031488,5.81442174 24.6102703,5.95634723 24.6138311,6.0255359 C23.7628068,6.6464599 22.9918998,7.37915022 22.3794472,8.2377994 C21.6655125,7.38802056 20.8020255,6.674845 20.0898713,5.82506615 C20.615085,6.13198002 21.0833264,6.51872696 21.5925167,6.84692965 C21.3717489,6.05214693 20.8055863,5.43654514 20.3533683,4.76949536 C20.1646475,4.75885095 19.9759266,4.74643247 19.7872057,4.73578806 M34.7086175,4.73933619 C34.6997156,4.94335408 34.701496,5.14737196 34.7139587,5.34961578 C35.2213686,5.94747689 35.8676486,6.41760506 36.5246109,6.84160744 C36.3394508,6.03618031 35.7323393,5.44364141 35.3068271,4.76417315 C35.1056435,4.75530281 34.9062403,4.74820654 34.7086175,4.73933619 M38.0343779,6.82386676 C38.7589948,6.39986437 39.4195179,5.87296601 39.9803393,5.24849387 C39.8574927,5.04625005 39.7364265,4.84223217 39.6189211,4.63821428 C38.8426729,5.14914603 38.3957962,5.99715081 38.0343779,6.82386676 M6.77792803,6.81144828 C6.96308814,7.19464709 7.23548714,7.52284977 7.58266233,7.77121937 C7.7838459,7.52817198 8.01173526,7.29931713 8.14704457,7.01191802 C8.07226837,6.79548166 7.97968832,6.56485275 7.7838459,6.42824947 C7.39216107,6.32180535 7.08593474,6.63049328 6.77792803,6.81144828 M14.5510916,6.36615707 C14.4923389,6.62871921 14.2911553,6.88595916 14.3570296,7.16271385 C14.5226055,7.40398718 14.732691,7.61332727 14.9303138,7.82976363 C15.1403993,7.5157535 15.5481076,7.24786914 15.5427664,6.84160744 C15.3914336,6.40873471 14.9320941,6.40696064 14.5510916,6.36615707 M21.6227833,6.99417734 C21.8399903,7.24609507 22.055417,7.49801281 22.272624,7.74993055 C22.5503642,7.51930163 22.8138613,7.2727061 23.0684564,7.01724023 C22.8298847,6.77596691 22.6714304,6.28100178 22.2476986,6.42292726 C21.9396919,6.44421608 21.8257472,6.80790014 21.6227833,6.99417734 M29.4386761,6.56130461 C28.9775563,6.9569219 29.4974289,7.44301669 29.7466828,7.78008971 C30.0226426,7.53526825 30.2897004,7.27980238 30.5478564,7.0190143 C30.3413316,6.61984887 29.8624079,6.13375408 29.4386761,6.56130461 M36.825496,6.64468583 C36.4462739,7.06514008 36.9839504,7.44479075 37.2260828,7.76234903 C37.494921,7.51397943 37.7566377,7.25496542 38.0147936,6.99240327 C37.7691004,6.60743039 37.194039,6.09117644 36.825496,6.64468583 M5.17558098,17.2979676 C5.51563463,17.2713565 5.85746867,17.2482936 6.20108309,17.2429714 C16.1124898,17.2447455 26.0256769,17.2429714 35.9370836,17.2429714 C37.2919571,17.2713565 38.6521717,17.1737828 40.001704,17.310386 C40.0177274,17.4363449 40.047994,17.6882626 40.0622371,17.8142215 C28.4149544,17.8284141 16.7658913,17.82664 5.11860864,17.8159956 C5.13285172,17.6864886 5.16133789,17.4274746 5.17558098,17.2979676 M5.19694561,18.2612868 C16.7908167,18.2595127 28.3829075,18.2506424 39.9749982,18.266609 C38.5756151,26.908097 37.2474474,35.5602294 35.8765505,44.2052655 C35.200004,47.4500369 34.9133619,50.9165669 36.0100794,54.1045681 C36.6741633,56.1589395 38.2302203,57.9560709 40.2687618,58.7419833 C41.8355012,59.3380703 43.316782,60.2446194 44.383233,61.5521079 C44.9618583,62.2759279 45.4122959,63.1736066 45.3268373,64.1245073 C45.3108139,65.0168638 44.5950989,65.7868096 43.7618784,66.0280829 C42.9001718,66.1806528 41.977932,66.2037157 41.1678566,65.8329354 C39.1364366,65.0931488 36.7471591,64.6886611 34.756688,65.7655208 C33.4694692,66.3882188 32.5828371,67.8021515 32.8000442,69.2444692 C33.1347567,71.4709253 35.1394709,73.2928937 37.3524902,73.5714224 C47.0644937,73.5802928 56.7782776,73.560778 66.4902811,73.5802928 C66.4867204,74.155091 66.4885008,74.7298892 66.4938419,75.3046874 C63.2535401,75.4040353 60.0096775,75.31888 56.7675953,75.3472651 C37.9346763,75.3366207 19.1017573,75.370328 0.268838228,75.3312985 C0.245693215,74.7458558 0.249253986,74.1586391 0.286642084,73.5749706 C8.43190627,73.5696484 16.5753901,73.5749706 24.7206542,73.5731965 C25.6517959,73.560778 26.5918395,73.6406111 27.5122989,73.4614302 C27.3431623,73.3585342 27.1633433,73.2840233 26.9728421,73.2378976 C22.8459082,72.7251917 19.0412241,70.4384174 16.4454219,67.2309014 C13.5469541,63.7005049 11.9891167,59.2813002 11.1202885,54.8549991 C9.1084528,42.6600518 7.21056174,30.45446 5.19694561,18.2612868 M20.467313,28.281226 C20.4566307,29.8672433 20.3943172,31.4532606 20.4334857,33.0375039 C21.1865888,32.8831599 21.9503742,32.7767158 22.7177204,32.7093012 C23.2091069,31.4035867 23.6363994,30.0748094 24.1366878,28.772643 C24.3058244,28.382348 24.3912829,27.8749643 24.0405469,27.5538579 C23.4548001,27.0269596 22.5948738,27.1245333 21.8631353,27.1298556 C21.206173,27.1174371 20.4032191,27.5254728 20.467313,28.281226 M16.39023,29.0316571 C16.0751017,29.4219521 16.1943875,29.9470764 16.4151554,30.3515641 C17.004463,31.5277715 17.5670649,32.7199456 18.1510313,33.8997012 C18.8222367,33.6655241 19.4471521,33.326677 20.0916517,33.0321817 C20.023997,31.4710013 20.0863105,29.9044988 19.9794874,28.3468666 C19.8780054,27.6567539 19.0412241,27.8093238 18.5409358,27.8731903 C17.7504446,28.0665638 16.9190045,28.3858961 16.39023,29.0316571 M25.2779149,27.9352827 C24.8363793,28.1357524 24.7188739,28.6307176 24.5586392,29.0405274 C24.1384682,30.2681828 23.6079132,31.4585828 23.2322519,32.703979 C23.9052376,32.860097 24.5782234,33.0233113 25.2601111,33.1510443 C26.0666258,32.3225542 26.6879804,31.3450425 27.4428639,30.4722007 C27.8042821,30.039328 28.2565001,29.5177518 28.0143676,28.9127945 C27.5479066,27.9601196 26.2446643,27.4899915 25.2779149,27.9352827 M28.1835043,30.323179 C27.3146761,31.254565 26.584718,32.3065876 25.7728621,33.2876475 C26.2179586,33.7169721 26.6434707,34.1693596 27.0333752,34.6501322 C28.0410734,34.1321042 29.0469913,33.6069799 30.0368857,33.0534705 C30.5870248,32.7465566 31.114019,32.1699843 31.0267801,31.4993864 C30.8309377,30.81637 30.3555747,30.2114126 29.7502436,29.8406323 C29.1858614,29.6206478 28.5627264,29.884984 28.1835043,30.323179 M14.040121,30.7773405 C13.3920606,31.3361721 13.2086809,32.2036916 13.1695124,33.0179891 C14.2163791,34.0079194 15.3771905,34.8718908 16.4098142,35.8777876 C16.8780556,35.3579856 17.323152,34.8168946 17.7878327,34.2953185 C17.3142501,32.8831599 16.5273197,31.6058305 15.9184278,30.2522162 C15.268587,30.2859235 14.5742366,30.376401 14.040121,30.7773405 M11.0739985,35.6560291 C11.533338,36.1314794 12.1956415,36.3372714 12.7760472,36.6335409 C13.7232123,37.0344803 14.5849189,37.6341155 15.5908368,37.8860333 C15.8187262,37.3573608 16.0270313,36.8198181 16.2228737,36.2769531 C15.4181394,35.5194258 14.5421897,34.8452797 13.7232123,34.1054931 C13.3279667,33.7985793 12.9576465,33.376351 12.4342131,33.3160326 C11.2573782,33.1386258 10.5416632,34.7459319 11.0739985,35.6560291 M19.9047112,33.9529233 C19.2192627,34.2758037 19.2975997,35.1681602 19.5504144,35.7518288 C19.9616835,36.7080517 20.6506927,37.6004082 21.5480071,38.1397251 C22.0981462,38.0776327 22.5877523,37.7849114 23.1058445,37.6039564 C23.0524329,36.6707963 22.6162385,35.8015027 22.646505,34.8594723 C22.6482854,34.4035367 22.6322619,33.945827 22.568168,33.4934395 C21.6672929,33.5200505 20.7379316,33.5927873 19.9047112,33.9529233 M23.237593,33.7258425 C23.1467934,35.00672 22.9847783,36.4916154 23.8411438,37.5667009 C24.4357926,37.6749191 25.042904,37.5986342 25.642894,37.5844416 C25.6874036,36.6796666 25.9722653,35.8174693 26.4066794,35.0262347 C25.7283525,33.997275 24.4197691,33.6158502 23.237593,33.7258425 M16.607437,36.8819105 C16.39023,37.517027 17.0133649,38.0368291 17.4673633,38.3774503 C18.3522149,38.9522485 19.3421093,39.5536577 20.4317053,39.5394652 C20.7325905,39.2431957 20.9622602,38.8848339 21.2168554,38.5495349 C20.6667162,37.9711886 20.0346793,37.4620309 19.5895829,36.793207 C19.183655,36.1864756 18.8525033,35.5353924 18.4839634,34.9073721 C17.5332375,35.1486455 16.9599534,36.0321316 16.607437,36.8819105 M10.739286,36.7045036 C10.1998292,37.0344803 10.0680806,37.6997561 10.000426,38.2781024 C9.9505752,38.6719456 9.98440252,39.1669108 10.365405,39.3939915 C11.431856,39.8144458 12.6033498,39.7718681 13.7107496,40.0220118 C14.2591084,40.1461966 14.8181495,40.2260297 15.3736298,40.311185 C15.3878729,39.690261 15.425261,39.0711111 15.4448452,38.4519611 C14.3427865,37.9179665 13.214022,37.4407421 12.0888183,36.9599695 C11.6615258,36.8020774 11.2039667,36.5625781 10.739286,36.7045036 M16.3083322,38.0190884 C15.9682786,38.9770854 16.0181294,40.0220118 16.2371168,40.9995236 C16.3599634,41.4554592 16.5522451,41.9504243 16.9830984,42.200568 C18.1421294,42.330075 19.2869174,42.0142908 20.4406072,41.9717132 C20.4156818,41.3099856 20.4085603,40.6464839 20.4245838,39.9847564 C18.9165971,39.6778425 17.3765636,39.1899737 16.3083322,38.0190884 M22.0144681,38.9008005 C21.215075,39.5128541 20.9551387,40.6234211 21.1848084,41.5743218 C21.3201177,42.2218568 21.7741161,42.7327886 22.2156517,43.2029167 C23.0257271,44.0580178 23.7574656,44.9823075 24.5675411,45.8356345 C27.5710516,48.9579952 30.5318329,52.29147 32.1929327,56.3452167 C33.3786695,59.3735517 33.6777743,62.6768674 33.6297039,65.9038981 C34.2225723,65.5029586 34.8190015,65.073634 35.5311557,64.9104197 C36.506807,64.6035058 37.5483326,64.6815649 38.5489093,64.8092978 C37.8812647,63.2924692 37.6070853,61.6496817 37.1441851,60.0689866 C36.1275849,56.7798635 34.9489696,53.5138032 33.2344583,50.5156274 C31.1781129,47.2815004 28.584091,44.4092834 26.7075646,41.0562938 C26.1965939,40.1603892 25.9099518,39.1598145 25.6802821,38.1610139 C24.4251102,38.0244106 23.0648956,38.1344029 22.0144681,38.9008005 M10.9173246,40.6074544 C10.3867697,41.1166121 10.4152558,41.9433281 10.5309809,42.6121519 C10.7090195,43.1816279 11.408711,43.1496947 11.8911955,43.1550169 C13.384939,43.0929245 14.8786826,43.1017948 16.3742065,43.1000208 C16.0199098,42.3389454 15.6068603,41.6009328 15.3807513,40.7866354 C14.3481277,40.5932619 13.2959198,40.5329436 12.249053,40.4566586 C11.805737,40.4424661 11.3214721,40.3768255 10.9173246,40.6074544 M17.6062333,42.6831147 C16.9599534,43.4725752 17.9427262,44.762323 18.8845502,44.5192756 C19.8851269,44.4199278 20.8447548,44.088177 21.8399903,43.9444774 C21.4109174,43.4140309 21.0156718,42.8551993 20.5438696,42.3637823 C19.5521948,42.2644345 18.5943474,42.6529555 17.6062333,42.6831147 M13.6698007,43.6925597 C12.9576465,43.7564261 12.202763,43.728041 11.5529222,44.0704363 C11.2360136,44.166236 11.2680606,44.5245978 11.316131,44.7800637 C11.4567814,45.3388953 11.852027,45.8072494 12.3309508,46.1159373 C14.1291402,45.9811081 15.8846004,45.4843689 17.6115745,44.9752112 C17.1771604,44.478472 16.8477891,43.908996 16.4792492,43.3679051 C15.5303037,43.3466163 14.6116247,43.6286932 13.6698007,43.6925597 M19.2744547,44.8936041 C18.9967145,44.9823075 18.6085904,45.1401996 18.6744647,45.5003355 C18.7047313,46.2968923 19.5379517,47.0845788 20.3604899,46.8113722 C21.4305016,46.5292953 22.5200976,46.3057627 23.5473801,45.8888566 C23.1503541,45.3424434 22.7123793,44.8279636 22.2423575,44.3418688 C21.2400004,44.4554092 20.2625687,44.7002306 19.2744547,44.8936041 M14.3285434,46.3554366 C13.8656432,46.5097806 13.2674336,46.5133287 12.9807915,46.9692643 C12.8810899,47.5547069 13.2478494,48.1543421 13.7445769,48.4470634 C14.1736499,48.7663958 14.6899617,48.4435153 15.1403993,48.3512637 C16.4204965,47.9325835 17.7255192,47.5972846 19.0162987,47.2087636 C18.4572577,46.781213 18.0335259,46.209963 17.8430246,45.5287206 C16.6501663,45.7025794 15.5089391,46.1141633 14.3285434,46.3554366 M21.3966743,46.9728125 C21.0388168,47.0934491 20.4868973,47.2158598 20.5029207,47.6913102 C20.4049995,48.2749788 20.8946056,48.7947809 21.4055762,48.9934765 C21.9236685,49.0076691 22.4025922,48.7610736 22.8993198,48.6493072 C23.7539049,48.3867451 24.6529996,48.2661084 25.4666358,47.8775874 C24.973469,47.3932667 24.6049292,46.7386354 23.985355,46.4086586 C23.098723,46.4547844 22.2512594,46.7581502 21.3966743,46.9728125 M16.2584814,48.5552816 C15.7706558,48.7043034 15.1849089,48.7184959 14.8395141,49.1478205 C14.552872,49.9159922 15.2970732,50.895278 16.1213917,50.6540047 C17.6578645,50.2317764 19.1943373,49.8024518 20.7058847,49.2968423 C20.0649459,48.9597692 19.7783038,48.2962676 19.6697003,47.6167993 C18.5160104,47.8722652 17.3943674,48.2377233 16.2584814,48.5552816 M22.5396819,49.1833019 C21.9806408,49.5948858 22.2298948,50.5138533 22.7497674,50.8456041 C23.2536165,51.0442998 23.8090968,50.893504 24.3129459,50.7693192 C25.245868,50.480146 26.1823508,50.1998432 27.1223944,49.9284107 C26.7467331,49.3234533 26.266029,48.7965549 25.7425956,48.3211046 C24.6797054,48.6280184 23.6025721,48.8852584 22.5396819,49.1833019 M17.0988234,50.8438301 C16.3706457,50.9573704 16.4169357,51.8940786 16.7836952,52.3464661 C17.1184077,52.8432053 17.8002954,52.7172465 18.2916818,52.5859654 C19.6305318,52.2009925 20.9640406,51.7982789 22.3028906,51.411532 C21.8453315,50.9272113 21.5213013,50.3453168 21.2916316,49.7243928 C19.8637623,49.9638921 18.4928654,50.4641794 17.0988234,50.8438301 M24.0049392,51.3583099 C23.6915914,51.9011749 23.8892142,52.7669204 24.5194707,52.9957752 C24.9610063,53.1589895 25.4292477,52.9673901 25.860101,52.8538497 C26.8197289,52.5291952 27.8185252,52.3216292 28.7532277,51.9260119 C28.3401782,51.3671803 27.8790583,50.8473782 27.3983542,50.3488649 C26.2500055,50.6078789 25.0945352,50.9130187 24.0049392,51.3583099 M18.2293683,53.0614158 C18.218686,53.5191255 18.0584513,54.0708608 18.4091872,54.4469633 C18.7474605,54.9082211 19.3955209,54.7680697 19.876225,54.670496 C21.2453415,54.2926193 22.5913131,53.8349097 23.9693315,53.4907404 C23.4441178,53.01529 23.098723,52.3961401 22.7853751,51.7716679 C21.2506827,52.1442223 19.7444765,52.6214468 18.2293683,53.0614158 M25.4630751,53.3754259 C25.2974992,53.9573204 25.3064011,54.6580775 25.8583207,55.0359541 C26.4084598,55.2381979 27.004889,55.085628 27.5318831,54.8833842 C28.3864682,54.5587296 29.3033668,54.4221264 30.1276854,54.0229609 C29.8268002,53.4197776 29.4636015,52.8520757 29.0754775,52.3021144 C27.8665956,52.6427356 26.6790784,53.0560936 25.4630751,53.3754259 M19.7961076,55.1565907 C19.4881009,55.7473556 19.6892845,56.5527827 20.3177606,56.8401818 C20.9177506,56.9803332 21.4981563,56.6822897 22.0678797,56.535042 C23.1503541,56.173132 24.280899,55.9566957 25.3366677,55.5167267 C24.848842,55.0217615 24.5871253,54.3830968 24.6334154,53.6858879 C23.0328487,54.2127863 21.3753097,54.569374 19.7961076,55.1565907 M26.9372343,55.5149526 C26.2535663,55.8750885 26.6025218,56.8100226 27.0992494,57.1737067 C27.6440474,57.4273985 28.2529393,57.2287028 28.7852746,57.0406516 C29.5187935,56.7763153 30.2807985,56.6024566 31.0196586,56.3611833 C31.058827,56.302639 31.1389444,56.1837764 31.1781129,56.1252322 C31.0267801,55.5114045 30.670703,54.9774098 30.3787197,54.4239004 C29.2410533,54.8230659 28.062438,55.0927243 26.9372343,55.5149526 M21.7474103,57.0566182 C21.4589878,57.1701586 21.0797657,57.2127362 20.9373348,57.5302945 C20.7005435,58.0199374 21.0210129,58.5947356 21.4233801,58.8945532 C21.8026022,59.1269562 22.2655025,58.9868048 22.6643089,58.889231 C23.9871354,58.4865174 25.3188638,58.1086408 26.6505923,57.7325383 C26.1734489,57.1985437 25.8120306,56.5563308 25.8565498,55.8183183 C24.5087884,56.2990909 23.1200876,56.6539046 21.7474103,57.0566182 M28.468366,57.5604536 C28.1087281,57.6580274 27.5924162,57.803501 27.6315847,58.2736292 C27.4998362,59.0524453 28.3615428,59.8578724 29.1199871,59.510155 C30.0796149,59.1979189 31.0392428,58.8910051 32.0024314,58.5858653 C31.9134121,57.9347821 31.7246913,57.3032137 31.4505119,56.7053526 C30.4339117,56.9111446 29.4689427,57.2978915 28.468366,57.5604536 M22.452443,59.380648 C21.6637322,59.5775696 21.852453,60.778614 22.4399803,61.1103648 C22.9242452,61.3374456 23.4690432,61.1724572 23.9586492,61.0553687 C25.2440876,60.6579774 26.5402083,60.2925192 27.8309879,59.9146426 C27.5585889,59.6769174 27.2470214,59.4675774 27.0493986,59.1588894 C26.9051874,58.8395571 26.8998462,58.4794212 26.8393131,58.1388 C25.3598127,58.4953878 23.9230415,58.9974492 22.452443,59.380648 M28.5716283,60.1665604 C28.0695596,60.8229657 28.6464045,62.0506212 29.525915,61.8767625 C30.5674406,61.7508036 31.5270685,61.2593866 32.5507902,61.037628 C32.4582101,60.365256 32.3068774,59.7035285 32.1680073,59.0400268 C30.9822705,59.4533848 29.7449025,59.715947 28.5716283,60.1665604 M23.5082116,61.6532298 C23.2126676,61.7827368 22.7675712,61.8057997 22.71594,62.201417 C22.5717288,62.79573 22.9616333,63.6419607 23.6542033,63.6224459 C24.2666559,63.6082534 24.8399401,63.3598838 25.425687,63.2073139 C26.4066794,62.8862075 27.4268404,62.6768674 28.3775663,62.2670575 C27.9093249,61.761448 27.6048789,61.1334277 27.6262436,60.4344447 C26.2642486,60.8761878 24.8862301,61.2629347 23.5082116,61.6532298 M29.6665655,62.3291499 C29.3923861,62.4497866 28.9882386,62.53849 29.013164,62.9145926 C28.8244431,63.6703458 29.5953501,64.5130284 30.375159,64.2540143 C31.2083794,64.0269336 32.0131137,63.7058272 32.840993,63.4556835 C32.7733384,62.7868596 32.6682956,62.123358 32.5561313,61.4634045 C31.6071858,61.7987034 30.6297541,62.0399768 29.6665655,62.3291499 M24.2043424,63.9914522 C23.8571672,64.1174111 23.2660792,64.1901479 23.2963458,64.6744686 C23.1895226,65.2439446 23.5936702,65.7743911 24.0832762,66.0192126 C24.507008,66.0795309 24.9093751,65.8932537 25.3081815,65.7797133 C26.5758161,65.3681294 27.8737172,65.0612155 29.1360106,64.6354391 C28.5288991,64.2309515 28.2280139,63.572772 28.2066493,62.8560483 C26.8517758,63.15764 25.5556551,63.6685717 24.2043424,63.9914522 M29.7431221,64.8784865 C28.6909142,65.2191076 29.424433,66.9772096 30.4125471,66.7856102 C31.2422068,66.599333 32.0220157,66.2285527 32.8427734,66.00502 C32.8659184,65.3166814 32.8712596,64.6301169 32.8570165,63.9417783 C31.8172713,64.245144 30.763283,64.5130284 29.7431221,64.8784865 M25.5164866,66.1629121 C24.8399401,66.3580597 24.1366878,66.4857926 23.5224547,66.8459285 C23.5705251,67.2592865 23.4654824,67.7489294 23.7806106,68.0824543 C24.0423273,68.3432424 24.4126475,68.5987083 24.7989912,68.4514606 C26.3675109,68.0043953 27.9306895,67.5413634 29.4938681,67.0747834 C29.2339318,66.8956024 28.934827,66.7536769 28.7372042,66.5035333 C28.5431422,66.1487196 28.5288991,65.7318135 28.4434406,65.3468406 C27.4499854,65.5561807 26.4939183,65.90035 25.5164866,66.1629121 M29.8036552,67.4065342 C28.981117,67.7595738 29.4511388,68.9623923 30.1312461,69.212536 C30.7080911,69.3526874 31.2706929,69.0741586 31.8048086,68.8967518 C32.0380391,68.7938558 32.3585085,68.7122486 32.4101397,68.4195273 C32.5614725,67.7702182 32.6647349,67.1084907 32.8944046,66.4786963 C31.8831456,66.8477026 30.8042319,67.014465 29.8036552,67.4065342 M24.1491505,69.083029 C23.1895226,69.4750981 23.8393634,70.9688639 24.7259954,70.9635558 C25.0482452,70.9564454 25.3526911,70.8375828 25.6589175,70.7488794 C26.9407951,70.3231029 28.2778647,70.065863 29.5294758,69.5460609 C28.8938781,69.1947953 28.6339418,68.5312937 28.6018949,67.8394069 C27.1028102,68.1995428 25.6411136,68.6998302 24.1491505,69.083029 M44.7553336,37.0806061 C46.2793436,36.0782574 48.1772347,35.8245656 49.9611811,36.0268094 C50.6270453,36.1066425 51.2537411,36.3692046 51.8056606,36.7435331 C51.2822272,37.0344803 50.935052,37.5152529 50.6145826,38.0048959 C49.9433772,38.1308547 49.8596991,37.1320541 49.2561484,37.0131915 C48.4585356,36.8819105 47.6609229,37.1604392 46.9469883,37.49219 C46.4199941,37.7600744 45.8556119,38.2514914 45.9499723,38.9025745 C46.0888424,39.7754163 46.6496639,40.5719731 47.4348139,40.9871051 C47.6502406,41.086453 47.9885138,41.3596595 47.6644837,41.5583552 C46.802777,42.3513638 46.0033839,43.4654789 46.3576806,44.6984565 C46.5107938,45.2679326 47.2015834,45.1721329 47.6573621,45.2768029 C47.6359975,45.4205025 47.6164132,45.564202 47.596829,45.7096756 C47.2087049,45.9048232 46.8401651,46.1301299 46.4751861,46.366081 C46.6532246,47.1023195 47.2799204,47.5263218 47.8870319,47.8988762 C47.4882255,47.9396798 47.0894191,47.9733871 46.6923931,48.0088685 C46.7386831,48.4080339 46.7297812,48.8639695 47.0413487,49.1691093 C47.4009866,49.6445597 48.017,49.7527779 48.5706999,49.8397073 C48.2822775,50.065014 47.790891,50.194521 47.8033537,50.63449 C48.1718936,51.4753985 49.2419053,51.2163845 49.978985,51.2873472 C49.799166,51.5605538 49.6229078,51.8355344 49.4537712,52.1158372 C50.126757,52.3092107 50.8282289,52.3446921 51.5190185,52.4422658 C52.001503,56.3913425 52.2489766,60.363482 52.7083161,64.3143327 C52.795555,65.4940883 52.8489666,66.6844883 53.1106832,67.8447291 C52.0228676,67.4420156 50.8941032,67.1368758 49.7332917,67.0623649 C48.538653,66.7944805 47.3155281,66.7785139 46.0977443,66.7341622 C46.484088,65.4710254 46.7208793,64.1049926 46.3202925,62.8116966 C45.9286077,61.4882414 44.9850033,60.3581598 43.8028273,59.6538546 C41.8105758,58.4084584 39.2753066,58.0199374 37.642693,56.22458 C36.5602186,55.1335278 36.2361884,53.5492846 36.2094826,52.0679374 C36.3038431,48.6368888 37.5946226,45.3247028 39.4907333,42.4897412 C40.9079203,40.4034366 42.6224316,38.4626055 44.7553336,37.0806061 M52.1848827,37.3697793 C52.6531241,37.101895 53.2513337,37.2793018 53.612752,37.6483081 C54.5474544,38.5388905 55.9664218,38.9753114 56.4684905,40.2615111 C55.6886816,39.7381608 54.8999708,39.2307772 54.0898953,38.758875 C53.5130504,38.292295 52.6994142,38.2089137 52.0104049,38.4430908 C51.0792633,38.9895039 50.6644334,40.0610413 49.8632599,40.7458318 C49.3451677,41.0296828 48.6704015,40.9888792 48.1238231,40.7972798 C47.347575,40.364407 46.7386831,39.5288208 46.6603462,38.6400124 C47.1036622,38.0545698 47.8069145,37.5720231 48.5760411,37.6802413 C49.3416069,37.6625006 49.7831425,38.3845465 50.2264586,38.8901561 C50.9955851,38.5406646 51.4940931,37.8292631 52.1848827,37.3697793 M50.7463312,41.5991588 C50.7676958,40.4052106 51.6685709,38.9220893 53.0252247,39.0746592 C53.4489565,39.0409519 53.6447989,39.4596321 53.8726883,39.7346127 C54.7237126,39.7559015 55.6584151,39.9510491 56.1017311,40.7600243 C55.3824553,40.8398574 54.6044268,40.8700166 54.0044368,41.3259522 C53.3528157,41.7393102 53.0002993,42.4773227 52.3557997,42.8942288 C51.5653085,43.1798539 50.6110218,42.4453895 50.7463312,41.5991588 M51.535042,42.2183087 C52.0727184,42.5784446 52.5730068,42.1029942 52.943327,41.7481805 C52.6281987,41.6168995 52.2650001,41.5565811 52.0121853,41.3170819 C51.8056606,41.0048458 51.7451275,40.5276214 51.9961619,40.2224816 C52.3130705,39.8304124 52.9931778,39.9883045 53.2335299,39.5164023 C51.8430487,39.2609364 50.7765977,41.1272565 51.535042,42.2183087 M52.4376975,40.4743993 C52.2240512,40.9338831 52.7884335,41.3170819 53.192581,41.347241 C53.885151,41.0793567 54.5207487,40.6837394 55.1812717,40.3484404 C54.7005676,40.2402222 54.2074008,40.2153853 53.7195751,40.2668333 C53.5557797,40.6234211 53.3973253,41.0580679 52.9308643,41.0633901 C52.9184016,40.7493799 52.9166212,40.4335957 52.9112801,40.1195856 C52.7563865,40.2366741 52.5142541,40.2774777 52.4376975,40.4743993 M47.3529162,42.8445549 C47.9546865,41.9734872 48.9534828,41.4678777 49.9540596,41.1982193 C49.4697947,43.6801412 49.8668207,46.3802735 51.2697645,48.512704 C51.7985391,49.3465162 52.5908107,49.9603439 53.2869414,50.6486825 C52.8044569,51.3175064 52.0549146,51.7326384 51.2323764,51.8036012 C51.1647218,51.7503791 51.0258517,51.6403868 50.9564167,51.5871648 C51.091726,51.1684846 51.2768861,50.7693192 51.4389012,50.3612834 C50.6644334,50.4872423 49.8988676,50.6841639 49.1119372,50.7107749 C49.5018416,50.0987213 50.1053923,49.5452119 50.0537612,48.7575254 C49.3825558,49.0165394 48.6454761,49.1531427 47.938663,48.9420286 C48.4674376,48.4169043 49.2472465,47.9999981 49.332705,47.1857007 C48.7060092,47.1182861 48.0828743,47.0331308 47.4668609,46.9053978 C48.0098785,46.1939964 48.7540797,45.512754 48.7184719,44.5405644 C48.1505289,44.5671755 47.5754644,44.5671755 47.0199841,44.4287981 C47.0502506,43.8912554 47.0146429,43.3022646 47.3529162,42.8445549 M54.6952264,41.4998109 C55.2952164,41.1964452 55.9913472,41.2869227 56.6394075,41.3241781 C55.9236925,41.5459367 55.076229,41.4377185 54.4904821,41.9788094 C53.6554812,42.6866628 53.9528056,43.9959254 53.1890202,44.7676452 C52.7688492,45.2874473 52.047793,45.2448697 51.4549246,45.1437478 C51.4780696,44.7428083 51.332078,44.2567135 51.6472063,43.9356071 C52.1012046,43.4353197 52.7065357,43.1088911 53.215726,42.667148 C53.705332,42.276853 54.1237227,41.7801138 54.6952264,41.4998109 M55.7972851,41.8333358 C57.0346531,41.3419188 58.2132684,42.2342753 59.4381737,42.3389454 C59.3918837,42.899551 59.2690371,43.4512863 59.0696339,43.9781847 C58.4767655,43.5861156 58.2524369,42.8605215 57.698737,42.4311969 C57.1664017,41.9876798 56.4400043,41.9859057 55.7972851,41.8333358 M55.3432868,43.0219618 C55.9646414,42.5234485 57.0186297,42.457808 57.5634277,43.105343 C57.9960614,43.5630527 58.1527353,44.1910729 58.2827035,44.7907081 C57.5011142,44.9663409 56.7284268,45.175681 55.9646414,45.4134062 C55.0851309,45.6795165 54.1557696,45.6050056 53.2513337,45.6617758 C54.0649699,44.8723153 54.4228274,43.7138485 55.3432868,43.0219618 M56.1622642,45.9828822 C57.0132885,45.8728899 57.745027,45.4027618 58.5515417,45.1437478 C58.26668,45.9811081 57.7877563,46.7404095 57.1806448,47.3808482 C56.8637361,47.0544196 56.6020194,46.5399397 56.0714645,46.5949358 C54.9996724,46.5523582 53.7925709,46.470751 52.86499,47.1040935 C52.1635181,47.6682473 52.5284972,48.8462289 53.3581568,49.0537949 C54.0079976,49.1779797 54.702348,49.2081388 55.3468476,49.0431505 C55.9272533,48.6830145 56.3153774,48.0798312 56.9242692,47.7498545 C56.6037998,48.4452894 56.0376372,49.0200876 55.8738417,49.7864852 C55.7474343,50.1643618 55.7403128,50.6132011 55.4465492,50.9147928 C55.0602055,51.3884691 54.3427101,51.308636 53.829959,51.1170366 C53.5789247,50.765771 53.5539993,50.3169317 53.3688392,49.937281 C52.8952566,49.5292453 52.2899255,49.2347499 51.9961619,48.6564035 C51.6115986,48.0195129 51.7095198,47.0455493 52.4092113,46.6658986 C53.5522189,46.0077192 54.9213354,46.2667332 56.1622642,45.9828822 M53.3100864,47.4447147 C54.0863346,46.9994235 55.0388409,47.0632899 55.8756221,47.2832744 C56.2299188,47.3329484 56.0144922,47.7853359 56.041198,48.0106426 C55.1848325,47.5901883 54.25013,47.4908405 53.3100864,47.4447147 M36.4979051,66.8051249 C38.0646444,65.9908275 39.9144651,66.4112817 41.5150317,66.9044728 C42.4586361,67.2504161 43.4823578,67.1244573 44.4615699,67.2752531 C45.884098,67.55733 47.3493554,67.4739488 48.7718835,67.7666701 C50.173047,67.8305366 51.5653085,68.0256841 52.897037,68.4833938 C53.9100764,68.8630445 54.997892,68.9144925 56.0696841,68.8790111 C56.9153673,68.9073962 57.5349415,68.1640615 58.3699424,68.126806 C58.9111796,68.0469729 59.356276,68.5011345 59.8939524,68.4514606 C60.2446884,68.462105 60.6648594,68.359209 60.9372584,68.6483822 C61.2274613,69.0369032 61.3805744,69.5088054 61.6636557,69.9026487 C62.1443599,70.2627846 62.842271,70.324877 63.1894462,70.8588716 C63.5918134,71.4585068 63.9247455,72.1078159 64.1561956,72.7926063 C64.001302,72.8014767 63.6932953,72.8174433 63.5384018,72.8263136 C62.7016206,71.8825092 61.8434747,70.9582194 61.0583246,69.9700633 C60.8411176,69.6968567 60.5883028,69.4555834 60.3176842,69.2355989 C60.3621939,69.6773419 60.5099659,70.0942481 60.671981,70.505832 C60.1823749,70.0552185 59.7408393,69.5584794 59.2565744,69.1043178 C59.0197831,68.8222409 58.6191963,68.9269109 58.2987269,68.8861074 C58.1954646,69.7642713 59.1942609,70.2184329 59.1568728,71.0717598 C58.2827035,71.0274081 57.6168392,70.4047101 56.8156657,70.1350516 C55.8293321,69.8033008 54.7789046,69.7075011 53.7409398,69.7110492 C52.989617,69.7358862 52.3504586,69.2870469 51.6489867,69.0972215 C50.1588039,68.694508 48.6205507,68.5259714 47.0805172,68.4514606 C45.394492,68.1853503 43.6835414,68.334372 41.9850535,68.2456686 C40.7761717,68.2137354 39.6563092,67.635389 38.4492077,67.608778 C37.7940258,67.7045777 37.0765304,67.841181 36.585144,68.3219536 C35.9121582,69.0670624 36.086636,70.2645586 36.7133317,70.9812823 C37.2955178,71.6376877 38.1892714,71.8878314 39.0242723,72.0350791 C40.7227601,72.1947452 42.4265892,72.0262087 44.1268574,72.0652382 C45.8538315,72.1078159 47.5594409,71.7902576 49.286415,71.827513 C50.5095399,71.7654206 51.7326648,71.8310612 52.9557897,71.8736388 C52.9059389,71.7778391 52.8080177,71.5897879 52.7581669,71.4957622 C51.8359271,71.0912746 50.810425,71.0416007 49.8187502,71.0114415 C47.0342271,70.9564454 44.2479237,70.9511232 41.4634006,70.9830564 C40.5197962,70.9937008 39.3767886,71.2402964 38.6503913,70.4721247 C38.2337811,70.1315035 38.1233972,69.4041354 38.5417878,69.0262588 C39.7008188,68.64306 40.9417476,68.9464257 42.1221432,69.0635142 C43.9096504,69.4289723 45.7559103,69.1894731 47.5451978,69.5389646 C49.1012548,69.6968567 50.6430688,69.9682892 52.1635181,70.3301992 C54.1593304,70.7595238 56.438224,70.456158 58.1260295,71.8186427 C58.6138552,72.2781265 59.2334294,72.5158516 59.9081955,72.4519852 C59.924219,71.9783089 59.9580463,71.5081807 60.0114579,71.0380525 C60.5918636,71.178204 61.1526851,71.3893181 61.7135065,71.5915619 C62.398955,71.8310612 62.7888594,72.5087554 63.0576977,73.1385497 C55.1438836,73.2467679 47.2247284,73.1420979 39.3109144,73.1243572 C38.0236956,72.991302 36.6367752,72.7606731 35.6361984,71.8754129 C34.7068372,71.0877265 34.373905,69.7270159 34.7121783,68.5791935 C34.9703342,67.7329628 35.721657,67.1599387 36.4979051,66.8051249 M0.222548202,76.1881736 C0.306226326,75.7180454 0.861706637,75.8351339 1.21422299,75.78546 C21.3931135,75.7890082 41.5737845,75.78546 61.752675,75.7872341 C63.3318771,75.8280377 64.9182006,75.6878862 66.4885008,75.888356 C66.4938419,75.9948001 66.5027438,76.2076883 66.508085,76.3141324 C44.6841181,76.3460657 22.8601513,76.3070362 1.03796481,76.3336472 C0.769126585,76.2963918 0.43441409,76.3957396 0.222548202,76.1881736 M57.472628,77.7706427 C57.7058585,77.7919316 57.939089,77.8132204 58.1740999,77.8327351 C58.2969465,78.1715822 58.3094092,78.52817 58.2292919,78.8812097 C57.9052617,78.8687912 57.5812315,78.8581468 57.2607621,78.8439542 C57.1396959,78.4589813 57.2376171,78.088201 57.472628,77.7706427 M5.75954746,78.2319006 C6.3613178,78.217708 6.96308814,78.2159339 7.56663886,78.2123858 C7.62895236,79.6422851 7.46871765,81.0846028 7.67524238,82.5074058 C8.66157601,82.6652979 9.66393311,82.6546535 10.6573883,82.5765945 C12.9594269,82.6227203 15.2721478,82.7061015 17.5706256,82.5535316 C17.5635041,82.434669 17.5457002,82.1987179 17.5367983,82.0798553 C17.2234504,81.916641 16.9065418,81.7143972 16.538002,81.735686 C14.576017,81.7214934 12.6122517,81.7481045 10.6484864,81.7339119 C10.1232726,81.6913343 9.46274954,81.7463304 9.12803704,81.2460431 C8.70430527,80.6197969 8.96602195,79.8303363 8.99094735,79.1366755 C8.84139496,79.25199 8.76305799,79.4010117 8.75593645,79.5837408 C8.72745028,80.2224055 8.8111284,80.8592961 8.91973193,81.4890905 C7.53815269,81.0970213 7.77316359,79.0852275 8.82893226,78.450111 C9.42714183,77.9356311 10.2354369,78.3028633 10.9244461,78.3578594 C10.7837957,78.684288 10.6164394,79.0107167 10.5790513,79.3708526 C10.7321645,79.6742183 11.0010027,79.9367805 11.3677621,79.9048472 C13.3902802,79.9598433 15.416359,79.8675918 17.4406575,79.9367805 C18.2026625,79.9491989 18.9094756,80.4264234 19.2886977,81.0739584 C19.6127279,81.9893778 19.4507128,82.9864043 19.4845402,83.9390791 C18.9771303,83.9993975 18.46794,84.0561677 17.9551889,84.0526195 C15.1065719,84.0419751 12.257955,84.0472973 9.40933797,84.0472973 C8.34822814,84.0437492 7.25507138,84.1218082 6.22956926,83.7918314 C5.81473942,83.6339393 5.72037898,83.1513927 5.7417436,82.7593235 C5.74530438,81.2495912 5.72928091,79.7398588 5.75954746,78.2319006 M60.570499,78.217708 C61.1811712,78.217708 61.7918435,78.2194821 62.4042962,78.2159339 C62.4310019,79.6192222 62.3900531,81.0225104 62.4292216,82.4275727 C63.317634,82.7007793 64.2523364,82.6635238 65.1603331,82.5269206 C65.2368897,81.6647232 65.2173054,80.8007518 65.1959408,79.9367805 C65.7870288,79.9137176 66.3816776,79.9119435 66.974546,79.9225879 C66.9870087,81.2673319 67.0404203,82.615624 66.9407187,83.960368 C65.8101738,84.1040675 64.6689467,84.0331048 63.5330606,84.0508455 C62.7479106,84.0614899 61.9538586,84.0224604 61.1882928,83.8397313 C60.5972048,83.7581241 60.5811813,83.0467227 60.5028443,82.589013 C60.4351897,81.1325027 60.4245074,79.6688961 60.570499,78.217708 M23.0720172,78.2585116 C23.6951521,78.2194821 24.3200675,78.2194821 24.9432025,78.2585116 C25.0215394,79.6706702 24.927179,81.0846028 25.0037356,82.4967614 C25.3811773,82.5411131 25.7603994,82.5819167 26.141402,82.6173981 C26.2268605,81.7179453 26.2286409,80.8113963 26.118257,79.9154916 C26.7111254,79.9101694 27.3039938,79.9190398 27.8968622,79.950973 C28.1781631,80.7883334 28.1532377,81.6771417 28.1514573,82.5482094 C28.4309779,82.5570797 28.7104984,82.5730463 28.990019,82.5925611 C29.0932813,81.6984305 29.0861598,80.7918815 28.8956585,79.9101694 C29.5134523,79.9101694 30.1330265,79.9172657 30.7526007,79.9562952 C30.9395412,80.7901074 30.8701062,81.6487566 30.8896904,82.4967614 C31.206599,82.4967614 31.5252881,82.4985355 31.8439771,82.4985355 C31.8457575,81.6363381 31.8724633,80.7688186 31.7478363,79.9137176 C32.3389243,79.926136 32.9495966,79.8427548 33.5246611,80.0148395 C33.7667936,80.3412681 33.7187231,80.7652705 33.7329662,81.1484693 C33.7294055,82.0780812 33.7222839,83.0094672 33.7294055,83.9408532 C32.6326879,84.1040675 31.5217273,84.038427 30.4178882,84.0455233 C28.5751891,84.0277826 26.7307096,84.0827787 24.8897909,84.0242344 C24.2274874,83.9319829 23.2091069,83.9763346 23.1076249,83.0981706 C22.965194,81.4926386 23.0506525,79.8693659 23.0720172,78.2585116 M34.35076,78.2496413 C34.9614323,78.2212562 35.5721046,78.2212562 36.1827768,78.244319 C36.2415296,79.6316407 36.2041415,81.0189623 36.2041415,82.4062839 C37.3756352,82.615624 38.5720543,82.4985355 39.7560108,82.4932133 C39.775595,81.6434344 39.7809362,80.7936556 39.7506696,79.9456508 C40.3577811,79.9137176 40.9648926,79.9101694 41.5720041,79.9350064 C41.5524198,81.27088 41.5613218,82.6085277 41.5631022,83.9444013 C40.4076319,84.1147119 39.2379185,84.0313307 38.0735464,84.0490714 C37.0106561,84.0455233 35.9174994,84.116486 34.8866561,83.7989277 C34.4237558,83.6055542 34.3347366,83.0378523 34.3347366,82.5943352 C34.3240543,81.1466952 34.3222739,79.6972812 34.35076,78.2496413 M46.0496739,78.8279876 C46.4342372,78.3738261 47.0840779,78.4128556 47.6164132,78.2868967 C47.3262104,78.7942803 47.0929799,79.3868192 47.541637,79.8853325 C49.6709782,79.9687137 51.8038802,79.8764621 53.9350018,79.926136 C54.7504184,79.9083954 55.5515919,80.3785235 55.9486179,81.0846028 C56.1391192,81.52812 56.1124134,82.021311 56.165825,82.4914392 C56.8014226,82.5233724 57.4388007,82.5251465 58.0761787,82.4896651 C58.0939826,81.6381122 58.0975434,80.7883334 58.0761787,79.9367805 C58.6921921,79.9101694 59.3082056,79.9101694 59.9259994,79.9332323 C59.9153171,81.2691059 59.9295602,82.6067536 59.9153171,83.9444013 C58.9895165,84.0543936 58.0476926,84.1200341 57.1201117,83.9993975 C56.7729365,83.960368 56.5112198,83.7155465 56.2477227,83.5133027 C56.0340764,83.806024 55.7509951,84.089875 55.3521887,84.0437492 C52.5605441,84.0597158 49.7688995,84.0331048 46.9754744,84.0526195 C46.3879472,84.0614899 45.8022003,84.0206863 45.2200142,83.9514976 C45.2164534,83.5079805 45.2146731,83.0662374 45.2182338,82.6244943 C47.0502506,82.6351387 48.8822674,82.589013 50.7142842,82.6298165 C51.8875583,82.5499835 53.0661736,82.6706201 54.2341066,82.512728 C54.2305458,82.4062839 54.2198635,82.1916216 54.2145223,82.0834034 C53.9011745,81.916641 53.5842658,81.710849 53.2139456,81.735686 C51.2519607,81.7232675 49.2881953,81.7427823 47.3262104,81.73746 C46.7956555,81.7339119 46.1867636,81.6984305 45.8431492,81.2336246 C45.1737242,80.5630267 45.4763897,79.4560079 46.0496739,78.8279876 M0.92936129,79.950973 C1.91213415,79.8533992 2.90380894,79.8250141 3.8865818,79.9225879 C4.53642254,79.9545211 5.0117855,80.5807673 5.05985591,81.1945951 C5.12751057,82.1100144 5.07053823,83.030756 5.07765977,83.9497235 C3.91328758,84.1022934 2.73645269,84.0508455 1.56673934,84.0419751 C1.12520371,83.9923012 0.623134965,83.9905271 0.2599363,83.7084502 C-0.00712154246,83.2915441 0.0587527253,82.771742 0,82.3033879 C1.11096062,82.6244943 2.28423474,82.5322428 3.42368154,82.4683763 C3.35780727,82.202266 3.25810567,81.9113188 2.96256166,81.8332598 C2.28423474,81.6824639 1.58098243,81.7960043 0.916898591,81.9609927 C0.909777049,81.2903948 0.909777049,80.6215709 0.92936129,79.950973 M20.693422,79.9101694 C21.2809492,79.872914 21.8720373,79.8711399 22.4613449,79.8888806 C22.4916115,81.2016913 22.4933918,82.5145021 22.4791488,83.8290869 C22.5147565,84.556455 21.9165469,85.0957718 21.3112158,85.384945 C20.7041043,85.7291143 19.9794874,85.6137999 19.3349878,85.463004 C19.6839433,85.1862493 20.070287,84.9467501 20.3604899,84.6061289 C20.6898612,84.1839006 20.7112258,83.6268431 20.7094455,83.1176854 C20.7023239,82.047922 20.7005435,80.9799328 20.693422,79.9101694 M37.2047182,84.531618 C37.6391323,84.4571072 38.0610837,84.5387143 38.4064785,84.8225653 C38.7038029,84.5706475 39.2361382,84.2814744 39.5174391,84.6948323 C39.775595,85.0088425 39.4942941,85.331723 39.277087,85.5712222 C38.9494961,85.6492812 38.6717559,85.4292967 38.3993569,85.2891453 C38.048621,85.4949373 37.6569361,85.5960592 37.2492278,85.5676741 C37.2260828,85.2217307 37.2100593,84.8757873 37.2047182,84.531618 M39.9981432,84.4908145 C40.2616403,84.4943626 40.5251373,84.4961367 40.7904148,84.4996848 C40.8865556,84.8544985 40.8776537,85.2181826 40.7387836,85.5641259 C40.5019923,85.5729963 40.265201,85.5871888 40.0301901,85.6013814 C39.7773754,85.2447936 39.7613519,84.8580467 39.9981432,84.4908145 M64.2576776,84.5440365 C64.5995116,84.5333921 64.943126,84.529844 65.2867405,84.5369402 C65.2813993,84.8740133 65.2689366,85.2146344 65.2511328,85.5534815 C64.9324437,85.5180002 64.4499592,85.7362106 64.305748,85.333497 C64.1633171,85.0939978 64.2754814,84.8012765 64.2576776,84.5440365 M0.23145013,87.453509 C22.3171337,87.4410905 44.4028172,87.4481868 66.4885008,87.4517349 C66.4867204,87.6309158 66.4867204,87.8136449 66.4902811,87.9963739 C44.4028172,87.998148 22.3171337,88.0052443 0.23145013,87.9928258 C0.23145013,87.8118708 0.23145013,87.6326899 0.23145013,87.453509" id="Fill-2" fill="#F0C239"></path>
            </g>
        </g>
    </g>
</svg>