<?xml version="1.0" encoding="UTF-8"?>
<svg width="71px" height="71px" viewBox="0 0 71 71" version="1.1" xmlns="http://www.w3.org/2000/svg" xmlns:xlink="http://www.w3.org/1999/xlink">
    <title>postbank</title>
    <g id="Page-1" stroke="none" stroke-width="1" fill="none" fill-rule="evenodd">
        <g id="Artboard" transform="translate(-371.000000, -820.000000)" fill="#008840">
            <g id="postbank" transform="translate(371.000000, 820.000000)">
                <path d="M39.9322719,0 C46.0447308,0.809090412 51.9633194,3.16546197 56.8834749,6.91063306 C61.1389318,10.11224 64.6286002,14.3106129 67.0741377,19.0469892 C69.5459862,23.88902 70.9584711,29.3065893 70.9889364,34.756133 C71.2575855,45.1686539 66.6185421,55.5728337 58.7224748,62.3277655 C54.0432725,66.3898999 48.2894739,69.1994733 42.2116347,70.3630621 C36.2168828,71.5308214 29.9299404,71.0790098 24.1456764,69.1216227 C19.3279952,67.4881497 14.8565113,64.8175953 11.1591245,61.3087565 C5.54241999,56.0051827 1.70793904,48.8192921 0.475476766,41.1718585 C-0.665589431,34.3738308 0.270527983,27.2657908 3.0317974,20.9585001 C3.66187643,21.7578592 4.27533799,22.5683398 4.90403223,23.3676989 C5.59642676,24.247689 6.5297746,24.9872699 7.63483628,25.2458452 C9.20518709,25.5906122 10.8267751,25.4766167 12.4178977,25.3848641 C14.2541281,25.3042331 16.1776001,25.6031239 17.7396422,26.6318643 C19.2269056,27.6008265 20.2364169,29.099451 21.312398,30.477129 C24.8546884,35.0967295 28.3055828,39.7858394 31.8367949,44.4137809 C33.5927075,42.6148754 35.3832398,40.8507247 37.1502306,39.0629407 C35.4233986,36.866441 33.707645,34.6616001 31.9918913,32.455369 C30.4464667,30.4882506 28.9536641,28.4794264 27.3486935,26.5595744 C26.6009074,25.6893157 25.8461974,24.7648395 24.7896033,24.2615908 C22.5974822,23.1953153 20.1325577,22.9979084 17.7521053,22.6962372 C16.0100406,22.4334914 14.3150588,21.8343196 12.8070235,20.9167944 C11.9512238,20.3899125 11.2463662,19.6586727 10.5885914,18.9065801 C9.36582263,17.345397 8.17213444,15.7605808 6.9355178,14.2119094 C7.79547182,13.0149561 8.7731329,11.9097553 9.7494092,10.8073348 C11.0455718,12.4102236 12.2794188,14.0617689 13.5506552,15.6841203 C14.3967613,16.751786 15.2013238,17.9000827 16.3451596,18.671638 C17.254966,19.2749804 18.2810947,19.7073294 19.3515366,19.9214186 C21.5173468,20.3231834 23.7025439,20.6318055 25.8531213,21.1211523 C27.0329616,21.4005804 28.2294194,21.7453475 29.2389306,22.4432227 C29.9036294,22.8825227 30.3924599,23.5220099 30.9034471,24.1225719 C32.7826059,26.299609 34.488666,28.6184454 36.2431938,30.8955762 C37.5587434,32.6055095 38.847982,34.3349055 40.1773795,36.0337173 C41.8862093,34.2987606 43.6158108,32.5818763 45.3301797,30.8510901 C43.8789207,28.9520909 42.4041204,27.0711643 40.9639397,25.163824 C39.8671868,23.7555618 38.8355189,22.2903018 37.6058262,20.9904745 C36.3747487,19.6072357 34.5966796,18.7800728 32.7646036,18.6118599 C29.8523922,18.3185298 26.7421559,18.4144529 24.1207502,16.9088775 C22.5933279,15.8120178 21.5796623,14.1841056 20.4150547,12.7383083 C18.7283816,10.5140048 16.9863169,8.33001675 15.3093373,6.09876226 C16.4600971,5.22572313 17.7244095,4.50421467 19.0039546,3.8369236 C20.8291066,6.19190498 22.6611825,8.54271578 24.4683323,10.911599 C25.5775483,12.3852001 26.7670821,13.8810443 28.3900549,14.809691 C29.6792936,15.5562229 31.1942528,15.6396343 32.6399726,15.7883846 C34.5662142,15.97467 36.5492322,16.019156 38.3771537,16.7239822 C39.9821243,17.3301049 41.283826,18.532619 42.3321113,19.8672012 C44.3580578,22.5002205 46.3756954,25.1388006 48.4099506,27.7662591 C50.1367826,26.0424239 51.8483819,24.3046867 53.580753,22.5878024 C52.1017983,20.6957542 50.6616176,18.7731219 49.1508127,16.9074873 C48.0748316,15.8245295 46.7578972,14.9473198 45.288636,14.5108002 C42.9095684,13.8184857 40.4155633,13.6933687 38.0060303,13.1456339 C36.6614001,12.8425726 35.3430809,12.2948378 34.3031043,11.3675813 C33.4140697,10.5459792 32.5873506,9.65347736 31.8520276,8.6886857 C29.906399,6.12378568 27.8943004,3.60893249 25.9569805,1.03708152 C27.4733246,0.638097078 29.0049013,0.280818322 30.5614042,0.0889721415 C30.7843552,0.0361449325 30.8743665,0.301671167 31.0073063,0.425398052 C32.0611308,1.7975153 33.1191096,3.16963254 34.1798581,4.53757922 C35.3375417,5.99588823 36.4093685,7.58209469 37.9714105,8.64419963 C40.3463238,10.2762823 43.240533,10.896307 46.0668875,11.1423705 C48.026364,11.3536794 50.2240243,11.6303271 51.6378939,13.1637064 C53.4159631,15.1808717 55.0361663,17.3314951 56.7325329,19.4181699 C58.4330539,17.7012856 60.1543467,16.0024738 61.8437894,14.2730778 C60.9506004,13.1845592 60.1169574,12.047384 59.2168445,10.9644263 C58.3153468,9.93568587 56.9153251,9.57006597 55.6080842,9.43521757 C53.0005264,9.10991318 50.2489505,9.44355871 47.7798716,8.37033225 C46.3216887,7.71138233 45.1736985,6.54362297 44.1544938,5.3369383 C42.7143131,3.58529927 41.2339736,1.85868364 39.9322719,0" id="Fill-1"></path>
            </g>
        </g>
    </g>
</svg>