<?xml version="1.0" encoding="UTF-8"?>
<svg width="87px" height="76px" viewBox="0 0 87 76" version="1.1" xmlns="http://www.w3.org/2000/svg" xmlns:xlink="http://www.w3.org/1999/xlink">
    <title>Refah-logo</title>
    <g id="Page-1" stroke="none" stroke-width="1" fill="none" fill-rule="evenodd">
        <g id="Artboard" transform="translate(-531.000000, -526.000000)" fill="#004B7F">
            <path d="M551,526.047062 C559.831719,525.967177 568.663439,526.043588 577.495158,526.008856 C578.084168,525.949811 578.62181,526.196411 579.145755,526.439537 C579.251913,526.988309 579.474504,527.505821 579.83065,527.939976 C582.17299,531.183979 583.67291,534.931602 584.939965,538.717431 C587.1556,547.424836 585.943336,557.201998 580.875114,564.70419 C580.28268,565.607232 579.775858,566.975687 578.515651,567 C570.365402,566.944428 562.215154,567.031259 554.068329,566.958321 C555.198406,566.322719 556.523677,566.166423 557.664027,565.54124 C561.29397,563.742104 564.471882,560.75512 566.149875,556.990131 C567.855263,553.964941 568.403179,550.429186 568.683986,547.001101 C568.851785,544.910212 568.423726,542.82627 567.70801,540.874311 C566.516293,538.092248 565.095136,535.365757 563.081546,533.097733 C559.900209,529.537665 555.513457,527.314793 551,526.047062 M538.370187,537.347587 C544.323678,537.351022 550.287456,537.491883 556.240947,537.251389 C559.111379,537.309795 561.981812,537.079607 564.855674,537.234211 C563.765116,537.907596 562.527091,538.264902 561.385091,538.828347 C556.556454,541.226423 552.091336,544.861329 549.78676,549.846441 C546.41563,557.013184 548.15778,566.289409 554.138706,571.539065 C555.479613,573.064489 557.118881,574.370032 558.939908,575.266733 C569.317363,575.352624 579.701676,575.273605 590.082561,575.304525 C590.051696,575.091516 589.993395,574.668932 589.962531,574.455923 C590.013972,574.696417 590.120284,575.173971 590.175155,575.414466 C593.765768,573.277498 597.00315,570.391562 599.002508,566.670765 C601.351667,562.527384 601.800922,557.459817 600.535463,552.897288 C599.040231,547.17695 594.849468,542.466689 589.791059,539.570445 C588.491305,538.852396 587.215557,538.020972 585.744332,537.698022 C585.620872,537.570903 585.370524,537.31323 585.247064,537.186112 C590.785594,537.172369 596.334411,537.333844 601.869511,537.100221 C604.829109,537.14832 607.785278,536.928439 610.748305,537.024637 C612.408149,539.110069 613.594732,541.501274 614.976792,543.761924 C615.10711,544.284142 615.299158,544.789181 615.563225,545.259863 C616.97272,548.918818 617.826648,552.787348 617.99812,556.710848 C618.05985,562.671681 616.602342,568.701227 613.515855,573.823765 C613.351242,574.273834 612.627633,574.782308 613.337525,575.208327 C612.020623,575.359496 611.567939,576.912404 610.864906,577.867512 C609.472557,578.07365 608.063061,577.974017 606.663854,577.987759 C584.25253,577.994631 561.844635,577.987759 539.43674,577.991195 C533.949652,571.848273 530.640252,563.585561 531.031208,555.291929 C531.147808,551.196647 532.505862,547.238791 534.32689,543.607321 C535.482607,541.405076 536.717202,539.22001 538.370187,537.347587 M538.29,578.3125 C538.85,578.8125 538.85,578.8125 538.29,578.3125 M565.71585,584.89788 C567.672573,581.772741 571.250778,579.835226 574.81872,580.011037 C576.187058,579.993097 577.483558,580.484652 578.797163,580.814747 C580.630736,581.919848 582.38563,583.268933 583.439251,585.245915 C584.848639,587.610401 585.334399,590.552553 584.76996,593.279426 C584.646809,593.910913 584.431296,594.556751 584.60918,595.209765 C583.706077,595.80896 583.452934,596.989409 582.772186,597.800295 C580.931771,600.175544 578.201936,602.023359 575.195013,601.962364 C572.400182,602.209935 569.506147,601.230414 567.467323,599.192435 C563.550454,595.812548 562.931281,589.250113 565.71585,584.89788" id="Refah-logo"></path>
        </g>
    </g>
</svg>