<?xml version="1.0" encoding="UTF-8"?>
<svg width="100px" height="98px" viewBox="0 0 100 98" version="1.1" xmlns="http://www.w3.org/2000/svg" xmlns:xlink="http://www.w3.org/1999/xlink">
    <title>Resalat-logo-LimooGraphic</title>
    <g id="Page-1" stroke="none" stroke-width="1" fill="none" fill-rule="evenodd">
        <g id="Artboard" transform="translate(-1075.000000, -660.000000)" fill="#009AAE">
            <g id="Resalat-logo-LimooGraphic" transform="translate(1075.500000, 660.000000)">
                <path d="M53.4261839,4.65438821 C55.4212935,2.24176113 58.2913915,0.632203978 61.3385299,0 C60.3409751,0.956849264 59.1187151,1.87952534 58.9484839,3.36605902 C58.5399291,5.70008776 60.2899058,7.61378629 61.8390096,9.10373729 C67.6847489,14.9678563 73.4964419,20.8661486 79.3557997,26.7165984 C81.1398226,28.4731002 82.8319207,30.3970507 83.8635218,32.7071582 C85.0585448,35.2735647 85.5556199,38.2944745 84.6738223,41.0385815 C83.8533079,44.0389874 81.2555798,46.5404647 78.1505628,46.9983855 C75.9205342,47.4733928 73.6666731,46.8787793 71.5455924,46.2055675 C69.693477,45.5972848 67.5860148,45.5426077 65.8326335,46.4721184 C63.7081482,47.5314872 62.0875472,49.3255796 60.378426,50.9317194 C52.9631551,58.4122303 45.5376703,65.8790718 38.1360179,73.3698347 C34.4896657,77.0639563 30.5947759,80.7170701 25.7772331,82.8084692 C22.7641409,84.1309716 19.4888927,84.8691124 16.200026,84.9272068 C17.1839623,86.7076299 18.3926038,88.563234 20.4081412,89.2637844 C23.1965282,90.1830432 26.2096203,89.3902252 28.8005391,88.2249195 C33.9551397,85.7405287 38.4151971,82.0293205 42.3815839,77.9353726 C48.9695312,71.3467819 55.5779062,64.7786952 62.1590443,58.1798526 C65.1142578,55.0803444 68.8525349,52.2508045 73.2717368,51.9945056 C79.0187419,51.420396 84.6908454,55.6202808 86.1480244,61.1665892 C85.0687586,60.1106377 83.7545738,59.1332845 82.1714237,59.1845443 C79.5192216,59.181127 77.4560196,61.1050775 75.7537076,62.9299257 C67.4294021,71.2203411 59.2208538,79.6269454 50.845479,87.866101 C51.8668662,88.8126983 53.1299817,89.6123509 54.5633283,89.6191856 C56.8580448,89.8310593 58.9552932,88.5153916 60.5043971,86.9365903 C65.5398358,81.8379506 70.599107,76.7666495 75.6379504,71.6782618 C77.5683721,69.7406421 79.4307014,67.6629123 81.8207474,66.2823155 C84.0405622,64.9563958 86.6961689,64.0918141 89.2938969,64.5634041 C94.1080351,65.4997495 97.9041908,69.9627678 98.5,74.7743527 C97.6828903,73.8892671 96.8828036,72.7752212 95.5856419,72.6453631 C93.5598907,72.3002139 91.8439602,73.6773933 90.4923245,75.0067304 C84.0712038,81.4176204 77.6739155,87.8558491 71.2630086,94.2769911 C66.6871941,98.6579938 58.9995533,99.078324 53.9709238,95.2235884 C51.9553864,93.6823776 50.4539473,91.4645377 49.786641,89.0109028 C45.8440865,92.9647407 40.9618558,96.1257605 35.473602,97.3594126 C30.7990534,98.5554742 25.6376435,98.1078055 21.3852682,95.7532728 C17.1635346,93.4260787 14.153847,89.1920207 12.9145639,84.564971 C9.14564524,83.6833028 5.62185948,81.5713998 3.40204468,78.3420335 C0.736224156,74.4531247 -0.0706717128,69.4330834 0.889432232,64.8436242 C1.77463445,60.1038031 4.10680184,55.7706428 6.95647206,51.9398285 C7.54206737,51.1811837 8.06297483,50.3200193 8.91072619,49.8245081 C10.2215064,47.9449828 11.8897721,46.0312842 14.235558,45.5391903 C16.2783323,44.9616635 18.5219795,45.299978 20.3468579,46.3695988 C19.2369505,44.3909712 18.8386095,41.9578402 19.6693378,39.8015121 C20.4830429,37.2316883 22.7471178,35.2428088 25.3414412,34.6311087 C27.1050364,34.3816445 29.0252443,34.3611405 30.611799,35.2940686 C34.0300415,36.9138777 35.8208736,41.2607072 34.5475443,44.8318053 C33.5738219,47.7877861 30.7786256,50.0124606 27.6804179,50.2482556 C26.1074816,50.4362082 24.5992332,49.8586813 23.1897189,49.233312 C24.1498228,51.1777664 24.3983604,53.4605353 23.7753142,55.5485171 C23.0126785,57.9474749 21.0516151,59.9226852 18.6547598,60.6779126 C16.3770664,61.3442898 13.7657199,61.0469831 11.8250843,59.6287958 C9.74485905,58.237947 8.48855282,55.7706428 8.46812508,53.2725828 C8.38981873,52.2542218 8.80177822,51.2871206 8.85965683,50.2824288 C8.78815973,50.2926808 8.64857014,50.3097674 8.57707304,50.3200193 C5.21670923,55.0700925 2.18999857,60.3703539 1.60440326,66.2788981 C1.2979871,69.2622175 2.4793916,72.6385284 5.25756472,74.0772196 C7.98126386,75.7619578 11.3961016,75.3552969 14.2661996,74.2925107 C18.5832627,72.6351111 22.4134647,69.9012561 25.7976608,66.7778267 C33.7951224,58.7402929 41.7959886,50.702759 49.786641,42.6549733 C53.0959354,39.4392763 57.7772933,37.3102867 62.4484373,38.0928527 C65.8632751,38.492679 68.3282228,41.1205971 71.2119393,42.7062331 C72.2946097,43.198327 73.6802916,43.9672237 74.7867944,43.1231459 C75.3213204,42.8258392 75.1715169,42.1423755 75.1374707,41.6400296 C74.6301817,39.9313702 73.3670662,38.6020332 72.1482109,37.3649638 C66.6905987,31.9040883 61.2227727,26.4500475 55.7719698,20.9823374 C53.5419411,18.7713322 51.6762072,16.0443118 51.0293287,12.9242997 C50.4641611,9.9785709 51.505976,6.89956666 53.4261839,4.65438821" id="Fill-1"></path>
            </g>
        </g>
    </g>
</svg>