<?xml version="1.0" encoding="UTF-8"?>
<svg width="88px" height="88px" viewBox="0 0 88 88" version="1.1" xmlns="http://www.w3.org/2000/svg" xmlns:xlink="http://www.w3.org/1999/xlink">
    <title>Saderat-logo</title>
    <g id="Page-1" stroke="none" stroke-width="1" fill="none" fill-rule="evenodd">
        <g id="Artboard" transform="translate(-940.000000, -506.000000)" fill="#29166F">
            <path d="M940.00211,506.00751 C949.595152,506.004725 959.186803,506.006118 968.778455,506.006118 C968.772894,519.62761 968.789576,533.249102 968.770114,546.870594 C969.245527,545.050961 969.961425,543.284232 971.016507,541.723552 C972.717982,539.205024 975.131186,537.151498 977.939177,535.975071 C982.648817,533.932682 988.364885,534.443627 992.618574,537.325525 C995.963141,539.523843 998.431949,543.048947 999.271566,546.972226 C999.316049,539.213377 999.278516,531.451744 999.291027,523.691503 C999.267396,522.622277 999.3369,521.548875 999.259055,520.482433 C998.623782,518.0544 997.488075,515.709899 995.750457,513.877736 C993.711188,511.693341 990.79755,510.48907 987.863061,510.166074 C985.78487,509.905729 983.685827,510.064442 981.611806,510.287198 C986.563323,507.854987 992.015273,506.522632 997.504756,506.125849 C999.854015,505.921192 1002.2144,506.035354 1004.56922,506.004725 C1010.63976,505.908662 1016.68528,508.392385 1020.99457,512.666504 C1024.81872,516.367028 1027.3056,521.424967 1027.87554,526.723761 C1028.04791,528.025488 1027.98814,529.341137 1027.99648,530.649825 C1027.99787,551.764251 1027.99648,572.878678 1027.99787,593.993104 C1018.42846,593.995889 1008.86044,593.993104 999.291027,593.994496 C999.291027,586.104779 999.291027,578.213669 999.291027,570.323952 C999.272956,564.823286 999.32717,559.321228 999.263225,553.821954 C998.144199,559.127709 994.001718,563.631545 988.854198,565.272973 C984.601899,566.666587 979.75325,566.131974 975.940221,563.772159 C972.349607,561.605863 969.708428,557.94989 968.777065,553.85676 C968.781235,561.713064 968.777065,569.569368 968.778455,577.427064 C968.797916,578.139882 968.735362,578.858268 968.804867,579.569693 C969.376195,581.651063 970.289487,583.667 971.642049,585.358548 C973.203125,587.343856 975.457858,588.730508 977.883573,589.384852 C980.444127,590.07957 983.147861,590.096277 985.765409,589.752398 C985.851594,589.812264 985.93778,589.873522 986.023966,589.937564 C984.02084,590.817448 981.991302,591.66531 979.872798,592.22916 C976.642219,593.148026 973.311553,593.71466 969.960035,593.908179 C967.880454,594.0655 965.793922,593.966652 963.710171,593.994496 C958.376378,594.107266 953.031465,592.277888 948.872303,588.936557 C945.394287,586.153507 942.678042,582.393117 941.272657,578.151019 C940.679086,576.434411 940.302371,574.645406 940.134169,572.836911 C939.947897,570.333697 940.013231,567.82213 940.0035,565.313348 C940.00211,545.545199 940.0035,525.775658 940.00211,506.00751" id="Saderat-logo"></path>
        </g>
    </g>
</svg>