<?xml version="1.0" encoding="UTF-8"?>
<svg width="88px" height="87px" viewBox="0 0 88 87" version="1.1" xmlns="http://www.w3.org/2000/svg" xmlns:xlink="http://www.w3.org/1999/xlink">
    <title>Saman-logo</title>
    <g id="Page-1" stroke="none" stroke-width="1" fill="none" fill-rule="evenodd">
        <g id="Artboard" transform="translate(-251.000000, -263.000000)">
            <g id="Saman-logo" transform="translate(251.000000, 263.000000)">
                <path d="M42.8660971,0.592064042 C43.1461483,0.32940586 43.5373067,-0.243250062 43.9497734,0.114087233 C47.1338338,3.92721213 49.4853506,8.48860743 50.4442215,13.389015 C51.3498219,13.0194611 52.1412709,12.4223718 53.0377391,12.0314387 C58.8731537,9.08111542 65.1286451,7.07605616 71.4465391,5.46345708 C71.6504895,5.41611753 71.8590058,5.39473837 72.0705663,5.36725089 C71.9762012,8.33589918 71.607873,11.2908037 71.0736449,14.2090583 C70.4161334,17.8206083 69.4542184,21.3878729 68.0402643,24.777996 C67.8545782,25.2391749 67.6156214,25.685083 67.5395206,26.1829119 C74.6001591,26.3325659 81.4842437,28.389546 87.9345533,31.1627278 C87.9512954,31.1932694 87.9832578,31.2558798 88,31.2879485 C83.5663634,36.9412078 78.7750528,42.3745672 73.1527206,46.871825 C72.4602027,47.4551705 71.6915839,47.945364 71.0188523,48.5531428 C75.3383375,52.2089782 78.3747622,57.1796316 80.4447058,62.4083619 C74.0126604,65.1433666 67.3355702,67.4507882 60.4043032,68.4892043 C60.6295617,70.4484511 60.7178387,72.4275499 60.5580269,74.3974863 C60.3464665,76.4346143 59.9705282,78.4549444 59.3982497,80.4202995 C59.2460479,80.8768972 59.1851672,81.3762531 58.9188142,81.7870383 C55.1579093,81.4495531 51.4000484,80.9578325 47.7350306,80.0278393 C46.5935176,79.7315853 45.4474385,79.4353313 44.350064,78.9940045 C44.1080632,78.8947441 43.8493203,78.8565671 43.5951434,78.8168629 C42.5038569,81.0387679 41.0366322,83.0652063 39.3000104,84.8244053 C38.561832,85.5604591 37.8480058,86.3301086 37.0078522,86.9516312 C36.7917258,87.0707436 36.546681,86.9470499 36.3655609,86.8264104 C33.6122315,85.0259802 30.8908644,83.1125459 28.6245806,80.707391 C28.311045,80.3821224 28.0112076,80.0461643 27.6672317,79.7560186 C25.4648725,81.2876823 22.9200595,82.2375276 20.334152,82.8804293 C20.0327926,82.9491481 19.7268671,82.9766355 19.4209416,83.0010689 C18.0815663,80.8219222 16.8472102,78.5572589 16.0101007,76.132252 C15.7559238,75.5458523 15.6965651,74.873936 15.3480231,74.3318217 C12.7575496,74.6005883 10.1320696,74.2325614 7.64509322,73.4965076 C7.25089073,71.2196277 7.24784669,68.892354 7.34829984,66.5910408 C7.42896676,66.0168578 7.42896676,65.4228227 7.60095472,64.8684918 C8.96468228,65.3052373 10.3832025,65.6228705 11.8245529,65.5526247 C13.0360787,65.6060726 14.2323844,65.4121331 15.427168,65.244154 C14.903594,68.225019 14.634197,71.3433214 15.4591304,74.2966988 C18.3463973,74.0141886 20.8044554,72.2916396 23.1118337,70.6683509 C23.9854717,73.670595 25.2274378,76.6178642 27.1588779,79.096319 C27.350652,79.3406522 27.6383133,79.6857728 27.9838113,79.4811438 C29.4145076,78.5160277 30.4586115,77.0943139 31.37791,75.6542752 C32.2119755,74.4448258 32.78121,73.0857225 33.4219793,71.7693774 C36.1448684,74.5349237 39.2939223,76.9645119 42.8965374,78.4534173 C43.1415822,78.5603131 43.4094573,78.5847464 43.6727663,78.6229235 C44.4124667,76.8866307 44.873638,75.0281713 44.9223425,73.1345891 C44.9938773,71.1615986 44.9390847,69.1763914 44.5981528,67.2278342 C49.7227853,68.4708793 55.0741983,69.2695434 60.3282023,68.4449189 C59.860943,65.3999165 58.3115293,62.6603305 56.5064167,60.2185257 C55.56581,58.891491 54.4471272,57.7080021 53.3725829,56.4924445 C56.2385416,55.7502824 59.0360095,54.760733 61.7756408,53.6413815 C65.0053617,52.3189281 68.0981009,50.6421916 70.9153551,48.5714678 C69.2837525,46.9970458 67.2335951,45.926561 65.1743056,45.0240552 C62.0237296,43.7764289 58.7513923,42.779244 55.390778,42.3058484 C55.396866,42.2462922 55.4105642,42.1287069 55.4166523,42.0691507 C57.2826455,40.2702475 59.1212425,38.4346944 60.7650213,36.4250539 C62.8319209,33.9664511 64.7922792,31.390263 66.2777682,28.5285105 C66.6750147,27.7634422 67.1300979,27.018226 67.3812308,26.1874931 C65.7526722,26.0867057 64.1256356,26.2317785 62.5077312,26.3967034 C60.0268429,26.666997 57.6114013,27.3221154 55.2081359,27.9680713 C52.9022796,28.6262438 50.6496939,29.4478142 48.4214604,30.3304678 C49.4396901,27.2671404 50.1413401,24.1014985 50.5781591,20.9022607 C50.7653672,19.1995638 50.9160469,17.4770148 50.7364489,15.7651553 C50.6664361,14.9970329 50.6329517,14.2151666 50.3742087,13.48064 C47.9191947,14.9084621 45.5615898,16.5241153 43.4612059,18.443658 C40.8326819,20.6991588 38.389844,23.1730323 36.1555225,25.8225204 C35.6334705,24.1961776 35.237746,22.519441 34.4904355,20.9740336 C33.4661178,18.6391245 32.2302397,16.2156447 30.0872393,14.7297934 C28.6017503,16.8921422 27.3719603,19.22247 26.3613408,21.6413686 C25.3461552,24.0648485 24.4603411,26.5509387 23.8347919,29.1042206 C21.2473624,27.0350239 18.2155038,25.149077 14.8016189,25.1093729 C14.370888,26.8792615 14.2628247,28.7117604 14.3191394,30.5289885 C14.3495797,32.7737997 14.6433291,35.0033401 15.0147013,37.2145555 C12.2111453,37.1061327 9.24473347,37.2878555 6.74558096,38.6927714 C6.44117749,38.8027213 6.52184441,39.1692211 6.56446089,39.4181355 C7.23567055,42.0141757 8.6861531,44.3215973 10.2660071,46.4518773 C10.428863,46.7252251 10.8824242,47.0046812 10.6632537,47.3589643 C8.28434052,48.724176 5.85063475,50.2818001 4.38797606,52.6808467 C5.28140026,53.6780315 6.26310146,54.6171872 7.450275,55.2555077 C8.62375039,56.0037781 9.91137708,56.5336757 11.1883496,57.0696816 C9.51108651,59.3816845 8.04386177,61.9731434 7.60552077,64.8348959 C5.83541458,64.1461818 4.23273029,63.0741699 2.73354319,61.9181684 C2.15669861,61.4905854 1.67574112,60.946944 1.08367636,60.5407401 C1.69857138,57.76145 2.8400844,55.0982182 4.32252932,52.6716842 C3.81569753,51.8806555 3.17340621,51.1858329 2.71071293,50.3642626 C1.61638244,48.6386594 0.735134387,46.7802 0,44.8744011 C0.406378636,44.2452432 0.896468228,43.6756414 1.40634405,43.1289459 C2.47327822,42.0157028 3.53412432,40.8780264 4.78674461,39.9694123 C5.29053236,39.5998583 5.81715037,39.2623731 6.32093812,38.8943462 C6.31332803,38.2300654 6.12003182,37.5917449 6.01653464,36.9412078 C5.45491024,33.8229054 5.4168598,30.6389385 5.51579093,27.480932 C5.89477325,27.3541841 6.26005742,27.1938405 6.62077554,27.0228072 C9.16558857,25.8438996 11.9371822,25.1368604 14.7437822,25.0788312 C15.6965651,20.0654195 17.6006088,15.3055035 19.6051057,10.6387395 C22.1529627,10.8403144 24.6414611,11.5992744 26.9625376,12.6575425 C28.0888305,13.1935485 29.1207582,13.8929522 30.1176796,14.6366414 C31.4037843,12.906457 32.6670587,11.147258 34.1038431,9.53465891 C35.8419869,7.41812263 37.7993013,5.49857998 39.7246532,3.55613109 C40.7641911,2.56047333 41.7793767,1.53732808 42.8660971,0.592064042" id="Fill-1" fill="#7CD0F5"></path>
                <path d="M43.3508122,18.9583058 C45.4661176,17.0405857 47.8404713,15.4264664 50.3129261,14 C50.5735072,14.7338293 50.6072295,15.5149531 50.6777396,16.2823463 C50.8586136,17.9925804 50.7068634,19.7134939 50.5183253,21.4145743 C50.0784031,24.6107745 49.3717685,27.7734108 48.3463052,30.8338297 C50.5903683,29.9520141 52.8589568,29.1312238 55.1811942,28.4736761 C57.6015328,27.8283335 60.0341341,27.1738372 62.532647,26.9038002 C64.1620453,26.7390319 65.8006406,26.5940968 67.4407687,26.6947886 C67.1878518,27.5247327 66.7295356,28.2692414 66.3294669,29.0335833 C64.8334248,31.8926187 62.8591398,34.4663608 60.7775566,36.9226293 C59.1221002,38.9303617 57.2704415,40.764172 55.3911919,42.5613672 C55.3850606,42.6208669 55.3712652,42.7383406 55.3651338,42.7978403 C58.7496225,43.2707863 62.045207,44.2670244 65.2181652,45.5134662 C67.2920842,46.4151151 69.3568062,47.4845835 71,49.0575107 C68.1627316,51.1262684 65.048021,52.801413 61.7953558,54.1226108 C59.0362617,55.2408994 56.2189202,56.2295093 53.3326012,56.9709668 C54.4147792,58.1853703 55.5414093,59.3677355 56.4886982,60.6935102 C58.3066346,63.1329967 59.8670556,65.8699815 60.3376344,68.9120928 C55.0463052,69.7359344 49.6568749,68.9380286 44.4958362,67.6961637 C44.8391901,69.6428708 44.894372,71.6261932 44.822329,73.5973104 C44.7732784,75.4890948 44.3088309,77.3457896 43.5638755,79.0804339 C43.298696,79.042293 43.0289179,79.0178829 42.7821322,78.9110886 C39.1539236,77.4235969 35.9824983,74.9963155 33.2402654,72.2333949 C32.5949439,73.5484902 32.0216655,74.9063032 31.1816747,76.1146042 C30.2558453,77.5532757 29.204324,78.9736396 27.7634637,79.9378394 C27.4155113,80.1422741 27.1258065,79.7974812 26.9326699,79.55338 C24.9875086,77.0772783 23.7367193,74.1328075 22.8568749,71.1334138 C20.5331046,72.7551613 18.0575841,74.4760748 15.1498055,74.7583168 C14.3190117,71.8077434 14.5903226,68.6924017 15.1176161,65.714367 C13.9143445,65.8821866 12.7095402,66.0759419 11.4894075,66.0225448 C10.0378174,66.0927239 8.60921986,65.7753923 7.23580416,65.3390614 L7.24040265,65.3054975 C7.6818577,62.446462 9.15950583,59.8574636 10.8486845,57.5476559 C9.56264013,57.0121588 8.26586593,56.4827643 7.08405399,55.7352044 C5.88844658,55.09749 4.89977122,54.1592259 4,53.1629879 C5.47304965,50.7662191 7.92404484,49.2100739 10.3198582,47.8461584 C10.5405857,47.4922116 10.0838023,47.2130209 9.91978952,46.9399327 C8.32871197,44.8116752 6.86792496,42.5064444 6.19194692,39.9128691 C6.14902768,39.664191 6.06778769,39.2980392 6.37435369,39.1881936 C8.89126058,37.7846117 11.8787463,37.6030614 14.7022192,37.7113813 C14.3282086,35.5022653 14.0323725,33.2748418 14.0017159,31.0321619 C13.9450011,29.2166592 14.0538321,27.3859001 14.487623,25.617692 C17.9257607,25.6573584 20.9791581,27.5415146 23.5849691,29.6087467 C24.2149623,27.0578891 25.1070693,24.5741593 26.1294669,22.1529804 C27.1472661,19.7363784 28.3857927,17.4082631 29.8818348,15.2479674 C32.0400595,16.7324079 33.2847175,19.1535868 34.3163121,21.486279 C35.0689316,23.0302191 35.4674674,24.7053637 35.9932281,26.3301624 C38.2434226,23.6831899 40.7036147,21.2116651 43.3508122,18.9583058 M33.0685884,30.0938979 C32.2960421,31.2213404 31.5234958,32.3503085 30.8751087,33.5570838 C30.186868,34.6006165 29.717822,35.7631485 29.1123542,36.8509245 C28.4685655,35.7997637 27.9903226,34.6494367 27.2407687,33.6608268 C26.192313,32.1809632 25.019698,30.7712788 23.5711736,29.6606183 C22.6622054,33.0444713 22.1808968,36.5580031 22.3295813,40.0639067 C22.0735987,39.9845738 21.8237474,39.8869333 21.5922901,39.7542033 C19.7053763,38.7060937 17.5992679,38.0775331 15.4594372,37.8197012 C15.2157172,37.7800348 14.9689316,37.7846117 14.7252116,37.8242781 C15.0225806,38.7396576 15.1973233,39.6886011 15.5222832,40.5948268 C16.0863647,42.4271115 16.9248227,44.1617558 17.8951041,45.8140158 C15.9054907,45.9192845 13.9480668,46.3876537 12.0810798,47.0726627 C11.5767788,47.2969307 11.0188286,47.4388145 10.5927019,47.8049663 C11.7806452,49.0636132 13.0191718,50.3039525 14.5029513,51.219332 C15.1130176,51.6419322 15.7889957,51.9562125 16.399062,52.3772871 C14.2883551,53.7412026 12.4520247,55.4972057 10.8916038,57.4576435 C11.0816747,57.5598609 11.2748113,57.6681808 11.4894075,57.721578 C12.8444292,58.0694222 14.2193777,58.3989588 15.62345,58.4432022 C16.3699382,58.4569329 17.1179593,58.4370997 17.8644475,58.4294715 C17.4321894,59.4135045 16.8527797,60.3273584 16.4772363,61.3373272 C15.9530085,62.7393835 15.3398765,64.1536449 15.2049874,65.6548673 C17.1332876,65.340587 18.9772821,64.6281166 20.6863876,63.6944295 C21.11558,63.4365976 21.5355754,63.1604581 21.99849,62.9636515 C21.9310455,64.9423969 21.9417753,66.9440268 22.3617708,68.8892083 C22.5181194,69.5955762 22.5855639,70.3339824 22.8905971,70.9991582 C23.4929993,70.5079045 24.0678106,69.9815613 24.6043011,69.4201285 C25.9838481,68.1279177 27.0369023,66.5351573 27.9857241,64.9149355 C28.3735301,65.2993949 28.5298787,65.8379432 28.7996568,66.3002099 C29.9354839,68.3765958 31.3441547,70.3126235 33.0164722,71.992345 C33.2402654,72.228818 33.3874171,71.8291023 33.4502631,71.664334 C34.343903,69.0936431 34.9876916,66.3886966 34.8926561,63.6532374 C34.9340426,63.6120453 35.0168154,63.5296611 35.0582018,63.4884691 C37.9016015,65.4000867 41.1113475,66.7197588 44.4069321,67.6397153 C44.4467856,66.9470781 44.2153283,66.2849536 44.0620453,65.6213034 C43.6543125,63.9034411 42.9844658,62.2603349 42.2410432,60.6614719 C41.8624342,59.8589892 41.3366735,59.1343137 40.9703272,58.3287797 C45.0706474,58.5927142 49.1847632,58.0022944 53.1593914,57.0167357 C53.1088081,56.8672237 53.036765,56.7283912 52.911073,56.6322763 C50.3389842,54.1531234 47.3208419,52.0950451 43.983871,50.7845267 C44.0804393,50.5068616 44.371677,50.413798 44.6046671,50.2795423 C47.8864562,48.6150772 50.909197,46.4761404 53.6759552,44.0656409 C54.1925189,43.6506689 54.759666,43.2799401 55.1551361,42.7398662 C52.1722489,42.2806508 49.132647,42.1128312 46.120636,42.3676119 C44.8560512,42.4103296 43.6175246,42.703251 42.3575383,42.7886865 C42.5905285,42.2989584 42.9231526,41.8702557 43.2343171,41.4293478 C44.0037978,40.274444 44.741089,39.0936044 45.3296957,37.8364832 C46.1696866,36.338312 46.8855182,34.7714873 47.5139785,33.17415 C47.7576985,32.4159107 48.1608328,31.700389 48.2543354,30.9009575 C46.5115077,31.6622482 44.7717456,32.4433721 43.1132235,33.3785848 C40.8614962,34.6616418 38.6388927,36.0255573 36.6784031,37.7266376 C36.6140243,37.1224871 36.715191,36.5213879 36.7811027,35.9233399 C36.9604438,33.0673558 36.796431,30.1793333 36.1863647,27.3797976 C36.12965,27.0563635 36.0729353,26.7268268 35.8920613,26.4476361 C34.875795,27.6040656 34.0250744,28.8886482 33.0685884,30.0938979" id="Fill-2" fill="#02AAE8"></path>
                <path d="M33.1922124,29.5968897 C34.1366263,28.4079596 34.9766098,27.1407709 35.9800495,26 C36.1586406,26.2754104 36.2146395,26.6004849 36.2706384,26.9195396 C36.873005,29.6811683 37.0349477,32.5300855 36.8578701,35.3473983 C36.7927903,35.9373484 36.6929004,36.5303085 36.7564667,37.1262785 C38.6922124,35.4482316 40.8867639,34.1027842 43.1100715,32.8371004 C44.747661,31.9145509 46.4654651,31.1440038 48.1862961,30.3930214 C48.0939736,31.1816281 47.6959274,31.8874613 47.4552834,32.6354338 C46.8347551,34.2111424 46.1279582,35.7567514 45.2985691,37.2346367 C44.7173913,38.4747359 43.9894056,39.6395864 43.2296368,40.7788523 C42.9223996,41.21379 42.5939736,41.6366879 42.3639241,42.1197848 C43.6080077,42.0355062 44.8309026,41.746551 46.0795267,41.7044118 C49.0535223,41.453081 52.0547606,41.6186282 55,42.0716256 C54.6095212,42.6043867 54.0495322,42.9700955 53.5394882,43.3794487 C50.80765,45.7573088 47.82306,47.8672834 44.5826912,49.5092109 C44.3526417,49.6416487 44.0650798,49.7334522 43.9697303,50.0073576 C47.2645845,51.3001309 50.244634,53.3303419 52.7842598,55.7759259 C52.9083654,55.8707393 52.9794992,56.007692 53.0294441,56.1551795 C49.1049807,57.1273932 45.0427903,57.7098185 40.9942212,57.4494578 C41.3559439,58.2440845 41.8750688,58.9589475 42.2488993,59.7505642 C42.9829389,61.3277778 43.6443313,62.9486356 44.046918,64.6432372 C44.1982664,65.2979013 44.4268024,65.9510603 44.3874518,66.6343189 C41.1334618,65.7268191 37.9642267,64.4250159 35.1567144,62.5392825 C35.1158503,62.5799168 35.0341222,62.6611855 34.9932581,62.7018198 C35.0870941,65.4002395 34.4514309,68.0685598 33.5690699,70.6044423 C33.5070171,70.7669796 33.3617226,71.161283 33.140754,70.9280119 C31.4895432,69.2710347 30.0986516,67.3612217 28.9771602,65.312951 C28.710787,64.8569437 28.5564117,64.3256876 28.1735003,63.9464339 C27.2366538,65.5447171 26.1968905,67.1159108 24.8347551,68.3906244 C24.3050358,68.9444551 23.7374794,69.4636714 23.1426802,69.9482733 C22.841497,69.2921043 22.7749037,68.5636965 22.6205283,67.8668932 C22.2058338,65.9480504 22.1952394,63.9735235 22.2618327,62.0215712 C21.8047606,62.2157129 21.390066,62.4881134 20.9662906,62.7424541 C19.2787562,63.6634987 17.4580352,64.3663219 15.5540726,64.6763467 C15.6872592,63.1954515 16.2926527,61.8003399 16.8102642,60.4172681 C17.1810677,59.4209748 17.7531646,58.5194949 18.179967,57.5487862 C17.4429004,57.556311 16.7043203,57.5758757 15.9672537,57.5623309 C14.5809026,57.5186867 13.2233076,57.1936121 11.885388,56.8504779 C11.6735003,56.7978037 11.4828013,56.6909505 11.2951293,56.5901172 C12.8358558,54.6562246 14.6490094,52.9239987 16.7330765,51.5785512 C16.13071,51.1631782 15.4632636,50.8531534 14.8608971,50.4362754 C13.3958448,49.5332905 12.1729499,48.309746 11,47.0681418 C11.4207485,46.7069479 11.9716566,46.5669852 12.4695927,46.3457539 C14.313016,45.6700203 16.2457347,45.207993 18.2102367,45.1041498 C17.2522014,43.4742621 16.4243258,41.7631058 15.8673638,39.9556311 C15.5465052,39.0616761 15.3739681,38.1255817 15.0803522,37.2225969 C15.3209961,37.1834675 15.564667,37.1789526 15.805311,37.218082 C17.9181343,37.4724227 19.997661,38.0924723 21.8607595,39.12639 C22.0892955,39.2573228 22.3359934,39.3536412 22.5887452,39.4318998 C22.4419373,35.9734678 22.9171712,32.5075109 23.814667,29.1694769 C25.2449092,30.2650985 26.4027243,31.6556952 27.4379472,33.1155207 C28.1780407,34.0907444 28.6502477,35.2254954 29.2859108,36.262423 C29.8837369,35.189376 30.346863,34.0425852 31.0264172,33.0131824 C31.6666208,31.8227474 32.4294166,30.7090661 33.1922124,29.5968897 M29.2753165,36.5453582 C28.1916621,38.947298 27.453082,41.51328 27.2169785,44.1409659 C26.2876995,42.7533792 25.1904238,41.4651208 23.8403963,40.4643125 C23.4574849,40.200942 23.1214915,39.841253 22.6629059,39.7103202 C22.7552284,41.6517376 23.1335993,43.5901451 23.8570446,45.3991248 C23.9645019,45.7061397 24.0976885,46.0071346 24.2944414,46.2690002 C24.2051458,46.2539505 24.0235278,46.222346 23.9327188,46.2072963 C22.1831315,45.450294 20.2534397,45.0936149 18.3464502,45.1793985 C19.3862135,46.8168111 20.7271602,48.309746 22.3919923,49.3361388 C22.4086406,49.3888129 22.4419373,49.4911512 22.4600991,49.5423204 C20.4728949,49.7861263 18.5764997,50.5446336 16.8783709,51.5815612 C18.64612,52.3626431 20.551596,52.905939 22.4994496,52.8863743 C22.4252889,52.9796827 22.3435608,53.0669713 22.2557788,53.1467349 C20.7029444,54.3296451 19.3998349,55.8180652 18.361585,57.4630026 C20.3805724,57.3290598 22.3359934,56.6593461 24.1082829,55.7051921 C23.1214915,57.5909254 22.5085305,59.6903653 22.3738305,61.8123797 C24.1294717,60.6339844 25.6807925,59.1214848 26.7977435,57.3245449 C26.8537424,59.4902036 27.3471381,61.6332877 28.1962025,63.6243693 C28.241607,63.5987847 28.3324161,63.5446056 28.3778206,63.5190211 C29.3252614,61.5655638 30.0426527,59.4721439 30.1924876,57.2959504 C31.3790589,59.2795071 33.0529719,60.9726038 34.955421,62.2849418 C34.9417997,59.9702906 34.4151073,57.6541344 33.422262,55.5592095 C35.7197303,56.6533262 38.2442212,57.2462862 40.783847,57.3862489 C39.429279,55.3229285 37.614612,53.5545831 35.4836269,52.2934142 C38.268437,52.0586382 40.9730325,51.1857528 43.483902,49.9908028 C43.489956,49.9591984 43.5020638,49.8944845 43.5081178,49.861375 C41.0381123,48.9132409 38.3819483,48.4045594 35.7318382,48.4948579 C38.2411943,46.8544354 40.2949917,44.6315877 42.135388,42.2973718 C39.8227848,42.6721105 37.5828288,43.4592123 35.4911943,44.4991499 C34.9811502,44.730916 34.5316456,45.0800702 33.9988993,45.2591622 C35.3458998,42.8120732 36.21918,40.0925838 36.5566868,37.3249352 C34.3333792,39.1444497 32.3628233,41.2875337 30.8463126,43.7270978 C30.7691249,41.2664641 30.3135663,38.7922856 29.2753165,36.5453582" id="Fill-3" fill="#006FB8"></path>
            </g>
        </g>
    </g>
</svg>