<?xml version="1.0" encoding="UTF-8"?>
<svg width="81px" height="98px" viewBox="0 0 81 98" version="1.1" xmlns="http://www.w3.org/2000/svg" xmlns:xlink="http://www.w3.org/1999/xlink">
    <title>Sarmayeh-logo</title>
    <g id="Page-1" stroke="none" stroke-width="1" fill="none" fill-rule="evenodd">
        <g id="Artboard" transform="translate(-802.000000, -496.000000)">
            <g id="Sarmayeh-logo" transform="translate(802.000000, 496.000000)">
                <path d="M24.0019451,44.2488187 C36.0405219,37.2735143 50.1797552,34.434516 63.9948132,35.0922692 C64,39.712141 64.0025934,44.3320128 63.9948132,48.9518846 C64,54.1749135 63.987033,59.3979424 64,64.6209714 C59.2022044,64.5169788 54.3966286,64.9407487 49.6429208,65.5543051 C42.4254802,66.5760325 35.2962153,68.3673052 28.5481806,71.1491076 C20.4178621,74.5392667 12.8062242,79.5257125 7.14741875,86.3580271 C4.1935327,89.849579 1.85687657,93.8272964 0,98 C0.360483021,92.6339812 0.767647297,87.2731621 1.2007456,81.9149427 C1.29670152,78.8783585 1.76610746,75.8677724 1.85946997,72.8337879 C1.99692033,70.4029606 2.34962315,67.9877322 2.38593079,65.5543051 C2.34962315,64.8159575 2.66083151,64.147805 3.0809628,63.5654464 C7.05924305,57.5078767 12.2849502,52.3368441 18.1045466,48.0601479 C20.0029176,46.6900453 21.9739039,45.4187356 24.0019451,44.2488187" id="Fill-1" fill="#A7A7A7"></path>
                <path d="M77.8345545,5.75890604 C79.0091426,3.91356801 79.9759979,1.94900871 80.96337,0 C81.0274851,10.395577 80.989016,20.791154 80.9838868,31.1867311 C76.3906831,37.9719768 70.779332,44.0548537 64.4011646,49.1580427 C64.4088584,44.5524729 64.4062938,39.9469032 64.4011646,35.3413334 C50.7395251,34.6856164 36.7573103,37.5158258 24.8524238,44.4695364 C22.8469043,45.6358315 20.8978061,46.9032055 19.0205168,48.2690667 C18.9897416,42.9714951 19.0307752,37.6739236 19,32.3763521 C27.4093328,32.8895219 35.8879099,31.9227929 44.030524,29.7742181 C51.4858246,27.7552317 58.6744064,24.5362572 64.8935684,19.8814439 C70.0176449,16.03267 74.4544079,11.2353095 77.8345545,5.75890604 M45.7385495,69.4956376 C49.3059121,68.9824677 53.0553615,69.8636685 55.9790088,72.0070597 C58.6872294,73.9742107 60.7081365,76.9236415 61.4646944,80.2151854 C62.5290045,84.0173075 61.6878148,88.2159698 59.5899697,91.504922 C57.3715882,94.9934403 53.5657175,97.4167423 49.4803051,97.8806686 C46.1976135,98.3186772 42.771304,97.5411471 39.9989683,95.7087679 C36.9906891,93.7571675 34.7287094,90.6081707 33.9439409,87.0755924 C32.9437458,83.2760621 33.7208205,79.0799915 35.8366179,75.8039982 C38.0473055,72.4139671 41.7275107,69.9699309 45.7385495,69.4956376" id="Fill-2" fill="#214B6A"></path>
            </g>
        </g>
    </g>
</svg>