<?xml version="1.0" encoding="UTF-8"?>
<svg width="78px" height="87px" viewBox="0 0 78 87" version="1.1" xmlns="http://www.w3.org/2000/svg" xmlns:xlink="http://www.w3.org/1999/xlink">
    <title>Sepah-logo</title>
    <g id="Page-1" stroke="none" stroke-width="1" fill="none" fill-rule="evenodd">
        <g id="Artboard" transform="translate(-666.000000, -263.000000)">
            <g id="Sepah-logo" transform="translate(666.000000, 263.000000)">
                <path d="M31.0384974,0.915074074 C33.7986953,0.294304974 36.6322247,0.0185158758 39.4579321,0 C41.789874,0.103299097 44.1247491,0.307948251 46.4117144,0.7981317 C48.300734,1.21230261 50.1907313,1.64401487 52.0210857,2.27647821 C53.7008661,2.83000544 55.3053595,3.57453855 56.8981198,4.33368946 C59.4207236,5.65903637 61.7898201,7.26504496 64.0034539,9.05621232 C66.4233936,11.0208442 68.5773844,13.3090166 70.4077387,15.8291248 C71.4451351,17.2577708 72.4678652,18.7088307 73.2930891,20.2719605 C74.9396258,23.2452203 76.132485,26.4630846 76.8677556,29.7784009 C77.643114,32.8491128 78.0009718,36.0192256 78,39.1834913 C77.8748416,41.8098221 77.5629383,44.436153 76.9195765,46.9913438 C76.2723037,49.9363426 75.2906393,52.813125 73.92374,55.5047486 C72.5568408,58.2392511 70.7988401,60.7632574 68.8599551,63.1225697 C69.3703424,63.5006834 69.9393949,63.8232495 70.3412515,64.3261017 C70.985591,65.157367 71.6426413,66.0344348 71.849925,67.0878907 C71.9154345,67.5293482 72.1598729,67.9727547 72.0268984,68.4229828 C71.8988127,68.877109 71.8606803,69.3643689 71.627975,69.7824379 C69.8367308,73.0802129 68.3564121,76.5300129 66.7255194,79.9057494 C66.0978017,81.2583829 65.335154,82.5544942 64.3769557,83.7015039 C63.9770545,84.1566047 63.4549342,84.4820943 62.9582355,84.8212272 C61.2021903,85.7265561 59.260372,86.1816568 57.3361533,86.5763373 C56.326134,86.7361585 55.2809156,86.9310625 54.2699186,86.6679422 C53.1034588,86.3785098 51.8548677,86.2206376 50.8458261,85.5160598 C50.3237058,85.1350225 49.7497646,84.7958897 49.3576854,84.2706235 C49.0076497,83.7921343 48.6263259,83.3272884 48.3945983,82.7766847 C47.3220028,82.3673864 46.23083,82 45.1152134,81.7251778 C41.718498,81.0040332 38.1702308,81.0128039 34.7735155,81.7281014 C33.4212825,82.0662598 32.1003376,82.5213605 30.8087254,83.0456521 C30.5251769,83.5377846 30.1800299,83.9909363 29.8407495,84.4470116 C29.4036937,85.0307489 28.775976,85.4205568 28.1912795,85.8396003 C27.6740479,86.2021217 27.0697963,86.4165161 26.4557672,86.5461272 C25.3831717,86.7829355 24.2910211,87.1308391 23.1822487,86.9495784 C21.6735752,86.7536999 20.1883678,86.3950766 18.7315152,85.9614153 C18.0128664,85.6992695 17.2306637,85.5336011 16.6195678,85.0492648 C16.0681149,84.6604314 15.532306,84.2443115 15.0551623,83.7667968 C14.2270052,82.8146909 13.7117291,81.6530634 13.0781449,80.57427 C11.2311687,77.2794186 9.37930373,73.9855417 7.53428303,70.6887413 C7.33188807,70.2648252 7.28691141,69.788285 7.16078122,69.3400059 C7.05029509,68.9784591 7.16566999,68.6100906 7.24877903,68.258289 C7.38859777,67.6998892 7.48735087,67.125897 7.72298944,66.5967328 C7.97818308,65.9876579 8.40546132,65.476035 8.78874066,64.9458963 C9.07815567,64.5473177 9.4868566,64.2627579 9.88578,63.9830707 C8.84838362,62.8263157 7.90094056,61.5935482 7.00531843,60.325698 C4.21089917,56.457829 2.21334893,52.023764 1.17204155,47.3723811 C0.602011304,45.0998009 0.21188769,42.7794693 0.0974905404,40.4396473 C-0.128370499,38.4564996 0.0838019926,36.4597085 0.273486155,34.4824079 C0.489569661,32.4290947 0.964757821,30.4157369 1.46536757,28.4160223 C2.34436789,25.0441838 3.7190892,21.8000075 5.54846584,18.8316202 C7.19206933,16.2189327 9.05860061,13.7300092 11.2477905,11.5441613 C13.1671205,9.59512176 15.3494661,7.92576937 17.6149208,6.39869688 C20.5432922,4.4486828 23.7620565,2.9362281 27.1294393,1.90908425 C28.4142072,1.51148018 29.7283078,1.21814973 31.0384974,0.915074074 M35.9458418,1.7093077 C33.2579977,1.92175301 30.6053527,2.4782038 28.0191949,3.22955855 C24.6508343,4.23428845 21.4271813,5.72725275 18.4919656,7.65777644 C16.0378045,9.27937735 13.7332397,11.1377866 11.7151566,13.2788065 C9.69902909,15.4120303 7.94102845,17.7859605 6.45875427,20.3148393 C4.68804283,23.3631372 3.39251956,26.6804026 2.60249479,30.1126612 C2.18499409,31.8404848 1.88189053,33.597544 1.73229425,35.3692209 C1.59540878,37.0298026 1.44287924,38.7050021 1.64038543,40.3655838 C1.7753154,43.2257994 2.32187956,46.0528813 3.10310454,48.8029761 C4.80732875,54.7426742 8.15906746,60.1610041 12.5276697,64.5219801 C11.8755082,64.6437951 11.2253022,64.8455207 10.7041596,65.2713859 C9.50445616,66.1260397 8.81807327,67.5624819 8.66065497,69.0008731 C8.69585409,69.4423305 8.82002877,69.8818389 9.06153387,70.2580036 C11.1656592,74.0069812 13.2707623,77.7559588 15.3709767,81.5078599 C15.6564807,82.0399477 15.9791393,82.571061 16.4504164,82.962818 C16.9089828,83.3487278 17.3577716,83.7658223 17.8984692,84.0357642 C19.6936245,84.7559344 21.5885106,85.2315 23.5117516,85.4449198 C24.4660389,85.5111872 25.401749,85.2548885 26.3179039,85.0239273 C27.772801,84.565903 28.9431718,83.4130461 29.5699118,82.0428713 C29.632488,81.806063 29.8925704,81.7651331 30.0832323,81.6764518 C31.9116312,80.945562 33.7947843,80.3169968 35.7444246,80.0002778 C39.0482534,79.4399289 42.4645238,79.53933 45.7243537,80.3189458 C47.0619204,80.6580787 48.37211,81.0995361 49.6480782,81.6228533 C49.9785589,82.9852319 51.0951533,84.0328407 52.3525442,84.5814953 C53.0174165,84.8660551 53.7321542,85.0024879 54.4351589,85.158411 C55.3004707,85.3591621 56.1902263,85.205188 57.0535826,85.0804494 C58.7822506,84.7822464 60.4864748,84.2969355 62.0743464,83.5465553 C62.6512209,83.2425051 63.1616082,82.8117674 63.5458653,82.2865012 C64.2469145,81.3801978 64.7885899,80.3657227 65.2833331,79.3376044 C66.8017841,76.2015997 68.1872607,73.0012768 69.8044649,69.9139981 C70.0919244,69.3380569 70.4947588,68.7894023 70.5280024,68.1247798 C70.4673817,67.6550612 70.3216964,67.1980115 70.121257,66.7701973 C69.6108697,65.7099198 68.8052009,64.7422216 67.7042506,64.2656814 C67.175286,64.0795482 66.6208998,63.9655294 66.0635803,63.9129053 C67.3542148,62.5963291 68.5216524,61.1628105 69.5922924,59.663999 C71.334649,57.2530371 72.7748798,54.6257318 73.8621416,51.8590701 C74.90736,49.1869369 75.6093869,46.3871416 76.0474205,43.5551871 C76.2625262,42.2015791 76.3299912,40.8314043 76.4492771,39.4680511 C76.4707877,36.3642056 76.1569288,33.2486659 75.4255693,30.2276546 C74.693232,26.9941979 73.5121058,23.8591678 71.905657,20.9560734 C71.6152642,20.3314062 71.2163408,19.7700828 70.8604386,19.1834219 C69.0075959,16.2744803 66.8056952,13.5750605 64.2273594,11.2732448 C62.0420805,9.33395046 59.6563622,7.60905045 57.0887817,6.20476744 C56.5461286,5.83834801 55.9340549,5.60251422 55.3503361,5.31503088 C52.158949,3.73728336 48.7094349,2.73547702 45.2100554,2.11275888 C43.3767678,1.7784986 41.5151253,1.65570911 39.6583715,1.54558837 C38.4185802,1.51440374 37.1807444,1.6157538 35.9458418,1.7093077" id="Fill-1" fill="#E8651D"></path>
                <path d="M31.8092912,3.7579295 C34.0694938,3.28947901 36.3764996,3.09412932 38.6796051,3.00471553 C39.7560778,2.97555886 40.8276751,3.08829799 41.8992725,3.15924588 C47.6433853,3.60048348 53.2607396,5.46553845 58.1438693,8.50657909 C63.1079295,11.6020455 67.3124133,15.9075137 70.2366358,20.9671678 C71.721661,23.5106013 72.8683385,26.2493845 73.6659423,29.0824409 C74.6020055,32.3985261 75.0066578,35.8516477 74.9999172,39.2911628 C74.8867248,41.0152938 74.7658166,42.7433125 74.4557457,44.446062 C73.4436273,50.3716691 70.847027,56.010569 67.0364697,60.6668892 C64.9566543,63.216154 62.5258152,65.4806553 59.8336584,67.3777826 C59.4007292,67.689759 58.9317225,67.952169 58.5329206,68.3098242 C59.4953105,68.2933021 60.4235732,68.0202013 61.352811,67.8015262 C62.1455395,67.5906263 62.9275423,67.3427946 63.7036947,67.0784408 C63.9386856,66.6158217 64.1541751,66.1425117 64.3959914,65.6837801 C64.4535203,65.5428562 64.6173314,65.5136996 64.7421398,65.4583019 C65.5436439,65.159932 66.4836074,65.1113375 67.2548845,65.5224466 C68.0817403,65.9500777 68.6170514,66.770352 68.9612497,67.6090922 C69.0373048,67.820964 69.1718639,68.0639363 69.0265791,68.2796956 C67.3952939,71.287692 66.0058251,74.4171746 64.5481017,77.5106972 C64.0654441,78.5088272 63.6081382,79.5225074 63.0328494,80.472043 C62.6057706,81.1523653 62.1406642,81.8822539 61.3937637,82.2467123 C59.6766728,83.0436612 57.8347734,83.5908347 55.9450958,83.7667466 C54.9222518,83.8979517 53.8896571,83.6540075 52.9418931,83.2798303 C52.0058299,82.9037092 51.1506971,82.1602141 50.9020553,81.1533372 C50.8181997,80.9055055 50.8396511,80.5371595 50.5315303,80.4506614 C47.7623433,79.2737039 44.809844,78.5010521 41.8056662,78.2736301 C37.2969617,77.9159749 32.7629056,78.913133 28.652028,80.7363968 C28.355608,81.4760043 28.0006841,82.2185275 27.4010186,82.7647291 C26.4688556,83.6695577 25.1213147,83.9669558 23.8615296,84 C22.0781342,83.8998954 20.3347165,83.4217261 18.6761295,82.7754199 C18.1622698,82.5742389 17.7771188,82.1641017 17.3636909,81.8161654 C16.9756147,81.4944702 16.7708508,81.0250478 16.5270844,80.5983885 C14.6432572,77.232737 12.7526045,73.8700011 10.8678023,70.5043495 C10.6201356,70.009658 10.271062,69.5596734 10.0955501,69.0338815 C10.1072509,68.3603624 10.4095213,67.7208595 10.7576198,67.156192 C11.2666042,66.350496 12.1607396,65.7770815 13.1250797,65.7401497 C13.5911612,65.7100211 14.0445668,65.8451137 14.4794461,65.9977003 C14.61108,66.4175563 14.7505144,66.8354686 14.9006746,67.2494933 C16.1087811,67.6732369 17.3178628,68.0892054 18.5249943,68.5158646 C18.8097135,68.6130535 19.0885823,68.7335678 19.3859774,68.7899373 C19.5839158,68.7530056 19.7594276,68.6470697 19.9368896,68.556684 C15.0011064,65.4757959 10.8005227,61.219894 7.86264937,56.2039749 C5.15099129,51.598193 3.50703029,46.3684584 3.13455514,41.0395911 C3.11017849,40.576 3.07507612,40.1133809 3.02339763,39.6527055 C2.95221783,38.2852577 3.05557481,36.9187818 3.17063257,35.5571653 C3.66109069,29.6004577 5.73408065,23.7866178 9.10098298,18.8435904 C12.2582462,14.180467 16.5436605,10.2899954 21.4755435,7.55801544 C24.6981361,5.77459915 28.1966723,4.48879002 31.8092912,3.7579295 M34.101671,4.53641258 C28.6247262,5.29157032 23.3466948,7.39182242 18.8360403,10.5757307 C15.0176825,13.26106 11.7473117,16.7180692 9.29307095,20.6843481 C6.32594562,25.4504917 4.5825279,30.9649898 4.26563151,36.5650142 C4.26660657,37.5689755 4.12912229,38.570993 4.22857901,39.5739825 C4.34266171,43.5198518 5.1734178,47.4433676 6.64869241,51.1064172 C8.95179791,56.8405622 12.8559615,61.9138228 17.781019,65.6575391 C18.8506663,66.4923918 20.0061193,67.2067302 21.1410959,67.9482815 C21.2912561,67.899687 21.4414162,67.8510926 21.5925514,67.8054138 C21.5847509,67.7218313 21.5769503,67.6392208 21.5701249,67.5575821 C20.5287546,66.9938865 19.5663646,66.3009296 18.609825,65.6079728 C15.9322942,63.6126847 13.5394827,61.2335005 11.5483982,58.5559463 C7.55842883,53.200838 5.19681938,46.6405873 4.96962904,39.9675975 C4.92867628,39.2202149 4.89259884,38.4689447 4.96377865,37.722534 C5.06908576,33.003041 6.23428943,28.3165923 8.30630433,24.0742969 C10.9165556,18.7007227 14.9981812,14.0560652 19.9690668,10.7292892 C25.0559852,7.30823997 31.0838422,5.29157032 37.2140811,4.98153773 C38.1218674,4.9669594 39.0306288,4.85907972 39.9384151,4.95140918 C43.2536389,5.00680685 46.5552118,5.58799646 49.7066246,6.61139557 C58.1068168,9.31519073 65.3437554,15.4099066 69.4068548,23.223894 C73.0223989,30.070852 74.1027718,38.1968158 72.4344342,45.750337 C71.7762647,48.8088716 70.6656647,51.7682736 69.1718639,54.5187194 C66.3880509,59.6609841 62.2371957,64.0461472 57.2741106,67.1523044 C57.3823429,67.2572684 57.4915503,67.3632043 57.6017327,67.4701121 C59.7995311,66.0958611 61.8403439,64.4747502 63.6773679,62.6495427 C67.7989712,58.5724684 70.861653,53.4408946 72.4753869,47.8807177 C73.3665971,44.7755323 73.8063518,41.5469171 73.8063518,38.3192738 C73.7371221,37.1520351 73.7468728,35.9789651 73.5928124,34.8175578 C73.009723,29.4556462 71.1073696,24.2463213 68.1158676,19.7532785 C64.8259955,14.8015041 60.2363606,10.7234579 54.9329775,8.01771893 C48.5696979,4.75217193 41.1845492,3.52078859 34.101671,4.53641258 M29.4428064,6.46172466 C23.764023,8.11004839 18.5493709,11.2881254 14.4609199,15.5449991 C10.0711735,20.0914958 6.98216492,25.8907574 5.74870664,32.0855778 C4.84482061,36.5902833 4.86627206,41.2835352 5.86376441,45.7697748 C6.57166221,48.9624301 7.74856667,52.0520652 9.35645023,54.9026156 C12.2689719,60.0798682 16.5826631,64.4572562 21.7037089,67.4817748 C21.8840961,67.5954858 22.1025108,67.5984014 22.3092248,67.6265862 C22.3326264,67.4079112 22.4827865,67.1503606 22.3297012,66.9520953 C22.1083612,66.6605286 21.7524622,66.5264079 21.4287403,66.3825683 C20.7764213,66.1123832 20.2216088,65.6653142 19.6580208,65.2503176 C18.7005061,64.5418106 17.72154,63.864404 16.7532997,63.172419 C16.8147288,62.9935914 16.8654322,62.8108763 16.9083351,62.6281612 C16.2365148,62.2462088 15.5705448,61.8496781 14.9582035,61.3783119 C14.2434802,60.8253071 13.7608226,60.0322457 13.4322254,59.2032244 C13.2801152,58.8028061 12.9544432,58.5122113 12.6619234,58.2148133 C12.0115545,57.560732 11.3104822,56.9533014 10.715692,56.2457662 C10.9068049,56.1339989 11.100843,56.0144566 11.323158,55.9784967 C11.5678995,55.9192115 11.855544,55.9483681 12.0378813,55.7403839 C11.2422276,55.1057404 10.5518809,54.3428075 10.0155947,53.4778263 C9.00152627,51.8810127 8.43403795,50.0626084 7.62375824,48.3656903 C7.42581988,47.9429186 7.17620303,47.545416 6.99289065,47.115841 C7.36731593,47.0886281 7.74271628,47.0954314 8.11811662,47.1041784 C7.87532523,46.6143463 7.50967554,46.1974059 7.26980935,45.7075739 C6.96168854,44.9543599 6.75594965,44.1622704 6.59506379,43.3662933 C6.18456107,41.3321297 6.3064443,39.2464559 6.29474351,37.1850793 C6.4263774,37.2268706 6.55801129,37.2706056 6.69062024,37.3143406 C6.82712946,36.2258249 6.75887485,35.1285622 6.71012156,34.0371309 C6.6974457,33.6406002 6.657468,33.2324068 6.78422656,32.8485107 C7.14597598,31.655031 7.61205745,30.4936237 7.91140266,29.2816781 C8.06546307,28.7626894 7.90652734,28.1581744 8.31800512,27.7354027 C8.47791592,27.7713626 8.63880178,27.8073225 8.79968764,27.8432824 C8.89914436,26.6818751 9.05515489,25.5010299 9.53293715,24.4261207 C9.99219316,23.3978622 10.7137419,22.5163589 11.4460163,21.6698435 C11.6624809,21.4356183 11.7882644,21.1411359 11.9462251,20.8680351 C12.2387448,20.8738665 12.5312646,20.8670632 12.8218342,20.8349909 C12.8111085,20.702814 12.7994077,20.5706371 12.788682,20.4394321 C12.8998395,20.370428 13.0431742,20.317946 13.0538999,20.1653594 C13.2147857,19.5686196 13.4536769,18.9913175 13.7978751,18.4762163 C14.7895171,16.9522944 16.3057444,15.8521161 17.2661843,14.3038969 C17.4494967,14.311672 17.6337841,14.3194471 17.8180716,14.3281941 C18.0062593,14.8792552 18.1710454,15.4371195 18.3602082,15.9872086 C18.8009379,15.6285816 19.1714629,15.1941472 19.6180431,14.8413515 C20.298639,14.2825153 21.1059935,13.7965709 22.0176801,13.8014303 C22.1541893,14.5857447 21.8070659,15.3613121 21.3000316,15.9444455 C20.9724095,16.3749923 20.4848766,16.7219567 20.3698188,17.2788491 C20.9470578,17.2837085 21.5506236,17.271074 22.060583,17.5869379 C21.6549556,17.9669465 21.0884424,18.1516054 20.7686208,18.6219997 C19.8101311,19.9427968 18.7502345,21.1936179 17.5704048,22.3229529 C17.2291318,22.5931381 17.2749599,23.0683918 17.1111488,23.4347939 C16.7074716,24.4280645 16.1263323,25.3387245 15.5159411,26.2163402 C14.8363202,27.1668477 14.1352479,28.10958 13.3132674,28.9444326 C13.3561703,29.0911879 13.4039485,29.2379431 13.4575771,29.3827546 C12.9183657,30.8571101 12.6199956,32.4024136 12.2816477,33.931195 C12.0827343,34.9157186 11.8457933,35.8944108 11.7014836,36.8886532 C11.781439,36.9022597 11.9423248,36.9304444 12.0222802,36.9440509 C11.7346358,38.2415227 11.7950899,39.5768981 11.9345243,40.8889483 C12.0905348,42.3778822 12.2241189,43.8726475 12.1422133,45.3703284 C12.2748223,45.4364169 12.5117633,45.4130915 12.5283394,45.6094131 C13.410774,48.8905103 14.6374068,52.1443946 16.7016212,54.8802621 C17.1491764,55.5265683 17.7332408,56.0708262 18.1222921,56.7579517 C18.5903237,57.5354629 19.0466545,58.3431026 19.7262754,58.9602521 C20.861252,59.9476913 22.2585214,60.6095477 23.2852657,61.7252763 C24.4514444,62.8759928 25.4216349,64.2210872 26.1305078,65.6973866 C27.3230133,65.4777397 28.4267878,64.9334818 29.6066175,64.6555216 C32.8048334,63.9285486 36.0752042,63.4620419 39.360201,63.4464917 C43.0127977,63.3920659 46.6546686,63.8624602 50.2243846,64.6108147 C51.0024871,63.3502747 52.2242446,62.46294 53.1213052,61.2976451 C53.5610599,61.2325286 54.0251912,61.1576931 54.3888908,60.8816766 C54.7935431,60.5881662 55.0334093,60.1381816 55.2605996,59.7066629 C55.5141167,59.7503979 55.7656837,59.8417554 56.0270014,59.8252333 C56.6822456,59.4257869 56.9338126,58.6356412 57.4935004,58.1341465 C57.7713941,57.8552143 58.1448444,57.709431 58.5182946,57.6054389 C58.6557789,56.4955416 59.6581465,55.7384401 59.78393,54.6256272 C59.9282398,54.6304867 60.0744996,54.636318 60.2217346,54.6431212 C60.2295351,54.7121254 60.2461112,54.8501336 60.2539118,54.9201096 C60.2997399,54.9570414 60.391396,55.0318768 60.4362491,55.0697805 C60.9481586,54.4973379 61.3372099,53.8102124 61.4844448,53.0531108 C61.634605,52.9870224 61.8812966,53.0200666 61.9183491,52.814998 C62.2469463,51.8771252 62.7393546,50.985903 62.8748887,49.9897168 C63.1059793,49.7943671 63.3263442,49.5786077 63.4609033,49.3035631 C63.8509296,48.5416022 64.1015215,47.7184122 64.345288,46.9000817 C64.8454968,45.1118059 65.2530743,43.2924297 65.4568631,41.4458407 C65.5397437,41.4361218 65.7055048,41.416684 65.7883854,41.407937 C65.8127621,40.6488917 65.6362752,39.9092842 65.5114667,39.166761 C65.6645521,39.1327449 65.8186125,39.1006725 65.973648,39.070544 C65.9278199,37.9752251 65.604098,36.8896251 65.7874104,35.7943062 C65.6704025,34.3743764 65.3213289,32.9738844 64.7986936,31.6491997 C64.923502,31.6044928 65.0483105,31.5607578 65.175069,31.5170228 C65.1770192,30.823094 64.6972868,30.2934145 64.2750833,29.798723 C64.4583956,29.7501286 64.641708,29.702506 64.8269705,29.6548835 C64.138574,27.9093708 63.0621014,26.3514328 62.1045867,24.7468441 C62.1747915,24.6059202 62.2459713,24.4669401 62.3181261,24.3279599 C61.6092533,23.7730113 61.0251888,23.0829701 60.4830522,22.3696036 C60.5503318,22.2801898 60.6185864,22.190776 60.686841,22.1023341 C59.9955193,21.2023649 59.0224036,20.5784122 58.1029165,19.9340498 C58.0483128,19.6590052 58.021011,19.354804 57.8220976,19.1371008 C57.503251,18.7784738 57.0517956,18.5831241 56.6705448,18.3032201 C56.6607942,18.0884326 56.732949,17.8415728 56.5779136,17.6617734 C56.0777048,16.9571538 55.2849763,16.5557637 54.5468514,16.1465984 C54.5839039,16.0931445 54.6570339,15.9872086 54.6931113,15.9347266 C54.2172792,15.3700591 53.5240074,15.0755768 52.8434114,14.8364921 C52.8434114,14.7451345 52.8453615,14.6537769 52.8482867,14.5633913 C53.1427566,14.3758167 53.4343013,14.1833827 53.7170704,13.9773422 C53.4986557,13.1551241 52.6386476,12.7002801 52.4680111,11.8547367 C53.2168616,11.8158611 53.9315849,12.0646647 54.6531336,12.2230826 C54.5673278,11.7653229 54.4883475,11.3056194 54.45227,10.8410564 C55.2791259,10.9897555 55.903168,11.5796921 56.5983899,11.9995481 C56.7358742,11.7789293 56.8606827,11.5495635 56.9806158,11.3182539 C57.2253573,11.4572341 57.4622983,11.6117644 57.665112,11.8071141 C58.686981,12.7702561 59.5791662,13.856828 60.4967032,14.916187 C60.6702649,15.1776251 61.0056875,15.0979302 61.2728556,15.1125085 C61.6550814,15.9813773 62.2176944,16.8842622 63.1820345,17.1777726 C63.5077065,18.0495571 63.9991396,18.8416466 64.464246,19.643455 C64.6475584,19.6813587 64.8308708,19.7163467 65.0161333,19.7513347 C65.2842764,20.6445007 65.5231675,21.7573136 66.4865326,22.1528724 C66.6357177,23.0586729 66.9730904,23.9226822 67.4167454,24.7235187 C67.5981076,24.7342095 67.7804449,24.7458722 67.9637573,24.756563 C68.2592023,25.5408774 68.5653729,26.3251918 68.7350344,27.1483818 C68.9056709,27.1590725 69.0782576,27.1707352 69.2508442,27.181426 C69.247919,28.1513712 69.3132484,29.1242321 69.5082616,30.0757114 C69.646721,30.0873741 69.7871304,30.1000086 69.9275399,30.1116713 C70.0416226,31.0981386 70.1206029,32.0875216 70.194708,33.0778765 C70.343893,33.0856516 70.4950282,33.0934267 70.6461634,33.1021737 C70.6490886,34.1207134 70.6422632,35.1402249 70.6500637,36.1587646 C70.8197252,36.1869494 70.9923118,36.216106 71.1639234,36.2452627 C71.0742173,37.371682 70.8840795,38.4874106 70.788523,39.612858 C70.9143065,39.6410428 71.0410651,39.6701995 71.1687987,39.6993562 C70.9864614,40.6508355 70.7270939,41.5867646 70.6061857,42.5489347 C70.6715151,42.5742038 70.802174,42.624742 70.8675034,42.6500111 C70.7777973,43.0232165 70.6481136,43.3837873 70.5223301,43.74533 C70.2727132,44.4674435 70.1079271,45.2138543 69.9255898,45.9544337 C70.0464979,45.9942811 70.1693562,46.0341286 70.2931896,46.0749479 C70.0942762,47.0128208 69.6798732,47.8943241 69.1845397,48.7107109 C68.9144465,49.0848881 69.1006841,49.5756921 68.9436985,49.9897168 C68.5234451,51.2269314 67.7775197,52.3144752 67.0930235,53.4156254 C66.5850142,54.2057712 66.0399524,54.9910575 65.7630337,55.8988018 C65.8225127,55.9396211 65.9404957,56.0202879 65.9989997,56.0611073 C64.7353143,57.7210937 63.4443272,59.3742768 61.9339502,60.8214195 C61.7720893,60.9516527 61.9232245,61.1489461 61.9368754,61.3102797 C61.3362348,62.1101443 60.479152,62.6680086 59.5655153,63.0528766 C59.6366951,63.2297604 59.7234759,63.4017848 59.7917306,63.5815843 C59.1394115,64.0451753 58.3749599,64.327995 57.7236159,64.7906142 C57.5997826,65.0034578 57.6534112,65.2891932 57.6183088,65.5331373 C57.0342444,65.9325837 56.4306786,66.3057891 55.78421,66.5973558 C55.8953675,66.7139825 55.9977494,66.8432437 56.1362087,66.9346013 C56.481382,66.9608423 56.8470317,66.8170027 57.1610029,67.0298464 C60.9218319,64.712863 64.1902525,61.6193404 66.774177,58.0486202 C70.5886345,52.7780663 72.8078844,46.3704022 73.0233739,39.8733243 C73.1559829,36.2831664 72.7064775,32.6687112 71.6777831,29.2233648 C69.9090137,23.2277816 66.3851257,17.7715968 61.6901837,13.6352373 C57.0196184,9.49304642 51.1848244,6.67651213 45.0272837,5.59868724 C39.8594348,4.69094293 34.4760963,4.97084696 29.4428064,6.46172466 M54.9632045,11.2550812 C54.9875812,11.8187768 55.0841127,12.4835488 55.6584265,12.7547059 C55.7569081,12.6147538 55.7003543,12.2600144 55.9226693,12.2707051 C56.1927626,12.5379746 56.3858256,12.8800795 56.7017469,13.103614 C56.6568939,12.1618536 55.8280879,11.4737562 54.9632045,11.2550812 M52.9672448,12.1783757 C53.237338,12.9772684 53.8916072,13.5798396 54.6307071,13.9540169 C54.7759919,14.049262 54.9505287,13.9909487 55.1114145,13.9870611 C54.6775103,13.5156949 54.1090469,13.1978872 53.6634418,12.7391556 C54.2826086,12.7926095 54.8266953,13.1045859 55.400034,13.3115982 C55.5687204,13.383518 55.7530079,13.3844899 55.933395,13.3650521 C55.2313476,12.4874364 54.0534681,12.1599098 52.9672448,12.1783757 M57.1337011,12.1472752 C57.1454019,12.7236054 57.2614347,13.2999356 57.5042261,13.8247556 C57.5529794,13.9753984 57.7060647,14.0385712 57.8250228,14.127985 C57.7518928,13.7596391 57.6417104,13.3980964 57.5949072,13.024891 C57.9459309,13.357277 58.1458194,13.865575 58.6177513,14.0521777 C58.6050754,13.8296151 58.6411529,13.5876147 58.5299954,13.383518 C58.227725,12.8207943 57.6826632,12.4446733 57.1337011,12.1472752 M55.7559331,13.8189243 C55.7198556,14.8938335 56.6773703,15.6460756 57.5305529,16.1223012 C57.3014124,15.5061236 56.9445383,14.9521469 56.6334923,14.3777605 C57.0693467,14.6061544 57.5188521,14.9016086 58.0375871,14.846211 C57.7811448,14.4224674 57.3881933,14.0648122 56.9045606,13.926804 C56.5291603,13.8325307 56.1391339,13.8335026 55.7559331,13.8189243 M59.131611,14.1435352 C59.1111346,14.7023714 59.087733,15.2621794 59.1013839,15.8219875 C59.2417934,15.8404534 59.384153,15.8579474 59.5265126,15.8764133 C59.5148119,15.5654088 59.5060363,15.2544043 59.5079864,14.9433999 C59.9496912,15.2427417 60.1115522,15.8268469 60.6010352,16.0571846 C60.4742766,15.2787016 59.8882621,14.7111184 59.4085297,14.1289569 C59.3149234,14.1328444 59.2232672,14.1377039 59.131611,14.1435352 M53.5795861,14.4885558 C53.5786111,14.6275359 53.577636,14.767488 53.5786111,14.9084119 C53.93256,15.099874 54.2270298,15.5158425 54.6706848,15.4448946 C54.8627728,15.43226 55.0480353,15.3749186 55.2342728,15.3243803 C54.9505287,15.1319463 54.6131559,15.0493358 54.3089354,14.898693 C54.6365575,14.7752631 54.9729552,14.6780742 55.3035025,14.5614475 C54.7935431,14.1940735 54.1100219,14.1211818 53.5795861,14.4885558 M19.5497885,15.6198346 C19.972967,15.4371195 20.3785944,15.2165007 20.8144489,15.0619703 C20.6174856,15.589706 20.2654868,16.0377469 20.0519474,16.5577075 C20.9714345,16.2165744 21.3907128,15.248573 21.6003519,14.364154 C20.8476011,14.6275359 19.9193384,14.8248294 19.5497885,15.6198346 M16.7962026,15.6276097 C15.840638,16.6830811 14.7826916,17.6637171 14.0201901,18.8766346 C13.722795,19.3363381 13.5121808,19.8475517 13.3893225,20.3801469 C13.4341756,20.3840344 13.5258317,20.3918095 13.5716598,20.396669 C13.6174879,20.1906285 13.662341,19.9855599 13.7091441,19.7804914 C13.8797806,19.7960416 14.0513922,19.8115918 14.2230038,19.827142 C14.6461824,19.3256473 15.0761864,18.829012 15.5120408,18.3382081 C16.1741106,17.6024881 16.9668391,16.9843667 17.8512238,16.5372978 C17.8356227,15.9969275 17.8921766,15.3632559 17.5187263,14.924934 C17.2096305,15.0765487 17.0263181,15.3846375 16.7962026,15.6276097 M55.3776075,15.8608631 C55.3532309,15.9454174 55.3035025,16.1135542 55.2781508,16.1981085 C55.917794,16.7433383 56.5184345,17.3954758 57.340415,17.6627452 C57.6553613,17.7745125 57.9966344,17.7317494 58.288179,17.577219 C57.8016212,17.1272344 57.1678284,16.9056437 56.6052154,16.5722858 C56.9016354,16.5285508 57.2009806,16.491619 57.4935004,16.4206711 C57.1697785,16.1650643 56.8197299,15.9220921 56.4141025,15.8180999 C56.0718544,15.7257705 55.7188806,15.8074092 55.3776075,15.8608631 M58.1740963,15.8773852 C58.2950045,16.2253214 58.4334638,16.5693701 58.6109258,16.8930092 C58.7786372,17.2224795 59.0048524,17.5801347 59.4202305,17.5995725 C59.2846963,17.2302546 59.0175283,16.9367442 58.7961883,16.6189365 C59.2525191,16.8920373 59.6386452,17.262327 60.0735246,17.5675001 C60.2509866,17.7093959 60.4840273,17.7181429 60.6995168,17.7550747 C60.6673397,17.4003352 60.524005,17.052399 60.2363606,16.8278926 C59.6435205,16.3477794 58.924897,16.019281 58.1740963,15.8773852 M61.027139,17.69093 C61.0934434,17.8804484 61.3138083,17.9251553 61.4649435,18.0252598 C61.4376417,17.6889863 61.3732873,17.3575721 61.2982073,17.0300455 C61.41229,17.0358769 61.5263727,17.0417082 61.6424055,17.0485114 C61.9398006,17.5412591 62.0714345,18.1574367 62.5267902,18.5374453 C62.553117,17.7560466 62.2001432,17.0144953 61.737962,16.4031771 C61.5780512,16.1796427 61.3362348,16.0406625 61.0934434,15.9240358 C61.0017873,16.500366 60.776547,17.1233469 61.027139,17.69093 M16.9668391,17.550978 C16.1048809,18.3100233 15.2760749,19.1312695 14.6647086,20.1089898 C14.4521443,20.4374883 14.3078345,20.8048623 14.2288542,21.1868147 C14.5506259,21.0585254 14.8733727,20.9195452 15.1473662,20.7047578 C16.0892798,19.9797286 16.5894886,18.8348434 17.5333523,18.1137017 C17.6776621,17.9883281 17.883401,18.0437257 18.0569627,18.0213723 C17.6435348,18.6142246 17.0779966,19.0748999 16.6050897,19.617214 C15.8854911,20.4180505 15.1190893,21.2869193 14.9591785,22.3909852 C15.5081406,22.190776 15.9898231,21.8506149 16.4442038,21.4900441 C16.9609887,21.0925415 17.2359572,20.4763639 17.7020387,20.0302668 C18.3602082,19.4374145 18.7209825,18.6025619 19.0378789,17.795894 C19.2241165,17.2924555 19.3986533,16.7754106 19.4103541,16.2330965 C18.461615,16.3565264 17.6796122,16.9600695 16.9668391,17.550978 M19.586841,17.717171 C19.261169,18.3226579 18.8867437,18.9009318 18.5162187,19.4792058 C18.105716,20.1391184 17.6630361,20.8058342 17.4962998,21.5765422 C17.6727867,21.4657469 17.8414731,21.3432888 17.9945585,21.2013931 C18.9627988,20.3121146 19.7418764,19.2488681 20.5892087,18.2507381 C20.7286431,18.0903764 20.8300499,17.9028018 20.9129305,17.708424 C20.4712257,17.6685766 20.0275707,17.6782955 19.586841,17.717171 M57.2770358,18.1448022 C57.5490791,18.8183213 58.1974979,19.2566432 58.8663931,19.4782339 C59.0828577,19.5725071 59.2788459,19.4306113 59.4465573,19.3100971 C59.0662816,18.995205 58.6099508,18.7979116 58.1672709,18.5879836 C58.6148261,18.5636863 59.0633564,18.5918711 59.5118867,18.5996462 C59.3588013,18.3586178 59.1628131,18.1506335 58.968775,17.9426493 C58.4022617,17.9863843 57.8415989,18.0826013 57.2770358,18.1448022 M60.2022333,18.1584086 C60.3055903,19.0243617 60.8399263,19.7513347 61.4142401,20.3762593 C61.6131535,19.7853508 61.0554159,19.3557759 60.8370011,18.8669157 C61.3411102,19.0224179 61.679458,19.4344989 62.00513,19.8222826 C62.1162875,19.8213107 62.227445,19.8203388 62.3395776,19.8203388 C62.1562652,19.4315832 61.9583268,19.0321368 61.6219291,18.7512609 C61.220202,18.4140154 60.6946415,18.2964169 60.2022333,18.1584086 M63.0338245,18.2244971 C62.9987221,18.7211324 63.012373,19.2187395 63.0728271,19.7124591 C63.145957,19.6939932 63.2912418,19.6551177 63.3643718,19.6356799 C63.752448,19.8757365 63.8353286,20.3723717 64.1288234,20.6998983 C64.1756266,20.5142675 64.2390058,20.3218335 64.1814769,20.1313433 C64.0508181,19.5161375 63.7319716,18.9592452 63.3994741,18.4324813 C63.3331697,18.2876699 63.159608,18.2789229 63.0338245,18.2244971 M59.0604312,19.9427968 C59.4173053,20.9195452 60.3445929,21.4774095 61.1548726,22.0449927 C61.3625616,22.2160452 61.6404554,22.155788 61.8881221,22.1509286 C61.4191154,21.6601247 60.7794722,21.3841082 60.2763383,20.9321798 C60.8096993,20.9632803 61.2757808,21.2315216 61.7428373,21.4599155 C61.753563,21.2723409 61.8949476,21.0361719 61.723336,20.886501 C60.9891114,20.2615764 60.0393973,19.8669895 59.0604312,19.9427968 M62.2527967,20.5055205 C62.3386025,21.0692161 62.5053388,21.6377712 62.864163,22.0916434 C62.9470436,22.2053544 63.086478,22.2471456 63.2073862,22.3093465 C63.0991539,21.9069845 62.8729386,21.5532169 62.7071774,21.175152 C63.1469321,21.4045179 63.3877734,21.9050407 63.8948076,22.0236111 C63.8606803,21.1547424 63.0211486,20.6561633 62.2527967,20.5055205 M64.6534088,20.6921232 C64.4535203,21.4103492 64.330662,22.2325673 64.7362894,22.9070582 C64.8240453,22.6572828 64.8825493,22.4007041 64.9254522,22.1402378 C64.9859063,22.1421816 65.1058394,22.1441254 65.1653184,22.1450973 C65.2179719,22.4318045 65.2969523,22.725315 65.5319431,22.9216366 C65.5982476,22.1101093 65.3895835,21.1547424 64.6534088,20.6921232 M10.6094098,23.2598539 C9.97561704,24.4999843 9.47638333,25.8275846 9.28332029,27.2115546 C9.49978491,27.1969762 9.71527446,27.181426 9.93173908,27.1668477 C10.4134216,25.7177612 11.4343155,24.5417755 12.0720086,23.1675245 C12.3499023,22.5873067 12.4376583,21.9322536 12.4006058,21.2946944 C11.5269468,21.6358274 11.0394139,22.4833146 10.6094098,23.2598539 M13.7247452,22.2869931 C12.6424221,23.3006733 11.6897828,24.4611087 10.9497078,25.745946 C10.5811329,26.4408466 10.1755055,27.2105827 10.3207903,28.02211 C10.3675935,28.1717809 10.375394,28.4118375 10.5811329,28.4176688 C11.604952,26.9423413 12.0515322,25.1511499 13.0490246,23.6583284 C13.1260548,23.5426736 13.2362372,23.4571474 13.3415443,23.3696774 C13.4790286,24.0101522 13.2674393,24.6545146 12.9456676,25.2046038 C12.3850047,26.1823241 11.7414613,27.1328315 11.4323654,28.2271785 C11.397263,28.5809461 11.4430911,28.9376294 11.5142709,29.2855657 C12.0856595,28.9492921 12.3908551,28.3408896 12.6941006,27.7801096 C13.4468514,26.3203324 13.9792374,24.7585067 14.4209422,23.1811309 C14.5711023,22.6650579 14.6686089,22.1344065 14.6968858,21.5969519 C14.3409868,21.7777232 14.0114145,22.0090328 13.7247452,22.2869931 M61.1733988,22.4901179 C61.4337414,23.2054281 62.0100053,23.7419109 62.5989451,24.1986987 C62.7734819,24.3580885 63.0143231,24.3551728 63.2376132,24.3600323 C62.8280856,23.8692283 62.2586471,23.5465612 61.8491195,23.0567291 C62.4419595,23.1986249 62.8427116,23.7613486 63.4804046,23.7895334 C63.4960057,23.4833884 63.4141001,23.153918 63.1518074,22.9682872 C62.5882194,22.5435717 61.8452192,22.5464874 61.1733988,22.4901179 M63.8782315,22.6543671 C63.8528798,23.4484004 64.0673942,24.2463213 64.4954481,24.9178965 C64.5773537,25.0549329 64.7070374,25.1492061 64.8318459,25.2473669 C64.8913249,24.6710367 64.6056306,24.160795 64.3774652,23.6554127 C64.9361779,23.7632924 65.0239338,24.5145626 65.5377935,24.6545146 C65.2286977,23.8352122 64.6787605,23.057701 63.8782315,22.6543671 M66.1062569,23.1179581 C65.9843737,23.977108 66.0428776,24.8508362 66.0955312,25.7138736 C66.1793868,25.7478897 66.3480732,25.8149501 66.4319289,25.8489662 C66.4212032,25.5301866 66.4104774,25.211407 66.4007268,24.8926274 C66.5187098,24.8926274 66.6376678,24.8926274 66.7585759,24.8935993 C66.7975786,25.2220978 66.8317059,25.5505963 66.9009356,25.8742353 C66.9457886,25.7478897 67.0267191,25.6264036 67.0198936,25.4864516 C67.0033175,24.8333422 66.7078725,24.2346586 66.4650811,23.6418063 C66.3900011,23.4396534 66.2505666,23.2734604 66.1062569,23.1179581 M14.9270013,23.5854367 C14.4579947,24.0597186 14.5876784,24.800298 14.2756574,25.3552466 C13.8758804,26.0734725 13.4322254,26.8004455 13.3561703,27.6391857 C13.5102307,27.688752 13.6642911,27.7383184 13.8183515,27.7869128 C14.9201759,26.4058586 15.6973034,24.8022418 16.4208022,23.2015406 C15.9186433,23.2831793 15.3531051,23.2695728 14.9270013,23.5854367 M62.715953,24.8712459 C62.8612378,25.5535119 63.3058678,26.1288702 63.8655556,26.5322042 C64.2360806,26.7868391 64.6095308,27.1085343 65.085363,27.1104781 C64.8688984,26.4913848 64.2546069,26.1726052 63.8363036,25.7080423 C64.1619756,25.7410865 64.4856975,25.7993999 64.8133196,25.8324441 C64.5841791,25.4903392 64.2546069,25.2308448 63.9055333,25.0209168 C63.5476842,24.809045 63.1128048,24.8508362 62.715953,24.8712459 M65.5241426,25.6448695 C65.5075665,26.4418185 65.6606518,27.268896 66.0906559,27.9511621 C66.2252149,27.417595 65.9707228,26.8947187 65.9200193,26.3679549 C66.0204511,26.2872881 66.121858,26.2075932 66.2242399,26.1269264 C66.0136257,25.9354643 65.78156,25.7682994 65.5241426,25.6448695 M67.5581299,25.6137691 C67.4216207,26.2746536 67.3202139,26.954004 67.4186955,27.6284949 C67.5981076,27.4904867 67.7804449,27.3553941 67.9657075,27.225161 C67.974483,27.5517157 67.9783833,27.8782704 67.9978846,28.2048251 C68.0671143,28.1649776 68.2045986,28.0862546 68.2738283,28.0464072 C68.4308139,27.2309923 68.1616957,26.4097461 67.870151,25.6545884 C67.7921457,25.6438976 67.6361352,25.6234879 67.5581299,25.6137691 M66.2427661,26.4476498 C66.270068,26.6187023 66.3012701,26.7907266 66.3353974,26.9617791 C66.4719066,26.9267911 66.6093909,26.8918031 66.7478502,26.857787 C66.5840392,26.7149193 66.4163278,26.576911 66.2427661,26.4476498 M64.1902525,27.2630647 C64.4476699,28.3204799 65.0629365,29.4410679 66.1306336,29.8502332 C66.1686611,29.0387058 65.3593565,28.6295406 64.8981503,28.0862546 C65.1662934,28.1649776 65.4246859,28.2728573 65.6772279,28.3933716 C65.7259812,28.3700462 65.8225127,28.3243674 65.871266,28.3010421 C65.6460258,27.9657404 65.4578381,27.5526876 65.0678118,27.3796913 C64.7801674,27.3087435 64.4817972,27.2990246 64.1902525,27.2630647 M8.51691855,28.3117329 C8.29070327,30.228298 7.44142093,31.9971359 7.11087361,33.8913476 C6.93048643,35.051783 6.9373119,36.3171825 7.55257844,37.3590475 C7.67543673,36.2209655 7.57110469,35.0751084 7.61205745,33.9341107 C7.61400759,33.581315 7.81097088,33.2761418 7.95625569,32.9670811 C8.50034243,31.8591277 9.0775814,30.7229895 9.1975145,29.4770278 C9.25894365,28.9862238 9.00152627,28.4750102 8.51691855,28.3117329 M68.1831471,30.2273261 C68.2757784,30.1923381 68.462991,30.1213902 68.5565973,30.0864022 C68.6716551,30.2477358 68.7954885,30.4051818 68.9339478,30.5490213 C69.0314544,29.824964 68.9007956,29.090216 68.6775055,28.4001748 C68.2455513,28.9065289 68.15097,29.5849075 68.1831471,30.2273261 M66.669845,28.5605365 C66.625967,29.37012 66.6181665,30.1942819 66.832681,30.9834557 C66.9184867,30.98054 67.0910734,30.9747087 67.1768792,30.971793 C67.144702,30.4702983 67.0715721,29.9726912 67.0423201,29.4711964 C67.1778543,29.4167707 67.3124133,29.361373 67.4489226,29.3059753 C67.3387401,28.9298543 67.0462204,28.6596691 66.669845,28.5605365 M9.48028359,30.2875832 C8.84551573,31.3070947 8.49351697,32.4772491 8.30045393,33.6551785 C8.1015405,34.9507066 7.99525833,36.2802507 8.25462584,37.5757787 C8.3784592,37.5262124 8.50229256,37.4785898 8.62612592,37.4309673 C8.6553779,35.3394622 9.27551977,33.3247363 9.82058157,31.3236169 C9.83033223,31.1243796 10.0438716,31.1000824 10.1852562,31.0233032 C10.2739872,31.9650636 10.0282706,32.8873862 9.84593328,33.8029057 C9.60119176,34.9798632 9.34767464,36.1713991 9.4003282,37.380429 C10.0389963,37.1491195 10.2827628,36.4493594 10.4826513,35.8642822 C10.9068049,34.3539667 10.9906606,32.7736752 11.0374637,31.2137934 C11.0930425,30.438226 11.0969427,29.6597429 11.1047433,28.8822317 C10.4017208,29.1203445 9.8654346,29.6723775 9.48028359,30.2875832 M64.9625047,29.9260405 C65.041485,30.1175026 65.0775624,30.3546435 65.2589247,30.4848767 C65.573871,30.7122987 65.9492713,30.8328129 66.3129709,30.9601304 C66.2612924,30.6248287 66.2349656,30.2185791 65.9287949,30.0067073 C65.6265245,29.8735585 65.2823263,29.9347875 64.9625047,29.9260405 M67.454773,30.0008759 C67.528878,30.2963302 67.5503294,30.6364913 67.8135972,30.8376724 C67.8009213,30.5587402 67.7628938,30.2827238 67.7180407,30.0076792 C67.6527113,30.0057354 67.5210774,30.0028197 67.454773,30.0008759 M11.9735269,30.2584265 C11.8009403,30.3711657 11.5630242,30.4839048 11.5786253,30.7278489 C11.4469914,32.0019954 11.2822053,33.2722543 11.1398456,34.5454289 C11.0754913,35.1752129 10.9701842,35.8040251 11.0004112,36.4396405 C11.1554467,36.3191263 11.3241331,36.1956964 11.3923877,36.0032623 C11.7200098,35.2150604 11.8906463,34.3743764 12.077859,33.5443832 C12.3284509,32.3577067 12.5458906,31.1642271 12.7311531,29.9658879 C12.4717856,30.0426672 12.2065677,30.1155588 11.9735269,30.2584265 M65.5699707,31.1962994 C65.6167739,31.322645 65.6596768,31.45385 65.723056,31.5753361 C65.8069117,31.7794328 66.0672543,31.7104287 66.2417911,31.7473605 C66.1150325,31.5753361 65.9833986,31.4081712 65.8517647,31.2419782 C65.78156,31.2303155 65.6401754,31.2079621 65.5699707,31.1962994 M68.8578927,33.160487 C68.9768507,33.0069286 69.0919085,32.8494826 69.2079413,32.6920366 C69.3054479,32.7095306 69.4039296,32.7270246 69.5043613,32.7445186 C69.5024112,33.0069286 69.5043613,33.2703105 69.5384886,33.5317486 C69.6116186,33.4228971 69.7013246,33.3111298 69.6876737,33.1702059 C69.6944992,32.4733615 69.7198509,31.7580512 69.5189873,31.0825884 C69.0626565,31.655031 68.6355777,32.4092169 68.8578927,33.160487 M65.4890402,32.0593368 C65.5221925,32.7697877 65.7396322,33.4598289 66.0955312,34.0750346 C66.1852372,34.0672595 66.3636743,34.0517092 66.4533803,34.0439341 C66.3110207,33.6493472 66.1101572,33.2800294 65.8917424,32.9233461 C65.9872989,32.9223742 66.1784118,32.9214024 66.2739682,32.9214024 C66.3978016,33.1118926 66.5128594,33.310158 66.6600943,33.4860699 C66.8833844,33.4141501 66.9282374,33.1828405 66.9886915,32.9874908 C66.6035405,32.5209841 66.0516532,32.2488552 65.4890402,32.0593368 M67.3835931,34.7952043 C67.4732992,34.7077343 67.603958,34.6397021 67.6156588,34.4997501 C67.7443675,33.9389701 67.7141405,33.3587524 67.7287665,32.7882536 C67.7921457,32.8174102 67.9208544,32.8747517 67.9852088,32.9039084 C68.1889975,33.3266801 68.300155,33.7883273 68.4659162,34.2266493 C68.5253952,34.2179023 68.6443533,34.1994364 68.7038323,34.1897175 C68.7174832,34.0439341 68.7711118,33.8952351 68.7262588,33.7513956 C68.5575724,33.0594106 68.1158676,32.4675302 67.588357,32.0019954 C67.3280144,32.9039084 67.1164251,33.8689941 67.3835931,34.7952043 M69.0831329,36.1490457 C69.1933153,36.1918088 69.3034978,36.2355438 69.4146553,36.2792788 C69.4468325,36.1840337 69.4799847,36.0897605 69.5150871,35.9954872 C69.618444,36.0275596 69.7237512,36.0606038 69.8290583,36.093648 C69.8232079,36.3482829 69.8202827,36.6038897 69.8300333,36.8594965 C70.3828957,36.067407 70.2600374,35.0634457 70.2151843,34.1557014 C69.4292813,34.474481 69.1767392,35.3861128 69.0831329,36.1490457 M67.7346168,37.2676899 C68.0739398,36.9207255 68.2231248,36.4532469 68.2582272,35.979937 C68.3869359,35.9381458 68.5136945,35.8963545 68.6443533,35.857479 C68.5634228,35.3968036 68.476642,34.8583771 68.0017849,34.6338708 C67.8886773,35.5085708 67.7901956,36.3861866 67.7346168,37.2676899 M66.1608606,34.8146421 C66.1784118,35.078024 66.1452595,35.3569562 66.2505666,35.6067316 C66.6015903,35.6971173 66.9292125,35.8497039 67.233433,36.0469973 C67.2324579,35.8769168 67.2324579,35.7058643 67.2324579,35.5367556 C66.9009356,35.2587954 66.5557623,34.9954135 66.1608606,34.8146421 M66.2954197,35.7476555 C66.3929263,36.1325236 66.4582557,36.610693 66.8434067,36.8225648 C66.8765589,36.4017368 66.7478502,35.8876075 66.2954197,35.7476555 M66.2486165,36.9848702 C66.2963947,37.5942446 66.3646494,38.2045909 66.4738567,38.8071621 C66.4953082,38.9762708 66.5723384,39.1298292 66.6630195,39.2736688 C66.7576009,38.8722786 66.7234736,38.4601977 66.6893463,38.05492 C67.0715721,38.1229522 67.1349514,38.5525272 67.3426404,38.8149372 C67.4274711,38.7235796 67.5123018,38.632222 67.5981076,38.5408645 C67.4928005,37.8080602 66.9418883,37.2171517 66.2486165,36.9848702 M69.3990542,38.2240287 C69.2089164,38.501017 69.1357865,38.87811 69.335675,39.1706485 C69.4712091,38.9665519 69.5921173,38.7527363 69.7110753,38.5379488 C69.8407591,38.5223986 69.9723929,38.5078203 70.1040268,38.4942138 C70.0464979,38.9257325 69.9889691,39.3582231 69.9928693,39.7955732 C70.4521253,39.0297246 70.5837592,38.0947674 70.3780203,37.2288144 C69.9558168,37.4494332 69.6603719,37.8391606 69.3990542,38.2240287 M6.63991682,37.7341966 C6.60676458,38.9344795 6.68086958,40.1337905 6.72864781,41.3340734 C6.83590505,42.9892004 7.18497862,44.6452992 7.93967957,46.1332613 C7.99720846,46.1400645 8.11226623,46.1517271 8.16979511,46.1585304 C8.03231083,45.5598468 7.89092628,44.9611631 7.80317036,44.3537325 C7.54965324,42.7967664 7.69786325,41.2106435 7.94943023,39.6643682 C7.97770714,39.4476369 8.03133576,39.2172992 7.94357984,39.0083431 C7.71443937,38.431041 7.33123849,37.7847349 6.63991682,37.7341966 M8.9293714,37.7915381 C8.56469677,39.4398618 8.02061004,41.0804104 8.06546307,42.7880194 C8.04401162,44.1195073 8.47694085,45.4082321 9.02005252,46.608515 C9.05515489,46.765961 9.23066674,46.7640172 9.3515749,46.8194149 C9.78450413,44.6346084 8.89914436,42.4779868 8.94594752,40.2892928 C9.01907745,40.2892928 9.16533733,40.2892928 9.23944233,40.2892928 C9.40617859,41.7655921 9.33792398,43.2593855 9.52708675,44.7356849 C9.58949097,45.172063 9.72892538,45.5987223 9.95904092,45.9767871 C10.2847129,45.6502324 10.3237155,45.1623442 10.3987956,44.7308254 C10.522629,43.4693135 10.3568678,42.1990546 10.137478,40.9569805 C9.95221546,39.8820713 9.70162354,38.8129934 9.27942003,37.8051445 C9.19166411,37.801257 9.01712732,37.7944537 8.9293714,37.7915381 M11.0277131,37.9810564 C10.7654204,38.448535 10.5713823,38.9548892 10.4865515,39.4855406 C10.2769124,40.7062331 10.3100646,41.9852391 10.670839,43.1758031 C10.8131986,43.5684462 10.9146054,44.0407843 11.3163326,44.2555717 C11.2217512,44.9388097 11.1310701,45.6230195 11.0784165,46.3120888 C11.1427708,46.3033418 11.2714795,46.2858478 11.3358339,46.2771008 C11.589351,45.4636297 11.7248851,44.6151707 11.7482867,43.7637959 C11.8204416,41.8093271 11.381662,39.8840151 11.3290084,37.9353776 C11.2285766,37.949956 11.1271698,37.9655062 11.0277131,37.9810564 M68.2358007,37.8896989 C68.1275684,38.1657153 68.0407875,38.4504788 68.0134857,38.7469049 C68.1821721,38.834375 68.3528086,38.921845 68.5244202,39.009315 C68.596575,39.5662074 68.6775055,40.1230998 68.7954885,40.6741608 C69.0977589,40.48853 69.144562,40.1483689 69.1835647,39.8276455 C69.1406618,39.7946013 69.0538809,39.7294847 69.010978,39.6974124 C68.8783691,39.0540219 68.7964635,38.3221895 68.2358007,37.8896989 M67.9228046,39.1531545 C67.8155473,39.5010908 67.8184725,39.8713805 67.8116471,40.2329232 C67.8633255,40.1989071 67.9657075,40.1308749 68.0173859,40.0968588 C68.0905159,39.7440631 68.0875907,39.3776609 68.107092,39.0190339 C68.0602888,39.0520781 67.9686326,39.1191384 67.9228046,39.1531545 M66.0818803,39.5526009 C66.1472097,40.3417748 66.2398409,41.1319205 66.4104774,41.906516 C66.4319289,42.0775685 66.5547872,42.2019703 66.6786205,42.3137375 C66.6815457,41.8841626 66.6074407,41.4594471 66.5684381,41.0327878 C66.6825208,41.0386192 66.7975786,41.0454224 66.9136114,41.0531975 C67.0384198,41.3573988 67.1622532,41.6616 67.2997375,41.9609418 C67.4606233,41.757817 67.6663622,41.5167886 67.5542297,41.2398002 C67.3026627,40.5225461 66.7332242,39.9316376 66.0818803,39.5526009 M68.9749006,42.1903076 C69.4263561,41.9891266 69.6564716,41.5420577 69.8563601,41.1202579 C69.9392407,41.128033 70.1050019,41.1435832 70.1878825,41.1513583 C70.0152958,41.8025239 69.5921173,42.3603882 69.4887603,43.0329354 C69.7452026,42.852164 69.9762932,42.6227982 70.0952512,42.327344 C70.3351174,41.7422668 70.4677264,41.1153984 70.5301306,40.4865862 C69.7198509,40.6576387 68.9846513,41.3233827 68.9749006,42.1903076 M67.8877022,42.3749665 C68.0047101,42.4206453 68.1236681,42.4663241 68.2426261,42.5129748 C68.2806537,42.9649032 68.2465264,43.4197472 68.2913794,43.8726475 C68.4444648,43.6889605 68.6365527,43.5140204 68.6833559,43.2691044 C68.8081643,42.5664287 68.6375278,41.8598654 68.5448966,41.1649648 C68.4308139,41.1319205 68.3186813,41.0998482 68.2065487,41.0697196 C67.9423059,41.4536158 67.8877022,41.9201225 67.8877022,42.3749665 M66.1452595,42.441055 C65.8049616,43.3011767 65.4139602,44.2497404 65.7357319,45.1778944 C65.7874104,45.1730349 65.8907674,45.1613723 65.9424458,45.1555409 C65.9677976,44.6919499 65.9326952,44.227387 65.8527398,43.7705991 C66.0058251,43.7414425 66.1589105,43.7132577 66.3129709,43.6860448 C66.4056021,44.1029852 66.4202281,44.5539417 66.6483935,44.927147 C66.7566258,44.8076047 66.9048358,44.7123596 66.9691902,44.5588011 C66.9740655,43.7812899 66.6649696,43.0183571 66.1452595,42.441055 M68.5780488,44.5967048 C68.4337391,44.7531789 68.4883427,44.9660226 68.5039438,45.1555409 C68.7282089,44.8008015 69.0831329,44.5617168 69.4809598,44.437315 C69.3795529,44.9747696 69.1718639,45.4869551 69.0880082,46.0282972 C69.6135687,45.2741114 69.9197394,44.3877486 70.0591738,43.4838919 C69.351276,43.4508477 68.9290725,44.0835474 68.5780488,44.5967048 M67.6946392,44.2468247 C67.1456771,45.0505769 66.6600943,45.9272208 66.4982334,46.8981379 C66.980891,46.5336795 67.2802362,46.0030281 67.5688557,45.4859832 C67.751193,45.4820956 67.9345053,45.4782081 68.1187928,45.4733486 C68.0466379,45.2206575 67.9393807,44.979629 67.8789266,44.7249941 C67.928655,44.603508 68.003735,44.4956283 68.0700395,44.3838611 C67.944256,44.3362385 67.8194476,44.2905597 67.6946392,44.2468247 M64.9751805,45.3489468 C64.9595795,46.3013981 64.9703052,47.2849497 65.3106032,48.1897784 C65.5787463,47.6717615 65.4354116,47.0779374 65.2823263,46.5492297 C65.3613066,46.5482579 65.5182922,46.5463141 65.5972725,46.5443703 C65.7025796,46.7620734 65.8069117,46.9797766 65.9112437,47.1984516 C66.0048501,47.1265318 66.1004065,47.054612 66.195963,46.9836641 C66.0945561,46.5375671 66.0155758,46.0525945 65.6860035,45.7095177 C65.5056164,45.4995896 65.2306478,45.4218385 64.9751805,45.3489468 M67.6605118,45.8076784 C67.6322349,46.1313175 67.5961575,46.4559284 67.5766562,46.7815112 C68.0154358,46.608515 67.9374305,46.0662009 68.0963663,45.7036863 C67.9501064,45.7377024 67.8048216,45.7717186 67.6605118,45.8076784 M11.6078772,46.6055993 C11.5015951,46.9457605 11.5464481,47.3160502 11.6264035,47.6581551 C12.0320309,49.0664222 12.9895455,50.2317171 13.4624525,51.6137433 C13.5765352,51.5991649 13.6906179,51.589446 13.8056756,51.5865304 C14.1137964,51.8343621 14.1498739,52.2571338 14.344887,52.5798009 C14.0679683,50.3065526 12.5995192,48.3919313 12.1899915,46.1507553 C11.9676765,46.2557193 11.692708,46.3470768 11.6078772,46.6055993 M68.0349371,47.4190704 C67.4157703,47.3899137 66.7966035,47.4035202 66.1774367,47.3928294 C65.9580469,47.3908856 65.7357319,47.3549257 65.5221925,47.4190704 C66.3500234,47.4239298 67.1807795,47.3811667 68.0095854,47.4307331 C67.7550932,47.7893601 67.5483793,48.1897784 67.5259528,48.6378192 C67.7697192,48.446357 67.973508,48.2131037 68.1870474,47.9905411 C68.3099057,47.8525329 68.5234451,47.9147338 68.685306,47.8739144 C68.5253952,48.1907502 68.3469582,48.4978672 68.1802219,48.8098435 C68.225075,48.8701006 68.3167312,48.9886711 68.3615842,49.0479563 C68.5487968,48.8778758 68.7204084,48.6864136 68.8227903,48.4521884 C69.1084846,47.8233762 69.3425004,47.1673511 69.4751094,46.4889726 C68.9271224,46.6804348 68.4425146,47.010877 68.0349371,47.4190704 M9.91906322,46.9603388 C9.86933486,47.7397938 9.89078631,48.5221644 9.96684145,49.2987037 C10.0965252,50.8566417 10.5577313,52.4456802 11.5903261,53.655682 C11.9403747,54.0492971 12.3050493,54.4633218 12.7955074,54.6868562 C12.7974576,54.4856752 12.8345101,54.2699159 12.7253027,54.0881726 C12.0174049,52.7323875 11.2890307,51.3678553 10.8795031,49.8866965 C10.7420188,49.392005 10.7215424,48.8720444 10.7839466,48.3647184 C11.0091868,48.8905103 11.1866488,49.4337963 11.397263,49.9654195 C11.944275,51.3872931 12.6209706,52.753769 13.2430627,54.1435703 C13.3191178,54.155233 13.4722031,54.1795302 13.5482583,54.1921647 C13.6252885,52.7965322 13.1221545,51.4524097 12.4834864,50.2356047 C11.8009403,48.9478518 10.98286,47.7349343 10.1160265,46.56478 C9.99804355,46.6678002 9.8995619,46.7941458 9.91906322,46.9603388 M7.71443937,47.4657211 C7.80122023,47.8214324 7.9133528,48.1703406 8.04791188,48.5114736 C8.72753277,50.2453236 9.57388991,51.9072537 10.4475489,53.550718 C10.5128783,53.5614088 10.6425621,53.5808466 10.7078915,53.5905655 C10.1277273,52.1356476 10.0926249,50.5378621 9.56998965,49.068366 C9.29697122,48.2442041 8.56567184,47.6309422 7.71443937,47.4657211 M66.6990969,47.7563159 C65.9872989,48.6125501 65.2267475,49.5795796 65.2618499,50.7545934 C65.5026912,50.5660469 65.722081,50.3522314 65.9073435,50.1092591 C65.8897923,49.7574353 66.048728,49.4425433 66.2154643,49.1441733 C66.3383226,49.1257075 66.4621559,49.1082134 66.5869644,49.0916913 C66.5508869,49.4872502 66.5118843,49.8847527 66.5265103,50.2841991 C67.1954054,49.6184552 67.0891233,48.6057468 67.0900983,47.7446532 C66.9584644,47.7475689 66.8278056,47.7514564 66.6990969,47.7563159 M64.508124,48.0478826 C64.2877591,49.0965508 63.9113837,50.136472 63.9172341,51.2181844 C64.0888457,50.8119348 64.1502748,50.3736129 64.2526568,49.9488974 C64.4457198,49.9858292 64.6387828,50.031508 64.8376963,50.0460863 C65.4744142,49.5572262 65.1497173,48.674751 64.8571976,48.0818987 C64.7401897,48.070236 64.6241568,48.0585733 64.508124,48.0478826 M66.3509984,51.6273497 C66.6396179,51.5564018 66.9262873,51.4737912 67.2110065,51.3834056 C67.0501206,51.8450528 66.8063542,52.2736559 66.6903213,52.7508534 C67.5659305,51.9888924 67.9803334,50.8673325 68.3313571,49.795339 C67.4050446,50.0169297 66.6717951,50.7468183 66.3509984,51.6273497 M62.3269017,53.2212476 C62.6018703,52.9510625 62.9782457,52.8587331 63.3419453,52.7722349 C63.4238508,52.1784108 63.4404269,51.5777834 63.4101999,50.9800716 C63.3429203,50.9577182 63.2103114,50.9139832 63.1430318,50.8926016 C62.8271105,51.6516469 62.3834555,52.3815356 62.3269017,53.2212476 M64.4944731,52.1929891 C64.2477814,52.552588 63.8753063,52.8723395 63.8655556,53.34079 C64.1005465,53.2251352 64.3374875,53.0939302 64.5022736,52.8849741 C64.7206884,52.6439456 64.8659732,52.2960093 65.218947,52.2240895 C65.2140717,52.5156562 65.2033459,52.8072229 65.2160218,53.0997615 C65.3115782,52.999657 65.4529628,52.9277372 65.5017161,52.7897289 C65.7113552,52.2474149 65.8225127,51.6701128 65.8673658,51.090867 C65.2920769,51.2852448 64.8415965,51.7099603 64.4944731,52.1929891 M65.4285861,53.6984451 C64.9917567,53.9997307 64.6582841,54.4516591 64.5841791,54.9852262 C64.923502,54.7344788 65.248199,54.4419402 65.6733277,54.3466951 C65.4519877,54.8268083 65.0960887,55.2447205 64.9839561,55.7714843 C65.2208971,55.6334761 65.4529628,55.4808895 65.6401754,55.2787366 C66.2456913,54.636318 66.744925,53.8840759 67.041345,53.0501952 C66.4553305,53.113368 65.900518,53.3524527 65.4285861,53.6984451 M15.2429227,53.8286783 C15.2214712,54.3943177 15.2087954,54.9735635 15.3794319,55.520737 C15.5461682,56.0922077 15.9166932,56.5732928 16.3037943,57.0164741 C16.8391055,57.6297361 17.3831922,58.2391105 17.8287973,58.9233203 C17.8912015,58.9242922 18.016985,58.9272079 18.0803643,58.9291517 C17.9779823,58.6958983 17.9029023,58.4509823 17.8619495,58.2002349 C18.0754889,58.4169662 18.2500257,58.6686854 18.4070113,58.9281798 C17.7585925,57.4236956 17.0594703,55.9260147 16.1087811,54.5848079 C15.8923165,54.260197 15.5958965,53.9977869 15.2429227,53.8286783 M62.4916879,55.9104645 C62.8232102,55.4478453 63.1225554,54.9026156 63.7046698,54.7199005 C63.4365266,55.3098371 63.0952536,55.8890829 63.0591762,56.5528831 C63.7817,55.8715889 64.2321804,54.916222 64.271183,53.9229515 C63.397524,54.2320122 62.5540921,54.924969 62.4916879,55.9104645 M60.5513068,56.1796777 C60.6926914,56.1757902 60.835051,56.1728745 60.9783857,56.1709307 C61.0261639,55.8978299 61.0749172,55.625701 61.1265957,55.354544 C61.2553044,55.3360781 61.3849881,55.3176122 61.515647,55.3010901 C61.4181404,55.6849862 61.3196587,56.0688824 61.2874815,56.4654131 C61.6677572,56.4168186 61.7750145,56.0115409 61.8764213,55.7053959 C62.0421825,55.179604 61.9290749,54.5974425 61.590727,54.16398 C61.2523792,54.8404147 60.8750287,55.4964398 60.5513068,56.1796777 M11.530847,54.4254181 C11.766813,54.653812 12.0213052,54.8617963 12.2767724,55.0678367 C12.3655034,54.9959169 12.4532593,54.9259409 12.5400402,54.8540211 C12.2094929,54.697547 11.8789455,54.5381572 11.530847,54.4254181 M13.3902976,55.1135155 C13.5989617,56.3769712 13.9607111,57.6501458 14.7046863,58.7114485 C15.4389109,59.7785826 16.461755,60.598857 17.4816738,61.3792838 C17.661086,61.5464487 17.913628,61.5357579 18.1408183,61.5590833 C17.0906724,60.2246797 15.9556958,58.9583083 14.9162756,57.6151578 C14.818769,57.4800652 14.75929,57.3197035 14.6910354,57.1719764 C14.8987244,57.2788842 15.1034883,57.3984265 15.2711996,57.5626758 C16.4578547,58.7153361 17.3256633,60.1527599 18.5425455,61.2772355 C18.6039746,61.1188176 18.6927056,60.9526245 18.6371269,60.7806002 C18.5035428,60.2489769 18.1564194,59.8057955 17.8434233,59.3674736 C16.936612,58.1846847 15.8962168,57.1058879 14.7865919,56.1106736 C14.3517125,55.7403839 13.9363345,55.319556 13.3902976,55.1135155 M59.6961741,56.2545132 C59.4914103,56.5470518 59.4290061,56.9066507 59.4056045,57.2555588 C59.5245625,57.429527 59.5957423,57.6277923 59.620119,57.8377203 C59.7849051,57.6112702 59.9877188,57.4110611 60.1203277,57.1642013 C60.2880391,56.7929397 60.2587871,56.3740555 60.2626874,55.9775248 C60.0725495,56.0591635 59.8073316,56.0523603 59.6961741,56.2545132 M11.2675793,56.3157422 C11.8350676,57.1612856 12.7867318,57.6472301 13.4068737,58.4470947 C13.8232268,59.0865977 14.1040458,59.8048236 14.5330748,60.4384953 C14.9094502,61.0216287 15.4213597,61.5143764 16.0122496,61.8788347 C16.3691237,62.0926503 16.7415989,62.3249318 17.1716029,62.3356226 C16.6460424,61.8253809 16.0015239,61.4482879 15.5237416,60.8845923 C16.0736788,61.088689 16.3954505,61.6310031 16.9336868,61.8545375 C17.188179,61.9711642 17.4728982,61.9896301 17.7498169,62.0022646 C17.5109258,61.5551957 17.0302184,61.3433239 16.640192,61.0546729 C16.1926368,60.7290901 15.6807272,60.4695957 15.3258033,60.0361332 C14.4423936,58.934983 13.8154263,57.6268204 12.7672305,56.6597909 C12.3752541,56.3021357 11.7736384,55.9852999 11.2675793,56.3157422 M62.3951563,57.8892305 C62.7949333,57.7191499 63.205436,57.5578163 63.6442157,57.525744 C63.2766159,57.8425798 62.804684,58.1079055 62.6906013,58.620091 C63.8216777,58.2148133 64.4564455,57.1360165 65.2462488,56.3079671 C64.108347,56.1378865 62.6671997,56.6568752 62.3951563,57.8892305 M60.3748199,57.9115839 C60.1700561,58.0690299 60.0823002,58.3158897 60.0101453,58.5540025 C60.2919393,58.532621 60.5864092,58.5083237 60.8340759,58.3576809 C61.4551929,58.0000258 61.9992796,57.4402177 62.167966,56.7258793 C61.5214973,57.0397995 60.9179316,57.4431334 60.3748199,57.9115839 M61.4990708,57.9417125 C61.2894317,58.251745 61.1304959,58.5948219 61.057366,58.9631678 C61.4054645,58.7172799 61.694084,58.3887814 61.8237678,57.9776724 C61.7428373,57.9689254 61.5800013,57.9514313 61.4990708,57.9417125 M57.7031395,58.5394242 C57.0079176,59.1983649 56.3156209,60.011836 56.3097705,61.0226006 C56.7036971,60.6455076 56.9737903,60.1683101 57.2009806,59.67945 C57.3053127,59.6415463 57.4106198,59.6046145 57.516902,59.5686546 C57.4203704,59.9739323 57.3209137,60.37921 57.2750856,60.7942066 C57.3940437,60.7456122 57.5149518,60.6989615 57.6368351,60.6561984 C58.0697643,59.9885107 58.2413759,59.1876741 58.2238247,58.4004441 C58.050263,58.4402915 57.8367236,58.3994722 57.7031395,58.5394242 M60.8174998,59.6153053 C60.8135996,59.6911126 60.804824,59.8436992 60.8009237,59.9204784 C61.1743739,59.7795545 61.5595249,59.670703 61.9593019,59.6415463 C61.5556247,60.0856996 60.9891114,60.4044792 60.776547,60.9963595 C61.7447874,60.6144072 62.3990566,59.7659481 63.0942785,59.0350876 C62.2830238,58.9097139 61.5039462,59.2168308 60.8174998,59.6153053 M58.3925111,60.2139889 C58.480267,60.2761898 58.568998,60.3393626 58.6596791,60.4025354 C58.8780939,60.1313783 59.1121097,59.8271771 59.5060363,59.8592494 C59.3022475,60.3636598 58.9697501,60.8097569 58.8147146,61.3355488 C59.709825,60.9526245 60.2880391,60.0711212 60.4635509,59.1371359 C59.6591216,59.2255778 59.0165532,59.7503979 58.3925111,60.2139889 M19.9222636,59.5997551 C19.9944185,60.4258607 20.165055,61.3608179 20.8768531,61.8885536 C21.572075,62.3919921 22.4223324,62.6087234 23.1819087,62.9935914 C23.4490767,63.1665877 23.7308708,62.9916476 23.9843879,62.8857117 C23.2803904,62.1529074 22.5237393,61.473557 21.7514871,60.8136444 C21.1898492,60.3432501 20.6126102,59.8689683 19.9222636,59.5997551 M54.0495679,62.506675 C54.2319052,62.3064659 54.3879157,62.0848752 54.5254,61.8525937 C54.6424079,61.8350997 54.7594158,61.8185776 54.8773987,61.8030274 C54.8861743,61.9769955 54.8969001,62.1519356 54.9095759,62.3268756 C55.1728437,62.1927549 55.4341613,62.0333651 55.6125984,61.7913647 C55.6906037,61.4191313 55.5375183,61.0439821 55.4322112,60.6902145 C54.5371008,60.7728251 54.0895456,61.7087542 54.0495679,62.506675 M59.8346335,61.3647055 C59.3188236,61.5095169 58.820565,61.719445 58.287204,61.7933085 C58.287204,61.8545375 58.2862289,61.9769955 58.2852538,62.0382245 C58.8117894,61.9954614 59.3324745,61.894385 59.8599852,61.8555094 C59.3870782,62.1733171 58.8595676,62.392964 58.3515583,62.6456552 C58.3837355,62.7564505 58.4178628,62.8672458 58.4529652,62.979985 C59.1072343,62.8118482 59.7956308,62.6680086 60.3445929,62.2481526 C60.6712399,61.9896301 61.0807676,61.7272201 61.1285458,61.2743198 C60.6965917,61.2529382 60.2539118,61.2441912 59.8346335,61.3647055 M55.8904921,62.1791484 C55.7227808,62.3589479 55.4682886,62.5212534 55.4517125,62.7885228 C55.7734842,62.9002901 56.0123754,62.6067796 56.2454161,62.4396147 C56.4706563,62.2345461 56.7505002,62.1062568 57.04302,62.0294775 C56.7719517,62.5484663 56.407277,63.0120573 56.1440093,63.5359055 C56.4540802,63.4377447 56.7085724,63.2307323 56.8333808,62.927503 C57.0907982,62.7632537 57.3745424,62.6262174 57.5812563,62.3968516 C57.665112,62.2374618 57.6465857,62.0450278 57.7070398,61.8788347 C57.8006461,61.7524892 57.9157039,61.6436376 58.0239362,61.5299266 C57.7713941,61.4016373 57.4905752,61.2733479 57.2019557,61.3569304 C56.6900461,61.482304 56.2814935,61.8457905 55.8904921,62.1791484 M18.7668106,61.6455814 C19.0603054,62.7574224 19.8442584,63.63601 20.6418622,64.4280996 C19.6716717,63.8371911 18.6439523,63.2822424 17.5031253,63.119937 C17.5021502,63.2054632 17.5011752,63.3765157 17.5011752,63.4630138 C18.9286715,64.3843646 20.2528109,65.4709364 21.7729386,66.2465039 C22.1151867,66.4136688 22.4671855,66.6449783 22.8679375,66.5497332 C22.7080267,66.228038 22.4740109,65.9568809 22.2409702,65.6876677 C22.6631737,65.9491058 23.0785517,66.2260942 23.5202566,66.4535162 C23.9502606,66.6595567 24.4416938,66.5147452 24.8726729,66.385484 C24.816119,66.2474757 24.8024681,66.0725357 24.6532831,65.9986722 C23.3037919,65.1327191 21.9504006,64.2619065 20.7071916,63.2462826 C20.9441326,63.3045959 21.1810736,63.3804032 21.3848624,63.5193834 C22.179541,64.0471191 22.8952394,64.6827345 23.689918,65.2104702 C24.1842764,65.5292498 24.7439642,65.9073146 25.364106,65.7488967 C24.118947,64.3678424 22.8113837,62.9129246 21.0328636,62.2238553 C20.3005892,61.9565859 19.5517386,61.6873726 18.7668106,61.6455814 M52.096511,64.0315689 C52.2554467,63.8546851 52.3597788,63.6428133 52.4611856,63.4309415 C52.6757001,63.4299696 52.852187,63.4999456 52.910691,63.7283395 C53.1086293,63.6262911 53.3055926,63.5184115 53.4967055,63.4027567 C53.5522843,62.971238 53.5873866,62.532916 53.5249824,62.1004254 C52.6201213,62.2335742 52.1725661,63.216154 52.096511,64.0315689 M56.7290488,63.6049096 C56.4716314,63.7720745 56.154735,63.8964763 56.035777,64.2045651 C56.3838755,64.1734646 56.762201,64.0354564 57.0888481,64.2298342 C56.8226551,64.3474328 56.5428112,64.4290715 56.2649174,64.511682 C56.259067,64.5806861 56.2473662,64.7186944 56.2405408,64.7876985 C57.3238389,64.6914815 58.2706279,64.0704444 59.0185033,63.3172305 C58.5875242,63.2103227 58.1448444,63.0830052 57.6972891,63.1500655 C57.33944,63.2103227 57.0352194,63.4241382 56.7290488,63.6049096 M53.208086,63.9683961 C52.7088523,64.2152559 52.4036567,64.7177225 52.2378955,65.2308799 C52.8921647,65.0676025 53.311443,64.4611438 53.9735127,64.319248 C53.7882502,64.8042206 53.3777475,65.1715946 53.2656149,65.6886396 C53.7073197,65.6196355 54.185102,65.5078682 54.4912727,65.1560444 C54.8598476,64.7157787 55.0070825,64.1423642 55.1104395,63.5903313 C54.465921,63.6321225 53.7970258,63.679745 53.208086,63.9683961 M51.178974,64.0179624 C51.1107194,64.1549988 51.0434399,64.293007 50.9781105,64.4319871 C50.9040055,64.4271277 50.7557955,64.4164369 50.6816905,64.4115775 C50.6709647,64.5097382 50.6612141,64.6088709 50.6524385,64.7099474 C50.7548204,64.6710718 50.8581774,64.6321963 50.9625094,64.5952645 C51.1555725,64.362983 51.4919702,64.3075853 51.6440804,64.0374002 C51.4880699,64.0267094 51.3330344,64.02185 51.178974,64.0179624 M31.1813488,65.4787116 C27.9860581,66.2290099 24.8609721,67.3330757 21.9747772,68.9007327 C20.9899607,69.4605407 19.9885681,70.0222926 19.1158842,70.7444061 C19.1821887,71.5364956 19.6004919,72.2391714 19.9076376,72.9573973 C21.3078322,75.8516827 22.963494,78.6137912 24.5704025,81.3963094 C25.0286834,81.2505261 25.3953082,80.9307746 25.8126363,80.7062682 C28.8099887,78.9947717 32.16129,77.9606818 35.5632947,77.4310023 C39.211016,76.8828569 42.9659945,76.8954915 46.5766633,77.687581 C49.0533305,78.2357264 51.4714938,79.1716555 53.5474089,80.6430954 C53.8272528,80.8316419 54.0710193,81.0746141 54.3762149,81.2252569 C54.6658095,81.2466385 54.925177,81.0522607 55.103614,80.8413608 C55.2245222,80.6090793 55.2293975,80.3379223 55.3152033,80.0930063 C55.5492191,79.377696 55.9792231,78.7488838 56.3946012,78.1278467 C56.5603624,77.8955653 56.6256918,77.6146894 56.7309989,77.3542231 C56.7446498,77.1821988 56.747575,76.9994836 56.8597076,76.8575878 C57.1278507,76.4639728 57.4193954,76.0820204 57.6144085,75.6446704 C57.5783311,75.5669193 57.5422537,75.49014 57.5071513,75.4143327 C58.1321685,74.8972877 58.2794034,74.0566038 58.6860059,73.3898879 C58.6889311,73.3247714 58.6938064,73.1945382 58.6967316,73.1303936 C58.747435,73.1226184 58.849817,73.1080401 58.9005204,73.1012369 C59.2339929,72.4500713 59.4046294,71.7230983 59.8385337,71.1234428 C57.9274047,68.9454396 55.41466,67.3554292 52.7312788,66.2921826 C49.9903688,65.2094983 47.0641962,64.6380276 44.1321732,64.4086618 C39.7931303,64.083079 35.4111844,64.4815535 31.1813488,65.4787116 M54.6268068,65.3125185 C54.628757,65.3999886 54.6326572,65.5739567 54.6336323,65.6614267 C54.955404,65.6011696 55.2791259,65.5613221 55.6057729,65.5379968 C55.3912584,65.6915552 55.1699185,65.8383105 54.9524788,65.9870095 C54.9485786,66.0725357 54.939803,66.2435882 54.9359027,66.3291144 C55.8378386,66.2358131 56.8743336,65.9481339 57.3150633,65.0753776 C56.4131274,65.0423334 55.5141167,65.1579882 54.6268068,65.3125185 M60.4850024,79.2795352 C61.1197702,79.3767241 61.6248543,79.8131022 62.242071,79.954998 C64.0498431,76.0295384 65.8741912,72.1118539 67.6858636,68.1893099 C67.914029,67.7140562 67.8574751,67.0541436 67.4001693,66.7334202 C66.7946534,66.3125923 66.033127,66.2620541 65.3281544,66.1444555 C63.7261212,70.5276749 62.0675342,74.8895126 60.4850024,79.2795352 M11.0969427,68.7481461 C11.2588037,69.1961869 11.5386476,69.5917458 11.7482867,70.018405 C13.5628842,73.3704501 15.3550553,76.7351298 17.1833037,80.0803717 C17.7595676,79.7479857 18.343632,79.3990775 19.0086269,79.2785633 C18.8584668,78.8402414 18.6498027,78.4262167 18.4596649,78.0053887 C16.7786514,74.3335921 15.0859371,70.666655 13.4195496,66.9880347 C12.3499023,66.9831957 11.5201213,67.8442894 11.0969427,68.7481461 M62.5696931,68.6383227 C62.2225697,69.0747008 62.0295066,69.6053522 61.7867153,70.1010156 C59.8521846,74.290829 57.8786514,78.4621765 55.9694725,82.6636526 C56.3750999,82.9085687 56.8616577,82.8210987 57.3082379,82.7734761 C58.3505833,82.6315803 59.3383249,82.2515717 60.3299669,81.9172419 C60.3494682,81.8511534 60.3894459,81.7170328 60.4089472,81.6499724 C59.8268329,81.3370242 59.1569627,80.9900598 58.9268472,80.3252877 C58.7854626,79.7868612 59.1335611,79.2970292 59.3197987,78.8159441 C60.094001,76.9120136 60.8077492,74.9847577 61.5653753,73.074024 C62.0168308,72.1672516 62.2674227,71.182728 62.611621,70.2341644 C62.7968835,69.6364526 63.0582011,69.0572068 63.1537576,68.4351979 C62.9519189,68.4750453 62.6935265,68.4371416 62.5696931,68.6383227 M15.5169162,68.5372462 C15.6680514,69.055263 15.9040173,69.5421794 16.1126814,70.0388147 C17.5148261,73.3179681 19.0466545,76.540752 20.4487992,79.8199055 C20.6769646,80.2310145 20.4487992,80.6965493 20.2303844,81.0600358 C19.9144631,81.5556992 19.3538002,81.7967277 18.817514,81.9736115 C18.9276965,82.1057884 19.0408041,82.2476842 19.2124157,82.3030818 C20.0850996,82.6558775 20.9850854,82.9542474 21.9104229,83.1379345 C22.431108,83.2448423 22.9586186,83.0504645 23.3661962,82.7316849 C21.2425028,78.4349637 19.1373356,74.1294954 17.0155924,69.8318023 C16.7240477,69.2165966 16.2072628,68.6752544 15.5169162,68.5372462 M17.7429915,80.9025898 C17.7498169,81.0950238 17.7566424,81.2874578 17.7644429,81.4818356 C18.2724522,81.426438 18.8106886,81.3496587 19.231917,81.0357386 C19.5488134,80.778188 19.5234617,80.3291753 19.542963,79.9618013 C18.8350652,80.0006768 18.2041976,80.3826292 17.7429915,80.9025898 M59.9925941,80.0346929 C59.990644,80.2028297 59.9925941,80.3709665 59.9935692,80.542019 C60.2227097,80.7354249 60.4557504,80.9463248 60.7541205,81.0240759 C61.1187952,81.1066865 61.5039462,81.0474013 61.8442441,80.8996741 C61.7165105,80.5808945 61.5595249,80.2378177 61.2387283,80.0725966 C60.8506521,79.8801626 60.4001716,79.9744358 59.9925941,80.0346929 M33.2114359,18.2798948 C33.3177181,18.0456695 33.6014622,18.1166174 33.7994006,18.1622962 C33.8540043,18.6424093 34.0256159,19.1234944 34.3912656,19.4568523 C35.2171463,20.2751828 36.6963212,20.2994801 37.5456035,19.5044749 C37.7727939,19.3081533 37.9336797,19.0165866 38.2466759,18.9446668 C38.7000815,19.4966998 39.2802456,20.0788613 40.0485975,20.0827488 C40.6346121,20.1274557 41.180649,19.8349171 41.6009023,19.4500491 C42.055283,19.0622654 42.395581,18.5695177 42.766106,18.1059266 C42.8879892,18.1068985 43.0108475,18.1088423 43.1337058,18.111758 C43.3599211,19.1983298 43.2448633,20.5171832 42.3409773,21.2781723 C41.5150965,21.928366 40.3489178,21.7845264 39.4294307,21.4278432 C39.0072272,21.2752566 38.7624857,20.7387739 38.2759278,20.7805651 C37.8917519,21.0157623 37.6635865,21.4424215 37.256009,21.6494339 C36.5091085,22.0362457 35.5652448,21.9487757 34.8495465,21.5308634 C34.1348232,21.1479392 33.4288756,20.5852154 33.2036354,19.7736881 C33.0817521,19.2877436 33.0739516,18.7619517 33.2114359,18.2798948 M37.9385551,21.9273941 C38.0926155,21.8331209 38.2827533,21.6358274 38.4514397,21.814655 C39.1398362,22.2957401 39.8116565,22.8011223 40.4912774,23.29387 C40.7165176,23.4250751 40.7555203,23.6991478 40.7555203,23.9362887 C40.7477197,31.838718 40.7233431,39.7411474 40.7486948,47.6435767 C43.2126862,45.4208666 45.3929334,42.8200917 46.8019035,39.8004326 C48.3152057,36.584452 48.8778187,32.8329605 47.9212791,29.3740076 C47.6619116,28.2922951 47.0505453,27.3485909 46.5825137,26.3514328 C45.8258626,24.817792 45.0263086,23.3045608 44.3008596,21.7563417 C46.9159862,23.9761361 49.04553,26.8276584 50.1736812,30.0786271 C51.371062,33.4695477 51.400314,37.2618586 50.2253596,40.66347 C49.1683883,43.780318 47.179254,46.538539 44.6996616,48.6912731 C43.9517861,49.3463263 43.1463817,49.9333472 42.3273264,50.4960709 C42.7163777,50.9829873 43.372597,51.0801762 43.9478858,51.1948591 C45.1374661,51.3892369 46.3455727,51.440747 47.5488039,51.4815664 C48.3610338,51.5175262 49.1781389,51.4504659 49.9854935,51.5641769 C48.3415325,52.4291581 46.4655058,52.7411345 44.6236064,52.788757 C43.2351127,52.8869178 41.8456439,52.727528 40.4581252,52.6857368 C40.0583482,53.3728623 39.6468704,54.0522127 39.2529438,54.7432258 C39.1798139,54.9589852 38.825865,55.0075796 38.7098321,54.8132018 C38.204748,54.1046947 37.803996,53.3262117 37.2833108,52.6303391 C36.8084538,52.5982668 36.3345718,52.7246124 35.8587396,52.7401626 C34.0831447,52.9170464 32.2695223,52.8801146 30.531955,52.4505397 C29.7002238,52.2454711 28.8840937,51.9743141 28.0991657,51.633181 C29.9800677,51.7731331 31.8921718,51.7809082 33.7477221,51.3999277 C34.2888836,51.2930199 34.8358956,51.1219674 35.2590741,50.7526496 C33.879356,49.9838854 32.6166457,49.0149121 31.4933699,47.9079305 C31.3490601,47.7621472 31.2174263,47.6037293 31.0887176,47.4453114 C32.6078701,47.3597852 34.1299479,47.4423957 35.6500755,47.4035202 C34.1123967,47.4132391 32.5727678,47.3646446 31.036064,47.4307331 C28.7056567,44.892159 27.0743715,41.7111664 26.4230275,38.3289927 C25.7707085,34.9866665 26.1178319,31.4266371 27.5862811,28.337002 C28.7339336,25.877151 30.5670573,23.7720394 32.7356038,22.1489848 C31.065316,24.9246998 29.8191818,28.0055879 29.4857093,31.2448939 C29.0937329,34.8719836 29.9088879,38.597234 31.702034,41.7714235 C32.9783952,44.060222 34.6954861,46.0817511 36.6212411,47.8525329 C36.6368422,46.2605787 36.5208093,44.6725121 36.5081335,43.0815298 C36.4155022,41.8841626 36.4769314,40.6819359 36.3784497,39.4855406 C36.3491977,36.8245085 36.1912371,34.1654203 36.1668604,31.5034163 C36.0225507,28.8035087 36.0235258,26.0987417 35.8850664,23.3978622 C36.545186,22.8749859 37.2618594,22.427917 37.9385551,21.9273941 M45.8326881,21.9691854 C49.1137846,22.5319091 52.1842669,24.2599277 54.3440377,26.787811 C56.2629673,29.0280151 57.4418219,31.8785655 57.6816881,34.8136702 C57.8815766,37.0373522 57.5442038,39.2969941 56.7875527,41.3943306 C56.5233099,42.1562915 56.199588,42.9056179 55.7335066,43.5684462 C54.8725234,44.8736931 53.8877069,46.1070203 52.7234783,47.1576322 C51.9112485,47.8709988 51.0229635,48.5163331 50.0157205,48.928414 C50.008895,48.8477472 49.9952441,48.6873855 49.9884186,48.6076906 C52.0263062,46.0399599 53.4079745,42.9386622 53.8340783,39.6847778 C54.3576887,35.909961 53.6049378,31.9864452 51.7961907,28.6363438 C50.3686943,25.9869744 48.2927792,23.7020634 45.8326881,21.9691854 M29.3560256,22.515387 C29.8572094,22.3433626 30.3710691,22.085812 30.9151558,22.2141014 C30.7903474,22.3812663 30.6489629,22.5357966 30.4900271,22.6708892 C28.2532261,24.5942575 26.3177204,26.9122127 25.0403842,29.580048 C24.1072462,31.5218822 23.5436581,33.6376845 23.4100741,35.787503 C23.1429061,39.8412519 24.4173171,43.8522378 26.385975,47.360757 C26.7087218,47.9963724 27.2762102,48.4725981 27.5580042,49.1334826 C26.207538,48.613522 25.0150325,47.746597 24.0029141,46.7241698 C22.7226527,45.4490514 21.7066341,43.929017 20.9217061,42.3079062 C20.5853084,41.617865 20.2596364,40.9151893 20.0743739,40.1678066 C19.64632,38.3552337 19.499085,36.4746285 19.6677714,34.6192924 C19.9037374,32.0204613 20.8739279,29.4877186 22.4730358,27.4185669 C24.2213289,25.1560093 26.68142,23.4999105 29.3560256,22.515387 M38.3432074,68.7005236 C39.5932418,67.8287391 40.6901908,66.7684082 41.7851898,65.7168244 C41.9353499,65.7245995 42.0864851,65.7323746 42.2376203,65.7430654 C42.173266,66.1347366 42.1674156,66.639147 41.7744641,66.8626815 C41.0802172,67.2854532 40.5166291,67.8773336 39.9169636,68.4177039 C38.8219647,69.4517937 37.6782125,70.4518675 36.3745495,71.2196598 C34.8817237,72.1001912 33.1909595,72.6833246 31.4524171,72.7785697 C30.2462607,72.8164734 29.0410793,72.7814854 27.8349229,72.7756541 C27.659411,73.2168917 27.496575,73.7281053 27.0499949,73.9720494 C26.6433924,74.2189092 26.1500091,74.1401862 25.6985536,74.1673991 C25.4343108,74.1703148 25.2256467,74.3530299 25.0121073,74.4842349 C24.9399524,74.4171746 24.8687726,74.352058 24.7975928,74.2869415 C24.9731046,73.687286 25.2129708,73.0234858 25.7960602,72.70665 C26.2016876,72.4490994 26.7018964,72.5987703 27.1436012,72.4908906 C27.6467352,72.2663843 27.9460804,71.7716928 28.1878967,71.3022704 C30.0327213,71.340174 31.9282493,71.4674915 33.7174951,70.9193461 C35.3536555,70.4032731 36.9420378,69.6967098 38.3432074,68.7005236 M50.6075855,69.642284 C51.6645568,68.880323 52.9301923,68.3885472 54.2377556,68.3137117 C53.1739587,69.1223234 51.8108167,69.3876491 50.7333689,70.167104 C49.8811614,70.8046632 49.5779159,71.88346 49.4404317,72.8883932 C49.7300262,72.9107466 50.0215709,72.9214374 50.3131156,72.9311563 C50.2780132,73.3306027 50.1171273,73.7349085 49.7748792,73.9701056 C49.4862597,74.2150217 49.0981835,74.2461221 48.7364341,74.2665318 C48.5306952,74.0886761 48.2362253,73.9117923 48.2801033,73.5959284 C48.3181309,73.100265 48.6535535,72.6969311 48.7832373,72.2265368 C48.0480376,72.4918625 47.2748104,72.6483366 46.4928076,72.6852684 C45.0155829,72.7552444 43.506181,72.6774933 42.0884353,72.2275087 C41.4058892,72.0000867 40.6589887,71.6492347 40.3586685,70.9514184 C40.1129519,70.3663413 40.4795766,69.7754328 40.7837972,69.2914321 C40.943708,69.2885164 41.1055689,69.2875445 41.2664548,69.2856007 C41.3473852,70.0300677 41.9587515,70.5597472 42.6149708,70.8347918 C44.1926273,71.5083108 45.9448206,71.6161905 47.6414352,71.5666242 C48.1162922,71.5267767 48.6672044,71.5462145 49.0357793,71.1934188 C49.5749907,70.6919241 50.0069449,70.0786621 50.6075855,69.642284 M44.9999818,69.1058013 C45.2086459,68.8414475 45.5723455,69.0008373 45.846339,69.0387409 C45.7176303,69.3439141 45.564545,69.6383964 45.4153599,69.9338507 C45.0701866,69.9824451 44.7240382,70.0174331 44.3759397,70.0242364 C44.468571,69.6529748 44.7640159,69.3895928 44.9999818,69.1058013 M51.0112627,70.6802614 C51.3544859,70.3984136 51.7337865,69.9970235 52.2252197,70.1029594 C52.4455846,70.2594335 52.4719113,70.5519721 52.5508917,70.7900849 C52.2476462,70.9941816 51.9424506,71.2886639 51.5475489,71.2546478 C51.3203586,71.1146958 51.1653231,70.8901894 51.0112627,70.6802614 M52.8658379,72.1934926 C53.3153433,71.5928652 53.8204274,70.9854346 54.5351506,70.692896 C54.1880272,71.524833 53.5435087,72.1964082 53.2285624,73.0458392 C53.0706018,73.4209884 53.0237986,73.8282099 53.015023,74.2325157 C53.2997422,74.2354313 53.5834864,74.2325157 53.8691807,74.2325157 C53.5942121,74.8409182 53.1437317,75.4055857 52.5099389,75.6611925 C52.2710478,75.7544938 52.0311816,75.5669193 51.9073482,75.376429 C51.6977091,75.0673683 51.7201356,74.6708376 51.801066,74.3248451 C51.9863285,73.5434464 52.3978063,72.837855 52.8658379,72.1934926 M28.1401185,75.0508462 C28.2932038,74.8030145 28.4277629,74.5386607 28.6374021,74.3316483 C29.0050019,74.2811101 29.435981,74.4822911 29.5481135,74.8535527 C29.4681581,75.1655291 29.288746,75.437658 29.140536,75.7214496 C28.7914625,75.7544938 28.4472642,75.6806303 28.1089164,75.5999635 C28.0952655,75.6981243 28.0816145,75.7982288 28.0679636,75.8993053 C28.3955857,75.9974661 28.7300333,76.0723015 29.0644809,76.1432494 C29.0401042,76.5096516 29.021578,76.8916039 28.8528916,77.2278775 C28.8216895,77.3406167 28.7475845,77.3862954 28.6325267,77.3629701 C28.3955857,77.3318697 28.1761959,77.2278775 27.9529058,77.1481826 C28.0016591,76.9149293 28.0533376,76.6826478 28.1089164,76.4523101 C27.6974386,76.3891373 27.2976616,76.2763982 26.9086103,76.1354743 C26.9573636,75.7039556 27.1504267,75.3142281 27.3678663,74.9458822 C27.6252837,74.9769826 27.8827011,75.0119706 28.1401185,75.0508462 M51.2920817,76.3211051 C51.4666185,76.3366553 51.6431054,76.3531774 51.8195923,76.3716433 C51.919049,76.6602944 51.9726776,76.96158 51.9863285,77.267725 C51.6704072,77.4173959 51.3457103,77.547629 51.0141879,77.6574525 C50.779197,77.4465526 50.570533,77.2026084 50.4642508,76.9013228 C50.7587207,76.7361017 51.0405147,76.5475552 51.2920817,76.3211051" id="Fill-2" fill="#4F4F4F"></path>
            </g>
        </g>
    </g>
</svg>