<?xml version="1.0" encoding="UTF-8"?>
<svg width="80px" height="104px" viewBox="0 0 80 104" version="1.1" xmlns="http://www.w3.org/2000/svg" xmlns:xlink="http://www.w3.org/1999/xlink">
    <title>Shahr-logo</title>
    <g id="Page-1" stroke="none" stroke-width="1" fill="none" fill-rule="evenodd">
        <g id="Artboard" transform="translate(-385.000000, -508.000000)" fill="#DF343A">
            <path d="M445.704992,508.274107 C451.320624,506.838932 457.351125,511.248992 457.949362,516.61511 C458.15565,518.3138 457.708692,520.025556 457.025648,521.584867 C454.740429,526.332487 447.969582,528.438427 443.158475,525.940482 C441.056624,524.784066 439.238993,523.004797 438.505523,520.766011 C437.302173,517.279341 438.280897,513.14804 441.081837,510.591294 C442.340197,509.395678 444.029471,508.755402 445.704992,508.274107 M423.305515,515.141556 C429.200798,514.079974 435.235953,519.154644 434.992895,524.824411 C434.820921,526.788447 434.227036,528.800441 432.913152,530.363387 C429.810733,534.088735 423.63112,535.196095 419.425773,532.536688 C417.508831,531.27892 415.910616,529.469652 415.341954,527.283271 C414.337624,523.699613 415.582718,519.575353 418.588831,517.170988 C419.921059,516.085428 421.613287,515.50559 423.305515,515.141556 M401.855953,525.204187 C407.24974,524.053089 413.186819,527.915469 413.932695,533.103026 C414.142185,535.161511 413.893559,537.354908 412.747121,539.158803 C410.649921,542.507649 406.317395,544.476919 402.240401,543.900282 C400.06493,543.615228 398.174918,542.403202 396.602593,541.019273 C392.81336,537.333148 393.271475,530.75731 397.263292,527.362767 C398.547856,526.259541 400.198451,525.6198 401.855953,525.204187 M438.554458,532.255935 C447.111832,529.67713 455.931536,528.016773 464.812299,527 C464.832652,532.579962 464.900496,538.157689 465,543.735416 C452.234044,545.062807 439.393461,547.32429 427.561489,552.419329 C427.495907,552.725478 427.430324,553.033862 427.367003,553.340011 C431.130077,554.765728 435.273076,554.341142 439.115301,555.442832 C441.191323,556.12664 443.310314,556.765754 445.178282,557.923312 C448.898387,560.124458 451.91744,563.637353 453.082093,567.802771 C453.563784,569.427373 453.620321,571.127954 453.683642,572.808423 C453.75827,576.225228 452.733828,579.604043 451.033208,582.558272 C449.045382,586.02424 446.238907,588.96953 443.127135,591.472356 C440.166881,593.872387 436.833485,595.76515 433.504612,597.610984 C418.619667,605.693772 401.934597,610.172043 385.111577,612 C385.143238,606.348529 384.946491,600.697058 385.014334,595.045587 C394.213964,594.319321 403.418116,592.98299 412.251388,590.270105 C419.239307,588.13153 425.980727,585.08121 431.980387,580.922497 C434.723541,578.991745 437.184012,576.524673 438.549935,573.440834 C437.190796,571.644162 435.092159,570.529064 432.89854,570.068723 C430.277505,569.487709 427.577319,569.521229 424.908794,569.400557 C424.931408,564.721166 425.331687,560.032836 424.926885,555.360149 C424.904271,554.846176 424.718831,554.363488 424.526606,553.894208 C420.917312,556.128875 417.179115,558.280858 414.1872,561.322239 C413.171803,562.327839 412.206159,563.516681 412.004889,564.969214 C411.828495,565.977049 412.298879,567.094382 413.239647,567.5726 C415.749871,568.973736 418.68751,569.273181 421.514338,569.445251 C422.67673,569.489944 423.834599,569.637432 425.001514,569.621789 C424.947238,574.701186 424.88844,579.782817 424.861303,584.862213 C420.232089,584.989589 415.541816,584.77953 411.050552,583.583984 C407.619913,582.67224 404.315917,581.13479 401.620253,578.824145 C398.942682,576.502327 397.228493,573.215133 396.579453,569.775981 C395.740451,565.360281 396.482211,560.654074 398.689398,556.718826 C400.840049,553.045035 403.800303,549.874044 407.165359,547.250546 C410.035155,545.002471 413.176326,543.109709 416.405695,541.411363 C423.499903,537.730867 430.870009,534.528591 438.554458,532.255935" id="Shahr-logo"></path>
        </g>
    </g>
</svg>