<?xml version="1.0" encoding="UTF-8"?>
<svg width="81px" height="87px" viewBox="0 0 81 87" version="1.1" xmlns="http://www.w3.org/2000/svg" xmlns:xlink="http://www.w3.org/1999/xlink">
    <title>Sia-logo</title>
    <g id="Page-1" stroke="none" stroke-width="1" fill="none" fill-rule="evenodd">
        <g id="Artboard" transform="translate(-793.000000, -263.000000)">
            <g id="Sia-logo" transform="translate(793.000000, 263.000000)">
                <path d="M36.8324925,2.20009923 C38.1734966,1.47126777 39.4795687,0.678299145 40.8477422,0 C47.3878057,3.52365716 53.9628014,6.98706426 60.5280936,10.4660198 C47.3606363,17.4064388 34.1951197,24.3468578 21.0179591,31.2697849 C20.7753751,31.446648 20.2882665,31.4952368 20.3348426,31.8917211 C20.3212579,39.152826 20.3193173,46.4139309 20.3367833,53.6750358 C26.7021864,57.1228944 33.0384794,60.6271161 39.3922385,64.0963538 C32.5319641,67.6919224 25.6600457,71.2641683 18.801712,74.8655675 C12.5294612,71.8258544 6.30766778,68.6695283 0.0218322358,65.660912 C-0.0130998543,54.7362144 0.0160102208,43.8095731 0.00630686239,32.8848754 C0.0295949225,29.4797749 -0.0402692578,26.0707872 0.0392982808,22.6695737 C2.35451959,21.3032577 4.75707112,20.047724 7.1014025,18.7144483 C17.0162941,13.2161438 26.9176009,7.69646021 36.8324925,2.20009923 M49.1751644,19.0234729 C53.5164469,16.7572929 57.8538481,14.4872259 62.1951306,12.2229895 C67.3922493,14.7340568 72.548614,17.3325839 77.7360294,19.857256 C78.8014581,20.4267164 79.936751,20.9028862 80.9769511,21.4917821 C81.0235272,35.8040884 80.9827731,50.1222253 80.9963578,64.4384187 C67.4698762,71.9016529 53.9860894,79.4504032 40.4673706,86.9291858 C40.1374564,87.1235409 39.8172456,86.8708793 39.5261448,86.7328872 C33.1898518,83.3452786 26.8205674,80.01792 20.4997997,76.6031017 C33.8865529,69.540239 47.2771875,62.487094 60.673644,55.4456103 C60.667822,48.1728441 60.685288,40.9020215 60.6658813,33.6311989 C60.7182795,33.3513276 60.3806026,33.2988517 60.2137048,33.1783516 C54.0811823,29.8490495 47.989414,26.4458924 41.8433068,23.1438 C41.800612,23.0796629 41.7171631,22.9533321 41.6744683,22.8891949 C44.2148076,21.6880807 46.6658759,20.2945549 49.1751644,19.0234729" id="Fill-1" fill="#19499E"></path>
                <path d="M38.2316934,26.2991268 C38.4437815,26.1243167 38.7208335,26.1086034 38.9806892,26.0869976 C40.5742159,25.9593273 42.1868496,25.955399 43.7708227,26.1891339 C43.8453402,26.2205604 43.994375,26.2834135 44.0688925,26.3168042 C45.9643103,26.6251772 47.8692816,27.2654929 49.4704511,28.3614936 C49.5831826,28.390956 49.8086456,28.4498807 49.9213771,28.4793431 C49.9958946,28.7464687 50.2614823,28.7955727 50.4773918,28.8996731 C50.605409,29.1059098 50.8289613,29.1982252 51.023853,29.3200031 C54.1879779,31.7103844 56.5018398,35.2380136 57.4973163,39.1427614 C58.3418472,42.786276 58.1488662,46.7263787 56.7158386,50.1891907 C56.616482,50.4641729 56.4961077,50.7312985 56.3375193,50.97289 C55.3114715,53.5086191 53.4580892,55.5886633 51.4403864,57.3387288 C50.4773918,58.0674317 49.4628083,58.71364 48.4061893,59.2891385 C46.8910015,59.9117769 45.3700815,60.5992325 43.7230551,60.7151178 C43.4995028,60.840824 43.2549328,60.9233187 42.9988985,60.9292112 C41.7607627,61.0234908 40.5188055,61.0175983 39.2806696,60.9468886 C38.9864213,60.9193904 38.6654231,60.9292112 38.4208531,60.7347594 C37.7521069,60.6228024 37.0757178,60.5481643 36.3993288,60.4892396 C36.4031502,60.4342431 36.4069716,60.3262144 36.4088823,60.2731821 C36.0668664,60.2162215 35.7248505,60.1572967 35.3885667,60.0806945 C35.128711,59.801784 34.7370168,59.7939274 34.400733,59.6917911 C34.2001092,59.467877 33.9058608,59.393239 33.6440945,59.2793177 C31.6684271,58.3463423 29.9659903,56.9262555 28.4355169,55.3588567 C27.8145382,54.6262255 27.2260416,53.8700243 26.7120624,53.0509701 C25.412784,51.0082449 24.5892708,48.6787525 24.1536304,46.2883712 C23.9434531,44.3222482 23.9415424,42.3305912 24.1937552,40.3683965 C24.3638078,39.7261166 24.5434139,39.0858008 24.6121993,38.419951 C24.9599473,37.7992768 25.065036,37.0686097 25.4223375,36.4479355 C26.1445834,34.6330527 27.2355951,32.9949443 28.511945,31.5434309 C29.3813151,30.5259966 30.4665946,29.7462256 31.4907317,28.9075297 C33.0326694,28.0374074 34.5478572,26.994439 36.3152579,26.6880302 C36.8865582,26.3285892 37.5935185,26.4110839 38.2316934,26.2991268" id="Fill-2" fill="#FCB913"></path>
            </g>
        </g>
    </g>
</svg>