<?xml version="1.0" encoding="UTF-8"?>
<svg width="86px" height="87px" viewBox="0 0 86 87" version="1.1" xmlns="http://www.w3.org/2000/svg" xmlns:xlink="http://www.w3.org/1999/xlink">
    <title>Tejarat-logo</title>
    <g id="Page-1" stroke="none" stroke-width="1" fill="none" fill-rule="evenodd">
        <g id="Artboard" transform="translate(-251.000000, -395.000000)" fill="#2E428D">
            <path d="M291.348889,395 L292.218326,395 C292.494965,403.499493 292.769723,412.000878 293.080236,420.498479 C293.573294,420.577914 293.791594,419.893264 294.117163,419.603896 C294.474723,419.017593 295.298995,418.650681 295.276412,417.892271 C295.272649,410.260883 295.270767,402.631387 295.276412,395 L296.072456,395 C297.290045,395.153195 298.515161,395.221282 299.73275,395.368803 C299.478693,401.175088 299.171944,406.979481 298.908478,412.785766 C298.771099,414.448217 298.827556,416.125799 298.614902,417.782576 C299.503158,417.353251 300.493037,417.215186 301.464097,417.389186 C302.19992,410.264666 302.918805,403.138255 303.635809,396.011844 C304.981367,396.3693 306.309988,396.785385 307.653664,397.15608 C306.580981,404.619142 305.431141,412.072747 304.333993,419.532026 C305.22225,419.433679 306.129325,419.327766 307.008172,419.569852 C308.374431,412.54368 309.742572,405.517508 311.155878,398.500793 C312.510845,399.200573 313.854522,399.92494 315.196316,400.651198 C313.634339,407.02109 312.062953,413.390982 310.497213,419.760873 C310.348543,420.396349 310.134007,421.018586 310.073786,421.671084 C310.111424,421.731606 310.1867,421.850758 310.224338,421.911279 C310.854774,422.221452 311.545431,422.404908 312.145757,422.783167 C314.170681,415.983951 316.167376,409.175278 318.233701,402.38741 C319.357195,403.227146 320.459988,404.095252 321.592891,404.921749 C318.207354,414.96265 314.723959,424.969508 311.317721,435.002844 C311.193516,435.469994 311.355359,435.948493 311.394879,436.417535 C311.547313,437.276184 311.543549,438.157529 311.711038,439.014287 C311.765613,439.055895 311.874764,439.142895 311.929339,439.186395 C312.349002,438.437441 312.608704,437.614726 312.934273,436.824164 C316.814749,427.08587 320.697107,417.349468 324.575701,407.611175 C325.578754,408.63815 326.53664,409.710516 327.541575,410.735599 C323.113466,420.436067 318.625136,430.111947 314.172562,439.801067 C314.582817,440.336304 315.158678,441.01528 314.81429,441.732082 C314.266657,442.611536 313.192093,443.046534 312.746083,444.009205 C312.499554,444.70142 312.73291,445.439026 312.932391,446.114219 C313.109289,445.836199 313.284306,445.556286 313.442386,445.266918 C318.864137,434.730497 324.29718,424.197858 329.715168,413.659546 C330.543204,414.917259 331.241388,416.256298 332.046841,417.529142 C326.152733,427.759172 320.228514,437.972182 314.306177,448.185191 C314.63551,448.448081 314.915913,448.828232 315.33934,448.937927 C315.627271,449.002231 315.78535,448.726102 315.930256,448.53319 C321.850711,439.38309 327.788103,430.240555 333.727377,421.101804 C334.197852,422.404908 334.777477,423.69099 335.091754,425.039486 C334.638216,425.820592 334.049182,426.512807 333.542951,427.25987 C328.267988,434.632149 322.99867,442.008211 317.723706,449.380491 C317.183601,450.133228 316.410141,450.906769 316.669843,451.929961 C316.705599,452.508698 317.448949,452.372524 317.661604,451.981026 C323.826705,444.156726 329.907122,436.260557 336.10798,428.466518 C336.377091,429.990904 336.66314,431.51529 336.937897,433.039676 C329.444175,441.6848 321.937279,450.314792 314.443556,458.959915 C314.247838,459.239827 313.839466,459.648348 314.230901,459.950955 C314.513186,459.998238 314.831227,460.000129 315.021299,459.742913 C322.347533,452.200416 329.664357,444.644681 336.994354,437.104076 C336.990591,438.26155 336.998118,439.417133 337,440.574608 C336.966126,440.833715 337.054575,441.162801 336.836275,441.359496 C329.901476,447.943105 322.953504,454.521039 316.020588,461.104647 C315.456018,461.989775 314.524478,462.485295 313.835703,463.255053 C311.204807,465.836675 308.590849,468.435318 305.982537,471.039636 C306.26294,471.03207 306.547107,471.026396 306.831274,471.024505 C314.232783,464.446571 321.664403,457.904571 329.077204,451.341767 C331.561311,449.180013 333.97767,446.933151 336.508824,444.828137 C336.275469,446.180415 336.017649,447.530802 335.765474,448.881188 C335.667615,449.482621 335.040943,449.74362 334.634453,450.118097 C325.887385,457.106443 317.09327,464.03805 308.374431,471.06044 C308.711291,471.003701 309.098962,471.092592 309.407594,470.909136 C317.768872,464.891026 326.06052,458.765112 334.448145,452.784827 C334.092466,453.790998 333.661511,454.768799 333.285131,455.769296 C333.100705,456.192946 332.980263,456.697923 332.553072,456.949466 C328.294334,459.780739 324.026187,462.600664 319.761803,465.426263 C316.961537,467.31567 314.10105,469.114294 311.332777,471.050983 C311.658345,471.003701 311.985796,470.933723 312.26808,470.755941 C315.725129,468.677404 319.225462,466.670737 322.690038,464.60544 C325.539234,462.982706 328.313153,461.221908 331.194341,459.655913 C329.769743,462.343447 327.869025,464.756744 325.781999,466.954432 C325.153444,467.646647 324.366811,468.183776 323.785304,468.919491 C324.156038,469.617379 324.897506,470.010769 325.320933,470.653811 C325.396209,474.430733 325.330343,478.217111 325.352926,481.997816 C304.757421,482.001599 284.160034,482 263.564529,481.997816 C263.570174,478.410024 263.543828,474.822232 263.568293,471.232548 C264.065114,470.774854 264.552526,470.303921 265.04182,469.83677 C262.856935,467.788494 260.779318,465.617284 258.929411,463.258836 C258.242518,462.364252 257.585735,461.44319 257.056921,460.444584 C263.754601,463.87729 270.410878,467.400778 277.09162,470.865636 C277.334385,470.960201 277.582796,471.03207 277.838734,471.081244 C277.008817,470.443877 276.075395,469.961596 275.196548,469.39988 C268.758571,465.469763 262.324357,461.533972 255.884498,457.605746 C255.609741,457.441203 255.348157,457.23316 255.227715,456.922987 C254.730894,455.827926 254.245364,454.725299 253.780535,453.615107 C257.34297,455.890339 260.830129,458.286613 264.369982,460.597779 C269.464283,463.998333 274.584931,467.357278 279.673586,470.763506 C279.957753,470.971549 280.307786,471.028288 280.64841,471.079353 C279.874949,470.396594 279.011158,469.831096 278.190649,469.208859 C269.650591,462.927859 261.114296,456.644967 252.574237,450.363966 C252.169629,448.792297 251.736792,447.22252 251.480854,445.616808 C261.68263,454.006606 271.848649,462.445578 282.033488,470.85618 C282.330828,471.098266 282.746727,471.003701 283.098643,471.064222 C276.165726,464.609222 269.170707,458.222309 262.211443,451.793787 C258.473991,448.368647 254.776059,444.898115 251.006615,441.505126 C251.006615,440.205804 250.982151,438.906483 251.027316,437.609052 C252.647631,439.099395 254.13245,440.729694 255.713245,442.261645 C265.246947,451.859983 274.799467,461.439407 284.327523,471.041527 C284.459256,471.035853 284.722722,471.024505 284.854455,471.018831 C275.621857,460.890931 266.391141,450.76303 257.158544,440.63702 C255.199487,438.452571 253.174563,436.32297 251.247498,434.113934 C251.405578,432.519569 251.736792,430.936553 252.030368,429.361102 C263.293535,443.250794 274.560466,457.138595 285.817987,471.033962 C285.977948,471.033962 286.301635,471.033962 286.461597,471.033962 C275.230422,455.965991 263.971019,440.916933 252.722907,425.860309 C253.238548,424.540183 253.731605,423.212492 254.237836,421.890475 C258.031745,427.397935 261.708976,432.988611 265.457719,438.528223 C272.740669,449.367252 280.019855,460.208172 287.306569,471.045309 C287.449594,471.041527 287.735642,471.035853 287.878667,471.03207 C277.144313,453.507303 266.417488,435.976862 255.677489,418.453986 C256.499879,417.073339 257.318505,415.688909 258.148423,414.312044 C264.136626,425.294811 270.10601,436.290818 276.067867,447.288715 C276.46683,446.946391 276.916604,446.674044 277.404016,446.475457 C275.866504,443.481533 274.436261,440.430869 272.932623,437.418031 C272.381227,437.204315 271.784665,437.009511 271.385702,436.544252 C270.956629,436.107362 270.845597,435.485125 270.71951,434.912061 C270.572721,434.189586 269.962986,433.690283 269.735276,433.003742 C269.646827,432.090245 270.11542,431.0784 269.528267,430.253794 C266.389259,424.02575 263.34811,417.746641 260.261796,411.492118 C261.221564,410.383818 262.113584,409.216887 263.107227,408.136956 C263.914562,410.020689 264.721897,411.904421 265.521704,413.790046 C265.777642,413.268047 266.022289,412.628789 266.611324,412.409398 C267.019696,412.33942 267.554155,412.299703 267.830794,412.677962 C268.513924,413.508242 269.091667,414.419848 269.765387,415.257693 C268.487577,411.968726 267.237996,408.670302 265.965832,405.381335 C267.096854,404.490533 268.210938,403.578928 269.353251,402.701365 C270.728919,406.735504 272.117761,410.763969 273.465201,414.807564 C273.664682,414.370674 273.824643,413.909197 274.105046,413.515807 C274.451316,413.060004 275.036586,412.92194 275.539053,412.713897 C274.468253,408.747845 273.408744,404.778011 272.330415,400.81385 C273.730548,400.0857 275.126918,399.346203 276.547751,398.655879 C277.492465,403.418167 278.427769,408.182347 279.353663,412.948418 C279.481632,413.861915 280.456456,414.453891 280.369889,415.431692 C280.368007,415.915864 279.90506,416.190103 279.60772,416.500276 C279.455286,416.437863 279.1523,416.314928 279.001748,416.252515 C279.135363,417.476185 279.137245,418.709312 279.263332,419.93109 C279.579491,420.698957 280.558079,420.76137 281.269437,420.882413 C282.302599,420.969413 283.281187,421.41765 284.054647,422.106083 C284.577815,422.522168 285.001243,423.091449 285.629797,423.360013 C286.011823,423.259775 286.369383,423.076319 286.757055,422.994993 C287.229411,423.081993 287.63402,423.363796 288.059329,423.571839 C289.004042,423.327861 289.875362,422.892863 290.7655,422.503255 C291.318778,422.206322 291.482504,422.989319 291.738442,423.308948 C291.898403,423.104688 292.159987,422.921232 292.096003,422.622407 C292.06401,421.404411 291.612355,420.235589 291.659402,419.010028 C291.608591,417.871467 291.811836,416.744253 292.127995,415.654865 C291.665048,415.825082 291.087305,416.545667 290.611184,416.086081 C289.931819,415.221758 289.510273,414.143718 289.544147,413.031635 C289.19976,412.986244 288.855372,412.940853 288.510985,412.899244 C289.425588,411.501575 288.877955,409.791842 288.749986,408.25989 C288.443236,403.943948 288.164715,399.626115 287.859848,395.312064 C289.024743,395.223173 290.187757,395.126717 291.348889,395 M266.070703,413.930561 C265.837725,415.325446 266.234934,416.710778 266.475551,418.077001 C266.630233,419.108834 267.359722,419.919015 267.64808,420.90881 C268.09494,421.959751 267.995637,423.182665 268.629643,424.159084 C269.135703,425.024678 269.867101,425.716388 270.524023,426.45969 C270.921232,426.901085 270.938418,427.539293 270.934599,428.101069 C270.938418,429.616335 270.271948,431.015042 270.065705,432.492093 C269.886198,433.562142 271.184764,434.007359 271.222957,435.008619 C271.293615,435.371671 271.358543,435.778672 271.673636,436.019433 C272.282817,436.537261 273.136433,436.491401 273.854464,436.755092 C274.872311,437.099036 275.945539,437.674188 276.401947,438.700289 C276.516526,439.41875 276.340838,440.160141 276.4917,440.872871 C276.722769,441.329552 277.034043,441.748018 277.192544,442.242916 C277.477083,443.098955 277.347227,444.018051 277.536283,444.891288 C277.637494,445.244786 277.813183,445.697646 278.240946,445.733951 C279.079285,445.470261 279.186226,444.178558 280.158241,444.151807 C280.748325,444.075375 280.652842,444.927593 281.137895,445.068992 C281.880752,445.269626 282.77829,445.101476 283.364555,445.699557 C283.750306,446.022482 283.83815,446.542221 283.968007,447.002724 C284.454969,448.879132 285.447991,450.621783 286.800028,452.010936 C287.227791,452.486726 287.896171,452.56698 288.436604,452.865065 C289.146996,453.189901 289.654965,453.881612 290.462749,454.003903 C292.154705,454.447209 293.376886,456.251006 295.255988,456.000691 C296.841003,455.530634 298.08419,454.110908 299.814339,454.080335 C300.58584,454.007725 301.315329,454.407082 301.798472,454.989877 C302.621534,455.899419 302.862151,457.177745 303.666116,458.09493 C303.935378,458.436964 304.376509,458.479002 304.781356,458.465626 C306.773128,458.442696 308.736255,458.8325 310.691744,459.174533 C311.640843,459.317844 312.484911,459.816563 313.426372,460 C313.926702,458.328048 313.875141,456.409603 315.072496,455.018539 C315.758063,454.107086 316.911496,453.787982 318,453.728747 C317.453838,453.501362 316.766362,453.476522 316.378701,452.983535 C315.931842,452.087368 316.573486,450.791845 315.687406,450.092491 C314.862434,449.530715 313.968715,449.039639 313.317522,448.263853 C312.122076,447.021832 311.785977,445.147335 312.169818,443.513599 C312.689245,442.6824 313.77393,442.439728 314.32773,441.637192 C314.532063,441.312355 314.490051,440.746758 314.083294,440.603448 C313.195304,440.244217 312.053329,440.63402 311.306653,439.928934 C310.577164,439.009839 311.035482,437.763996 310.770039,436.709233 C310.586712,435.946823 310.684105,435.165305 310.70893,434.393341 C310.676466,433.453226 309.439009,433.086352 309.534492,432.102289 C309.534492,430.275562 311.421232,429.226532 311.76879,427.510631 C311.782158,427.002358 311.562547,426.520836 311.531993,426.014473 C311.426961,425.297923 311.631295,424.596658 311.810802,423.912591 C311.961665,423.547628 311.65612,423.203683 311.339117,423.071838 C310.622996,422.72025 309.828579,422.43363 309.372171,421.732366 C309.081903,421.717079 308.782087,421.768671 308.501367,421.686506 C307.943747,421.277595 307.498797,420.711997 306.868611,420.402447 C306.011175,420.308818 305.132733,420.64703 304.284845,420.377607 C303.018743,420.005001 302.092559,419.00374 301.237033,418.055982 C300.713787,418.071269 300.192451,418.071269 299.671114,418.080823 C298.708647,418.837501 297.354701,418.994186 296.277654,418.38464 C295.448863,419.353417 294.585698,420.297353 293.659515,421.172501 C293.415079,421.462943 293.023599,421.371224 292.693228,421.382689 C292.880375,421.8623 293.033147,422.391592 292.888013,422.905598 C292.565281,423.526609 291.990475,423.977558 291.385114,424.308127 C291.165503,424.042526 290.964989,423.763548 290.787391,423.469285 C289.796279,423.400496 288.923566,423.943164 287.972557,424.109404 C287.516149,424.250803 287.096024,423.962272 286.658713,423.880107 C285.997972,424.013863 285.220741,424.296662 284.645935,423.776924 C283.824782,423.014514 283.015088,422.091597 281.840649,421.917714 C280.681487,421.713258 279.367643,421.514534 278.563678,420.557222 C277.887659,419.756596 278.504479,418.638777 278.084354,417.744522 C277.408336,417.679554 276.472604,418.004391 276.025744,417.320324 C275.691554,416.221612 276.079215,415.054112 275.909255,413.932471 C275.88443,413.697443 275.71256,413.250315 275.395557,413.477701 C274.526664,413.663048 274.310872,414.629914 273.676866,415.124812 C272.844256,415.806968 271.858873,416.332439 270.800923,416.559824 C270.197472,416.685937 269.408783,416.6439 269.059316,416.051551 C268.352743,414.945197 267.762659,413.64203 266.548118,413 C266.324688,413.269423 266.108897,413.569419 266.070703,413.930561 M280.380829,445 C280.053959,445.598267 279.632068,446.235192 278.864302,446.299621 C278.812991,446.562859 278.889008,447.043313 278.48232,447.050677 C277.908396,447.096697 277.180539,447.225555 277,447.855116 C277.066514,448.582241 277.83618,448.972496 278.003417,449.659123 C278.090835,450.056741 278.166852,450.481971 278.495623,450.77098 C279.844914,452.168165 281.637001,453.05176 283.354971,453.94824 C283.425286,455.02144 284.236761,455.835084 284.478114,456.8549 C284.633947,457.32431 284.139841,457.681429 284.164546,458.136113 C284.280471,458.476665 284.637748,458.662588 284.894303,458.900054 C284.97222,459.395236 285.133755,459.873849 285.378908,460.315647 C285.329497,459.748674 285.354203,459.043638 285.924326,458.717813 C286.464042,458.607363 286.87263,459.06941 287.233708,459.38235 C287.653699,459.825988 288.183913,460.253059 288.334046,460.862371 C288.142104,461.263671 287.866545,461.61895 287.634695,462 C289.83917,461.782783 292.055048,461.845371 294.265225,461.878506 C295.116609,461.294965 295.865371,460.549432 296.464,459.713698 C296.731958,459.235084 297.338188,459.358419 297.805689,459.268219 C297.843697,458.371738 298.740691,457.872875 298.917429,457.027937 C299.054259,456.494099 299.409635,455.997076 299.943651,455.779859 C300.319932,455.643638 300.650603,455.897672 300.96227,456.063346 C300.954669,457.061072 300.969872,458.060639 300.964171,459.060206 C300.988876,459.40628 300.82164,459.721061 300.692412,460.03216 C301.241631,460.516297 301.996093,460.674607 302.571918,461.123768 C302.925394,461.359394 303.256065,461.725717 303.733068,461.639199 C307.408461,461.525068 311.085755,461.607905 314.759247,461.493774 C315.504208,461.609746 316.167451,460.994911 315.962207,460.262263 C315.241952,460.242014 314.479887,460.361668 313.816644,460.021115 C313.204712,459.71738 312.492058,459.848078 311.857321,459.652951 C309.668049,458.710449 307.214619,458.901895 304.886617,458.710449 C303.683658,458.640498 302.921593,457.600433 302.429387,456.650568 C301.97899,455.812994 301.614111,454.671684 300.515674,454.472875 C299.215794,454.476557 298.067946,455.168706 297.024621,455.846129 C295.865371,456.378127 294.47047,456.330265 293.292215,455.879264 C292.589064,455.409854 292.047447,454.673525 291.196063,454.430536 C290.745666,454.320087 290.167941,454.511532 289.861975,454.08262 C289.061903,453.239524 287.93876,452.838224 286.910638,452.335679 C286.091562,451.654575 285.43592,450.802274 284.873399,449.914997 C284.094231,448.692691 283.702746,447.295506 283.193436,445.957228 C282.642317,445.833893 282.072194,445.854142 281.517275,445.762101 C281.040272,445.677423 280.703899,445.316622 280.380829,445 M279,453 C282.006731,458.659085 285.011593,464.320036 288.003366,469.984717 C288.261406,470.38947 288.377337,471.072141 289,470.993802 C286.36537,465.379482 283.674645,459.78941 281.004488,454.190012 C280.480927,453.615523 279.665669,453.389832 279,453 M298.728847,459.429224 C298.163225,463.287403 297.549634,467.139941 297,471 C297.083944,470.951115 297.249833,470.851464 297.333777,470.800698 C298.249167,466.20736 299.11459,461.60086 300,457 C299.28048,457.629868 298.812791,458.506044 298.728847,459.429224 M286.128034,459 C285.911481,459.802308 285.979046,460.675887 286.259698,461.443577 C287.364984,464.493976 288.442552,467.558629 289.539175,470.615137 C289.61367,470.857458 289.767855,470.985746 290,471 C289.180564,468.232649 288.354198,465.465298 287.493184,462.714237 C287.117248,462.561514 286.83313,462.245885 286.68241,461.816223 C286.801947,461.335652 286.931879,460.834719 286.872976,460.327677 C286.78289,459.788054 286.436405,459.384863 286.128034,459 M296.387727,460.711394 C296.264993,464.142243 296.149233,467.573092 296,471 C296.09205,470.994088 296.276151,470.978323 296.369596,470.972411 C296.538354,467.311 296.845188,463.663382 297,460 C296.747559,460.118237 296.352859,460.218739 296.387727,460.711394 M300.404523,462 C299.613065,465.00296 298.729271,467.984609 298,471 C298.09799,470.952052 298.29397,470.859708 298.39196,470.81176 C299.28706,468.005919 300.104899,465.173441 301,462.365825 C300.802136,462.243291 300.602387,462.120758 300.404523,462 M302.424779,462 C301.316372,465.010843 300.139381,467.999322 299,471 C299.141593,470.993901 299.426991,470.97967 299.568584,470.973571 C300.688053,468.135532 301.820796,465.299526 303,462.481816 C302.807522,462.319178 302.617257,462.158572 302.424779,462 M294,462.594282 C294.013483,465.383935 294.08764,468.177672 294.053933,470.969367 C294.361798,470.977536 294.669663,470.987747 294.979775,471 C294.993258,468 294.952809,465 295,462 C294.667416,462.196052 294.319101,462.375766 294,462.594282 M306.083845,463 C304.374233,465.656772 302.654397,468.311688 301,471 C301.134969,470.979592 301.404908,470.938776 301.539877,470.916512 C303.423313,468.32282 305.161554,465.632653 307,463.007421 C306.693252,463.003711 306.388548,463.001855 306.083845,463 M307.601926,463.001863 C305.716644,465.651759 303.883356,468.335197 302,470.986956 C302.242641,470.986956 302.485282,470.992546 302.729849,471 C304.803851,468.322152 306.92022,465.675984 309,463 C308.53205,463 308.06795,463.003727 307.601926,463.001863 M304,471 C304.179755,471 304.539265,470.99816 304.716977,470.996319 C307.478665,468.340695 310.240354,465.68507 313,463.029446 C312.493418,463.012882 311.986836,463.012882 311.480254,463 C308.967771,465.651944 306.477758,468.322291 304,471 M303.175737,463.028456 C302.128791,465.691961 301.058579,468.342186 300,471 C300.10968,470.998103 300.32904,470.994309 300.43872,470.992412 C301.616951,468.323216 302.791857,465.652122 304,463 C303.724138,463.007588 303.449938,463.017074 303.175737,463.028456 M290,463 C290.551464,465.43771 291.034939,467.892737 291.537299,470.343915 C291.616619,470.603656 291.609065,471 292,471 C291.646837,468.323713 291.153919,465.668591 290.749764,463.001924 C290.498584,463.001924 290.249292,463 290,463 M292,463 C292.22546,465.665371 292.417178,468.332685 292.645706,470.998056 C292.733129,470.998056 292.911043,471 293,471 C292.915644,468.336574 292.720859,465.680923 292.625767,463.019441 C292.417178,463.013609 292.207055,463.005832 292,463 M288,463 C288.817039,465.647453 289.673883,468.284969 290.442737,470.946335 C290.581006,470.960248 290.861732,470.986087 291,471 C290.23324,468.334658 289.47905,465.665342 288.708101,463.001988 C288.532123,463.001988 288.175978,463.001988 288,463 M265.003752,472.009797 C265.016886,475.000446 265.022515,477.989048 265,480.979697 C284.666667,481.016543 304.333333,480.991979 324,480.991979 C323.98499,477.997236 323.990619,475.000446 323.996248,472.005703 C304.331457,472.001609 284.668543,471.993421 265.003752,472.009797 M280,397.253023 C281.31377,396.847247 282.610126,396.388869 283.9297,396 C284.62625,401.333333 285.342148,406.662909 286,412 C284.813931,411.990607 283.629797,412.015029 282.445663,411.981214 C281.623347,407.072443 280.795227,402.165551 280,397.253023 M287,428.479521 C288.715717,426.75629 291.201137,425.959934 293.601246,426.001549 C297.072493,425.986416 300.431886,427.770178 302.545725,430.482706 C303.317324,431.44363 303.958111,432.538856 304.215943,433.755143 C304.725919,436.045849 304.610274,438.414109 304.52117,440.742647 C304.507899,441.196627 304.492733,441.692221 304.782793,442.076212 C305.544913,443.194137 306.813217,443.80701 308,444.376376 C307.497608,445.261636 306.951611,446.122306 306.434053,447 C305.415997,446.583852 304.405525,446.080691 303.60928,445.310817 C302.462309,444.124795 301.75896,442.549108 301.531462,440.92613 C301.235714,440.712382 300.941862,440.500524 300.649905,440.284884 C300.947549,439.600131 301.163672,438.883222 301.269838,438.145505 C301.628148,438.088757 301.982667,438.005528 302.340977,437.954455 C302.388372,436.694661 302.291685,435.429193 301.929584,434.216689 C301.605399,434.330184 301.283109,434.445571 300.96082,434.557174 C300.699197,433.77595 300.270741,433.07039 299.75887,432.429144 C299.950348,432.23242 300.141825,432.035695 300.333303,431.838971 C299.556017,430.794817 298.536066,429.947389 297.408053,429.306142 C297.191929,429.58988 296.979597,429.875508 296.761578,430.159246 C296.15302,429.883075 295.489483,429.799845 294.850591,429.631494 C294.780446,429.294793 294.765279,428.952416 294.736842,428.611932 C293.47233,428.579775 292.194547,428.541943 290.950889,428.804873 C290.98691,429.205888 291.034305,429.605012 291.081701,430.006028 C290.372664,430.390019 289.646565,430.741853 288.920466,431.095579 C288.285366,430.219776 287.606662,429.376131 287,428.479521 M279,429.695128 C279.4877,428.783429 280.000459,427.886956 280.530567,427 C281.691023,427.367344 282.679916,428.103937 283.628328,428.838626 C284.933358,429.933046 285.36901,431.714571 285.322746,433.343829 C285.62539,433.490386 285.929961,433.636943 286.234533,433.7835 C286.034055,434.516286 285.897191,435.262395 285.752616,436.008504 C285.417202,436.0066 285.081788,436.004697 284.746374,436.002794 C284.623003,437.367488 284.784927,438.741699 285.174316,440.053099 C285.490453,439.965546 285.806591,439.879895 286.124656,439.796149 C286.444648,440.431864 286.841748,441.029512 287.308243,441.571964 C287.007527,441.815591 286.710666,442.063025 286.415733,442.312363 C287.159813,443.446753 288.277859,444.286125 289.505783,444.85903 C289.713971,444.603983 289.922159,444.348936 290.132275,444.093888 C290.783826,444.333709 291.44116,444.560206 292.094639,444.794317 C292.129337,445.136918 292.167891,445.477616 292.210299,445.818313 C293.544245,445.985807 294.912888,445.932514 296.210207,445.567073 C296.123462,445.207342 296.059849,444.8419 295.971177,444.482169 C296.724894,444.168118 297.467046,443.829324 298.220764,443.511466 C298.800991,444.354646 299.375436,445.203535 300,446.016261 C297.48825,447.826336 294.157243,448.423985 291.146227,447.700716 C288.894713,447.167781 286.776207,446.042907 285.118414,444.446006 C282.969066,442.156289 282.361851,438.874932 282.442813,435.848623 C282.406187,434.565773 282.703048,433.189659 282.130531,431.986748 C281.378741,430.905652 280.13154,430.31181 279,429.695128 M291.484991,430.048546 C292.303009,430.020539 293.121027,430.003734 293.940913,430 C293.948383,430.332351 293.955854,430.664702 293.961457,430.997053 C294.820563,431.094144 295.642316,431.368614 296.460334,431.639349 C296.66764,431.379817 296.874946,431.118417 297.08412,430.860752 C297.769537,431.288327 298.42694,431.760713 299.024579,432.305918 C298.764979,432.548646 298.50538,432.791375 298.243913,433.032236 C299.022711,433.756686 299.62035,434.664116 299.883685,435.702246 C300.236665,435.663036 300.591513,435.629428 300.946361,435.60142 C300.996787,436.387486 301.006125,437.17542 300.996787,437.963353 C300.701703,437.993227 300.408486,438.024968 300.113402,438.054843 C300.059241,439.00335 299.794039,439.921983 299.43172,440.795804 C299.674511,440.976917 299.917302,441.158029 300.158225,441.342876 C299.58113,441.925424 299.045123,442.547182 298.447484,443.109191 C298.255119,442.916875 298.064621,442.726427 297.874124,442.534112 C297.127075,443.251094 296.219411,443.78883 295.222101,444.070768 C295.287468,444.311629 295.352835,444.55249 295.418202,444.793351 C294.609521,445.060352 293.750416,445.030478 292.917456,444.916583 C292.921192,444.772813 292.926794,444.48714 292.93053,444.343371 C291.905205,444.179062 290.930307,443.8019 290.041319,443.269765 C289.895645,443.491955 289.74997,443.716011 289.602428,443.938201 C288.98051,443.523696 288.410885,443.03824 287.880481,442.511706 C288.052302,442.278314 288.220388,442.041187 288.392209,441.807794 C287.736674,441.120687 287.381826,440.239397 287.066198,439.361841 C286.769246,439.182595 286.345296,439.313295 286.005389,439.262882 C285.997918,438.516026 285.997918,437.76917 286.007257,437.022314 C286.321017,437.011111 286.634777,437.00551 286.948538,436.998041 C287.006434,436.12422 287.271636,435.282139 287.695586,434.518479 C287.437855,434.251478 287.187593,433.977008 286.931729,433.711875 C287.385561,433.08825 287.915966,432.526241 288.476252,431.99784 C288.780675,432.14161 289.0907,432.277911 289.398857,432.419814 C290.033849,431.81486 290.842529,431.458236 291.632533,431.10348 C291.569034,430.752457 291.524211,430.399568 291.484991,430.048546 M294.45589,433 C294.398356,433.283101 294.336986,433.566201 294.275616,433.849302 C293.949589,433.682255 293.619726,433.524 293.287945,433.369262 C293.408767,433.824684 293.759726,434.158778 294.183562,434.397919 C294.187397,434.867408 294.168219,435.336898 294.135616,435.806388 C293.493151,435.588348 292.992603,435.150509 292.419178,434.826966 C292.430685,435.732536 293.249589,436.309287 294.033973,436.708441 C294.03589,437.107595 294.041644,437.508508 294.043562,437.907662 C293.211233,437.698414 292.509315,437.230682 291.826575,436.766468 C291.886027,437.297501 291.93589,437.870736 292.309863,438.306816 C292.69726,438.800923 293.297534,439.087541 293.87863,439.34954 C293.892055,439.736386 293.89589,440.126748 293.890137,440.515352 C292.720274,440.24456 291.868767,439.421634 291,438.713004 C291.195616,439.76452 291.742192,440.809003 292.706849,441.443781 C293.481644,441.930854 294.507671,442.182304 295.409041,441.846452 C296.887671,441.420922 297.766027,440.049379 298,438.711245 C297.133151,439.421634 296.279726,440.228735 295.119452,440.518869 C295.10411,440.128506 295.10411,439.738144 295.111781,439.34954 C295.696712,439.084024 296.308493,438.802682 296.693973,438.303299 C297.060274,437.861944 297.119726,437.288709 297.186849,436.757676 C296.494521,437.223649 295.784932,437.696655 294.944932,437.90942 C294.954521,437.506749 294.967945,437.104078 294.979452,436.703166 C295.756164,436.298737 296.565479,435.72726 296.586575,434.828724 C296.001644,435.143475 295.503014,435.588348 294.856712,435.804629 C294.822192,435.33514 294.806849,434.863892 294.820274,434.394402 C295.247945,434.155261 295.595068,433.815892 295.712055,433.356953 C295.378356,433.518725 295.044658,433.678738 294.714795,433.849302 C294.65726,433.567959 294.603562,433.286617 294.553699,433.005275 C294.528767,433.003517 294.480822,433.001758 294.45589,433 M319.000149,473.564663 C318.992086,473.306011 319.312603,473.183971 319.465806,473 C319.641183,473.162113 319.820591,473.326047 320,473.491803 C319.832686,473.661202 319.663357,473.826958 319.500075,474 C319.328729,473.857923 319.153352,473.71949 319.000149,473.564663 M311.468161,474.075353 C311.685202,474.196232 311.902242,474.323391 312.117489,474.450549 C312.210762,474.339089 312.397309,474.11303 312.490583,474 C312.64843,474.182104 312.980269,474.302983 313,474.55416 C312.84574,474.715856 312.666368,474.854003 312.49417,475 C312.399103,474.8854 312.210762,474.657771 312.115695,474.543171 C311.913004,474.676609 311.712108,474.811617 311.509417,474.945055 C311.33722,474.797488 311.16861,474.648352 311,474.500785 C311.156054,474.359498 311.312108,474.216641 311.468161,474.075353 M317.392111,474.498159 C317.573706,474.328818 317.757015,474.164409 317.945463,474 C318.027695,474.89274 317.984865,475.787125 317.962594,476.679866 C318.47997,476.928123 319.062445,476.90675 319.620937,476.826189 C319.439341,476.591085 319.237188,476.374065 319.028182,476.165266 C319.18408,475.874262 319.353683,475.591478 319.524999,475.310339 C319.941298,475.872618 320.181141,476.64534 319.831656,477.293111 C319.643208,477.738659 319.160096,478.026375 318.659852,477.988561 C318.178453,478.08063 317.966021,477.595623 317.729604,477.298043 C317.378406,478.144749 316.350508,477.98034 315.589863,477.985272 C315.060496,477.97212 314.279293,478.082274 314.082279,477.455876 C314.010326,476.969225 313.862994,476.305013 314.306704,475.943314 C314.409493,476.244182 314.327262,476.729188 314.740134,476.832766 C315.595003,476.933055 316.463576,476.877156 317.323584,476.840986 C317.429801,476.064976 317.554861,475.274169 317.392111,474.498159 M315,474.920139 C315.030595,474.395833 315.54265,474.175347 315.927497,474 C315.956481,474.291667 315.81639,474.519097 315.631213,474.711806 C315.750371,474.892361 316.067587,474.993056 315.987076,475.267361 C316.001568,475.723958 315.561973,475.925347 315.217382,476 C315.296284,475.777778 315.380016,475.559028 315.465359,475.340278 C315.296284,475.215278 315.141701,475.074653 315,474.920139 M277.004023,474.017988 C277.757285,474.03553 278.540421,473.92677 279.274478,474.09868 C280.185648,474.461798 280.164309,475.502033 279.603097,476.093195 C280.008536,476.67734 279.861297,477.361475 280,477.998246 C279.705524,477.996492 279.413181,477.996492 279.120839,478 C279.009876,477.508827 279.0995,476.986078 278.871174,476.517709 C278.529752,476.473854 278.184062,476.4721 277.840506,476.456312 C277.838372,476.965028 277.838372,477.475497 277.827703,477.985966 C277.554565,477.985966 277.281428,477.991229 277.010424,478 C276.993353,476.672078 277.001889,475.34591 277.004023,474.017988 M278,475 C278.001584,475.331512 278.004751,475.666667 278.006335,476 C278.376926,475.969035 279.043673,476.100182 278.997745,475.442623 C278.94865,474.846995 278.354754,475.056466 278,475 M282.09879,474.059326 C282.356855,474.021573 282.618952,474.014382 282.879032,474 C283.282258,475.319551 283.616935,476.655281 284,477.980225 C283.731855,477.978427 283.46371,477.976629 283.195565,477.974831 C283.122984,477.705169 283.054435,477.440899 282.981855,477.173034 C282.647177,477.171236 282.314516,477.171236 281.979839,477.173034 C281.91129,477.437303 281.840726,477.703371 281.774194,477.969438 C281.580645,477.976629 281.193548,477.991011 281,478 C281.346774,476.682247 281.6875,475.360899 282.09879,474.059326 M282.473684,476 C282.318885,476.333333 282.170279,476.668067 282,477 C282.250774,476.995798 282.749226,476.987395 283,476.983193 C282.829721,476.654062 282.662539,476.326331 282.473684,476 M284,475.011266 C284.667171,474.998677 285.332829,474.989686 286,475.023854 C285.986384,475.277421 285.972769,475.530988 285.95764,475.786354 C285.729198,475.780959 285.500756,475.77916 285.272315,475.777362 C285.269289,476.850975 285.301059,477.926387 285.251135,479 C285.114977,478.98921 284.84115,478.96763 284.704992,478.95684 C284.70348,477.899412 284.691377,476.843782 284.715582,475.786354 C284.478064,475.780959 284.240545,475.775563 284.003026,475.770168 C284.001513,475.516601 284,475.263035 284,475.011266 M296.01513,475.003516 C296.276657,475.014066 296.538184,475.019341 296.801873,475.022857 C296.804035,475.485275 296.806196,475.947692 296.823487,476.41011 C297.221182,475.949451 297.588617,475.471209 297.966859,475 C298.280259,475.005275 298.59366,475.010549 298.909222,475.017582 C298.50072,475.592527 298.018732,476.132308 297.592939,476.70022 C298.077089,477.454505 298.533141,478.221099 299,478.984176 C298.667147,478.985934 298.336455,478.989451 298.003602,478.992967 C297.644813,478.440879 297.430836,477.807912 296.877522,477.356044 C296.795389,477.894066 296.801873,478.439121 296.804035,478.980659 C296.538184,478.982418 296.274496,478.989451 296.010807,479 C295.997839,477.667253 295.993516,476.336264 296.01513,475.003516 M306,474.628736 C306.235158,474.413544 306.472228,474.203965 306.716945,474 C306.802978,474.866383 306.715033,475.742122 306.833568,476.604763 C307.561984,476.881706 308.464379,476.760076 309.223385,476.572952 C308.789394,476.185606 308.242604,476.247356 307.814349,476.621604 C307.894647,476.135082 307.875528,475.453952 308.449084,475.249987 C309.150734,475.354776 309.829442,475.566226 310.510062,475.755221 C310.439323,476.039649 310.368585,476.322206 310.299758,476.606634 C310.221372,476.649673 310.062688,476.732007 309.98239,476.773174 C310.511974,476.741363 311.043469,476.730136 311.57114,476.670256 C311.36466,476.408283 311.144797,476.159408 310.919198,475.916147 C311.081706,475.601779 311.249949,475.293025 311.422016,474.984271 C312.121754,475.671015 312.217347,476.881706 311.536727,477.61336 C310.879049,478.322559 309.401187,478.025032 309.340008,476.975268 C308.928959,477.390683 308.546589,478.002577 307.87744,477.981994 C307.321091,477.987608 306.535319,478.111109 306.250453,477.504828 C305.996176,476.571081 306.055444,475.58681 306,474.628736 M320,474.619772 C320.236795,474.407598 320.47359,474.199146 320.721935,474 C320.804717,474.828224 320.687282,475.665754 320.818193,476.488394 C320.872098,476.830851 321.287933,476.694985 321.536278,476.73593 C321.884732,476.739653 322.231261,476.70429 322.579715,476.670789 C322.373723,476.404641 322.148479,476.155243 321.909759,475.918874 C322.090725,475.591306 322.283241,475.269323 322.485383,474.954784 C323.164964,475.803481 323.268923,477.260782 322.198534,477.854498 C321.565156,478.055505 320.500542,478.15787 320.215618,477.405954 C319.978823,476.4977 320.094333,475.544777 320,474.619772 M266,475.00363 C266.652937,474.998185 267.305873,475 267.95881,475.001815 C267.97254,475.264973 267.98627,475.528131 268,475.793103 C267.755912,475.803993 267.511823,475.813067 267.267735,475.822142 C267.273837,476.880218 267.273837,477.940109 267.267735,479 C267.121281,478.998185 266.828375,478.998185 266.681922,478.99637 C266.668192,477.932849 266.681922,476.869328 266.672769,475.805808 C266.453089,475.811252 266.23341,475.818512 266.015256,475.825771 C266.010679,475.551724 266.006102,475.277677 266,475.00363 M269.007782,475.015606 C269.649027,474.995635 270.290272,474.997451 270.931518,475.006529 C270.940856,475.267974 270.950195,475.531234 270.959533,475.794495 C270.508171,475.819913 270.055253,475.821729 269.603891,475.814467 C269.603891,476.054125 269.602335,476.293783 269.597665,476.535256 C270.005447,476.535256 270.41323,476.537072 270.821012,476.542519 C270.821012,476.73134 270.821012,477.108983 270.819455,477.295989 C270.419455,477.303251 270.016342,477.285096 269.616342,477.325039 C269.597665,477.613718 269.597665,477.906028 269.594553,478.198338 C270.061479,478.200154 270.529961,478.200154 270.996887,478.203785 C270.998444,478.46523 270.998444,478.728491 271,478.993567 C270.332296,478.999014 269.666148,479.013538 269,478.966333 C269.012451,477.648214 269,476.33191 269.007782,475.015606 M273.206493,478.200303 C273.389824,477.147038 273.206493,476.063832 273.307762,475 C273.477125,475.007045 273.814104,475.024658 273.981721,475.033465 C273.962515,476.106103 274.062038,477.18931 273.931087,478.258426 C273.833311,478.968234 272.862529,479.232431 272.366662,478.767445 C272.020952,478.399331 272.054126,477.853324 272,477.386577 C272.221743,477.383054 272.443487,477.37777 272.666976,477.370725 C272.680944,477.686 272.689674,478.515577 273.206493,478.200303 M276.119433,475 C276.378543,475.001814 276.637652,475.003628 276.896761,475.003628 C277.291498,476.327891 277.65587,477.661224 278,478.998186 C277.738866,478.992744 277.477733,478.989116 277.218623,478.989116 C277.147773,478.733333 277.074899,478.477551 277.002024,478.223583 C276.661943,478.223583 276.321862,478.225397 275.983806,478.227211 C275.912955,478.482993 275.842105,478.738776 275.769231,478.994558 C275.576923,478.996372 275.192308,478.998186 275,479 C275.376518,477.666667 275.722672,476.326077 276.119433,475 M275.498316,476 C275.323232,476.324405 275.16835,476.653274 275,476.980655 C275.252525,476.985119 275.750842,476.995536 276,477 C275.868687,476.662202 275.720539,476.327381 275.498316,476 M288.005607,475.022531 C288.501935,475.018931 289.010594,474.943333 289.497673,475.09093 C290.067987,475.432925 289.973962,476.286111 289.784371,476.872901 C290.081859,477.526291 290.146598,478.563074 289.486883,478.946467 C288.996721,479.040066 288.495769,478.982467 288.002525,478.982467 C288.000983,477.661288 287.996359,476.34191 288.005607,475.022531 M288.013768,475.957822 C288.338211,476.049566 288.671871,475.967232 289,475.939003 C288.920733,475.656714 289.049772,475.190937 288.788006,475.04744 C288.533614,474.995687 288.277378,474.986278 288.021142,475.019211 C287.995334,475.329729 287.993491,475.644952 288.013768,475.957822 M288,477 C288.001775,477.332061 288.001775,477.666031 288.003551,478 C288.30536,477.971374 288.623147,478.019084 288.908978,477.887405 C289.054557,477.620229 288.99242,477.316794 288.948036,477.032443 C288.632024,477.019084 288.316012,477.009542 288,477 M291.099932,475 C291.381499,475.009112 291.665091,475.020046 291.948683,475.032802 C292.258609,476.36492 292.669818,477.673349 293,479 C292.801485,479 292.402431,478.998178 292.201891,478.998178 C292.139095,478.739408 292.074274,478.478815 292.011479,478.22369 C291.669142,478.221868 291.326806,478.221868 290.986496,478.221868 C290.913572,478.478815 290.842674,478.733941 290.773801,478.992711 C290.514517,478.992711 290.257259,478.992711 290,478.996355 C290.358542,477.662415 290.731263,476.332118 291.099932,475 M291.55,476 C291.35,476.315485 291.178125,476.633864 291,476.95369 C291.334375,476.962373 291.66875,476.978292 292,477 C291.84375,476.667149 291.70625,476.332851 291.55,476 M293,475.04738 C293.195342,475.034624 293.390684,475.018223 293.586026,475 C293.882044,475.796355 294.140496,476.610934 294.413974,477.420046 C294.495116,476.620046 294.454545,475.812756 294.469572,475.010934 C294.645379,475.025513 294.82269,475.038269 295,475.049203 C294.987979,476.361276 294.998497,477.675171 294.993989,478.989066 C294.818182,478.989066 294.642374,478.985421 294.468069,478.978132 C294.09692,478.181777 293.889557,477.292483 293.557476,476.472437 C293.531931,477.314351 293.551465,478.158087 293.534936,479 C293.357626,478.985421 293.180316,478.97631 293.003005,478.972665 C293.003005,477.664237 293.006011,476.355809 293,475.04738 M301,475.47395 C301.180633,475.314286 301.361266,475.156303 301.543743,475 C301.711473,475.137815 301.879204,475.27395 302.048778,475.415126 C302.222038,475.278992 302.397142,475.147899 302.574089,475.016807 C302.706799,475.194958 303.00724,475.322689 302.999867,475.561345 C302.846882,475.715966 302.679151,475.857143 302.513263,476 C302.356592,475.842017 302.19992,475.685714 302.043248,475.531092 C301.873674,475.680672 301.705944,475.833613 301.538213,475.984874 C301.35758,475.815126 301.17879,475.643697 301,475.47395 M303.487805,475 C304.343284,475.588313 304.04972,477.293353 303.178031,477.708381 C302.367577,478.102016 301.42565,478.039976 300.580976,477.855994 C299.801139,477.36609 299.956026,476.097472 300.190157,475.265276 C300.586379,475.530552 300.346845,476.317822 300.860133,476.426927 C301.731821,476.655835 302.630525,476.467575 303.513019,476.439763 C303.363535,476.238667 303.219455,476.035432 303.077175,475.830057 C303.208648,475.547666 303.33652,475.265276 303.487805,475 M304.362684,476 C304.632684,475.995718 304.659866,476.382128 304.75953,476.608792 C305.02953,477.573736 305.163624,478.754551 304.659866,479.643939 C304.243087,480.252696 303.512819,479.944 303,479.719494 C303.54,479.149595 304.12349,478.631504 304.583758,477.964463 C304.360872,477.655767 304.147047,477.340595 303.918725,477.040534 C304.061879,476.688665 304.192349,476.332477 304.362684,476 M309,479.485099 C309.165316,479.322848 309.332253,479.160596 309.49919,479 C309.664506,479.17053 309.833063,479.342715 310,479.516556 C309.831442,479.677152 309.664506,479.839404 309.497569,480 C309.330632,479.827815 309.165316,479.657285 309,479.485099 M322.427757,479 C322.617871,479.159049 322.806084,479.318099 323,479.480804 C322.807985,479.652651 322.614068,479.824497 322.422053,480 C322.275665,479.840951 322.13308,479.680073 322,479.515539 C322.127376,479.332724 322.279468,479.166362 322.427757,479" id="Tejarat-logo"></path>
        </g>
    </g>
</svg>