<?xml version="1.0" encoding="UTF-8"?>
<svg width="89px" height="87px" viewBox="0 0 89 87" version="1.1" xmlns="http://www.w3.org/2000/svg" xmlns:xlink="http://www.w3.org/1999/xlink">
    <title>Tosee-Taavon-logo</title>
    <g id="Page-1" stroke="none" stroke-width="1" fill="none" fill-rule="evenodd">
        <g id="Artboard" transform="translate(-531.000000, -263.000000)">
            <g id="Tosee-Taavon-logo" transform="translate(531.000000, 263.000000)">
                <path d="M43.8995558,0 L44.8575627,0 C45.8673897,0.0796540931 46.9396666,0.232324438 47.7834036,0.837695545 C51.0679989,3.26050754 54.3632238,5.66871629 57.6518052,8.08754558 C55.8885941,14.1107226 54.1227256,20.1338996 52.3595145,26.1584042 C50.4581165,25.2291064 48.3613967,24.7471991 46.2567046,24.6064769 C43.3175765,24.4139795 40.2973965,24.870663 37.6346421,26.1610593 C35.2256732,20.394103 32.8140469,14.6284742 30.405078,8.86284542 C33.7733825,6.1652268 37.147002,3.47291846 40.5139778,0.773972271 C40.8116111,0.537665128 41.1902962,0.456683467 41.5503793,0.362426123 C42.3210367,0.177894141 43.1076388,0.0491200241 43.8995558,0 M10.9154166,14.3908395 C14.9494098,13.28232 18.992704,12.2030071 23.0293546,11.1011254 C26.6514447,16.2295215 30.2668911,21.3645553 33.8889812,26.4929514 C31.8015624,27.478007 29.9945036,28.9861245 28.494379,30.7252388 C26.7032647,32.8174863 25.3240536,35.302694 24.7168287,38.0016402 C18.7003856,36.2917324 12.6799564,34.5951002 6.66617083,32.8745718 C6.65952723,28.5546648 6.65421236,24.2347578 6.6302954,19.9148508 C6.65686979,19.3532895 6.97709126,18.8620892 7.20297361,18.3629236 C8.04006706,16.7459455 9.21066916,15.1555188 10.9154166,14.3908395 M56.0506979,27.6784698 C59.3924281,22.3947483 62.7554178,17.12563 66.106449,11.8472188 C70.2560408,13.0699091 74.4056326,14.2899443 78.5552244,15.5086519 C78.9006915,15.6029093 79.1637781,15.8578024 79.429522,16.083489 C80.6612452,17.1548365 81.7507954,18.4505431 82.3420757,19.9878671 C82.5015221,20.4312749 82.6516674,20.891941 82.6370515,21.3698656 C82.5373975,25.4853271 82.4337574,29.6021161 82.3394183,33.7189052 C76.3894112,35.7341537 70.4314318,37.7281612 64.4774386,39.7314616 C64.0814801,37.1838582 62.9746566,34.78627 61.4971202,32.6887122 C60.0607741,30.6641707 58.2324558,28.8865569 56.0506979,27.6784698 M65.3464213,42.3334953 C71.5648298,41.6644009 77.7819095,40.9953066 84.000318,40.3248846 C85.6319858,44.3155547 87.2543526,48.3102074 88.8873492,52.3008775 C89.0534392,52.6779069 88.9883319,53.1000736 88.983017,53.4996716 C88.8860205,55.297199 88.4727886,57.1518118 87.3872246,58.6254125 C87.0577021,59.0966992 86.5514599,59.3914194 86.1076675,59.7405698 C83.0768577,62.0425731 80.0354182,64.3326283 77.0099233,66.6412694 C71.7189613,63.2506602 66.4452726,59.8348271 61.1609541,56.4362525 C62.7620614,54.6971381 63.8928019,52.5663912 64.6289127,50.3307663 C65.4660061,47.767232 65.7915424,45.0058902 65.3464213,42.3334953 M0.508883493,51.2282024 C2.0090081,47.6583715 3.50381782,44.0872129 5.00527114,40.517382 C11.2808145,40.8160849 17.5550292,41.1174428 23.8305726,41.4174733 C23.1197075,44.6514294 23.5462266,48.0646073 24.6849394,51.1498759 C25.3001367,52.797388 26.1664619,54.3559531 27.2865727,55.715383 C22.2387664,59.4073502 17.1962749,63.1046277 12.1484685,66.7952673 C8.74030237,64.1547341 5.33080748,61.5168561 1.91865515,58.8829607 C1.57983161,58.6320503 1.41241293,58.2311247 1.21709112,57.8726813 C0.403914632,56.2636686 -0.160791263,54.4568483 0.0411741393,52.6380798 C0.0890080504,52.1375866 0.317547848,51.6848859 0.508883493,51.2282024 M29.5334378,58.5510687 C30.9604828,60.5278178 32.9043998,62.0877104 35.027694,63.2639359 C37.3290366,64.5277808 39.9027668,65.3535282 42.5389468,65.4424753 C41.9742409,71.6647875 41.3842893,77.8844446 40.8209121,84.1067569 C36.5809674,84.9125908 32.3410226,85.714442 28.1024066,86.522931 C27.6812025,86.6052403 27.2626557,86.4631905 26.8560675,86.3689331 C25.3878322,85.9839383 23.9461712,85.3759121 22.7835414,84.3815635 C22.3769532,84.0164822 21.9663788,83.6275047 21.7325241,83.1243564 C19.9546971,79.4284065 18.1635829,75.7390944 16.3830984,72.044472 C20.7652161,67.5453434 25.1499913,63.0488698 29.5334378,58.5510687 M52.8763864,64.3565245 C55.3026287,63.2957975 57.5468364,61.7451978 59.2343105,59.6901222 C63.8316808,63.9224097 68.425065,68.161335 73.0237641,72.3909673 C71.8664492,74.7354528 70.677245,77.0626799 69.510629,79.4018551 C68.6708782,81.0055575 67.9267951,82.6623626 67.0418677,84.2408413 C65.8579784,85.3506883 64.4362483,86.2414866 62.8789887,86.7233938 C62.1375631,86.9278393 61.3483036,87.1004232 60.582961,86.931822 C56.586172,86.1034195 52.5880543,85.2816547 48.5912652,84.45989 C47.677106,78.2508535 46.7682617,72.0418169 45.8554313,65.8327804 C48.2710438,65.8911934 50.6693829,65.3137012 52.8763864,64.3565245" id="Fill-1" fill="#0A8992"></path>
                <path d="M43.7461351,30.1025893 C46.9255772,29.7258818 50.2323595,30.392968 52.9728841,31.999207 C56.0588531,33.7820277 58.4132929,36.7093591 59.414404,40.0460983 C60.4141604,43.3174369 60.1283222,46.9393228 58.5988845,50.0170756 C56.9556535,53.381283 53.8615565,56.049628 50.2133939,57.2464592 C46.853779,58.3621936 43.066084,58.2379325 39.8012969,56.8802158 C36.4565835,55.510727 33.6943839,52.8776983 32.2340351,49.6678363 C30.715435,46.3821096 30.5962228,42.5273975 31.8885908,39.155342 C33.0156875,36.1887702 35.2197575,33.6198342 38.0280163,31.997899 C39.7660751,30.9854976 41.7290115,30.3341075 43.7461351,30.1025893" id="Fill-2" fill="#706F6E"></path>
            </g>
        </g>
    </g>
</svg>