<svg width="390" height="260" viewBox="0 0 390 260" fill="none" xmlns="http://www.w3.org/2000/svg">
<path d="M390 0H0V259.996H390V0Z" fill="#F6EDDE"/>
<path d="M390 0H0V159.329H390V0Z" fill="url(#paint0_linear_811_6271)"/>
<path opacity="0.3" d="M218.912 126.728C199.192 126.728 191.967 121.471 183.421 113.573C174.875 105.675 174.215 107.656 157.771 105.688C141.328 103.719 144.629 93.2303 132.134 85.3074C119.64 77.3846 100.58 86.6279 90.0537 85.9552C79.5273 85.2825 79.5397 77.422 72.2522 72.8128C64.9647 68.2036 59.1098 73.473 49.2436 72.165C39.3775 70.857 36.7863 66.8956 30.8318 61.6386C24.8772 56.3816 19.0596 57.0419 7.873 57.0419C5.09776 57.0072 2.38126 56.2378 0 54.812L0 147.108H218.912V126.728Z" fill="white"/>
<path d="M200.662 187.694C232.543 187.694 258.389 161.849 258.389 129.967C258.389 98.085 232.543 72.2397 200.662 72.2397C168.78 72.2397 142.935 98.085 142.935 129.967C142.935 161.849 168.78 187.694 200.662 187.694Z" fill="#EABB9B"/>
<path d="M200.662 187.694C232.543 187.694 258.389 161.849 258.389 129.967C258.389 98.085 232.543 72.2397 200.662 72.2397C168.78 72.2397 142.935 98.085 142.935 129.967C142.935 161.849 168.78 187.694 200.662 187.694Z" fill="url(#paint1_linear_811_6271)"/>
<path d="M82.218 108.951L16.5308 79.0911L0 66.1854V180.929L112.078 168.671L82.218 108.951Z" fill="#4F5F69"/>
<path opacity="0.5" d="M30.458 95.0117L50.3648 99.9946L71.2681 103.968L22.4978 81.0844L0 65.1017V72.8626L7.57402 82.081L30.458 95.0117Z" fill="#F6EDDE"/>
<path opacity="0.3" d="M355.743 68.1913C348.007 74.5694 349.14 83.738 337.057 86.0177C324.973 88.2973 301.466 80.3496 288.062 91.2995C274.658 102.249 280.027 114.009 261.217 118.706C242.406 123.402 241.372 121.197 232.565 131.561C223.758 141.926 216.134 149.101 193.225 151.942L196.165 175.61L389.988 151.593V61.1903C387.576 62.4834 385.01 63.467 382.351 64.1178C371.103 67.0577 363.479 61.8007 355.743 68.1913Z" fill="white"/>
<path d="M353.936 94.0151C347.969 94.0151 299.199 111.941 293.22 113.947C287.24 115.952 246.443 131.873 246.443 131.873L176.769 142.81L158.855 190.596H390V86.603C374.254 90.2281 357.051 94.0151 353.936 94.0151Z" fill="#224D5E"/>
<path d="M362.893 170.665C362.893 170.665 276.302 157.721 273.313 155.716C270.323 153.71 190.708 142.773 190.708 142.773C190.708 142.773 154.869 135.784 143.931 123.875C132.994 111.966 93.168 82.0809 93.168 82.0809C93.168 82.0809 67.2693 104.965 59.3216 113.922C52.6445 121.396 14.4754 142.922 0 150.272V204.499H362.893V170.665Z" fill="#4F5F69"/>
<path d="M309.152 173.642C309.152 173.642 230.522 160.699 225.539 159.715C220.556 158.731 160.848 155.728 157.859 155.728C154.869 155.728 122.978 146.772 122.978 146.772L95.1611 127.861L93.168 82.0809L62.2864 109.948L14.5127 144.828L0 150.297V209.033L297.206 202.505L309.152 173.642Z" fill="#224D5E"/>
<path d="M321.086 96.0083L309.14 173.642L333.033 170.665L321.086 96.0083Z" fill="#18303F"/>
<path d="M284.262 118.905L275.231 177.628L293.294 175.373L284.262 118.905Z" fill="#18303F"/>
<path d="M297.206 118.905L288.162 177.628L306.237 175.373L297.206 118.905Z" fill="#18303F"/>
<path d="M372.846 77.7458L362.22 146.772L383.46 144.118L372.846 77.7458Z" fill="#18303F"/>
<path d="M381.293 88.4217L373.557 138.712L389.029 136.781L381.293 88.4217Z" fill="#18303F"/>
<path d="M358.01 112.651L353.214 143.807L362.806 142.611L358.01 112.651Z" fill="#18303F"/>
<path d="M336.023 92.0342L326.991 150.758L345.054 148.491L336.023 92.0342Z" fill="#18303F"/>
<path d="M349.8 97.4657L341.604 150.758L357.997 148.703L349.8 97.4657Z" fill="#18303F"/>
<path d="M263.359 144.803L254.938 190.248L271.793 188.504L263.359 144.803Z" fill="#18303F"/>
<path d="M226.536 144.853L217.504 193.549L235.567 191.68L226.536 144.853Z" fill="#18303F"/>
<path d="M239.479 144.853L230.447 193.549L248.51 191.68L239.479 144.853Z" fill="#18303F"/>
<path d="M43.351 146.772L28.5269 211.151L58.1752 208.672L43.351 146.772Z" fill="#18303F"/>
<path d="M9.55448 165.757L0.522949 214.452L18.5985 212.584L9.55448 165.757Z" fill="#18303F"/>
<path d="M22.4978 165.757L13.4663 214.452L31.5294 212.584L22.4978 165.757Z" fill="#18303F"/>
<path d="M81.0346 160.948L70.6826 205.869L91.3742 204.137L81.0346 160.948Z" fill="#18303F"/>
<path d="M57.4528 174.19L51.1494 208.174L63.7562 206.866L57.4528 174.19Z" fill="#18303F"/>
<path d="M66.4845 174.19L60.1812 208.174L72.7879 206.866L66.4845 174.19Z" fill="#18303F"/>
<path d="M30.9814 181.291L25.9985 208.174L35.9644 207.14L30.9814 181.291Z" fill="#18303F"/>
<path d="M91.3867 181.291L86.4038 208.174L96.3696 207.14L91.3867 181.291Z" fill="#18303F"/>
<path d="M100.692 167.588L94.4014 201.571L107.008 200.263L100.692 167.588Z" fill="#18303F"/>
<path d="M187.432 169.892L182.449 196.763L192.427 195.729L187.432 169.892Z" fill="#18303F"/>
<path d="M177.255 175.274L173.493 195.567L181.017 194.782L177.255 175.274Z" fill="#18303F"/>
<path d="M274.484 141.664L266.935 182.35L282.033 180.78L274.484 141.664Z" fill="#18303F"/>
<path d="M252.708 120.213L240.936 183.695L264.48 181.253L252.708 120.213Z" fill="#18303F"/>
<path d="M305.129 142.636L298.825 176.607L311.432 175.299L305.129 142.636Z" fill="#18303F"/>
<path d="M269.638 149.736L264.655 176.607L274.621 175.573L269.638 149.736Z" fill="#18303F"/>
<path d="M311.058 133.305L306.063 160.176L316.041 159.142L311.058 133.305Z" fill="#18303F"/>
<path d="M219.011 164.199L214.028 191.07L223.994 190.048L219.011 164.199Z" fill="#18303F"/>
<path d="M390 259.996V116.613C388.642 116.999 387.234 117.422 385.789 117.858C358.907 126.815 343.983 153.686 246.442 176.582C148.902 199.479 156.862 177.579 105.115 193.499C64.8526 205.894 18.5738 203.216 0 201.422V259.971L390 259.996Z" fill="#18303F"/>
<path opacity="0.4" d="M38.7546 123.539C52.3206 121.296 63.5321 129.556 86.03 128.796C108.528 128.036 119.042 121.321 131.051 120.536C143.059 119.752 167.812 124.274 167.812 120.536C167.812 116.799 145.302 115.292 125.794 116.799C106.285 118.307 101.788 111.555 82.2803 116.799C62.7722 122.044 59.7949 113.785 36.5123 110.035C13.2296 106.285 16.2567 108.54 0.498291 105.538L0 105.438V127.351C1.35784 127.351 2.77797 127.351 4.24793 127.351C26.7582 127.288 25.2509 125.818 38.7546 123.539Z" fill="white"/>
<path opacity="0.1" d="M352.94 107.955C321.086 111.941 322.083 118.905 289.246 121.895C256.408 124.884 245.446 118.905 230.522 123.875C215.598 128.846 230.522 125.868 239.479 128.858C248.436 131.848 247.439 127.862 273.313 135.822C299.186 143.782 306.163 126.865 340.993 133.829C372.959 140.219 373.918 149.126 390 151.269V104.081C379.76 106.921 379.947 104.641 352.94 107.955Z" fill="white"/>
<path opacity="0.1" d="M52.3206 164.685C91.1374 159.702 84.1738 144.754 111.044 143.782C137.915 142.81 148.864 140.805 172.758 131.848C196.651 122.891 233.462 132.832 235.455 124.872C237.448 116.912 229.488 111.941 199.628 117.908C169.768 123.875 148.864 117.908 131.013 120.537C113.162 123.165 90.1782 125.819 67.2693 124.872C44.3604 123.925 33.4478 112.925 8.57061 115.915C5.60577 116.276 2.7406 116.513 0 116.662V159.603C14.4255 163.464 32.3889 167.251 52.3206 164.685Z" fill="white"/>
<defs>
<linearGradient id="paint0_linear_811_6271" x1="195.006" y1="0" x2="195.006" y2="159.329" gradientUnits="userSpaceOnUse">
<stop stop-color="#E5BFAB" stop-opacity="0"/>
<stop offset="0.41" stop-color="#E5BFAB" stop-opacity="0.43"/>
<stop offset="0.82" stop-color="#E5BFAB" stop-opacity="0.84"/>
<stop offset="1" stop-color="#E5BFAB"/>
</linearGradient>
<linearGradient id="paint1_linear_811_6271" x1="142.935" y1="129.967" x2="258.389" y2="129.967" gradientUnits="userSpaceOnUse">
<stop stop-color="#E5BFAB" stop-opacity="0"/>
<stop offset="0.41" stop-color="#E5B3AB" stop-opacity="0.43"/>
<stop offset="0.82" stop-color="#E5A7AB" stop-opacity="0.84"/>
<stop offset="1" stop-color="#E5A2AB"/>
</linearGradient>
</defs>
</svg>
